<?xml version="1.0" encoding="utf-8"?>
<!-- Generator: Adobe Illustrator 19.2.0, SVG Export Plug-In . SVG Version: 6.00 Build 0)  -->
<svg version="1.1" id="Layer_1" xmlns="http://www.w3.org/2000/svg" xmlns:xlink="http://www.w3.org/1999/xlink" x="0px" y="0px"
	 viewBox="0 0 178.8 67.9" style="enable-background:new 0 0 178.8 67.9;" xml:space="preserve">
<style type="text/css">
	.st0{fill:#D6AA89;}
	.st1{fill:#3A291D;}
	.st2{fill:#FFFFFF;}
	.st3{fill:#509CC7;}
	.st4{fill:#006891;}
	.st5{fill:#E2E2E2;}
</style>
<g>
	<path class="st0" d="M85.7,0.2c-2.7-0.9-3.2,2.4-2.4,4.7c0.9,2.4-4.7,8.3-4.7,8.3l-4.7,5.9c0,0-4.2-9.2-8.2-10.3
		C43.6,2.3,6.3,8.5,3.2,13.1c-2.3,1.4-6.7,21.5,2,21c5.9-0.4,13.4,1.1,18,2.6c8.4,2.7,8.3-1.2,8.3-1.2l13,1.2c0,0,1.6-0.4,3.8-0.9
		c0.2,1,4.2,0.6,3.8,1.7c8.6-5.6,5.9,7.5,8.8,8.7s18.4-15.4,15.3-20c-0.4-0.5-1.4-0.9-2.7-1.2c0.1,0,0.3,0,0.3,0
		c0.9,0.3,7.1-4.4,9.4-5.9c2.4-1.5,7.1-8,7.1-11.8C90.4,3.5,88.3,1.1,85.7,0.2z"/>
</g>
<g>
	<g>
		<path class="st1" d="M81,6.1c0,2.2-2.2,4.5-3.6,6.2c-1.4,1.6-2.8,3.1-4.4,4.5c-1.5,1.3,0.7,3.4,2.1,2.1c2.1-1.8,4-3.8,5.7-6
			c1.5-2,3.2-4.1,3.2-6.7C84,4.2,81,4.2,81,6.1L81,6.1z"/>
	</g>
	<g>
		<path class="st1" d="M82.1,15.8c-2.5,3.1-5.7,5.4-9.5,6.6c-1.8,0.6-1,3.5,0.8,2.9c4.3-1.4,8-3.9,10.8-7.4
			C85.5,16.4,83.4,14.3,82.1,15.8L82.1,15.8z"/>
	</g>
</g>
<g>
	<path class="st0" d="M169,10.1c-3.7-2.3-42.4-6.2-58.6-1c-7.9,2.6-9.5,17.5-6.8,20.8c2.7,3.2,8.6,4.5,11.8,5.3
		c4.3,1.2,13,1.7,13,1.7l13-1.2c0,0-0.1,3.8,8.3,1.2c4.7-1.5,12.1-2.9,18-2.6C176.3,34.7,172.5,12.9,169,10.1z"/>
</g>
<g>
	<g>
		<g>
			<polygon class="st2" points="50.6,29.8 42.9,26.3 32.6,26.2 23.2,26.2 13.2,30.4 22,34.4 29.1,38 38.5,38 46.8,36.8 54,34.3 			
				"/>
		</g>
		<g>
			<g>
				<path class="st1" d="M13.2,24.3c13.6-0.6,27.1-1.8,40.7-2.9c1.9-0.1,1.9-3.2,0-3c-13.5,1.1-27.1,2.3-40.7,2.9
					C11.3,21.4,11.3,24.4,13.2,24.3L13.2,24.3z"/>
			</g>
			<g>
				<g>
					<polygon class="st3" points="37.4,26.2 27.9,25 24.8,26.9 26.8,33 35.6,35.8 42.5,31.5 44.2,26.5 					"/>
				</g>
				<g>
					<path class="st4" d="M43.2,27.3C41.6,37.5,27,36.5,25.1,27c-0.2-1.3-2.2-0.7-1.9,0.5c2.2,11.4,19.9,12.5,21.9,0.4
						C45.4,26.6,43.4,26.1,43.2,27.3L43.2,27.3z"/>
				</g>
			</g>
			<g>
				<path class="st1" d="M62.2,44.4C61.2,32.3,47.6,25.7,37,23.9c-6.3-1-13-0.3-18.9,1.9c-2.1,0.8-4.2,1.8-6.1,3
					c-1.1,0.7-2.3,1.9-3.7,2.2c-1.9,0.3-1.1,3.2,0.8,2.9c2.2-0.4,4.2-2.4,6.1-3.5c5-2.8,11-4.1,16.7-4c10.1,0.1,26.3,6.1,27.3,17.9
					C59.4,46.3,62.4,46.3,62.2,44.4L62.2,44.4z"/>
			</g>
			<g>
				<path class="st1" d="M54,33.7c-14,4.6-27.5,2.3-40.6-3.9c-1.7-0.8-3.3,1.8-1.5,2.6C25.8,39,40,41.5,54.8,36.6
					C56.7,36,55.9,33.1,54,33.7L54,33.7z"/>
			</g>
		</g>
	</g>
	<g>
		<g>
			<polygon class="st2" points="120.2,34.3 127.4,36.8 135.7,38 145.1,38 152.2,34.4 161,30.4 151,26.2 141.6,26.2 131.3,26.3 
				123.6,29.8 			"/>
		</g>
		<g>
			<g>
				<path class="st1" d="M161.3,24.3c1.9,0.1,1.9-2.9,0-3c-13.6-0.6-27.2-1.8-40.7-2.9c-1.9-0.2-1.9,2.9,0,3
					C134.2,22.5,147.7,23.7,161.3,24.3L161.3,24.3z"/>
			</g>
			<g>
				<g>
					<polygon class="st3" points="129.3,26.5 131,31.5 138,35.8 146.7,33 148.7,26.9 145.6,25 136.1,26.2 					"/>
				</g>
				<g>
					<path class="st4" d="M130.3,27.3c1.7,10.1,16.2,9.2,18.1-0.4c0.2-1.3,2.2-0.7,1.9,0.5c-2.2,11.4-19.9,12.5-21.9,0.4
						C128.1,26.6,130.1,26.1,130.3,27.3L130.3,27.3z"/>
				</g>
			</g>
			<g>
				<path class="st1" d="M111.3,44.4c1.1-12.1,14.6-18.7,25.2-20.5c6.3-1,13-0.3,18.9,1.9c2.1,0.8,4.2,1.8,6.1,3
					c1.1,0.7,2.3,1.9,3.7,2.2c1.9,0.3,1.1,3.2-0.8,2.9c-2.2-0.4-4.2-2.4-6.1-3.5c-5-2.8-11-4.1-16.7-4c-10.1,0.1-26.3,6.1-27.3,17.9
					C114.1,46.3,111.1,46.3,111.3,44.4L111.3,44.4z"/>
			</g>
			<g>
				<path class="st1" d="M119.5,33.7c14,4.6,27.5,2.3,40.6-3.9c1.7-0.8,3.3,1.8,1.5,2.6c-13.8,6.6-28.1,9.1-42.9,4.2
					C116.8,36,117.6,33.1,119.5,33.7L119.5,33.7z"/>
			</g>
		</g>
	</g>
</g>
<g>
	<ellipse class="st5" cx="38" cy="30.4" rx="3.1" ry="1.4"/>
	<ellipse class="st5" cx="143" cy="30.4" rx="3.1" ry="1.4"/>
</g>
</svg>
