<?xml version="1.0" encoding="utf-8"?>
<!-- Generator: Adobe Illustrator 19.2.0, SVG Export Plug-In . SVG Version: 6.00 Build 0)  -->
<svg version="1.1" id="Layer_1" xmlns="http://www.w3.org/2000/svg" xmlns:xlink="http://www.w3.org/1999/xlink" x="0px" y="0px"
	 viewBox="0 0 520 330" style="enable-background:new 0 0 520 330;" xml:space="preserve">
<style type="text/css">
	.st0{fill:#6e90a9;}
	.st1{fill:#3b5164;}
	.st2{fill:#1f3f51;}
</style>
<g>
	<g>
		<path class="st0" d="M483.7,174.9c-9.6-7.3-69.1-41.1-89.9-50.7c-3.7-1.7-50-27.6-50-27.6s0.1,26.6-4.4,32.7
			c-17,23.2-42.7,47.5-61.4,69.6c-19.5,23.1-31.8,43.5-31.8,43.5s-13.2-23.3-18.1-30.8c-8.7-13.5-25.6-24.2-25.6-24.2l3-12.7
			c0,0-24.8-20.2-30.6-27.7c-10.6-13.7-7.7-47.8-7.7-47.8L139.9,113c0,0-74.7,30.8-109.8,61.4c-20.6,17.9-21.9,57.1,5.8,78.3
			c83,63.6,325,89.2,445.3,8.8C509.4,242.7,516.7,200,483.7,174.9z"/>
		<path class="st1" d="M238.5,260.2c21-20.2,85.3-47,104.9-39.5c-1.3-8.8-6.5-25.3-8.6-25c-16.6,3.2-39.4,17.4-57.6,30.2
			C245.6,248.2,238.5,260.2,238.5,260.2z"/>
		<g>
			<g>
				<path class="st2" d="M341.1,97.1c14.9,11.6,32.9,19.8,49.5,28.5c22,11.4,44.1,22.5,65.5,35c8.6,5,17.4,10.1,24.9,16.8
					c1.9,1.7,4.8-1.1,2.8-2.8c-14.8-13.1-33.6-22.1-50.9-31.3c-21.7-11.6-43.7-22.4-65.2-34.3c-8.1-4.5-16.5-8.9-23.9-14.6
					C341.9,92.7,339.1,95.5,341.1,97.1L341.1,97.1z"/>
			</g>
			<g>
				<path class="st2" d="M34.4,173.5c16.8-12.4,35.2-22.5,53.6-32.4c19.4-10.5,39.1-20.4,59-30.1c7.4-3.6,14.9-7.2,22.4-10.8
					c2.3-1.1,0.3-4.6-2-3.5C131,114,94.7,131.7,60.1,152.1c-9.5,5.6-18.9,11.4-27.7,17.9C30.3,171.5,32.3,175,34.4,173.5L34.4,173.5
					z"/>
			</g>
			<g>
				<path class="st2" d="M255.1,311.5c1.3-15.1,3.4-30.2,6.4-45c2.4-11.8,5-24.6,11.2-35c1.3-2.2-2.1-4.2-3.5-2
					c-6.4,10.8-9.1,23.9-11.6,36c-3.1,15.2-5.2,30.6-6.6,46.1C250.9,314.1,254.9,314,255.1,311.5L255.1,311.5z"/>
			</g>
			<g>
				<path class="st2" d="M340.6,96.2c6.2,27.5-15.4,49.6-33,67.6c-24.4,24.9-49.6,49.4-65.1,81.1c-10.4,21.4-15.7,44.7-16.4,68.4
					c-0.1,2.6,3.9,2.6,4,0c0.6-22.1,5.3-43.8,14.7-63.9c7.9-17.1,18.8-32.6,31.1-46.8c11-12.7,23.1-24.4,34.8-36.4
					c9.7-9.9,19.6-20.2,26.7-32.3c7-11.9,10.1-25.2,7-38.8C343.9,92.6,340,93.7,340.6,96.2L340.6,96.2z"/>
			</g>
			<g>
				<path class="st2" d="M239.4,261.7c3.3-7.1,10.4-12.8,16.3-17.7c9.3-7.8,19.3-14.8,29.5-21.3c10.3-6.6,20.9-12.7,32-18
					c7.9-3.8,16.9-8.1,25.9-8.6c1.6-0.1,2.4-1.6,1.7-3c-3.6-7.3-7-14.6-9.8-22.3c-2.9-8.1-6.5-17.9-4.4-26.5
					c0.6-2.5-3.3-3.6-3.9-1.1c-2.2,9,0.9,18.9,3.9,27.4c3,8.4,6.7,16.5,10.7,24.5c0.6-1,1.2-2,1.7-3c-15.5,0.9-31.3,10.3-44.4,17.8
					c-17.1,9.7-33.9,20.8-48.7,33.8c-5.1,4.5-11,9.7-14,16C234.8,262,238.3,264,239.4,261.7L239.4,261.7z"/>
			</g>
			<g>
				<path class="st2" d="M246.8,241.9c-6.4-15.4-14.5-30.5-25.8-42.8c-3.8-4.2-9.6-10.5-15.2-12.3c-0.4-0.1-1.2-0.5-1.5-0.8
					c-0.6-0.5,0.2,1.6,0,0.5c-0.1-0.8,0.5-2.2,0.8-3c0.7-2.4,1.4-4.8,2.1-7.2c0.3-1.2,1-2.9,0.3-4.1c-1.2-2.1-5.9-3.5-8.1-4.8
					c-6.4-3.8-12.4-8.5-17.3-14.1c-7.5-8.6-11.9-19.2-13-30.5c-0.8-8.2,0.4-16.2,1.2-24.3c0.3-2.6-3.8-2.5-4,0
					c-1.7,17.3-2.6,33.7,6.8,49.2c3.2,5.3,7.3,10.1,12,14.2c2.4,2.1,5,4.1,7.7,5.9c1.7,1.2,3.4,2.3,5.2,3.3c0.7,0.4,1.4,0.8,2.1,1.2
					c-0.4-0.2,4.4,2.4,3.6,0.9c0.5,0.8-1.3,4.9-1.6,5.8c-0.6,2.2-1.6,4.5-1.8,6.8c-0.3,4.2,6,5.6,8.9,7.8
					c15.9,11.9,26.2,31.4,33.7,49.3C243.9,245.3,247.7,244.3,246.8,241.9L246.8,241.9z"/>
			</g>
			<g>
				<path class="st2" d="M165.7,163.4c7.2,15.6,17.1,30.1,26.3,44.6c10.6,16.7,21.6,33.3,31.1,50.6c3.1,5.6,7.3,12.2,8.1,18.7
					c0.2,1.9,3.2,1.9,3,0c-0.7-5.3-3.3-10.4-5.7-15c-4-7.9-8.6-15.5-13.3-23.1c-11-18-22.7-35.6-33.8-53.7
					c-4.7-7.7-9.4-15.4-13.2-23.6C167.5,160.1,164.9,161.6,165.7,163.4L165.7,163.4z"/>
			</g>
			<g>
				<path class="st2" d="M216.8,222.1c-1.8,3.2-0.2,7.7,2.7,9.8c3.6,2.6,8.3,0.5,10-3.3c1.6-3.5-0.8-7.7-4.3-8.9
					C222.2,218.7,218.7,219.6,216.8,222.1c-1.5,2.1,2,4.1,3.5,2c1.6-2.3,6.3-0.1,5.7,2.5c-0.4,1.7-2.7,3.2-4.2,2
					c-1.2-0.9-2.3-3.2-1.5-4.6C221.5,221.9,218.1,219.9,216.8,222.1z"/>
			</g>
			<g>
				<path class="st2" d="M239.3,273.6c0.1,3.5,1.8,6.8,5.7,7c3.8,0.1,6.8-3.4,6.7-7.1c-0.1-3.2-1.9-6.6-5.4-7
					C242.3,266,239.5,270,239.3,273.6c-0.2,2.6,3.8,2.6,4,0c0.1-1.3,1.2-3.5,2.8-3.1c1.2,0.3,1.6,1.9,1.6,3c0,1.4-0.9,3.1-2.4,3.1
					c-1.7,0.1-2-1.7-2-3C243.2,271,239.2,271,239.3,273.6z"/>
			</g>
			<g>
				<path class="st2" d="M165.7,98.4c-9.9,12.9-11.7,34.4-7.3,49.7c0.5,1.9,3.4,1.1,2.9-0.8c-4.2-14.6-2.5-35,7-47.3
					C169.5,98.4,166.9,96.9,165.7,98.4L165.7,98.4z"/>
			</g>
			<g>
				<path class="st2" d="M346.4,100.9c2.9,12.1,0.6,24.8-3.1,36.5c-3,9.5-7.1,19.5-13.4,27.4c-1.2,1.5,0.9,3.6,2.1,2.1
					c6.6-8.3,11-18.7,14.1-28.7c3.8-12.2,6-25.5,3.1-38.1C348.9,98.2,346,99,346.4,100.9L346.4,100.9z"/>
			</g>
		</g>
	</g>
</g>
</svg>
