<?xml version="1.0" encoding="utf-8"?>
<!-- Generator: Adobe Illustrator 19.2.0, SVG Export Plug-In . SVG Version: 6.00 Build 0)  -->
<svg version="1.1" id="Layer_1" xmlns="http://www.w3.org/2000/svg" xmlns:xlink="http://www.w3.org/1999/xlink" x="0px" y="0px"
	 viewBox="0 0 739.6 909.9" style="enable-background:new 0 0 739.6 909.9;" xml:space="preserve">
<style type="text/css">
	.st0{fill:#433947;}
	.st1{opacity:0.75;}
	.st2{fill:#231E26;}
	.st3{fill:#0F0814;}
</style>
<g>
	<path class="st0" d="M596.4,628.9c-9.6-7.3-110.1-63.4-122.2-69.6c-3.7-1.9-10-30.2-13.8-21.3c-27.1,28.8-91.9,33.4-95.3,33.1
		c-27.4-2.8-54.9-12.6-64.6-19.6c-3.3-2-18.6-15.8-19.3-13.9c-7.4,18.9-16.9,27.4-16.9,27.4s-84.2,37.9-119.4,68.5
		c-20.6,17.9-23.9,52.1,3.8,73.3c83,63.6,325,89.2,445.3,8.8C622.1,696.7,629.4,654,596.4,628.9z"/>
	<g class="st1">
		<path class="st2" d="M434.3,612c-1.3,2.4,1,8.5,5.3,7.5c5.4-1.3,31.6-25.2,33.5-27.8c2-2.6,5-5.7,3.8-7.7s-4.3-3.5-5.7-2.8
			c-1.3,0.7-7.4,9.9-11.3,13.4s-17.7,12.6-19.5,13S435.3,610.3,434.3,612z"/>
		<path class="st2" d="M292.3,603c1.5,0.8,12.3,3,10.8,6s-5,6.7-8,5.7s-17.2-12.9-20.2-14c-3-1-12.6-5.6-14.4-8.2
			c-1.8-2.5-1.3-9.2,1.2-9.4s8.1,4,10.3,6.2C274.1,591.5,292.3,603,292.3,603z"/>
	</g>
	<g>
		<g>
			<path class="st3" d="M596.3,628.8c-16.6-14.7-37.4-25.3-56.6-36.1c-19.4-10.9-39-21.3-58.8-31.4c-2-1-4.6-1.9-6.4-3.2
				c-1.6-1.3-2.3-4.3-3.2-6.2c-2.8-5.9-5.1-12-7.2-18.1c-0.6-1.8-3.5-1-2.9,0.8c1.5,4.7,3.3,9.3,5.2,13.9c1.5,3.5,3.1,9.5,6,12
				c0.8,0.7,2.2,1.1,3.1,1.6c7.2,3.7,14.4,7.4,21.5,11.1c23.1,12.1,46.1,24.5,68.4,38.1c9.8,6,20,12.1,28.6,19.7
				C595.6,632.2,597.7,630.1,596.3,628.8L596.3,628.8z"/>
		</g>
		<g>
			<path class="st3" d="M149.1,632.5c19.8-14.6,41.3-26.8,62.8-38.6c18.1-9.9,36.5-19.3,55.1-28.2c2.3-1.1,0.3-4.6-2-3.5
				c-18.6,8.9-37,18.3-55.1,28.2c-21.5,11.7-43.1,24-62.8,38.6C145.1,630.5,147.1,634,149.1,632.5L149.1,632.5z"/>
		</g>
		<g>
			<path class="st3" d="M461.8,533.6c-7.5,12.8-22.2,19.6-35.7,24.2c-14.9,5.1-30.5,8.1-46.1,10.1c-6,0.8-12.2,1.8-18.2,1.7
				c-6.7-0.1-13.3-1.5-19.7-3.2c-16.5-4.3-32.9-11.2-46.8-21.2c-3.8-2.7-6.9-6.4-10.6-9c-1.9-1.3-3.4-1.1-5.1,0.6
				c-2.2,2.3-3.2,6-4.3,9c-2.2,5.9-5.5,10.8-10.2,14.9c-1.5,1.3,0.7,3.4,2.1,2.1c3.2-2.7,5.9-5.9,8-9.5c2.2-3.8,3.2-8.1,5.1-12
				c2.4-4.7,6.4,0.9,9,3c3.2,2.6,6.6,5,10.2,7.2c13.9,8.6,29.6,14.9,45.5,18.6c12.6,2.9,24,2.2,36.7,0.5c15.5-2.1,31.1-5,46-10.2
				c14-4.9,29-12.1,36.9-25.4C465.4,533.4,462.8,531.9,461.8,533.6L461.8,533.6z"/>
		</g>
		<g>
			<path class="st3" d="M371.8,568.9c-6,0.6-12,1.6-18,2.3c-2.2,0.3-3,0.3-3.5,2.5c-0.6,2.5-0.1,5.7,0.2,8.3
				c0.4,4.3,0.9,8.6,1.9,12.8c1,4.5,3.7,8.6,4.2,12.7c0.5,4,0.7,8,0.9,12c1.8,32.7,2.1,65.5,2.5,98.2c0.2,15.8,0.3,31.6,0,47.4
				c0,1.9,3,1.9,3,0c0.7-29.9,0-59.9-0.6-89.9c-0.3-15.5-0.7-30.9-1.4-46.3c-0.2-5.2-0.5-10.4-0.8-15.6c-0.2-2.6-0.1-5.7-1-8.3
				c-0.8-2.6-2.3-4.9-3.1-7.6c-1.4-4.8-2.1-9.8-2.5-14.8c-0.2-2-0.3-4-0.3-5.9c0-0.5-0.1-1.1,0-1.6c0.2-1.1,0.4-1-0.3-0.6
				c1.4-0.8,4.7-0.6,6.3-0.8c4.2-0.6,8.4-1.1,12.6-1.6C373.7,571.7,373.7,568.7,371.8,568.9L371.8,568.9z"/>
		</g>
		<g>
			<path class="st3" d="M264.6,563.8c9,10.8,23.9,17.4,36.4,22.8c16.7,7.1,34.8,12.3,53.1,12.7c1.9,0,1.9-3,0-3
				c-18.2-0.4-36.3-5.7-52.9-12.9c-11.9-5.1-26-11.5-34.5-21.7C265.5,560.2,263.4,562.3,264.6,563.8L264.6,563.8z"/>
		</g>
		<g>
			<path class="st3" d="M356,600.7c20.2,0,40.8-4.4,60.1-10.1c20.4-6.1,42.2-14.4,57.7-29.6c1.4-1.4-0.7-3.5-2.1-2.1
				c-15.4,15.2-37.3,23.3-57.7,29.3c-18.7,5.4-38.5,9.6-58,9.6C354.1,597.7,354,600.7,356,600.7L356,600.7z"/>
		</g>
		<g>
			<path class="st3" d="M361.5,582.8c-0.5,3.7,1.3,8.2,5.4,8.6c3.7,0.4,5.9-3.2,6.6-6.3c0.9-4.1-1.9-7.4-6-7.8
				c-4.1-0.4-6.2,2.5-6.1,6.3c0.1,2.6,4.1,2.6,4,0c0-1.3-0.1-2.3,1.5-2.4c2.1,0,3.1,1.4,2.6,3.3c-0.3,0.9-0.8,2.6-1.8,2.8
				c-1.7,0.3-2.5-2.3-2.3-3.6C365.7,581.4,361.8,580.3,361.5,582.8L361.5,582.8z"/>
		</g>
		<g>
			<path class="st3" d="M465.1,586.6c-7.4,8.1-15.9,14.9-25.6,20.2c-2.2,1.3-0.2,4.7,2,3.5c9.9-5.5,18.7-12.5,26.4-20.9
				C469.6,587.5,466.8,584.7,465.1,586.6L465.1,586.6z"/>
		</g>
		<g>
			<path class="st3" d="M471.8,590.3c-8.2,7.9-16.9,15.4-25.9,22.3c-2,1.6,0,5,2,3.5c9.3-7.2,18.2-14.8,26.7-23
				C476.5,591.3,473.6,588.5,471.8,590.3L471.8,590.3z"/>
		</g>
		<g>
			<path class="st3" d="M268.7,589.3c6.6,6.1,13.9,11.3,21.7,15.5c2.3,1.2,4.3-2.2,2-3.5c-7.6-4.1-14.6-9-20.9-14.9
				C269.6,584.7,266.8,587.5,268.7,589.3L268.7,589.3z"/>
		</g>
		<g>
			<path class="st3" d="M266,597.6c6.6,3.8,13,8.1,19,12.8c2,1.6,4.8-1.2,2.8-2.8c-6.3-5-12.9-9.5-19.8-13.5
				C265.8,592.9,263.8,596.3,266,597.6L266,597.6z"/>
		</g>
		<g>
			<path class="st3" d="M146.3,631.7c15.2,28.8,26.4,59.5,30.4,91.9c0.3,2.5,4.3,2.6,4,0c-4.1-33.2-15.4-64.4-30.9-93.9
				C148.5,627.4,145.1,629.4,146.3,631.7L146.3,631.7z"/>
		</g>
		<g>
			<path class="st3" d="M593.1,630.8c-20,30.4-38.2,64.4-37.7,101.8c0,2.6,4,2.6,4,0c-0.4-36.7,17.5-69.9,37.2-99.8
				C597.9,630.6,594.5,628.6,593.1,630.8L593.1,630.8z"/>
		</g>
	</g>
</g>
</svg>
