<?xml version="1.0" encoding="utf-8"?>
<!-- Generator: Adobe Illustrator 19.2.0, SVG Export Plug-In . SVG Version: 6.00 Build 0)  -->
<svg version="1.1" id="Layer_1" xmlns="http://www.w3.org/2000/svg" xmlns:xlink="http://www.w3.org/1999/xlink" x="0px" y="0px"
	 viewBox="0 0 739.6 909.9" style="enable-background:new 0 0 739.6 909.9;" xml:space="preserve">
<style type="text/css">
	.st0{fill:#433947;}
	.st1{opacity:0.75;}
	.st2{fill:#231E26;}
	.st3{fill:#0F0814;}
</style>
<g>
	<path class="st0" d="M598.6,628.9c-9.6-7.3-84.4-50.1-93-55.5c-3.5-2.2-4.1-1.8-3.5-12.4c-0.4-1.3-8.5-7.2-14.8-16.7
		c-7.8-11.8-14.1-27.4-14.1-27.4l-15.8-12c0,0,4.4,27.2-1.1,37.9c-10.7,21.9-85.8,59.5-89,58.4c-31.1-11-71.3-38.3-81-45.4
		c-3.3-2,0.6-44.9,0.6-44.9s-13.1,19.8-18,32c-3.3,8.3-14.7,8.4-22,23.8c-1.7,3.5,0.8,5.7,0.8,5.7s-65.5,30.5-100.7,61.1
		c-20.6,17.9-23.9,52.1,3.8,73.3c83,63.6,325,89.2,445.3,8.8C624.4,696.7,631.6,654,598.6,628.9z"/>
	<g class="st1">
		<path class="st2" d="M489.4,545.3c-2.6-0.7-3.6,2.4-5.2,5.2c0,0-11.9,17.5-13,19.5c-1,2-8.8,7.7-9.3,9.9c-0.6,2.7,0,4.9,3.1,5.2
			c3.3,0.3,5.5-4.3,7.9-8.1s14.8-18.2,17.3-22.6C492.8,549.9,491.6,545.9,489.4,545.3z"/>
		<path class="st2" d="M460.8,533.6c-1-14.6,10.6-10,20,0.1c3.6,3.8-3-7.1-3.6-8.5c-6-14.7-21.1-20.5-21.1-20.5l5.7,16.6l-5,20.2
			C456.8,541.4,460.9,534.3,460.8,533.6z"/>
		<path class="st2" d="M283.2,540.8l0.3,4.5l-0.2,7.2l1.9,0.1l-1.4-15.1l3.8-26.6l-7.2,7.5l-7.2,15.6
			C277.2,528.6,280.3,527.1,283.2,540.8z"/>
		<path class="st2" d="M393.5,630.8l-0.2,0.7v-0.1l-8.7-13.6l-3.7-6.1l-5.2,12.7c0,0,6.6-0.6,7.6,1.1c5.4,9.1,21.6,40.4,24.2,41.4
			c2.7,1,9.4-5.6,9.4-5.6L393.5,630.8z"/>
		<path class="st2" d="M362.7,610.2l-4.6,4.3l-3.6,13.4l-18.2,34.9c0,0,2.8,6.7,5.7,5.5c2.4-1,13.8-30,17.2-38.8l1.9,5.5l2-9.2v-3
			l1.1-6.3L362.7,610.2z"/>
		<path class="st2" d="M294.7,589.8c0.8,3.7-1.4,5.2-5,4.5s-10.6-9.6-13.3-12c-2.6-2.4-8.5-5.4-10.8-8.2c-2.2-2.8-6.2-5.4-4.8-9.6
			c1.5-4.2,5.1-5.2,6.1-3.2c0.9,2,2.9,7,5.2,8.8s17.5,15.1,17.5,15.1S294.4,588.1,294.7,589.8z"/>
	</g>
	<g>
		<g>
			<path class="st3" d="M456.9,507.5c15.3,4.6,19.3,22.3,26.6,34.5c3.7,6.2,7.9,10.3,13.8,14.3c3,2,2.6,5.6,2.4,9.1
				c-0.1,2.1-1.1,5,0.4,6.9s5,3.1,7.1,4.2c4.4,2.4,8.9,4.8,13.3,7.2c12.6,6.9,25.1,13.9,37.4,21.3c13.2,8,26.7,16.2,38.3,26.5
				c1.9,1.7,4.8-1.1,2.8-2.8c-21.4-18.9-47.9-32.7-72.8-46.4c-5-2.8-10.1-5.5-15.1-8.2c-1.6-0.8-7.2-2.7-8.1-4.4
				c-0.3-0.5,0.8-6.1,0.8-7.5c-0.1-2.3-0.2-5.3-1.6-7.3c-1.7-2.3-5.2-3.2-7.4-5.1c-3.2-2.7-5.6-6.2-7.8-9.8
				c-8-13.4-12.3-31.3-29-36.3C455.5,502.9,454.4,506.7,456.9,507.5L456.9,507.5z"/>
		</g>
		<g>
			<path class="st3" d="M499.8,563.8c-10.9,24.4-27,45.6-45.9,64.4c-11.7,11.7-24.9,21.6-36.9,32.6c0.9,0,1.9,0,2.8,0
				c-14.6-15-26.5-32.8-37.6-51c-0.5-0.8-1.4-1-2.3-0.8c-2,0.4-2.6,2.8-3.2,4.5c-1.3,4.1-1.9,8.5-3.3,12.6c-0.8,2.4,3,3.5,3.9,1.1
				c0.5-1.6,2.9-14,3.6-14.1c-0.8-0.3-1.5-0.6-2.3-0.9c11.4,18.5,23.4,36.2,38.3,52.1c0.7,0.8,2.1,0.7,2.8,0
				c12.3-11.7,25.8-21.8,37.8-33.8c18.7-18.8,34.7-40.3,45.6-64.6C504.3,563.5,500.9,561.5,499.8,563.8L499.8,563.8z"/>
		</g>
		<g>
			<path class="st3" d="M375.7,763.6c0.3-9.6,0.3-19.2,0.4-28.9c0.1-10,0.8-20.3,0.2-30.3c-0.3-5.2-1.7-10.5-2.6-15.7
				c-2.1-12.1-4.2-24.2-6.1-36.3c-1.3-8.4-3.8-18.1-2.3-25.8c1.3-6.9,2.1-14.2,4.4-20.8c0.9-2.6,2.2-2.6,4.9-3.9
				c20.5-9.6,40.8-20.5,58.7-34.5c18.6-14.6,40.2-38.2,25.9-62.9c-1.3-2.2-4.7-0.2-3.5,2c13.3,22.9-8.2,44.8-25.3,58.1
				c-17.8,13.9-38,24.6-58.4,34.1c-2.2,1-4.3,1.6-5.4,3.8c-2.4,4.4-2.9,10.4-3.8,15.2c-1,5-2.6,10.1-2.1,15.2c0.4,4,1,8.1,1.6,12.1
				c1.8,12,3.8,23.9,5.9,35.9c1.3,7.6,3.1,15.2,4,22.8c0-0.2,0,0.5,0,1.4c0,2,0,3.9,0,5.9c0,6.3-0.1,12.7-0.1,19
				c-0.1,11.2-0.1,22.4-0.4,33.6C371.6,766.2,375.6,766.2,375.7,763.6L375.7,763.6z"/>
		</g>
		<g>
			<path class="st3" d="M369.8,600.3c-6.1-1.2-12-4.7-17.4-7.4c-9.2-4.6-18.2-9.6-27.1-14.8c-8.7-5-17.4-10.2-25.9-15.6
				c-3.3-2.1-6.6-4.2-9.8-6.5c-2.9-2-4.3-3-4.7-6.7c-1.4-12,1.1-25.3,3.9-37c0.6-2.5-3.3-3.6-3.9-1.1c-2.7,11.2-4.5,23.1-4.3,34.6
				c0.1,3.1,0,7.4,2.1,10c1.9,2.3,5.2,3.9,7.6,5.6c17.9,11.9,36.7,22.8,55.8,32.7c7,3.7,14.7,8.4,22.5,10
				C371.3,604.7,372.4,600.8,369.8,600.3L369.8,600.3z"/>
		</g>
		<g>
			<path class="st3" d="M365.8,618.2c-0.1-2.1-0.6-13.6-5.6-11c-2.3,1.2-3.2,6.8-4,8.9c-5.9,16.4-12.7,32.6-22.7,47.1
				c0.9-0.2,1.8-0.5,2.7-0.7c-24.5-16.8-45.4-39.4-64.4-62.1c-6.7-8-13.3-16.1-19.2-24.7c-0.9-1.3-2.9-4.2-3.1-4.9
				c-1.2-6.3,8.2-13.9,12.5-17.9c5.1-4.7,8.8-8.9,11.6-15.3c3.8-8.6,7.2-17.2,13.6-24.3c1.7-1.9-1.1-4.8-2.8-2.8
				c-5.7,6.4-9.4,13.8-12.7,21.6c-2.8,6.7-5.6,11.7-11,16.7c-5.9,5.5-19.1,16-13.8,25.4c4.5,7.9,10.7,15.2,16.4,22.2
				c9.6,11.9,19.7,23.3,30.3,34.2c12.5,12.9,25.8,25.2,40.6,35.4c0.9,0.6,2.2,0.1,2.7-0.7c7.9-11.5,13.9-24.1,19-37
				c1.8-4.6,3.4-9.2,5.1-13.8c0.3-0.8,1.6-2.9,1.4-3.7c0-0.1,0.1-0.2,0.1-0.3c0.5-0.9-0.1-0.5-1.8,1c0.3,0.8,0.5,1.6,0.6,2.4
				c0.2,1.5,0.4,2.9,0.3,4.4C361.9,620.8,365.9,620.8,365.8,618.2L365.8,618.2z"/>
		</g>
		<g>
			<path class="st3" d="M151.4,632.5c30.5-22.6,63.7-42.4,97.9-58.7c2.3-1.1,0.3-4.6-2-3.5c-34.2,16.4-67.4,36.2-97.9,58.7
				C147.3,630.5,149.3,634,151.4,632.5L151.4,632.5z"/>
		</g>
		<g>
			<path class="st3" d="M265.4,564.5c7,7.6,14.5,14.7,22.3,21.4c1.5,1.2,3.6-0.9,2.1-2.1c-7.9-6.7-15.3-13.8-22.3-21.4
				C266.2,561,264,563.1,265.4,564.5L265.4,564.5z"/>
		</g>
		<g>
			<path class="st3" d="M265,574.1c5.5,4.5,10.7,9.2,15.8,14.2c1.4,1.4,3.5-0.8,2.1-2.1c-5.1-5-10.3-9.7-15.8-14.2
				C265.6,570.8,263.5,572.9,265,574.1L265,574.1z"/>
		</g>
		<g>
			<path class="st3" d="M484.3,547.3c-3.7,8.8-8.8,16.7-15.4,23.7c-1.3,1.4,0.8,3.5,2.1,2.1c6.7-7.2,12-15.3,15.8-24.3
				C487.6,547,485.1,545.5,484.3,547.3L484.3,547.3z"/>
		</g>
		<g>
			<path class="st3" d="M480.6,564.9c-3.5,4.7-7.1,9.4-10.6,14.1c-1.2,1.5,1.4,3,2.6,1.5c3.5-4.7,7.1-9.4,10.6-14.1
				C484.4,564.9,481.8,563.4,480.6,564.9L480.6,564.9z"/>
		</g>
		<g>
			<path class="st3" d="M377.5,658.8c-0.5,3.7,1.3,8.2,5.4,8.6c3.7,0.4,5.9-3.2,6.6-6.3c0.9-4.1-1.9-7.4-6-7.8
				c-4.1-0.4-6.2,2.5-6.1,6.3c0.1,2.6,4.1,2.6,4,0c0-1.3-0.1-2.3,1.5-2.4c2.1,0,3.1,1.4,2.6,3.3c-0.3,0.9-0.8,2.6-1.8,2.8
				c-1.7,0.3-2.5-2.3-2.3-3.6C381.7,657.4,377.8,656.3,377.5,658.8L377.5,658.8z"/>
		</g>
		<g>
			<path class="st3" d="M384.5,700.8c-0.5,3.7,1.3,8.2,5.4,8.6c3.7,0.4,5.9-3.2,6.6-6.3c0.9-4.1-1.9-7.4-6-7.8
				c-4.1-0.4-6.2,2.5-6.1,6.3c0.1,2.6,4.1,2.6,4,0c0-1.3-0.1-2.3,1.5-2.4c2.1,0,3.1,1.4,2.6,3.3c-0.3,0.9-0.8,2.6-1.8,2.8
				c-1.7,0.3-2.5-2.3-2.3-3.6C388.7,699.4,384.8,698.3,384.5,700.8L384.5,700.8z"/>
		</g>
		<g>
			<path class="st3" d="M385.5,740.8c-0.5,3.7,1.3,8.2,5.4,8.6c3.7,0.4,5.9-3.2,6.6-6.3c0.9-4.1-1.9-7.4-6-7.8
				c-4.1-0.4-6.2,2.5-6.1,6.3c0.1,2.6,4.1,2.6,4,0c0-1.3-0.1-2.3,1.5-2.4c2.1,0,3.1,1.4,2.6,3.3c-0.3,0.9-0.8,2.6-1.8,2.8
				c-1.7,0.3-2.5-2.3-2.3-3.6C389.7,739.4,385.8,738.3,385.5,740.8L385.5,740.8z"/>
		</g>
	</g>
</g>
</svg>
