<?xml version="1.0" encoding="utf-8"?>
<!-- Generator: Adobe Illustrator 19.2.0, SVG Export Plug-In . SVG Version: 6.00 Build 0)  -->
<svg version="1.1" id="Layer_1" xmlns="http://www.w3.org/2000/svg" xmlns:xlink="http://www.w3.org/1999/xlink" x="0px" y="0px"
	 viewBox="0 0 739.6 909.9" style="enable-background:new 0 0 739.6 909.9;" xml:space="preserve">
<style type="text/css">
	.st0{fill:#433947;}
	.st1{opacity:0.75;}
	.st2{fill:#231E26;}
	.st3{fill:#0F0814;}
</style>
<g>
	<path class="st0" d="M596.4,628.9c-9.6-7.3-69.1-46.1-89.9-55.7c-3.7-1.7-20.1-10-20.1-10s-7.9-18.3-12.7-29.5
		c-7.1-16.5-14.1-27.6-14.1-27.6s-4.2,10.8-21.7,25.3c-23.2,20.1-57.1,41.2-60.3,40.1c-5.8-2-9.9-1.5-14.1-3.8
		c-6.8-3.8-27.1-17.1-35-22.8c-37-28.8-41.9-40.1-41.9-40.1l-18.8,53l-15.2,9.2c0,0-72.7,35.8-107.8,66.4
		c-20.6,17.9-23.9,52.1,3.8,73.3c75.6,57.9,332.5,84.2,445.3,8.8C622.1,696.7,629.4,654,596.4,628.9z"/>
	<g class="st1">
		<g>
			<path class="st2" d="M477.1,543.2c-2.6-5.5-5.5-10.9-6.9-16.9c-0.4-1.8-0.7-3.6-1.1-5.4c-1.2-0.3-2.3-4.8-3.3-5.6l0,0
				c0.5,0.5,0.9,0.7,1.2,0.9c0.5,0,0.7,0.5,0,0l0,0c-0.3,0-0.7-0.1-1-0.1c0.2,1.1,0.5,6.3,0.7,7.4c1.3,6.3-4.7,17.5-8.7,24.1
				c-1.9,3.2-3.7,6.4-5.1,9.8c-0.8,1.9-2.5,5.5-1.9,7.6c0.2,0.7,0.8,1,1.4,1.1c2.8,0.4,7.6-5.1,9.3-6.6
				C466.5,555.1,477,543.2,477.1,543.2z"/>
			<path class="st2" d="M296.5,557c-5.2-10.5-14.5-25.2-12.1-37.3c0.5-1,0.6-3.8,0.3-4.3c-0.3-0.5-12.6,28.7-12.5,29.2
				c0.7-1.5,1.5-3,2.2-4.5c1.1,1.8,1.9,4.1,2.6,5.5c1.9,3.8,3.8,7.6,5.9,11.3c2.2,3.9,6.7,13.4,12.4,12.7
				C302.6,568.7,298.2,560.5,296.5,557z"/>
		</g>
		<path class="st2" d="M485.7,568.3c-1.8,10.9-6.7,36.4-11.3,46.9c-28.3-15.9-89.7-45.3-92.2-44.2c0,0,56.3,33.7,89.9,56.3
			c5.9-13.4,14.5-56.2,14.3-57.2C486.4,570,486.1,569.3,485.7,568.3z"/>
		<path class="st2" d="M278.5,615.1c-1.5-12.2-6.4-42.3-7.9-54.3c-0.3,1.1-0.4,2-0.4,2.5c0,4.8,7.4,48.5,9.2,63
			c15.3-4.9,85.6-56,85.6-56C361.7,569.1,291.9,610.8,278.5,615.1z"/>
	</g>
	<g>
		<g>
			<g>
				<path class="st3" d="M485.5,564.6c19.2,9.3,37.7,19.9,56,30.9c18,10.8,36.6,21.8,52.3,35.8c1.9,1.7,4.8-1.1,2.8-2.8
					c-15.7-13.9-34.1-24.9-51.9-35.7c-18.6-11.3-37.6-22.1-57.2-31.7C485.2,560,483.2,563.5,485.5,564.6L485.5,564.6z"/>
			</g>
			<g>
				<path class="st3" d="M149.1,632.5c20.5-15.2,42.3-28.7,64.2-41.7c18.4-11,37.1-22.1,56.5-31.3c2.3-1.1,0.3-4.6-2-3.5
					c-19.4,9.3-38,20.3-56.5,31.3c-21.9,13.1-43.7,26.5-64.2,41.7C145.1,630.5,147.1,634,149.1,632.5L149.1,632.5z"/>
			</g>
		</g>
		<g>
			<path class="st3" d="M382.3,571.2c20.6-9.4,39.7-22.9,56.2-38.3c6.1-5.7,12.1-11.8,16.9-18.6c2.2-3.1,5.7-8,4.2-12
				c-0.9,0.4-1.8,0.8-2.7,1.2c6.5,11.7,12.2,23.8,17.7,36c2.3,5,4.5,10.1,6.6,15.2c1.1,2.6,3,5.8,3.5,8.7c0.2,1-0.5,4.2-0.8,5.8
				c-0.8,4.7-1.6,9.3-2.6,13.9c-2.1,10.5-4.1,21.6-8.4,31.5c0.7-0.2,1.4-0.4,2.1-0.5c-30-16.8-61.3-31.4-92.8-45.3
				c-1.8-0.8-3.3,1.8-1.5,2.6c31.4,13.9,62.8,28.5,92.8,45.3c0.6,0.4,1.7,0.2,2.1-0.5c4.4-10.2,6.5-21.4,8.7-32.2
				c1-4.9,1.9-9.8,2.7-14.7c0.3-2,1-4.3,0.7-6.3c-0.4-2.5-2.1-5.3-3.1-7.6c-2.1-5-4.2-9.9-6.4-14.8c-5.8-13-11.8-26-18.8-38.4
				c-0.8-1.4-3.3-0.5-2.7,1.2c1.5,4-4,10-6.2,12.8c-5.1,6.5-11.1,12.3-17.2,17.7c-15.7,14-33.4,26.4-52.6,35.1
				C379.1,569.4,380.6,572,382.3,571.2z"/>
		</g>
		<g>
			<path class="st3" d="M368.6,568.1c-19.2-7.3-36.3-20.6-51.6-34c-6.6-5.8-13.1-11.9-19-18.5c-2.9-3.2-7.6-7.4-8.8-11.8
				c-0.4-1.5-2.4-1.3-2.9,0c-3.7,10.5-7.6,20.9-11.3,31.4c-2.3,6.6-6.5,14.7-6.4,21.9c0.2,8.4,2.3,17.1,3.5,25.4
				c1.6,10.9,3.4,21.7,4.8,32.6c0.1,0.9,0.9,1.8,1.9,1.4c6.4-2.1,12.4-5.8,18.3-9.1c9.1-5.2,18.2-10.6,27.2-15.9
				c14.1-8.2,28.1-17.2,44.2-20.6c1.9-0.4,1.1-3.3-0.8-2.9c-15.6,3.3-29.2,11.8-42.8,19.7c-9,5.2-18,10.6-27,15.8
				c-6.3,3.6-12.9,7.8-19.8,10.1c0.6,0.5,1.3,1,1.9,1.4c-1.3-10.1-2.9-20.3-4.4-30.4c-1.4-8.9-3.5-18.2-3.9-27.3
				c-0.2-7,4-14.8,6.2-21.3c3.7-10.5,7.6-21.3,11.3-31.3c-1,0-1.9,0-2.9,0c1.2,4,5.4,8.3,8.3,11.6c6.3,7.1,13.2,13.5,20.3,19.8
				c15.7,13.8,33.2,27.3,52.9,34.7C369.6,571.7,370.4,568.7,368.6,568.1z"/>
		</g>
		<g>
			<path class="st3" d="M381.5,568.5c-4.2,1.9-10,1.1-14.2-0.3c-1.8-0.6-2.6,2.3-0.8,2.9c5.1,1.7,11.5,2.3,16.5,0
				C384.7,570.3,383.2,567.7,381.5,568.5L381.5,568.5z"/>
		</g>
		<g>
			<path class="st3" d="M366.8,568.7c-5.4-0.4-10.7,4.3-12.8,8.9c-2.1,4.6-1.2,10.2-1.1,15.2c0.2,12.6,0.1,25.1,0,37.7
				c-0.2,31.3-0.7,62.7-1.2,94c-0.2,12.1-0.4,24.2-0.6,36.3c0,1.9,3,1.9,3,0c0.8-52.3,2.1-104.5,1.9-156.8c0-5.2-0.1-10.3-0.2-15.5
				c-0.1-3-0.4-6.1,0.6-9c1.4-3.9,5.9-8.2,10.3-7.8C368.7,571.9,368.7,568.9,366.8,568.7L366.8,568.7z"/>
		</g>
		<g>
			<path class="st3" d="M387.2,762c-0.6-54.9,0.2-109.8,0.5-164.7c0.1-8.2,0-16.4,0.2-24.5c0.1-1.9-2.9-1.9-3,0
				c-0.7,20.5-0.3,41.1-0.4,61.7c-0.2,32.3-0.3,64.7-0.3,97c0,10.2-0.1,20.4,0,30.5C384.3,763.9,387.3,763.9,387.2,762L387.2,762z"
				/>
		</g>
		<g>
			<path class="st3" d="M367.6,584.4c1.5-1.1,3.9-1.3,5.3,0c1.8,1.6,0.5,3.9-1.5,4.4c-1.4,0.4-4.1,0.2-4.1-1.7
				c0-0.8,0.2-1.5,0.4-2.3c0.1-0.3,0.2-0.6,0.3-0.9c0.2-0.5-0.1,0.2,0-0.1c0.8-1.7-1.8-3.3-2.6-1.5c-0.9,2-1.8,4.8-0.8,6.9
				c1.5,3,6.3,3.3,8.9,1.9c3.1-1.6,4.1-5.7,1.8-8.4c-2.2-2.6-6.7-2.8-9.4-0.9C364.5,582.9,366,585.5,367.6,584.4z"/>
		</g>
		<g>
			<path class="st3" d="M367.6,624.4c1.5-1.1,3.9-1.3,5.3,0c1.8,1.6,0.5,3.9-1.5,4.4c-1.4,0.4-4.1,0.2-4.1-1.7
				c0-0.8,0.2-1.5,0.4-2.3c0.1-0.3,0.2-0.6,0.3-0.9c0.2-0.5-0.1,0.2,0-0.1c0.8-1.7-1.8-3.3-2.6-1.5c-0.9,2-1.8,4.8-0.8,6.9
				c1.5,3,6.3,3.3,8.9,1.9c3.1-1.6,4.1-5.7,1.8-8.4c-2.2-2.6-6.7-2.8-9.4-0.9C364.5,622.9,366,625.5,367.6,624.4z"/>
		</g>
		<g>
			<path class="st3" d="M367.6,664.4c1.5-1.1,3.9-1.3,5.3,0c1.8,1.6,0.5,3.9-1.5,4.4c-1.4,0.4-4.1,0.2-4.1-1.7
				c0-0.8,0.2-1.5,0.4-2.3c0.1-0.3,0.2-0.6,0.3-0.9c0.2-0.5-0.1,0.2,0-0.1c0.8-1.7-1.8-3.3-2.6-1.5c-0.9,2-1.8,4.8-0.8,6.9
				c1.5,3,6.3,3.3,8.9,1.9c3.1-1.6,4.1-5.7,1.8-8.4c-2.2-2.6-6.7-2.8-9.4-0.9C364.5,662.9,366,665.5,367.6,664.4z"/>
		</g>
		<g>
			<path class="st3" d="M367.6,704.4c1.5-1.1,3.9-1.3,5.3,0c1.8,1.6,0.5,3.9-1.5,4.4c-1.4,0.4-4.1,0.2-4.1-1.7
				c0-0.8,0.2-1.5,0.4-2.3c0.1-0.3,0.2-0.6,0.3-0.9c0.2-0.5-0.1,0.2,0-0.1c0.8-1.7-1.8-3.3-2.6-1.5c-0.9,2-1.8,4.8-0.8,6.9
				c1.5,3,6.3,3.3,8.9,1.9c3.1-1.6,4.1-5.7,1.8-8.4c-2.2-2.6-6.7-2.8-9.4-0.9C364.5,702.9,366,705.5,367.6,704.4z"/>
		</g>
		<g>
			<path class="st3" d="M367.6,744.4c1.5-1.1,3.9-1.3,5.3,0c1.8,1.6,0.5,3.9-1.5,4.4c-1.4,0.4-4.1,0.2-4.1-1.7
				c0-0.8,0.2-1.5,0.4-2.3c0.1-0.3,0.2-0.6,0.3-0.9c0.2-0.5-0.1,0.2,0-0.1c0.8-1.7-1.8-3.3-2.6-1.5c-0.9,2-1.8,4.8-0.8,6.9
				c1.5,3,6.3,3.3,8.9,1.9c3.1-1.6,4.1-5.7,1.8-8.4c-2.2-2.6-6.7-2.8-9.4-0.9C364.5,742.9,366,745.5,367.6,744.4z"/>
		</g>
		<g>
			<path class="st3" d="M465.5,537.4c-5.1,11.3-11.4,21.9-19,31.7c-1.2,1.5,1.4,3,2.6,1.5c7.6-9.8,13.9-20.4,19-31.7
				C468.8,537.1,466.3,535.6,465.5,537.4L465.5,537.4z"/>
		</g>
		<g>
			<path class="st3" d="M468.5,544.6c-1.4,3.8-3.5,7.3-6,10.4c-1.2,1.5,0.9,3.6,2.1,2.1c2.9-3.5,5.2-7.4,6.8-11.7
				C472.1,543.6,469.2,542.8,468.5,544.6L468.5,544.6z"/>
		</g>
		<g>
			<path class="st3" d="M283.7,540.2c3.5,6.5,7.4,12.8,11.6,18.9c1.1,1.6,3.7,0.1,2.6-1.5c-4.2-6.1-8.1-12.4-11.6-18.9
				C285.4,537,282.8,538.5,283.7,540.2L283.7,540.2z"/>
		</g>
		<g>
			<path class="st3" d="M279.4,547.9c2.7,5.6,5.8,10.8,9.3,15.8c1.1,1.6,3.7,0.1,2.6-1.5c-3.6-5-6.7-10.3-9.3-15.8
				C281.2,544.6,278.6,546.2,279.4,547.9L279.4,547.9z"/>
		</g>
	</g>
</g>
</svg>
