<?xml version="1.0" encoding="utf-8"?>
<!-- Generator: Adobe Illustrator 19.2.0, SVG Export Plug-In . SVG Version: 6.00 Build 0)  -->
<svg version="1.1" id="Layer_1" xmlns="http://www.w3.org/2000/svg" xmlns:xlink="http://www.w3.org/1999/xlink" x="0px" y="0px"
	 viewBox="0 0 530 300" style="enable-background:new 0 0 530 300;" xml:space="preserve">
<style type="text/css">
	.st0{fill:#433947;}
	.st1{opacity:0.75;}
	.st2{fill:#231E26;}
	.st3{fill:#0F0814;}
</style>
<g>
	<path class="st0" d="M489.9,154.7c-9.7-7.3-69.9-46.1-91-55.7c-3.8-1.7-20.4-10-20.4-10s-18-6-18.9-14.6
		C357.1,49.7,348,31.7,348,31.7s-3.2,20.6-18.5,42.7c-9.6,16.1-24.2,40.4-40.5,49.2c-13.3,7.1-18.1,8.2-22.2,20.5
		c-5,15.1,13.7,20.5,12.4,28c-0.7,4-10.3,6.9-19.5,16.9c-9.5,10.4-17.9,24-18.8,23.5c-1.9-1-6.8-26.6,1.5-56.8
		c0.5-1.8-18.1-6.9-30-21.6c-30.2-37.5-37.7-102.4-37.7-102.4l-12.1,19.4l-5.5,32.6l-15.4,9.2c0,0-73.6,35.8-109.2,66.4
		c-20.9,17.9-24.2,52.1,3.9,73.3c76.6,57.9,336.6,84.2,450.8,8.8C516,222.5,523.3,179.8,489.9,154.7z"/>
	<g class="st1">
		<path class="st2" d="M272,137.1c0,0,29-4.8,65.6,38.2c2.7,3.2,5.8-12.5,5.8-12.5l-5.2-8.1l-11.6-11l-13.6-10l-9-2.9l-12-2.1h-10.7
			l-9.3,3.9L272,137.1L272,137.1z"/>
		<path class="st2" d="M220,143.3c0,0-40.3,19.3-57.1,35.5c-2.9,2.8-4.2-14.5-4.2-14.5l16.2-12l18.7-9l11.6-4.6l9,1.1L220,143.3z"/>
		<path class="st2" d="M241.9,215.3c0.1-0.3,22-26.8,39.7-30.8c6.6-1.5,45-40.8,45-40.8l-8.5-6.2l-15.7,14.9l-23,19.5l-4,4.6
			l-15.7,12.6l-8.8,10.7L241.9,215.3z"/>
		<path class="st2" d="M159.7,63.7c-2.1,10.6,4.8,41.9,7.6,44.8c1.4,1.5,5.6,2.3,6,0c0.8-4.5-8.2-43.4-5.9-65.3
			C167.7,40,160.3,60.5,159.7,63.7z"/>
		<path class="st2" d="M354.6,50c-1.8,10.9-9.5,39.1-20.4,50.5c-2.8,2.9,2.3,5.3,3.9,4.9c6.9-1.6,20.2-31.9,20.2-36.8
			C358.3,66,355.3,46.1,354.6,50z"/>
	</g>
	<g>
		<g>
			<g>
				<path class="st3" d="M360,81.4c36.3,17.4,71.9,37.8,105.5,59.9c7.5,4.9,15,9.9,21.7,15.8c1.9,1.7,4.8-1.1,2.8-2.8
					c-13.4-11.8-29.3-21-44.6-30.2c-19.3-11.7-38.9-22.8-58.7-33.4c-8.2-4.4-16.4-8.7-24.8-12.7C359.7,76.8,357.7,80.3,360,81.4
					L360,81.4z"/>
			</g>
			<g>
				<path class="st3" d="M37.1,158.3c20.5-15,42.2-28.3,64-41.2c18.3-10.8,36.9-21.7,56.2-30.8c2.3-1.1,0.3-4.6-2-3.5
					c-19.3,9.1-37.8,20-56.2,30.8c-21.8,12.9-43.5,26.2-64,41.2C33,156.3,35,159.8,37.1,158.3L37.1,158.3z"/>
			</g>
		</g>
		<g>
			<path class="st3" d="M273.8,134.7c10.8-7.3,26.3-4.4,37.4,0.8c13.4,6.2,22.7,18.1,31.5,29.6c0.9,1.2,3.3,1.4,3.7-0.5
				c4-20.8,10.7-41.1,14.7-62c4.7-24.7,1.3-52.7-12.2-74.2c-1.1-1.7-3.6-1-3.7,1c-0.8,18.8-11.7,36.9-21.9,52.2
				c-9.2,13.7-19.6,27.5-31.8,38.7c-5.6,5.1-13.3,5.7-19.1,10.3c-6.5,5.1-9.3,13.9-7.7,21.9c0.8,4.2,2.9,8.2,6,11.1
				c1.8,1.7,5.9,3.5,6.7,5.8c0.9,2.7-6,6.5-7.5,7.6c-9.7,7.6-17.9,17.1-24.4,27.6c-14.9,24.4-19,53.3-20.5,81.3
				c-0.1,2.6,3.9,2.6,4,0c1.4-26.3,5-53.5,18.4-76.6c6.7-11.6,15.5-22.1,26.2-30.2c2.9-2.2,8.2-4.4,8.2-8.6c0-4.7-5.4-7-8.3-9.8
				c-8.3-8-6.4-22.5,3.3-28.4c4.1-2.4,9-3.1,13-5.6c1.8-1.1,3.4-2.6,4.9-4c11.7-10.8,21.6-23.9,30.6-37
				c11.2-16.4,22.9-35.9,23.8-56.3c-1.2,0.3-2.5,0.7-3.7,1c9.3,14.8,11.7,31,13.6,48c1,8.9-0.7,17.6-2.4,26.4
				c-4,19.7-10.2,38.9-14,58.6c1.2-0.2,2.4-0.3,3.7-0.5c-9.8-12.8-20.1-25.8-35.4-32.1c-11.9-4.9-27.6-7.4-38.9,0.3
				C269.7,132.7,271.7,136.2,273.8,134.7L273.8,134.7z"/>
		</g>
		<g>
			<path class="st3" d="M281.2,172.7c4.4-5.8,10.5-10.7,16-15.3c7.5-6.2,15.7-12.6,25-16c2.4-0.9,1.4-4.7-1.1-3.9
				c-9.5,3.5-17.9,9.8-25.7,16.2c-6.2,5.1-12.8,10.5-17.7,17C276.2,172.8,279.6,174.8,281.2,172.7L281.2,172.7z"/>
		</g>
		<g>
			<path class="st3" d="M221.5,141.9c-8.5-9.4-24.1-2.8-33.4,1.7c-11.5,5.5-22.2,12.7-32.3,20.5c1,0.6,2,1.2,3,1.7
				c0.5-20.9-0.5-41.8-0.9-62.7c-0.2-12.5,0.3-24.6,3.2-36.8c2.7-11.7,6.8-26.1,16-34.5c-1.1-0.5-2.3-0.9-3.4-1.4
				c0.1,11.2,2.7,22.6,5.5,33.3c3.9,14.6,9,28.9,15.3,42.6c5.9,12.7,13,25.3,22.8,35.5c4,4.2,8.6,8.1,13.8,10.7
				c2.1,1,4.2,1.9,6.5,2.5c3,0.8,3.1-0.5,2.6,2.7c-1.2,7.6-3.9,14.8-4.9,22.4c-1.5,11.6-0.3,23.1,4,34c0.9,2.4,4.8,1.3,3.9-1.1
				c-4.2-10.3-5.4-21.3-4-32.3c0.9-7.2,3.1-14,4.6-21c0.7-3.1,1.4-6.6-2.1-8c-2.3-0.9-4.8-1-7.1-2c-2.6-1.1-5-2.6-7.3-4.3
				c-11.1-8.2-18.9-20.7-25.2-32.7c-7.2-13.7-12.8-28.3-17.2-43.2c-3.7-12.6-7.3-26-7.3-39.2c0-1.8-2.2-2.6-3.4-1.4
				c-8.9,8-13.1,21.3-16.1,32.5c-3.4,12.8-4.6,25.7-4.3,38.9c0.4,21.8,1.5,43.7,0.9,65.5c0,1.4,1.8,2.7,3,1.7
				c8.6-6.6,17.7-12.8,27.3-17.9c8.2-4.4,25.3-13.8,33.5-4.8C220.4,146.6,223.2,143.8,221.5,141.9L221.5,141.9z"/>
		</g>
		<g>
			<path class="st3" d="M230,215.2c3.8-1,5.5-5,4-8.6c-1.3-3.3-4.7-4.5-8-3.7c-3.7,0.9-5.1,5.1-3.5,8.4
				C223.8,213.8,227.1,215.7,230,215.2c1.9-0.3,1.1-3.2-0.8-2.9c-3.4,0.6-6.5-5.5-2.4-6.5c1.7-0.4,3.5,0,4.3,1.6
				c1,2,0.4,4.3-1.9,4.9C227.3,212.8,228.1,215.7,230,215.2z"/>
		</g>
		<g>
			<path class="st3" d="M224.5,163.6c0.1-4.1,7.5-1.3,7.4,1.9c0,1.4-2.2,1.5-3.4,1.5C226.4,166.9,224.6,165.9,224.5,163.6
				c-0.1-1.9-3.1-1.9-3,0c0.1,4,3.2,6.2,7,6.4c2.9,0.1,6.4-1.1,6.4-4.5c-0.1-6.9-13.1-10.2-13.4-1.9
				C221.4,165.5,224.4,165.5,224.5,163.6z"/>
		</g>
		<g>
			<path class="st3" d="M218.6,144.5c-8.2,32.6-10.8,75.5,12.4,102.7c1.3,1.5,3.4-0.7,2.1-2.1c-13.2-15.5-17-36.6-17-56.4
				c0-14.5,1.8-29.2,5.3-43.3C221.9,143.4,219.1,142.6,218.6,144.5L218.6,144.5z"/>
		</g>
		<g>
			<path class="st3" d="M167.2,74.8c0.1,6.7,1.1,13.3,3.1,19.7c0.5,1.8,3.4,1.1,2.9-0.8c-1.8-6.2-2.8-12.5-3-18.9
				C170.1,72.9,167.1,72.9,167.2,74.8L167.2,74.8z"/>
		</g>
		<g>
			<path class="st3" d="M161.7,82.1c-0.1,4.7,0.5,9.2,1.9,13.7c0.6,1.8,3.5,1.1,2.9-0.8c-1.3-4.2-1.9-8.5-1.8-12.9
				C164.7,80.2,161.7,80.2,161.7,82.1L161.7,82.1z"/>
		</g>
		<g>
			<path class="st3" d="M347.4,73.8c-1,6.1-3.3,11.6-7.1,16.4c-1.2,1.5,0.9,3.6,2.1,2.1c4.2-5.2,6.9-11.1,7.9-17.7
				C350.6,72.7,347.7,71.9,347.4,73.8L347.4,73.8z"/>
		</g>
		<g>
			<path class="st3" d="M352.6,80.2c-3.7,7.6-8.1,14.9-13.1,21.8c-1.1,1.6,1.5,3.1,2.6,1.5c5-6.9,9.3-14.2,13.1-21.8
				C356,80,353.4,78.5,352.6,80.2L352.6,80.2z"/>
		</g>
	</g>
</g>
</svg>
