<?xml version="1.0" encoding="utf-8"?>
<!-- Generator: Adobe Illustrator 19.2.0, SVG Export Plug-In . SVG Version: 6.00 Build 0)  -->
<svg version="1.1" id="Layer_1" xmlns="http://www.w3.org/2000/svg" xmlns:xlink="http://www.w3.org/1999/xlink" x="0px" y="0px"
	 viewBox="0 0 358 342.5" style="enable-background:new 0 0 358 342.5;" xml:space="preserve">
<style type="text/css">
	.st0{fill:#EFEFEF;}
	.st1{fill:#BBBBBC;}
	.st2{fill:#7A7B7B;}
</style>
<g>
	<path class="st0" d="M106.1,173.5l-12.1,10.4l-10.9,16l-5.3,11.7l-1.9,13L75.5,237l-2.2,14.2l-7.7,21.3l-5.2,25.9l-2.1-9.9l-4-33.9
		v-32.5l3.6-34.8l6.4-25.5l8.3-18l8-11.9l12.2-12.3l6.2-3l4.9-12.1l9-11.1l12.6-8.4l19.8-7.1c0,0,0.7-6.3,0.4-7.1
		c-0.2-0.8,2.3-14.6,2.3-14.6l2.5-6.2l6.2-8.7l8.1-5.9l11.7-3.2l9.8-0.2l6.9,0.9l9.1,5.5l8.7,7.1l7,10.6l2.5,7l-0.5,11.1l-1.1,6.8
		l6.7,1.5l7.4,2.7l10.1,5.6l10.3,8.1l5.8,10.5l4.7,10.4l5.6,4.4l9.8,10.3l8.2,12.5c0,0,4.8,14.7,5.7,14.9c0.9,0.2,5,14.5,5,14.5
		l3.9,15l0.8,17.7v24.6l-1.5,20l-2.6,23l-4.1,19.5c0,0-3.7-12.2-3.2-13s-2.5-12.9-2.5-12.9l-5.4-15.8l-4.4-15l-0.6-13.2l-1.6-14.8
		l-6.1-13.1l-8.4-10.3l-10.2-12.3l-7.8-6.3l-9,6.3l-13.9,6.3l-12.1,3.4l-4.3,2.1l-5.5-0.4v-4l-4.7,2.6l-7.4,2.6l-4.7,0.1l-1.6-7.4
		l-7,4.7l-0.3-2l-7.5,6.5l-1.9-2.7l-2-3.7l-5.8,3.1h-5.5l-5.5-5.5l-7.6,4.8c0,0-2.7-5.6-3.2-4.4c-0.4,1.2-4.4,4.3-4.4,4.3l-4.7,0.2
		l-6.8-6.7l-3.4,5.7l-4.5-5L106.1,173.5z"/>
	<g>
		<polygon class="st1" points="73.3,242.7 66.2,235.6 54.5,217.6 54.3,228.4 54.3,254.6 56.3,278.8 60.4,298.4 62.7,283.7 68.7,262 
					"/>
		<polygon class="st1" points="56.3,199.1 62.7,210.5 68.7,219.3 76.1,228.4 78,211.8 72.4,207.4 58.3,188.2 		"/>
		<polygon class="st1" points="64.3,161.8 68.7,169.5 76,181.5 84,191.7 87.8,193.1 90.2,188.8 86.4,181.5 80,165.2 77.2,151.5 
			75.5,139.4 68.1,149.7 		"/>
		<path class="st1" d="M85.9,125.8l1.6,12.8l2.6,16.3l6.8,14.6l5.3,6.3l3.9-3.1l-2.7-7.4c0,0-5.3-19.4-5.4-20.2s-1.2-17.8-1.2-17.8
			l0.2-9.7l-5.7,2.1L85.9,125.8z"/>
		<path class="st1" d="M122.4,100.9l-5.1,10.3l-4.8,16.1l-1.4,14.1l1.4,15.6l4.2,14.4l6.7,11.9l3.6,3.6l5.9-2l2-3.1l-7-15.6
			l-4.1-15.5c0,0-2.4-14.2-2.5-14.9s0.6-18.8,0.5-19.3s3-14.8,3-14.8L122.4,100.9z"/>
		<path class="st1" d="M148.2,78.9c0,0-6,5.3-10.4,19.2c-1.6,5.2-2.9,21.6-2.9,21.6l0.4,15l2.3,17.4l10.6,31.8l7.6,3.1
			c-8.8-17.4-16-50-13.5-77.1C144.1,90,148.2,78.9,148.2,78.9z"/>
		<polygon class="st1" points="173.9,79.9 174.6,103.4 175.3,141.1 174.2,185.9 182.8,180.9 186.5,163.7 189.6,123.7 186.9,99.9 
			185,78.9 201.7,78.9 218.3,81.1 220.4,72.3 207,72.2 189.6,70.4 173.1,69.6 160.2,67.8 146.7,63.3 145.2,78 160.2,78.3 		"/>
		<path class="st1" d="M151.4,49.8l8.8,5.6l12.9,3.2l11.8,3.1l14.6,3.7c0,0,10.4,0,11.2,0s9.5,0,9.5,0l-1.3-4.6l-7.4-1.1l-21.9-6.1
			l-15.6-6.8l-13.7-7.4L151.4,49.8z"/>
		<polygon class="st1" points="175.3,34.1 183.2,40.9 197.1,46.6 205.1,51.1 215.3,52.4 211.5,44.6 201.9,38.4 189.6,34.1 		"/>
		<path class="st1" d="M164.8,78.9c0,0-3.6,25.8-2.9,56.8c0.6,26.1,4.3,52.5,4.3,52.5s-2.3,0.1-4.3-5.1c-2-5.3-6.8-21.1-7.4-26
			s-2.1-20.7-1.7-27.6c0.3-6.9,2.1-24.8,3-30.1c0.9-5.3,4.5-21,4.5-21L164.8,78.9z"/>
		<path class="st1" d="M188,187c0,0,10-21.1,11.6-44.1c2.7-38.8-2.8-63.5-2.8-63.5l8.8,1.4l4.6,15.3l3.2,23.5l-1.5,25.7l-4.8,20.9
			c0,0-5.6,14.5-8.8,17.1C194.9,185.9,188,187,188,187z"/>
		<path class="st1" d="M219.6,81.3l4.1,9.3l3.1,17.8l-0.4,16.3l-3.3,18l-5,19.1l-9.9,23.2h4.9l8.2-2.8l6-4.5l4.4-11.4l2.4-9.3
			l2.3-15.2l0.6-14.6c0,0-1.5-17.3-1.7-18c-0.1-0.7-4.2-15.3-4.2-15.3s-3.9-8.2-4.4-8.9s-4.2-3.7-4.2-3.7H219.6z"/>
		<path class="st1" d="M242.4,95.1c0.1,0.2,5.6,11.3,5.6,11.3l3.3,11.2l1.9,11.9l0.5,14.5l-2,14.4l-5.9,11.2l6.4,6.3l5.1-6.3
			c0,0,6.5-14.2,7.9-14.9c1.4-0.7,4.8-15.9,6-16.3c1.2-0.4,3.6-7.5,3.6-7.5l-11.5-11.6l-4.3-9.6l-7-11.5l-9.7-6.1V95.1z"/>
		<polygon class="st1" points="262.4,185.5 266.5,178.9 272.1,167.4 276.2,155.1 281.1,141.4 281.1,154.6 277.1,173.5 268.4,194.9 
					"/>
		<polygon class="st1" points="274,202.5 279.2,195.1 283.6,186.9 289.6,175.8 292,161.2 297,172 291.5,190.8 285.5,208.6 
			278.5,220.7 276.5,210.8 		"/>
		<polygon class="st1" points="280.2,233.9 284.4,228.3 289.6,220.3 300.3,195.1 302.8,205.6 302,237.3 293.1,253 285.5,261.9 
			282.3,250.3 		"/>
		<polygon class="st1" points="290.8,274.9 299.6,260.2 299.6,269.8 294.6,296.4 		"/>
	</g>
	<g>
		<g>
			<g>
				<path class="st2" d="M104.7,172.1c-8.3,7.9-16.7,16.1-22.8,26c-6.8,11-7.3,22.5-8.1,35.1c-0.9,14.4-7.4,26.9-10.8,40.6
					c-3.2,13-3.9,26.5-2.4,39.8c0.3,2.5,4.3,2.6,4,0c-1.5-13.3-0.8-26.7,2.5-39.7c3-11.9,8.7-23,10.2-35.2c1.6-13,0.4-25.5,7.2-37.2
					c5.9-10.2,14.6-18.5,23-26.5C109.4,173.1,106.6,170.3,104.7,172.1L104.7,172.1z"/>
			</g>
			<g>
				<path class="st2" d="M244.4,170.9c8.2,7.9,16.2,16.1,22.7,25.5c3.1,4.5,6,9.4,7.6,14.7c2.1,7.1,2,14.6,2.4,22
					c0.9,13.5,6.3,25.3,10,38.1c3.9,13.8,4.8,28.1,3.2,42.3c-0.3,2.6,3.7,2.5,4,0c1.6-14.2,0.7-28.7-3.1-42.5
					c-1.9-6.9-4.6-13.5-6.8-20.3c-2.4-7.7-3.2-15.3-3.6-23.3c-0.6-12.5-3.2-22.7-10.3-33.1c-6.7-9.7-14.8-18.2-23.3-26.3
					C245.4,166.3,242.5,169.1,244.4,170.9L244.4,170.9z"/>
			</g>
			<g>
				<path class="st2" d="M95.7,114.9c-23.6,16.7-34.9,44.4-39.8,72c-5.1,29-4.3,58.9-1.2,88.1c1.4,12.8,3.3,25.6,5.5,38.3
					c0.4,2.5,4.3,1.5,3.9-1.1c-4.2-24-7.2-48.3-7.7-72.7c-0.6-28.6,1.5-58.9,13.2-85.4c6.3-14.1,15.5-26.8,28.2-35.8
					C99.8,116.9,97.8,113.4,95.7,114.9L95.7,114.9z"/>
			</g>
			<g>
				<path class="st2" d="M262.2,121.4c22.9,16.2,32.9,43.6,36.6,70.5c3.8,27.9,1.8,56.5-2,84.2c-1.7,12.1-3.8,24.2-5.9,36.2
					c-0.4,2.5,3.4,3.6,3.9,1.1c4.3-24.7,8.4-49.5,9.6-74.6c1.4-28.7-0.1-59-11.9-85.6c-6.2-14.1-15.7-26.3-28.2-35.2
					C262.2,116.4,260.2,119.9,262.2,121.4L262.2,121.4z"/>
			</g>
			<g>
				<path class="st2" d="M217.9,82.3c11.4,19.7,7.6,45.8,2.3,66.8c-2.4,9.3-5.3,18.5-9.4,27.2c-1.1,2.4-2.3,5.6-4.2,7.5
					c-2,2.1-4.2,1.5-7.1,1.2c0.6,0.8,1.3,1.7,1.9,2.5c6.4-15.9,11.5-32.3,13.2-49.4c2-19.7-0.7-39.4-7.3-58
					c-0.9-2.4-4.7-1.4-3.9,1.1c6.5,18.3,9.2,37.6,7.2,57c-1.7,16.7-6.8,32.8-13.1,48.3c-0.5,1.3,0.8,2.4,1.9,2.5
					c3.1,0.3,6.6,0.8,9.1-1.4c1.9-1.7,3.2-4.5,4.4-6.8c4.6-9,7.9-18.8,10.5-28.6c6-22.6,10.2-50.8-2.1-72.1
					C220.1,78.1,216.6,80.1,217.9,82.3L217.9,82.3z"/>
			</g>
			<g>
				<path class="st2" d="M223.8,83.8c9.2,13.6,11.6,30.9,11.4,47c-0.2,16-2.8,32.8-10.1,47.1c-1.2,2.3,2.3,4.3,3.5,2
					c7.6-15,10.4-32.5,10.6-49.2c0.2-16.7-2.4-34.9-11.9-49C225.9,79.6,222.4,81.6,223.8,83.8L223.8,83.8z"/>
			</g>
			<g>
				<path class="st2" d="M231.4,86.8c10.1,5.8,14.9,18.7,17.6,29.4c3.7,14.9,3.6,30.6-0.1,45.5c-0.6,2.5,3.2,3.6,3.9,1.1
					c4-16,4-33-0.2-49c-3-11.3-8.4-24.2-19.1-30.4C231.2,82.1,229.2,85.5,231.4,86.8L231.4,86.8z"/>
			</g>
			<g>
				<path class="st2" d="M181.9,81.4c3.8,17.1,4.6,34.8,4.1,52.2c-0.5,18.1-2.5,36.2-6.8,53.7c-0.3,1,0.3,2.2,1.4,2.5
					c12.7,3.3,21.8-6.2,26.3-17c1-2.4-2.9-3.4-3.9-1.1c-3.7,8.8-11.1,17-21.4,14.2c0.5,0.8,0.9,1.6,1.4,2.5
					c8.4-34.5,10.4-73.3,2.7-108.1C185.2,77.9,181.4,78.9,181.9,81.4L181.9,81.4z"/>
			</g>
			<g>
				<path class="st2" d="M181.5,178.1c-2.6,2.5-5.3,5.3-8.5,7.1c1,0.6,2,1.2,3,1.7c1.2-17.3,1.3-34.6,1.2-52
					c-0.1-18-0.4-36.1-2.1-54c-0.2-2.5-4.2-2.6-4,0c1.7,17.9,2,36,2.1,54c0.1,17.3,0,34.7-1.2,52c-0.1,1.6,1.8,2.4,3,1.7
					c3.5-2,6.4-5,9.3-7.8C186.2,179.2,183.4,176.4,181.5,178.1L181.5,178.1z"/>
			</g>
			<g>
				<path class="st2" d="M157.9,79.4c-5,18.7-7.5,38.4-7.2,57.8c0.3,13.6,2.1,27.5,6.9,40.3c1.1,3,2.4,5.9,3.8,8.8
					c0.9,1.8,1.8,4.4,3.9,5c4.2,1.2,8.6-5,10.3-8c1.2-2.3-2.2-4.3-3.5-2c-0.7,1.3-4,6.3-5.8,5.7c-1.4-0.5-3.7-7.3-4.2-8.6
					c-2.1-5.2-3.7-10.6-4.8-16.1c-2.5-11.8-3.1-23.9-2.6-35.9c0.6-15.4,2.9-31,6.9-45.9C162.4,77.9,158.6,76.9,157.9,79.4
					L157.9,79.4z"/>
			</g>
			<g>
				<path class="st2" d="M142.4,79.7c-10.9,21.4-11.2,47.3-7.2,70.5c1.8,10.4,4.6,20.8,9.2,30.3c1.5,3.1,3.1,7.1,6.5,8.4
					c4.6,1.8,9.5-1.1,12.4-4.5c1.7-2-1.2-4.8-2.8-2.8c-1.9,2.2-5.3,5.1-8.4,3.4c-1.6-0.9-2.5-3.1-3.4-4.7c-1.8-3.4-3.2-7-4.5-10.6
					c-3.2-9.1-5.2-18.7-6.3-28.3c-2.3-19.9-1.3-41.6,8-59.7C147,79.4,143.6,77.4,142.4,79.7L142.4,79.7z"/>
			</g>
			<g>
				<path class="st2" d="M139.4,79c-18,11-21,34.9-19.9,54.1c1,18.1,5.1,40.3,17.2,54.6c1.7,2,4.5-0.9,2.8-2.8
					c-5.1-6-8-13.8-10.4-21.2c-3-9.5-4.9-19.5-5.6-29.5c-1.2-18,0.9-41.3,17.9-51.8C143.6,81.1,141.6,77.6,139.4,79L139.4,79z"/>
			</g>
			<g>
				<path class="st2" d="M127.6,89.6c-13.1,17.3-20.2,38.5-18.1,60.3c1.3,12.9,5.3,28,14.8,37.5c1.8,1.8,4.7-1,2.8-2.8
					c-9-9-12.8-23.7-13.7-35.9c-1.7-20.7,5.2-40.5,17.6-57C132.6,89.6,129.1,87.6,127.6,89.6L127.6,89.6z"/>
			</g>
			<g>
				<path class="st2" d="M209.9,187.4c28.1-6.2,54.5-25.3,55.9-56.2c1.1-25.7-19.8-46.4-43.8-51.5c-11.6-2.5-23.9-2.7-35.7-3.1
					c-14.7-0.6-30.1-1.4-44.7,0.9c-13.1,2.1-26.6,9.3-35,19.5c-7.6,9.3-11.1,21-11.6,32.9c-0.4,12.5,2.3,25.1,6.8,36.7
					c2.7,6.9,6.4,16.2,12.8,20.6c0.6,0.4,1.4,0.3,2,0c1-0.5,1.5-1.8,2-2.7c0.4-0.8,0.9-1.5,1.3-2.3c0.3-0.7,1.4-1.6,0.4-1.1
					c2.3-1.1,0.3-4.5-2-3.5c-0.9,0.4-1.4,1.7-1.8,2.5c-0.4,0.8-0.9,1.9-1.3,2.7c-0.3,0.5-1.4,1.6-0.6,1.6c0.7,0,1.3,0,2,0
					c-4.9-3-7.8-11.1-10-16.3c-3.9-9.2-6.6-19.3-7.4-29.3c-0.9-10.9,0.4-22.3,5.7-32.1c6.4-11.9,17.9-19.5,30.6-23.6
					c11.8-3.8,25-3.1,37.3-3c14.1,0.2,28.3,0.6,42.3,2.4c21.6,2.7,42.9,17.3,46.3,40.2c1.8,11.8-1.6,24.1-8.2,33.9
					c-10.1,15.1-27.2,23-44.4,26.8C206.3,184.1,207.4,188,209.9,187.4L209.9,187.4z"/>
			</g>
			<g>
				<path class="st2" d="M147.2,78c-0.3-18.6,6.1-40,27.1-43.5c15-2.5,31.7,5.3,39.6,18.3c5,8.3,5.6,18,2.6,27.1
					c-0.8,2.5,3.1,3.5,3.9,1.1c5.9-18.1-2.6-36.3-19.1-45.3c-15.1-8.3-35.4-8-47.4,5.6c-8.8,10-10.9,23.8-10.7,36.7
					C143.3,80.6,147.3,80.6,147.2,78L147.2,78z"/>
			</g>
			<g>
				<path class="st2" d="M150.4,51.5c10.2,5.7,21.6,9.2,32.9,11.8c11.4,2.7,23.4,4.7,35.2,3.8c2.6-0.2,2.6-4.2,0-4
					c-11.4,0.8-23-1.1-34.1-3.7c-11-2.6-22.1-5.9-32-11.4C150.2,46.8,148.2,50.3,150.4,51.5L150.4,51.5z"/>
			</g>
			<g>
				<path class="st2" d="M147.1,65c9.9,4.5,21.4,6.1,32.1,7.4c13.1,1.7,26.5,2.6,39.6,0.9c2.5-0.3,1.5-4.2-1.1-3.9
					c-12.2,1.7-24.9,0.7-37.1-0.8c-10.4-1.3-21.8-2.7-31.4-7.1C146.8,60.5,144.8,64,147.1,65L147.1,65z"/>
			</g>
			<g>
				<path class="st2" d="M159.2,41.1c7.3,5.2,16.1,8.6,24.4,11.9c11.2,4.4,22.8,8.1,34.7,9.8c2.5,0.3,3.6-3.5,1.1-3.9
					c-11.4-1.6-22.6-5.1-33.4-9.2c-8.4-3.2-17.4-6.7-24.8-12C159.1,36.1,157.1,39.6,159.2,41.1L159.2,41.1z"/>
			</g>
			<g>
				<path class="st2" d="M172.8,34.4c5,5.3,12.5,8.7,18.9,11.8c7.6,3.6,15.5,7,23.6,9.2c2.5,0.7,3.6-3.2,1.1-3.9
					c-7.8-2.1-15.4-5.3-22.7-8.8c-6.2-3-13.4-6.1-18.1-11.2C173.8,29.7,171,32.6,172.8,34.4L172.8,34.4z"/>
			</g>
		</g>
		<g>
			<path class="st2" d="M271.6,128.9c-3.1,15.3-9.3,32.5-19.7,44.4c-1.7,1.9,1.1,4.8,2.8,2.8c10.8-12.4,17.5-30.2,20.7-46.1
				C276,127.5,272.1,126.4,271.6,128.9L271.6,128.9z"/>
		</g>
		<g>
			<path class="st2" d="M277.2,136.9c-1.3,17.1-7,33.3-16.5,47.6c-1.4,2.2,2,4.2,3.5,2c9.9-14.9,15.6-31.8,17-49.6
				C281.4,134.3,277.4,134.4,277.2,136.9L277.2,136.9z"/>
		</g>
		<g>
			<path class="st2" d="M278.5,137.4c2.3,10.3,0.4,21.2-2.1,31.3c-2.2,8.6-5,17.5-9.6,25.2c-1.3,2.2,2.1,4.2,3.5,2
				c5-8.3,8.1-18.1,10.4-27.5c2.5-10.4,4.1-21.5,1.8-32C281.8,133.9,277.9,134.9,278.5,137.4L278.5,137.4z"/>
		</g>
		<g>
			<path class="st2" d="M290,157c-1.9,15.4-7.7,31.8-17.4,44.1c-1.6,2,1.2,4.9,2.8,2.8c10.4-13.2,16.5-30.3,18.5-46.9
				C294.3,154.5,290.3,154.5,290,157L290,157z"/>
		</g>
		<g>
			<path class="st2" d="M294.3,169.5c-2.2,17.3-8.3,35.3-17.5,50.2c-1.3,2.2,2.1,4.2,3.5,2c9.5-15.6,15.8-34.1,18-52.2
				C298.6,167,294.6,167,294.3,169.5L294.3,169.5z"/>
		</g>
		<g>
			<path class="st2" d="M298.3,187.6c-1.8,15.7-8.4,34.4-20.7,44.9c-2,1.7,0.9,4.5,2.8,2.8c13.2-11.2,20-31,21.9-47.7
				C302.6,185.1,298.6,185.1,298.3,187.6L298.3,187.6z"/>
		</g>
		<g>
			<path class="st2" d="M300,211.1c-1.4,13.9-9,27.2-17.9,37.7c-1.7,2,1.2,4.8,2.8,2.8c9.6-11.4,17.6-25.5,19-40.5
				C304.3,208.6,300.3,208.6,300,211.1L300,211.1z"/>
		</g>
		<g>
			<path class="st2" d="M300.8,235.3c-4.6,8.8-9.3,17.4-15.5,25.2c-1.6,2,1.2,4.8,2.8,2.8c6.4-8.1,11.4-16.9,16.2-26
				C305.5,235,302,233,300.8,235.3L300.8,235.3z"/>
		</g>
		<g>
			<path class="st2" d="M297.9,259.2c-2.7,5-5.7,9.9-8.8,14.7c-1.4,2.1,2,4.2,3.5,2c3.2-4.8,6.1-9.7,8.8-14.7
				C302.6,259,299.1,256.9,297.9,259.2L297.9,259.2z"/>
		</g>
		<g>
			<path class="st2" d="M83.9,127.3c1.4,16.8,5.9,36.6,16.9,49.9c1.6,2,4.5-0.9,2.8-2.8c-10.2-12.3-14.4-31.4-15.7-47.1
				C87.7,124.7,83.7,124.7,83.9,127.3L83.9,127.3z"/>
		</g>
		<g>
			<path class="st2" d="M74.1,138.6c0.8,8.8,1.6,17.7,3.8,26.3c2.3,8.9,6.3,16.9,10.6,25c1.2,2.3,4.7,0.3,3.5-2
				c-4.1-7.7-8-15.5-10.2-24c-2.1-8.3-2.9-16.7-3.6-25.2C77.8,136.1,73.8,136,74.1,138.6L74.1,138.6z"/>
		</g>
		<g>
			<path class="st2" d="M63.7,162.3c4.5,11.9,11.7,22.4,21.3,30.8c1.9,1.7,4.8-1.1,2.8-2.8c-9.1-8-16-17.8-20.3-29.1
				C66.6,158.8,62.8,159.9,63.7,162.3L63.7,162.3z"/>
		</g>
		<g>
			<path class="st2" d="M58.7,176.9c5.8,9,13.4,17.3,22.6,22.9c2.2,1.3,4.2-2.1,2-3.5c-8.6-5.2-15.8-13.1-21.2-21.5
				C60.7,172.7,57.3,174.7,58.7,176.9L58.7,176.9z"/>
		</g>
		<g>
			<path class="st2" d="M56.5,189.2c4.9,9.7,11.3,18,20.3,24.1c2.1,1.5,4.1-2,2-3.5c-8.4-5.7-14.4-13.7-18.9-22.7
				C58.8,184.9,55.4,186.9,56.5,189.2L56.5,189.2z"/>
		</g>
		<g>
			<path class="st2" d="M54.6,200.1c5.3,10.8,12.2,20.6,20,29.7c1.7,1.9,4.5-0.9,2.8-2.8c-7.6-8.8-14.3-18.4-19.4-28.8
				C56.9,195.8,53.5,197.8,54.6,200.1L54.6,200.1z"/>
		</g>
		<g>
			<path class="st2" d="M53.5,219.7c4.5,9.3,10.7,17.6,18.4,24.4c1.9,1.7,4.8-1.1,2.8-2.8c-7.5-6.7-13.5-14.6-17.8-23.6
				C55.8,215.3,52.4,217.3,53.5,219.7L53.5,219.7z"/>
		</g>
		<g>
			<path class="st2" d="M53.1,238c5,5.5,10.5,11,16.9,14.9c2.2,1.4,4.2-2.1,2-3.5c-6.1-3.8-11.3-9-16.1-14.3
				C54.2,233.2,51.4,236.1,53.1,238L53.1,238z"/>
		</g>
		<g>
			<path class="st2" d="M55.7,254.7c4.3,2.7,7.4,6.9,12.5,7.9c2.5,0.5,3.6-3.4,1.1-3.9c-4.7-0.9-7.7-5.1-11.6-7.5
				C55.5,249.8,53.5,253.3,55.7,254.7L55.7,254.7z"/>
		</g>
		<g>
			<path class="st2" d="M55.3,270.1c3,1.9,6.3,3.4,9.7,4.2c2.5,0.6,3.6-3.2,1.1-3.9c-3.2-0.8-6-2.1-8.8-3.8
				C55.2,265.3,53.2,268.7,55.3,270.1L55.3,270.1z"/>
		</g>
		<g>
			<path class="st2" d="M139.4,188.3c1.3-0.4,2.6-1.2,3.7-1.9c1.6-1,3.3-2.2,4.3-3.9c1.3-2.2-2.2-4.2-3.5-2c-0.7,1.1-2,1.9-3.1,2.6
				c-0.6,0.4-1.2,0.7-1.8,1c-0.2,0.1-0.4,0.2-0.7,0.3c-0.5,0.2,0.4-0.1,0,0C135.9,185.2,136.9,189,139.4,188.3L139.4,188.3z"/>
		</g>
		<g>
			<path class="st2" d="M125.8,188.4c3.9,0.4,8-0.4,10.1-4.1c1.3-2.3-2.2-4.3-3.5-2c-1.3,2.4-4.2,2.4-6.6,2.1
				C123.3,184.2,123.3,188.2,125.8,188.4L125.8,188.4z"/>
		</g>
	</g>
</g>
</svg>
