<?xml version="1.0" encoding="utf-8"?>
<!-- Generator: Adobe Illustrator 19.2.0, SVG Export Plug-In . SVG Version: 6.00 Build 0)  -->
<svg version="1.1" id="Layer_1" xmlns="http://www.w3.org/2000/svg" xmlns:xlink="http://www.w3.org/1999/xlink" x="0px" y="0px"
	 viewBox="0 0 620 400" style="enable-background:new 0 0 620 400;" xml:space="preserve">
<style type="text/css">
	.st0{fill:#7b3f4e;}
	.st1{opacity:0.75;}
	.st2{fill:#5b2e38;}
	.st3{opacity:0.75;fill:#5b2e38;enable-background:new    ;}
	.st4{fill:#381a1e;}
</style>
<g>
	<path class="st0" d="M526.7,197.2c-17.2-10.3-35.4-19.8-51.9-31.2c-10.9-7.5-21.6-15.2-32.9-22.1c-7.6-4.6-15.3-7.2-20.2-14.4
		l-2.1-2.1c-2.6-3.8-4.6-7.4-7.5-10.9c0-0.3-0.2-0.7-0.5-0.9c-0.3-0.2-0.6-0.5-0.9-0.8c-0.6-0.7-1.2-1.4-1.8-2.2
		c-0.1-0.1-0.2-0.2-0.3-0.3l-5.2-13.5l-4.6-17.5l-2-24l-0.1-8.5l-6.1,10L381,70.3l-14.7,15.1L352,98.6l-26.1,17.7h0.8
		c-0.2,0.1-0.4,0.3-0.7,0.4c-0.2,0.1-0.4,0.3-0.5,0.4c-3.2,1.8-6.9,2.7-9.9,4.8c-0.4,0.3-0.6,0.7-0.7,1.1l-25.8,14.2l-13.6-8.1
		l-21.6-19.7l-9.5-13l-10.7-16.8l-7.6-16.9c0,0-6.4,26.1-6.8,26.6c-0.4,0.5-8.9,24.6-8.9,24.6l-11.1,15.2l-81.7,55.4l-22.6,13
		l4.2,14.1c0.3,0.4,0.6,0.7,0.6,0.9c1.1,1.8,1.7,3.8,1.9,5.9c0.2,0.5,0.4,1,0.5,1.5c1.9,4.3,3.4,8.9,4.9,13.4
		c1.2,1.6,2.1,3.5,2.8,5.7c0.1,0.4,0.2,0.7,0.3,1.1c1.2,2.4,2.2,4.9,3.1,7.3c1.4,3.8,3,7.9,3.6,12c0.1,0.9,0.2,1.8,0.2,2.6
		c6.3,9.2,7,19.9,10.4,30.6c4.1,12.5,8.7,24.7,10.5,37.7c50.2,19.8,140.3,27.6,166.8,25.7l0.2,0.3c23.8,1.7,126.1-5.2,173.6-19.2
		c1.8-11.6,5.7-22.8,10.1-33.8c6-15,12.3-29.8,20-44c5.4-10,8.8-20.1,14.7-29.9c3.9-6.5,9.9-15.2,13.9-17l3.9-6.1
		C535.9,204,530.9,201,526.7,197.2z"/>
	<g>
		<g class="st1">
			<path class="st2" d="M184.3,259.1c-1.1,3.1,0.3,6.9,2.6,9.2c2.4,2.4,9.6,2,11.7-2c2.7-5.1-0.1-11.4-5.2-12.4
				C190.2,253.3,185.5,255.8,184.3,259.1z"/>
		</g>
		<g class="st1">
			<path class="st2" d="M205.3,309.1c-1.1,3.1,0.3,6.9,2.6,9.2c2.4,2.4,9.6,2,11.7-2c2.7-5.1-0.1-11.4-5.2-12.4
				C211.2,303.3,206.5,305.8,205.3,309.1z"/>
		</g>
		<g class="st1">
			<path class="st2" d="M359.8,273.8c30.2-1.8,56.5-0.9,86.7,0.7c0,9.2-1.6,15.4-4.4,23.5c-27.5,0.2-55.1-0.4-82.6-2
				c-1.2-6.8-0.3-14.4,0.3-21.4"/>
		</g>
		<path class="st3" d="M169.1,189.3c-1.3,3.3,2.6,34.1,1.9,41.7c-0.9,10.7-7.7,13.3-7.7,13.3l12.5-6.7l3-9.5c0,0-1.1-19-1.2-20
			c0-1-1.4-21.4-1.4-21.4S170.4,186,169.1,189.3z"/>
		<path class="st3" d="M280.1,132.5c-19.6,14.8-88,46.1-90.8,47s15.7-3.8,15.7-3.8l32.9-13.6l28.8-12.8l22.5-11.9
			C289.1,137.4,282.1,131,280.1,132.5z"/>
		<path class="st3" d="M233.7,79.8c0,0-3,0.5-6.7,6.2c-1.9,2.8-10.3,31.8-9.5,34.8c2.6,10,8.8,16.6,16.2,21.8c1.9,1.3-3.7,0.2-5.2,0
			s-23.4-18.9-22.1-20.9c1.3-2,4.7-8.6,4.7-8.6l5.2-13.4l5.9-22.9l2.3-13.5l1.5-3.9l3.6,11.7L233.7,79.8z"/>
		<path class="st3" d="M154.7,250c0,0-8.1,4.9-7.2,6.5c7.5,13.8,37.2,72.9,43.3,87.7c0.9,2.3,8.5,2.4,8.5,2.4l-5.9-15.1l-14.6-33.7
			l-15.5-33.3L154.7,250z"/>
		<path class="st3" d="M368.7,83c0,0,15.9-12.6,18-4.5c4,15,15.9,44.2,22.5,53.8c4.4,6.3-21.5,40.7-28,45
			c-10.2,6.8-91.3,23.8-95,25.6c-4.5,2.2-8,4.4-8,4.4l103.2-22.9l13.4-11.7l23.6-26.2l9-11l-6.1-6.4l-11.4-15.4l-9-23.4L397.2,68
			l-0.6-19l-3.7,8.8L380.7,72L368.7,83z"/>
		<path class="st3" d="M396.7,103.8c0,0-14.9,20.8-28.8,27.1c-14.5,6.6-0.8,12.3,5.8,9.5c10.1-4.4,26.2-18.8,28.9-24.1
			C406.2,109.3,396.7,103.8,396.7,103.8z"/>
		<path class="st3" d="M218.5,101.2c2,9.7,21.2,28.2,26.5,29.6s12.8-0.7,10.5-2.8c-11.5-10.5-25.8-26.8-33.2-37.5
			C221.4,89.3,218,98.4,218.5,101.2z"/>
	</g>
	<g>
		<g>
			<path class="st4" d="M394.7,47.1c-0.5,20.1,1.6,40.7,9.5,59.3c3.6,8.6,8.5,16.6,14.8,23.6c5.2,5.8,11.5,9.6,18,13.9
				c27,17.6,54.5,34.6,81.9,51.6c7.4,4.6,14.7,9.2,22.2,13.6c-0.1-1-0.3-2.1-0.4-3.1c-15.6,13.8-26.2,33.2-35,51.8
				c-9,18.8-16.3,38.4-22.9,58.1c-2.2,6.7-4.3,13.4-6.4,20.1c-0.8,2.5,3.1,3.5,3.9,1.1c11-34.9,22.7-70.3,42-101.6
				c6-9.7,12.8-19,21.3-26.6c1-0.9,0.6-2.5-0.4-3.1c-18.1-10.8-36-22.1-54-33.3c-13.8-8.6-27.6-17.3-41.3-26.1
				c-5.8-3.7-11.6-7.5-17.4-11.3c-8.1-5.4-14.1-13.5-18.8-21.9c-11-19.9-13.7-43.4-13.1-65.8C398.7,44.5,394.7,44.5,394.7,47.1
				L394.7,47.1z"/>
		</g>
		<g>
			<path class="st4" d="M223.4,55.8c-1.9,15.2-4.6,30.3-9.6,44.8c-2.4,7-5.1,14.2-9.3,20.3c-4.8,6.8-11.6,11.4-18.1,16.3
				c-23.7,17.6-49.1,32.6-74.2,48.1c-3.2,2-6.3,3.9-9.5,5.9c-2.3,1.5-6.8,3.2-8.4,5.4c-2.2,2.9,0.1,7.2,1.3,10.1
				c3.2,7.6,6.1,15.4,8.9,23.3c6.8,19,13,38.3,19,57.6c4.4,14.3,9.5,28.8,12.5,43.5c0.5,2.5,4.4,1.5,3.9-1.1
				c-2.5-12.4-6.7-24.7-10.4-36.8c-6-19.7-12.3-39.3-19.1-58.7c-3-8.5-6-16.9-9.4-25.2c-1-2.5-3.3-5.8-3.2-8.5c0-3.1,4.6-4.6,7-6.1
				c3.7-2.3,7.4-4.6,11.1-6.9c25.6-15.8,51.5-31.2,75.5-49.4c5.7-4.3,11.4-8.5,15.7-14.3c4.6-6.2,7.4-13.5,10-20.8
				c5.5-15.4,8.2-31.4,10.3-47.6C227.7,53.2,223.7,53.3,223.4,55.8L223.4,55.8z"/>
		</g>
		<g>
			<path class="st4" d="M394.8,46.6c-2.1,13.1-15.2,24.3-24.4,32.7c-16.6,15-35.1,28-54,39.9c-21.4,13.6-43.6,25.9-66.5,36.7
				c-20.5,9.7-41.7,18.5-63.6,24c-3.7,0.9-10.8,0.8-12.2,5.1c-0.9,2.6,0.3,6.1,0.6,8.7c0.5,4.9,0.7,9.8,0.9,14.7
				c0.2,5.2,0.4,10.4,0.8,15.5c0.3,4.8,0.2,10.5-3.9,13.7c-5.3,4.3-12.9,5-18.8,8.4c-0.9,0.6-1.2,1.8-0.7,2.7
				c9.8,17.4,17.8,35.9,25.9,54.1c6.4,14.3,13.8,28.9,18.4,44c0.7,2.5,4.6,1.4,3.9-1.1c-4.5-15-11.9-29.5-18.3-43.8
				c-8.3-18.6-16.5-37.5-26.4-55.3c-0.2,0.9-0.5,1.8-0.7,2.7c5.4-3.2,11.8-4.1,17.2-7.3c5.1-3,7-7.3,7.7-12.9
				c0.5-4.2-0.4-8.9-0.6-13.1c-0.2-4.9-0.4-9.7-0.7-14.6c-0.2-3.4-0.4-6.9-0.9-10.3c-0.2-1.2-1.2-4.5-0.1-5.5
				c0.5-0.5,3.5-0.7,4.2-0.9c21.8-4.9,42.8-13.4,63-22.6c43.9-20.1,87.5-45.2,124-77C376.9,78.7,384,72,390,64.3
				c3.8-4.9,7.7-10.6,8.7-16.9C399.1,45.2,395.2,44.1,394.8,46.6L394.8,46.6z"/>
		</g>
		<g>
			<path class="st4" d="M426.6,134c-13,15.2-26.3,30.4-40.2,44.7c-2.8,2.9-2.7,3-6.3,3.9c-5,1.3-10.1,2.4-15.1,3.5
				c-41.1,9.3-82.2,18.6-122.8,29.7c-23.2,6.3-46.5,13-68.8,21.9c-2.4,0.9-1.3,4.8,1.1,3.9c42.2-16.8,87.2-27.2,131.3-37.7
				c19-4.5,38-8.8,57-13.1c5.6-1.3,11.2-2.5,16.8-3.9c2.4-0.6,4.8-1,6.8-2.5c7.2-5.7,13.2-13.8,19.3-20.6c8-8.9,16-17.9,23.8-27
				C431,134.9,428.2,132,426.6,134L426.6,134z"/>
		</g>
		<g>
			<path class="st4" d="M182.4,258.5c-1.5,5.1,1.3,11.8,6.8,13c4.7,1,10.1-1,11.8-5.8c1.8-5-0.3-11-5.3-13.2
				c-4.8-2.1-11.1,0.8-13.2,5.5c-1,2.3,2.4,4.4,3.5,2c1.2-2.7,4.5-4.9,7.5-4.1c3.3,0.9,4.8,4.9,3.9,8c-0.9,3-3.9,4.1-6.8,3.7
				c-3.6-0.5-5.3-4.9-4.4-8.1C186.9,257.1,183.1,256.1,182.4,258.5z"/>
		</g>
		<g>
			<path class="st4" d="M203.4,308.5c-1.5,5.1,1.3,11.8,6.8,13c4.7,1,10.1-1,11.8-5.8c1.8-5-0.3-11-5.3-13.2
				c-4.8-2.1-11.1,0.8-13.2,5.5c-1,2.3,2.4,4.4,3.5,2c1.2-2.7,4.5-4.9,7.5-4.1c3.3,0.9,4.8,4.9,3.9,8c-0.9,3-3.9,4.1-6.8,3.7
				c-3.6-0.5-5.3-4.9-4.4-8.1C207.9,307.1,204.1,306.1,203.4,308.5z"/>
		</g>
		<g>
			<path class="st4" d="M359.8,275.8c28.9-1.7,57.8-0.8,86.7,0.7c-0.7-0.7-1.3-1.3-2-2c-0.1,8-1.8,15.4-4.3,23
				c0.6-0.5,1.3-1,1.9-1.5c-27.6,0.2-55.1-0.4-82.6-2c0.6,0.5,1.3,1,1.9,1.5c-1.1-6.9-0.3-13.9,0.4-20.9c0.2-2.6-3.8-2.5-4,0
				c-0.7,7.3-1.4,14.6-0.2,21.9c0.1,0.9,1.1,1.4,1.9,1.5c27.5,1.5,55.1,2.2,82.6,2c0.9,0,1.6-0.6,1.9-1.5c2.7-7.9,4.4-15.7,4.5-24.1
				c0-1.1-0.9-1.9-2-2c-28.9-1.5-57.8-2.3-86.7-0.7C357.2,272,357.2,276,359.8,275.8L359.8,275.8z"/>
		</g>
		<g>
			<path class="st4" d="M223.4,55.8c1.6,17.7,13.2,34.3,23.8,47.8c10.9,13.9,24.6,28.8,41.3,35.7c2.4,1,3.4-2.9,1.1-3.9
				c-15.5-6.4-28.4-20.8-38.7-33.6s-22-29.2-23.5-46.1C227.2,53.2,223.2,53.2,223.4,55.8L223.4,55.8z"/>
		</g>
		<g>
			<path class="st4" d="M390,113.8c-5.2,6.4-11.4,11.5-18.8,15.3c-2.3,1.2-0.3,4.6,2,3.5c7.6-3.9,14.2-9.2,19.6-15.9
				C394.5,114.6,391.6,111.8,390,113.8L390,113.8z"/>
		</g>
		<g>
			<path class="st4" d="M392.7,120.8c-3.6,4.8-8,8.7-13.2,11.6c-2.2,1.3-0.2,4.7,2,3.5c5.8-3.3,10.7-7.7,14.6-13.1
				C397.7,120.8,394.2,118.8,392.7,120.8L392.7,120.8z"/>
		</g>
		<g>
			<path class="st4" d="M225.2,109.7c3.1,5,6.9,9.4,11.6,13.1c2,1.6,4.9-1.2,2.8-2.8c-4.4-3.4-8.1-7.5-11-12.3
				C227.3,105.5,223.8,107.5,225.2,109.7L225.2,109.7z"/>
		</g>
		<g>
			<path class="st4" d="M231.3,106.2c3.8,6,8.5,11.3,14,15.7c2,1.6,4.8-1.2,2.8-2.8c-5.2-4.3-9.7-9.2-13.3-14.9
				C233.4,102,229.9,104,231.3,106.2L231.3,106.2z"/>
		</g>
		<g>
			<path class="st4" d="M206.2,122.3c5.9,8.4,13.2,15.3,21.9,20.6c2.2,1.3,4.2-2.1,2-3.5c-8.1-5-15-11.4-20.5-19.2
				C208.2,118.2,204.7,120.2,206.2,122.3L206.2,122.3z"/>
		</g>
		<g>
			<path class="st4" d="M421.1,143.3c30.6,20.8,63.2,38.8,94.8,58c6.8,4.1,13.5,8.2,20.2,12.5c2.2,1.4,4.2-2.1,2-3.5
				c-31.3-20.3-63.9-38.7-95.7-58.2c-6.5-4-13-8-19.3-12.2C421,138.4,419,141.9,421.1,143.3L421.1,143.3z"/>
		</g>
		<g>
			<path class="st4" d="M209.8,126.6c-11.5,12.1-26.2,20.8-40.1,29.8c-17.5,11.3-35.3,22.3-53,33.3c-6.8,4.2-13.6,8.5-20.3,12.9
				c-2.1,1.4-0.1,4.9,2,3.5c31.2-20.7,63.9-39,94.7-60.4c7-4.9,13.6-9.9,19.5-16.1C214.4,127.5,211.6,124.7,209.8,126.6L209.8,126.6
				z"/>
		</g>
	</g>
</g>
</svg>
