<?xml version="1.0" encoding="utf-8"?>
<!-- Generator: Adobe Illustrator 19.2.0, SVG Export Plug-In . SVG Version: 6.00 Build 0)  -->
<svg version="1.1" id="Layer_1" xmlns="http://www.w3.org/2000/svg" xmlns:xlink="http://www.w3.org/1999/xlink" x="0px" y="0px"
	 viewBox="0 0 358 342.5" style="enable-background:new 0 0 358 342.5;" xml:space="preserve">
<style type="text/css">
	.st0{fill:#EFEFEF;}
	.st1{fill:#BBBBBC;}
	.st2{fill:#7A7B7B;}
</style>
<g>
	<path class="st0" d="M93.6,182.1c-0.7,0-9-2.7-9-2.7l-10.1-6.5c0,0-14.2-10.9-14.8-12c-0.6-1.1-14-15.4-14-15.4l5.8-0.5l11.6,1.2
		l3.7,0.9l-4.7-11.7l-2.8-10l4.2,1.4l11.1,7.3l3.6,3l-1.8-9v-14.3l2.9-19.8l3.2,4.1l7.7,13.7l5.1-12.5l4.5-10.1l10.7-17.8l7.7-6.5
		l9-7l9.4-5.9l8.4-4.6l10.8-5.5l10.4-5.4l10.6-6.8l4.1-2.5l-1.8,8.7l-4.6,12.2l-5.6,11.7l7.1-3.4l21.8-11l19.3-5.5l30.1-9l26.7-8
		l-7.9,9l-23,13.6l10.8-0.6l10.2,0.5l18.4-3.2l-17.9,13.7l2,2.4l9.2-1.1l12.6,3.9l7.9,6.5l3.3,6.4l1.8,1.7l9.4,2.5l6,6.9l2.4,11
		l-2.4,12.5l-4.8,6.5L309,122l-4.6,5.5l0.4,5l-0.6,7.6l-4.4,8.4l-2.1,5.8l1,6.6l3,2l-4.1,2.1h-7.1c0,0-7.7-4-7.8-4.1
		s-2.4-5.1-2.4-5.1l-5.7,3l-12.7,12.8l-7,13.8l-12.2-6.1l-4.2,4l-6.9-0.7l-3.7-4l-4,0.2l-5,1.5l-6.5-7.7l-16.6,3.6l-11.1,7.8
		l-2.5-9.9l-5.7,8.6l-7-2l-9.3,2.6l-11.5-2.6l-6.8-4.9l-15.8,8.2c0,0-2.4-0.4-3.2-0.6c-0.8-0.2-7.9,1.2-7.9,1.2h-10.9L93.6,182.1z"
		/>
	<g>
		<polygon class="st1" points="58.9,160.9 68.9,168.5 80.3,176.6 93.6,182.1 85.6,185.5 70.5,212.2 69.3,220.9 67.5,233.8 
			64.6,260.2 61.1,287.9 57.5,317.5 54.5,312 51.9,300.5 45.3,259.1 44.2,235.1 42.3,208.4 44.3,196.2 48.6,175.4 		"/>
		<path class="st1" d="M256.2,183.4l10.2,9.5l4.3,11l6.3,12.1l-1.5,18.2l3.8,23.3l9.4,61.5l3.2-3.5l9.1-73.3l0.5-12.8l1.2-17.3
			l-1.2-14.4l-11.8-31.5l-5.3-3.8l-4.2-6.7c0,0-8.6,3.2-8.2,4.2c0.4,0.9-10.9,12.7-10.9,12.7L256.2,183.4z"/>
		<polygon class="st1" points="59.3,125.4 63.1,135.9 72.2,157.4 79.6,168.6 88.2,177.5 96,183.2 115.1,184.1 110.8,180.1 
			94.2,166.7 86.3,156.7 77.9,135.7 69.9,130.9 		"/>
		<path class="st1" d="M119.3,180.5v-7.8l-2.3-15l2.3-24.9l8-24.2l12.3-17.2l13.6-16.3l12.7-12.9l5.7-6.3l4.6-11.7l3.2-16
			c0,0-2.2,7.7-24.5,29c-14.9,14.2-43.5,29.6-48.6,68.1C101.3,161.6,119.3,180.5,119.3,180.5z"/>
		<path class="st1" d="M123,183.4c0,0,1.8-33.4,23-62.5c23.3-32.2,50.6-49,64.9-58.3s61.1-37.4,61.1-37.4l-26.4,18.5l-26.4,34.1
			l-20.8,17l-17.2,14.2l-17.6,22.7l-9.1,22.8l-6.3,25.2l-7.5,4.9l-13.8-1H123z"/>
		<path class="st1" d="M184.4,182.5c0,0,46.2-62.3,96.3-83.1c27.2-11.3,34.6,0.3,31.9,13.9c-0.9,4.7-7.4,15.9-7.4,15.9l-5.5-4.8
			l-9.1-1l-14.1,4l-22.2,14.9l-14.5,12l-21.5,25.1l-6.5-6.7l-9.2,2.3l-6.5-0.8L184.4,182.5z"/>
		<path class="st1" d="M231,180.8c0,0,31.3-33.4,55.6-41.3c13.7-4.5,14,1.8,13.1,4.8c-1.5,5.4-1.6,13.3-1.6,13.3l4.5,5.3l-6.2,2.1
			c0,0-4.1,1.1-5.5,0.8c-7-1.5-10.6-10-10.6-10l-13.5,6.7l-11.5,22.3l-11.4-4.9l-5.2,3.5L231,180.8z"/>
		<path class="st1" d="M174.9,182.3c0,0,17.1-58,59.3-90.7c37.3-29,58.1-20.6,60.9-19.1c7.5,4-2.5,4.7-2.5,4.7l-11.9,2.6l-25.8,12.9
			l-16.4,12l-19.3,20.2l-13.6,16l-19.1,25.9l-9.6,15.6L174.9,182.3z"/>
		<path class="st1" d="M222.5,75.9c0.5-0.1,10.5-6.2,10.5-6.2l21.9-9.1l7.6-2.1l13.1-11.6l3.9-5.2l-7.5,2l-32.5,3.6l-12.1,19.8
			L217.5,79L222.5,75.9z"/>
	</g>
	<g>
		<g>
			<g>
				<path class="st2" d="M57.9,159.9c-3.9,5.2-6.5,11.6-9.1,17.5c-2.1,4.7-4.4,9.4-6,14.3c-2.7,8.3-2.3,17.9-2,26.4
					c0.8,25.4,4.6,50.8,8.8,75.9c1.7,10.4,3.6,20.9,5.9,31.2c0.5,2.3,3.8,1.6,3.9-0.5c1.2-22.2,4.8-44.3,7.6-66.2
					c1-7.8,2.3-15.8,2.7-23.7c0.2-3.7-0.5-7.2,0-10.9c0.8-6.3,3.1-12.5,5.8-18.2c3.9-8,8.8-15.9,14.6-22.7c1.6-2-1.2-4.8-2.8-2.8
					c-12.1,14.3-22.6,32.7-21.6,51.9c0.3,6.6-1.1,13.4-1.9,19.9c-1.5,11.8-3.1,23.6-4.6,35.4c-1.6,12.4-3.2,24.8-3.9,37.3
					c1.3-0.2,2.6-0.4,3.9-0.5c-4.6-20.7-7.9-41.7-10.6-62.7c-1.6-12.5-3-25-3.7-37.6c-0.5-9.3-1.1-19.2,0.9-28.3
					c1.1-5,3.6-9.7,5.6-14.3c2.8-6.5,5.5-13.6,9.9-19.3C62.9,159.8,59.5,157.8,57.9,159.9L57.9,159.9z"/>
			</g>
			<g>
				<path class="st2" d="M283.9,161.9c3.7,4.9,6.1,10.8,8.6,16.3c2.1,4.8,4.6,9.8,6.3,14.8c2.7,8.3,2.1,18,1.8,26.7
					c-0.9,25.1-4.7,50.1-8.8,74.8c-1.7,9.9-3.4,19.8-5.6,29.6c1.3,0.2,2.6,0.4,3.9,0.5c-1.2-22.9-5-45.7-7.9-68.5
					c-1-7.5-2.6-15.5-2.5-23.1c0.1-4.5,0.4-8.7-0.5-13.2c-1.2-6.1-3.6-11.9-6.3-17.4c-4-7.9-8.9-15.6-14.6-22.4
					c-1.7-2-4.5,0.9-2.8,2.8c4.7,5.6,8.8,11.8,12.3,18.2c3,5.5,5.6,11.3,7.1,17.3c1.3,5,1,9.5,0.9,14.6c-0.1,6.9,1.3,14.1,2.2,20.9
					c1.5,11.5,3.1,23,4.5,34.6c1.5,12,3,24,3.7,36.1c0.1,2.2,3.4,2.8,3.9,0.5c4.7-21.2,8-42.8,10.8-64.3c1.7-12.8,3.1-25.7,3.7-38.6
					c0.4-9.2,0.9-19-1.2-28.1c-1.1-5-3.7-9.7-5.7-14.4c-2.9-6.7-5.7-14-10.1-19.9C285.9,157.8,282.4,159.8,283.9,161.9L283.9,161.9z
					"/>
			</g>
		</g>
		<g>
			<path class="st2" d="M52.9,176.4c9.7,3,19.4,8.9,27.7,14.6c2.1,1.5,4.1-2,2-3.5c-8.6-5.9-18.6-12-28.7-15
				C51.5,171.8,50.4,175.6,52.9,176.4L52.9,176.4z"/>
		</g>
		<g>
			<path class="st2" d="M48.8,184.3c10,2.7,19.2,8.1,26.9,14.8c1.9,1.7,4.8-1.1,2.8-2.8c-8.3-7.2-18.1-13-28.7-15.9
				C47.4,179.8,46.3,183.7,48.8,184.3L48.8,184.3z"/>
		</g>
		<g>
			<path class="st2" d="M45.1,191.9c8.5,5.7,17.7,10.4,26.6,15.5c2.2,1.3,4.3-2.2,2-3.5c-8.9-5.1-18.1-9.8-26.6-15.5
				C45,187,43,190.4,45.1,191.9L45.1,191.9z"/>
		</g>
		<g>
			<path class="st2" d="M42.1,203c3.2,1.8,6.5,3.4,9.8,4.8c2.3,1,4.4-2.4,2-3.5c-3.3-1.5-6.6-3.1-9.8-4.8
				C41.8,198.3,39.8,201.7,42.1,203L42.1,203z"/>
		</g>
		<g>
			<path class="st2" d="M57.5,211.4c3.9,1.1,7.5,2.9,10.7,5.3c2.1,1.5,4.1-1.9,2-3.5c-3.5-2.6-7.5-4.5-11.7-5.7
				C56.1,206.8,55.1,210.7,57.5,211.4L57.5,211.4z"/>
		</g>
		<g>
			<path class="st2" d="M67.4,228.5c-8.2-3.2-16.3-6.4-24.5-9.5c-2.4-0.9-3.4,2.9-1.1,3.9c8.2,3.2,16.3,6.4,24.5,9.5
				C68.8,233.3,69.8,229.5,67.4,228.5L67.4,228.5z"/>
		</g>
		<g>
			<path class="st2" d="M43.9,236.5c5.8,4.9,13.3,7.4,20.2,10.4c2.3,1,4.4-2.4,2-3.5c-6.5-2.9-13.9-5.1-19.4-9.8
				C44.8,232,41.9,234.9,43.9,236.5L43.9,236.5z"/>
		</g>
		<g>
			<path class="st2" d="M45,261.9c6.6,3,12.3,5.3,19.5,5.9c2.6,0.2,2.6-3.8,0-4c-6.6-0.5-11.6-2.6-17.5-5.3
				C44.7,257.4,42.7,260.8,45,261.9L45,261.9z"/>
		</g>
		<g>
			<path class="st2" d="M46.9,273c4.4,2.1,9.1,3.6,13.6,5.4c2.4,1,3.4-2.9,1.1-3.9c-4.2-1.7-8.6-3-12.7-5
				C46.6,268.5,44.6,271.9,46.9,273L46.9,273z"/>
		</g>
		<g>
			<path class="st2" d="M50.9,286.4c1.5,0.2,3,0.2,4.4,0.6c1.4,0.4,2.6,1.3,3.8,2.1c2.1,1.4,4.1-2,2-3.5c-1.5-1-3-2-4.8-2.5
				c-1.8-0.5-3.6-0.6-5.4-0.8C48.3,282.1,48.3,286.1,50.9,286.4L50.9,286.4z"/>
		</g>
		<g>
			<path class="st2" d="M51.2,294.5c2.5,0.5,5.3,0.6,7.5,2c2.2,1.4,4.2-2.1,2-3.5c-2.5-1.6-5.6-1.9-8.5-2.4
				C49.8,290.2,48.7,294,51.2,294.5L51.2,294.5z"/>
		</g>
		<g>
			<path class="st2" d="M264.2,192.4c11.2-2.8,20.9-7.7,29.9-14.8c2-1.6-0.8-4.4-2.8-2.8c-8.4,6.7-17.7,11.2-28.1,13.8
				C260.7,189.2,261.7,193,264.2,192.4L264.2,192.4z"/>
		</g>
		<g>
			<path class="st2" d="M271.3,199.6c4.3-1.1,8.4-3,11.9-5.8c2-1.5,0-5-2-3.5c-3.3,2.5-6.9,4.3-11,5.4
				C267.7,196.4,268.8,200.3,271.3,199.6L271.3,199.6z"/>
		</g>
		<g>
			<path class="st2" d="M288.9,190.1c2.8-1.6,5.5-3.3,8.3-4.9c2.2-1.3,0.2-4.7-2-3.5c-2.8,1.6-5.5,3.3-8.3,4.9
				C284.7,187.9,286.7,191.4,288.9,190.1L288.9,190.1z"/>
		</g>
		<g>
			<path class="st2" d="M275.7,208.3c3.3-1.6,6.7-3.3,10-4.9c2.3-1.1,0.3-4.6-2-3.5c-3.3,1.6-6.7,3.3-10,4.9
				C271.4,206,273.4,209.4,275.7,208.3L275.7,208.3z"/>
		</g>
		<g>
			<path class="st2" d="M288.5,200.9c2.6,0,2.6-4,0-4C285.9,196.9,285.9,200.9,288.5,200.9L288.5,200.9z"/>
		</g>
		<g>
			<path class="st2" d="M293.9,198.6c2.7-1.2,5.2-2.3,7.6-4.1c2.1-1.5,0.1-5-2-3.5c-2.4,1.8-4.9,2.9-7.6,4.1c-1,0.4-1.2,1.9-0.7,2.7
				C291.8,198.9,293,199,293.9,198.6L293.9,198.6z"/>
		</g>
		<g>
			<path class="st2" d="M279.8,218c5.9-2.7,11.8-5.4,17.7-8.1c2.3-1.1,0.3-4.5-2-3.5c-5.9,2.7-11.8,5.4-17.7,8.1
				C275.4,215.6,277.4,219,279.8,218L279.8,218z"/>
		</g>
		<g>
			<path class="st2" d="M301.2,217.5c-2.7,1.6-5.5,2.6-8.6,3.2c-2.5,0.5-1.5,4.3,1.1,3.9c3.4-0.7,6.6-1.9,9.5-3.6
				C305.5,219.6,303.4,216.2,301.2,217.5L301.2,217.5z"/>
		</g>
		<g>
			<path class="st2" d="M288.2,222.9c-0.2,0-0.3,0-0.5,0c-1,0-2,0.9-2,2c0,1.1,0.9,2,2,2c0.2,0,0.3,0,0.5,0c1,0,2-0.9,2-2
				C290.2,223.8,289.3,222.9,288.2,222.9L288.2,222.9z"/>
		</g>
		<g>
			<path class="st2" d="M282,224.9c-0.5,0.2-1,0.4-1.5,0.5c0.4-0.1-0.3,0-0.4,0c-0.9,0.1-1.8,0.3-2.7,0.6c-1,0.4-1.7,1.3-1.4,2.5
				c0.3,1,1.5,1.8,2.5,1.4c0.5-0.2,1-0.4,1.5-0.5c-0.4,0.1,0.3,0,0.4,0c0.9-0.1,1.8-0.3,2.7-0.6c1-0.4,1.7-1.3,1.4-2.5
				C284.2,225.3,283,224.5,282,224.9L282,224.9z"/>
		</g>
		<g>
			<path class="st2" d="M276.2,238c0.1,0.1,0.1,0.2,0.2,0.2c0.7,0.9,1.7,1.2,2.7,0.7c3.2-1.6,7.5-2.2,10.9-3.2
				c3.7-1.2,7.4-2.4,11.1-3.7c2.4-0.8,1.4-4.7-1.1-3.9c-4.1,1.4-8.3,2.8-12.5,4.1c-3.4,1.1-7.3,1.7-10.5,3.2
				c0.9,0.2,1.8,0.5,2.7,0.7c-0.1-0.1-0.1-0.2-0.2-0.2C278.2,233.9,274.7,235.9,276.2,238L276.2,238z"/>
		</g>
		<g>
			<path class="st2" d="M279.5,248.9c3.9-0.6,7.6-1.9,11.2-3.5c2.4-1,0.3-4.5-2-3.5c-3.3,1.4-6.7,2.5-10.2,3.1
				C275.9,245.4,277,249.3,279.5,248.9L279.5,248.9z"/>
		</g>
		<g>
			<path class="st2" d="M291.7,245.2c3.1-1,6.3-1.9,9.1-3.5c2.3-1.2,0.3-4.7-2-3.5c-2.6,1.4-5.4,2.2-8.2,3.1
				C288.2,242.1,289.3,246,291.7,245.2L291.7,245.2z"/>
		</g>
		<g>
			<path class="st2" d="M280.2,259.9c6.9-0.4,13.4-1.6,19.8-4.3c2.4-1,0.3-4.5-2-3.5c-5.8,2.4-11.6,3.4-17.8,3.8
				C277.7,256.1,277.7,260.1,280.2,259.9L280.2,259.9z"/>
		</g>
		<g>
			<path class="st2" d="M282.7,270.2c3.1,0,5.7-0.8,8.5-2c1-0.4,1.7-1.3,1.4-2.5c-0.2-0.9-1.5-1.8-2.5-1.4c-2.5,1-4.7,1.9-7.4,1.8
				C280.2,266.2,280.1,270.2,282.7,270.2L282.7,270.2z"/>
		</g>
		<g>
			<path class="st2" d="M293.5,265.4c0,0.1,0,0.2,0,0.2c0,1,0.9,2,2,2c1.1,0,2-0.9,2-2c0-0.1,0-0.2,0-0.2c0-1-0.9-2-2-2
				C294.4,263.5,293.5,264.3,293.5,265.4L293.5,265.4z"/>
		</g>
		<g>
			<path class="st2" d="M283,279.8c4.7,0.5,8.7-0.4,13-2.2c2.4-0.9,1.3-4.8-1.1-3.9c-4.1,1.6-7.6,2.5-12,2
				C280.4,275.5,280.4,279.5,283,279.8L283,279.8z"/>
		</g>
		<g>
			<path class="st2" d="M282.3,287.2c1.7,1.2,3.7,0.9,5.7,0.9c2.1,0,4.1,0.4,6.1,0.9c2.5,0.6,3.6-3.3,1.1-3.9
				c-1.7-0.4-3.5-0.8-5.2-0.9c-1.7-0.1-4.3,0.5-5.7-0.4C282.3,282.3,280.3,285.7,282.3,287.2L282.3,287.2z"/>
		</g>
		<g>
			<path class="st2" d="M286,300.1c2.1-0.8,3.9-1.3,6.2-0.9c1.1,0.2,2.1-0.3,2.5-1.4c0.3-0.9-0.3-2.3-1.4-2.5
				c-3-0.5-5.5-0.1-8.3,0.9C282.6,297.1,283.6,301,286,300.1L286,300.1z"/>
		</g>
		<g>
			<path class="st2" d="M123.5,182.7c-5-15.8-6-32.7-2.3-48.9c3.4-15.5,11.1-29.4,20.6-42c9.7-12.9,20.9-25.2,34.9-33.4
				c13.3-7.8,28.1-12.5,42.8-17c18.9-5.7,37.8-11.3,56.7-17c-0.5-1.2-1-2.4-1.5-3.7c-24.6,16.5-48.4,34.1-70.9,53.5
				c-22,19-44,39-58.6,64.5c-8.1,14.1-14.6,29.1-22,43.6c-1.2,2.3,2.3,4.3,3.5,2c8.1-16,15.2-32.5,24.5-47.9
				c9.7-16,22.5-29,35.9-41.8c27.6-26.2,58-49.3,89.5-70.5c1.8-1.2,0.7-4.3-1.5-3.7c-18.3,5.5-36.7,11-55,16.5
				c-15,4.5-30.2,9.2-44,17c-14.4,8.2-25.8,20.2-35.9,33.2c-9.6,12.3-17.7,25.9-21.8,41.1c-5,18.1-4.4,37.5,1.3,55.4
				C120.4,186.2,124.3,185.2,123.5,182.7L123.5,182.7z"/>
		</g>
		<g>
			<path class="st2" d="M150.2,179.5c4.7-40.7,31.3-76.7,66.9-95.9c2.3-1.2,0.2-4.7-2-3.5c-37,19.9-64,57.3-68.9,99.4
				C145.9,182.1,149.9,182.1,150.2,179.5L150.2,179.5z"/>
		</g>
		<g>
			<path class="st2" d="M170.6,179.9c2.3-17.1,6.9-33.9,14-49.6c6.8-15,15.5-30.2,27.2-41.9c11.8-11.9,28.8-21,44.6-26.2
				c14.2-4.7,36.6-4,41.3,13.7c0.7,2.5,4.5,1.4,3.9-1.1c-2.9-10.7-12.7-17.1-23.3-18.9c-14.1-2.4-27.8,3.6-40.1,9.7
				c-13.3,6.7-25.6,14.7-35.1,26.4c-9.5,11.6-17.1,24.9-23,38.6c-6.7,15.4-11.2,31.6-13.4,48.2C166.4,181.4,170.3,182.5,170.6,179.9
				L170.6,179.9z"/>
		</g>
		<g>
			<path class="st2" d="M178.6,183.5c14.3-23.3,30.5-45.8,49.7-65.4c11.8-12,25-23,40-30.8c7.3-3.8,15.1-6.7,23.2-8.3
				c6.7-1.3,14.8-2.4,20.2,2.9c4.6,4.5,5.7,11.7,5.1,17.9c-0.5,4.8-2.2,12.5-7.3,14.6c-2.3,1-1.3,4.9,1.1,3.9
				c10.2-4.3,11.8-19.8,9.4-29.1c-1.4-5.7-4.9-10.8-10.3-13.4c-7-3.2-15.6-1.6-22.7,0.2c-35.8,8.7-64,39.2-85.7,67.3
				c-9.5,12.3-18.1,25.1-26.2,38.3C173.8,183.7,177.2,185.7,178.6,183.5L178.6,183.5z"/>
		</g>
		<g>
			<path class="st2" d="M305.3,129.2c6.4-3.9,10.4-15.5,4.5-21.4c-4.2-4.2-11.2-3.3-16.5-2c-13,3.3-25.1,10.9-36.2,18.2
				c-26.2,17.2-50.3,37.7-73.7,58.5c1.1,0.3,2.2,0.6,3.3,0.9c-1.3-3.9-1.2-7.6-1.2-11.7c0-2.6-4-2.6-4,0c0,4.4,0,8.5,1.3,12.7
				c0.5,1.5,2.2,1.9,3.3,0.9c20.3-18,41.1-35.7,63.4-51.4c12-8.4,24.6-17,38.4-22.2c5-1.9,12.5-4.7,17.5-2.2c2.8,1.4,3.5,4.3,3,7.2
				c-0.5,3.6-2.5,7.3-5.2,8.9C301.1,127.1,303.1,130.6,305.3,129.2L305.3,129.2z"/>
		</g>
		<g>
			<path class="st2" d="M285.3,150.7c-17.9,6.8-34.7,17.7-48.2,31.3c0.6-0.2,1.3-0.3,1.9-0.5c-1.6-0.3-3.3-0.4-4.9-0.8
				c-2.4-0.6-2.7-1.8-4.9-3.3c-3.2-2.2-7.4,0.1-10.8,1.1c-2.5,0.7-1.4,4.5,1.1,3.9c1.8-0.5,5.8-2.2,7.3-1.8c1.8,0.5,2.9,3.1,4.8,3.8
				c1.6,0.6,4.6,1.1,6.3,1c2.1-0.1,2.7-1.1,4.2-2.6c12.6-12.1,28-22,44.3-28.2C288.8,153.7,287.7,149.8,285.3,150.7L285.3,150.7z"/>
		</g>
		<g>
			<path class="st2" d="M278.7,157.9c4.9,13.4,22.4,10.5,31.3,3.4c-0.9-0.9-1.9-1.9-2.8-2.8c-2.1,1.8-6.1,3.4-7.6,0.1
				c-0.5-1.1-0.2-2.8,0-3.9c0.6-3,2.2-5.8,3.6-8.4c2.1-3.9,5-8.3,4.6-12.9c-0.5-6.6-5.4-11.4-11.9-12c-8.5-0.7-17.3,3.5-24.5,7.4
				c-10.4,5.6-20,12.7-28.9,20.4c-9.3,8-18.3,16.9-25,27.3c-1.4,2.2,2.1,4.2,3.5,2c12.3-18.9,32-34.9,51.6-45.7
				c6.8-3.8,17.1-9.4,25.3-7c3.2,0.9,5.1,3.5,5.8,6.6c1.1,5-3,10-5.2,14.3c-2.2,4.4-4.6,9.9-1.9,14.6c3.3,5.9,9.5,3.6,13.6,0
				c2-1.7-0.9-4.4-2.8-2.8c-6.3,5.1-20.8,8.7-24.6-1.6C281.7,154.4,277.8,155.5,278.7,157.9L278.7,157.9z"/>
		</g>
		<g>
			<path class="st2" d="M237.4,52.2c8.6-4.7,18.6-5.6,28.2-6.7c7.1-0.8,14.9-1.3,21.3-4.9c-0.8-1-1.6-2.1-2.4-3.1
				c-6.9,7.2-15.4,12.4-23.1,18.6c-2,1.6,0.8,4.4,2.8,2.8c7.7-6.2,16.2-11.4,23.1-18.6c1.6-1.6-0.4-4.3-2.4-3.1
				c-7.3,4.1-16.8,4-24.9,5c-8.5,1-17,2.5-24.6,6.6C233.1,50,235.1,53.4,237.4,52.2L237.4,52.2z"/>
		</g>
		<g>
			<path class="st2" d="M122.6,181.5c-12-9.1-21.5-22.4-26.6-36.6c-5.4-15-4.2-30.7,1.4-45.5c5.3-14.2,14.6-27.5,26.6-36.8
				c10.3-7.9,22.1-13.6,33.7-19.4c8.6-4.3,19.7-8.8,25.2-17.2c-1.2-0.3-2.5-0.7-3.7-1c-1.4,14.9-8.7,30.5-19.5,40.9
				c-1.9,1.8,1,4.6,2.8,2.8c11.6-11.1,19.1-27.8,20.7-43.7c0.2-2.1-2.7-2.5-3.7-1c-5.5,8.5-18,12.9-26.6,17.2
				c-12,6-24.2,12.1-34.5,20.9c-22.6,19.2-36.4,53.5-26.6,82.3c5.3,15.8,15.6,30.4,28.9,40.5C122.6,186.5,124.6,183.1,122.6,181.5
				L122.6,181.5z"/>
		</g>
		<g>
			<path class="st2" d="M120.3,182.9c-19.7-9.4-34.7-25.1-39.8-46.6c-3.4-14.1-2.6-29.1,1-43.1c-1.2,0.2-2.4,0.3-3.7,0.5
				c3.5,6.3,7.1,12.6,10.6,19c1.3,2.2,4.7,0.2,3.5-2c-3.5-6.3-7.1-12.6-10.6-19c-0.8-1.5-3.2-1.2-3.7,0.5c-3.9,15-4.6,31.1-0.8,46.2
				c5.6,22,21.2,38.4,41.4,48C120.6,187.5,122.7,184,120.3,182.9L120.3,182.9z"/>
		</g>
		<g>
			<path class="st2" d="M79.6,135.7c-6.4-5.6-13.3-10.1-21.1-13.5c-1.9-0.8-3.6,0.9-2.7,2.7c11,25.1,23.9,68.6,59.8,61.1
				c2.5-0.5,1.5-4.4-1.1-3.9c-33.2,6.9-45.2-36.5-55.3-59.3c-0.9,0.9-1.8,1.8-2.7,2.7c7.4,3.3,14.2,7.6,20.3,12.9
				C78.7,140.2,81.6,137.4,79.6,135.7L79.6,135.7z"/>
		</g>
		<g>
			<path class="st2" d="M93.6,180.1c-4.7,0-9.1-2.8-12.9-5.3c-5.4-3.5-10.4-7.7-15.3-11.9c-6.8-6-13-12.8-19.8-18.8
				c-0.5,1.1-0.9,2.3-1.4,3.4c7.5-0.8,14.7-0.3,22,1.6c2.5,0.6,3.6-3.2,1.1-3.9c-7.6-2-15.2-2.5-23.1-1.7c-1.6,0.2-2.8,2.1-1.4,3.4
				c7.7,6.9,14.6,14.4,22.5,21.2c7.5,6.4,17.7,16,28.3,16.1C96.2,184.1,96.2,180.1,93.6,180.1L93.6,180.1z"/>
		</g>
		<g>
			<path class="st2" d="M125.5,186.8c4.8,0,9.8,0.2,14.6-0.4c3.4-0.5,6.5-2.7,9-4.9c1.9-1.7-0.9-4.5-2.8-2.8
				c-5.9,5.3-13.2,4.1-20.7,4.1C123,182.8,123,186.8,125.5,186.8L125.5,186.8z"/>
		</g>
		<g>
			<path class="st2" d="M147.7,182.6c3.5,1.6,7.4,2.1,11.2,2.5c3.7,0.4,6.8-1.9,10.1-3.3c2.3-1,1.3-4.9-1.1-3.9
				c-2.7,1.1-6,3.3-8.4,3.2c-3.1-0.1-6.9-0.7-9.8-2C147.4,178,145.4,181.5,147.7,182.6L147.7,182.6z"/>
		</g>
		<g>
			<path class="st2" d="M168.3,182.5c2.6,1,5.1,1.8,7.8,2.3c2.5,0.5,3.6-3.4,1.1-3.9c-2.7-0.5-5.3-1.4-7.8-2.3
				C166.9,177.7,165.9,181.6,168.3,182.5L168.3,182.5z"/>
		</g>
		<g>
			<path class="st2" d="M193.9,178.4c4.6,0.4,9.8-1.6,14.2-2.7c1-0.2,2-0.4,3-0.7c1.2-0.3,1.6,0,0.9-0.4c-1-0.6,1.3,2.4,1.7,2.9
				c1,1.3,2,2.6,3.1,3.8c1.7,2,4.5-0.9,2.8-2.8c-2.9-3.4-4.7-8.4-9.6-7.3c-5,1.1-11,3.7-16.1,3.3
				C191.3,174.2,191.3,178.2,193.9,178.4L193.9,178.4z"/>
		</g>
		<g>
			<path class="st2" d="M256.8,185c4.2-10.9,11.9-19.8,22.1-25.6c2.2-1.3,0.2-4.7-2-3.5c-11.1,6.3-19.3,16.1-23.9,27.9
				C252.1,186.3,255.9,187.4,256.8,185L256.8,185z"/>
		</g>
		<g>
			<path class="st2" d="M243.1,181.7c3.7,1.7,7.3,3.5,10.8,5.5c2.2,1.3,4.2-2.1,2-3.5c-3.5-2.1-7.1-3.8-10.8-5.5
				C242.8,177.1,240.8,180.6,243.1,181.7L243.1,181.7z"/>
		</g>
		<g>
			<path class="st2" d="M261.7,187.3c5.9-3.8,12-7.2,18.4-10.1c2.3-1.1,0.3-4.5-2-3.5c-6.4,2.9-12.5,6.3-18.4,10.1
				C257.5,185.3,259.5,188.7,261.7,187.3L261.7,187.3z"/>
		</g>
		<g>
			<path class="st2" d="M284.8,174.7c2.1-0.7,4.1-1.5,6.1-2.4c1-0.4,1.2-1.9,0.7-2.7c-0.6-1-1.7-1.2-2.7-0.7c-1.7,0.7-3.4,1.4-5.1,2
				C281.3,171.7,282.4,175.6,284.8,174.7L284.8,174.7z"/>
		</g>
		<g>
			<path class="st2" d="M259.7,181.2c7-7.1,15.4-12.4,24.9-15.5c2.4-0.8,1.4-4.7-1.1-3.9c-10.2,3.3-19.2,8.9-26.7,16.5
				C255.1,180.2,257.9,183,259.7,181.2L259.7,181.2z"/>
		</g>
		<g>
			<path class="st2" d="M161.8,183.5c0.4-7.8,1.5-15.5,3.5-23.1c0.5-1.9-2.4-2.7-2.9-0.8c-2.1,7.9-3.3,15.8-3.6,23.9
				C158.7,185.5,161.7,185.5,161.8,183.5L161.8,183.5z"/>
		</g>
		<g>
			<path class="st2" d="M167.2,151.8c0.4-1.8,0.7-3.8,1.6-5.4c1-1.7-1.6-3.2-2.6-1.5c-1,1.9-1.4,4-1.9,6.1
				C163.8,152.9,166.7,153.7,167.2,151.8L167.2,151.8z"/>
		</g>
		<g>
			<path class="st2" d="M170.9,140.8c8.8-19.2,21.8-35.9,36.1-51.3c1.3-1.4-0.8-3.5-2.1-2.1c-14.5,15.5-27.8,32.4-36.6,51.9
				C167.5,141,170.1,142.5,170.9,140.8L170.9,140.8z"/>
		</g>
		<g>
			<path class="st2" d="M213.5,173.4c4.2-6.2,9.9-11.6,15.6-16.4c1.5-1.2-0.7-3.4-2.1-2.1c-5.9,5-11.7,10.6-16.1,17
				C209.8,173.4,212.4,174.9,213.5,173.4L213.5,173.4z"/>
		</g>
		<g>
			<path class="st2" d="M234.8,151.9c11-9.6,25-17.5,39.1-21.2c1.9-0.5,1.1-3.4-0.8-2.9c-14.7,3.8-29.1,12-40.4,22
				C231.2,151,233.3,153.1,234.8,151.9L234.8,151.9z"/>
		</g>
	</g>
</g>
</svg>
