<?xml version="1.0" encoding="utf-8"?>
<!-- Generator: Adobe Illustrator 19.2.0, SVG Export Plug-In . SVG Version: 6.00 Build 0)  -->
<svg version="1.1" id="Layer_1" xmlns="http://www.w3.org/2000/svg" xmlns:xlink="http://www.w3.org/1999/xlink" x="0px" y="0px"
	 viewBox="0 0 358 342.5" style="enable-background:new 0 0 358 342.5;" xml:space="preserve">
<style type="text/css">
	.st0{fill:#4F5559;}
	.st1{fill:#2E3438;}
	.st2{fill:#1A1E21;}
</style>
<g>
	<path class="st0" d="M53.3,297.8l-3-14.5l-5.5-41l-2.7-29l-1.3-20.1l0.4-16l3.7-17.5l5.2-9.3l2.8-5.7l-2.3-7.9l0.3-16.5l3.7-11.7
		l11-21l10-11.6l8.6-8.1l19.2-11.3l17.5-7.3c0,0,11-2.8,10.3-2.7c-0.7,0.1-5.6,5.8-5.6,5.8h9.9l19.8-2.7l26.6,1.9l19.3,4
		c0,0,17.1,7.4,17.7,7.7c0.6,0.3,13,8.7,13,8.7l9.7,7.6l12,9.2l10,6.2l11.2,4.4l9.4-1.1l15.6-7l6.4-6.6l5-2.7l-1.9,7.1l-6.2,12.1
		l-3.6,4.5l4.4,0.2l10-7.7l-1.8,8.5l-9.5,16.2L286,143.1l3.3,3.8l5.9,13l3.5,8.8l2.1,8.7v16l-1.8,25.3l-3.2,27.6l-2.4,24.1l-7,24.3
		l-2.8-18c0,0-3.7-21.4-3.7-22.5c0-1-4-25.3-4-25.3l-0.5-16.2l0.5-15.2l-1-8.7l-2.8-7.1l-14.7-20.4l-15.2,5.7l-13.8,2.1l-28.4,0.7
		l-31.5-4.1l-24.2-5.1l-20.5-4.6l-13.8-2.2c0,0-9.5,1.7-10.2,1.7s-12.8,2.1-12.8,2.1l-14,21.3l-5.5,13.8l-1.1,5l-0.5,5.1l-0.3,14.1
		L60,260.9l-4,29L53.3,297.8z"/>
	<g>
		<path class="st1" d="M257.2,161.1l6.2,9.5l7.1,8.6l4.2,9.5l0.2,13.8l0.3,10.1l2.7,17.6c0,0,1.6,22.7,1.8,23.9
			c0.2,1.2,6,42.4,6,42.4s3.5-4.2,3.5-4.7c0-0.5,6.8-50.1,6.8-50.1l3.5-30.6l1.1-14.7v-14.7l-1.5-11.6l-4-10.2l-9.1-16.8l-7.5,5.6
			l-18,10.4L257.2,161.1z"/>
		<polygon class="st1" points="95.6,154 100.3,149.4 108.6,146.3 117.6,146.3 135.6,150.2 157,157.7 173.6,164.2 164.8,164.7 
			136.1,157.9 121.3,155.5 110,154.2 97.8,156.2 		"/>
		<path class="st1" d="M91,149.7c0,1.6,1.6-5.6,1.6-5.6l2.1-5.8l6.1-9.4l7.8-7.1l13.9-6.3H136l31.4,7.9l48.1,14.8l22.5,3.3l18.8-0.3
			l23.2-5.2l16.1-9.7l7.9-7.3l8.2-12.5c0,0,2.9-5.8,1.8-7.3c-47.1,75-131.1,6.4-175.1,6.4C104.1,105.6,90.4,125.9,91,149.7z"/>
		<path class="st1" d="M81.7,152L74,138.3l-3.4-13.9l2.3-18.5l3.7-9.1l10.3-15.1L101.8,68l17.2-10.9l10-8.5h-7.2l-16.7,7.2l-21,12.1
			L67.2,87.6l-12.8,19.5l-4.2,14.7l-1.1,12.3l5.3,9.5l8.1,5.4c0,0,13,3,13,3C75.4,151.9,81.7,152,81.7,152z"/>
		<path class="st1" d="M107.6,87.6l14.4-3.2h12.6l24.5,6.4l22.8,10l32.4,16.8l16.5,5.2l17.7,1.5l6.7-0.5l13-2l12.9-3l8.2-5.4
			l6.5-4.4l5.9-6.3l3.3-5.5l3.5-6.1v-6.6c0,0-9.6,24.1-33.8,29.2C206.2,128.4,167.2,61.2,113,84.1C103.4,88.2,107.6,87.6,107.6,87.6
			z"/>
		<path class="st1" d="M189.2,168.7l16.4,0.5l26.1-0.8l11.5-2.4l18.2-4.7l23.9-16.2l8.6-10.7l2.3-6c0,0-17.4,19-38.6,25.3
			c-66.2,19.7-102.5-20.8-138.5-17.3C96.1,138.6,94,155.5,94,155.5l18.7-3.5l29.5,3.5L189.2,168.7z"/>
		<polygon class="st1" points="56.9,136.9 66.9,144.5 78.3,152.6 91.6,158.1 85.6,157.5 68.5,188.2 67.3,196.9 65.5,209.8 
			62.6,236.2 59.1,263.9 55.5,293.5 52.5,288 49.9,276.5 43.3,235.1 42.2,211.1 40.3,184.4 42.3,172.2 48.6,151.4 		"/>
	</g>
	<g>
		<g>
			<path class="st2" d="M93.8,160.3c7.5-6.7,19.9-4.8,28.9-3.3c14.5,2.4,28.7,6.4,43.1,9.4c33.2,6.9,68.8,9.5,99.8-6.9
				c17.7-9.3,33.1-23.9,42.5-41.7c1-1.9-1.6-4.2-3.1-2.4c-12.6,14.3-29.3,22.9-48.4,24.4c-17.7,1.4-35.4-2.3-52.3-7
				c-16.3-4.6-32.1-10.5-48.3-15.1c-12-3.4-26.4-7.4-38.6-2.9c-18,6.7-30.4,25.4-26.7,44.6c0.5,2.5,4.3,1.5,3.9-1.1
				c-3.5-18.2,10.6-37.8,28.9-41.1c12.9-2.3,27.3,2.9,39.5,6.7c31.1,9.7,63.6,23.4,96.8,19.7c19-2.2,35.6-11,48.3-25.3
				c-1-0.8-2.1-1.6-3.1-2.4c-17.9,34.1-55,52-92.5,52.1c-31.5,0.1-60.9-10.9-91.7-15.3c-9.8-1.4-21.5-2.3-29.4,4.8
				C89,159.2,91.9,162,93.8,160.3L93.8,160.3z"/>
		</g>
		<g>
			<path class="st2" d="M276.6,97.8c-22.6-5.4-37.9-25.9-57.7-36.9c-12.4-6.9-26.1-10-40.1-11.8c-13.2-1.7-26.6-2.2-39.7-0.1
				c-10,1.6-19.9,4.8-28.4,10.5c-2.1,1.4-0.3,4.7,2,3.5c8.3-4.3,14.9-10.5,22.7-15.4c2-1.2,0.6-4-1.5-3.7
				c-23.5,4.2-45.3,16.3-61.5,33.8c-8.2,8.8-15,18.9-19.6,30c-2.4,5.6-4.1,11.5-4.7,17.6c-0.3,3-0.3,6,0.1,8.9
				c0.6,4.8,3.8,10.3,0.5,14.6c-1.6,2,1.2,4.9,2.8,2.8c3.8-4.9,3.1-7.8,1.5-13.5c-2-7.4-1.1-15.1,1.1-22.4
				c3.7-12.2,10.9-23.5,19.2-33c16-18.2,37.9-30.7,61.8-34.9c-0.5-1.2-1-2.4-1.5-3.7c-7.8,4.8-14.5,11-22.7,15.4
				c0.7,1.2,1.3,2.3,2,3.5c18-12.2,41.9-12.8,62.7-10.3c14.7,1.7,29.1,4.7,42.1,12.1c10.2,5.8,19.1,13.5,28.4,20.7
				c9,7.1,18.5,13.5,29.7,16.2C278.1,102.2,279.2,98.4,276.6,97.8L276.6,97.8z"/>
		</g>
		<g>
			<path class="st2" d="M95.9,99.6c19.2-25.3,53.8-31.3,82.9-21.4c17.9,6,33.8,16.6,52,21.6c17.5,4.8,36.4,5.6,54,0.6
				c15.7-4.4,32.3-16.3,28.8-34.8c-0.5-2.6-4.2-1.4-3.9,1.1c2.3,15.5-3.5,31-15.2,41.4c-1.5,1.3,0.1,3.9,1.9,3.3
				c9.2-2.9,16.9-8.4,22.7-16.1c-1.2-0.5-2.4-1-3.7-1.5c-3,7.8-6,15.4-11,22.2c-1.5,2.1,1.9,4.1,3.5,2c5.2-7,8.2-15.1,11.4-23.1
				c0.9-2.3-2.4-3.2-3.7-1.5c-5.2,6.9-12.1,11.7-20.3,14.2c0.6,1.1,1.3,2.2,1.9,3.3c12.8-11.4,18.7-28.4,16.2-45.3
				c-1.3,0.4-2.6,0.7-3.9,1.1c4.2,21.8-22.8,30.7-39.4,32.5c-19,2.1-38.1-1.8-55.5-9.4c-15.6-6.8-30.4-15.7-47.4-18.7
				c-12.3-2.2-25.1-2-37.2,1.2c-15.2,4-28.2,12.8-37.7,25.3C90.9,99.6,94.4,101.6,95.9,99.6L95.9,99.6z"/>
		</g>
		<g>
			<path class="st2" d="M95.8,158.5c12.1-19.3,38.4-6.7,54.8-0.9c27,9.5,54.5,17.5,83.4,12.3c2.5-0.5,1.5-4.3-1.1-3.9
				c-24.6,4.4-48.7-1.1-72-9c-9.4-3.2-18.7-6.8-28.3-9.6c-7.2-2.1-15-3.9-22.6-2.9c-7.7,1.1-13.6,5.5-17.6,12
				C90.9,158.6,94.4,160.7,95.8,158.5L95.8,158.5z"/>
		</g>
		<g>
			<path class="st2" d="M288.4,112c-6.1,3.4-13,7.2-20.1,8.1c-2.5,0.3-2.6,4.3,0,4c7.8-1,15.3-4.9,22.1-8.7
				C292.7,114.2,290.7,110.8,288.4,112L288.4,112z"/>
		</g>
		<g>
			<path class="st2" d="M255.3,122.1c-22.1,2.1-40.6-5.5-59.5-16c-15.2-8.4-30.6-16.4-47.6-20.7C127,80.1,98.9,80,88.9,103.5
				c-7.4,17.4-3.2,38.4,1.5,55.9c0.7,2.5,4.5,1.4,3.9-1.1c-6.5-23.9-12.3-63.2,19.8-70.8c11.8-2.8,24.5-0.8,36,2.4
				c16.5,4.6,31.3,12.7,46.2,20.8c18.7,10.3,37.4,17.3,59.1,15.2C257.9,125.8,257.9,121.8,255.3,122.1L255.3,122.1z"/>
		</g>
		<g>
			<path class="st2" d="M110.7,59.5c-19.3,12-37.8,29.9-41.4,53.4c-2.7,17.9,4.6,35.2,18.7,46.4c2,1.6,4.9-1.2,2.8-2.8
				c-13.3-10.5-20.4-26.6-17.5-43.5c3.8-22,21.2-38.6,39.4-49.9C114.9,61.6,112.9,58.1,110.7,59.5L110.7,59.5z"/>
		</g>
		<g>
			<path class="st2" d="M59.6,124.1c0.1,18,13.8,29.3,29.3,35.6c2.4,1,3.4-2.9,1.1-3.9c-13.8-5.6-26.3-15.7-26.4-31.7
				C63.6,121.6,59.6,121.6,59.6,124.1L59.6,124.1z"/>
		</g>
		<g>
			<path class="st2" d="M49.1,138.9c4.7,10.5,17.7,14.5,28.3,14.8c2.6,0.1,2.6-3.9,0-4c-9.3-0.2-20.7-3.6-24.8-12.8
				C51.5,134.6,48,136.6,49.1,138.9L49.1,138.9z"/>
		</g>
		<g>
			<path class="st2" d="M212,77.8c11,6,22,11.9,33.5,16.7c8.9,3.7,18.6,7.4,28.4,7c2.6-0.1,2.6-4.1,0-4c-9.8,0.4-19.6-3.5-28.4-7.3
				C234.8,85.6,224.4,80,214,74.4C211.8,73.1,209.8,76.6,212,77.8L212,77.8z"/>
		</g>
		<g>
			<path class="st2" d="M206.7,70.5c-0.2,0-0.3,0-0.5,0c-1,0-2,0.9-2,2c0,1.1,0.9,2,2,2c0.2,0,0.3,0,0.5,0c1,0,2-0.9,2-2
				C208.7,71.4,207.8,70.5,206.7,70.5L206.7,70.5z"/>
		</g>
		<g>
			<path class="st2" d="M201,68.6c-12.2-7.1-27.5-10.4-41.6-9.1c-2.5,0.2-2.6,4.2,0,4c13.4-1.3,27.9,1.9,39.6,8.6
				C201.2,73.3,203.3,69.9,201,68.6L201,68.6z"/>
		</g>
		<g>
			<g>
				<path class="st2" d="M49,148.6c-3.9,5.3-5.7,11.9-7.9,18c-1.1,3-1.5,6.1-1.9,9.2c-1.1,9.5-0.6,19.2,0,28.7
					c1.5,23.2,4.9,46.4,8.8,69.4c1.5,9,3.1,18.1,5.1,27c0.5,2.3,3.8,1.6,3.9-0.5c1.2-22.2,4.9-44.2,7.8-66.2
					c1-7.8,2.4-15.8,2.8-23.7c0.2-3.7-0.4-7.2,0-10.9c0.8-6.3,3.1-12.4,5.9-18.1c3.9-8,8.9-15.8,14.6-22.7c1.7-2-1.2-4.8-2.8-2.8
					c-12.1,14.3-22.6,32.7-21.7,51.9c0.3,6.6-1.1,13.4-1.9,19.9c-1.5,11.8-3.2,23.6-4.7,35.4c-1.6,12.4-3.2,24.8-3.9,37.3
					c1.3-0.2,2.6-0.4,3.9-0.5c-3.9-17.7-6.7-35.6-9.2-53.6c-3-21.3-6-43.2-5-64.8c0.2-4,0.5-8.1,1.6-12c1.8-6.3,4.2-13.6,8.1-18.9
					C54,148.5,50.5,146.5,49,148.6L49,148.6z"/>
			</g>
			<g>
				<path class="st2" d="M285,143.2c4.2,6.9,6.9,14.5,10,21.9c1.4,3.2,2.4,6.3,2.9,9.8c1.3,9.3,0.7,18.8,0.2,28.1
					c-1.5,23.6-5,47.2-9.1,70.5c-1.6,9-3.2,18-5.2,27c1.3,0.2,2.6,0.4,3.9,0.5c-1.1-22.2-4.6-44.3-7.5-66.3
					c-1-7.8-2.3-15.8-2.7-23.7c-0.2-3.8,0.5-7.5,0.1-11.3c-0.6-5.7-2.4-11.2-4.8-16.4c-3.7-8.2-8.7-16.1-14.8-22.9
					c-1.7-1.9-4.5,0.9-2.8,2.8c4.9,5.5,9.1,11.9,12.4,18.5c3,5.8,5.3,12.1,6,18.6c0.3,3.5-0.3,6.9-0.2,10.4
					c0.8,18.7,4.5,37.5,6.8,56c1.4,11.4,2.8,22.7,3.4,34.2c0.1,2.2,3.4,2.8,3.9,0.5c4.4-19.6,7.6-39.6,10.3-59.5
					c2.9-21.4,6.6-44.2,4.2-65.8c-0.4-3.5-1-6.9-2.4-10.2c-3.4-8.3-6.6-16.9-11.2-24.7C287.2,138.9,283.7,140.9,285,143.2L285,143.2
					z"/>
			</g>
			<g>
				<path class="st2" d="M51,152c9.7,3,19.4,9,27.7,14.7c2.1,1.5,4.1-2,2-3.5c-8.6-5.9-18.6-12-28.6-15.1
					C49.6,147.4,48.5,151.3,51,152L51,152z"/>
			</g>
			<g>
				<path class="st2" d="M46.9,160c10,2.7,19.1,8.1,26.9,14.9c1.9,1.7,4.8-1.1,2.8-2.8c-8.3-7.2-18-13-28.7-15.9
					C45.4,155.5,44.4,159.3,46.9,160L46.9,160z"/>
			</g>
			<g>
				<path class="st2" d="M43.1,167.5c8.5,5.7,17.7,10.5,26.5,15.6c2.2,1.3,4.3-2.2,2-3.5c-8.9-5.1-18-9.9-26.5-15.6
					C43,162.6,41,166.1,43.1,167.5L43.1,167.5z"/>
			</g>
			<g>
				<path class="st2" d="M40.1,178.6c3.2,1.8,6.4,3.4,9.8,4.9c2.3,1,4.4-2.4,2-3.5c-3.3-1.5-6.6-3.1-9.8-4.9
					C39.8,173.9,37.8,177.4,40.1,178.6L40.1,178.6z"/>
			</g>
			<g>
				<path class="st2" d="M55.5,187.1c3.9,1.1,7.5,2.9,10.7,5.3c2.1,1.5,4.1-1.9,2-3.5c-3.5-2.6-7.4-4.6-11.7-5.7
					C54.1,182.5,53,186.4,55.5,187.1L55.5,187.1z"/>
			</g>
			<g>
				<path class="st2" d="M65.3,204.2c-8.2-3.2-16.3-6.4-24.5-9.6c-2.4-0.9-3.4,2.9-1.1,3.9c8.2,3.2,16.3,6.4,24.5,9.6
					C66.7,209,67.7,205.2,65.3,204.2L65.3,204.2z"/>
			</g>
			<g>
				<path class="st2" d="M41.8,212.2c5.8,4.9,13.3,7.4,20.2,10.5c2.3,1,4.4-2.4,2-3.5c-6.5-2.9-13.9-5.2-19.4-9.8
					C42.7,207.7,39.8,210.5,41.8,212.2L41.8,212.2z"/>
			</g>
			<g>
				<path class="st2" d="M42.9,237.5c6.5,3,12.2,5.3,19.5,5.9c2.6,0.2,2.6-3.8,0-4c-6.6-0.5-11.6-2.7-17.5-5.4
					C42.6,233,40.5,236.5,42.9,237.5L42.9,237.5z"/>
			</g>
			<g>
				<path class="st2" d="M44.7,248.7c4.4,2.2,9.1,3.7,13.6,5.5c2.4,1,3.4-2.9,1.1-3.9c-4.2-1.7-8.6-3.1-12.6-5.1
					C44.4,244.1,42.4,247.6,44.7,248.7L44.7,248.7z"/>
			</g>
			<g>
				<path class="st2" d="M48.6,262.1c1.5,0.2,3,0.3,4.4,0.7c1.4,0.4,2.6,1.3,3.8,2.1c2.1,1.4,4.1-2,2-3.5c-1.5-1-3-2-4.8-2.5
					c-1.7-0.5-3.6-0.6-5.4-0.8C46.1,257.8,46.1,261.8,48.6,262.1L48.6,262.1z"/>
			</g>
			<g>
				<path class="st2" d="M49,270.2c2.5,0.5,5.3,0.6,7.5,2c2.2,1.4,4.2-2.1,2-3.5c-2.5-1.6-5.6-1.9-8.5-2.4
					C47.5,265.8,46.4,269.7,49,270.2L49,270.2z"/>
			</g>
			<g>
				<path class="st2" d="M262.3,168.6c11.2-2.7,20.9-7.6,29.9-14.8c2-1.6-0.8-4.4-2.8-2.8c-8.4,6.7-17.7,11.2-28.2,13.7
					C258.7,165.4,259.8,169.3,262.3,168.6L262.3,168.6z"/>
			</g>
			<g>
				<path class="st2" d="M269.3,175.9c4.3-1.1,8.4-3,11.9-5.7c2-1.5,0-5-2-3.5c-3.3,2.5-6.9,4.3-11,5.3
					C265.7,172.6,266.8,176.5,269.3,175.9L269.3,175.9z"/>
			</g>
			<g>
				<path class="st2" d="M287,166.4c2.8-1.6,5.5-3.3,8.3-4.9c2.2-1.3,0.2-4.7-2-3.5c-2.8,1.6-5.5,3.3-8.3,4.9
					C282.7,164.2,284.7,167.6,287,166.4L287,166.4z"/>
			</g>
			<g>
				<path class="st2" d="M273.7,184.6c3.3-1.6,6.7-3.3,10-4.9c2.3-1.1,0.3-4.6-2-3.5c-3.3,1.6-6.7,3.3-10,4.9
					C269.3,182.2,271.4,185.7,273.7,184.6L273.7,184.6z"/>
			</g>
			<g>
				<path class="st2" d="M286.5,177.2c2.6,0,2.6-4,0-4C283.9,173.2,283.9,177.2,286.5,177.2L286.5,177.2z"/>
			</g>
			<g>
				<path class="st2" d="M291.9,174.9c2.7-1.2,5.2-2.3,7.6-4.1c2.1-1.5,0.1-5-2-3.5c-2.4,1.8-4.9,2.9-7.6,4.1
					c-1,0.4-1.2,1.9-0.7,2.7C289.8,175.2,291,175.3,291.9,174.9L291.9,174.9z"/>
			</g>
			<g>
				<path class="st2" d="M277.7,194.2c5.9-2.7,11.8-5.4,17.7-8.1c2.3-1.1,0.3-4.5-2-3.5c-5.9,2.7-11.8,5.4-17.7,8.1
					C273.4,191.8,275.4,195.3,277.7,194.2L277.7,194.2z"/>
			</g>
			<g>
				<path class="st2" d="M299.2,193.8c-2.7,1.6-5.5,2.6-8.6,3.2c-2.5,0.5-1.5,4.3,1.1,3.9c3.4-0.6,6.6-1.9,9.5-3.6
					C303.4,195.9,301.4,192.5,299.2,193.8L299.2,193.8z"/>
			</g>
			<g>
				<path class="st2" d="M286.1,199.2c-0.2,0-0.3,0-0.5,0c-1,0-2,0.9-2,2c0,1.1,0.9,2,2,2c0.2,0,0.3,0,0.5,0c1,0,2-0.9,2-2
					C288.1,200.1,287.3,199.2,286.1,199.2L286.1,199.2z"/>
			</g>
			<g>
				<path class="st2" d="M279.9,201.1c-0.5,0.2-1,0.4-1.5,0.5c0.4-0.1-0.3,0-0.4,0c-0.9,0.1-1.8,0.3-2.7,0.6c-1,0.4-1.7,1.3-1.4,2.5
					c0.3,1,1.5,1.8,2.5,1.4c0.5-0.2,1-0.4,1.5-0.5c-0.4,0.1,0.3,0,0.4,0c0.9-0.1,1.8-0.3,2.7-0.6c1-0.4,1.7-1.3,1.4-2.5
					C282.1,201.6,280.9,200.7,279.9,201.1L279.9,201.1z"/>
			</g>
			<g>
				<path class="st2" d="M274.1,214.2c0.1,0.1,0.1,0.2,0.2,0.2c0.7,0.9,1.7,1.2,2.7,0.7c3.2-1.6,7.5-2.1,11-3.2
					c3.7-1.2,7.4-2.4,11.1-3.6c2.4-0.8,1.4-4.7-1.1-3.9c-4.1,1.4-8.3,2.8-12.5,4.1c-3.4,1-7.3,1.7-10.5,3.2c0.9,0.2,1.8,0.5,2.7,0.7
					c-0.1-0.1-0.1-0.2-0.2-0.2C276.1,210.1,272.6,212.1,274.1,214.2L274.1,214.2z"/>
			</g>
			<g>
				<path class="st2" d="M277.4,225.1c3.9-0.6,7.6-1.9,11.2-3.5c2.4-1,0.3-4.4-2-3.5c-3.3,1.4-6.7,2.5-10.2,3.1
					C273.8,221.6,274.9,225.5,277.4,225.1L277.4,225.1z"/>
			</g>
			<g>
				<path class="st2" d="M289.6,221.5c3.1-1,6.3-1.9,9.1-3.5c2.3-1.2,0.3-4.7-2-3.5c-2.6,1.4-5.4,2.2-8.2,3.1
					C286.1,218.4,287.1,222.3,289.6,221.5L289.6,221.5z"/>
			</g>
			<g>
				<path class="st2" d="M278.1,236.1c6.7-0.4,13.1-1.4,19.3-4.1c2.3-1,1.3-4.9-1.1-3.9c-5.9,2.5-11.9,3.5-18.3,3.9
					C275.5,232.3,275.5,236.3,278.1,236.1L278.1,236.1z"/>
			</g>
			<g>
				<path class="st2" d="M280.5,246.5c3.1,0,5.7-0.8,8.5-2c1-0.4,1.7-1.3,1.4-2.5c-0.2-0.9-1.5-1.8-2.5-1.4c-2.5,1-4.7,1.8-7.4,1.8
					C278,242.5,278,246.5,280.5,246.5L280.5,246.5z"/>
			</g>
			<g>
				<path class="st2" d="M291.3,241.7c0,0.1,0,0.2,0,0.2c0,1,0.9,2,2,2c1.1,0,2-0.9,2-2c0-0.1,0-0.2,0-0.2c0-1-0.9-2-2-2
					C292.2,239.8,291.3,240.6,291.3,241.7L291.3,241.7z"/>
			</g>
			<g>
				<path class="st2" d="M280.8,256.1c4.7,0.5,8.7-0.4,13-2.2c2.4-0.9,1.3-4.8-1.1-3.9c-4.1,1.6-7.6,2.5-12,2
					C278.2,251.8,278.2,255.8,280.8,256.1L280.8,256.1z"/>
			</g>
			<g>
				<path class="st2" d="M280.1,263.5c1.7,1.2,3.7,0.9,5.7,0.9c2.1,0,4.1,0.4,6.1,0.9c2.5,0.6,3.6-3.3,1.1-3.9
					c-1.7-0.4-3.5-0.8-5.2-0.9c-1.7-0.2-4.3,0.5-5.7-0.5C280,258.5,278,262,280.1,263.5L280.1,263.5z"/>
			</g>
			<g>
				<path class="st2" d="M283.7,276.3c2.1-0.8,3.9-1.3,6.2-0.9c1.1,0.2,2.1-0.3,2.5-1.4c0.3-0.9-0.3-2.3-1.4-2.5
					c-3-0.5-5.5-0.2-8.3,0.9C280.3,273.4,281.3,277.3,283.7,276.3L283.7,276.3z"/>
			</g>
		</g>
	</g>
</g>
</svg>
