<?xml version="1.0" encoding="utf-8"?>
<!-- Generator: Adobe Illustrator 19.2.0, SVG Export Plug-In . SVG Version: 6.00 Build 0)  -->
<svg version="1.1" id="Layer_1" xmlns="http://www.w3.org/2000/svg" xmlns:xlink="http://www.w3.org/1999/xlink" x="0px" y="0px"
	 viewBox="0 0 358 342.5" style="enable-background:new 0 0 358 342.5;" xml:space="preserve">
<style type="text/css">
	.st0{fill:#EFEFEF;}
	.st1{fill:#BBBBBC;}
	.st2{fill:#7A7B7B;}
</style>
<g>
	<g>
		<path class="st0" d="M61.3,323.7l1.2-2.7l2.4-22.4l1.2-20l2.4-15.3v-16.5l-6-27.1l1.2-9.4l10.7-24.8l7.2-11.8l4.8,3.5l24.5,10.2
			l10.1,2.4l9.5,5.1l7.2,4.7l6-14.1l13.1,18.9l42.4-36.5L183,192.4l7.2-2.4l7.2-1.2l9.5-5.9l18.7-16.1l0.8,9.5l29.4-28.8L251,163
			l-6,10.6l10.7-9.4h7.2l11.9,13l14.3,28.3l1.2,10.6c0,0-0.6,21.2-1.2,22.4s-2.4,15.3-2.4,15.3l-2.4,9.4l2.4,15.3l4.8,37.7l-0.5,6.7
			c0.7,0.1,0.4,0.3,1.1,0.5l2.9-9.5l6-18.9l6.2-17.7l4.8-17.7l8.2-53.1l-1.2-18.9l-4.6-16.5l-5-13l-6-10.6l-7.4-12l5-9.3l6-16.5
			l1.2-15.3l-3.6-16.5l-6,15.7l1.2-39.2l-4.8,5.9l-5.2,13L279.5,94l-2.3-21.8l-3.6-20l-6-9.4l2.4,13L266.5,75l-13.8-33.2l-8.9-12.3
			l-6-5.7l-8.4-10.6l-1.2,8.3l-2.4,17.7l-8,24.2l-0.4-16V19.1l-6,8.3l1-15.5l-15.3,12l-27.8,16.6l-12.6,9.7l-6.1-1.5l-8.4,3.5
			l-22.9,17.3l1.4-12.6l-8.4,6.7L91.6,85.2l-1-5.5L62.2,112l-5.7,26.2l-4.8,5.9l-18.1,50.7v17.7l4.6,27.1L61.3,323.7z"/>
	</g>
	<g>
		<path class="st1" d="M233.1,17l6.6,13.9v23.6l-2.4,5.9l-7.2,14.1L222.9,91l-9.5,15.3l-11.9,16.5l8.4-23.6l3.6-14.1l4.8-20l2.1-6.4
			l0.3,1.7l6-21.2l4.5-24.7L233.1,17z M197.9,24.8l-9.6,10.8l-15.5,21.2l-10.7,20l-11.9,25.9l-4.8,25.9l-2.4,24.8v20l2.2,13.3
			l-1-1.5v0.1c-1.8-3.4-5-9.6-4.7-10.7c0.3-1.5-3.6-15.3-3.6-15.3l1.2-27.1l4.8-24.8l6-25.9l8.4-21.2l8.4-15.3l6-4.7L197.9,24.8z
			 M301.7,295l-6,18.9l-3.1,10.2l-0.5,0.5c0,0-0.4-1.2-1.1-3.2l1.1-5.1l-4.8-37.7l-2.4-15.3l1.4-9.4c0,0,1.8-14.1,2.4-15.3
			s2.2-22.4,2.2-22.4l-1.2-10.6l-6-11.8l-8.4-16.5l-11.9-13h-1.2l13.1-8.3l14.3-13l6.9-6.8l7.4,11.5l6,11.6l5,12l4.6,16.5
			c0,0,1.5,14.2,1.2,18.9C319.1,229.1,301.7,295,301.7,295z M217,139.4l8.4-14.1l6-16.5l4.8-16.5l4.2-11.5l-0.6,18.6l-2.4,29.5
			c0,0-7.2,28.6-7.2,30.7c0,2.1-4.8,8.3-4.8,8.3l-4,3.5l-10.1,8.6l-9.8,6.8l-4.1,2.4l-6.6,1.1l-6.7,1.9l1.8-3.9l4.3-8.1l10.1-12.3
			l9.5-15.3L217,139.4z M81.5,174.8L75,185.4l-10.7,24.8l-1.2,9.4l6,27.1v16.5l-2.4,15.3l-1.2,20l-2.1,20.1l-2.8,3.2l-13.1-38.6
			l-6-23.6l-8.2-47.2v-17.7l4.6-21.2L52.4,144l3.7-4.5l2.3,4.5l10.7,15.3L81.5,174.8z M114.5,61.9l8.3-4.5l-6,13.7l-9.5,15.3
			l-9.5,14.1c0,0-6.6,15-7.2,16.5s-4.5,15.3-4.8,16.5S84.6,150,84.6,150l2.4,17.7v9.4l0,0l-9.5-8.3l-4.8-14.1L71.5,137l3.6-16.5
			l3.6-14.1l9.5-15.3l8.4-10.6l11.9-14.1l0,0L114.5,61.9z M289.7,118.2l-9.5,18.9c0,0-15.8,20.3-16.7,21.2c-0.4,0.4-3.8,3.2-7.1,5.9
			h-0.1l-0.9,0.8c-3.2,2.6-6.2,5.1-6.2,5.1l2.4-7.1l0,0l0,0l1.2-3.5l8.4-22.4l2.8-5.9l-1.6-2.3c0,0,3.3-19.5,3.6-20
			c0.3-0.6,1.2-14.1,1.2-14.1V76.9c0,0,0.4-6.3,0.7-13.2l0.8,4l-1-12l0.3-11.1c1.4,2.9,5.4,11.2,7.8,16.2l2,11.5l1.2,6.5v8.8
			l0.2,5.9l2.1-4.7l5.8-9.6l7.4-15.1l4.8-5.9v18.9v13l-2.4,10.6L289.7,118.2z"/>
		<g>
			<path class="st1" d="M188.8,152.4l8.4-21.2l8.4-23.6l6-20l3.6-20l3.2-33L217,22.7c0,0-12.4,40.5-31.8,89.6
				c-18.8,47.6-28.6,90.8-28.6,90.8l6-7.1l15.5-24.8L188.8,152.4z M176.8,100.5l16.7-37.7L209,27.4l4.4-14
				c-0.2,0-36.8,46.6-55.7,97.7c-18.4,49.8-6,90.8-6,90.8h3.6l2-30.7l5.1-31.8L176.8,100.5z M151.8,72.2c0,0,14.5-25.5,15-27.1
				c0.2-0.8-35.4,30.8-42.4,70.7c-6.8,38.9,11.9,86.1,11.9,86.1l7-18.2l-5.8-13.6c0,0-2.3-18.2-2.6-18.9c-0.2-0.7,2.4-25.7,2.2-27.1
				s4-24.8,4-24.8L151.8,72.2z M238.9,82.9l1-24.4c0,0-8.5,31.1-23.7,59.8c-18.5,35-45.3,70.7-45.3,70.7l11.9-9.4
				c0,0,21-18.2,21.5-18.9s15.5-29.5,15.5-29.5s12.6-26.7,13.1-27.7C233.4,102.6,238.9,82.9,238.9,82.9z M263.9,74.6l-4.8-18.5
				l-8.4-15.7l-11.9-13c0-0.1,13.2,30.6,11.2,76.4c-1.5,33.4-24.3,72.1-24.3,72.1l10.7-9.4l13.1-13l7.2-10.6c0,0,4.3-10.6,4.8-11.8
				s4.4-21.2,4.4-21.2l-0.8-21.2L263.9,74.6z"/>
		</g>
	</g>
	<g>
		<g>
			<g>
				<path class="st2" d="M126.4,190c-12.5-2.7-24.5-7.5-35.9-13c-0.5-0.2-1.5-0.5-1.8-0.9c-1-1.1,1.2,1.5-0.1-1
					c-1.7-3.3-1.7-9.6-2-13.2c-0.7-7.9-0.5-15.9,0.6-23.8c2.2-16.1,8.3-31,16.8-44.8c8.1-13.2,17.5-25.7,23.6-40
					c0.7-1.8-1.8-3.3-2.6-1.5c-6.6,15.7-17.2,29.1-25.8,43.7c-8.4,14.4-13.9,30.1-15.5,46.7c-0.8,8.3-0.7,16.8,0.5,25.1
					c0.5,4.1,0.2,9.8,4,12c11.4,6.3,24.8,11,37.5,13.7C127.5,193.3,128.3,190.4,126.4,190L126.4,190z"/>
			</g>
		</g>
		<g>
			<g>
				<path class="st2" d="M124.9,51.1c-19.5,18-39.7,36.8-49.5,62c-8.6,22.1-7.4,47.8,10.2,65.1c1.4,1.4,3.5-0.8,2.1-2.1
					c-18.1-17.8-17.6-44.5-7.6-66.5c10.3-22.7,29-39.9,47-56.5C128.5,51.9,126.3,49.7,124.9,51.1L124.9,51.1z"/>
			</g>
		</g>
		<g>
			<g>
				<path class="st2" d="M86.1,98.4c2.9-7.8,8.3-16,9.6-24.3c0.2-1.6-1.8-2.7-2.7-1.2C88.4,80,81.8,85.8,76.3,92
					c-6.6,7.5-13,15.6-16.9,24.9s-4.9,19.6-1.4,29.2c5,13.9,16.9,24.1,28.7,32.4c1.6,1.1,3.1-1.5,1.5-2.6
					c-11.9-8.3-24.4-19.1-28.3-33.7c-2.6-9.9-0.2-20,4.5-28.9c4.5-8.4,10.7-15.7,17.1-22.7c4.8-5.2,10.1-10.2,13.9-16.2
					c-0.9-0.4-1.8-0.8-2.7-1.2c-1.3,8.3-6.7,16.4-9.6,24.3C82.5,99.4,85.4,100.2,86.1,98.4L86.1,98.4z"/>
			</g>
		</g>
		<g>
			<g>
				<path class="st2" d="M157.4,204.4C119.6,155.5,141.8,88,171.7,41.2c0.8-1.2-0.8-2.9-2.1-2.1c-14.1,10-28.8,19.3-38.8,33.8
					c-1.1,1.6,1.5,3.1,2.6,1.5c9.6-14.1,24-23.1,37.7-32.8c-0.7-0.7-1.4-1.4-2.1-2.1c-30.8,48.1-52.6,116.8-13.9,166.8
					C156.5,208,158.6,205.9,157.4,204.4L157.4,204.4z"/>
			</g>
		</g>
		<g>
			<g>
				<path class="st2" d="M171.2,41.7c9.7-7.3,20.4-13.6,31.4-19c-0.6-0.8-1.2-1.6-1.8-2.4c-10.1,12.6-21.1,24.2-30.1,37.8
					c-14.8,22.4-25.1,47.7-28.6,74.4c-2.5,18.9-1.4,37.9,2.6,56.5c0.4,1.9,3.3,1.1,2.9-0.8c-6.6-31.2-4.3-63.2,7.2-92.9
					c8.1-21,20.4-40.1,34.8-57.3c4.4-5.2,9.1-10.2,13.4-15.5c1.1-1.3-0.2-3.1-1.8-2.4c-10.9,5.4-21.7,11.7-31.4,19
					C168.2,40.3,169.7,42.9,171.2,41.7L171.2,41.7z"/>
			</g>
		</g>
		<g>
			<g>
				<path class="st2" d="M202.9,22.5c3.7-3.4,7.7-6.5,11.5-9.8c-0.9-0.4-1.7-0.7-2.6-1.1c-2.3,21-14,40.9-22.8,59.7
					c-12,25.4-23,51.4-29,79c-3.9,18.1-5.7,36.6-5.1,55.1c0.1,1.9,3.1,1.9,3,0c-1-32.5,5.7-64.2,17.2-94.4
					c9.1-23.8,21.2-46.2,31-69.6c4-9.5,7.6-19.4,8.7-29.7c0.2-1.4-1.7-1.8-2.6-1.1c-3.8,3.3-7.8,6.3-11.5,9.8
					C199.3,21.7,201.5,23.8,202.9,22.5L202.9,22.5z"/>
			</g>
		</g>
		<g>
			<g>
				<path class="st2" d="M191.2,73.5c9.9-17.6,17.3-36.6,27.5-54.1c-0.9-0.3-1.9-0.5-2.8-0.8c5,47.4-9.7,97.2-31.2,139
					c-8.5,16.5-18.5,32.2-29.7,47c-1.2,1.5,1.4,3,2.6,1.5c33.9-44.9,57.4-99.2,61.6-155.7c0.8-10.6,0.8-21.2-0.3-31.8
					c-0.1-1.4-2-2.1-2.8-0.8C206,35.4,198.6,54.4,188.6,72C187.7,73.7,190.3,75.2,191.2,73.5L191.2,73.5z"/>
			</g>
		</g>
		<g>
			<g>
				<path class="st2" d="M223.4,180.7c35.9-28.4,69-76.8,52.6-124.7c-1.9-5.6-4.6-11.6-9.2-15.5c-1.1-0.9-2.9-0.1-2.5,1.5
					c3.2,12.3,3.5,27.3-0.1,39.6c-0.5,1.9,2.4,2.7,2.9,0.8c3.7-12.8,3.4-28.3,0.1-41.2c-0.8,0.5-1.7,1-2.5,1.5
					c9.2,7.8,11.6,23.6,12.1,34.8c1,22-6.5,43.5-18.4,61.8c-10,15.2-22.9,28.1-37.1,39.3C219.8,179.8,221.9,181.9,223.4,180.7
					L223.4,180.7z"/>
			</g>
		</g>
		<g>
			<g>
				<path class="st2" d="M245.3,176.2c34.3-22.8,54.1-65,56.3-105.6c0.3-5.4,0.6-11.6-1.3-16.7c-0.4-1.1-2.2-1.7-2.7-0.4
					c-6.8,15-13.5,30.4-21.9,44.6c-1,1.7,1.6,3.2,2.6,1.5c8.3-14.2,15-29.6,21.7-44.6c-0.9-0.1-1.8-0.2-2.7-0.4
					c1.6,4.1,1.4,9,1.3,13.3c-0.2,7.6-1.3,15.2-2.8,22.7c-4.1,19.6-11.8,38.7-23.5,55.1c-7.8,10.9-17.4,20.4-28.6,27.8
					C242.1,174.6,243.6,177.2,245.3,176.2L245.3,176.2z"/>
			</g>
		</g>
		<g>
			<g>
				<path class="st2" d="M223.8,180.1c18.1-43.1,23-93.3,17.5-139.5c-0.6-5.5-1.2-11.3-3.1-16.5c-0.8,0.5-1.7,1-2.5,1.5
					c36.5,28.7,33.7,83.7,19.4,123.3c-3.3,9.2-7.4,18.2-13.1,26.1c-1.1,1.6,1.5,3.1,2.6,1.5c11.3-15.8,17.5-35.7,20.8-54.6
					c3.9-22.6,3.8-46.9-5-68.3c-4.9-11.8-12.5-22.2-22.5-30.1c-1-0.8-3.1-0.1-2.5,1.5c2.3,6.2,2.8,13.3,3.4,19.8
					c1.2,12.4,1.6,25,1.2,37.5c-0.8,33.1-6.2,66.5-19.1,97.1C220.2,181.1,223.1,181.8,223.8,180.1L223.8,180.1z"/>
			</g>
		</g>
		<g>
			<g>
				<path class="st2" d="M217.1,73.2c7.1-19,12.8-39.8,14-60.1c-0.9,0.4-1.7,0.7-2.6,1.1c3.1,2.5,5.4,7.1,6.8,10.7
					c0.7,1.8,3.6,1,2.9-0.8c-1.6-4.1-4-9.2-7.6-12.1c-1-0.8-2.5-0.3-2.6,1.1c-1.2,20.1-6.9,40.6-13.9,59.3
					C213.5,74.2,216.4,74.9,217.1,73.2L217.1,73.2z"/>
			</g>
		</g>
		<g>
			<g>
				<path class="st2" d="M287.1,126.4c5.1-7.2,8.4-15.8,11.3-24c2.8-7.8,5.5-16,6.6-24.3c-0.9,0.4-1.7,0.7-2.6,1.1
					c1.7,2.2,2.6,7.3,3.2,10.4c1.3,7.3,1,14.9-0.5,22.2c-5.5,25.9-27,43.5-49.7,54.8c-1.7,0.9-0.2,3.4,1.5,2.6
					c19.8-9.8,38.5-24,47.4-44.8c5-11.9,6.5-25.3,3.7-37.9c-0.7-3-1.4-6.8-3.5-9.3c-0.9-1.1-2.4-0.1-2.6,1.1c-1,8-3.8,15.9-6.5,23.5
					c-2.9,8-6,16.4-11,23.3C283.3,126.5,285.9,127.9,287.1,126.4L287.1,126.4z"/>
			</g>
		</g>
		<g>
			<g>
				<path class="st2" d="M81.9,173.4c-7.4,11.3-13.9,23.4-18.5,36.1c-1.1,3-2.9,6.9-2.5,10.1c0.4,3.3,2.5,6.7,3.4,9.9
					c3.1,11.4,5.2,24.4,3.3,36.2c-1.7,10.2-3.2,20.5-4.4,30.8c-1,8.8-2.3,17.8-2.5,26.7c0.9-0.4,1.7-0.7,2.6-1.1
					c-0.9-0.7-1.6-3.4-2.1-4.6c-1.3-3.5-2.5-7-3.6-10.5c-3.5-11-6.7-22-9.6-33.2c-3.5-13.1-6.6-26.4-9.1-39.8
					c-2.1-11.1-4-22.6-3.8-33.9c0.5-22.6,12.8-42.8,23.3-62.1c0.9-1.7-1.7-3.2-2.6-1.5c-9.5,17.4-20.1,35.2-23,55.2
					c-1.7,11.9,0,24,1.9,35.8c4.3,26.3,11.2,52.5,19.2,77.9c1.4,4.5,2.9,9,4.6,13.4c0.6,1.6,1.2,4.4,2.7,5.5c1,0.8,2.5,0.3,2.6-1.1
					c0.2-7,1.2-14.1,1.9-21c1.2-10.8,2.4-21.6,4.3-32.3c1.9-10.4,1.4-20.6-0.5-31c-0.9-5.2-2-10.6-3.9-15.6
					c-1.3-3.5-1.7-4.8-0.7-8.5c4.1-14.1,11.7-27.7,19.7-39.9C85.5,173.3,82.9,171.7,81.9,173.4L81.9,173.4z"/>
			</g>
		</g>
		<g>
			<g>
				<path class="st2" d="M261,166.2c11.4,7.9,18.6,20.9,23.5,33.6c2.5,6.4,6.5,15.1,4.9,22.1c-2.4,11-4.4,22.2-5.5,33.4
					c-1.2,11.1,1.1,21.9,2.4,33c1.4,11.5,3.6,23.3,3.9,34.9c0,1.7,2.5,2.1,2.9,0.4c9.4-32.9,22-65.5,27-99.5
					c2.1-14.2,2.7-28.5-1.1-42.5c-4.4-16.1-13-30.6-20.9-45.1c-0.9-1.7-3.5-0.2-2.6,1.5c7.8,14.3,16.2,28.6,20.6,44.4
					c4.1,14.9,3,30.5,0.4,45.6c-5.5,32.3-17.2,63.4-26.2,94.8c1,0.1,2,0.3,2.9,0.4c-0.3-10.3-2.2-20.8-3.4-31.1
					c-1.4-11.6-4.2-23.5-3.1-35.2c1.1-11.9,3.6-23.5,5.9-35.2c1.4-7.2-2.7-16.1-5.2-22.6c-5.2-13.5-12.8-27-24.9-35.4
					C261,162.5,259.5,165.1,261,166.2L261,166.2z"/>
			</g>
		</g>
		<g>
			<g>
				<path class="st2" d="M231.7,146.8c-6.4,22.4-25.1,43.2-49.7,44.7c0.4,0.8,0.9,1.5,1.3,2.3c29.3-42.1,63.1-89.5,58.7-143.5
					c-0.1-1.6-2.5-2.1-2.9-0.4c-2.8,12-8.9,23.2-14.8,33.9c-8.2,15.1-17.2,29.7-26.3,44.4c-1,1.6,1.6,3.2,2.6,1.5
					c9.3-15.1,18.6-30.2,27-45.8c5.7-10.5,11.6-21.5,14.3-33.2c-1-0.1-2-0.3-2.9-0.4c4.3,53.4-29.3,100.2-58.3,141.9
					c-0.6,0.9,0.2,2.3,1.3,2.3c25.9-1.6,45.8-23.2,52.6-46.9C235.1,145.7,232.2,145,231.7,146.8L231.7,146.8z"/>
			</g>
		</g>
		<g>
			<g>
				<path class="st2" d="M158.6,205.9c12.9-13.2,26.4-26.2,41-37.4c1.5-1.2,0-3.8-1.5-2.6c-14.8,11.4-28.6,24.5-41.6,37.9
					C155.2,205.2,157.3,207.3,158.6,205.9L158.6,205.9z"/>
			</g>
		</g>
		<g>
			<g>
				<path class="st2" d="M144.9,185.7c0-0.1,0.1-0.1,0.1-0.2c0.3-0.5,0.2-1.4-0.2-1.8c-0.1-0.1-0.1-0.1-0.2-0.2
					c-0.7-0.6-1.9-0.6-2.4,0.3c-1.8,3.6-2.3,8.2-3.5,12c-0.7,2.2-1.4,4.3-2.3,6.5c0.8-0.2,1.7-0.4,2.5-0.7
					c-11.8-10.1-21.7-22.4-26.6-37.2c-4-12.2-4.5-25.2-2.2-37.8c4.2-23,16.2-44.3,30.9-62.2c5.4-6.5,11.2-13.1,18-18.2
					c1.2-0.9,0.6-3.5-1.2-2.7c-17.3,7.3-33.6,18.8-46.4,32.5c-1.3,1.4,0.8,3.5,2.1,2.1c12.5-13.3,28.2-24.6,45.1-31.7
					c-0.4-0.9-0.8-1.8-1.2-2.7c-15,11.3-27.1,28-36.1,44.2c-12.4,22.2-19.9,48.6-13.1,73.8c4.6,16.8,15.3,30.9,28.4,42.1
					c0.9,0.8,2.1,0.4,2.5-0.7c0.7-1.7,1.3-3.5,1.9-5.2c1.3-4,1.8-8.8,3.6-12.6c-0.8,0.1-1.6,0.2-2.4,0.3c0.1,0.1,0.1,0.1,0.2,0.2
					c-0.1-0.6-0.2-1.2-0.2-1.8c0,0.1-0.1,0.1-0.1,0.2C141.2,185.7,143.8,187.2,144.9,185.7L144.9,185.7z"/>
			</g>
		</g>
		<g>
			<g>
				<path class="st2" d="M268,169.1c12.5-4.1,23.8-10.8,33.4-19.8c1.4-1.3-0.7-3.4-2.1-2.1c-9.2,8.7-20,15.1-32,19.1
					C265.4,166.8,266.2,169.7,268,169.1L268,169.1z"/>
			</g>
		</g>
		<g>
			<g>
				<path class="st2" d="M272.3,175.3c12.9-4.7,23.7-13,31.6-24.2c1.1-1.6-1.5-3.1-2.6-1.5c-7.4,10.6-17.7,18.4-29.8,22.8
					C269.7,173.1,270.5,176,272.3,175.3L272.3,175.3z"/>
			</g>
		</g>
		<g>
			<g>
				<path class="st2" d="M279.2,181.8c11.2-4.5,22-9.8,32.2-16.1c1.6-1,0.1-3.6-1.5-2.6c-10.1,6.2-20.6,11.4-31.5,15.8
					C276.6,179.6,277.4,182.5,279.2,181.8L279.2,181.8z"/>
			</g>
		</g>
		<g>
			<g>
				<path class="st2" d="M286.2,198.5c1.9,0,1.9-3,0-3C284.2,195.5,284.2,198.5,286.2,198.5L286.2,198.5z"/>
			</g>
		</g>
		<g>
			<g>
				<path class="st2" d="M286.6,198.4c11-3.2,21.7-7.4,32-12.6c1.7-0.9,0.2-3.5-1.5-2.6c-10.1,5-20.5,9.1-31.3,12.3
					C283.9,196.1,284.7,199,286.6,198.4L286.6,198.4z"/>
			</g>
		</g>
		<g>
			<g>
				<path class="st2" d="M290.8,206.9c8.7-7.4,18.2-13.8,28.4-19.1c1.7-0.9,0.2-3.5-1.5-2.6c-10.4,5.4-20.1,11.9-29,19.5
					C287.2,206,289.3,208.1,290.8,206.9L290.8,206.9z"/>
			</g>
		</g>
		<g>
			<g>
				<path class="st2" d="M292,224.6c8.9-1.2,17.6-0.8,26.2,1.9c1.8,0.6,2.6-2.3,0.8-2.9c-8.9-2.8-17.8-3.2-27-2
					C290.1,221.8,290,224.8,292,224.6L292,224.6z"/>
			</g>
		</g>
		<g>
			<g>
				<path class="st2" d="M288.1,246.3c7.8-0.7,15.7-0.7,23.3,1.2c1.9,0.5,2.7-2.4,0.8-2.9c-7.9-2-16.1-2-24.1-1.3
					C286.2,243.5,286.2,246.5,288.1,246.3L288.1,246.3z"/>
			</g>
		</g>
		<g>
			<g>
				<path class="st2" d="M292,217.2c8.5-0.3,16.9,0.2,25.3,1.5c1.9,0.3,2.7-2.6,0.8-2.9c-8.7-1.4-17.3-2-26.1-1.7
					C290.1,214.3,290.1,217.3,292,217.2L292,217.2z"/>
			</g>
		</g>
		<g>
			<g>
				<path class="st2" d="M285.2,252.7c3,3.4,7.6,5.5,11.6,7.3c3.9,1.7,8,3.5,12.3,4.2c1.9,0.3,2.7-2.5,0.8-2.9
					c-7.3-1.3-17.6-5-22.5-10.7C286,249.1,283.9,251.3,285.2,252.7L285.2,252.7z"/>
			</g>
		</g>
		<g>
			<g>
				<path class="st2" d="M285.9,266c6.6,2.3,13.1,5.3,20.1,6c1.9,0.2,1.9-2.8,0-3c-6.7-0.7-13-3.7-19.3-5.9
					C284.8,262.4,284.1,265.3,285.9,266L285.9,266z"/>
			</g>
		</g>
		<g>
			<g>
				<path class="st2" d="M287.7,280.1c3.1,1.3,6.4,2.2,9.6,3c1.9,0.5,4.5,1.5,6.5,1c1.9-0.4,1.1-3.3-0.8-2.9c-1.4,0.3-4.8-1-6.4-1.4
					c-2.8-0.7-5.6-1.5-8.2-2.6C286.8,276.4,286,279.3,287.7,280.1L287.7,280.1z"/>
			</g>
		</g>
		<g>
			<g>
				<path class="st2" d="M289.9,289c3.9,0.4,7.8,2.2,11.6,2.2c1.9,0,1.9-3,0-3c-1.7,0-3.5-0.7-5.1-1c-2.2-0.5-4.3-0.9-6.6-1.2
					C288,285.8,288,288.8,289.9,289L289.9,289z"/>
			</g>
		</g>
		<g>
			<g>
				<path class="st2" d="M49.5,150c3.7,6.2,7.5,12.4,12.3,17.8c4.8,5.4,10.6,9.9,16.5,14.1c1.6,1.1,3.1-1.5,1.5-2.6
					c-11.9-8.6-20.2-18.3-27.7-30.9C51.1,146.8,48.5,148.3,49.5,150L49.5,150z"/>
			</g>
		</g>
		<g>
			<g>
				<path class="st2" d="M45.7,157.5c8.7,9.8,18.8,17.6,30.6,23.4c1.7,0.9,3.2-1.7,1.5-2.6c-11.5-5.8-21.4-13.3-30-23
					C46.5,154,44.4,156.1,45.7,157.5L45.7,157.5z"/>
			</g>
		</g>
		<g>
			<g>
				<path class="st2" d="M40,168.7c7.7,11.5,18.1,20.4,29.9,27.4c1.7,1,3.2-1.6,1.5-2.6C60,186.8,50,178.3,42.6,167.2
					C41.6,165.6,39,167.1,40,168.7L40,168.7z"/>
			</g>
		</g>
		<g>
			<g>
				<path class="st2" d="M37.3,176.7c8.2,9.3,16.9,17.9,26.2,26c1.4,1.3,3.6-0.8,2.1-2.1c-9.3-8.1-18-16.7-26.2-26
					C38.1,173.2,36,175.3,37.3,176.7L37.3,176.7z"/>
			</g>
		</g>
		<g>
			<g>
				<path class="st2" d="M32.9,201.2c3.7,4.4,7.6,8.7,12.5,11.6c5,3,10.6,4.5,16.2,5.9c1.9,0.5,2.7-2.4,0.8-2.9
					c-5.3-1.3-10.7-2.7-15.5-5.6c-4.7-2.9-8.4-7-11.9-11.2C33.8,197.6,31.7,199.8,32.9,201.2L32.9,201.2z"/>
			</g>
		</g>
		<g>
			<g>
				<path class="st2" d="M33.4,213.6c9.4,5.1,19,9.2,29.2,12.2c1.9,0.5,2.7-2.4,0.8-2.9c-10-2.9-19.3-6.9-28.5-11.9
					C33.2,210.1,31.7,212.7,33.4,213.6L33.4,213.6z"/>
			</g>
		</g>
		<g>
			<g>
				<path class="st2" d="M38.6,238.8c10.2,1.5,22.1,5.4,29.7,12.5c1.4,1.3,3.5-0.8,2.1-2.1c-8-7.5-20.4-11.7-31-13.3
					C37.5,235.6,36.7,238.5,38.6,238.8L38.6,238.8z"/>
			</g>
		</g>
		<g>
			<g>
				<path class="st2" d="M39.9,247.1c4.1,0.7,8.2,2,12.2,3.3c5.3,1.8,11.6,3.9,15.3,8.2c1.3,1.5,3.4-0.7,2.1-2.1
					c-3.6-4.2-9.3-6.3-14.4-8.2c-4.7-1.7-9.6-3.3-14.5-4.1C38.8,243.9,38,246.8,39.9,247.1L39.9,247.1z"/>
			</g>
		</g>
		<g>
			<g>
				<path class="st2" d="M45.7,269.5c6.1,3.4,12.5,5.7,19.4,7c1.9,0.4,2.7-2.5,0.8-2.9c-6.7-1.3-12.8-3.4-18.7-6.7
					C45.5,265.9,44,268.5,45.7,269.5L45.7,269.5z"/>
			</g>
		</g>
		<g>
			<g>
				<path class="st2" d="M48,277.2c5.1,2.3,10.4,4,15.9,5.1c1.9,0.4,2.7-2.5,0.8-2.9c-5.3-1-10.3-2.6-15.2-4.8
					C47.8,273.8,46.3,276.4,48,277.2L48,277.2z"/>
			</g>
		</g>
		<g>
			<g>
				<path class="st2" d="M320.2,199.6c-5.1,0.5-9.8,2.5-14.6,4.4c-1.8,0.7-1,3.6,0.8,2.9c4.5-1.8,9-3.8,13.8-4.3
					C322.1,202.4,322.1,199.4,320.2,199.6L320.2,199.6z"/>
			</g>
		</g>
		<g>
			<g>
				<path class="st2" d="M283.3,191.1c4.1-1.3,8.1-3,12.2-4.3c1.8-0.6,1.1-3.5-0.8-2.9c-4.1,1.3-8.1,3-12.2,4.3
					C280.7,188.7,281.5,191.6,283.3,191.1L283.3,191.1z"/>
			</g>
		</g>
		<g>
			<g>
				<path class="st2" d="M34.5,186.9c4.3,6,9.6,10.5,15.5,14.9c1.5,1.2,3-1.4,1.5-2.6c-5.5-4.1-10.4-8.2-14.4-13.8
					C36,183.8,33.4,185.3,34.5,186.9L34.5,186.9z"/>
			</g>
		</g>
		<g>
			<g>
				<path class="st2" d="M66.2,235.2c-4.3-2.8-9.9-3.9-14.9-5.1c-1.9-0.4-2.7,2.5-0.8,2.9c4.7,1.1,10.1,2.1,14.2,4.8
					C66.3,238.9,67.8,236.3,66.2,235.2L66.2,235.2z"/>
			</g>
		</g>
		<g>
			<g>
				<path class="st2" d="M43,256.6c2.4,0.5,5,1.8,6.8,3.4c1.4,1.3,3.6-0.8,2.1-2.1c-2.2-2-5.2-3.6-8.1-4.2
					C41.9,253.3,41.1,256.2,43,256.6L43,256.6z"/>
			</g>
		</g>
		<g>
			<g>
				<path class="st2" d="M59.9,266c2,1.1,4,2.1,6,3.2c1.7,0.9,3.2-1.7,1.5-2.6c-2-1.1-4-2.1-6-3.2C59.7,262.5,58.2,265.1,59.9,266
					L59.9,266z"/>
			</g>
		</g>
		<g>
			<g>
				<path class="st2" d="M62.3,182c3.5,2.6,7.1,4.9,10.9,7c1.7,0.9,3.2-1.7,1.5-2.6c-3.8-2.1-7.4-4.4-10.9-7
					C62.2,178.3,60.8,180.9,62.3,182L62.3,182z"/>
			</g>
		</g>
		<g>
			<g>
				<path class="st2" d="M305.4,255c1.8,0.4,3.6,0.7,5.4,1.1c1.9,0.4,2.7-2.5,0.8-2.9c-1.8-0.4-3.6-0.7-5.4-1.1
					C304.3,251.7,303.5,254.6,305.4,255L305.4,255z"/>
			</g>
		</g>
		<g>
			<g>
				<path class="st2" d="M290.9,301.9c2.1,0.3,3.9,0.9,5.7,1.9c1.7,0.9,3.2-1.7,1.5-2.6c-2.1-1.1-4.1-1.8-6.4-2.2
					c-0.8-0.1-1.6,0.2-1.8,1C289.6,300.8,290.1,301.8,290.9,301.9L290.9,301.9z"/>
			</g>
		</g>
		<g>
			<g>
				<path class="st2" d="M306.7,180.4c3.1-1.5,6.2-3,9.3-4.5c1.7-0.8,0.2-3.4-1.5-2.6c-3.1,1.5-6.2,3-9.3,4.5
					C303.5,178.7,305,181.3,306.7,180.4L306.7,180.4z"/>
			</g>
		</g>
		<g>
			<g>
				<path class="st2" d="M55.1,304.4c1.7-0.1,3.4,0.6,4.9,1.2c1.3,0.5,2.4,1.1,3.6,0.1c1.4-1.3-0.7-3.4-2.1-2.1
					c0.7-0.6-0.4-0.7-0.9-0.9c-0.6-0.2-1.1-0.4-1.7-0.6c-1.2-0.4-2.5-0.7-3.8-0.6C53.2,301.5,53.2,304.5,55.1,304.4L55.1,304.4z"/>
			</g>
		</g>
		<g>
			<g>
				<path class="st2" d="M127.1,78.5c-9.8,19.4-15.5,40.5-13.4,62.4c2.1,22.1,11.6,42.3,23.2,61c1,1.6,3.6,0.1,2.6-1.5
					c-11.3-18.2-20.7-37.9-22.8-59.4c-2.1-21.3,3.5-41.9,13-60.8C130.6,78.3,128,76.8,127.1,78.5L127.1,78.5z"/>
			</g>
		</g>
		<g>
			<g>
				<path class="st2" d="M115.4,72.1c-9.9,14-15.2,31.8-17.4,48.6c-3.1,23.3,0.6,46.9,12.2,67.4c0.9,1.7,3.5,0.2,2.6-1.5
					c-11.6-20.6-15-44.3-11.6-67.5c2.4-15.8,7.5-32.3,16.7-45.5C119.1,72,116.5,70.5,115.4,72.1L115.4,72.1z"/>
			</g>
		</g>
		<g>
			<g>
				<path class="st2" d="M290.4,228.5c7.4,5.7,15.5,9.4,24.7,11.3c1.9,0.4,2.7-2.5,0.8-2.9c-8.9-1.8-16.7-5.4-23.9-11
					C290.4,224.7,288.9,227.3,290.4,228.5L290.4,228.5z"/>
			</g>
		</g>
		<g>
			<g>
				<path class="st2" d="M48.7,284.3c4.4,3.8,10.4,5.6,15.7,7.6c1.8,0.7,2.6-2.2,0.8-2.9c-4.9-1.8-10.5-3.4-14.4-6.9
					C49.4,281,47.3,283.1,48.7,284.3L48.7,284.3z"/>
			</g>
		</g>
		<g>
			<g>
				<path class="st2" d="M51.6,293.4c3.9,2.2,8.1,3.8,12.5,4.7c1.9,0.4,2.7-2.5,0.8-2.9c-4.2-0.8-8.1-2.2-11.8-4.3
					C51.4,289.9,49.9,292.4,51.6,293.4L51.6,293.4z"/>
			</g>
		</g>
	</g>
</g>
</svg>
