<?xml version="1.0" encoding="utf-8"?>
<!-- Generator: Adobe Illustrator 19.2.0, SVG Export Plug-In . SVG Version: 6.00 Build 0)  -->
<svg version="1.1" id="Layer_1" xmlns="http://www.w3.org/2000/svg" xmlns:xlink="http://www.w3.org/1999/xlink" x="0px" y="0px"
	 viewBox="0 0 358 342.5" style="enable-background:new 0 0 358 342.5;" xml:space="preserve">
<style type="text/css">
	.st0{fill:#BBBBBC;}
	.st1{fill:#7A7B7B;}
</style>
<g>
	<path class="st0" d="M61.4,312.8c0.5-13.8,12-30.3,6.9-74.1c-2.8-23.8,29.1-92.8,60.1-82c33.6,11.8,77.1,15.5,107.2,1.2
		c19.4-9.2,56,35.6,51.3,78.5c-3.4,31.2,1.5,57.6,5.7,77.1c4.1-31.3,13.8-112.3,0.8-135c-18.8-33-76.2-59-108.7-59
		c-40.9,0-102.2,24.6-119.4,60.1c-13.4,27.7-6.2,114.1-4.5,133.9"/>
	<path class="st1" d="M301.3,205c-0.5-7-1.3-14.3-3.5-21c-2.2-6.9-6.6-12.9-11.3-18.3c-13.7-15.7-32.4-27.1-51.4-35.4
		c-16.5-7.2-34.6-13-52.7-12.6c-20,0.4-40,5.6-58.5,13.1c-18.4,7.5-36.6,17.9-50,32.8c-10.6,11.8-14.7,25-16.7,40.4
		c-4.5,36.1-1.6,73.4,1.5,109.5c0.2,2.2,3.3,2.5,3.9,0.8c0.5-0.3,0.8-0.8,0.8-1.5c0.5-9.9,4.6-19.6,6.2-29.4
		c1.3-7.4,1.9-14.9,1.9-22.4c0.1-8.7-1.6-17.4-1.4-26c0.2-12.1,4.9-24.6,10-35.4c5.7-12.4,13.2-24.9,23.7-34
		c4.2-3.6,9.2-6.8,14.7-7.7c7.1-1.2,14,2.5,20.7,4.3c18.7,5.2,38.5,7.9,58,6.7c9.2-0.5,18.5-1.9,27.3-4.6c6.2-1.9,12.8-6.6,19.5-5.3
		c13.6,2.6,24.2,17.6,30.3,28.8c4.9,8.9,8.3,18.6,10,28.6c1.9,11.6,0,22.8-0.4,34.4c-0.7,21.1,2.3,41.9,6.6,62.5v0.1l0,0
		c0.1,0.3,0.1,0.5,0.2,0.8c0.5,2.4,3.7,1.5,3.9-0.5C299.2,278,304.1,241.1,301.3,205z M296.3,258.4c-1.1,14.3-2.5,28.5-4.3,42.6
		c-3-16.3-4.8-32.8-4.3-49.5c0.3-10.8,2.2-21.4,0.9-32.2c-1.1-8.8-3.5-17.4-7-25.5c-5.9-13.7-15.5-28.3-28.9-35.8
		c-4.3-2.4-9.3-4.1-14.2-3.3c-3.1,0.5-5.9,2.2-8.9,3.4c-4.9,1.9-10,3.3-15.2,4.4c-21,4.3-43.3,2.8-64.1-1.8
		c-13.7-3-27-11.1-40.6-4.2C98,162.4,89.5,174.1,83,185.1c-7,11.8-12.6,25-15.5,38.5c-1.4,6.4-1.5,12.3-0.9,18.8
		c1.1,11.1,1.3,22.3,0,33.4c-0.9,7.7-3.3,15.3-5.1,23c-1.9-25.5-3.1-51.1-1.8-76.6c0.7-14.3,1.3-30.7,8.3-43.6
		c9-16.8,25.7-28.6,42.2-37.2c18.2-9.5,38.4-16.2,58.8-18.8c18-2.3,34.9,0.3,51.9,6.2c19.4,6.8,38.3,16.9,53.7,30.5
		c6.7,5.9,13.2,12.8,17.3,20.7c2.9,5.6,4,12.2,4.7,18.4C299,218.2,297.8,238.6,296.3,258.4z"/>
</g>
</svg>
