<?xml version="1.0" encoding="utf-8"?>
<!-- Generator: Adobe Illustrator 19.2.0, SVG Export Plug-In . SVG Version: 6.00 Build 0)  -->
<svg version="1.1" id="Layer_1" xmlns="http://www.w3.org/2000/svg" xmlns:xlink="http://www.w3.org/1999/xlink" x="0px" y="0px"
	 viewBox="0 0 290 100" style="enable-background:new 0 0 290 100;" xml:space="preserve">
<style type="text/css">
	.st0{fill:#814927;}
	.st1{fill:#3A291D;}
</style>
<g>
	<g>
		<path class="st0" d="M247.6,24c4.8,4.1,15,8.2,18.5,13.4c0,0,0,2.5-3.8,1.7c-1.2-0.2-12.3-5.6-15.1-6.8L247.6,24z"/>
		<g>
			<path class="st1" d="M246.7,33.1c3.7,2.4,7.8,4.1,11.9,5.7c2.4,0.9,5.5,2.4,7.7,0.2c4.3-4.5-15.2-14.3-18.1-15.9
				c-1.1-0.6-2.1,1.1-1,1.7c3.3,1.7,6.5,3.5,9.7,5.6c1.8,1.2,3.7,2.5,5.3,4c1.3,1.2,5,3.8,0.8,3.7c-2.2,0-5.2-1.8-7.1-2.7
				c-2.7-1.2-5.5-2.4-8-4.1C246.6,30.7,245.6,32.4,246.7,33.1L246.7,33.1z"/>
		</g>
		<path class="st0" d="M41.7,24c-4.8,1.9-16,8.2-19.5,13.4c0,0,0,2.5,3.8,1.7c1.2-0.2,13.3-5.6,16.1-6.8L41.7,24z"/>
		<g>
			<path class="st1" d="M40.6,31.4c-2.4,1.5-5,2.7-7.6,3.9c-2,0.9-5.2,2.9-7.6,2.9c-0.5,0.2-1,0-1.4-0.4c-1.1-0.3-1.2-0.7,0-1.1
				c0.4-0.7,1.2-1.3,1.8-1.8c1.6-1.5,3.4-2.8,5.2-4c3.3-2.2,6.7-4.1,10.1-5.9c1.1-0.6,0.1-2.3-1-1.7C37.3,24.7,17.8,34.5,22.1,39
				c2.1,2.2,5.3,0.8,7.7-0.2c4.1-1.6,8.2-3.3,11.9-5.7C42.7,32.4,41.7,30.7,40.6,31.4L40.6,31.4z"/>
		</g>
		<path class="st0" d="M247.6,24"/>
		<path class="st0" d="M247.6,24"/>
	</g>
	<path class="st1" d="M247.5,22.8c-5.7-6.8-27.8-8.2-46.4-8.2c-14.6,0-25.5,2.7-33,8.2l0,0c-5.2,3.2-17.1,6.1-23.9,6.1
		s-18.7-2.9-23.9-6.1l0,0c-7.5-5.4-18.4-8.2-33-8.2c-18.7,0-40.7,1.4-46.4,8.2c-2.3,2.7,1.6,18.4,2.3,23.8
		C46.2,66,64,80.8,87.2,80.8c21.8,0,41.2-12.7,43.4-32.2l0,0v-0.2c0-0.7,0-1.1,0-1.8c0.2-1.1,0.7-2.5,1.4-3.9
		c0.9-1.6,2.3-2.9,4.1-3.9l0,0c5-2.7,10.9-2.7,15.9,0l0.5,0.2c1.4,0.7,2.5,1.8,3.4,3.2c0.9,1.4,1.4,2.9,1.6,4.3c0,0.7,0,1.4,0,1.8
		v0.2l0,0c2.3,19.5,21.6,32.2,43.4,32.2c23.2,0,41.2-14.7,43.9-34.2C245.9,41.1,249.8,25.5,247.5,22.8z M87,77.1
		c-20.2,0-38.1-13.8-38.1-32.6C48.9,23.7,58.4,20,87,20c17.4,0,38.1,4.3,38.1,24.5C125,63.3,107.1,77.1,87,77.1z M200.5,77.1
		c-20.2,0-38.1-13.8-38.1-32.6c0-20.2,20.6-24.5,38.1-24.5c28.6,0,38.1,3.6,38.1,24.5C238.6,63.3,220.7,77.1,200.5,77.1z"/>
</g>
</svg>
