<?xml version="1.0" encoding="utf-8"?>
<!-- Generator: Adobe Illustrator 19.2.0, SVG Export Plug-In . SVG Version: 6.00 Build 0)  -->
<svg version="1.1" id="Layer_1" xmlns="http://www.w3.org/2000/svg" xmlns:xlink="http://www.w3.org/1999/xlink" x="0px" y="0px"
	 viewBox="0 0 630 410" style="enable-background:new 0 0 630 410;" xml:space="preserve">
<style type="text/css">
	.st0{fill:#a06944;}
	.st1{fill:#7f5030;}
	.st2{fill:#562f10;}
	.st2{fill:#433947;}
	.st3{fill:#302833;}
	.st4{fill:#302D33;}
	.st6{fill:#0F0814;}
</style>
<g>
	<g>
		<path class="st0" d="M40.3,313.2c0.2-2,0-25.3,0-25.3s3.8-37.3,4-38.5s5.6-20.1,6.3-21.8c0.7-1.7,5.5-10.1,5.5-10.1V210l20.6-12.1
			l27.5-14.1l24.1-13l24.2-7l9-11.5l23.7-29.2l28.4-31.9l13.6-9.2l0.9,4.2l-0.9,20.5l0.9,57.1l7.1,18.7l32.7,55.6l18.4,24.6
			l17.4,22.3l17.8-21.5l24-31.1l24.7-30.6l18.4-22.6l5.7-13.2L398,140v-15V95l-1.5-16.7l9.3,5l20.3,21l13.2,18.1l9.6,17.8l4.7,10.9
			l18.7,3.3l7.5,6.9l6.4,2.3l33,16.8l20.7,12.6l20.6,12l10.8,11.5l2.2,6l6.1,16.1c0,0,2.6,10.4,2.8,11.2c0.1,0.7,3.3,20.8,3.3,20.8
			l2,40.4c0,0-92.3,64.7-301.7,64.7C124.2,375.7,40.3,313.2,40.3,313.2z"/>
	</g>
	<g>
		<path class="st1" d="M260.8,375.7c0,0,96.3-82,150.5-115.8c2.9-1.8-6.8-14.2-6.8-14.2l-64.6,52.4L281,349.3l-26.1,25.1
			L260.8,375.7z"/>
		<path class="st1" d="M394.5,224.7c0,0,22.7-21.4,36-19.2c13.3,2.2,25.8,8.9,27,6.5c2-4-10.2-36.6-10.2-36.6L423.7,165l-8.4,9.6
			l-16.9,21.6l-9.7,16.8L394.5,224.7z"/>
		<path class="st1" d="M263.1,343.7c0,0-82-55.6-89.7-55.4c-7.7,0.1,3.4-16.2,3.4-16.2l11.3,5.1l22.5,16.6l38.9,29l18.9,16.4
			L263.1,343.7z"/>
		<path class="st1" d="M209.8,218.4c0,0-26.4-33.4-48.9-31.1c-12.3,1.3,3.2-17.6,3.2-17.6l19.1,1l19.2,7.4l13,14.4l5.1,10.6
			L209.8,218.4z"/>
		<path class="st1" d="M61,220v23l5.9,26l9,40l8.5,28c0,0-5.2-2.3-6.8-3.1c-1.6-0.8-23.7-82.8-21.8-113.4C56.1,215.7,61,220,61,220z
			"/>
		<path class="st1" d="M562,225.8l-16.6,44l-13.3,52.3l-3.3,17.3c0,0,6.3-0.6,6.7-3.4c2.3-13.4,24.3-88.1,31.6-111.8
			C567.9,221.8,562,225.8,562,225.8z"/>
		<path class="st1" d="M194.8,234.7l-7-3.7h-11.1l-25.9,3.6l-44,13.4L66,265.8c0,0-0.4,6.9,1,6.2c23-12.5,99.1-34.7,109.7-34.5
			s15.5,3.3,15.5,3.3L194.8,234.7z"/>
		<path class="st1" d="M206.6,99.3c-5.2,17.6,18.5,63.3,23.1,69.6c4.6,6.3-2.7-19.2-2.7-19.2V117l1.4-35.7l-4.4,2.9
			C224,84.2,208.2,93.8,206.6,99.3z"/>
		<path class="st1" d="M415.3,97c3.4-4-16.5-18.7-16.5-18.7l-2.3,15.1l0.3,44.6L393,169C404.5,157.3,411.9,101,415.3,97z"/>
		<path class="st1" d="M423.7,165c0,0-9.7-11.4-9.3-25.7c0.2-9.6,3.2-17.6,7.1-17.6c3.9,0,5.8,5.3,4.5,14.5
			c-1.2,9.2-0.7,29.6,3.1,31.2S423.7,165,423.7,165z"/>
	</g>
	<g>
		<path class="st2" d="M199.6,227.8c-3.8-3.9-0.8-11,1.8-14.7c3.5-5.1,9.1-8.4,15.1-6.5c-0.2,0.2-0.3,0.4-0.5,0.6
			c-5.3,7-10.7,14-16.2,21C199.8,228,199.8,227.9,199.6,227.8z"/>
		<path class="st3" d="M216.6,206.6c-5.1-1.7-9.9,0.5-13.4,4.3c2.5,2.6,4.4,4.7,5.5,6.1c2.5-3.2,5-6.5,7.5-9.8
			C216.2,207,216.4,206.8,216.6,206.6z"/>
		<g>
			<path class="st4" d="M200.7,226.2c-3.2-3.4-0.6-9.4,1.5-12.6c3.2-4.8,8.6-7.7,14.2-5c2.3,1.1,4.3-2.4,2-3.5
				c-7.3-3.4-14.6-0.6-19.2,5.8c-3.6,4.9-6.2,13.1-1.4,18.1C199.7,230.9,202.5,228.1,200.7,226.2L200.7,226.2z"/>
		</g>
		<g>
			<path class="st5" d="M227.2,79.5c-17,11.8-31.1,27.8-44.6,43.4c-14.2,16.3-27.2,33.5-39.1,51.5c-1.2,1.8,1.1,3.6,2.7,2.7
				c14.4-7.3,31.6-7.8,46.3-1.1c6.7,3.1,12.8,7.6,17.7,13.1c2.7,3,5.1,6.3,6.7,9.9c2.2,4.7,0.7,5.6-2.2,9.4
				c-15.5,20.6-31.8,40.5-47.8,60.6c-1.1,1.3-0.4,3.3,1.4,3.4c9.4,0.5,17.4,4.9,24.9,10.3c8.1,5.8,15.9,12.2,23.7,18.4
				c16.6,13.2,33.4,26.2,50.1,39.3c2,1.6,4.9-1.2,2.8-2.8c-18.2-14.3-36.5-28.4-54.6-42.9c-13.6-10.9-28.5-25.3-46.8-26.2
				c0.5,1.1,0.9,2.3,1.4,3.4c14.1-17.7,28.4-35.2,42.1-53.1c2-2.6,3.9-5.1,5.9-7.7c1.3-1.8,4.3-4.5,4.8-6.7c1-4.6-4.7-12.1-7.2-15.3
				c-7.6-9.8-18.6-17-30.6-20.1c-13.7-3.5-28.1-1.8-40.6,4.6c0.9,0.9,1.8,1.8,2.7,2.7c11.7-17.7,24.5-34.7,38.5-50.7
				c13.3-15.3,27.1-31.2,43.8-42.8C231.3,81.5,229.3,78.1,227.2,79.5L227.2,79.5z"/>
		</g>
		<g>
			<path class="st5" d="M461.4,173.9c18.9,6.3,36.7,16.2,54.1,25.6c14.8,8,29.7,16.1,43.7,25.4c3,2,3.5,1.7,7.2,0.4
				c2.7-0.9,8.6-0.7,9-4.5c0.4-3.4-3.7-6.7-5.9-8.7c-12-11-26.6-19.7-40.5-28.1c-15.3-9.2-31.6-19.5-48.9-24.6
				c-2.5-0.7-3.5,3.1-1.1,3.9c13.9,4.2,27.1,12.1,39.6,19.3c14.3,8.2,28.5,16.9,41.5,27c3.6,2.8,8.5,6,10.8,10.1
				c0.2,0.4,0.5,0.7,0.4,1c0.3-1.6-6,0.7-7,1.2c-1.8,0.9-0.8,0.9-2.4,0.3c-1-0.3-2-1.3-2.9-1.9c-13.4-8.5-27.3-16.2-41.2-23.8
				c-17.9-9.7-36.3-19.8-55.7-26.3C460,169.2,459,173.1,461.4,173.9L461.4,173.9z"/>
		</g>
		<path class="st2" d="M403.4,212.8c-1.1-2.6-3-5.1-5.7-6.1c-4.4-1.6-6.7,1.1-8.8,4.8c-0.9,1.6,0.7,3.5,0.5,5.4
			c-0.2,1.9,0.8,4,1.7,5.7c0.5,0.9,0.3,1.7,1,2.4c3.5,3.5,5.6,5.6,9.4,1.5C404.9,222.9,405.2,217.3,403.4,212.8z"/>
		<path class="st3" d="M404.3,216.5c-0.2-1.3-0.5-2.6-1-3.8c-1.1-2.6-3-5.1-5.7-6.1c-2.5-0.9-4.3-0.5-5.8,0.8l-3.2,5.5l5.7,11.7
			C394.5,224.7,398.6,220.8,404.3,216.5z"/>
		<path class="st2" d="M478.4,162.2c-1.1,2.3-7.7,1.7-9.7,1.6c-3.5-0.1-7.1-0.6-10.5-1.6c-0.2,0-0.3-0.1-0.4-0.1
			c-1.2-3.4-2.4-6.8-3.7-10.1c5.1,0.1,10.1,1.1,14.9,2.9C471.1,155.7,479.9,159.1,478.4,162.2z"/>
		<g>
			<path class="st4" d="M400,229.9c12-5.9,6.2-27.4-7.4-25.5c-2.5,0.4-1.5,4.2,1.1,3.9c9.3-1.3,11.9,14.4,4.3,18.1
				C395.7,227.6,397.7,231,400,229.9L400,229.9z"/>
		</g>
		<g>
			<path class="st4" d="M458.6,165.4c5,1.4,20.3,4.3,21.9-3.6c0.7-3.7-3.2-6.4-5.9-8c-5.6-3.1-12.1-4.6-18.5-4.8
				c-2.6-0.1-2.6,3.9,0,4c4.3,0.1,8.5,0.9,12.6,2.4c1.6,0.6,8.9,3.4,7.7,6c-0.9,1.9-6.4,1.4-8,1.4c-2.9-0.1-5.8-0.5-8.7-1.3
				C457.2,160.9,456.1,164.7,458.6,165.4L458.6,165.4z"/>
		</g>
		<g>
			<path class="st5" d="M226.2,81.3c-2.1,29.1-2.5,59.4,1.7,88.3c0.4,2.5,4.2,1.5,3.9-1.1c-4.1-28.5-3.6-58.5-1.5-87.3
				C230.4,78.7,226.4,78.7,226.2,81.3L226.2,81.3z"/>
		</g>
		<g>
			<path class="st5" d="M216.1,101.8c-2.9,72.3,43.9,130.9,86,184.6c1.6,2,4.4-0.8,2.8-2.8c-41.5-52.9-87.7-110.6-84.9-181.8
				C220.2,99.2,216.2,99.3,216.1,101.8L216.1,101.8z"/>
		</g>
		<g>
			<path class="st5" d="M251.2,374.4c8.6-19.4,21.1-37.3,33.1-54.7c15.8-22.9,32.4-45.3,49.2-67.5c14.4-19,29-37.8,43.7-56.6
				c4.3-5.4,8.5-10.9,12.7-16.4c2.7-3.6,4.2-6.1,5.3-10.6c3.4-14.5,3.8-29.8,4.3-44.6c0.5-15.1,1-30.7-1-45.7c-1,0.6-2,1.2-3,1.7
				c36.7,24,57.1,64,66.6,105.8c1-0.8,2-1.5,2.9-2.3c-9.8-6.2-19.9-12-30.4-16.9c-2.8-1.3-7.8-4.3-11-3.6c-3.8,0.9-8,7-10.4,9.9
				c-7.9,9.3-14.9,19.6-21.2,30.1c-1.6,2.7-4.1,5.9-4.9,9.1c-0.8,3.1,0.9,6.5,2.3,9.3c4.2,8.6,10.2,16.5,16.1,24
				c0.1-1,0.3-2.1,0.4-3.1c-21.9,16-42.7,33.6-63.4,51.1c-23.2,19.6-46.2,39.4-68.6,59.9c-6.9,6.3-14.1,12.6-20.2,19.7
				c-1.7,2,1.2,4.8,2.8,2.8c5.1-6,11.1-11.4,16.9-16.7c9.9-9.2,19.9-18.1,30.1-27c23.6-20.7,47.5-41.1,71.9-60.9
				c10.7-8.7,21.4-17.4,32.6-25.5c1.1-0.8,1.3-2.1,0.4-3.1c-4.4-5.6-8.6-11.4-12.3-17.5c-1.8-2.9-5.4-7.7-5.2-11.4
				c0.2-2.4,2.4-5.1,3.6-7.1c5.5-9.4,11.7-18.6,18.5-27.1c3.2-4,6.7-7.8,10.3-11.4c1.4-1.4,1-1.2,3.1-0.5c2.1,0.7,4.2,1.6,6.2,2.5
				c10.5,4.8,20.7,10.7,30.4,16.9c1.5,1,3.3-0.6,2.9-2.3c-9.8-42.8-30.9-83.5-68.4-108.2c-1.2-0.8-3.2,0.2-3,1.7
				c1.7,12.9,1.5,26.2,1.2,39.3c-0.3,14.5-0.8,29.1-3,43.4c-0.8,5.4-1.6,10.2-4.8,14.6c-3.7,5-7.6,9.8-11.4,14.7
				c-30.8,39.5-61.7,79.1-90.4,120.2c-13.8,19.7-28.3,40-38.2,62C246.7,374.7,250.2,376.8,251.2,374.4L251.2,374.4z"/>
		</g>
		<g>
			<path class="st5" d="M60.4,220.7c15-9.4,31.1-17.3,46.9-25.4c13.1-6.7,26.2-13.7,39.7-19.7c2.3-1,0.3-4.5-2-3.5
				c-13.5,6-26.6,13-39.7,19.7c-15.8,8.1-31.8,15.9-46.9,25.4C56.2,218.6,58.2,222.1,60.4,220.7L60.4,220.7z"/>
		</g>
		<g>
			<path class="st5" d="M58.8,219.7c-1.2,7.4,0,15.3,1,22.7c1.6,12,4,23.9,6.6,35.7c4.6,20.8,9.2,42.4,17.2,62.2
				c0.9,2.4,4.8,1.3,3.9-1.1c-7.7-19.1-12.2-39.8-16.7-59.8c-2.5-11.4-4.9-22.9-6.6-34.5c-1.1-7.7-2.8-16.3-1.5-24.1
				C63.1,218.3,59.2,217.2,58.8,219.7L58.8,219.7z"/>
		</g>
		<g>
			<path class="st5" d="M67.8,266.8c13.2-7.5,27.9-12.7,42.1-17.8c19.6-7.1,40.3-14,61.3-15.8c7.4-0.6,17.4-1.3,23.6,3.8
				c2,1.6,4.8-1.2,2.8-2.8c-5.4-4.4-12.7-5.2-19.4-5.2c-9.9,0-19.9,1.9-29.6,4.1c-21.6,5.1-42.7,12.7-63.2,21.2
				c-6.6,2.8-13.4,5.5-19.7,9.1C63.5,264.6,65.5,268.1,67.8,266.8L67.8,266.8z"/>
		</g>
		<g>
			<path class="st5" d="M216.8,271.3c6.8-6.5,12.6-14.1,19.6-20.4c1.9-1.7-0.9-4.6-2.8-2.8c-7,6.3-12.8,13.9-19.6,20.4
				C212.1,270.2,214.9,273,216.8,271.3L216.8,271.3z"/>
		</g>
		<g>
			<path class="st5" d="M366.5,233.5c2.7,4.2,5.1,8.5,7.2,12.9c1.1,2.3,4.6,0.3,3.5-2c-2.1-4.5-4.5-8.7-7.2-12.9
				C368.6,229.3,365.1,231.3,366.5,233.5L366.5,233.5z"/>
		</g>
		<g>
			<path class="st5" d="M425,162.8c-3.6-5.2-5.4-11.6-6.1-17.9c-0.3-2.5-4.3-2.6-4,0c0.8,7,2.7,14.1,6.7,19.9
				C423,166.9,426.4,164.9,425,162.8L425,162.8z"/>
		</g>
		<g>
			<path class="st5" d="M424.1,133.7c-1.4,6.3-1.6,12.5-0.6,18.9c0.4,2.5,4.2,1.5,3.9-1.1c-0.9-5.6-0.6-11.2,0.6-16.8
				C428.5,132.2,424.7,131.1,424.1,133.7L424.1,133.7z"/>
		</g>
		<g>
			<path class="st5" d="M560.3,224.8c-7.5,17.8-13.6,36.3-19.1,54.8c-5.8,19.5-11.1,39.3-14.3,59.4c-0.4,2.5,3.4,3.6,3.9,1.1
				c3.2-19.6,8.3-38.8,13.9-57.9c5.5-18.7,11.6-37.4,19.2-55.3C564.7,224.5,561.3,222.5,560.3,224.8L560.3,224.8z"/>
		</g>
		<g>
			<path class="st5" d="M571.7,223.5c12.9,27.2,13.8,60,13.8,89.5c0,2.6,4,2.6,4,0c-0.1-30.3-1.2-63.7-14.4-91.5
				C574.1,219.1,570.6,221.1,571.7,223.5L571.7,223.5z"/>
		</g>
		<g>
			<path class="st5" d="M42.2,316.9c0.7-16.1,0.1-32.4,1.4-48.5c0.6-8.1,1.8-16.1,3.8-23.9c1-3.9,2.1-7.8,3.4-11.6
				c1.5-4.6,2.9-9.9,7.2-12.7c2.1-1.4,0.1-4.9-2-3.5c-6.6,4.3-8.5,13.1-10.6,20.2c-2.5,8.4-4.1,16.9-5.1,25.6
				c-2,18.1-1.2,36.3-2,54.4C38.1,319.4,42.1,319.4,42.2,316.9L42.2,316.9z"/>
		</g>
		<g>
			<path class="st5" d="M57.9,217c-1.7-4.4,8.7-10.4,11.2-12.1c8.6-5.8,17.9-10.5,27.2-15.1c18.4-9,37.3-17.4,56.7-24
				c2.4-0.8,1.4-4.7-1.1-3.9c-15.7,5.4-31.1,12-46.1,18.9c-15.6,7.2-32.5,14.6-45.7,25.7c-3,2.6-7.8,7-6.1,11.5
				C54.9,220.4,58.8,219.4,57.9,217L57.9,217z"/>
		</g>
		<path class="st2" d="M213.2,310.5c-17.1,9-1.1,34.3,11.1,27.4C244,326.7,227.6,302.9,213.2,310.5z"/>
		<path class="st2" d="M367,317.3c-9.6,11.8,7.8,29.4,19.5,19.4C399.8,325.5,383,297.8,367,317.3z"/>
		<g>
			<path class="st4" d="M212.2,308.8c-8.3,4.8-10.5,14-6.1,22.4c3.8,7.2,12.1,12.6,19.9,8c8.2-4.8,12-14.4,7.3-23.1
				C229.1,308.4,220.3,304.9,212.2,308.8c-2.3,1.1-0.3,4.6,2,3.5c5.9-2.8,12.2,0.1,15.4,5.5c3.8,6.7,0.9,14.3-5.6,18
				c-5.7,3.2-11.4-1-14.2-6.2c-3.5-6.6-2.2-13.6,4.5-17.3C216.5,310.9,214.5,307.5,212.2,308.8z"/>
		</g>
		<g>
			<path class="st4" d="M365.3,316.3c-8.7,11.5,4.3,29.4,18,24.6c13-4.6,12.8-23.6,1.9-30.4c-7.2-4.5-14.7-0.3-19.6,5.4
				c-1.7,2,1.2,4.8,2.8,2.8c4.2-5,10.6-8.8,16.2-3.7c4.1,3.7,5.8,10.3,3.9,15.5c-6,16-29.7,0.8-19.8-12.2
				C370.3,316.3,366.8,314.3,365.3,316.3z"/>
		</g>
		<g>
			<path class="st6" d="M376.8,327.7c1.3-1,2.6-1.5,4.2-1.6c2.6-0.1,2.6-4.1,0-4c-2.2,0.1-4.4,0.7-6.2,2.1c-0.9,0.7-1.3,1.7-0.7,2.7
				C374.5,327.8,375.9,328.3,376.8,327.7L376.8,327.7z"/>
		</g>
		<g>
			<path class="st6" d="M217.1,327c2.2-0.4,4.4-0.7,6.6-1.1c2.5-0.4,1.5-4.3-1.1-3.9c-2.2,0.4-4.4,0.7-6.6,1.1
				C213.6,323.6,214.6,327.5,217.1,327L217.1,327z"/>
		</g>
	</g>
</g>
</svg>
