<?xml version="1.0" encoding="utf-8"?>
<!-- Generator: Adobe Illustrator 19.2.0, SVG Export Plug-In . SVG Version: 6.00 Build 0)  -->
<svg version="1.1" id="Layer_1" xmlns="http://www.w3.org/2000/svg" xmlns:xlink="http://www.w3.org/1999/xlink" x="0px" y="0px"
	 viewBox="0 0 620 400" style="enable-background:new 0 0 620 400;" xml:space="preserve">
<style type="text/css">
	.st0{fill:#433947;}
	.st1{fill:#EFEFEF;}
	.st2{opacity:0.85;}
	.st3{fill:#231E26;}
	.st4{fill:#7A7B7B;}
	.st5{fill:#0F0814;}
</style>
<g>
	<g>
		<path class="st0" d="M555.9,221c-14.9-14.4-92.3-66.2-113.9-76.2c-1.7-0.8-3.6-1.4-5.6-4.2c-10-14.5-20.9-25.2-34-38.5
			c8,12.4,4.8,34.4,2.4,63.9c-0.6,7-4,48.7-5.5,55.2c-2.9,21.5-5.2,47.1-11.5,73.4c-3,12.7-4.7,23.1-7.9,36.6l0.2,0.2l-6.7,27.4
			c73.8-9.4,148.9-37.9,176.3-59.1C577.9,278.2,580.2,244.5,555.9,221z"/>
		<path class="st0" d="M60.3,221c14.9-14.4,92.3-66.2,113.9-76.2c1.7-0.8,3.6-1.4,5.6-4.2c10-14.5,20.9-25.2,34-38.5
			c-8,12.4-4.8,34.4-2.4,63.9c0.6,7,4,48.7,5.5,55.2c2.9,21.5,5.2,47.1,11.5,73.4c3,12.7,4.7,23.1,7.9,36.6l-0.2,0.2l6.7,27.4
			c-73.8-9.4-148.9-37.9-176.3-59.1C38.4,278.2,36,244.5,60.3,221z"/>
	</g>
	<path class="st1" d="M436,316v-11l8-0.7c0,0,34.6-7.1,49-13.6c2-0.9,1.3,8.8,1.3,8.8l-5.8,4l-27.1,9.5l-21.7,4L436,316z"/>
	<g class="st2">
		<path class="st3" d="M430.6,317.8l2.5,19l4.7-0.8l34.2-8.7l24.3-8.7l8.3-4.5l1.7-2.8l-1.3-15.7l-4.5,1.2l-7.7,4.3
			c0,0-10.5,5.5-11,5.3c-0.5-0.2-15.2,6-15.2,6l-17,3.3l-16,2L430.6,317.8z"/>
		<path class="st3" d="M404.8,104.5c0.3-0.5,9.8,9.6,9.8,9.6l11.7,12.2l11,16l10.2,14.2l8.6,12.4l5.6,6l-4.2,3.1l-12.4,9l-4.1-2.3
			l-9.3-10.6l-13.2-15.5l-6.4-2.9l-6,3.1V148l1-24.7V112L404.8,104.5z"/>
		<path class="st3" d="M211.9,104.5c-0.3-0.5-9.9,9.6-9.9,9.6l-11.8,12.2l-11,16l-10.2,14.2l-8.6,12.4l-5.6,6l4.2,3.1l12.4,9
			l4.1-2.3l9.3-10.6l13.2-15.5l6.7-2.9l6.3,3.1V148l-1-24.7V112L211.9,104.5z"/>
		<path class="st3" d="M206.2,352.7l-9.4-2c0,0-53-138.3-53-171c0-4,10.6,43.5,29.4,92.5C189.3,314.3,206.2,352.7,206.2,352.7z"/>
		<path class="st3" d="M409.9,352.7l9.4-2c0,0,53-138.3,53-171c0-4-10.6,43.5-29.4,92.5C426.7,314.3,409.9,352.7,409.9,352.7z"/>
	</g>
	<g>
		<g>
			<path class="st4" d="M489.9,290.7c-3.9,4.8-11.4,8.1-16.7,11.1c-7.4,4.2-15,8.7-23.2,11.2c-2.5,0.8-1.4,4.6,1.1,3.9
				c8.5-2.6,16.5-7.2,24.1-11.6c5.6-3.2,13.3-6.6,17.5-11.8C494.3,291.5,491.5,288.7,489.9,290.7L489.9,290.7z"/>
		</g>
		<g>
			<path class="st5" d="M400.7,103.1c4.4,6,4.7,13.3,4.5,20.5c-0.2,8.6-0.7,17.2-1.3,25.7c-1,16.8-2.4,33.5-4.1,50.3
				c-3.6,34.2-8.7,68.3-15.3,102c-3.8,19-8,37.9-12.8,56.7c-0.6,2.5,3.2,3.6,3.9,1.1c17.2-68.5,28-138.6,32.3-209.1
				c0.6-9.4,1.2-18.8,1.4-28.2c0.1-7.4-0.6-14.9-5.1-21C402.7,99.1,399.2,101,400.7,103.1L400.7,103.1z"/>
		</g>
		<g>
			<path class="st5" d="M401.1,103.4c11.7,11.5,22.7,23.9,32.6,37c8.8,11.7,15.7,25.8,26.6,35.8c0.1-1,0.3-2.1,0.4-3.1
				c-3.1,2.3-6.3,4.6-9.4,6.9c-1.5,1.1-3.1,2.5-4.7,3.5c-2.4,1.5-2.1,1.6-4.2-0.3c-5.5-4.9-10.1-11.4-14.8-17
				c-4.8-5.8-14.9-19-22.9-9.2c-1.6,2,1.2,4.8,2.8,2.8c5.5-6.8,12.8,3.8,16,7.8c4.4,5.3,8.9,10.6,13.5,15.7c2.4,2.6,4.9,7.1,9,5.4
				c2.5-1.1,5-3.6,7.3-5.2c3.1-2.3,6.3-4.6,9.4-6.9c1-0.7,1.4-2.2,0.4-3.1c-5.7-5.2-9.7-11.6-13.9-17.9c-4.5-6.8-9.2-13.5-14.2-19.9
				c-9.5-12.4-19.9-24-31-35C402.1,98.8,399.3,101.6,401.1,103.4L401.1,103.4z"/>
		</g>
		<g>
			<path class="st5" d="M461.1,178.4c4.1-2.3,8.2-4.6,12.3-7c-1-0.6-2-1.2-3-1.7c-0.1,7-1.7,14-3.2,20.7c-2.4,10.5-5.5,20.8-8.7,31
				c-8.6,27.3-18.6,54.2-29.2,80.7c-6.8,17-13.9,33.8-21.4,50.5c-1,2.3,2.4,4.4,3.5,2c12.9-28.8,24.8-58.1,35.7-87.7
				c8.8-23.9,17.3-48.2,23.3-73c1.9-7.9,3.9-16.1,4-24.3c0-1.5-1.7-2.5-3-1.7c-4.1,2.3-8.2,4.6-12.3,7
				C456.9,176.2,458.9,179.6,461.1,178.4L461.1,178.4z"/>
		</g>
		<g>
			<path class="st5" d="M428.4,317.3c0.7,6.7,1.6,13.3,2.8,20c0.2,1.1,1.5,1.6,2.5,1.4c19.2-3,38.5-8.6,56.7-15.5
				c5.2-2,13.1-4.2,16.8-8.6c1.7-2,1.3-5,1.2-7.5c-0.2-4.2-0.5-8.6-1.5-12.7c-0.3-1.3-1.9-1.8-2.9-1.2
				c-22.3,13.4-47.4,21.2-73.4,22.7c-2.6,0.1-2.6,4.1,0,4c26.7-1.6,52.5-9.5,75.4-23.2c-1-0.4-2-0.8-2.9-1.2c0.9,4,1.2,8.1,1.3,12.2
				c0.1,3.2,0.3,4.2-2.4,5.9c-5.9,3.7-12.9,6-19.4,8.3c-16.2,5.6-33,10.4-49.9,13.1c0.8,0.5,1.6,0.9,2.5,1.4
				c-1.1-6.3-2-12.6-2.6-18.9C432.1,314.8,428.1,314.8,428.4,317.3L428.4,317.3z"/>
		</g>
		<g>
			<path class="st5" d="M438,316.4c-0.1-3.9-0.2-7.9-0.4-11.8c-0.7,0.7-1.3,1.3-2,2c19.6-2,39.6-6.3,57.9-13.9
				c-0.8-0.6-1.7-1.3-2.5-1.9c0.4,2.9,0.3,6.4,1.6,9c1.2,2.3,4.6,0.3,3.5-2c-1-2-0.8-4.8-1.1-7c-0.1-1.1-1.2-2.5-2.5-1.9
				c-17.9,7.5-37.6,11.9-56.8,13.8c-1,0.1-2,0.8-2,2c0.1,3.9,0.2,7.9,0.4,11.8C434.1,318.9,438.1,319,438,316.4L438,316.4z"/>
		</g>
		<g>
			<path class="st5" d="M436.3,144c20.2,9.8,39.4,21.7,58.3,33.8c19.1,12.3,38.9,25,55.3,40.8c1.9,1.8,4.7-1,2.8-2.8
				c-16.3-15.7-35.9-28.4-54.9-40.7c-19.2-12.4-38.8-24.6-59.4-34.6C436,139.4,433.9,142.9,436.3,144L436.3,144z"/>
		</g>
		<g>
			<path class="st5" d="M212,101.1c-3.9,5.2-5,11.5-5.1,17.9c-0.2,8.1,0.5,16.4,1,24.5c1,17.8,2.4,35.5,4.2,53.2
				c3.5,34.9,8.7,69.7,15.4,104.1c3.8,19.7,8.2,39.2,13.1,58.6c0.6,2.5,4.5,1.4,3.9-1.1c-16.7-66.3-27.3-134-31.8-202.3
				c-0.6-9.7-1.2-19.4-1.6-29c-0.3-8.2-0.8-17,4.4-23.9C217,101,213.6,99.1,212,101.1L212,101.1z"/>
		</g>
		<g>
			<path class="st5" d="M212.3,100.6c-11.1,10.9-21.5,22.6-31,35c-4.8,6.2-9.4,12.6-13.7,19.2c-4.4,6.6-8.5,13.3-14.4,18.7
				c-1,0.9-0.6,2.4,0.4,3.1c2.9,2.1,5.8,4.2,8.7,6.4c2.5,1.8,5.2,4.6,8,5.8c4,1.8,6.7-2.9,9-5.4c4.6-5.1,9.1-10.4,13.5-15.7
				c3.3-4,10.5-14.6,16-7.8c1.6,2,4.4-0.9,2.8-2.8c-8-9.7-18.1,3.4-22.9,9.2c-2.4,2.9-4.8,5.8-7.3,8.6c-2.3,2.6-4.7,6.3-7.5,8.4
				c-2.1,1.6-1.5,1.7-4.2,0.3c-1.4-0.7-2.7-2-3.9-2.9c-3.4-2.5-6.8-5-10.2-7.5c0.1,1,0.3,2.1,0.4,3.1c10.9-9.9,17.8-24.1,26.6-35.8
				c9.9-13.2,20.9-25.5,32.6-37C216.9,101.6,214.1,98.8,212.3,100.6L212.3,100.6z"/>
		</g>
		<g>
			<path class="st5" d="M157.1,174.9c-4.1-2.3-8.2-4.6-12.3-7c-1.3-0.7-3,0.2-3,1.7c0.2,17.5,6.7,35.7,11.9,52.2
				c8.8,28.1,19.1,55.7,30.1,83c6.7,16.7,13.8,33.3,21.1,49.8c1,2.3,4.5,0.3,3.5-2c-12.8-28.8-24.7-58-35.6-87.5
				c-8.6-23.3-16.8-47-22.8-71.1c-2-7.9-4-16.1-4.1-24.3c-1,0.6-2,1.2-3,1.7c4.1,2.3,8.2,4.6,12.3,7
				C157.3,179.6,159.4,176.2,157.1,174.9L157.1,174.9z"/>
		</g>
		<g>
			<path class="st5" d="M177.9,140.5c-20.6,10-40.2,22.2-59.4,34.6c-19,12.3-38.6,25-54.9,40.7c-1.9,1.8,1,4.6,2.8,2.8
				c16.4-15.8,36.2-28.5,55.3-40.8c18.8-12.1,38.1-24,58.3-33.8C182.3,142.9,180.3,139.4,177.9,140.5L177.9,140.5z"/>
		</g>
	</g>
</g>
</svg>
