<?xml version="1.0" encoding="utf-8"?>
<!-- Generator: Adobe Illustrator 19.2.0, SVG Export Plug-In . SVG Version: 6.00 Build 0)  -->
<svg version="1.1" id="Layer_1" xmlns="http://www.w3.org/2000/svg" xmlns:xlink="http://www.w3.org/1999/xlink" x="0px" y="0px"
	 viewBox="0 0 358 342.5" style="enable-background:new 0 0 358 342.5;" xml:space="preserve">
<style type="text/css">
	.st0{fill:#C47546;}
	.st1{fill:#814927;}
	.st2{fill:#3A291D;}
</style>
<g>
	<path class="st0" d="M58.4,302.9c-0.6-6.9-3.5-13.3-6.3-19.5c-0.4-1-0.9-2-1.3-2.9c-4.3-9.8-8.5-19.4-11.7-29.2
		c-11.1-33.8-11.9-69.5-2.2-100.8c8.1-26,24-46.5,45.9-59.3l0.1-0.1l0.5-0.4l0.3-0.1l0.3-0.2c5-2.8,10.4-5.2,16-7.2l0.8-0.3l0.4-0.8
		c2.8-6.5,8.4-12.1,17.4-17.7c17.4-10.7,40.2-17.2,64.3-18.2c1.9-0.1,3.9-0.1,5.7-0.1c21.9,0,37.9,5.4,47.6,16.1l0.2,0.3l0.3,0.2
		c0.3,0.3,0.5,0.6,0.7,1l0.1,0.1l0.2,0.3l0.3,0.3l0.5,0.3c0.2,0.1,0.3,0.2,0.5,0.3l1.9,1.1l0.9-2c1.5-3.2,1.5-6.7,1.5-9.4
		c0-1.3-0.3-2.5-0.6-3.7c-0.3-1.2-0.6-2.4-0.5-3.3c0-0.1,0-0.1,0-0.1c0,0,0,0,0,0c1.1,0,2.8,1.9,3.6,2.8c2.5,2.8,4.4,6.4,5.6,10.9
		l1,3.4l2.4-2.6c0.2-0.2,0.4-0.5,0.7-0.7c0.3-0.3,0.6-0.6,0.8-0.9c0.8-0.8,1.5-1.7,2.3-2.5c0.6-0.7,1.2-1.4,1.9-2.1h0
		c2.3,5.7,1,11.5-0.5,15.3l-1.1,2.6l2.8,0.1c5.7,0.2,11.5,3.4,15.9,6.1c33.7,20.9,52.1,61.6,44.7,99.1l-3.4-2l0.4,3.9
		c1.7,18.2,0.3,37.7-4.2,57.9c-5.8,26.3-15.4,47.1-28.7,61.7c0,0,0,0,0,0c1.8-6.6,2.2-13.8,2.5-20.8c0.1-1.6,0.2-3.2,0.3-4.8
		c0.8-12.9,1.3-25.8,1.4-38.4l0-1.1l-1-0.6c-1.8-4.7-3.9-9.3-5.8-13.7c-2.4-5.5-4.9-11.2-7-17c-0.6-1.7-1.3-3.6-2-5.9l-0.2-0.6
		l-0.5-0.4c-15.9-18.6-27.3-35.1-31.2-54.7l-1.2-6l-2.6,5.5c-12,25.8-39,43.9-60.2,52.3c6-8.1,12.9-17.4,19.1-27.3l-2.7-2.8
		c-16.3,9.4-34.7,20.1-46.9,37c0,0-0.1,0.1-0.1,0.1c0,0,0,0,0-0.1c1.8-9.5,5-18.8,9.5-27.5l2.9-5.6l-5.6,2.9
		c-16.6,8.5-33.8,18-47.4,32.5c0,0,0,0,0,0c1.5-4.3,2.7-8.7,3.8-12.9c1.4-5.1,2.8-10.4,4.8-15.4l-3.4-2
		c-6.7,8.4-12.9,17.2-18.7,26.1c-1.1-3.7-1.8-7.6-2-11.5l-3.8-0.7c-4.9,10.8-11.8,21.9-20.6,32.8l-3.5-3.4l0.2,5
		c0.9,18.1-1,36.1-5.6,53.7l-1.2,0.5l0,1.4c0.1,3.4,0.2,6.9,0.3,10.3c0.1,4.9,0.3,9.8,0.4,14.7L58.4,302.9z"/>
	<g>
		<path class="st1" d="M104,82.1L92.2,94.9l-13.6,20.8l-8.1,15.7l-7.1,17.3l-3.3,17.8l-2.5,20.2l2.3,17.8l5,15.5v20.8L63,258
			l-5.2,15.8l-3.5-14.4l-3.7-15.9l-2.4-13.3c0,0-2-14.8-2.2-15.5c-0.2-0.8-0.9-10.3-0.9-10.3v-14.5l1-15.2l3-22.7l4-15.9l4.8-10.8
			L65,113l7-11.2l5-8.8c0,0,16.9-7.4,17.7-7.7S104,82.1,104,82.1z"/>
		<path class="st1" d="M108.8,200.5c0.2-0.8,3.2-10.8,3.2-10.8l4.4-14.1l3.7-7.9l6.5-11l10.1-8.1l9.7-4.6l13.7-6l18.8-6.3l18.2-5.6
			l10.1-2.2l-11,7.9l-19.1,16l-13,15.8l-6,6.4l-14.1,6.6l-13.5,8.2l-16,12.6L108.8,200.5z"/>
		<path class="st1" d="M181.3,191.6c0.4-0.5,6.1-8.3,6.1-8.3l7.4-10.6l5.3-10.5l9-5.3l15.5-10.5l10.5-9.1l5.1-5.4l1.7,4.3l-3.3,8
			l-10,15.1l-8.7,9.4l-12.6,12.2l-15,9L181.3,191.6z"/>
		<polygon class="st1" points="241.9,64.3 243.8,59.5 243.8,48.5 247.5,52.6 252.3,64.7 260.7,56.6 261.8,59.5 258.9,74 251.5,79.7 
			247.5,76.4 		"/>
		<path class="st1" d="M252.6,112.1l3.1-9.6l6.1,6.5L269,120l8.6,15.7l5.7,14.3l4,1.2l5.5,12.4l5,14.2l5.8,23.9l3.9,15.2l-0.1,20.2
			c0,0-0.9,23.4,0.1,24.5c1,1.1-2.1,9.2-2.1,9.2L293.6,292l-6.3,5.1l2.9-36.4l-0.3-25.3l-3.2-7.4L274,197.4l-4.5-22.8l-0.6-6
			l-2.2-14.6c0,0-4.2-17-4.4-17.7c-0.1-0.7-7.5-17.4-7.5-17.4L252.6,112.1z"/>
		<path class="st1" d="M255.8,86.9l8.7,3.8l10.8,6.9l9.1,10.5l10.6,13.8l4.1,6.4l6.8,12.3c0,0,6.2,13.1,6.4,13.4
			c0.1,0.3,9.6,23.7,9.6,23.7l2.2-12.4l-1-16.7c0,0-3.6-15.6-3.9-16.4c-0.3-0.7-7.6-16.6-7.6-16.6l-8.3-12.5L293,91l-11.5-8.2
			l-13.2-8.3l-9.3-0.4l-7.6,7.6L255.8,86.9z"/>
	</g>
	<g>
		<g>
			<path class="st2" d="M239.6,129.8c0.3,27.5,16,49,33,69.1c1.7,2,4.5-0.9,2.8-2.8c-16.4-19.2-31.6-39.9-31.9-66.2
				C243.5,127.2,239.5,127.2,239.6,129.8L239.6,129.8z"/>
		</g>
		<g>
			<path class="st2" d="M267,168.6c1,12.5,3.7,24.7,8,36.5c3.8,10.4,8.7,20.4,12.8,30.7c0.9,2.4,4.8,1.3,3.9-1.1
				c-3.9-9.9-8.5-19.4-12.3-29.4c-4.5-11.9-7.4-24.1-8.4-36.8C270.8,166.1,266.8,166.1,267,168.6L267,168.6z"/>
		</g>
		<g>
			<path class="st2" d="M316.1,170.8c3.8,22.3,2.1,45.8-2.8,67.8c-4.8,21.8-13,44.2-28.2,60.9c1.1,0.6,2.2,1.3,3.3,1.9
				c1.8-6.8,2-14.3,2.5-21.2c0.9-12.9,1.4-25.8,1.6-38.8c0.2-14.9,0.1-29.8-0.7-44.7c-0.7-13.4-1.6-27.2-4.7-40.3
				c-4.8-20.3-16.1-38.4-28.3-55.1c-1.5-2.1-5-0.1-3.5,2c11,15.1,21.3,31.1,26.6,49.2c3.9,13.2,4.9,27.2,5.7,40.8
				c1.6,27.2,1.3,54.6-0.4,81.7c-0.5,8.2-0.5,17.2-2.7,25.2c-0.5,1.9,2,3.5,3.3,1.9c15.7-17.3,24.3-40.2,29.3-62.7
				c5-22.8,6.7-46.8,2.8-69.9C319.5,167.2,315.6,168.3,316.1,170.8L316.1,170.8z"/>
		</g>
		<g>
			<path class="st2" d="M261.4,76.1c6.5,0.1,13,4.2,18.2,7.8c8.4,5.8,15.8,13.4,22.1,21.4c16.3,21,24,48.1,18.7,74.1
				c1.3,0,2.6,0,3.9,0c-13.2-36-30.9-78.2-68.4-94.5c-2.3-1-4.4,2.3-2,3.3c36.6,15.9,53.7,56.7,66.6,91.7c0.6,1.7,3.4,2.1,3.9,0
				c7.8-39-11.9-80.6-45.6-101.5c-5.1-3.2-11.2-6.3-17.3-6.5C258.8,72.1,258.8,76.1,261.4,76.1L261.4,76.1z"/>
		</g>
		<g>
			<path class="st2" d="M239.4,63.1c-13-16.5-36.9-19.5-56.5-18.6c-22.4,0.9-46.1,6.6-65.3,18.5c-7.6,4.7-15.1,10.8-18.5,19.3
				c-1,2.4,2.9,3.4,3.9,1.1c2.9-7.1,9.6-12.4,15.9-16.4c8.4-5.3,17.7-9.1,27.2-12c20.3-6.2,43.2-9.1,64.1-4.2
				c10.2,2.4,19.9,6.9,26.5,15.3C238.2,67.9,241,65.1,239.4,63.1L239.4,63.1z"/>
		</g>
		<g>
			<path class="st2" d="M103.4,80.2c-34,10.3-58,36.2-68.4,69.8c-10.3,33-8.5,69.4,2.2,102c3.3,10,7.5,19.7,11.8,29.4
				c3.1,7,7,14.5,7.5,22.3c0.2,2.6,4.2,2.6,4,0c-0.4-5.9-2.6-11.4-4.8-16.8c-3.3-7.8-6.9-15.5-10.1-23.4c-7-17.6-11.7-36-13-54.9
				c-2.1-31.4,3.8-65.1,22.9-90.8c12.2-16.4,29.5-27.7,49-33.6C106.9,83.3,105.9,79.4,103.4,80.2L103.4,80.2z"/>
		</g>
		<g>
			<path class="st2" d="M125.2,156.3c-12.1,13.2-23,27.4-32.6,42.5c1.2,0.2,2.4,0.3,3.7,0.5c-3.6-12.6-2.1-25.8,4.3-37.3
				c1.3-2.3-2.2-4.3-3.5-2c-6.9,12.4-8.6,26.7-4.7,40.4c0.5,1.7,2.7,1.9,3.7,0.5c9.4-14.8,20.1-28.8,32-41.7
				C129.8,157.3,126.9,154.4,125.2,156.3L125.2,156.3z"/>
		</g>
		<g>
			<path class="st2" d="M92.8,169.7c-4.6,18.2-14.6,34.9-26.2,49.4c1.1,0.5,2.3,0.9,3.4,1.4c-2.3-18.5-0.3-37,6-54.6
				c0.9-2.4-3-3.5-3.9-1.1c-6.4,17.9-8.5,36.8-6.1,55.7c0.2,1.5,2.2,2.9,3.4,1.4c12.1-15,22.5-32.3,27.3-51.1
				C97.2,168.3,93.4,167.2,92.8,169.7L92.8,169.7z"/>
		</g>
		<g>
			<path class="st2" d="M61.7,213.5c2.5,21,0.8,42-4.6,62c1.3,0,2.6,0,3.9,0c-4.9-15-8.6-30.5-11.1-46.2c-0.4-2.5-4.3-1.5-3.9,1
				c2.5,15.6,6.2,31,11.1,46c0.6,1.8,3.3,2,3.9,0c5.5-20.7,7.3-41.6,4.8-62.9C65.4,210.9,61.4,210.9,61.7,213.5L61.7,213.5z"/>
		</g>
		<g>
			<path class="st2" d="M55.7,273.9c0.2,9.6,0.6,19.2,0.8,28.7c0.1,2.6,4.1,2.6,4,0c-0.2-9.6-0.6-19.2-0.8-28.7
				C59.7,271.3,55.7,271.3,55.7,273.9L55.7,273.9z"/>
		</g>
		<g>
			<path class="st2" d="M242.5,67.3c2-2.8,2.6-6.3,2.8-9.7c0.1-1.8,0-3.7-0.2-5.5c-0.1-1.2-1-3.2-0.9-4.3c-0.5,0.6-1,1.3-1.5,1.9
				c-1.4,0.3-0.4-0.1,0.2,0.8c0.8,1,1.9,1.9,2.7,2.9c2.5,3.5,3.9,7.6,4.7,11.8c0.2,0.9,1.1,1.4,1.9,1.5c1.5,0.1,2.7-1.7,3.6-2.6
				c2.1-2.2,4-4.4,6-6.6c-1-0.1-2.1-0.3-3.1-0.4c2.4,5.7,0.4,12.3-2.5,17.4c-1.3,2.2,2.2,4.2,3.5,2c3.8-6.5,5.6-14.3,2.5-21.4
				c-0.5-1.2-2.4-1.3-3.1-0.4c-1.4,1.5-2.8,3.1-4.2,4.7c-0.7,0.8-1.5,1.5-2.2,2.3c-0.4,0.6-1.8,1-0.4,1.1c0.6,0.5,1.3,1,1.9,1.5
				c-1.1-5.4-3.1-10.8-6.9-15c-1.3-1.4-3.5-3.9-5.7-3.4c-0.9,0.2-1.4,1.1-1.5,1.9c-0.2,2.3,1.1,4.9,1.1,7.3
				c0.1,3.5-0.2,7.3-2.3,10.2C237.6,67.4,241,69.4,242.5,67.3L242.5,67.3z"/>
		</g>
		<g>
			<path class="st2" d="M105,83.8c20.2-11.5,45.7-17.2,68.8-18.1c2.6-0.1,2.6-4.1,0-4c-23.8,1-50,6.8-70.8,18.7
				C100.7,81.7,102.7,85.1,105,83.8L105,83.8z"/>
		</g>
		<g>
			<path class="st2" d="M249.9,111.2c-8.3,22.7-29.4,36.7-49.4,48.3c-19.7,11.4-40.3,22.4-53.9,41.3c1.2,0.5,2.4,1,3.7,1.5
				c5.4-28.2,22.7-53.1,47.4-67.8c2.2-1.3,0.2-4.8-2-3.5c-25.5,15.2-43.6,41-49.2,70.2c-0.4,2.3,2.3,3.4,3.7,1.5
				c27.4-38,86.6-43.5,103.7-90.6C254.6,109.8,250.8,108.8,249.9,111.2L249.9,111.2z"/>
		</g>
		<g>
			<path class="st2" d="M159.1,167.2c-18.9,9.6-38,19.6-52.7,35.3c1.1,0.6,2.2,1.3,3.3,1.9c3.2-9.1,4.7-18.6,8.3-27.6
				c5.5-13.5,14.4-26.2,28.9-30.9c2.4-0.8,1.4-4.7-1.1-3.9c-14.5,4.7-24.2,16.7-30.2,30.3c-4.5,10.1-6.1,20.7-9.8,31
				c-0.7,1.9,2,3.4,3.3,1.9c14.4-15.5,33.3-25.2,51.9-34.7C163.4,169.5,161.4,166.1,159.1,167.2L159.1,167.2z"/>
		</g>
		<g>
			<path class="st2" d="M200.3,159.9c-6.8,11.8-14.9,22.9-23.1,33.8c-1,1.4,0.7,3.6,2.3,2.9c26.6-10.5,54.5-32.1,64.3-60.1
				c0.9-2.4-3-3.5-3.9-1.1c-4.1,11.7-12.3,22.1-21,30.7c-11.5,11.5-25.3,20.6-40.5,26.6c0.8,1,1.5,2,2.3,2.9
				c8.2-10.9,16.3-22,23.1-33.8C205,159.7,201.6,157.7,200.3,159.9L200.3,159.9z"/>
		</g>
		<g>
			<path class="st2" d="M104.5,152.9c15.4-25.1,44.7-34.2,71.4-42.1c2.5-0.7,1.4-4.6-1.1-3.9c-27.7,8.2-57.8,17.9-73.8,43.9
				C99.7,153.1,103.1,155.1,104.5,152.9L104.5,152.9z"/>
		</g>
		<g>
			<path class="st2" d="M158.9,140c24.5-7.5,51.6-13.1,73.2-27.6c2.1-1.4,0.2-4.8-2-3.5c-11.5,7.1-23.1,14.3-34.6,21.4
				c-2.2,1.4-0.2,4.8,2,3.5c11.5-7.1,23.1-14.3,34.6-21.4c-0.7-1.2-1.3-2.3-2-3.5c-21.2,14.4-48,19.8-72.2,27.2
				C155.4,136.9,156.5,140.7,158.9,140L158.9,140z"/>
		</g>
		<g>
			<path class="st2" d="M78.9,156.2c0.7-2.5,1.9-4.8,3.2-7c1.1-2,2.4-4.5,4.3-5.9c2-1.5,0-5-2-3.5c-4.5,3.4-7.7,10.1-9.3,15.3
				C74.3,157.7,78.2,158.7,78.9,156.2L78.9,156.2z"/>
		</g>
		<g>
			<path class="st2" d="M91,137.7c11.3-9.9,22.9-19.8,37.5-24.1c2.5-0.7,1.4-4.6-1.1-3.9c-15.3,4.6-27.5,14.8-39.3,25.2
				C86.3,136.6,89.1,139.4,91,137.7L91,137.7z"/>
		</g>
		<g>
			<path class="st2" d="M132.3,108.1c-0.1,0.8,0,1.4,0.5,2c0.3,0.4,1,0.7,1.5,0.6c1.4-0.1,2.3-1.2,2-2.6c-0.2-1-1.5-1.7-2.5-1.4
				c-1.1,0.4-1.6,1.4-1.4,2.5c0,0,0,0,0,0.1c0.2-0.6,0.3-1.3,0.5-1.9c0,0,0,0,0,0c0.3-0.2,0.6-0.3,0.9-0.5c0,0,0,0-0.1,0
				c0.4,0,0.7,0,1.1,0c0,0,0,0-0.1,0c0.3,0.2,0.6,0.3,0.9,0.5c0,0,0,0,0,0c0.2,0.6,0.3,1.3,0.5,1.9c0,0,0,0,0-0.1
				c0.2-1-0.3-2.2-1.4-2.5C133.8,106.5,132.5,107,132.3,108.1L132.3,108.1z"/>
		</g>
		<g>
			<path class="st2" d="M147,107.2c28-11.9,60.3-8.6,87.5-23.1c-0.7-1.2-1.3-2.3-2-3.5c-17.9,10.1-36,20.2-56.1,25.5
				c-2.5,0.7-1.4,4.5,1.1,3.9c20.4-5.4,38.8-15.6,57-25.9c2.2-1.3,0.3-4.7-2-3.5C205.4,95.2,173,91.8,145,103.8
				C142.6,104.8,144.7,108.2,147,107.2L147,107.2z"/>
		</g>
		<g>
			<path class="st2" d="M237.5,108.1c2-2.4,4.1-4.7,6.1-7.1c1.7-1.9-1.1-4.8-2.8-2.8c-2,2.4-4.1,4.7-6.1,7.1
				C233,107.2,235.8,110.1,237.5,108.1L237.5,108.1z"/>
		</g>
		<g>
			<path class="st2" d="M245.7,92.9c-0.1,0-0.2,0-0.2,0c-1,0-2,0.9-2,2c0,1.1,0.9,2,2,2c0.1,0,0.2,0,0.2,0c1,0,2-0.9,2-2
				C247.7,93.8,246.8,92.9,245.7,92.9L245.7,92.9z"/>
		</g>
		<g>
			<path class="st2" d="M251.3,88.9c2-10.8-2.7-21.1-12.6-26.2c-2.3-1.2-4.3,2.3-2,3.5c8.2,4.2,12.5,12.5,10.7,21.6
				C246.9,90.3,250.8,91.4,251.3,88.9L251.3,88.9z"/>
		</g>
		<g>
			<path class="st2" d="M238.4,80.1c1.7-3.1,2.1-6.4,2.1-9.9c0-3.2,0-6.2-2.2-8.6c-1.7-1.9-4.6,0.9-2.8,2.8c1.5,1.7,1.1,4.8,1,6.9
				c-0.1,2.4-0.4,4.7-1.6,6.8C233.7,80.3,237.2,82.4,238.4,80.1L238.4,80.1z"/>
		</g>
		<g>
			<path class="st2" d="M252.9,81.1c2.6-3.3,7.4-4.8,11.5-4.6c2.6,0.1,2.6-3.9,0-4c-5-0.1-11.1,1.7-14.3,5.8
				C248.5,80.3,251.3,83.1,252.9,81.1L252.9,81.1z"/>
		</g>
		<g>
			<path class="st2" d="M249.4,83c4.4,5,5.1,10.9,5.2,17.4c0.1,2.6,4.1,2.6,4,0c-0.2-7.6-1.2-14.4-6.4-20.2
				C250.5,78.2,247.7,81.1,249.4,83L249.4,83z"/>
		</g>
		<g>
			<path class="st2" d="M250.9,113.1c5.7,13.4,11.9,26.9,13.9,41.4c0.4,2.5,4.2,1.5,3.9-1.1c-2.1-14.9-8.5-28.7-14.3-42.4
				C253.3,108.7,249.9,110.7,250.9,113.1L250.9,113.1z"/>
		</g>
		<g>
			<path class="st2" d="M269.4,162.8c0.1-0.1,0.2-0.2,0.2-0.2c0.7-0.7,0.8-2.1,0-2.8c-0.8-0.7-2-0.8-2.8,0c-0.1,0.1-0.2,0.2-0.2,0.2
				c-0.7,0.7-0.8,2.1,0,2.8C267.4,163.5,268.6,163.6,269.4,162.8L269.4,162.8z"/>
		</g>
		<g>
			<path class="st2" d="M82.2,89.3c-8,6.3-14.1,15.4-19.6,23.8c-5.2,8-11.3,17.4-12.6,27c-0.3,2.5,3.5,3.6,3.9,1.1
				c1.3-9.3,7.2-18.3,12.2-26c5.3-8.2,11.2-16.9,19-23C87,90.5,84.2,87.7,82.2,89.3L82.2,89.3z"/>
		</g>
		<g>
			<path class="st2" d="M47.3,150c-2.1,10.6-3.6,21.5-3.4,32.3c0,2.6,4,2.6,4,0c-0.2-10.5,1.3-21,3.3-31.3
				C51.7,148.5,47.8,147.5,47.3,150L47.3,150z"/>
		</g>
		<g>
			<path class="st2" d="M44.1,191c0.1,0.1,0.2,0.2,0.3,0.3c0.7,0.7,2.1,0.8,2.8,0c0.7-0.8,0.8-2,0-2.8c-0.1-0.1-0.2-0.2-0.3-0.3
				c-0.7-0.7-2.1-0.8-2.8,0C43.3,188.9,43.3,190.2,44.1,191L44.1,191z"/>
		</g>
		<g>
			<path class="st2" d="M43,204.4c0.1,5.3,0.6,11,1.9,16.1c0.6,2.5,4.5,1.4,3.9-1.1c-1.2-4.8-1.7-10.1-1.8-15
				C46.9,201.8,42.9,201.8,43,204.4L43,204.4z"/>
		</g>
		<g>
			<path class="st2" d="M91.1,136.2c2-13.2,10.9-24.5,20-33.8c7.8-8,16.6-15.5,26.2-21.4c10.6-6.5,22.8-11.4,34.6-15.2
				c16.7-5.5,34.3-5.8,50.9,0.4c2.4,0.9,3.5-3,1.1-3.9c-13.3-5-28-6.1-42-3.4c-11.4,2.2-22.5,6.9-33.1,11.7
				c-17.4,7.9-32.6,19.5-45.2,33.9c-7.6,8.7-14.6,19-16.4,30.6C86.9,137.7,90.8,138.8,91.1,136.2L91.1,136.2z"/>
		</g>
		<g>
			<path class="st2" d="M111.3,77.5C99.9,83,90.9,94.4,83.6,104.4c-7.5,10.4-13.5,21.8-18,33.9c-4.5,12.1-7.4,24.7-8.7,37.5
				c-1.3,13-1.4,26.6,4.8,38.5c1.2,2.3,4.6,0.3,3.5-2c-6-11.6-5.4-25.4-4-38.1c1.3-11.9,4.2-23.6,8.4-34.8
				c4.2-11.2,9.8-21.8,16.7-31.6c7-9.9,16.1-21.4,27.2-26.8C115.7,79.8,113.6,76.4,111.3,77.5L111.3,77.5z"/>
		</g>
		<g>
			<path class="st2" d="M274.5,134c27.2,37.7,34.1,89.1,29.7,134.3c-0.2,2.6,3.8,2.5,4,0c4.4-45.8-2.7-98.2-30.2-136.4
				C276.5,130,273,132,274.5,134L274.5,134z"/>
		</g>
	</g>
</g>
</svg>
