<?xml version="1.0" encoding="utf-8"?>
<!-- Generator: Adobe Illustrator 19.2.0, SVG Export Plug-In . SVG Version: 6.00 Build 0)  -->
<svg version="1.1" id="Layer_1" xmlns="http://www.w3.org/2000/svg" xmlns:xlink="http://www.w3.org/1999/xlink" x="0px" y="0px"
	 viewBox="0 0 130 59" style="enable-background:new 0 0 130 59;" xml:space="preserve">
<style type="text/css">
	.st0{fill:#3A291D;}
	.st1{fill-rule:evenodd;clip-rule:evenodd;fill:#7A502B;}
</style>
<g>
	<g>
		<path class="st0" d="M16.7,23.4c14.9,5.4,32.5,4.9,48,4.6c14.1-0.3,30.3-0.2,43.7-5.1c1.8-0.7,1-3.6-0.8-2.9
			c-13.2,4.8-29,4.7-42.9,5c-15.3,0.3-32.6,0.8-47.2-4.5C15.7,19.9,14.9,22.8,16.7,23.4L16.7,23.4z"/>
	</g>
	<g>
		<path class="st0" d="M25.9,22.2c-1.7-2.9,15.6-7.4,17.8-8c6.2-1.5,11.8,2.5,17.9,2.4c4.8-0.1,9.4-2.8,14.3-3.2
			c2.8-0.2,5.6,0.4,8.3,1c2.1,0.5,18.7,4.5,16.7,7.7c-1,1.6,1.6,3.2,2.6,1.5c3.8-6.1-9-9.6-12.6-10.6C87,11.9,83,10.8,79,10.4
			c-5.6-0.5-10.6,2.1-16,2.9c-4.7,0.7-9.7-1.8-14.4-2.4c-3.8-0.5-7,0.6-10.6,1.7c-3.7,1.1-18.5,4.5-14.7,11
			C24.3,25.4,26.9,23.9,25.9,22.2L25.9,22.2z"/>
	</g>
	<g>
		<path class="st1" d="M75.5,41.5L66,42.6h-8.3c0,0-6.8-2.7-8.3-1.2s-3.9,3.7-3.5,7.4c0.3,3.2,32.3,5.9,33-2.4
			C79.3,43,75.5,41.5,75.5,41.5z M117,15.2c-2.7-4.4-4.7-2.1-5.9-1.2c-1.2,0.9-1.4,2.6-1.2,3.5c1.2,4.9,2.2,7,1.2,14.1
			c-0.4,2.7,6.7,2.8,8.8-1.2C121.9,26.8,119.6,19.7,117,15.2z"/>
	</g>
	<g>
		<path class="st0" d="M26.2,30.3c3,5.1,8.5,11,14.5,12.4c5.1,1.2,10.8,1.3,16.1,1.6c7.9,0.4,16,0.4,23.8-1.1
			c8.1-1.5,13.3-6.2,18-12.9c1.1-1.6-1.5-3.1-2.6-1.5c-4.7,6.7-9.8,10.6-17.9,11.8c-7,1.1-14.2,1-21.2,0.6
			c-4.8-0.2-9.9-0.4-14.6-1.3c-5.6-1.1-10.6-6.4-13.5-11.1C27.8,27.1,25.2,28.6,26.2,30.3L26.2,30.3z"/>
	</g>
	<g>
		<path class="st0" d="M15.8,15.6c-1.7,3.3-3,7.2-3.5,10.8c-0.3,1.9,2.6,2.7,2.9,0.8c0.5-3.4,1.7-7.1,3.2-10.1
			C19.3,15.4,16.7,13.9,15.8,15.6L15.8,15.6z"/>
	</g>
	<g>
		<path class="st0" d="M107,17.2c2.1,3.6,2.9,7.5,2.4,11.6c-0.2,1.9,2.8,1.9,3,0c0.5-4.6-0.5-9.1-2.8-13.1
			C108.6,14,106,15.5,107,17.2L107,17.2z"/>
	</g>
</g>
</svg>
