<?xml version="1.0" encoding="utf-8"?>
<!-- Generator: Adobe Illustrator 19.2.0, SVG Export Plug-In . SVG Version: 6.00 Build 0)  -->
<svg version="1.1" id="Layer_1" xmlns="http://www.w3.org/2000/svg" xmlns:xlink="http://www.w3.org/1999/xlink" x="0px" y="0px"
	 viewBox="0 0 620 400" style="enable-background:new 0 0 620 400;" xml:space="preserve">
<style type="text/css">
	.st0{fill:#FFC20E;}
	.st1{fill:#433947;}
	.st2{fill:#D89016;}
	.st3{fill:#231E26;}
	.st4{fill:#0F0814;}
	.st5{fill:#6D3924;}
	.st6{fill:#BBBBBC;}
	.st7{opacity:0.55;fill:#A38D6C;}
	.st8{fill:#995B05;}
</style>
<g>
	<path class="st0" d="M544,206.7c-7-5.3-47.2-28.4-73.9-43.9c-2.2,0.2-4.3-0.2-6.5-0.4c-5.2-0.6-9.2-1.4-10.6,4.9
		c-1.7,8.1-8,14.2-13.9,20c-6.8,6.8-15.1,13.2-23.6,17.8c-4.5,2.4-9,4.6-13.9,6c-4.6,1.4-9.2,3.5-13.9,4.4c-0.1,0.4-0.5,0.7-1,0.7
		c-3-0.1-6.1,1.7-9,2.5c-4.3,1.2-8.9,1.7-13.3,2.3c-8.3,1.2-17.2,0.3-25.6,0.7c-14.9,0.8-31,2.3-45.6-0.1c-0.2,0.3-0.5,0.6-0.9,0.5
		c-10.1-0.6-19.7-2.8-29.6-5.5c-4.8-1.3-9.7-2-14.3-3.9c-4.1-1.7-8.5-2.7-12.6-4.4c-0.2,0.1-0.4,0.1-0.7,0
		c-10-3.8-19.4-8.4-28.5-13.9c-4.6-2.8-9.9-4.4-14.4-7.4c-4-2.7-8-5.4-11.8-8.3c-3.6-2.8-7.7-5.4-10.9-8.5c-1.2-1.1-1.7-2.5-2.6-3.8
		c-1.8-2.7-2.8-2.2-5.4-1.7c-3.9,0.6-10.3,1.6-11.4-3.4c-22,11.4-55.7,30.3-78.7,50.2c-21.6,18.6-25,66.5,4,88.5
		c86.9,66,340.2,92.5,466.1,9.1C570.9,289.5,578.5,232.7,544,206.7z"/>
	<g>
		<path class="st1" d="M239.9,338.5c0.3-15.5,3.8-31.1,6.1-46.3c4.1-26.6,8-54.9,2.4-86.1c-0.3-1.8-56-59.1-56-59.1
			s-87.5,30-125.5,63c-22.2,19.4-50.7,65.3-6.9,94.1c37.2,24.5,108.3,47.2,178.3,57C237.9,356.6,239.8,343.1,239.9,338.5z"/>
		<path class="st1" d="M560,222.5c-15.5-14.9-78.1-56.2-100.6-66.6c-1.8-0.8-28.6-15.9-30.7-13.1c-11.5,15.4-64.4,60.9-66.9,63.5
			c5.9,26.3,8.5,53.3,11,80.1c1.3,14.1,2.6,28.2,4.6,42.2c1.3,9.3,2.3,25.9,2.4,35.2c65.5-5.3,128-28.9,173.9-59.6
			C584.2,283.7,585.3,246.8,560,222.5z"/>
	</g>
	<g>
		<g>
			<path class="st2" d="M252.1,225.9c20.1,14.8,92,17.1,114.7,6.9c3.2-1.4-1.5-13.9-1.5-13.9l-46.8,2.1l-33.1,0.5l-34.1-10
				C251.3,211.4,249.2,223.7,252.1,225.9z"/>
			<path class="st2" d="M247.9,356.5c0,0,20-119.2,18.3-126.5s-14.2-9.7-14.2-9.7V240l-0.8,28l-5,28.6l-5.7,37.5l-2.4,21.2
				L247.9,356.5z"/>
			<path class="st2" d="M378,359l-7.9,1c0,0-12.6-122.7-13.3-128s10.4-6.8,10.4-6.8l1.5,17.9l9.3,98.6V359z"/>
		</g>
		<path class="st3" d="M251.3,225.9c0,0-22.4-3.7-57.5-24.2c-16-9.4-32.6-29.2-32.6-29.2s-15.9,0.8-16.9-6.4c-0.7-4.7,11-5.9,11-5.9
			l25.5,3.1l67.2,35.9L251.3,225.9z"/>
		<path class="st3" d="M482.5,168.6c-9-5.4-16.8-9.8-22.4-12.4l-15.9-1l-35.1,28.1l-44.9,34.3c1,5.1,1.8,11.2,2.6,16.2
			c12.8-1.8,57-12.1,77.4-34.7c16-17.8,14.4-28.4,14.4-28.4S477.8,172.9,482.5,168.6z"/>
		<path class="st3" d="M406.7,296.6c0,0,25.4-7.6,43.6-7.3S495,295,495,295l-8.8,1.6l-30.9,0.7l-44.6,1.5L406.7,296.6z"/>
	</g>
	<g>
		<g>
			<path class="st4" d="M245.6,204.3c8.1,24.7,4.2,52.6,0.7,77.7c-3.7,26.3-9.2,52.6-10.6,79.2c-0.1,2.6,3.9,2.6,4,0
				c1.4-27.5,7.3-54.5,11-81.7c3.3-24.8,6.7-52-1.2-76.2C248.7,200.8,244.8,201.8,245.6,204.3L245.6,204.3z"/>
		</g>
		<g>
			<path class="st4" d="M361.1,206.2c8.9,52,13.9,104.8,16.4,157.5c0.1,2.6,4.1,2.6,4,0c-2.5-53-7.5-106.2-16.5-158.5
				C364.6,202.6,360.7,203.7,361.1,206.2L361.1,206.2z"/>
		</g>
		<g>
			<path class="st4" d="M403.7,299.1c0,4.8,0.7,8.7,2.4,13.1c0.3,0.7,1,1.6,1.9,1.5c28.9-3.9,57.7-4.2,86.8-3.7c1.1,0,2-0.9,2-2
				c0.1-3.7,0.1-7.4,0.2-11.1c0-1.1-0.9-1.9-2-2c-16.5-1.3-33.4,0.1-49.9,0.7c-13.1,0.5-26.3,1-39.4,1.6c-2.6,0.1-2.6,4.1,0,4
				c13.1-0.6,26.3-1.1,39.4-1.6c16.5-0.6,33.4-2,49.9-0.7c-0.7-0.7-1.3-1.3-2-2c-0.1,3.7-0.1,7.4-0.2,11.1c0.7-0.7,1.3-1.3,2-2
				c-29.1-0.5-57.9-0.2-86.8,3.7c0.6,0.5,1.3,1,1.9,1.5c-1.6-4.1-2.2-7.7-2.2-12C407.7,296.5,403.7,296.5,403.7,299.1z"/>
		</g>
		<g>
			<path class="st4" d="M469.1,165.9c41.5,40.5,48.6,100.8,51.7,155.7c0.1,2.6,4.1,2.6,4,0c-3.1-56-10.6-117.3-52.9-158.6
				C470.1,161.2,467.2,164.1,469.1,165.9L469.1,165.9z"/>
		</g>
		<g>
			<path class="st4" d="M186,146.5c-21.8,13.2-35.9,37.2-46.2,59.8c-12.1,26.5-20.1,55.2-23.3,84.2c-1.5,14-1.9,28.3,0.5,42.3
				c0.4,2.5,4.3,1.5,3.9-1.1c-4.2-25.4,0-52.3,6.3-77c6.9-27,17.3-53.9,33.3-77c7.4-10.7,16.4-20.9,27.6-27.7
				C190.2,148.6,188.2,145.1,186,146.5L186,146.5z"/>
		</g>
		<g>
			<path class="st4" d="M61.8,219.7c2.6-4.9,8.2-8.6,12.6-11.8c7.9-5.9,16.2-11.1,24.6-16.2c20.3-12.2,41.4-23.2,63.2-32.4
				c10.4-4.4,21.1-8.4,32.1-10.9c2.5-0.6,1.4-4.4-1.1-3.9c-21.3,4.7-41.8,14.6-61.2,24.3c-20.3,10.3-40.6,21.5-59,35
				c-5.1,3.8-11.6,8-14.7,13.8C57.1,219.9,60.6,221.9,61.8,219.7L61.8,219.7z"/>
		</g>
		<g>
			<path class="st4" d="M427.6,144.7c25.8,10.4,50.4,23.8,74,38.5c18.6,11.6,37,24,53.6,38.3c3.6,3.1,10.2,7.6,11.7,12.3
				c0.8,2.4,4.7,1.4,3.9-1.1c-1.4-4.3-5.8-7.8-9-10.7c-6.6-6.1-13.8-11.6-21-17c-21.6-16.1-44.5-30.5-68.2-43.3
				c-14.3-7.7-28.9-14.8-43.9-20.8C426.2,139.9,425.2,143.8,427.6,144.7L427.6,144.7z"/>
		</g>
		<g>
			<path class="st4" d="M557.4,224.6c2.7,12.7,0.8,27-0.7,39.7c-1.7,13.8-3.6,29.9-11,42c-1.3,2.2,2.1,4.2,3.5,2
				c7.5-12.4,9.6-28.6,11.4-42.8c1.7-13.5,3.6-28.6,0.8-42C560.8,221,556.9,222,557.4,224.6L557.4,224.6z"/>
		</g>
		<g>
			<path class="st4" d="M71.2,205.9c-5.2,16.2-5.8,34.7-5.7,51.6c0.1,18.6,1.4,39.6,10.6,56.3c1.2,2.3,4.7,0.2,3.5-2
				c-9.1-16.4-10.1-37.3-10.1-55.6c0-16.2,0.5-33.7,5.5-49.2C75.9,204.5,72,203.5,71.2,205.9L71.2,205.9z"/>
		</g>
	</g>
	<g>
		<path class="st5" d="M425.7,141.6c-7.5,12.1-18.3,21.5-28.8,30.9c-11.5,10.3-23.1,20.5-35.4,29.8c-2,1.5,0,5,2,3.5
			c12.6-9.6,24.5-19.9,36.2-30.5c10.8-9.7,21.7-19.3,29.4-31.7C430.5,141.4,427,139.4,425.7,141.6L425.7,141.6z"/>
	</g>
	<g>
		<path class="st5" d="M192.5,147c15.4,21.5,33.4,40.8,53.9,57.6c2,1.6,4.8-1.2,2.8-2.8c-20.2-16.5-38.1-35.6-53.3-56.8
			C194.5,142.9,191,144.9,192.5,147L192.5,147z"/>
	</g>
	<path class="st0" d="M152.2,160.6c1.2,5.8,11.6-0.5,14.9,2.1c1,0.8,1.3,2.2,2,3.2c1.5,2.4,3.4,3.8,5.6,5.4
		c3.5,2.7,6.8,5.6,10.4,8.1c3.4,2.3,6.8,5,10.3,7c4.3,2.4,8.9,4,13.1,6.6c8.4,5.1,17,9.2,26.1,12.8c0.3-0.1,0.6-0.1,0.9,0
		c4,1.8,8.3,2.6,12.4,4.3c5,2.1,10,3.9,15.3,5.4c9.2,2.5,18.4,3.8,27.8,4.4c0.2-0.5,0.6-0.9,1.3-0.7c15.6,4.2,33.1,2.4,49,1.6
		c9.5-0.5,18.9-1.2,28.4-2.6c3.5-0.5,6.9-1.2,10.3-2.3c1.8-0.6,3.6-1.4,5.6-1.6c0.1-0.3,0.3-0.5,0.7-0.5c5.3-0.8,10.6-3.2,15.7-4.8
		c5.8-1.8,11.2-4.1,16.3-7.3c9.3-5.7,18.8-12.3,25.4-21.1c1.6-2.1,3.1-4.3,4.6-6.5c2-3,1.8-6.3,2.7-9.6c0.4-1.6,1.3-2.8,2.8-3.5
		c5.3-2.8,11.7,0.9,17.2-0.3c0.1,0,0.2,0,0.3,0c1.8-2.2,2.2-6.6,2-10.4c-0.2-4.3-1.6-10.2-7-13.6c-1.5-1-3.1-1.7-4.9-2.5
		c-1.7-0.8-3.4-1.6-5-2.5c-4.5-2.8-5-6.4-5.4-10c-0.1-0.9-0.2-1.7-0.4-2.6c-1.2-6.3-4-11.7-8.3-15.6c-3.1-2.9-7.1-5.1-11.8-6.6
		c-1.7-0.5-3.4-1-5.4-1.3c-0.2,0-0.6-0.1-1-0.1c-0.7,0-1.4-0.1-2.1-0.2l-2.8-0.6l1.3-2.4c0-0.2,0.1-0.7,0-2.1V90
		c-0.1-2.1-0.4-4.1-0.8-6.1c-0.9-4.4-2.7-8.6-5.2-12c-4.4-6.1-11-10.1-18.4-11.3H396h-0.1c-0.1,0-0.1,0-0.2,0l0,0l0,0v0.1l0.1,0.2
		v0.2C397,67,397,73,396.3,78.5l-0.3-0.2c0,0,0.1,0.4,0.2,1c-0.8,6.3-2.4,12.1-3.8,16.6c-3.7,12-9.4,24.4-17.7,39.3
		c-0.9,1.5-1.7,3-2.6,4.6c-11.8,28.6-48.7,69.9-51.1,69c-10-3.5-41.1-34.7-50.7-44.9c-3.5-4.2-6.9-8.6-10.5-13.3
		c-14.4-19.1-29.9-42.1-36.5-66.9c-2.1-7.8-1.5-15-0.9-22.7c0.1-0.8,0.1-1.7,0.2-2.5h-0.1c-0.4,0-0.9,0-1.3,0
		c-12.4,0-27.6,7.4-43.8,21.5c-5.3,4.6-11,10.2-13.6,16.6c-2,5.1,0.2,10.8,2.4,16.3c0.4,1,0.8,2.1,1.2,3.1c0.1,0.2,0.2,0.4,0.3,0.8
		c1.1,2.5,1.8,4.2,1.2,5.6l-1.9,1.2c0.4,0,0.7-0.1,0.7-0.1c-0.5,0.2-2.8,1.8-3.4,2.2c-2.3,2.3-3.7,5.4-4.1,8.8
		c-0.3,2.6,0,5.1,0.3,7.8l0.2,1.3c0,0.3,0,0.7,0,1.1c0,0.3,0,0.8,0,1c-0.1-0.6-0.1,2-0.1,2c-0.8,1-2.2,1.7-3.7,2.4
		c-0.9,0.5-2.1,1.1-2.5,1.5c-1.9,1.9-3.7,5.4-3.4,8.4C151.6,159.8,152,160,152.2,160.6z"/>
	<path class="st6" d="M374.1,173.3c-0.1-2.9,6.3-4.3,6.5-1.4c1.6,23,1.9,137.9,1.2,151.9c-0.2,4.8-9.7,5.1-10,0.3
		C370.4,295,374.1,173.3,374.1,173.3z"/>
	<g>
		<path class="st2" d="M165.1,92.7c0,0,8.3-2.2,27.2,9.2c35.1,21.2,65.6,69.5,65.6,69.5s30.5,23.8,57.5,42c3.7,2.5-1.7,2.1-1.7,2.1
			L286.9,199l-33.1-22.8l-10.5-14.7l-11.9-12.4L217.8,138l-14-7.3c0,0-11.9-4.7-12.6-4.9s-14.3-3.6-14.3-3.6l-8-1.9l-4.7-13.2
			L165.1,92.7z"/>
		<path class="st2" d="M162.2,146.2c-0.8,1.8,7.8-1.2,7.8-1.2h13.2l16.2,2.7l15.1,6.7l29.1,14.3c0,0,7.5,5.5,6.2,4.2
			C217.1,139.5,170.9,126.3,162.2,146.2z"/>
		<path class="st2" d="M168.3,164.6c-3.6-1.9,9.6,11.6,9.6,11.6l15.3,9.7l22,13l41.9,15.8l17.7,3.2c0,0,15.6,3.1,12.6,2
			C231.6,198.9,210.2,186.6,168.3,164.6z"/>
		<path class="st2" d="M322.3,219.8c48.2-28.5,82.5-91,94.9-143.9c1-4.1,3.4,16.7,3.4,16.7l-4,23.3l-9.8,24.9l-19.3,32.5l-22,24.9
			l-16.8,13.2l-15.4,7.5c0,0-5.7,1.8-6.7,2.2S321.4,220.3,322.3,219.8z"/>
		<path class="st2" d="M451.8,126.8c0,0-23.1,4.3-28.6,11.8c-3.4,4.6-0.7,10,2.3,7.8c12.2-9,28.5-14.7,28.5-14.7L451.8,126.8z"/>
		<path class="st2" d="M472,146.4c-41.6-8.9-97.8,50.3-131.4,70.9c-1.2,0.7-5.2,2-5.2,2l4.1,1.8l8.9-0.7l8.4-6l33.8-25.3l13.1-9.4
			l13.5-7.9l24.1-6.9l16.1-4.4l12.5,0.6l2.8-2.7C472.8,158.4,474.9,147.1,472,146.4z"/>
		<path class="st2" d="M449.1,163.2c-20,35.9-97.8,57-97.8,57l9.9-0.3l34.5-7.6l27.1-13.1l10.6-8.2l10.1-10.5l8.2-10.1
			C451.8,170.3,450,161.5,449.1,163.2z"/>
		<path class="st2" d="M371.1,188.4c0.1-0.2,0.2-0.4,0.3-0.6c1.1-2.3,3.2-3.8,5.6-4.5c0.7-0.5,1.5-1,2.2-1.6c0.4-0.3,0.7-0.8,1-1
			c0.2-0.5,0.4-0.9,0.7-1.2c0.9-1.4,2-2.5,3.2-3.3c-0.1-1.7-0.2-3.2-0.2-4.4c-0.2-2.7-2.4-4.5-5.4-4.5c-2.2,0-4.4,0.9-5.8,2.3
			c-1,1.1-1.6,2.4-1.6,3.7c0,1.2-0.2,7.1-0.5,15.8C370.7,188.9,370.9,188.6,371.1,188.4z"/>
		<path class="st2" d="M268.9,184.4c-0.5-9-1.4-15-3-17.8l-0.5-0.9l-0.9-0.4c-0.8-0.4-1.6-0.5-2.5-0.5c-1.8,0-3.6,0.8-4.9,2.1
			c-1.1,1.1-1.7,2.6-1.7,4.1c0,1.9,0.1,3.7,0.1,5.5C261.5,177,266,179.9,268.9,184.4z"/>
	</g>
	<path class="st6" d="M258.6,170.9c-0.1-2.1,2.7-3.6,4.7-2.7c7.8,13.8-2.4,143.2-2.2,159.2c0,2.5-7.2,3.2-7.9-4.1
		C248.6,280.1,260.1,229.2,258.6,170.9z"/>
	<path class="st7" d="M376.4,330.8c0-0.4-0.1-0.7-0.3-0.9c3.3-3.6,2-11.6,2-16c0.2-26.5,0.1-53.1-0.2-79.6
		c-0.1-14.1-0.3-28.2-0.7-42.3c-0.1-4,0.4-8.8-0.5-12.6c-1.1-4.8-4.1-5.5-4.1-5.4c-4.4,4.4-7.9,94.2-7.7,137.9
		c0,4.9-1.6,15.3,2.7,18.8c0.1,2.8,0.3,5.6,0.6,8.3c0.2,2.3,1.3,2.7,3.6,2.6c1.6-0.1,4.3-0.2,4.7-2.1c0.3-1.3,0-2.9,0-4.2
		C376.5,333.8,376.5,332.3,376.4,330.8z"/>
	<g>
		<g>
			<path class="st8" d="M313.6,222c13.6-13.7,25.4-29.8,36.6-45.4c17.3-23.9,33.9-49.7,43.4-77.9c4.2-12.4,7-26.1,4.1-39.1
				c-0.6-2.5-4.4-1.4-3.9,1.1c2.5,11.5,0.1,23.5-3.3,34.5c-4.3,13.7-10.6,26.6-17.7,39.1c-13.4,23.8-29.6,46.2-46.9,67.4
				c-4.9,6-9.8,12-15.2,17.5C308.9,221,311.8,223.8,313.6,222L313.6,222z"/>
		</g>
		<g>
			<path class="st8" d="M395.2,62.1c7.7,1.2,14.3,5.2,18.6,11.8c2.2,3.4,3.6,7.3,4.3,11.3c0.4,2.3,0.5,4.5,0.5,6.8
				c0,1.1-0.5,2.6,0.4,3.6c1.1,1.4,3.8,1.2,5.4,1.5c4,0.7,7.9,1.9,11.5,3.9c4.8,2.6,8.6,6.6,10.9,11.6c1.5,3.3,2.1,6.9,2.5,10.5
				c0.3,2.8,0.6,5.1,2.6,7.2c4.4,4.8,11.9,5.1,16.2,9.9c3.6,4,5.2,13.5,2.1,18.2c-1.4,2.2-4.7,0.7-7.2,0.7c-3.7,0-7.4,0.5-11.1,1.1
				c-11.8,1.9-23.3,5.4-34.5,9.3c-2.4,0.8-1.4,4.7,1.1,3.9c11-3.8,22.3-7.2,33.8-9.1c4.2-0.7,8.6-1.4,12.9-1
				c2.2,0.2,4.3,1.2,6.3-0.1c4-2.5,4.3-9.6,4-13.6c-0.4-6.2-2.9-11.7-8.3-14.9c-3.2-1.9-6.8-3.1-10-5.1c-4.4-2.8-3.7-6.8-4.5-11.4
				c-1.2-6.2-4.1-12.1-8.8-16.4c-3.6-3.3-8-5.6-12.6-7.1c-2.9-0.9-6.6-0.8-9.3-2c-0.1-0.1-0.4,0-0.5-0.1c1.9,1.6,1.4-2,1.4-2.8
				c-0.1-2.1-0.3-4.2-0.8-6.3c-0.9-4.5-2.7-8.8-5.3-12.6c-4.8-6.9-12-11.4-20.3-12.6C393.8,57.9,392.7,61.7,395.2,62.1L395.2,62.1z"
				/>
		</g>
		<g>
			<path class="st8" d="M322.1,206.9c-24.4-13.7-44.2-35.8-60.8-58c-14.7-19.6-29.6-42-35.9-66c-2.2-8.3-1.2-16.1-0.6-24.6
				c0.1-1.1-1-2-2-2c-17-0.7-35,11.8-47.1,22.6c-5.3,4.7-10.9,10.2-13.5,16.8c-2.7,7,1.3,14.6,3.7,21.1c0.3,0.8,1.8,3.7,1.5,4.5
				c0.2-0.5-3.9,2.3-4,2.5c-2.9,2.9-4.6,6.7-4.9,10.8c-0.3,3.1,0.2,6.1,0.6,9.2c0.1,0.5,0.3,1.5,0.2,2c-0.4,1.4,2.1-1.3-1.1,0.8
				c-2,1.3-3.9,2.2-5.5,4c-3.6,3.9-5.5,12,0.5,14.9c3,1.4,7.9,0,11-0.3c23.7-1.6,48,4.8,66.9,19.5c2,1.6,4.9-1.2,2.8-2.8
				c-16.1-12.6-35.5-19.4-55.9-20.7c-6-0.4-12.1-0.3-18,0.4c-1.1,0.1-2.2,0.5-3.3,0.5c-4,0-4-4.1-2.4-6.9c1.3-2.4,3.6-3.8,5.9-5
				c1-0.6,1.9-0.7,2.5-1.7c1-1.6,0.4-3.9,0.2-5.6c-0.4-3.5-1-7.1,0-10.5c0.6-2.1,1.7-4,3.3-5.6c1.3-1.3,3.9-2,4.8-3.7
				c1-1.9-0.3-4.5-0.9-6.3c-1.4-3.8-2.9-7.6-4-11.5c-2.1-7.4,1.9-12.7,6.8-18C179.7,80,187.8,74,196.4,69c7.9-4.5,17.1-9,26.4-8.6
				c-0.7-0.7-1.3-1.3-2-2c-0.5,7.4-1.6,14.7-0.1,22.1c2.1,10.6,6.8,20.7,11.7,30.2c13.4,26.1,31.4,50.4,52,71.2
				c10.7,10.8,22.5,21,35.8,28.4C322.3,211.6,324.3,208.1,322.1,206.9L322.1,206.9z"/>
		</g>
		<g>
			<path class="st8" d="M163.7,164.6c18.3,18.8,41.4,32.3,65.6,42c23.9,9.6,49.7,15.9,75.6,16.6c32.4,0.9,66,0.9,96.7-11.1
				c10.9-4.2,21.2-9.9,30.4-17.3c5-4.1,9.6-8.7,13.7-13.8c3.7-4.6,8.9-10.1,7.9-16.4c-0.4-2.5-4.3-1.5-3.9,1.1
				c0.8,5.4-7.7,13.7-11.1,17.4c-3.6,3.9-7.5,7.4-11.7,10.6c-8.3,6.3-17.7,11.3-27.5,15c-17.3,6.6-35.9,9.5-54.3,10.4
				c-11.3,0.6-22.6,0-33.9,0.2c-24.4,0.4-48.8-4.9-71.7-13.1c-26.9-9.6-52.9-23.9-73-44.5C164.7,159.9,161.9,162.7,163.7,164.6
				L163.7,164.6z"/>
		</g>
		<g>
			<path class="st8" d="M331.5,221.9c22-8.9,39.9-25.2,54.2-43.8c13.5-17.6,24.5-37.7,31.4-58.9c2.6-7.9,4.9-16.3,4.9-24.8
				c0-1.9-3-1.9-3,0c-0.1,16.4-7.5,33.3-14.6,47.7c-10,20.3-23.2,39.4-39.8,54.8c-10,9.2-21.3,17-33.9,22.1
				C328.9,219.7,329.7,222.6,331.5,221.9L331.5,221.9z"/>
		</g>
		<g>
			<path class="st8" d="M236.2,189.2c14.9,15.7,37,25.1,56.8,33c2.4,1,3.4-2.9,1.1-3.9c-19.1-7.6-40.7-16.8-55-32
				C237.2,184.5,234.4,187.3,236.2,189.2L236.2,189.2z"/>
		</g>
		<g>
			<path class="st8" d="M340.5,222.4c13.8-2.4,26.2-12.6,36.9-20.9c5.7-4.4,11.3-9,16.9-13.5c4.2-3.4,8.4-7.1,13.2-9.7
				c1.7-0.9,0.2-3.5-1.5-2.6c-10.4,5.5-19.2,14.6-28.3,21.8c-11,8.6-23.8,19.4-37.9,21.9C337.8,219.9,338.7,222.8,340.5,222.4
				L340.5,222.4z"/>
		</g>
		<g>
			<path class="st8" d="M169.1,123.7c34.7,0.3,65.7,25.1,83.3,53.3c1,1.6,3.6,0.1,2.6-1.5c-18.2-29.2-50.1-54.5-85.9-54.8
				C167.1,120.6,167.1,123.6,169.1,123.7L169.1,123.7z"/>
		</g>
		<g>
			<path class="st8" d="M315.7,214.1c-7.1-1.4-13.7-6.5-19.5-10.5c-9.8-6.6-19.4-13.6-29.1-20.3c-21.5-14.8-44.4-29.8-69.8-36.7
				c-12.2-3.3-25.1-4.4-37.2-0.4c-1.8,0.6-1,3.5,0.8,2.9c23.7-7.7,49.5,3.7,70,15c22,12.1,42,27.3,62.7,41.3
				c6.4,4.3,13.6,9.9,21.3,11.5C316.8,217.4,317.6,214.5,315.7,214.1L315.7,214.1z"/>
		</g>
		<g>
			<path class="st8" d="M444.3,133.4c-4.1,1.2-8,3-11.6,5.4c-1.6,1.1-0.1,3.7,1.5,2.6c3.4-2.3,7-4,10.9-5.1
				C447,135.8,446.2,132.9,444.3,133.4L444.3,133.4z"/>
		</g>
		<g>
			<path class="st8" d="M444.2,128.5c-3.7,0.1-7,1.5-9.8,3.9c-1.5,1.3,0.7,3.4,2.1,2.1c2.2-1.9,4.8-2.9,7.7-3
				C446.1,131.5,446.1,128.5,444.2,128.5L444.2,128.5z"/>
		</g>
		<g>
			<path class="st8" d="M170,101.4c7.5-0.1,14.3,1.9,20.5,6.1c1.6,1.1,3.1-1.5,1.5-2.6c-6.6-4.5-14.1-6.7-22-6.5
				C168.1,98.4,168.1,101.4,170,101.4L170,101.4z"/>
		</g>
		<g>
			<path class="st8" d="M181.8,96.9c6.5,2.3,12,6.2,16.6,11.3c1.3,1.4,3.4-0.7,2.1-2.1c-4.9-5.5-11-9.6-17.9-12.1
				C180.8,93.3,180,96.2,181.8,96.9L181.8,96.9z"/>
		</g>
	</g>
	<path class="st7" d="M262.7,178.3c-0.1,0.2-0.1,0.4-0.1,0.6c0.8,36.9-4.2,73.4-5.9,110.2c-0.4,8-0.5,16-0.2,24
		c0.2,4.8-0.7,13.2,2.6,17.3c0,0.2-0.1,0.3,0,0.5c0.3,2.3,0.3,4.7,0.3,7c0,1.5-0.1,3,1.7,3.3c1.2,0.2,3.5,0.7,4.6,0
		c1.2-0.7,0.9-2.8,1-3.9c0.2-1.9,0.4-3.9,0.6-5.8c0-0.1,0-0.1,0-0.2l0,0c1.1-1.4,0.7-3.9,0.7-5.5c1.3-38.9,9.6-130.6,0.3-149.6
		C267.4,174.4,263.5,175,262.7,178.3z"/>
	<g>
		<polygon class="st0" points="375,328.2 375.4,337.7 380.4,337.2 379.5,327.2 		"/>
		<path class="st0" d="M374.1,173.3c-0.1-2.9,6.3-4.3,6.5-1.4c1.6,23,1.9,137.9,1.2,151.9c-0.2,4.8-9.7,5.1-10,0.3
			C370.4,295,374.1,173.3,374.1,173.3z"/>
		<path class="st0" d="M258.6,170.9c-0.1-2.1,2.7-3.6,4.7-2.7c7.8,13.8-2.4,143.2-2.2,159.2c0,2.5-7.2,3.2-7.9-4.1
			C248.6,280.1,260.1,229.2,258.6,170.9z"/>
	</g>
	<g>
		<g>
			<path class="st8" d="M375.5,174.6c0.1-0.9,2.7-2.6,3.6-1.4c0.2,0.2,0,0.8,0.1,1.1c0.2,0.6,0.1,1.6,0.1,2.2
				c0.1,1.8,0.2,3.7,0.2,5.5c0.2,4.6,0.3,9.3,0.4,13.9c0.3,12.2,0.4,24.3,0.5,36.5c0.2,24.8,0.3,49.7,0.2,74.5
				c0,3.9-0.1,7.8-0.1,11.6c-0.1,3.1,0.8,8.3-3.6,8.3c-5,0.1-3.7-8-3.7-11.6c-0.1-4.6-0.1-9.3-0.1-13.9c0.1-25.5,0.6-51,1.2-76.5
				c0.4-16.9,0.8-33.9,1.4-50.8c0.1-1.9-2.9-1.9-3,0c-1.4,44.8-2.8,89.8-2.6,134.6c0,6.4-2.8,22.4,7.7,21c8-1,5.8-12.6,5.8-18.4
				c0.2-27.3,0.1-54.6-0.2-81.8c-0.1-14.4-0.3-28.8-0.7-43.3c-0.1-4.3,0.2-8.9-0.5-13.2c-0.9-5.2-8.7-4.3-9.5,0.6
				C372.3,175.7,375.2,176.5,375.5,174.6z"/>
		</g>
		<path class="st8" d="M260,172.2c0.2-1.1,1.7-2.1,2.3-1.6c0.2,0.2,0.3,0.9,0.4,1.1c0.4,0.9,0.5,2,0.6,2.9c0.5,2.7,0.7,5.5,0.9,8.2
			c0.5,7.7,0.6,15.5,0.5,23.2c-0.1,20-1,40-2,60c-0.9,17-1.9,34-2.7,50.9c-0.1,2.5-0.2,5-0.3,7.5c0,0.7,0.1,1.7-0.1,2.5
			c-0.6,2.1-2.7,1.9-4.1-0.3c-1.8-2.5-1.3-7.5-1.5-10.5c-0.2-3.7-0.3-7.4-0.4-11.2c-0.1-7.2,0.2-14.5,0.5-21.7
			c1.9-37.2,6.9-74.1,6-111.4c0-1.9-3-1.9-3,0c0.9,38.1-4.3,75.8-6.1,113.8c-0.4,8.2-0.6,16.4-0.3,24.6c0.2,5.3-0.9,14.5,2.8,18.9
			c1.8,2.1,6.2,3.6,8.3,1c1.2-1.4,0.8-3.9,0.8-5.6c1.3-40.3,5-80.5,5.1-120.8c0-9.1,0-18.2-1.1-27.2c-0.3-2.3-0.5-5.2-1.6-7.2
			c-2-3.7-7.1-1.4-7.8,2.2C256.8,173.3,259.6,174.1,260,172.2z"/>
		<path class="st8" d="M372.8,328.8c0.1,2.9,0.3,5.8,0.6,8.7c0.2,2.4,1.3,2.8,3.6,2.7c1.6-0.1,4.4-0.2,4.8-2.1c0.3-1.3,0-2.9,0-4.3
			c0-1.6-0.1-3.1-0.1-4.7c-0.1-1.9-3.1-1.9-3,0c0,1.4,0.1,2.8,0.1,4.3c0,1.3,0.3,2.9,0,4.2c0.2-0.3,0.5-0.6,0.7-0.9
			c-1,0.6-3,0.8-4.1,0.5c0.3,0.3,0.7,0.7,1,1c-0.5-1.3-0.4-3.3-0.5-4.6c-0.1-1.6-0.2-3.1-0.3-4.7
			C375.7,326.8,372.7,326.8,372.8,328.8L372.8,328.8z"/>
		<path class="st8" d="M253.4,329.7c0.3,2.4,0.3,4.9,0.3,7.3c0,1.5-0.2,3.1,1.7,3.3c1.2,0.2,3.6,0.7,4.7,0c1.2-0.7,0.9-2.8,1-4
			c0.2-2,0.4-4,0.7-6c0.2-1.9-2.8-1.9-3,0c-0.2,1.4-0.4,2.8-0.5,4.2c-0.1,1.3,0,2.8-0.4,4.1c0.3-0.3,0.7-0.7,1-1
			c0.5-0.1-0.4,0-0.6-0.1c-0.4,0-0.7,0-1.1-0.1c-0.4,0-0.7-0.1-1.1-0.1c-0.1,0-1.1-0.1-0.6,0c0.3,0.3,0.7,0.7,1,1
			c0.2,0.5,0-0.6,0-0.9c0-0.8,0-1.6,0-2.4c0-1.8-0.1-3.6-0.3-5.4C256.1,327.8,253.1,327.7,253.4,329.7L253.4,329.7z"/>
	</g>
</g>
</svg>
