<?xml version="1.0" encoding="utf-8"?>
<!-- Generator: Adobe Illustrator 19.2.0, SVG Export Plug-In . SVG Version: 6.00 Build 0)  -->
<svg version="1.1" id="Layer_1" xmlns="http://www.w3.org/2000/svg" xmlns:xlink="http://www.w3.org/1999/xlink" x="0px" y="0px"
	 viewBox="0 0 323 353" style="enable-background:new 0 0 323 353;" xml:space="preserve">
<style type="text/css">
	.st0{fill:#C47546;}
	.st1{fill:#814927;}
	.st2{fill:#3A291D;}
</style>
<g>
	<g>
		<path class="st0" d="M271.9,54.6c-7.9,19-40.6,43.4-48.4,45.2c-1.4,0.3-20.8-10.1-29.2-14.4c-1.8-0.9-8.1-1.8-9.6-0.6
			c-10.6,8.9-22.4,9.3-32.4,4.5c-4.4-2.1-8.9-5.3-13.7-4.4c-1.5,0.3-15.3,7.5-20.8,10.4c-4.2,2.2-10.1,3.8-14.7,2.3
			C95.9,95.2,51.6,53.1,45.5,23l-1.2-2.1c0.1,5.2,0.2,9.9,0.5,14c1.1,17.4,10.8,90.5,16.6,98.1c2.7,3.6,58.7,56.9,70.1,61.3
			c15,5.7,60.5,1.9,66.6-0.1c9.6-3.1,63.8-65.9,67.1-70.8c3.5-5.3,13.4-63.5,14.8-80.9l0.9-13.8C280,42.5,275.4,46.1,271.9,54.6z
			 M216.7,138.5c-0.3,1.4-0.6,2.9-1.6,3.9c-1,1.1-2.6,1.5-4,1.8c-10.6,2.4-21.6,3.3-32.5,2.6c0-3.3,0.7-4.4,0-7.6
			c-0.8-3.3-3.7-2.2-6.7-2.1c-7.5,0.2-14.9,0.3-22.4,0.5h-0.1c0.4,4.5,0.4,6-0.1,10.4c-10,0.6-21.2-1.9-30.7-5.2
			c-1.1-0.4-2.4-0.9-3.1-1.9c-0.5-0.7-0.7-1.7-0.9-2.6c-1.7-9.4-3.3-23.4,1.1-31.9c0.3-0.7,0.7-1.3,1.3-1.7c0.8-0.5,1.7-0.4,2.6-0.3
			c3,0.3,6,0.8,9,1.2c25.5,3.4,57.3,3.2,82.8-0.5c0.7-0.1,1.5-0.2,2.1,0.2c0.5,0.3,0.8,0.8,1,1.4
			C219.3,116.3,218.8,127.8,216.7,138.5z"/>
	</g>
	<g>
		<path class="st1" d="M77.2,147.5L77.2,147.5l50.9,43.9c1.4,0.9,2.6,1.6,3.5,1.9c15,5.7,60.5,1.9,66.6-0.1c0.7-0.2,1.7-0.8,2.9-1.7
			c1.8-3,1.5-8.3-1.1-10.4c-5.8-4.8-61.1-2.4-69.4,0c-3,0.9-7-4.4-7.8-5.7c-12.2-20.4-23.7-50.5-25.3-55.3
			C94,109.2,89.7,94.4,83,79.6C67.6,63.7,49.2,40.4,45.5,22l-0.9-1.6c0,0.2-0.1,0.4-0.1,0.6c-0.2,1.3,2.7,31.2,3.6,33.3
			c0.9,2.1,4.7,40.4,4.7,40.4s8,35.6,8.6,37.4C62.3,133.2,68.6,139.4,77.2,147.5z"/>
		<path class="st1" d="M152.2,88.4c-2.9-1.4-5.8-3.2-8.8-4.1c5.3,13.6,22.9,34.3,40.8-0.1C173.7,92.8,162.1,93.1,152.2,88.4z"/>
		<path class="st1" d="M178.5,144.4c0.1-2.3,0.5-3.5-0.1-6.2c-0.8-3.3-3.7-2.2-6.7-2.1c-7.1,0.2-14.3,0.3-21.4,0.5
			c-0.3,0.6-0.6,1.3-0.9,2c0.2,2.1,0.2,3.6,0,5.5C153.3,146.3,171.1,147.7,178.5,144.4z"/>
		<path class="st1" d="M222.4,122.2c2-3.7-0.3-10.9-2.9-15.3c-2-3.3-3.6-2.8-4.8-2c3,6.3,3.9,13.3,3.5,20.3
			C219.8,124.8,221.5,123.8,222.4,122.2z"/>
	</g>
	<g>
		<path class="st2" d="M270.6,53.9c-4.2,9.7-11.9,17.7-19.6,24.8c-7,6.5-14.7,12.8-23.1,17.5c-2.8,1.6-4,2.4-6.9,1.2
			c-4.1-1.8-8-3.9-12-6c-6.5-3.4-15.8-10.7-23.7-8.4c-2.4,0.7-4.1,2.8-6.3,4c-3.5,2-7.4,3.4-11.5,3.8c-7.4,0.6-13.2-2.3-19.7-5.4
			c-3.8-1.8-7.5-2.8-11.4-1.2c-4.1,1.7-8,3.9-11.9,5.9c-8,4.2-16.8,9.7-25,3.4C93.2,88.7,87.5,83,82,77.2
			c-8.5-9-16.5-18.6-23.2-28.9c-3.3-5-6.3-10.3-8.6-15.8c-1.7-4.1-2.3-8.6-4.5-12.5c-0.7-1.3-2.8-0.7-2.8,0.8
			c0.2,18.5,2.7,36.7,5.2,55c2.5,17.5,4.4,35.8,9.8,52.7c1.1,3.5,2.5,5.7,5.1,8.3c4.8,4.9,9.8,9.6,14.8,14.3
			c13.4,12.6,26.9,25.2,41.4,36.6c4.1,3.2,8.3,6.9,13.3,8.4c8.7,2.8,18.6,2.6,27.7,2.6c9.9-0.1,19.7-0.6,29.5-1.7
			c4.5-0.5,8.8-0.8,12.5-3.6c12.6-9.3,23.2-22.2,33.6-33.8c10-11,20-22,29.2-33.7c2.4-3.1,3.3-6.7,4.2-10.5c2.2-9,3.9-18.1,5.5-27.2
			c2.9-16.5,5.9-33.2,7-50c0.2-3.3,0.4-6.5,0.7-9.8c0.1-1.9-2.8-1.9-3,0c-0.4,5.3-1.5,10.4-3.8,15.2C274,47.2,272.1,50.4,270.6,53.9
			c-0.8,1.8,1.8,3.3,2.6,1.5c1.8-4.1,4.2-7.9,6-12c2-4.7,2.9-9.6,3.3-14.7c-1,0-2,0-3,0c-1,14.5-2.6,28.7-4.9,43
			c-1.6,9.8-3.3,19.6-5.2,29.4c-1.3,6.5-2.2,13.9-4.8,20.1c-1.3,3.1-4,5.7-6.1,8.2c-4.9,5.8-9.8,11.5-14.8,17.2
			c-11.4,12.9-22.9,25.8-35.3,37.7c-3.1,3-6.8,7.2-11,8.7c-6.5,2.2-14.6,2-21.4,2.4c-10.3,0.6-20.7,0.9-31,0
			c-6.5-0.5-12.3-1.5-17.8-5.3c-13.8-9.5-26.2-21.5-38.5-32.9c-6-5.5-11.9-11-17.7-16.7c-2.7-2.6-6.3-5.4-8.5-8.6
			c-2.8-4.3-3.5-10.7-4.6-15.6c-1.9-9.1-3.4-18.2-4.9-27.4c-2.6-17-5.1-34.2-6.5-51.4c-0.5-5.6-0.6-11.1-0.7-16.7
			c-0.9,0.3-1.9,0.5-2.8,0.8c2.1,3.7,2.7,8.2,4.3,12.1c2,4.9,4.6,9.5,7.4,14c5.9,9.6,13,18.4,20.5,26.8c6.2,6.9,12.8,13.6,20,19.6
			c5.6,4.6,10.3,6.9,17.9,4.7c4.9-1.4,9.4-4.3,13.9-6.6c3.6-1.9,8.2-5.3,12.3-5.8c4.4-0.6,8.3,2.5,12.1,4.2c2.7,1.3,5.6,2.3,8.5,2.8
			c5.7,1,11.5,0.3,16.8-1.9c2.8-1.2,5-2.9,7.6-4.5c3.2-1.9,6.7-1.4,10,0.1c4.7,2.1,9.1,4.8,13.7,7.1c4.1,2.1,8.2,4.3,12.4,6.1
			c2.1,0.9,3.1,1.1,5.3,0.3c9-3.5,17.3-10.9,24.5-17.2c8.9-7.9,18.2-17,23-28.1C273.9,53.6,271.4,52.1,270.6,53.9z"/>
		<path class="st2" d="M215.2,138.1c-1.5,6.5-13.2,6.4-18.5,6.9c-6.1,0.6-12.2,0.6-18.3,0.2c0.5,0.5,1,1,1.5,1.5
			c0.1-4.1,1.5-10.6-4-11.4c-3.6-0.5-8,0.3-11.6,0.3c-4.4,0.1-10.3,1.3-14.6,0.4c-0.9-0.2-2,0.4-1.9,1.4c0.3,3.6,0.3,6.9-0.1,10.4
			c0.5-0.5,1-1,1.5-1.5c-8.6,0.3-17.2-1.1-25.4-3.6c-1.4-0.4-3.6-0.8-4.9-1.6c-3.2-1.8-3.2-4.5-3.6-7.4c-0.5-3.4-0.9-6.8-1-10.3
			c-0.1-3.9,0-7.9,0.9-11.7c0.5-2.2,0.9-4.3,3-5.4c2.5-1.3,5.5-0.1,8.1,0.2c7,1,14,1.7,21,2.1c15.6,1,31.3,0.8,46.8-0.4
			c3.6-0.3,7.2-0.6,10.8-1.1c1.6-0.2,3.6-0.7,5.2-0.7c3.4,0.1,3.8,2,4.8,5C217.6,120.2,216.8,129.4,215.2,138.1
			c-0.4,1.9,2.5,2.7,2.9,0.8c1.3-7,2.1-14.2,1.1-21.4c-0.5-3.9-1.6-13.1-6.5-14.1c-2.9-0.6-6.6,0.7-9.5,1.1
			c-4.2,0.5-8.4,0.9-12.5,1.1c-8.1,0.6-16.2,0.8-24.4,0.8c-8.1,0-16.1-0.3-24.1-1c-3.8-0.3-7.6-0.7-11.4-1.2
			c-3.8-0.5-8.1-1.7-12-1.5c-5.3,0.3-6.4,6.9-7.1,11.2c-1,6.4-0.5,12.9,0.4,19.2c0.4,2.7,0.3,6.5,2.2,8.7c1.8,2.2,5.3,2.8,7.8,3.6
			c8.8,2.7,17.9,4.3,27.1,4c0.9,0,1.4-0.7,1.5-1.5c0.4-3.6,0.5-6.9,0.1-10.4c-0.6,0.5-1.3,1-1.9,1.4c2.4,0.5,5.5,0,8-0.1
			c3.4-0.1,6.8-0.2,10.3-0.2c2.1,0,6.3-1,8.3-0.3c3,1,1.6,6.1,1.6,8.4c0,0.8,0.7,1.5,1.5,1.5c8.5,0.5,17,0.2,25.4-1.1
			c6.2-1,12.7-1.2,14.3-8.2C218.5,137,215.6,136.2,215.2,138.1z"/>
	</g>
</g>
</svg>
