<?xml version="1.0" encoding="utf-8"?>
<!-- Generator: Adobe Illustrator 19.2.0, SVG Export Plug-In . SVG Version: 6.00 Build 0)  -->
<svg version="1.1" id="Layer_1" xmlns="http://www.w3.org/2000/svg" xmlns:xlink="http://www.w3.org/1999/xlink" x="0px" y="0px"
	 viewBox="0 0 739.6 909.9" style="enable-background:new 0 0 739.6 909.9;" xml:space="preserve">
<style type="text/css">
	.st0{fill:#C47546;}
	.st1{fill:#814927;}
	.st2{fill:#3A291D;}
</style>
<g>
	<g>
		<path class="st0" d="M359.6,542.1l-0.2-0.1l0-0.1l-0.1-0.2l0-0.2l-0.1-0.4c-2.1-8.1-10-9.4-16.4-10.4l-1-0.2
			c-4.4-0.7-8.3-2.4-12.1-5.2l-0.8-0.6l-0.6,0.2c-0.4-0.4-0.7-0.8-1.1-1.3c-1.8-2-3.8-4.3-6.6-5.4c-1.2-0.5-2.5-0.8-3.7-1.2
			c-1.4-0.4-2.8-0.8-4.1-1.4c-0.9-0.4-1.9-1-2.8-1.6l-0.3-0.2l-0.2,0l-0.1-0.2l-0.4-0.3c-2.5-2-4.4-4.6-6-7.1l0.5-0.2l0.3-0.5
			c0,0,0,0,0,0c0-1.5-0.7-3.1-0.6-4.8l-0.2-1.5l-1.3-0.4l-0.2-0.4l-0.5-0.4c-2.3-1.7-4.1-3.9-5.3-6.6l-0.5-1.2l-1.1,0
			c-1.6-1.5-3-3.1-4.1-4.9c-0.4-0.7-0.9-1.5-1.3-2.3c-0.6-1.1-1.1-2.1-1.8-3.2l-1.2-1.8l-1,0.8c-1.2-5.7-3-9.7-5.9-13.7
			c-2.1-2.8-2.7-5.4-3.5-9.4c-0.8-4.1-2.5-6.5-6.1-8.6c-0.4-0.2-0.8-0.4-1.2-0.6c-0.6-0.3-1.1-0.5-1.4-0.8c-1.5-1.4-2.2-4.1-2.9-6.5
			c-0.2-0.7-0.4-1.5-0.6-2.1l-0.6-1.7c-1.2-3.9-2.5-7.9-2.9-11.9c-0.2-2.1-0.1-4.3-0.1-6.5c0.1-2.3,0.1-4.7-0.1-7.2
			c-0.2-2-0.6-3.8-1.1-5.5c-0.6-2.3-1.1-4.5-1-7.1c0.3-4.2,0.7-8.9,1.4-14.1l0.1-0.1l0.3,0.1l0.1,0c0.9,3,1.3,6,1.7,9.2l0.1,0.6
			c0.1,0.4,0.1,0.8,0.2,1.2c0.5,3.7,1.1,8.8,4.4,10.8c1,0.6,2,0.9,2.9,1.1c1,0.3,1.7,0.5,2.3,1c0.8,0.8,1.4,2,1.9,3.2
			c0.4,1,0.9,2,1.5,2.9c0.7,1.1,1.5,2.1,2.2,3c1.2,1.6,2.4,3.1,3.2,4.8c0.6,1.2,1.1,2.4,1.6,3.7c0.5,1.3,1,2.6,1.7,3.9
			c0.3,0.5,0.5,1.1,0.7,1.6c1.2,2.6,2.4,5.3,6,6.6c2.4,0.9,4.9,1.4,7.3,2c1,0.2,2,0.5,3,0.7l2.2,0.5l0.3-2.2c0.2-2,1.1-3.8,2.4-5.1
			l2.4,0.4l-0.4-2.6c-0.2-1.8-0.2-3.6-0.1-5.4l0.1-1l-0.5-0.4c3.9-7.2,11.3-12.5,18-17.2l0.8-0.5c1.6-1.1,3.2-1.3,5.1-1.6
			c1.7-0.2,3.4-0.5,5.2-1.3c1.5-0.7,2.9-1.6,4.3-2.4c2.2-1.4,4.3-2.7,6.6-3.1c5.1-1,9.5-1.5,13.8-1.5c0.8,0,1.5,0,2.3,0l0.5,0
			l0.1-0.1l0.1,0l0.4,0c2,0.1,3.9,0.3,5.9,0.7c1.6,0.3,3.3,0.4,5.1,0.4c2,0,3.9-0.2,5.8-0.3c1.9-0.1,3.8-0.3,5.8-0.3l0.5,0l0.5,0.3
			l0.7-0.1c3.4,0.3,6,1.3,9.1,2.9c2.5,1.3,5.1,1.9,7.5,2.5c1.8,0.4,3.5,0.8,5.1,1.5c1.7,0.7,3.4,1.6,5.1,2.6c1.9,1,3.8,2.1,5.9,2.9
			c1,0.4,2,0.7,2.9,0.9c2.1,0.6,4,1.2,5.7,2.5c1.9,1.5,3.3,3.4,4.2,5.6c0.4,1,0.5,1.9,0.7,3c0.1,0.8,0.2,1.6,0.4,2.6
			c0.5,2.1,1.5,3.4,2.4,4.8c0.3,0.4,0.6,0.9,0.9,1.4c1.3,2.1,2.1,4.5,2.9,7c0.2,0.7,0.4,1.3,0.7,2c1.7,4.8,3.7,9.5,6.1,14.6l1.2,2.5
			l2-2c2.7-2.7,4.6-6.4,6.4-9.7c0.5-0.9,0.9-1.7,1.3-2.5c0.4-0.8,0.9-1.6,1.4-2.4c1.9-3.3,3.9-6.8,5-10.4l0.2-0.6l0-0.1l0.5-0.4
			l0-0.9c0-1.4,0.3-2.8,0.6-4.3c0.3-1.6,0.6-3.2,0.6-4.8c0.1,0.1,1.7,1.4,1.7,1.4l1.3-1.4c2.1-2.4,3.1-5.1,4.1-7.8l0.3-0.9l-0.1-0.2
			l0.2-0.1l0.4-1.1c0.5-1.3,1.1-2.6,1.8-3.9c0.9-1.8,1.7-3.6,2.4-5.6c0.6-1.6,1.2-3.4,1.8-5.5l0.2-0.6l-0.1-0.4l0.3-0.2l0.2-0.6
			c1-3.3,1.9-6.6,2.8-9.8l0.6-2.1c0.8,6.3,1.3,12.6,1.4,18.5l0,0.5l0.1,0.2l0,0.1l-0.1,0.5c0,0.9,0,1.9,0,2.8c0,2.6-0.1,5.2-0.7,7.7
			c-0.2,1.1-0.5,2.1-0.8,3.1c-0.7,2.6-1.5,5.3-1.4,8.3l-0.6,0.6l0.3,1.2c0.4,1.7,0.7,3.4,0.6,5l0,0.5l0.1,0.2l-0.1,0.1l0,0.2l-0.4,0
			l-0.6,0.6c-1.3,1.2-2.4,2.4-3.3,3.7l-0.7,0.5l-0.1,0.9c-0.1,0.7-0.2,1.3-0.5,1.7l-0.4,0.3l-0.2,0.4c-0.1,0.3-0.2,0.6-0.3,0.9
			c0,0.1-0.1,0.2-0.1,0.3l-1.8,4.2l-1.1,0.7l0.4,1.2c0.3,1,0.6,1.7,0.8,2.7h-0.8l-0.6,1.3c-0.4,0.8-0.9,1.8-1.3,2.6
			c-0.4,0.6-0.7,1.2-0.9,1.6c-2.7,5.5-4.8,9.7-6.9,13.6c-1,1.9-2.6,3.5-4.4,5.2c-0.9,0.9-1.9,1.8-2.7,2.8c-0.6,0.7-1.2,1.4-1.9,2.1
			c-2.8,3.2-5.8,6.4-8,10l-0.4,0.6l0.1,0.7c0.3,2.5,0.2,4.6-0.4,6.3l-0.6-0.4l-1.2,0.7c-2.5,1.6-4.5,2.9-7.1,3l-1.1-0.2l-0.7,0.8
			c-0.7,0.7-1.6,1.3-2.6,1.8l-0.3,0.2c-0.7,0.3-1.4,0.7-2,0.8l-1.7,0.2l0,1.7c0,5.1-1.5,9.8-4.2,13.5l-0.4-0.1l-0.5,0.2l-2.7,0.3
			l0.4,0.8c-0.3,0.1-0.6,0.3-0.9,0.4c-0.9,0.3-1.9,0.6-3,0.8l-1.3,0.2l-0.3,1.3c-0.2,0.5-1.2,0.9-2.1,1.2c-0.3,0.1-0.5,0.2-0.8,0.3
			c-1.6,0.7-3.2,1-4.7,1c-0.2,0-0.4,0-0.7,0l-1.5-0.4l-0.7,1.4c-1.2,2.4-2.7,4.7-4.3,6.9l-1.1-0.1l-0.4,1.5c-0.6,1.9-1.3,3.7-2,5.6
			l-0.9,0c-3.8,0-7.6-0.4-11.2-1.1l-1.4-0.3l-0.7,1.2c-0.2,0.3-0.4,0.7-0.6,1l-0.2,0c-0.7,0.1-1.5,0.2-2.2,0.2
			c-0.9,0-1.7-0.1-2.6-0.2l-1.7-0.3l-1,2.8l0.1,0.3l-2,0.2c-4.8,0.6-9.8,1.3-14.8,1.4L359.6,542.1z M395.1,480.7l0.8,1.3l1.3-0.4
			c1.5,0.2,2.8,0.3,4.1,0.3c3.3,0,5.8-1,8.3-3.1c0.2-0.2,0.4-0.3,0.5-0.5l0.4-0.3l0.1-0.1l0.1-0.1l0.5-0.5c1-1,2-1.9,3.1-2.6l0.1,0
			l0.4-0.3l0.1-0.1l0.2,0l0.4-0.3c1.7-1.1,3.5-2.1,5.2-3.1c2.8-1.6,5.7-3.3,8.4-5.3l1.2-0.9l-0.4-1.4c-0.8-2.4-2.3-4.3-3.8-6.2
			c-1.4-1.8-2.7-3.5-3.3-5.5c-0.5-1.7-0.8-3.7-0.9-6.2c0-0.5,0-1,0-1.5c0.1-1.6,0.2-3.5-1.3-4.9c-1.7-1.5-4.5-2.3-7-2.9
			c-0.7-0.2-1.4-0.4-2-0.6c-3.9-1.3-7.9-2.4-10.8-3.3c-2.4-0.7-4.9-1.3-7.3-2c-3.1-0.8-6.4-1.7-9.5-2.6c-1.6-0.5-3.1-1.2-4.8-1.9
			c-2.1-1-4.4-2-6.8-2.5c-1.2-0.3-2.6-0.4-3.9-0.4c-4.7,0-10,1.6-14.6,4.5l0,0l-0.3,0c-0.2,0-0.4,0-0.7,0c-1.4,0-2.8,0.1-4.1,0.2
			c-1.3,0.1-2.6,0.2-3.8,0.2c-0.2,0-0.5,0-0.7,0l-0.9,0c-0.8,0-1.6-0.1-2.4-0.1c-1.7,0-3.9,0.1-6.2,0.9l-0.6,0.2l-0.2,0.3
			c-3,0.9-5.8,2.1-8.5,3.7l-0.7,0.4l-0.3,0.6c-0.6,1.4-1.5,2.6-2.7,3.7l-2.5,2.3l2.5,0.8c-0.5,0.9-1,1.9-1.5,2.8
			c-0.9,1.8-1.8,3.5-3,4.9l-1.3,1.5l1.2,1l-0.1,0.4l0.3,0.5l-3.5,4.3l2.4,1.1c0.7,0.3,1.4,0.7,2,1l0,0.4l0.5,0.6
			c3.3,7.2,8.7,10.5,13.6,12.7l0.2,0.1l0.1,0l0.1,0.1l0.2,0.1c0.7,0.3,1.4,0.6,2.1,0.9l0.2,0.1c1.2,0.5,2.4,1,3.6,1.4l1,0.4l0.3-0.2
			l0.1,0.4l1.1,0.4c4,1.4,7.3,2,10.7,2c0.4,0,0.9,0,1.3,0l2.5,0.7l-0.1-2.7c-0.3-9.6,0.2-17.5,1.9-24.7l0,0c4.2-1.7,9.2-2,13.9-2
			l1,0c0.6,0,1.2,0,1.9,0c0.7,0,1.5,0,2.4,0c1,0,3.9,0,5.3,0.8c1.3,0.8,2.1,4.7,2.5,6.8c0.2,0.8,0.3,1.5,0.4,2.1
			c1.7,6.5,3,13.4,4.1,20.5l0.4,2.4l2.3-0.8c0.9-0.3,1.7-0.6,2.4-0.9l0,0.2l0.7,0.6L395.1,480.7z"/>
		<path class="st0" d="M473.8,445.9C473.9,445.7,473.8,445.7,473.8,445.9L473.8,445.9z"/>
	</g>
	<g>
		<path class="st1" d="M483.5,387.5c0.3,0.2,0.7,0.4,1.1,0.6c0.2,2,0.3,4,0.3,6c-0.8-0.9-1.7-1.8-2.6-2.5
			C482.7,390.2,483.1,388.9,483.5,387.5z"/>
		<path class="st1" d="M346.5,477.8c-8.2,8.1-13.7,19-16.7,30.5c1-11.4,4.4-22.5,10.7-32.1C342.4,476.9,344.4,477.5,346.5,477.8z"/>
		<path class="st1" d="M316.7,413.7c2.1-1.8,4.4-3.4,6.6-4.9c-1.1,3-1.7,6.4-2,8.2c-0.8,5.1-2,12.8,2.1,16.8
			c-0.6,1.2-1.5,2.3-2.5,3.2c-6.2-6.1-6.2-13.5-4.1-22.2C316.9,414.4,316.8,414,316.7,413.7z"/>
		<path class="st1" d="M386.3,397.9c4,5.5,5.3,12,5.1,18.8c-0.1,3.2-0.3,8.3-2.3,11.2c-2-0.6-3.8-1.2-5.7-1.9
			c1.7-6.1,2.6-12.4,2.3-18.8c-0.2-2.9-0.2-6.8-1.8-9.4c0.8-0.1,1.5-0.1,2.3-0.1C386.1,397.8,386.2,397.9,386.3,397.9z"/>
		<path class="st1" d="M439.8,436.4c-0.3,0.2-0.5,0.6-0.5,1.1c0.4,7.5-6.9,15.2-12.1,19.9c-0.5-0.6-0.9-1.2-1.4-1.8
			c-0.4-0.7-0.8-1.3-1.2-2c3.7-3.6,6.5-7.8,8.8-12.3c1.6-3.1,3.3-6.3,4-9.7c0.3,0.5,0.7,1.1,0.9,1.7
			C438.9,434.2,439.4,435.3,439.8,436.4z"/>
		<path class="st1" d="M430.6,415.3c0.4,0.5,0.7,1,1,1.5c0.2,8.1-3.3,15.4-9.7,20.2c-0.1,0-0.2,0.1-0.2,0.1
			c-0.3,0.2-0.6,0.4-0.9,0.6c-0.7-0.3-1.3-0.6-2-1c6.1-6.8,8.5-16.1,6.5-25C427.2,412.5,429,413.5,430.6,415.3z"/>
		<path class="st1" d="M411.8,405.8c2.2,3.6,2.2,8.8,2.1,12.8c-0.1,4.7-0.6,10.9-4.4,14.3c-0.1,0.1-0.2,0.2-0.3,0.3
			c-2.4-0.7-4.8-1.4-7.2-2c4.3-7.8,4.5-19.9,0.5-28.1c2.1,0.4,4.3,0.7,6.4,1.4C409.9,404.9,410.8,405.3,411.8,405.8z"/>
		<path class="st1" d="M361.2,396.8c-2,5-2.7,10.1-2.7,15.5c0,2.9,0.1,7.8,2.1,10.7c-2.2,0.7-4.3,1.7-6.4,2.9
			c-5.6-7.3-3.2-21.6,2.2-28.3c0.2-0.2,0.3-0.5,0.3-0.7C358.2,396.9,359.7,396.8,361.2,396.8z"/>
		<path class="st1" d="M343.7,400.1c-3.1,4.1-5.2,8.9-6,14.2c-0.6,4.1-1.1,9,1.4,12.3c-1.6,0.1-3.2,0.4-4.8,1
			c-2.9-0.2-2.4-10.1-2.2-11.6c0.4-3.7,0.8-9.1,3.9-11.6c0.1-0.1,0.1-0.1,0.2-0.2c0.4-0.2,0.7-0.4,1.1-0.6
			C339.5,402.2,341.5,401,343.7,400.1z"/>
		<path class="st1" d="M305.6,433.9c1.4,6.7,5.2,12.6,10.8,17.5c-0.5,0.6-1,1.3-1.5,1.9c-4.6-3-10.1-8.9-10.7-14.4
			c0-0.4-0.2-0.8-0.5-1C303.9,436.4,304.5,435,305.6,433.9z"/>
		<path class="st1" d="M292.7,439.1c-6.9,3.4-13,11.2-16,18.4c-0.1-0.4-0.1-0.7-0.2-1.1c-0.4-2.3-1-4.7-2.3-6.7
			c0.4-2.6,2.2-5.2,3.6-7.1c2-2.7,4.7-5.8,8.2-6.2c0.5,0.5,1.1,1,1.9,1.3C289.5,438.3,291.1,438.7,292.7,439.1z"/>
		<path class="st1" d="M259,392.4c0.3-0.1,0.6-0.2,0.8-0.4c0.1,1.1,0.3,2.2,0.4,3.2c-0.3,0.1-0.6,0.3-0.8,0.6
			c-0.3,0.5-0.6,1-0.9,1.5C258.7,395.6,258.8,394,259,392.4z"/>
		<path class="st1" d="M263.5,404.7c-1.2,1.1-2.3,2.4-3.1,3.9c-0.4-2.2-1-4.2-1.4-6.3c0,0,0,0,0-0.1c0.6-1.1,1.3-2.1,1.9-3.2
			c0.5,1.9,1.2,3.7,2.2,5.3C263.3,404.5,263.4,404.6,263.5,404.7z"/>
		<path class="st1" d="M264.8,439c-0.9-2.9-2-5.9-2.8-8.9c2.7-6.8,5.8-13.3,9.6-19.5c1.1,1.6,2,3.3,3.3,5.1c0.7,1,1.4,2,2,3
			c-0.1,0.1-0.3,0.2-0.4,0.4c-5.2,7.2-8.6,15.3-10.3,23.9C265.7,441.9,265.3,440.7,264.8,439z"/>
		<path class="st1" d="M283.5,470.5C283.5,470.5,283.5,470.5,283.5,470.5c1.4-7,10.3-12.3,17.6-13.9c-6.6,5-12.4,11.9-16,19.1
			C284.7,473.9,284.2,472.2,283.5,470.5z"/>
		<path class="st1" d="M305,505.9C305,505.9,305,505.9,305,505.9c-2-14.7,6.4-30.6,17.2-40.2c0.7,0.8,1.2,1.5,1.9,2.2
			c-10.1,11.9-15.5,26.9-15.8,42.5C307.1,509.2,306,507.7,305,505.9z"/>
		<path class="st1" d="M351,531.4c-0.8-0.3-1.5-0.5-2.3-0.7c-8.3-15.2-0.7-34.9,5.2-50.2c0.3,5,0.8,10,1.3,14.9
			c1.2,11.9,4.3,26.5,0,38.1C354.1,532.7,352.6,532,351,531.4z"/>
		<path class="st1" d="M391.7,483.4c-0.1-0.6-0.2-1.2-0.3-1.9c0.8-0.3,1.6-0.6,2.4-0.9c11.1,17.3,11.9,36.7,4.3,55.4
			c-3.5,0-7-0.3-10.4-1C395.3,519.6,393.9,499.9,391.7,483.4z"/>
		<path class="st1" d="M409.9,521.2C409.9,521.2,409.8,521.2,409.9,521.2c5.3-12.9,5-27.8-1.6-40.4c0.6-0.4,1.3-0.9,1.9-1.4
			c4.5,3.7,7,10.2,8.4,15.6c2.1,8.2,1.6,16.8-2.7,24.2c0,0,0,0,0,0.1C414.2,520.4,412.1,521.1,409.9,521.2z"/>
		<path class="st1" d="M434,498.3c-0.4,0.2-1.5,0.9-2.1,1c-0.9-10-6.5-20.1-14.3-25.5c1.5-1,3.1-1.9,4.7-2.8
			c0.1,0.2,0.2,0.3,0.3,0.5c3.1,3.1,7,4.9,10.2,7.9c4.5,4.4,7.5,11.6,2.9,17.2c-0.2,0.2-0.3,0.5-0.3,0.8
			C435,497.7,434.5,498,434,498.3z"/>
		<path class="st1" d="M457.6,472.9c-0.2-2.2-0.7-4.4-1.2-6.3c-1-3.8-2.4-8-5.4-10.6c-0.1-0.1-0.2-0.1-0.2-0.2
			c1.6-1.3,2.9-3,4.1-4.9c3.5,4.7,6.5,9.9,9,15.2c-0.1,0.2-0.2,0.4-0.4,0.5C462.2,468.4,459.7,470.7,457.6,472.9z"/>
		<path class="st1" d="M473.5,446.5c-0.5,0.6-0.7,1.6-1.1,2.3c-0.4,0.9-0.8,1.7-1.3,2.6c-1.2-5.5-4.3-10.3-8.9-13.8
			c1.2-2.1,2.3-4.3,3.2-6.5c4,4.1,6.9,9.1,8.4,14.6c0,0.3,0,0.5,0.2,0.8c-0.1-0.3-0.2-0.5-0.2-0.6
			C473.8,446.1,473.7,446.3,473.5,446.5z"/>
		<path class="st1" d="M480,430.5c-0.4-1.7-1-3.3-1.5-4.4c-1.8-3.7-4.8-5.5-7.8-7.7c1.6-1.9,2.6-4,3.5-6.3c0.1-0.2,0.2-0.4,0.2-0.6
			c4.7,4.4,8.1,9.7,8,16.3c-0.2,0.1-0.4,0.3-0.5,0.5C481.3,429.1,480.7,429.8,480,430.5z"/>
		<path class="st1" d="M473.8,445.9C473.9,445.7,473.8,445.7,473.8,445.9L473.8,445.9z"/>
	</g>
	<g>
		<g>
			<g>
				<path class="st2" d="M369.1,397.3c-2.3,7.3-4.9,17.2-2.7,24.9c0.5,1.9,3.4,1.1,2.9-0.8c-2-7.1,0.5-16.4,2.7-23.3
					C372.6,396.2,369.7,395.5,369.1,397.3L369.1,397.3z"/>
			</g>
		</g>
		<g>
			<g>
				<path class="st2" d="M362.1,394.8c-2.6,5.7-3.5,11.3-3.5,17.5c0,3.6,0.1,10.5,4,12.4c0.9,0.4,1.8,0.1,2.2-0.9
					c0-0.1,0.1-0.2,0.1-0.2c0.2-0.6-0.2-1.4-0.7-1.7c-0.1,0-0.1-0.1-0.2-0.1c-1.7-1-3.2,1.6-1.5,2.6c0.1,0,0.1,0.1,0.2,0.1
					c-0.2-0.6-0.5-1.1-0.7-1.7c0,0.1-0.1,0.2-0.1,0.2c0.7-0.3,1.5-0.6,2.2-0.9c-3.3-1.6-2.6-9.1-2.5-12.2c0.2-4.8,1.1-9.3,3.1-13.6
					C365.5,394.6,362.9,393.1,362.1,394.8L362.1,394.8z"/>
			</g>
		</g>
		<g>
			<g>
				<path class="st2" d="M354.3,395.6c-6.7,8.2-9.2,25-1.5,33.3c1.3,1.4,3.4-0.7,2.1-2.1c-6.4-7-4-22.2,1.5-29.1
					C357.6,396.2,355.5,394.1,354.3,395.6L354.3,395.6z"/>
			</g>
		</g>
		<g>
			<g>
				<path class="st2" d="M346.8,396.5c-4.9,4.9-8.1,10.9-9.1,17.8c-0.8,4.9-1.4,11.1,3.3,14.1c1.6,1.1,3.1-1.5,1.5-2.6
					c-4.2-2.7-2.1-11.3-1-15c1.4-4.7,4-8.7,7.4-12.2C350.3,397.3,348.1,395.2,346.8,396.5L346.8,396.5z"/>
			</g>
		</g>
		<g>
			<g>
				<path class="st2" d="M333.8,402.4c-4.6,3.6-5,11.6-5,16.9c0,3.3,0.7,11.8,5.6,11.3c1.9-0.2,1.9-3.2,0-3
					c-3.1,0.3-2.6-10.1-2.5-11.6c0.4-3.7,0.8-9.1,3.9-11.6C337.4,403.4,335.3,401.3,333.8,402.4L333.8,402.4z"/>
			</g>
		</g>
		<g>
			<g>
				<path class="st2" d="M328.3,403.3c-4.9,0.2-6.6,10.1-7.1,13.7c-0.8,5.3-2.2,13.4,2.6,17.2c1.5,1.2,3.6-0.9,2.1-2.1
					c-3.5-2.8-2.5-8.6-2.1-12.5c0.2-1.8,1.7-13.2,4.4-13.3C330.3,406.2,330.3,403.2,328.3,403.3L328.3,403.3z"/>
			</g>
		</g>
		<g>
			<g>
				<path class="st2" d="M313.9,414c-1.3,5.7-2.7,11.7-0.6,17.3c1.6,4.3,4.7,7.5,8.3,10.2c1.5,1.2,3-1.4,1.5-2.6
					c-8.4-6.4-8.6-14.5-6.3-24.1C317.2,412.9,314.3,412.1,313.9,414L313.9,414z"/>
			</g>
		</g>
		<g>
			<g>
				<path class="st2" d="M305.2,423.2c-1.6,11.5,2.9,21.2,11.5,28.6c1.5,1.2,3.6-0.9,2.1-2.1c-7.8-6.6-12.2-15.2-10.8-25.7
					C308.4,422.1,305.5,421.3,305.2,423.2L305.2,423.2z"/>
			</g>
		</g>
		<g>
			<g>
				<path class="st2" d="M301.1,439c0.7,7,7.1,14,12.9,17.4c1.7,1,3.2-1.6,1.5-2.6c-4.8-2.8-10.9-9-11.5-14.8
					C304,437.1,300.9,437.1,301.1,439L301.1,439z"/>
			</g>
		</g>
		<g>
			<g>
				<path class="st2" d="M318.6,457.5c-12.6,4.3-23.5,19.4-25,32.5c-0.2,1.9,2.8,1.9,3,0c1.3-11.6,11.7-25.8,22.8-29.6
					C321.2,459.7,320.4,456.8,318.6,457.5L318.6,457.5z"/>
			</g>
		</g>
		<g>
			<g>
				<path class="st2" d="M320.4,462.9c-11.7,10-21,27.2-19.3,42.9c0.2,1.9,3.2,1.9,3,0c-1.6-15,7.2-31.3,18.4-40.8
					C324,463.8,321.9,461.7,320.4,462.9L320.4,462.9z"/>
			</g>
		</g>
		<g>
			<g>
				<path class="st2" d="M324.5,467.2c-11.4,13.1-17.3,29.8-16.7,47.2c0.1,1.9,3.1,1.9,3,0c-0.6-16.5,4.9-32.6,15.8-45
					C327.9,467.9,325.8,465.7,324.5,467.2L324.5,467.2z"/>
			</g>
		</g>
		<g>
			<g>
				<path class="st2" d="M331.9,470.4c-11.2,12.4-17.2,33.4-11,49.3c0.7,1.8,3.6,1,2.9-0.8c-5.8-15-0.3-34.8,10.2-46.4
					C335.3,471.1,333.2,469,331.9,470.4L331.9,470.4z"/>
			</g>
		</g>
		<g>
			<g>
				<path class="st2" d="M339,472.9c-10.4,14.8-14,33.8-12,51.6c0.2,1.9,3.2,1.9,3,0c-2-17.3,1.4-35.7,11.6-50.1
					C342.8,472.9,340.2,471.4,339,472.9L339,472.9z"/>
			</g>
		</g>
		<g>
			<g>
				<path class="st2" d="M348.3,476.1c-13.2,11.7-19.9,30.4-21,47.7c-0.1,1.9,2.9,1.9,3,0c1.1-16.5,7.5-34.4,20.1-45.6
					C351.8,477,349.7,474.9,348.3,476.1L348.3,476.1z"/>
			</g>
		</g>
		<g>
			<g>
				<path class="st2" d="M352.2,476.8c-6.4,16.5-15.5,38.5-5.9,55.6c0.9,1.7,3.5,0.2,2.6-1.5c-9.1-16.2,0.1-37.6,6.2-53.3
					C355.8,475.8,352.9,475,352.2,476.8L352.2,476.8z"/>
			</g>
		</g>
		<g>
			<g>
				<path class="st2" d="M355.7,449.9c-3.4,14.9-1.9,30.4-0.4,45.5c1.2,12.2,4.4,27.2-0.3,38.9c-0.7,1.8,2.2,2.6,2.9,0.8
					c4.5-11.2,1.8-25.2,0.7-36.8c-1.6-15.7-3.5-32,0-47.6C359,448.8,356.1,448,355.7,449.9L355.7,449.9z"/>
			</g>
		</g>
		<g>
			<g>
				<path class="st2" d="M357.5,451.7c5.1-2.1,11.1-2.2,16.6-2c2.3,0.1,4.8,0,7,0.6c1.3,0.3,0.1-0.7,0.6,0.6
					c2.5,6.2,3.7,13.4,4.9,20c2.2,11.1,3.6,22.5,3.6,33.8c0,11.2-1.2,23.3-7.3,33c-1,1.6,1.6,3.1,2.6,1.5
					c10.2-16.2,8.6-38.4,6.1-56.5c-1.1-8.3-2.7-16.6-4.8-24.7c-0.7-2.7-1.2-8.6-3.9-10.2c-2.6-1.5-7.8-1-10.6-1
					c-5.2,0-10.8,0.1-15.7,2.1C355,449.6,355.7,452.5,357.5,451.7L357.5,451.7z"/>
			</g>
		</g>
		<g>
			<g>
				<path class="st2" d="M371.7,448.7c-1.5,13.3,2.7,26.9,5.1,39.8c3.2,17.4,4.5,35-1.6,52c-0.7,1.8,2.2,2.6,2.9,0.8
					c5.7-15.9,5.2-32.5,2.4-48.9c-2.4-14.3-7.4-29.1-5.8-43.7C375,446.8,372,446.8,371.7,448.7L371.7,448.7z"/>
			</g>
		</g>
		<g>
			<g>
				<path class="st2" d="M366,449.3c-4.2,15.7-1.6,32.3-0.3,48.2c1.1,13.9,3.5,32.9-7.9,43.4c-1.4,1.3,0.7,3.4,2.1,2.1
					c10.8-9.9,10.1-26.6,9.2-40c-1.1-17.3-4.8-35.7-0.2-52.9C369.4,448.3,366.5,447.5,366,449.3L366,449.3z"/>
			</g>
		</g>
		<g>
			<g>
				<path class="st2" d="M393.8,480.6c11.4,17.7,11.9,37.6,3.8,56.7c-0.7,1.8,1.8,3.3,2.6,1.5c8.5-20.1,8.2-41-3.8-59.7
					C395.4,477.5,392.8,479,393.8,480.6L393.8,480.6z"/>
			</g>
		</g>
		<g>
			<g>
				<path class="st2" d="M405.2,481.4c8.5,15.3,6.9,34.5-3.8,48.4c-1.2,1.5,1.4,3,2.6,1.5c11.3-14.7,12.7-35.2,3.8-51.4
					C406.8,478.1,404.3,479.7,405.2,481.4L405.2,481.4z"/>
			</g>
		</g>
		<g>
			<g>
				<path class="st2" d="M409.4,478.8c5.1,3.5,7.8,10.5,9.2,16.3c2.1,8.2,1.6,16.8-2.7,24.2c-1,1.7,1.6,3.2,2.6,1.5
					c4.6-8.1,5.2-17.5,3-26.5c-1.7-6.6-4.8-14.1-10.6-18C409.3,475.1,407.8,477.7,409.4,478.8L409.4,478.8z"/>
			</g>
		</g>
		<g>
			<g>
				<path class="st2" d="M413.8,475c13.1,7,20.4,28.1,11,40.6c-1.2,1.5,1.4,3,2.6,1.5c10.4-13.8,2.3-37-12-44.7
					C413.6,471.5,412.1,474.1,413.8,475L413.8,475z"/>
			</g>
		</g>
		<g>
			<g>
				<path class="st2" d="M422.6,471.5c3.1,3,7,4.9,10.2,7.9c4.6,4.4,7.5,11.6,2.9,17.2c-1.2,1.5,0.9,3.6,2.1,2.1
					c3.6-4.4,4.1-10,1.7-15.2c-3.2-6.8-9.7-9.2-14.7-14.2C423.4,468,421.3,470.1,422.6,471.5L422.6,471.5z"/>
			</g>
		</g>
		<g>
			<g>
				<path class="st2" d="M430.2,465.6c5,2.2,9.2,5.6,12.2,10.2c2.6,4.1,6.3,13,3.8,17.9c-0.9,1.7,1.7,3.2,2.6,1.5
					c2.7-5.1,0.2-13.4-2.2-18.2c-3.1-6.3-8.4-11.1-14.8-14C430,462.3,428.4,464.8,430.2,465.6L430.2,465.6z"/>
			</g>
		</g>
		<g>
			<g>
				<path class="st2" d="M374.4,398.2c-0.3,8.4-0.7,16.8-1.2,25.2c-0.1,1.9,2.9,1.9,3,0c0.5-8.4,0.9-16.8,1.2-25.2
					C377.5,396.3,374.5,396.3,374.4,398.2L374.4,398.2z"/>
			</g>
		</g>
		<g>
			<g>
				<path class="st2" d="M380.5,398.6c2.8,2.5,2.2,9.2,2.2,12.4c-0.1,5.2-1,10.3-2.5,15.3c-0.6,1.9,2.3,2.6,2.9,0.8
					c2-6.5,2.9-13.1,2.6-19.8c-0.2-3.4-0.2-8.3-3-10.8C381.2,395.2,379.1,397.3,380.5,398.6L380.5,398.6z"/>
			</g>
		</g>
		<g>
			<g>
				<path class="st2" d="M386.2,397.9c4,5.5,5.3,12,5.1,18.8c-0.1,3.4-0.3,8.6-2.5,11.5c-1.2,1.5,1.4,3,2.6,1.5
					c2.5-3.3,2.7-9.1,2.9-13c0.3-7.2-1.2-14.4-5.5-20.3C387.7,394.9,385.1,396.4,386.2,397.9L386.2,397.9z"/>
			</g>
		</g>
		<g>
			<g>
				<path class="st2" d="M398.5,402c5.2,7.8,5.1,21.6,0,29.2c-1.1,1.6,1.5,3.1,2.6,1.5c5.7-8.5,5.8-23.6,0-32.3
					C400,398.9,397.4,400.4,398.5,402L398.5,402z"/>
			</g>
		</g>
		<g>
			<g>
				<path class="st2" d="M411.7,405.7c2.3,3.6,2.2,8.9,2.1,12.9c-0.1,4.7-0.6,10.9-4.4,14.3c-1.5,1.3,0.7,3.4,2.1,2.1
					c4.2-3.6,5-10,5.2-15.2c0.2-4.9,0.2-11.3-2.5-15.6C413.3,402.6,410.7,404.1,411.7,405.7L411.7,405.7z"/>
			</g>
		</g>
		<g>
			<g>
				<path class="st2" d="M421.8,410.5c2.7,9,0.5,18.4-6,25.1c-1.3,1.4,0.8,3.5,2.1,2.1c7.3-7.5,9.9-18.1,6.8-28
					C424.1,407.9,421.2,408.7,421.8,410.5L421.8,410.5z"/>
			</g>
		</g>
		<g>
			<g>
				<path class="st2" d="M431.6,416.6c0.3,8.6-3.7,16.5-10.9,21.2c0.5,0.9,1,1.7,1.5,2.6c0.3-0.2,0.6-0.5,0.9-0.7
					c1.5-1.1,0-3.7-1.5-2.6c-0.3,0.2-0.6,0.5-0.9,0.7c-1.5,1.1-0.1,3.7,1.5,2.6c8.1-5.3,12.7-14.2,12.4-23.8
					C434.5,414.7,431.5,414.6,431.6,416.6L431.6,416.6z"/>
			</g>
		</g>
		<g>
			<g>
				<path class="st2" d="M435,426.9c0.5,8.4-6.9,19.4-12.8,24.9c-1.4,1.3,0.7,3.5,2.1,2.1c3.9-3.7,6.8-8,9.2-12.7
					c2.3-4.5,4.8-9.2,4.5-14.3C437.9,425,434.9,425,435,426.9L435,426.9z"/>
			</g>
		</g>
		<g>
			<g>
				<path class="st2" d="M439.3,437.5c0.4,7.7-7.4,15.8-12.7,20.4c-1.5,1.3,0.7,3.4,2.1,2.1c5.9-5.2,14-14,13.6-22.5
					C442.2,435.6,439.2,435.6,439.3,437.5L439.3,437.5z"/>
			</g>
		</g>
		<g>
			<g>
				<path class="st2" d="M310.4,451.1c-10.7,4.6-20.9,15.1-25.8,25.7c-0.8,1.7,1.8,3.3,2.6,1.5c4.7-10.3,14.4-20.2,24.7-24.7
					C313.6,452.9,312.1,450.4,310.4,451.1L310.4,451.1z"/>
			</g>
		</g>
		<g>
			<g>
				<path class="st2" d="M305.4,453c-8.8,0.1-22.9,7-24.8,16.6c-0.4,1.9,2.5,2.7,2.9,0.8c1.6-8.3,14.4-14.3,21.9-14.4
					C307.3,456,307.4,453,305.4,453L305.4,453z"/>
			</g>
		</g>
		<g>
			<g>
				<path class="st2" d="M298.3,437.5c-10.7,1-20.8,14.7-23,24.5c-0.4,1.9,2.5,2.7,2.9,0.8c1.9-8.4,10.9-21.5,20.1-22.3
					C300.2,440.3,300.2,437.3,298.3,437.5L298.3,437.5z"/>
			</g>
		</g>
		<g>
			<g>
				<path class="st2" d="M286.6,433.3c-4.5,0.2-7.9,3.3-10.6,6.7c-2.3,2.9-4.7,6.7-4.9,10.5c-0.1,1.9,2.9,1.9,3,0
					c0.1-2.8,2.1-5.7,3.7-7.9c2.1-2.9,5.1-6.1,8.8-6.3C288.6,436.2,288.6,433.2,286.6,433.3L286.6,433.3z"/>
			</g>
		</g>
		<g>
			<g>
				<path class="st2" d="M276.5,419c-5.8,8.1-9.5,17.2-10.8,27.1c-0.3,1.9,2.6,2.7,2.9,0.8c1.4-9.6,4.9-18.5,10.5-26.4
					C280.2,418.9,277.6,417.4,276.5,419L276.5,419z"/>
			</g>
		</g>
		<g>
			<g>
				<path class="st2" d="M270.4,406.9c-4.6,7.1-8.1,14.6-11.3,22.5c-0.7,1.8,2.2,2.6,2.9,0.8c3-7.6,6.5-14.9,11-21.8
					C274,406.8,271.4,405.3,270.4,406.9L270.4,406.9z"/>
			</g>
		</g>
		<g>
			<g>
				<path class="st2" d="M263.6,404.6c-2.4,2.1-4,4.9-4.8,7.9c-0.5,1.9,2.4,2.7,2.9,0.8c0.7-2.6,2-4.8,4-6.6
					C267.2,405.4,265,403.3,263.6,404.6L263.6,404.6z"/>
			</g>
		</g>
		<g>
			<g>
				<path class="st2" d="M259.4,395.8c-1,1.6-2,3.3-3,4.9c-1,1.7,1.6,3.2,2.6,1.5c1-1.6,2-3.3,3-4.9
					C263,395.7,260.4,394.1,259.4,395.8L259.4,395.8z"/>
			</g>
		</g>
		<g>
			<g>
				<path class="st2" d="M258.1,389c-0.2,0.4-0.5,0.8-0.7,1.2c-0.4,0.7-0.2,1.6,0.5,2.1c0.7,0.4,1.6,0.2,2.1-0.5
					c0.2-0.4,0.5-0.8,0.7-1.2c0.4-0.7,0.2-1.6-0.5-2.1C259.4,388,258.5,388.3,258.1,389L258.1,389z"/>
			</g>
		</g>
		<g>
			<g>
				<path class="st2" d="M259.1,384.1c1.9,0,1.9-3,0-3C257.2,381.1,257.2,384.1,259.1,384.1L259.1,384.1z"/>
			</g>
		</g>
		<g>
			<g>
				<path class="st2" d="M448.9,458.1c3.9,3.4,6.9,13.1,5.6,18.2c-0.5,1.9,2.4,2.7,2.9,0.8c0.9-3.3-0.1-7.3-0.9-10.5
					c-1-3.7-2.4-8-5.4-10.6C449.5,454.7,447.4,456.9,448.9,458.1L448.9,458.1z"/>
			</g>
		</g>
		<g>
			<g>
				<path class="st2" d="M453.9,449.8c4,5.2,7.3,11,10.1,16.9c0.8,1.7,3.4,0.2,2.6-1.5c-2.9-6.2-6.4-12.1-10.6-17.5
					C454.8,446.1,452.7,448.2,453.9,449.8L453.9,449.8z"/>
			</g>
		</g>
		<g>
			<g>
				<path class="st2" d="M459.6,439.4c5.6,3.8,9,9.9,9.2,16.7c0.1,1.9,3.1,1.9,3,0c-0.3-7.9-4.1-14.9-10.7-19.3
					C459.5,435.7,458,438.3,459.6,439.4L459.6,439.4z"/>
			</g>
		</g>
		<g>
			<g>
				<path class="st2" d="M463.6,429.3c5.7,5,9.4,11.5,10.9,19c0.4,1.9,3.3,1.1,2.9-0.8c-1.6-7.9-5.6-14.9-11.7-20.3
					C464.3,425.9,462.1,428.1,463.6,429.3L463.6,429.3z"/>
			</g>
		</g>
		<g>
			<g>
				<path class="st2" d="M465.5,418.1c2.5,2.3,5.8,3.7,8.2,6.2c2,2.1,5.4,8.5,3.3,11.5c0.8-0.1,1.6-0.2,2.4-0.3c0,0-0.1-0.1-0.1-0.1
					c0.1,0.6,0.2,1.2,0.2,1.8c0,0,0-0.1,0.1-0.1c1.1-1.6-1.5-3.1-2.6-1.5c0,0,0,0.1-0.1,0.1c-0.4,0.5-0.2,1.4,0.2,1.8
					c0,0,0.1,0.1,0.1,0.1c0.7,0.7,1.8,0.5,2.4-0.3c1.9-2.8,0.3-8.4-1-11.1c-2.4-5-7.1-6.6-10.9-10.1
					C466.2,414.7,464,416.8,465.5,418.1L465.5,418.1z"/>
			</g>
		</g>
		<g>
			<g>
				<path class="st2" d="M472.5,409.9c6.1,5,10.6,11.3,9.9,19.5c0.5-0.5,1-1,1.5-1.5c0.3,0.1,0.5,0.3,0.8,0.4
					c-1-1.6-3.6-0.1-2.6,1.5c0.5,0.8,0.9,1,1.8,1c0.9,0,1.4-0.7,1.5-1.5c0.7-8.9-4.2-16.2-10.8-21.6
					C473.2,406.6,471.1,408.7,472.5,409.9L472.5,409.9z"/>
			</g>
		</g>
		<g>
			<g>
				<path class="st2" d="M477.2,401.9c2.8,1.9,5.2,4.3,7.2,6.9c1.2,1.5,3.8,0,2.6-1.5c-2.4-3.1-5.1-5.8-8.3-8
					C477.2,398.2,475.7,400.8,477.2,401.9L477.2,401.9z"/>
			</g>
		</g>
		<g>
			<g>
				<path class="st2" d="M479.5,393.1c2.5,1.7,4.4,4,5.7,6.8c0.6,1.3,2.4,0.8,2.7-0.4c0.1-0.2,0.2-0.5,0.2-0.7
					c0.6-1.8-2.3-2.6-2.9-0.8c-0.1,0.2-0.2,0.5-0.2,0.7c0.9-0.1,1.8-0.2,2.7-0.4c-1.5-3.2-3.8-5.9-6.7-7.9
					C479.4,389.5,477.9,392.1,479.5,393.1L479.5,393.1z"/>
			</g>
		</g>
		<g>
			<g>
				<path class="st2" d="M482.1,385.8c0.6,1.5,2.2,2.4,3.7,2.5c0.8,0.1,1.5-0.7,1.5-1.5c0-0.9-0.7-1.4-1.5-1.5c-0.1,0-0.2,0,0,0
					c-0.1,0-0.2-0.1-0.3-0.1c-0.2-0.1,0.2,0.1,0,0c-0.1-0.1-0.2-0.1-0.3-0.2c0.1,0.1,0,0,0,0c-0.1-0.1-0.1-0.1-0.2-0.2
					c0.1,0.2,0,0-0.1-0.1c-0.1-0.1-0.1-0.2-0.2-0.3c-0.3-0.7-1.4-0.9-2.1-0.5C481.8,384.2,481.7,385.1,482.1,385.8L482.1,385.8z"/>
			</g>
		</g>
		<g>
			<g>
				<path class="st2" d="M484.2,380c1.9,0,1.9-3,0-3C482.3,377,482.2,380,484.2,380L484.2,380z"/>
			</g>
		</g>
		<g>
			<g>
				<path class="st2" d="M318,459.7c2.8,6.2,7.3,10.2,13.5,12.9c7,3,13.9,6.2,21.7,5.7c1.9-0.1,1.9-3.1,0-3
					c-6.4,0.3-11.8-1.9-17.6-4.3c-6.8-2.8-12-6-15.1-12.8C319.8,456.5,317.2,458,318,459.7L318,459.7z"/>
			</g>
		</g>
		<g>
			<g>
				<path class="st2" d="M293.5,490.9c1.4,3.9,3.9,7.2,7.4,9.5c-0.2-0.7-0.4-1.4-0.5-2.1c-0.1,0.1-0.1,0.2-0.2,0.3
					c-1,1.6,1.6,3.1,2.6,1.5c0.1-0.1,0.1-0.2,0.2-0.3c0.4-0.7,0.1-1.6-0.5-2.1c-2.8-1.8-4.9-4.5-6-7.7
					C295.8,488.3,292.9,489.1,293.5,490.9L293.5,490.9z"/>
			</g>
		</g>
		<g>
			<g>
				<path class="st2" d="M301.4,507.2c2.9,4.4,5.8,8.1,10.7,10.4c2.5,1.2,5.3,1.5,7.9,2.6c3,1.2,5.1,4.2,7.2,6.5
					c1.3,1.4,3.4-0.7,2.1-2.1c-3-3.2-5.1-6.2-9.4-7.4c-7.3-2.1-11.8-5-16-11.3C302.9,504.1,300.3,505.6,301.4,507.2L301.4,507.2z"/>
			</g>
		</g>
		<g>
			<g>
				<path class="st2" d="M327.6,526.2c4.1,3.2,8.6,5.4,13.8,6.3c7,1.1,14.8,1.9,16.2,10.2c0.3,1.9,3.2,1.1,2.9-0.8
					c-0.9-5.5-3.5-8-8.6-10.2c-2.8-1.2-5.5-1.5-8.5-1.9c-5.1-0.7-9.5-2.5-13.6-5.6C328.2,522.9,326.1,525,327.6,526.2L327.6,526.2z"
					/>
			</g>
		</g>
		<g>
			<g>
				<path class="st2" d="M359.4,544.3c5.9-0.2,11.8-1,17.7-1.8c1.9-0.2,1.9-3.2,0-3c-5.9,0.7-11.8,1.6-17.7,1.8
					C357.5,541.3,357.5,544.3,359.4,544.3L359.4,544.3z"/>
			</g>
		</g>
		<g>
			<g>
				<path class="st2" d="M378.1,539.7c2.1,0.5,4.2,0.5,6.4,0.1c1.9-0.3,1.1-3.2-0.8-2.9c-1.6,0.3-3.2,0.2-4.8-0.1
					C377,536.4,376.2,539.3,378.1,539.7L378.1,539.7z"/>
			</g>
		</g>
		<g>
			<g>
				<path class="st2" d="M386,537.8c4.3,0.9,8.7,1.3,13.1,1.3c1.9,0,1.9-3,0-3c-4.2,0-8.3-0.3-12.3-1.1
					C384.9,534.5,384.1,537.4,386,537.8L386,537.8z"/>
			</g>
		</g>
		<g>
			<g>
				<path class="st2" d="M409.1,521.2c-0.1,0-0.2,0-0.3,0c-1.9,0-1.9,2.9,0,3c2.2,0.1,4.2-0.4,6.2-1.2c1.5-0.6,3.6-1.1,4.1-2.8
					c0.6-1.8-2.3-2.6-2.9-0.8c0,0.1-0.1,0.2-0.1,0.3c0.2-0.3,0.5-0.6,0.7-0.9c-2.2,1.5-5.3,2.5-8,2.3c0,1,0,2,0,3c0.1,0,0.2,0,0.3,0
					C411,524.2,411,521.2,409.1,521.2L409.1,521.2z"/>
			</g>
		</g>
		<g>
			<g>
				<path class="st2" d="M418.9,520.1c1.2-0.2,2.4-0.5,3.6-0.9c0.6-0.2,1.1-0.4,1.6-0.7c0.3-0.1,0.6-0.3,0.8-0.4
					c0.6-0.2,0.5-0.3-0.2-0.3c-0.3-0.7-0.6-1.5-0.9-2.2c0,0,0,0,0,0.1c0.8-0.1,1.6-0.2,2.4-0.3c0,0,0,0,0,0
					c-1.5-1.2-3.6,0.9-2.1,2.1c0,0,0,0,0,0c0.8,0.6,1.8,0.6,2.4-0.3c0,0,0,0,0-0.1c0.5-0.9,0-1.9-0.9-2.2c-1.1-0.4-2.3,0.7-3.2,1.1
					c-1.4,0.6-2.8,1-4.3,1.2C416.2,517.6,417,520.5,418.9,520.1L418.9,520.1z"/>
			</g>
		</g>
		<g>
			<g>
				<path class="st2" d="M430.8,502.2c1.5,0.4,2.9-0.4,4.1-1.1c1.3-0.6,2.5-1.5,3.5-2.6c1.3-1.4-0.8-3.6-2.1-2.1
					c-0.7,0.8-1.4,1.3-2.3,1.8c-0.5,0.3-1.9,1.2-2.4,1.1C429.8,498.9,429,501.8,430.8,502.2L430.8,502.2z"/>
			</g>
		</g>
		<g>
			<g>
				<path class="st2" d="M438.5,499c3.6,0,6.3-2.1,9.2-3.9c1.6-1,0.1-3.6-1.5-2.6c-2.4,1.5-4.7,3.5-7.7,3.5
					C436.5,496,436.5,499,438.5,499L438.5,499z"/>
			</g>
		</g>
		<g>
			<g>
				<path class="st2" d="M391.3,481.6c1.4-0.5,2.7-1,4-1.6c0.7-0.3,0.9-1.4,0.5-2.1c-0.5-0.8-1.3-0.9-2.1-0.5
					c-1.1,0.5-2.2,0.9-3.3,1.3c-0.8,0.3-1.3,1-1,1.8C389.7,481.3,390.5,481.9,391.3,481.6L391.3,481.6z"/>
			</g>
		</g>
		<g>
			<g>
				<path class="st2" d="M397.3,482.6c6,0.8,9.7,0,14.1-4.2c5.5-5.2,13.1-8.1,19.2-12.7c1.5-1.2,0-3.8-1.5-2.6
					c-5,3.8-10.6,6.4-15.8,9.9c-1.9,1.2-3.3,2.8-5,4.3c-3.5,3-6.7,2.9-11,2.3C395.4,479.3,395.5,482.3,397.3,482.6L397.3,482.6z"/>
			</g>
		</g>
		<g>
			<g>
				<path class="st2" d="M284.6,479.9c1.6,2,2.6,4.4,3.9,6.6c1.3,2.1,2.8,3.9,4.6,5.5c1.4,1.3,3.6-0.8,2.1-2.1
					c-3.9-3.4-5.4-8.2-8.6-12.1C285.5,476.3,283.4,478.4,284.6,479.9L284.6,479.9z"/>
			</g>
		</g>
		<g>
			<g>
				<path class="st2" d="M316.5,456c0.8-1.1,1.7-2.1,2.5-3.2c0.5-0.6,0.6-1.5,0-2.1c-0.5-0.5-1.6-0.6-2.1,0
					c-0.8,1.1-1.7,2.1-2.5,3.2c-0.5,0.6-0.6,1.5,0,2.1C314.9,456.6,316,456.7,316.5,456L316.5,456z"/>
			</g>
		</g>
		<g>
			<g>
				<path class="st2" d="M318.1,450.5c2.6-2.7,3.8-6.3,5.8-9.4c1-1.6-1.6-3.2-2.6-1.5c-1.8,2.9-2.9,6.3-5.3,8.8
					C314.6,449.7,316.7,451.8,318.1,450.5L318.1,450.5z"/>
			</g>
		</g>
		<g>
			<g>
				<path class="st2" d="M322.6,439.4c1.6-1.3,2.9-3,3.8-5c0.3-0.7,0.2-1.6-0.5-2.1c-0.6-0.4-1.7-0.2-2.1,0.5
					c-0.8,1.7-1.9,3.2-3.3,4.3c-0.6,0.5-0.5,1.6,0,2.1C321.1,440.1,322,440,322.6,439.4L322.6,439.4z"/>
			</g>
		</g>
		<g>
			<g>
				<path class="st2" d="M326.4,434.6c2.6-1.5,5.4-2.7,8.3-3.6c1.8-0.6,1.1-3.4-0.8-2.9c-3.2,0.9-6.2,2.3-9,3.9
					C323.2,432.9,324.7,435.5,326.4,434.6L326.4,434.6z"/>
			</g>
		</g>
		<g>
			<g>
				<path class="st2" d="M335,430.6c3.1-1.3,6-1,9.3-0.9c3.1,0.1,6.2-0.4,9.4-0.3c1.9,0,1.9-3,0-3c-3.6-0.1-7.1,0.4-10.7,0.3
					c-3.1-0.1-5.9-0.1-8.7,1.1C332.4,428.4,333.2,431.3,335,430.6L335,430.6z"/>
			</g>
		</g>
		<g>
			<g>
				<path class="st2" d="M354.8,429.1c4.9-3.1,11.5-5.2,17.2-4c4.1,0.9,7.5,3.2,11.5,4.4c5.6,1.7,11.3,3,16.8,4.6
					c3.5,1,7,2,10.5,3.1c2.1,0.7,7.4,1.5,8.8,3.3c0.7,0.8,0.2,4.2,0.3,5.7c0.2,2.2,0.5,4.5,1.2,6.7c1.5,4.4,6,7.3,7.1,11.6
					c0.4,1.9,3.3,1.1,2.9-0.8c-0.8-3.4-3.3-5.3-5.2-8.1c-3.2-4.7-3.1-10.4-3-15.8c0-0.5-0.3-1-0.7-1.3c-9.7-5.3-21.7-7.5-32.3-10.3
					c-5.1-1.4-9.7-3.5-14.7-5.2c-7.7-2.5-15.1-0.7-21.9,3.6C351.7,427.6,353.2,430.2,354.8,429.1L354.8,429.1z"/>
			</g>
		</g>
		<g>
			<g>
				<path class="st2" d="M303.6,438.5c0.1-2,1-3.7,2.4-5c1.4-1.3-0.7-3.5-2.1-2.1c-2,1.9-3.1,4.4-3.3,7.2
					C300.5,440.4,303.5,440.4,303.6,438.5L303.6,438.5z"/>
			</g>
		</g>
		<g>
			<g>
				<path class="st2" d="M386.9,394.7c-6-0.1-11,1.2-17,0.2c-8.4-1.4-15.5-0.9-23.8,0.8c-4.3,0.9-7.5,3.9-11.3,5.7
					c-3.5,1.6-7.2,0.7-10.6,3.1c-7.2,5.1-15.4,10.7-19.5,18.8c-0.9,1.7,1.7,3.2,2.6,1.5c3.9-7.6,11.7-13.1,18.6-17.8
					c3.8-2.6,7.8-0.8,11.4-3.3c4.3-3,7.7-4.4,12.8-5.6c4.4-1,8.2-1.7,12.8-1.3c3.6,0.3,7.2,1.1,10.8,1.6c4.5,0.6,8.9-0.9,13.4-0.8
					C388.8,397.7,388.8,394.7,386.9,394.7L386.9,394.7z"/>
			</g>
		</g>
		<g>
			<g>
				<path class="st2" d="M388,397.9c4.5,0.3,7,2.7,10.9,4.2c3.1,1.2,6.7,1.2,9.9,2.4c3.7,1.3,6.8,3.7,10.4,5.2
					c4.1,1.7,8.2,2,11.3,5.6c2.7,3.2,2.3,6.8,3.6,10.5c1,2.7,3.1,4.8,4.3,7.4c3.2,7.2,5.4,14.9,8.9,22c0.8,1.7,3.4,0.2,2.6-1.5
					c-2.4-5-4.6-10.1-6.4-15.3c-1.1-3.2-2-6.5-3.8-9.4c-1.6-2.5-2.5-3.5-3.2-6.7c-0.4-1.6-0.4-3.1-1-4.7c-1-2.5-2.7-4.8-4.8-6.5
					c-2.8-2.2-5.9-2.6-9.2-3.8c-3.9-1.4-7.2-4-11-5.5c-4.2-1.6-8.5-1.8-12.5-3.9c-3.3-1.7-6.2-2.9-10-3.2
					C386.1,394.8,386.1,397.8,388,397.9L388,397.9z"/>
			</g>
		</g>
		<g>
			<g>
				<path class="st2" d="M431.4,464.6c2.3-2.1,4.7-5.1,7.5-6.6c2.9-1.6,6.7-0.9,9.8,0c1.9,0.5,2.6-2.4,0.8-2.9
					c-3.4-1-7.5-1.7-10.9-0.5c-3.6,1.2-6.6,5.3-9.3,7.9C427.8,463.8,430,465.9,431.4,464.6L431.4,464.6z"/>
			</g>
		</g>
		<g>
			<g>
				<path class="st2" d="M314.2,457.3c1.3,0.5,2.6,1.1,3.9,1.8c1.7,0.9,3.2-1.7,1.5-2.6c-1.5-0.8-3-1.5-4.6-2.1
					c-0.8-0.3-1.6,0.3-1.8,1C312.9,456.3,313.4,457,314.2,457.3L314.2,457.3z"/>
			</g>
		</g>
		<g>
			<g>
				<path class="st2" d="M301.1,437.9c-3.5-0.9-7.2-1.5-10.6-2.7c-3.4-1.2-4-4-5.6-7.2c-1.2-2.5-2-5.2-3.3-7.7c-1.5-3-3.7-5.3-5.5-8
					c-1.4-2-1.9-4.8-3.7-6.5c-1.6-1.5-3.7-1.3-5.6-2.4c-3-1.8-3.3-8-3.7-11.2c-0.5-3.4-1-6.8-2-10.1c-0.6-1.8-3.5-1.1-2.9,0.8
					c2,6.6,1.1,15.6,4.9,21.5c1.1,1.7,2.3,1.6,3.9,2.4c4.1,1.9,5.2,5.4,7.8,8.9c3.9,5.2,6.1,11.1,9,16.9c1.2,2.4,1.7,4.1,4.1,5.1
					c3.8,1.6,8.3,2.1,12.3,3.2C302.2,441.3,303,438.4,301.1,437.9L301.1,437.9z"/>
			</g>
		</g>
		<g>
			<g>
				<path class="st2" d="M286,479.6c-0.7-3.7-1.5-7.5-3.4-10.8c-1.1-1.9-2.6-3.3-3.8-5.2c-1.5-2.4-1.8-4.6-2.3-7.2
					c-0.6-2.9-1.2-6.1-3.6-8.2c-1-0.9-2-1-3-1.7c-3.7-2.3-3.9-3.8-5.1-7.5c-1.5-4.9-3.5-9.9-4-15.1c-0.5-4.6,0.2-9.1-0.2-13.7
					c-0.4-4.5-2.3-8.3-2-12.9c0.3-4.8,0.8-9.6,1.4-14.4c0.2-1.9-2.8-1.9-3,0c-0.6,4.8-1.1,9.6-1.4,14.4c-0.3,4.8,1.6,8.2,2,12.9
					c0.5,4.6-0.3,9.1,0.2,13.7c0.5,4.8,2.1,9.4,3.5,14c1,3,1.6,7.2,4,9.5c0.9,0.9,2,1.1,3,1.7c3.1,1.8,4.4,3.8,5.1,7.2
					c0.8,3.9,1.4,6.9,3.8,10.2c3.2,4.4,4.7,8.5,5.8,13.8C283.5,482.3,286.4,481.5,286,479.6L286,479.6z"/>
			</g>
		</g>
		<g>
			<g>
				<path class="st2" d="M474,446.5c-0.6-1.2,0.2-0.9-0.5,0c-0.5,0.6-0.7,1.6-1.1,2.3c-1.1,2.3-2.2,4.6-3.4,6.8
					c-1.8,3.6-3.3,7.8-5.7,11.1c-1.6,2.3-5.7,5.8-8.1,8.6c-2.9,3.4-6.2,6.9-8.5,10.7c-1,1.7,1.6,3.2,2.6,1.5
					c2.6-4.4,6.5-8.4,9.9-12.3c2.5-2.8,5.7-5.1,7.4-8.4c2.4-4.5,4.6-9,6.9-13.6c0.9-1.7,4.1-6.2,3-8.3
					C475.8,443.3,473.2,444.8,474,446.5L474,446.5z"/>
			</g>
		</g>
		<g>
			<g>
				<path class="st2" d="M476.9,443.2c0.4-1,0.9-2,1.3-3.1c0.2-0.4,0.4-0.9,0.6-1.3c0.2-0.4,0.4-1.3,0.7-1.6
					c-0.6,0.1-1.2,0.2-1.8,0.2c0,0,0.1,0,0.1,0.1c1.6,1.1,3.1-1.5,1.5-2.6c0,0-0.1,0-0.1-0.1c-0.6-0.4-1.3-0.2-1.8,0.2
					c-0.8,0.6-1.1,2.1-1.5,3.1c-0.5,1.2-1,2.3-1.5,3.5c-0.3,0.8-0.2,1.6,0.5,2.1C475.5,444.1,476.6,444,476.9,443.2L476.9,443.2z"/>
			</g>
		</g>
		<g>
			<g>
				<path class="st2" d="M480.9,434.3c1.2-1.8,2.8-3.3,4.4-4.6c0.6-0.5,0.5-1.6,0-2.1c-0.6-0.6-1.5-0.5-2.1,0
					c-1.9,1.5-3.5,3.2-4.9,5.2C477.1,434.3,479.7,435.8,480.9,434.3L480.9,434.3z"/>
			</g>
		</g>
		<g>
			<g>
				<path class="st2" d="M485.2,421.2c-0.2-4,1.3-7.4,2.1-11.2c0.6-2.7,0.7-5.4,0.7-8.1c0.1-7.9-0.4-15.7-1.5-23.5
					c-0.2-1.9-3.3-1.9-3,0c1,7.8,1.6,15.7,1.5,23.5c-0.1,6.6-3.1,12.7-2.8,19.3C482.3,423.2,485.3,423.2,485.2,421.2L485.2,421.2z"
					/>
			</g>
		</g>
		<g>
			<g>
				<path class="st2" d="M450.7,455.9c3.9-3.2,6.4-8.9,8.8-13.3c2.4-4.2,5.2-8.7,6.6-13.4c0.6-1.8-2.3-2.6-2.9-0.8
					c-1.4,4.4-4.1,8.7-6.3,12.7c-2.3,4.1-4.6,9.6-8.3,12.6C447,455,449.2,457.1,450.7,455.9L450.7,455.9z"/>
			</g>
		</g>
		<g>
			<g>
				<path class="st2" d="M464.9,417.2c0.1,3.8-1.5,7.4-1.2,11.3c0.2,1.9,3.2,1.9,3,0c-0.3-3.8,1.3-7.4,1.2-11.3
					C467.8,415.3,464.8,415.3,464.9,417.2L464.9,417.2z"/>
			</g>
		</g>
		<g>
			<g>
				<path class="st2" d="M470.2,419.1c1.9-2,3.1-4.3,4-6.9c1.4-3.6,3-7,4.5-10.5c3.2-7.3,5-15.5,7.1-23.1c0.5-1.9-2.4-2.7-2.9-0.8
					c-1.9,6.7-3.6,13.5-5.9,20.1c-1.1,3.2-2.9,6.2-4.2,9.3c-1.4,3.4-2.2,7-4.8,9.8C466.8,418.4,468.9,420.5,470.2,419.1L470.2,419.1
					z"/>
			</g>
		</g>
	</g>
</g>
</svg>
