<?xml version="1.0" encoding="utf-8"?>
<!-- Generator: Adobe Illustrator 19.2.0, SVG Export Plug-In . SVG Version: 6.00 Build 0)  -->
<svg version="1.1" id="Layer_1" xmlns="http://www.w3.org/2000/svg" xmlns:xlink="http://www.w3.org/1999/xlink" x="0px" y="0px"
	 viewBox="0 0 739.6 909.9" style="enable-background:new 0 0 739.6 909.9;" xml:space="preserve">
<style type="text/css">
	.st0{fill:#C47546;}
	.st1{fill:#814927;}
	.st2{fill:#3A291D;}
</style>
<g>
	<g>
		<path class="st0" d="M345.9,542c-1.1-0.2-4.1-0.6-4-6.4l0.1-6.6l-3.7,5.5c-0.7,1.1-1.4,2-2.2,2.9c-0.6-1.6-1.1-3.3-1.6-5.2
			l-0.7-3.3l-2.5,2.2c-0.6,0.5-1.2,1.6-1.6,2.3c-0.4,0.7-0.6,1.5-0.8,2.4l-0.1-0.1c-2.3-1.1-4.1-2.8-5.4-4.8l-0.8-1.3l-1.4,0.4
			c-0.1,0-0.3,0-0.5,0c-3.7,0-6.5-2.6-6.5-6.1c0-1.5,0.4-3,0.9-4.5c0.1-0.5,0.3-1,0.4-1.5l1.9-6.7l-5.1,4.7
			c-1.2,1.1-2.3,2.4-3.1,3.7l0,0c-2.6-5-3.5-9.8-2.7-14.5l-3.7-1.4c-2,3.3-4,8-3.5,12.4c-1.9-2.3-3.1-4.9-3.5-7.3l-0.5-4l-2.9,2.9
			c-1.4,1.4-2.3,2-2.9,2.2c0.8-1.5,0.9-3.5,0.9-5.1c0-0.4,0-0.7,0.1-1c0.2-2.2,0.3-4.3,0.4-6.2l-3.8-1c-1.2,2.5-2.6,4.6-4.2,6.5
			c0.1-3.3-0.7-6.4-1.5-9.4c-0.7-2.6-1.4-5-1.4-7.5l-0.1-3.6l-3,2c-0.7,0.4-1.2,1-1.6,1.7c-3.1-4.7-4.7-10.5-4.5-16.4
			c0-0.7,0.1-1.3,0.1-1.9l0.2-1.5l-1.3-0.5l-0.3-0.2l-0.4-0.1c-0.2,0-0.4-0.1-0.7-0.1c-1.3,0-3.4,0.7-3.4,0.7
			c-2.1,0.7-3.4,1.7-4.1,3l-0.1,0c-0.6-2.1-0.8-4.3-0.5-6.5l0.2-1.6l-1.2-0.4c-0.2-1.3-0.8-2.4-1.4-3.4c-0.3-0.4-0.5-0.8-0.8-1.2
			c-0.2-0.3-0.4-0.6-0.7-0.8L256,455l-0.2-0.1l-0.6-0.5l-0.8,0.1l-1.3-0.2l-0.6,1.1c-0.1,0.1-0.1,0.2-0.2,0.4
			c0.4-3.6-0.6-7.2-1.5-10.7c-0.4-1.5-0.8-2.9-1.1-4.2l-0.4-2.1l-2.1,0.6c-0.2,0.1-0.3,0.1-0.5,0.2c-0.7,0.4-1.1,1-1.4,1.4l-0.1,0.1
			c-0.4,0.6-0.7,1.2-1.1,1.9c-1.3-1.9-1.1-4.3-0.8-7c0.2-2.1,0.4-4.2,0-6.4c-1-4.8-1.2-8.7-0.6-12.2c0.1-0.4,0.1-0.7,0.2-1.1
			l0.8-3.8l-3.4,1.3c-0.5,0.2-0.9,0.4-1.3,0.6c-0.8,0.5-1.7,1.1-2.3,1.9c-1.8-5.6-3.2-11-1.1-16.3c0.9-2.3,2.6-4.4,4.3-6.6l1.1-1.3
			l-1-1.1c-0.4-6.4-0.4-12.6,2.4-18.4c2.8-5.8,6.6-11.3,10.3-16.7c0.6-0.8,1.1-1.6,1.7-2.4c0,0.4,0,0.8,0,1.3
			c0.1,3.1,0.2,6.5,1.9,9.4c0.7,1.1,1.5,2.1,2.3,3.1c0.9,1,1.7,2,2.2,3c0.7,1.3,0.9,2.5,1,4c0.4,4,1.1,6.9,2.7,10.4
			c0.3,0.7,0.7,1.5,1.1,2.3c0.9,1.8,1.9,3.7,2.2,5.4c0.2,1.1,0.1,2.3-0.2,3.6l-0.1,0.2l0,0.3c-0.1,6.1,1.4,12,4.6,17.9l0.3,0.5
			l0.3,0.2l0,0.3l0.3,0.5c2.3,3.9,5.3,7.8,9.2,12l0.2,3l3.4-2c1.9-1.1,3.8-2.2,5.5-3.8c1.5,1.7,3,3.3,5,4.5c0.8,0.5,1.6,0.9,2.3,1.3
			c0.9,0.5,1.8,1,2.7,1.5l0.9,0.6l0.8-0.2c1.4,0.4,2.9,1.4,4.6,3l1.7,1.6l1.3-1.9c0.3-0.5,0.7-1,1-1.6l0.1-0.2l0.1-0.2
			c0.3-0.7,0.5-1.4,0.8-1.9l0.4-0.2l0.6-1.1c2.2-3.9,4.2-7.7,7.1-10.9l0.1-0.1l0.2-0.2c4.9-5,12.7-9.3,23.9-13.1
			c4.5-1.6,9-2.5,13.3-3c1.1-0.1,2.2-0.1,3.6-0.1c1.2,0,2.5,0,3.7,0.1c1.3,0,2.5,0.1,3.8,0.1c2,0,3.7-0.1,5.2-0.3
			c1.2-0.2,2.4-0.2,3.7-0.2c7.6,0,15.9,2.9,23.1,5.5l2.8,1c6.6,2.3,14.9,5.2,18.2,10.9l0.1,0.7l0.7,0.6l0,0c3.1,2.8,5.5,6,7.1,9.7
			l0.6,1.4l1.6-0.2c0.9-0.1,1.6-0.1,2.3-0.1c1.6,0,2.9,0.2,4,0.6l1,0.3l0.8-0.6c2.2-1.6,4.6-2.9,7.1-4l0.8-0.2l0.4-0.7
			c0.8-1,1.8-1.8,2.9-2.4l0.2,0c1.4,1.3,3.1,2.4,4.6,3.3l1.2,0.7l1.1-0.9c4.9-2.5,8.9-6.6,11.6-12l0.3-0.6l-0.1-0.4l0.3-0.2l0.3-0.6
			c2.3-5.3,3.7-11.7,3.9-18.9l0.2-0.4l0-0.6c-0.1-1.4,0.2-2.8,1-4.3l0.2-0.4l0-0.3c2.2-3.6,2.7-7.2,3.1-10.8
			c0.3-2.7,0.6-5.3,1.8-7.8c0-0.1,0.1-0.1,0.1-0.2c0.1-0.1,0.1-0.2,0.2-0.3l0.1-0.1l0,0l0.1-0.1c0.9-1.7,2.2-3.4,4-5.3
			c3-3.2,4.2-6.1,3.9-10.3c0.3,0.5,0.6,0.9,0.9,1.4c3.7,5.4,7.5,11,10.3,16.8c2.9,5.8,2.8,12,2.4,18.5l-0.5,1l0.7,1
			c1.8,2.4,3.8,5.4,4.8,8.7c1.3,4.8-0.1,9.8-1.9,15.3l-1.5,0.3l0.2,1.8c0.2,1.4,0.6,2.7,0.9,3.9c0.4,1.4,0.8,2.8,0.8,4.2
			c-0.5-0.3-1.1-0.5-1.6-0.8c-0.4-0.2-0.8-0.4-1.2-0.6l-2-1l-0.8,2.2c-0.1,0.2-0.2,0.5-0.3,0.7c-0.1,0.3-0.2,0.5-0.3,0.8
			c-1,2.9-0.9,5.3-0.7,7.7c0,0.6,0.1,1.2,0.1,1.9c0.1,3.3-1.3,5.8-3.9,6.9l-1,0.4l-0.2,1c-0.2,0.9-0.4,1.7-0.7,2.5l-0.5,0.2
			l-0.2,0.4c-1.1-0.2-2.3-0.5-3.4-0.8l-3.8-1.2l1.3,3.8c0.8,2.5,2,4.7,3.6,6.9l-0.1,0.2l0,0.2c-0.7,0.2-1.4,0.3-2.1,0.3
			c-1.2,0-2.4-0.3-3.7-0.8l-3.8-1.6l1.1,4c1.2,4.5,0.8,8.2-1.1,11.5l0,0c0-0.1-0.1-0.1-0.1-0.2l0.1,0.2l-0.4,0.1l-0.3,0.5l-1.7-0.3
			l2.1-0.8l0.1,0.1l-0.2-0.2l-0.1-0.1l0,0c-0.1-0.1-0.2-0.3-0.3-0.4c-0.5-0.5-1-0.9-1.6-1.4c-0.7-0.5-1.3-0.9-2-1.2
			c-0.2-0.1-0.3-0.2-0.5-0.2l-0.2-0.1c-0.3-0.2-0.7-0.2-0.8-0.2l-0.8-0.1l-0.6,0.4l-1.2,0.5l0,1.3c0,2.7-0.4,5.6-0.8,8.1l0,0.1
			c-0.4-0.1-0.9-0.3-1.3-0.4l-2.6-0.8l0.1,2.7c0.1,2.2,0,4.5-0.4,6.8l0,0l-0.2,0.2c-0.5-0.2-1-0.4-1.4-0.7l-2.6-1.5l-0.3,3
			c-0.2,2-0.8,4-1.3,6.1c-0.9,3.3-1.8,6.8-1.5,10.5l0,0.3c-1.3-0.2-2.5-0.9-3.5-1.9l-2.7-3.1l-0.8,4c-0.2,1-0.4,2.5-0.1,4.1
			c0.2,1.1,0.7,2.1,1.1,3l0.2,0.5c-1.6-0.3-3.1-0.9-4.6-1.7l-2.6-1.4l-0.4,2.9c-0.3,2-1.4,4.1-2.4,5.5c-0.7-1.1-1.6-2.2-2.6-3.2
			l-2.6-2.5l-0.8,3.5c-0.7,3.3-1.9,6.4-3.3,9.1c-0.7-0.2-1.3-0.4-1.9-0.7c-0.2-0.1-0.3-0.2-0.5-0.3c-0.3-0.2-0.8-0.5-1.3-0.7
			l-2.9-1.2l0.2,3.2c0,0.3,0,0.6,0,0.8c-0.4,3.6-3.6,5.5-6.6,5.5c-0.2,0-0.4,0-0.6,0l-1.4-0.4l-0.7,1.3c-1.3,2.1-3.3,3.8-5.6,4.9
			l-0.1,0c0-0.1,0-0.2,0-0.3c0-1.9,0.1-4.8-2-6.2l-2.6-1.8l-0.5,2.9c-0.4,2.5-1,4.5-1.9,6.5h-0.4l-0.2,0.3c-0.6-0.6-1.2-1.1-1.9-1.8
			l-3-2.7l-0.3,4.1c-0.3,4-2.3,4.8-3.7,5.1l-0.4,0.1l-2.4-3.8l-1.8,2.1c-0.3,0.4-0.6,0.7-1,0.9c-0.7,0.5-1.6,0.7-2.4,0.7
			c-1,0-2-0.4-2.7-1.1l-0.5-0.5l0,0c0.9-2,0.8-4,0.5-5.6l-0.6-4.1l-2.8,3.1c-1.9,2.1-3.6,4.4-4,7.7l-0.1,0l-0.3,0.2
			c-0.2,0-0.4,0-0.6,0c-1.8,0-3-0.8-3.7-2.5l-1.2-2.9l-2.1,2.3c-1.1,1.1-2.2,2.1-3.4,2.9l-0.4-0.2c-2.4-2-4.4-5.1-5.4-8.7l-0.5-1.6
			l-1.6,0.1c-0.2,0-0.3,0-0.5,0c-2.4,0-3.7,3.2-4,4.2c-0.6,1.8-0.5,3.6,0.4,5.2l0,0.2l0,0.1c-0.7,0.8-1.7,1.2-2.8,1.2
			c-0.8,0-1.7-0.3-2.4-0.8c-0.4-0.3-0.8-0.6-1.1-1.1l-2.4-3.1l-0.3,0.9h-0.5l-0.6,0.2l0.7-0.1v0.5l-0.6,2.6
			c-0.1,0.4-0.1,0.7-0.2,0.9L345.9,542z M384.7,450c0.7,1.9-0.3,4-0.3,6.1c0,1.5,0,3,0.2,4.7c0.3,2.6,1.5,4.5,2.6,6.2
			c0.6,0.9,1.1,1.8,1.5,2.7l1.8,4.4l1.8-4c1.4-0.6,2.5-0.9,3.8-0.9c0.3,0,0.5,0,0.8,0c0.5,0.1,1.1,0.2,1.7,0.4
			c0.8,0.3,1.8,0.6,2.9,0.6l0.5,0l0.2-0.1l0.2,0.1l0.5-0.1c1.1-0.2,2.1-0.6,3-1c0.4-0.2,0.7-0.3,1.1-0.4l0.4-0.1
			c6.6-2.3,13.4-4.7,19.1-9.3l1.3-1.1l-0.8-1.5c-0.9-1.5-1.7-3.2-2.6-4.9c-3.1-5.9-6.5-12.6-12-16.2c-4.1-2.7-9.2-4.4-14-6l-1.3-0.4
			l-0.2,0.1l-0.2-0.2l-0.5-0.2c-1.1-0.4-2.2-0.8-3.3-1.2c-4.9-1.8-10.1-2.9-15.1-3.9c-1.9-0.4-3.7-0.7-5.5-1.2l-0.5-0.1l-0.6,0.2
			l-5,1.1l-0.1,0.1l-0.2,0l-0.2,0.1c-10.4,2.3-20.5,4.7-29.7,9.1c-7,3.4-10.6,8.6-14.5,14.1c-0.9,1.3-1.9,2.7-2.9,4
			c-1.2,1.6-2.4,3.2-3.6,4.8l-1.4,1.8l2.4,1.4l0.1,0l0.1,0.1l0.3,0.1c8.9,5.1,17.7,9.8,26.6,9.8c4.6,0,8.8-1.3,12.5-3.8l1.5,0.8
			l0.9-2c1.1-2.5,0.9-5,0.8-7.4c-0.1-2,0.8-3.9,1.5-5.6l0.6-0.4l0.1-0.3c3.1-0.5,6.6-0.7,10.9-0.7c2.3,0,4.6,0.1,6.9,0.1
			C380.4,449.9,382.6,450,384.7,450z"/>
	</g>
	<g>
		<path class="st1" d="M506.4,408.3c-0.4-4.7-2.7-7.3-6.6-11.1c-6.3-6.2-15-15.8-17.9-26.7l-0.1-0.4l0.2-0.3c0.5-1,1.1-1.9,1.8-2.8
			c0.4-0.5,0.8-0.9,1.1-1.2l1.1-1.1l0.6,1.4c2.7,6.6,6.6,13.3,12.5,21c0.7,0.9,1.4,1.8,2.1,2.7c1.3,1.7,2.7,3.4,3.9,5.2
			c2.8,4.2,3.9,8.4,3.4,13.3L506.4,408.3z"/>
		<path class="st1" d="M453,510.6c-1.9-0.6-3.8-1.7-5.5-3.1l-0.4-0.3l0-0.5c0-0.1,0-0.1-0.1-0.3c-3.5-5.7-2-12.8-0.7-19.1
			c0.2-1,0.4-1.9,0.6-2.9l0.7-3.5l1.3,3.3c0.5,1.3,1.1,2.6,1.9,4c0.3,0.5,0.6,1,0.9,1.4c1.1,1.8,2.3,3.8,2.7,5.9
			c0.5,2.3,0,4.2-0.5,6c-0.2,0.9-0.5,1.9-0.6,2.8c-0.2,1.6,0.2,3.1,1,4.9l0.8,2L453,510.6z"/>
		<path class="st1" d="M442.3,501.3c-0.6-0.9-1.1-1.9-1.7-2.9c-0.1-0.1-0.1-0.2-0.2-0.2L440,498l-0.1-0.5c-0.6-2.3-1.5-4.4-2.5-6.2
			c-0.9-1.5-2-2.4-3.2-3.5c-0.8-0.7-1.7-1.4-2.5-2.4c-2.8-3.2-1.5-7.1-0.4-10.5c0.4-1.3,0.9-2.5,1-3.7c0.2-1.5,0.3-3,0.1-4.5l0-0.2
			l0.1-0.2c1-3.1,1.5-6.2,1.7-9.2l0.1-2.3l1.6,1.6c1.3,1.3,2.8,2.4,4.5,3.5c1.7,1.1,3.4,2.3,5,3.8c0.5,0.5,1,1,1.3,1.6l0.3,0.4
			l-0.2,0.5c0,0.1,0,0.2,0,0.3c1.5,6.7,0.2,13.2-1,19.5c-0.4,2.2-0.9,4.5-1.2,6.8c-0.4,3.1-0.5,5.5-0.3,7.7L442.3,501.3z"/>
		<path class="st1" d="M322.2,442.9c-1.1-5.1-3.2-17.8,2.9-27l0.1-0.2l0.2-0.2c2.8-2,6.2-4,10.1-5.7l1.2,1.5
			c-5.7,7.5-8.5,16.5-8.1,26l0.1,0.5l-0.4,0.4c-1.4,1.4-2.8,3-4.3,5.1l-1.3,1.8L322.2,442.9z"/>
		<path class="st1" d="M341.1,429.2c0.5-7.8,2.9-15.2,7.2-21.9l1.8,0.9c-2.1,6.1-2.7,12.6-1.8,19.2l0.1,0.8l-0.8,0.3
			c-1.8,0.6-3.5,1.1-5.1,1.7l-1.5,0.5L341.1,429.2z"/>
		<path class="st1" d="M375,423.2c-1-0.2-1.9-0.4-2.8-0.6c0,0-0.1,0-0.1,0c-0.1,0-0.1,0-0.2,0l-0.3,0.1l-0.3-0.1c0,0-0.1,0-0.1,0
			c0,0-0.1,0-0.1,0l-3.1,0.7l1.3-2c0.8-1.2,1.4-2.6,1.8-4l0.7-2.3l1.1,2.1c0.8,1.5,1.9,3,3.1,4.4l2,2.3L375,423.2z"/>
		<path class="st1" d="M418.2,441.5c-1.5-2.1-3-3.7-4.6-5l-0.5-0.4l0.2-0.6c0-0.1,0-0.2,0-0.3c-2-7.4-3.7-15-4.9-22.8l-0.3-1.8
			l2,0.9c0.1,0.1,0.3,0.1,0.4,0.2l1,0.4c1.8,0.8,3.9,1.8,5.8,2.9l0.3,0.2l0.1,0.3c3,8.3,3.8,16.9,2.4,25.5l-0.4,2.4L418.2,441.5z"/>
		<path class="st1" d="M402.4,431.2l-1.8-0.6c-1.2-0.4-2.4-0.8-3.5-1.2l-0.2-0.1l-0.2-0.2c-4.9-5.5-7.3-13.3-7-23.2l0-1.3l1.2,0.3
			c2.5,0.7,4.7,1.3,6.7,1.9l1.2,0.4l0,0.8c-0.2,4.2-0.1,14.6,4.7,21.6l1.7,2.5L402.4,431.2z"/>
		<path class="st1" d="M349.2,426.7c-1-7.8,0.2-15.3,3.5-22.4l0.2-0.5l0.5-0.1c1.8-0.3,3.6-0.6,5.3-0.7l1.5-0.1l-0.5,1.4
			c0,0.1,0,0.1,0,0.2c0.5,7.2-0.6,14.2-3.2,21l-0.2,0.5l-0.5,0.1c-1.9,0.5-3.7,1-5.3,1.4l-1.1,0.3L349.2,426.7z"/>
		<path class="st1" d="M251.8,399.1c1-3.9,3-7.4,5-10.9c1.5-2.6,3-5.2,4-7.9l1-2.7l0.9,2.8c0.2,0.6,0.4,1.2,0.7,1.9l0.1,0.2l0,0.3
			c0,0,0,0.1,0,0.1c0.4,8.8-5.2,13.3-10.1,17.2l-2.3,1.8L251.8,399.1z"/>
		<path class="st1" d="M244.9,405.7c-1.7-8.6-0.1-17,1.5-22.5c1-3.3,2.6-6.2,4.3-9c1.7-3,3.4-5.9,4.2-9.1l0.6-2.2
			c0,0,1.4,2.1,1.5,2.2c0.4,0.6,0.9,1.2,1.3,1.7c1.2,1.5,2.4,3,3,5.1l0.1,0.5l-0.3,0.4c0,0.1-0.1,0.1,0,0.2
			c0.3,5.7-2.6,10.8-5.5,15.7c-2.3,3.9-4.6,7.9-5.2,12.1c0,0.2,0,0.3,0.1,0.4l0.5,0.8l-0.8,0.7c-0.3,0.2-0.6,0.5-0.8,0.7
			c-1,0.8-1.9,1.8-2.8,2.8l-1.3,1.6L244.9,405.7z"/>
		<path class="st1" d="M236.2,414.7c-1.7-5.8-2.7-12.9,2.6-20.5c0.9-1.3,1.9-2.5,2.8-3.6l2.6-3.2l-0.5,3.5
			c-0.9,6.4-0.6,12.3,0.8,17.6l0.1,0.4l-0.2,0.4c-0.6,1.1-1.2,2.2-1.6,3.4l-0.2,0.5l-0.6,0.1c-1.6,0.2-2.8,0.8-3.9,1.6
			c-0.1,0.1-0.3,0.2-0.4,0.3l-1.2,0.9L236.2,414.7z"/>
		<path class="st1" d="M258.2,458.4c-0.3-0.6-0.7-1.2-1.1-1.8c-0.7-1-1.2-1.6-1.9-1.9l-1-0.4l0.4-0.9c0.8-1.7,1.4-3.4,1.7-5.1
			c0.3-1.3,0.4-2.6,0.5-3.9c0.3-2.7,0.5-5.6,2.3-8.4c1.3-2,1.5-3.7,1.8-5.6c0.2-1.1,0.4-2.2,0.7-3.5c1.3-5,6.4-8.6,10.2-10.8
			l0.9-0.5l0.5,0.9c1.1,1.8,2.3,3.6,3.7,5.4l0.7,0.9l-1,0.6c-6.5,3.6-10.5,10.6-10.2,17.8c0.2,3.8-0.5,6.2-2.5,9.5
			c-1.2,2-2.5,4.1-3.4,6.4c-0.2,0.4-0.3,0.9-0.5,1.3l-0.8,2.3L258.2,458.4z"/>
		<polygon class="st1" points="267.3,465.2 267.3,465.2 268.5,465.1 269,465 269,463.9 271.3,463.9 269,465.7 267.7,467 		"/>
		<path class="st1" d="M272.1,480.1c-1.4-4-1.8-8.2-1.4-12.3c0.4-3.4,1.5-5.9,3.5-8.1l0.6-0.6c1.4-1.5,2.4-2.6,3-4.5
			c1-3,0.7-6,0.4-9.3c-0.2-2.1-0.4-4.2-0.2-6.3c0.5-5.8,4.5-8.2,8.4-10.6c1.4-0.8,2.8-1.7,4.1-2.7l0.7-0.6l0.6,0.7
			c0.6,0.7,1.2,1.3,1.7,1.8l1,0.9l-1.2,0.7c-3.8,2.1-6.6,4.8-8.2,8.2c-1.6,3.2-1.5,6.4-1.5,9.7c0,2.3,0.1,4.7-0.4,7.1
			c-0.7,3.3-2.4,6.3-4.1,9.1c-1.3,2.1-2.6,4.3-3.3,6.5c-1.1,3.1-1.7,6.5-1.8,10L272.1,480.1z"/>
		<path class="st1" d="M282.7,500.4c-0.3-1.9-0.8-3.8-1.4-5.7c-1-3.6-2.1-7.3-1.2-11.4c0.7-3.2,2.6-5.6,4.4-7.9
			c1.8-2.3,3.5-4.5,4.2-7.4l0.2-0.8c0.7-3.2,1.2-5.7,3.2-8.8l0.4-0.6c1.4-2.1,2.4-3.6,2.7-6.1c0.2-1.5,0.1-2.9-0.1-4.5
			c-0.1-0.9-0.2-1.9-0.2-2.8c-0.1-6.4,3.6-9,8-11.5l0.4-0.2l0.5,0.2c1.3,0.5,2.6,1.5,4,2.9l0.8,0.6l-0.6,0.8c-0.8,1-1.7,2-2.5,3
			c-1.1,1.3-2.3,2.7-3.4,4.2c-4.3,5.7-7.2,13.2-9.2,23.5c-1.5,7.6-2.2,15.4-2.6,21.2l0,0.5l-0.4,0.3c-0.1,0.1-0.2,0.1-0.2,0.3
			c-1.6,4.4-3.2,7.7-5.1,10.5L283,503L282.7,500.4z"/>
		<path class="st1" d="M308.3,518.1c-4.1-9-1-16.5,2.2-24.4c0.5-1.3,1.1-2.7,1.6-4.1c1.7-4.4,2.2-8,1.7-11.4
			c-0.2-1.4-0.6-2.9-0.9-4.3c-1.2-4.9-2.5-10,2.7-14.1l0.5-0.4l0.6,0.3c1.5,0.9,3.6,2,5.7,3.2l0.8,0.4l-0.3,0.8
			c-2.4,6.6-3,13.3-2,20.5c0.8,5.9-0.5,8.7-4,13.2c-1.4,1.8-2.7,3.6-3.1,5.9c-0.3,1.8,0.1,3.6,0.5,5.6c0.3,1.3,0.6,2.6,0.7,3.9
			l0,0.6l-0.5,0.3c-1.8,1.2-3.3,2.6-4.6,4.3l-1,1.3L308.3,518.1z"/>
		<path class="st1" d="M327.8,535.2c-10.7-6-5-16.4-0.4-24.7c1.9-3.5,3.7-6.7,4.4-9.5c1.1-4.5,0.2-7.3-2.1-11.7
			c-2.4-4.5-1.4-7.7,0.1-11.5c1.2-3.1,2.2-6.2,2.9-9.4l0.2-1.1l1,0.3c1.8,0.6,3.6,1,5.4,1.2l1.7,0.2l-1.1,1.4
			c-2.7,3.3-4.1,7.1-4.3,10.9c-0.1,2.7,0.5,5.2,1.3,8.2c1.4,5.4,1.7,9.4-0.8,14.1c-3,5.6-4,9.6-3.8,15.5c0.1,3.1,0.2,6.7,0.8,10.2
			l0.1,1l-1.1,0.2c-0.7,0.2-1.4,1-2.2,2.5c-0.2,0.5-0.4,1-0.6,1.6l-0.4,1.2L327.8,535.2z"/>
		<path class="st1" d="M345.3,541.9c-4.5-0.9-3.7-6.4-3.1-10c0.2-1.2,0.4-2.2,0.3-3c0-2.2-0.8-4.1-1.6-6.1c-0.2-0.5-0.4-1.1-0.6-1.7
			c-2.1-5.9,0.6-9.3,3.3-12.6c1.3-1.6,2.6-3.2,3.5-5.2c1.9-4.2,0.9-8.7-0.5-13.7c-0.1-0.5-0.3-1-0.4-1.5c-0.7-2.6-1.5-5.3-1.6-8
			c-0.1-2.9,0.9-5.4,1.9-7.8c0.4-1,0.8-2.1,1.1-3.1l0.2-0.5l0.5-0.1c1.6-0.4,3.2-1,4.7-1.8l3-1.6l-1.7,3c-1.1,2-1.6,3.6-1,6.3
			c0.4,2,1.4,4,2.4,5.9c1.8,3.6,3.7,7.3,2.3,11.8c-0.5,1.8-1.3,3.3-2,4.8c-1.3,2.7-2.5,5.2-2.3,8.4c0,1,0.3,2,0.5,3
			c0.4,2.1,0.9,4.2,0.1,6.5c-0.6,1.6-1.6,2.8-2.7,4c-0.6,0.7-1.1,1.3-1.6,2c-2.2,3.3-3.1,7.8-2.8,13.4c0.1,1.1,0.2,2.2,0.5,3.1
			l0.1,0.5l-0.4,0.4c-0.2,0.2-0.3,0.4-0.4,0.7c-0.1,0.3-0.2,0.7-0.3,1.1l-0.6,2.1L345.3,541.9z"/>
		<path class="st1" d="M347.4,540C347.4,540,347.4,540,347.4,540c0,0-0.1,0-0.1,0C347.3,540,347.3,540,347.4,540z"/>
		<path class="st1" d="M390,541.1c-0.7,0-1.6-0.1-2.5-0.3l-1-0.3l0.3-1c0.6-2.1,0.3-4.4-0.1-6.6c0,0,0-0.1,0-0.1l-0.3-0.6l0.4-0.5
			c0.6-0.7,1.1-1.3,1.5-1.8c1.5-2.1,2.4-4.6,2.6-7.3l0.3-2.9l1.6,2.5c0.6,0.9,1,1.7,1.2,2.5c0.8,2.2,1.1,4.8,1,8.3
			c0,1.3-0.1,2.6-0.4,4C394.3,539.6,392.6,541.1,390,541.1z"/>
		<path class="st1" d="M395.6,539.4c0,0-0.1-0.1-0.1-0.1l-0.5-0.4l0.2-0.6c0.4-1.2,0.6-2.5,0.7-4.1c0.4-5.8-0.7-10.5-3.1-13.9
			c-0.4-0.6-0.9-1.2-1.4-1.8c-1.2-1.4-2.5-2.9-3-4.8c-0.4-1.8,0-3.8,0.5-5.8c0.3-1.4,0.6-2.8,0.6-4c-0.1-2.6-1.2-4.8-2.3-7.1
			c-1-1.9-1.9-3.9-2.4-6.2c-0.7-3.9,1-7.3,2.7-10.5c1.2-2.4,2.4-4.7,2.6-7.2c0.1-0.7,0-1.3-0.1-2l-0.5-2.9l2.2,1.9
			c0.1,0.1,0.2,0.2,0.4,0.2c0.1,0,0.2,0,0.2-0.1c0.8-0.4,1.7-0.6,2.5-0.6l0.8-0.1l0.3,0.7c0.3,0.8,0.6,1.5,0.9,2.2
			c0.9,2.2,1.8,4.5,1.9,7.1c0.1,3-0.8,6-1.6,8.8c-0.1,0.5-0.3,1-0.4,1.5c-1.4,5-2.4,9.5-0.5,13.7c0.9,2,2.2,3.6,3.5,5.2
			c2.7,3.3,5.4,6.8,3.3,12.6c-0.2,0.6-0.4,1.2-0.7,1.7c-0.7,1.8-1.4,3.4-1.5,5.3c-0.1,0.9,0.1,2.2,0.3,3.6c0.6,3.9,1.4,9.3-3.1,10.2
			l-0.7,0.1L395.6,539.4z"/>
		<path class="st1" d="M414,534.3c-0.2-2.8-0.7-4.8-2.9-5.5l-0.8-0.2l0.1-0.8c0.3-3,0.5-6,0.5-8.6c0.2-5.9-0.9-10-3.8-15.5
			c-2.8-5.1-1.7-9.7-0.6-14.2c0.6-2.6,1.3-5.3,1.1-8.1c-0.2-3.6-1.4-7-3.7-10.1l-0.8-1.2l1.4-0.4c1.6-0.5,3.3-1.2,4.8-1.8l1.1-0.4
			l0.3,1.1c0.4,1.6,1,3.3,1.7,5.1c1.9,5,4,10.6,1.5,15c-2.4,4.3-3.8,7.2-2.5,12.2c0.7,2.8,2.5,6,4.4,9.5c4.6,8.3,10.2,18.6-0.3,24.7
			l-1.4,0.8L414,534.3z"/>
		<path class="st1" d="M444.1,515.5c-0.8-1.1-1.6-2-2.5-2.8c-0.1-0.1-0.2-0.1-0.3-0.1l-1-0.2l0.1-1c0.4-2.5,0.5-4.9,0.4-7.3
			l-0.2-3.4l2,2.7c1.4,1.9,2.9,3.6,4.5,4.9l0.5,0.4l-0.1,0.6c0,0.1,0,0.2,0,0.2c0.3,2-0.8,4.3-1.7,5.8l-0.8,1.3L444.1,515.5z"/>
		<path class="st1" d="M466.6,486.2c-0.6-0.3-1.1-0.6-1.6-1l-0.5-0.2l-0.1-0.5c0-0.4-0.1-0.9-0.2-1.3c-0.5-2.4-1.6-4.4-3.8-6.9
			c-3.3-3.8-4.3-6.6-5.3-11.3c-0.6-2.8-1.7-4.6-3.2-6.9l-0.6-1c-2.1-3.4-2-6.5-1.8-9.9c0-1,0.1-2.1,0.1-3.2c-0.1-5.4-3.1-8.3-7.5-11
			l-1.4-0.8l1.4-0.9c1.6-1,3.4-2,5.3-2.8l0.4-0.2l0.4,0.2c5.4,2.7,9,7.2,10.3,12.6c0.6,2.5,0.5,4.9,0.4,7.3
			c-0.1,2.6-0.2,5.1,0.6,7.6c0.7,2.3,2,4.3,3.3,6.5c0.7,1.2,1.5,2.5,2.2,3.8c2.9,5.8,4,12.4,3.2,19.2l-0.2,1.5L466.6,486.2z"/>
		<path class="st1" d="M471.1,477.7c-0.4-0.1-0.9-0.2-1.3-0.4l-0.7-0.2l-0.1-0.7c-0.3-2-0.7-4.1-1.3-5.9c-0.8-2.5-2.2-4.8-3.6-7.1
			c-1.7-2.9-3.5-5.9-4.2-9.2c-0.5-2.5-0.5-4.9-0.4-7.3c0.1-3.2,0.1-6.2-1.2-9.2c-1.7-4-4.7-7.3-8.6-9.6l-1.2-0.7l1-0.9
			c0.5-0.5,1-0.9,1.6-1.3l0.6-0.4l0.6,0.5c1.3,1.1,2.8,1.9,4.3,2.8c2.5,1.4,5.1,2.8,6.7,5.3c2.4,3.6,2,7.8,1.7,12
			c-0.2,1.6-0.3,3.2-0.3,4.7c0.1,3.6,1.1,6.3,3.3,8.7c5.1,5.5,5.4,11,4.3,18.2l-0.2,1.1L471.1,477.7z"/>
		<path class="st1" d="M489.2,458.9c-2.4,0-4.8-1.3-5.6-1.9c-0.1-0.1-0.2-0.1-0.2-0.1l-0.7,0l-0.2-0.6c-0.7-1.9-1.6-3.8-2.4-5.6
			c-0.4-1-0.9-1.9-1.3-2.9c-1.6-3.6-2.4-6.7-2.6-10.2c0-0.6,0-1.1-0.1-1.7c0-1.5-0.1-3-0.5-4.4c-0.9-2.9-3.3-5-5.7-7
			c-0.8-0.7-1.7-1.5-2.5-2.3l-0.6-0.6l0.5-0.7c1-1.4,2-2.8,2.8-4.3l0.5-0.9l0.9,0.6c3.6,2.3,8.6,5.8,10,10.7
			c0.4,1.3,0.5,2.4,0.7,3.5c0.3,1.9,0.6,3.6,1.8,5.6c1.7,2.8,2,5.6,2.3,8.4c0.1,1.3,0.2,2.6,0.5,3.9c0.6,3.1,1.9,6.1,4,9l0.9,1.3
			l-1.6,0.2C489.8,458.9,489.5,458.9,489.2,458.9z"/>
		<path class="st1" d="M496.4,443.1c0.1-2.3-0.2-4.5-0.8-6.7c-0.3-1-0.8-2-1.4-3.1c-0.6-1.2-1.2-2.4-1.6-3.7
			c-0.5-1.7-0.4-3.5-0.4-5.2c0-1.4,0-2.7-0.2-3.9c-0.7-4.3-2.7-8.4-5.6-11.9c-0.9-1.1-2.2-2.2-3.5-3.4c-4.3-3.9-9.7-8.7-6.6-15.1
			c0-0.1,0.1-0.2,0.1-0.2l0-0.3l0.2-0.3l0.1-0.1c0.3-0.5,0.7-1.2,1-2l1.1-2.6l0.7,2.7c0.7,2.7,2,5.2,3.8,7.6
			c1.7,2.3,3.7,4.3,6.2,6.3c0.5,0.4,1.2,0.9,1.8,1.3c2.8,1.9,6.2,4.3,6.3,8.1c0,1.2-0.3,2.3-0.6,3.4c-0.4,1.4-0.7,2.6-0.3,3.8
			c0.4,1.2,1.2,1.9,2,2.7c1.4,1.3,2.9,2.8,2.4,6.3c-0.2,1.2-0.6,2.3-1,3.3c-0.5,1.4-1,2.7-0.9,4.2c0.1,0.5,0.1,1.1,0.2,1.6
			c0.4,2.6,0.8,5.7-1.5,7.6l-1.8,1.5L496.4,443.1z"/>
		<path class="st1" d="M479.4,473.9l-0.3-0.2c-0.3-0.3-0.3-0.7-0.3-1l0.1-2.3l1.7,1.7l0.1,0.1l0.2,0.2l0,0.3l0.1,0.3l-0.1,0.4
			l-0.2,0.5l-0.7-0.1H479.4z"/>
	</g>
	<g>
		<g>
			<g>
				<path class="st2" d="M426.3,460c7.2,4.9,2.7,12.7,1.7,19.2c-0.9,5.9,2.5,7,5.9,10.8c7.5,8.3,5.6,24.2,0.6,33.2
					c-0.9,1.7,1.7,3.2,2.6,1.5c5.3-9.6,6.8-24.2,1-34c-1.6-2.7-3.9-3.8-5.9-6c-3.5-3.9,0.3-9.2,0.9-13.3c0.8-5.5-0.7-10.8-5.4-14
					C426.2,456.3,424.7,458.9,426.3,460L426.3,460z"/>
			</g>
		</g>
		<g>
			<g>
				<path class="st2" d="M418.2,464c2.7,7.1,3.1,14,2,21.5c-0.6,4.1-0.2,7.2,2.3,10.6c1.4,1.9,3.3,3.6,4.3,5.8
					c1.6,3.7-0.2,7-0.6,10.7c-0.6,5.3,6.2,17.2-4.2,16.4c-1.9-0.2-1.9,2.8,0,3c4.5,0.4,8.8-2.6,9.3-7.3c0.3-3.2-1.6-6-2-9
					c-0.6-4.2,2-8,1.3-12.2c-0.4-2.2-1.6-4.1-2.9-5.8c-3.2-4.2-5.1-6.5-4.3-12.1c1.1-7.8,0.6-14.9-2.1-22.3
					C420.4,461.4,417.5,462.2,418.2,464L418.2,464z"/>
			</g>
		</g>
		<g>
			<g>
				<path class="st2" d="M409.5,468.1c1.2,6,6.7,14.4,3.6,20.1c-2.5,4.5-3.9,7.6-2.6,12.9c2.6,10.4,19.2,26.3,3.1,33.8
					c-1.7,0.8-0.2,3.4,1.5,2.6c4.6-2.1,8-6.4,8.5-11.5c0.6-6.4-3.2-12.1-6.4-17.3c-2.1-3.5-4.3-7.6-4.3-11.8c0-4.3,3-6.2,4.3-9.8
					c0.9-2.9,0-5.6-1.1-8.3c-1.5-3.8-2.8-7.5-3.6-11.5C412,465.5,409.2,466.3,409.5,468.1L409.5,468.1z"/>
			</g>
		</g>
		<g>
			<g>
				<path class="st2" d="M360.5,451.5c8-1.4,16.5-0.4,24.6-0.5c1.9,0,1.9-3,0-3c-8.4,0-17.1-0.9-25.4,0.6
					C357.8,448.9,358.6,451.8,360.5,451.5L360.5,451.5z"/>
			</g>
		</g>
		<g>
			<g>
				<path class="st2" d="M383.7,450c2.1,5.1-1.4,10.8,1.4,15.8c1.9,3.4,3.8,5.3,2.6,9.4c-0.7,2.5-2.2,4.7-3.3,7
					c-1.4,3.1-2.1,6.3-1.2,9.7c1.1,4,3.9,7.2,4.3,11.4c0.4,3.9-2,7.7-0.7,11.6c1.1,3.4,4.2,5.6,5.7,8.8c1.2,2.6,1.5,5.5,1.6,8.4
					c0,1.2,0,2.3-0.2,3.5c-0.3,1.7-2.2,9.5-6.5,4.2c-1.2-1.5-3.3,0.6-2.1,2.1c2,2.4,5.4,2.8,8,1.1c2.8-1.9,3.6-5.4,3.8-8.6
					c0.3-5.1-0.3-10.4-3.3-14.6c-1.4-2-3.6-3.8-4.2-6.3c-0.7-2.8,1.2-6.6,1.1-9.6c-0.2-5.1-3.8-8.6-4.7-13.4
					c-1.1-6.3,4.8-11.3,5.3-17.5c0.5-5.2-3.9-7.3-4.4-12c-0.4-3.9,1.4-7.8-0.2-11.7C385.8,447.4,382.9,448.2,383.7,450L383.7,450z"
					/>
			</g>
		</g>
		<g>
			<g>
				<path class="st2" d="M375.6,450.4c-0.2,3.3-0.6,6.6-0.7,10c-0.1,3.9,0.7,6.4,1.7,10.1c1.6,5.7-2.2,9.8-3.6,14.9
					c-1.2,4.4,0,8.5,1.7,12.6c2.2,5.1,4,9.9,3.8,15.6c-0.2,6.3-2.6,11-5.1,16.6c-2.3,5.1-1.6,14.1,5.9,13.4c1.9-0.2,1.9-3.2,0-3
					c-9.1,0.9-1.5-12.2-0.2-15.3c1.5-3.7,2.3-7.7,2.4-11.7c0.1-3.4-0.4-6.9-1.4-10.2c-1.4-4.6-4.5-8.9-4.7-13.7
					c-0.2-7.8,6.5-12.5,3.8-20.7c-2-6.3-1.1-12.1-0.7-18.6C378.7,448.4,375.7,448.4,375.6,450.4L375.6,450.4z"/>
			</g>
		</g>
		<g>
			<g>
				<path class="st2" d="M368.8,450c0.4,8,0.1,16.3-1.7,24.2c-1,4.4-2.6,7.6-5.1,11.3c-2.1,3.1-3.2,6.1-2.4,9.9
					c0.9,4,3.5,7.3,4.6,11.3c1.5,5.5-1.7,9.7-3.5,14.5c-2.7,7,0,16.8,5.9,21.6c1.5,1.2,3.6-0.9,2.1-2.1c-3.8-3.1-6.6-9.8-6.2-14.8
					c0.4-4.2,3.2-7.8,4.5-11.8c1-3.2,0.8-6.3-0.3-9.5c-1.5-4-4.9-8.2-4.3-12.5c0.5-4,4.1-7,5.7-10.7c1.4-3.2,2.1-6.7,2.6-10.2
					c1.1-7,1.4-14.1,1.1-21.1C371.7,448.1,368.7,448.1,368.8,450L368.8,450z"/>
			</g>
		</g>
		<g>
			<g>
				<path class="st2" d="M394.6,469.2c1,3.5,3,6.5,3.1,10.2c0.1,3.4-1.1,6.8-2,10c-1.3,4.7-2.5,9.7-0.5,14.4c2.8,6.3,9.6,9.1,6.7,17
					c-0.9,2.4-2.1,4.7-2.3,7.3c-0.3,3.6,3.2,12.4-2.4,13c-1.9,0.2-1.9,3.2,0,3c5.9-0.6,6.5-6.4,5.8-11.3c-0.8-5.7,1.5-8.6,2.6-13.9
					c0.5-2.7,0.1-5.2-1.3-7.6c-2-3.4-5.6-5.8-6.8-9.7c-1.3-4.2,0.3-8.7,1.4-12.7c0.9-3.3,1.9-6.7,1.7-10.1
					c-0.2-3.7-2.2-6.8-3.2-10.3C396.9,466.5,394,467.3,394.6,469.2L394.6,469.2z"/>
			</g>
		</g>
		<g>
			<g>
				<path class="st2" d="M400.9,470.7c5,5.4,5.3,11.5,3.5,18.3c-1.1,4.4-2.2,8.5-0.5,12.9c1.1,2.9,3.3,5.2,4.2,8.2
					c0.8,2.7,0.9,5.5,0.8,8.3c-0.1,6.5-0.5,13-3,19.1c-0.7,1.8,2.2,2.6,2.9,0.8c2.5-6.1,2.9-12.6,3.1-19.1c0.2-6.2-1-10.6-3.9-16
					c-4.2-7.7,1-14,0.6-21.9c-0.2-4.9-2.3-9.2-5.6-12.8C401.8,467.2,399.6,469.3,400.9,470.7L400.9,470.7z"/>
			</g>
		</g>
		<g>
			<g>
				<path class="st2" d="M457.1,511c-0.5-1.2-1.2-2.5-1.5-3.8c-0.6-2.9,0.9-5.3,1.1-8.2c0.3-3.7-1.3-6.9-3-10
					c-1.3-2.3-2.8-4.6-3.5-7.2c-0.7-2.7-0.1-5.6,0-8.3c0.2-3.4-0.1-6.7-2.2-9.5c-2-2.6-4.9-4.1-7.5-5.9c-5-3.5-5.9-7.4-5.6-13.3
					c0.4-9.7-3.2-18.6-10.5-25.1c-1.4-1.3-3.6,0.8-2.1,2.1c4.2,3.8,7.3,8.4,8.8,14c1.4,5.2-0.1,10.3,0.9,15.5
					c1.4,7.3,8,8.8,12.6,13.3c3.8,3.7,2.4,8.7,2.3,13.5c-0.1,4,1.2,7.2,3.1,10.6c1.2,2.2,3,4.6,3.5,7.1c0.6,3.2-0.8,5.6-1.1,8.6
					c-0.3,2.7,0.9,5.1,1.9,7.5C454.9,513.6,457.8,512.8,457.1,511L457.1,511z"/>
			</g>
		</g>
		<g>
			<g>
				<path class="st2" d="M439.9,434c4.1,2.3,7.5,4.7,7.6,9.9c0,2.7-0.6,5.4-0.3,8.2c0.3,2.9,1.6,4.7,3.2,7.1c2,3,2.5,5.8,3.2,9.2
					c1.3,6.2,7.3,9.3,8.6,15.3c1.5,7.2-3.6,13.5-2.7,20.7c0.2,1.9,3.2,1.9,3,0c-1-7.3,4.2-13.9,2.5-21.5c-0.6-2.9-2.1-5.1-4-7.3
					c-3.2-3.7-4.1-6.2-5.1-10.9c-0.7-3.4-2.1-5.3-3.9-8.2c-2.6-4.2-1.5-7.9-1.6-12.5c-0.1-6.3-3.9-9.6-9.1-12.5
					C439.7,430.5,438.2,433,439.9,434L439.9,434z"/>
			</g>
		</g>
		<g>
			<g>
				<path class="st2" d="M447.2,429.1c5,2.4,8.9,6.6,10.2,12.2c1.2,4.9-0.5,10.1,1,15c1.2,3.8,3.7,6.9,5.5,10.4c3.1,6.1,4,13,3,19.8
					c-0.3,1.9,2.6,2.7,2.9,0.8c0.9-5.7,0.6-11.4-1.2-17c-1.9-5.7-6.5-10.4-7.7-16.3c-1.2-5.7,0.7-11.1-1.7-16.7
					c-2.1-4.9-5.8-8.6-10.5-10.8C447,425.7,445.5,428.3,447.2,429.1L447.2,429.1z"/>
			</g>
		</g>
		<g>
			<g>
				<path class="st2" d="M450.9,425.4c3.4,3.4,8.9,4.6,11.6,8.5c3.2,4.6,1.1,10.9,1.2,16.1c0.1,3.6,1.1,6.7,3.6,9.3
					c5.3,5.7,5.1,11.5,3.8,18.8c-0.3,1.9,2.6,2.7,2.9,0.8c0.9-5.1,1.8-10.6-0.1-15.6c-1-2.6-2.6-4-4.5-6.1c-2.6-2.9-2.8-6.3-2.6-9.9
					c0.2-4.6,1.2-9.7-1.1-14c-2.7-5.1-8.8-6.2-12.7-10C451.6,421.9,449.5,424.1,450.9,425.4L450.9,425.4z"/>
			</g>
		</g>
		<g>
			<g>
				<path class="st2" d="M465.9,423.6c3.4,3.4,7.5,5.7,8.2,10.9c0.5,3.9,0.2,7.3,1.6,11.1c2.9,8.2,10.3,17.2,5,25.9
					c-1,1.7,1.6,3.2,2.6,1.5c5.2-8.6-0.1-17.5-3.7-25.6c-1.4-3.2-2.3-6.3-2.5-9.9c-0.1-2.1,0.1-4.3-0.6-6.3
					c-1.4-4.2-5.5-6.8-8.5-9.8C466.6,420.1,464.5,422.2,465.9,423.6L465.9,423.6z"/>
			</g>
		</g>
		<g>
			<g>
				<path class="st2" d="M469.3,416c4.2,2.5,9.8,6.1,11.2,11.1c1,3.6,0.6,6.1,2.7,9.4c2.4,3.8,1.8,7.7,2.6,11.9
					c0.8,3.8,2.5,7.3,4.9,10.4c1.2,1.5,3.8,0,2.6-1.5c-3.5-4.6-4.7-9.1-5-14.7c-0.3-4.4-2.9-7-4-11.1c-1-3.6-0.8-6.6-3.2-9.7
					c-2.7-3.5-6.5-6.2-10.2-8.4C469.1,412.4,467.6,415,469.3,416L469.3,416z"/>
			</g>
		</g>
		<g>
			<g>
				<path class="st2" d="M474.5,389.1c-5.1,10.5,7.4,16.1,12.1,23.4c1.8,2.8,3,6,3.4,9.3c0.4,2.8-0.2,5.7,0.6,8.4
					c0.6,2.4,2.3,4.4,3,6.8c1.2,4,0.9,8.1-0.4,12c-0.6,1.8,2.3,2.6,2.9,0.8c1.5-4.4,1.8-9.1,0.4-13.6c-0.7-2.4-2.4-4.4-3-6.8
					c-0.8-2.8-0.1-6.1-0.6-9c-0.8-4.6-2.8-8.8-5.8-12.4c-4-4.7-13.6-9.9-10-17.5C478,388.8,475.4,387.3,474.5,389.1L474.5,389.1z"/>
			</g>
		</g>
		<g>
			<g>
				<path class="st2" d="M477.8,381c-0.3,5.4,1.5,10.3,4.7,14.6c1.8,2.5,4,4.6,6.4,6.5c2.8,2.2,7.7,4.5,7.8,8.7
					c0.1,2.6-1.7,4.9-0.8,7.6c1.2,3.6,5,3.6,4.3,8.6c-0.4,2.8-2.1,4.8-1.8,7.8c0.4,3.7,1.8,8-3.1,9.5c-1.8,0.6-1.1,3.5,0.8,2.9
					c4.1-1.3,6.1-5,6-9.2c-0.1-3.3-0.6-5.7,0.5-8.9c0.4-1,0.8-2,1-3.1c0.4-3.1-1.2-4.2-2.9-6.4c-3-3.7,0.1-7.6-1.4-11.7
					c-0.9-2.4-2.9-4.1-4.9-5.6c-7.1-5.6-14-11.4-13.5-21.4C480.9,379.1,477.9,379.1,477.8,381L477.8,381z"/>
			</g>
		</g>
		<g>
			<g>
				<path class="st2" d="M479.8,370.2c2.2,9.4,8.8,17.6,15.1,24.6c3.7,4.1,9.1,7.6,9.5,13.5c0.2,3.2-0.5,6.4-0.4,9.6
					c0.1,3.2,1.9,6.2,1.9,9.4c0,1.9,3,1.9,3,0c0.1-3.3-1.8-6.1-1.9-9.4c-0.1-3.2,0.6-6.4,0.4-9.6c-0.4-5.3-3.3-8.3-6.9-11.9
					c-7.4-7.3-15.4-16.7-17.9-27C482.2,367.5,479.4,368.3,479.8,370.2L479.8,370.2z"/>
			</g>
		</g>
		<g>
			<g>
				<path class="st2" d="M484.7,364c3.1,8.6,8.1,16.4,13.5,23.6c2,2.6,4.2,5.2,6,7.9c4.8,7.2,3.7,13.8,1.1,21.5
					c-0.6,1.8,2.3,2.6,2.9,0.8c1.8-5.4,3.6-11,2-16.7c-1.3-4.8-4.5-8.7-7.5-12.5c-6.1-7.7-11.9-16.1-15.2-25.4
					C486.9,361.4,484,362.2,484.7,364L484.7,364z"/>
			</g>
		</g>
		<g>
			<g>
				<path class="st2" d="M487.4,352.8c3.8,5.7,7.6,11.4,11,17.3c4,6.8,4.3,13.4,3.9,21c-0.1,1.9,2.9,1.9,3,0
					c0.4-6.8,0.5-13.3-2.6-19.5c-3.5-7.1-8.3-13.8-12.7-20.3C488.9,349.7,486.3,351.2,487.4,352.8L487.4,352.8z"/>
			</g>
		</g>
		<g>
			<g>
				<path class="st2" d="M315.4,457.4c-4.6,3.1-6.6,8.6-5.5,14.1c0.7,3.3,2.2,6.1,2.1,9.7c-0.1,2.8-0.9,5.4-1.9,8
					c-1.9,5-4.7,9.7-5.8,15.1c-1.1,5.8,0.2,11.2,2.9,16.3c0.9,1.7,3.5,0.2,2.6-1.5c-5.7-10.8-0.7-18.9,3.2-29.1
					c1.5-3.8,2.4-7.8,1.8-11.9c-0.9-6.5-5-13.1,2.1-18C318.5,458.9,317,456.3,315.4,457.4L315.4,457.4z"/>
			</g>
		</g>
		<g>
			<g>
				<path class="st2" d="M322.2,463.2c-2.6,7-3.3,14.1-2.2,21.5c0.8,5.7-0.5,8.2-3.8,12.4c-1.5,1.9-2.9,3.9-3.3,6.3
					c-0.6,3.5,1.2,6.8,1.2,10.3c0,3.6-2,6.6-2,10.2c0.1,5,4.5,8.4,9.3,8c1.9-0.2,1.9-3.2,0-3c-6.6,0.5-6.4-5.8-5-10.4
					c0.6-2,1-3.9,0.8-6c-0.3-3.2-2.2-6.5-1.1-9.8c0.8-2.6,3.2-4.6,4.8-6.8c2.5-3.4,2.9-6.5,2.3-10.6c-1.1-7.5-0.7-14.3,2-21.5
					C325.8,462.2,322.9,461.4,322.2,463.2L322.2,463.2z"/>
			</g>
		</g>
		<g>
			<g>
				<path class="st2" d="M330.8,467.3c-0.8,4-2.2,7.7-3.6,11.5c-1,2.7-2,5.5-1.1,8.3c1.2,3.6,4.3,5.5,4.3,9.8
					c0,4.3-2.2,8.3-4.3,11.8c-3.1,5.2-7,10.9-6.4,17.3c0.5,5.2,3.8,9.4,8.5,11.5c1.7,0.8,3.3-1.8,1.5-2.6
					c-16.2-7.5,0.5-23.4,3.1-33.8c1.2-4.9,0.1-8.1-2.2-12.4c-2.1-3.9-1.4-6.7,0.1-10.6c1.3-3.3,2.3-6.6,3-10
					C334.1,466.3,331.2,465.4,330.8,467.3L330.8,467.3z"/>
			</g>
		</g>
		<g>
			<g>
				<path class="st2" d="M358.3,449.9c-1.6,3.8-0.7,7.6-1.6,11.5c-1,4.8-5.1,6.3-4.5,11.7c0.6,6.4,6.7,11.3,5.1,18
					c-1.1,4.8-4.6,8.3-4.5,13.5c0,2.9,1.7,6.1,1.1,8.9c-0.5,2.4-2.9,4.3-4.2,6.3c-2.9,4.1-3.5,9-3.3,13.9c0.1,3.3,0.7,7.3,3.8,9.3
					c2.6,1.7,6,1.4,8-1.1c1.2-1.5-0.9-3.6-2.1-2.1c-3.8,1.1-6,0.1-6.4-3c-0.2-1.3-0.4-2.5-0.3-3.8c-0.1-2.6,0.1-5.4,0.9-7.9
					c1.3-3.7,4.6-6,6.1-9.5c1.2-3,0.2-5.2-0.3-8.2c-0.9-5.3,1.6-8.7,3.4-13.3c3.3-8.1-2.8-12.6-4.2-20.1c-0.9-4.7,3.6-7.4,4.4-11.8
					c0.6-3.5-0.3-7.3,1.2-10.6C361.6,449.7,359,448.1,358.3,449.9L358.3,449.9z"/>
			</g>
		</g>
		<g>
			<g>
				<path class="st2" d="M345.8,468.4c-1,3.5-3,6.6-3.2,10.3c-0.2,3.4,0.8,6.8,1.7,10.1c1.1,4.1,2.8,8.5,1.4,12.7
					c-1.2,3.9-4.8,6.3-6.8,9.7c-1.4,2.4-1.8,4.9-1.3,7.6c1,5.2,3.4,8.2,2.6,13.9c-0.7,4.8-0.1,10.6,5.8,11.3c1.9,0.2,1.9-2.8,0-3
					c-5.4-0.6-2.3-8.7-2.4-12.1c0-3-1.3-5.4-2.3-8.1c-2.9-8,3.9-10.7,6.7-17c2.1-4.7,0.8-9.7-0.5-14.4c-0.8-3-1.9-6.1-2-9.3
					c-0.1-4,2-7.2,3.1-10.9C349.2,467.3,346.3,466.5,345.8,468.4L345.8,468.4z"/>
			</g>
		</g>
		<g>
			<g>
				<path class="st2" d="M340.2,468.6c-3.3,3.5-5.4,7.9-5.6,12.8c-0.1,2.9,0.6,5.7,1.3,8.5c1.3,4.9,1.8,8.8-0.7,13.4
					c-2.9,5.5-4.1,9.7-3.9,16c0.2,6.5,0.6,13,3.1,19.1c0.7,1.8,3.6,1,2.9-0.8c-2.4-5.8-2.8-12.1-3-18.3c-0.1-3-0.1-6.2,0.8-9.1
					c0.9-3,3-5.4,4.2-8.2c1.6-4,0.8-7.9-0.2-12c-1.9-7.1-2-13.5,3.3-19.2C343.6,469.3,341.5,467.2,340.2,468.6L340.2,468.6z"/>
			</g>
		</g>
		<g>
			<g>
				<path class="st2" d="M294.7,499.2c0.3,2.7-0.8,5.1-2.6,7.1c-0.7,0.8-1.4,1.4-2.3,2c-0.3,0.2-1.3,0.7-1.1,0.7
					c-1.8-0.6-2.6,2.3-0.8,2.9c2.1,0.7,4.7-1.9,6-3.1c2.5-2.6,4.2-6,3.8-9.6C297.6,497.3,294.6,497.3,294.7,499.2L294.7,499.2z"/>
			</g>
		</g>
		<g>
			<g>
				<path class="st2" d="M301.9,431.4c-5.2,2.9-9,6.2-9.1,12.5c-0.1,4.7,1,8.2-1.6,12.5c-1.8,3-3.2,4.8-3.9,8.2
					c-1,4.5-2,7.3-5.1,10.9c-1.9,2.2-3.4,4.4-4,7.3c-1.6,7.6,3.5,14.1,2.5,21.5c-0.2,1.9,2.8,1.9,3,0c0.9-7.1-4.2-13.5-2.7-20.7
					c1.3-6,7.2-9.1,8.6-15.3c0.8-3.6,1.2-6.1,3.2-9.2c1.6-2.4,2.8-4.2,3.2-7.1c0.3-2.5-0.2-4.9-0.2-7.4c-0.1-5.7,3-8.1,7.6-10.7
					C305.1,433,303.6,430.5,301.9,431.4L301.9,431.4z"/>
			</g>
		</g>
		<g>
			<g>
				<path class="st2" d="M294.5,427.5c-4.3,2-8.1,5-10.2,9.4c-2.8,5.7-0.8,11.2-2,17.1c-1.1,5.6-5.6,10.1-7.4,15.5
					c-2,5.8-2.3,11.8-1.4,17.8c0.3,1.9,3.2,1.1,2.9-0.8c-1-6.5-0.2-13.1,2.6-19c1.8-3.8,4.6-7.1,5.9-11.2c1.4-4.5,0.1-9.1,0.8-13.7
					c0.9-5.9,5.1-10,10.4-12.4C297.8,429.3,296.3,426.7,294.5,427.5L294.5,427.5z"/>
			</g>
		</g>
		<g>
			<g>
				<path class="st2" d="M290.2,423.3c-4.3,4.3-11.2,5.3-13.4,11.6c-2.4,6.9,2.3,15.3-2.3,21.5c-1.5,2.1-3.5,3.4-4.5,5.8
					c-1,2.4-1.4,5-1.5,7.6c-0.2,6.3,1.5,12.7,5,17.8c1.1,1.6,3.7,0.1,2.6-1.5c-3.6-5.2-5.2-11.9-4.5-18.2c0.3-3,1.2-5.3,3.3-7.5
					c1.6-1.8,3-3.1,3.8-5.5c1.7-5.1-0.1-10.5,0.3-15.8c0.6-7.9,8.5-8.9,13.3-13.7C293.8,424.1,291.6,421.9,290.2,423.3L290.2,423.3z
					"/>
			</g>
		</g>
		<g>
			<g>
				<path class="st2" d="M277.8,421.7c-7.5,3.4-12.6,11.1-12.3,19.4c0.2,3.5-0.4,5.8-2.4,8.9c-1.3,2.1-2.5,4.2-3.5,6.5
					c-1.8,4.4-2.3,8.9-0.9,13.5c0.6,1.8,3.5,1.1,2.9-0.8c-1.8-5.6,0-10.7,2.8-15.6c1.5-2.7,3.9-5.2,4.2-8.4c0.5-4.3-0.6-7.8,1.4-12
					c1.9-4.1,5.1-7,9.2-8.8C281,423.5,279.5,420.9,277.8,421.7L277.8,421.7z"/>
			</g>
		</g>
		<g>
			<g>
				<path class="st2" d="M272.5,413.4c-3.6,2.1-7.1,4.6-9.7,7.8c-2.8,3.3-2.6,6.3-3.7,10.3c-1,3.7-3.6,6.3-4,10.3
					c-0.6,5.9-1.4,10.7-5.1,15.5c-1.2,1.5,1.4,3,2.6,1.5c2.4-3.1,4.1-6.5,4.9-10.4c0.9-4.2,0.3-8.1,2.6-11.9
					c2.1-3.3,1.7-5.7,2.7-9.4c1.4-5,7-8.7,11.2-11.1C275.6,415,274.1,412.4,272.5,413.4L272.5,413.4z"/>
			</g>
		</g>
		<g>
			<g>
				<path class="st2" d="M252.7,458.5c2.5-7.7-4-15.6-2.3-23.2c0.5-2.4,2.1-4.1,2.4-6.6c0.4-3.3,0-6.4,0.9-9.8
					c2-7.3,7.4-10.8,12.2-16c2.6-2.9,4.6-6.8,3.9-10.8c-0.5-2.8-2.3-5.6-3.4-8.2c-1.5-3.4-2.2-6.2-2.5-9.8c-0.2-1.7-0.5-3.2-1.3-4.8
					c-1.2-2.3-3.3-4-4.6-6.2c-1.9-3-1.5-7-1.7-10.5c-0.1-1.9-3.1-1.9-3,0c0.2,4.7,0.1,9.1,2.9,13c1.6,2.3,3.5,4,4.3,6.7
					c0.8,2.7,0.5,5.5,1.3,8.2c1,3.3,2.9,6.1,4.1,9.3c2.9,7.7-3.1,11.6-8,16.4c-3.7,3.7-6.3,8.2-7.4,13.3c-0.5,2.3-0.4,4.6-0.5,6.9
					c-0.1,3.2-1.8,5.1-2.4,8c-1.6,7.6,4.7,15.6,2.3,23.1C249.3,459.5,252.2,460.3,252.7,458.5L252.7,458.5z"/>
			</g>
		</g>
		<g>
			<g>
				<path class="st2" d="M262.5,383c0.5,10-7.1,13.9-13.7,19.6c-4.4,3.7-7.2,8.8-8.1,14.5c-0.7,4.3-0.2,8.6,0.6,12.9
					c1,5-1.9,10.4,1.6,14.6c1.2,1.5,3.3-0.6,2.1-2.1c-2.3-2.8,0.2-7.1-0.2-10.4c-0.2-1.4-0.6-2.9-0.9-4.3c-0.9-4.8-1-10,0.8-14.6
					c2.7-7,9.1-9.8,14.2-14.7c4.4-4.2,6.8-9.3,6.5-15.4C265.4,381.1,262.4,381.1,262.5,383L262.5,383z"/>
			</g>
		</g>
		<g>
			<g>
				<path class="st2" d="M260.1,373.1c0.6,9.8-9.3,17.9-10.7,27.5c-0.3,1.9,2.6,2.7,2.9,0.8c1.4-10.1,11.3-17.9,10.8-28.3
					C263,371.2,260,371.2,260.1,373.1L260.1,373.1z"/>
			</g>
		</g>
		<g>
			<g>
				<path class="st2" d="M253.4,362.4c-1.2,8.1-7.5,14.4-9.5,22.3c-1.9,7.9-2.5,16.4-0.3,24.3c0.5,1.9,3.4,1.1,2.9-0.8
					c-2.3-8-1.5-16.9,0.8-24.8c2.1-7.2,7.8-12.7,8.9-20.2C256.6,361.3,253.7,360.5,253.4,362.4L253.4,362.4z"/>
			</g>
		</g>
		<g>
			<g>
				<path class="st2" d="M244.5,381.8c-1.3,6.4-8.4,11.2-10.8,17.4c-2.5,6.3-0.7,12.5,1.3,18.6c0.6,1.8,3.5,1,2.9-0.8
					c-2.7-8.1-3.5-14.9,1.6-22.2c2.8-4,6.9-7.3,7.9-12.2C247.8,380.7,244.9,379.9,244.5,381.8L244.5,381.8z"/>
			</g>
		</g>
		<g>
			<g>
				<path class="st2" d="M253.3,351.3c-4.4,6.6-9.2,13.2-12.7,20.3c-3.1,6.2-3,12.8-2.6,19.5c0.1,1.9,3.1,1.9,3,0
					c-0.4-7.7-0.1-14.2,3.9-21c3.4-5.9,7.2-11.6,11-17.3C256.9,351.2,254.3,349.7,253.3,351.3L253.3,351.3z"/>
			</g>
		</g>
		<g>
			<g>
				<path class="st2" d="M370.7,421.7c-12,2.6-24.5,5.2-35.7,10.5c-8.2,3.9-11.7,10.2-16.7,17.3c-10.7,14.9-25.3,30.1-23.6,49.8
					c0.2,1.9,3.2,1.9,3,0c-1.5-18.3,12-33.2,22.2-46.9c5.1-6.9,8.4-13.6,16.6-17.5c10.9-5.2,23.2-7.6,34.9-10.2
					C373.4,424.2,372.6,421.3,370.7,421.7L370.7,421.7z"/>
			</g>
		</g>
		<g>
			<g>
				<path class="st2" d="M314.3,459.4c12.3,7.1,28.3,16.1,41.7,6.6c1.6-1.1,0.1-3.7-1.5-2.6c-12.3,8.8-27.3,0-38.6-6.6
					C314.1,455.9,312.6,458.5,314.3,459.4L314.3,459.4z"/>
			</g>
		</g>
		<g>
			<g>
				<path class="st2" d="M392.7,470.9c4-1.7,6.6,0.9,10.3,0.2c3-0.5,6.3-2.2,9.2-3.2c5.5-2,10.7-4.5,15.2-8.2
					c1.5-1.2-0.6-3.3-2.1-2.1c-5.6,4.6-12.4,6.9-19.1,9.3c-1.2,0.4-2.6,1.2-3.9,1.4c-1.8,0.2-3.4-0.8-5.2-1
					c-2.2-0.2-3.9,0.3-5.8,1.1C389.5,469.1,391,471.6,392.7,470.9L392.7,470.9z"/>
			</g>
		</g>
		<g>
			<g>
				<path class="st2" d="M371.6,424.5c6.8,1.5,14,2.5,20.5,5c6.2,2.3,13.7,4.1,19.1,7.7c6.9,4.6,10.4,14.7,14.6,21.6
					c1,1.6,3.6,0.1,2.6-1.5c-4.3-7-7.8-16.7-14.5-21.8c-5.5-4.2-13-5.6-19.3-8.1c-7.1-2.9-14.8-4.1-22.3-5.7
					C370.5,421.2,369.7,424.1,371.6,424.5L371.6,424.5z"/>
			</g>
		</g>
		<g>
			<g>
				<path class="st2" d="M321.2,420.4c6-6.4,16.4-10.9,24.7-13.6c4.2-1.4,8.5-2.4,13-2.7c4.2-0.3,8.4,0.5,12.6,0.2
					c5-0.4,9-0.9,14.1,0.3c4,1,7.9,2,11.9,3.2c4.3,1.3,8.6,2.9,12.7,4.8c4.1,1.9,9.1,3.9,11.4,7.9c1,1.7,3.5,0.2,2.6-1.5
					c-3.9-6.9-14-9.9-21-12.4c-8.9-3.2-19.3-7.1-28.8-5.8c-5.4,0.8-10.8-0.2-16.3,0.3c-4.7,0.4-9.3,1.5-13.7,3.1
					c-8.6,3-18.8,7.4-25.2,14.1C317.7,419.7,319.9,421.8,321.2,420.4L321.2,420.4z"/>
			</g>
		</g>
		<g>
			<g>
				<path class="st2" d="M440.6,433.3c2.4-1.7,4.9-3.1,7.6-4.3c1.8-0.8,0.2-3.3-1.5-2.6c-2.7,1.2-5.2,2.6-7.6,4.3
					C437.6,431.8,439.1,434.4,440.6,433.3L440.6,433.3z"/>
			</g>
		</g>
		<g>
			<g>
				<path class="st2" d="M449.3,428.2c0.9-1,1.8-1.9,3-2.5c1.7-0.9,0.2-3.5-1.5-2.6c-1.4,0.8-2.6,1.8-3.6,3c-0.5,0.6-0.6,1.5,0,2.1
					C447.7,428.7,448.8,428.8,449.3,428.2L449.3,428.2z"/>
			</g>
		</g>
		<g>
			<g>
				<path class="st2" d="M459.3,428.9c12.5-6.4,16.4-20.9,16.9-33.8c0.1-1.9-2.9-1.9-3,0c-0.4,11.8-3.9,25.3-15.4,31.2
					C456,427.2,457.6,429.8,459.3,428.9L459.3,428.9z"/>
			</g>
		</g>
		<g>
			<g>
				<path class="st2" d="M477.4,389.9c4.5-7.1,2-15.7,7.2-22.3c1.8-2.3,4.5-4,5.6-6.8c1.1-2.8,0.7-6.2,0.2-9.2
					c-0.3-1.9-3.2-1.1-2.9,0.8c0.8,4.6,0.2,7.5-3.1,10.9c-1.9,2-3.6,4.1-4.8,6.6c-2.8,6.1-1,12.6-4.8,18.5
					C473.7,390,476.3,391.5,477.4,389.9L477.4,389.9z"/>
			</g>
		</g>
		<g>
			<g>
				<path class="st2" d="M290.5,425.7c1.4,1.6,2.9,3.2,4.7,4.4c1.8,1.2,3.9,2.1,5.7,3.3c1.6,1,3.1-1.6,1.5-2.6
					c-1.7-1.1-3.5-1.9-5.2-2.9c-1.8-1.1-3.3-2.7-4.7-4.3C291.3,422.2,289.2,424.3,290.5,425.7L290.5,425.7z"/>
			</g>
		</g>
		<g>
			<g>
				<path class="st2" d="M283.7,426.6c-8.1-8.7-14.9-18.9-14.1-31.3c0.1-1.9-2.9-1.9-3,0c-0.8,13.2,6.4,24.1,15,33.4
					C282.9,430.2,285,428,283.7,426.6L283.7,426.6z"/>
			</g>
		</g>
		<g>
			<g>
				<path class="st2" d="M358.1,539.5c-0.7-1.2-0.7-2.4-0.3-3.7c0.2-0.7,1.2-3,2.2-2.8c1.9,0.4,2.7-2.5,0.8-2.9
					c-2.7-0.5-4.4,1.5-5.5,3.8c-1.1,2.3-1.2,4.8,0.1,7.1C356.5,542.7,359.1,541.2,358.1,539.5L358.1,539.5z"/>
			</g>
		</g>
		<g>
			<g>
				<path class="st2" d="M368.9,543.3c2.3-1.4,4.2-3.2,5.8-5.3c0.5-0.7,0.1-1.7-0.5-2.1c-0.8-0.5-1.6-0.1-2.1,0.5
					c-1.3,1.7-2.9,3.1-4.7,4.2C365.7,541.7,367.2,544.3,368.9,543.3L368.9,543.3z"/>
			</g>
		</g>
		<g>
			<g>
				<path class="st2" d="M381.5,541.9c0.3-5,4.9-7.7,7.5-11.4c2.1-3,3-6.5,2.9-10.2c-0.1-1.9-3.1-1.9-3,0c0.2,5.9-2.9,9.1-6.5,13.2
					c-2.2,2.5-3.7,5.1-3.9,8.4C378.4,543.8,381.4,543.8,381.5,541.9L381.5,541.9z"/>
			</g>
		</g>
		<g>
			<g>
				<path class="st2" d="M384.8,533.5c0.4,2.2,0.9,4.5-0.3,6.5c-1,1.7,1.6,3.2,2.6,1.5c1.6-2.8,1.3-5.8,0.6-8.8
					C387.3,530.8,384.4,531.6,384.8,533.5L384.8,533.5z"/>
			</g>
		</g>
		<g>
			<g>
				<path class="st2" d="M393.9,540.4c0.6,1,1.3,2.1,1.9,3.1c1,1.6,3.6,0.1,2.6-1.5c-0.6-1-1.3-2.1-1.9-3.1
					C395.4,537.3,392.8,538.8,393.9,540.4L393.9,540.4z"/>
			</g>
		</g>
		<g>
			<g>
				<path class="st2" d="M401.4,535.3c1.4,1.2,2.8,2.4,4.1,3.8c1.3,1.4,3.4-0.7,2.1-2.1c-1.3-1.4-2.6-2.6-4.1-3.8
					c-0.6-0.5-1.5-0.6-2.1,0C400.8,533.8,400.7,534.8,401.4,535.3L401.4,535.3z"/>
			</g>
		</g>
		<g>
			<g>
				<path class="st2" d="M410.3,530.6c2.4,0.6,1.7,4.2,1.8,6c0.1,1.9,3.1,1.9,3,0c-0.2-3.3,0.1-7.9-4-8.9
					C409.2,527.3,408.4,530.2,410.3,530.6L410.3,530.6z"/>
			</g>
		</g>
		<g>
			<g>
				<path class="st2" d="M430.6,523.4c0.8,0,1.6,0.8,2.2,1.1c0.8,0.4,1.7,0.7,2.6,1c1.9,0.5,2.7-2.4,0.8-2.9c-1-0.3-1.9-0.6-2.8-1.1
					c-0.9-0.5-1.7-1-2.8-1C428.7,520.3,428.7,523.3,430.6,523.4L430.6,523.4z"/>
			</g>
		</g>
		<g>
			<g>
				<path class="st2" d="M323.3,414.9c-5.6,8.5-5.1,20.7-2.7,30.1c0.5,1.9,3.4,1.1,2.9-0.8c-2.2-8.6-2.7-20,2.4-27.8
					C327,414.8,324.4,413.3,323.3,414.9L323.3,414.9z"/>
			</g>
		</g>
		<g>
			<g>
				<path class="st2" d="M338.5,407.5c-7.5,8.2-11.4,18.6-10.9,29.7c0.1,1.9,3.1,1.9,3,0c-0.4-10.3,3.1-20,10-27.6
					C342,408.2,339.8,406.1,338.5,407.5L338.5,407.5z"/>
			</g>
		</g>
		<g>
			<g>
				<path class="st2" d="M348.4,403.7c-5.9,8.1-9.1,17.4-9.4,27.4c-0.1,1.9,2.9,1.9,3,0c0.3-9.5,3.3-18.2,9-25.9
					C352.1,403.6,349.5,402.1,348.4,403.7L348.4,403.7z"/>
			</g>
		</g>
		<g>
			<g>
				<path class="st2" d="M351,403.3c-3.8,8.2-5,16.7-3.5,25.6c0.3,1.9,3.2,1.1,2.9-0.8c-1.3-8-0.2-15.9,3.2-23.3
					C354.4,403,351.8,401.5,351,403.3L351,403.3z"/>
			</g>
		</g>
		<g>
			<g>
				<path class="st2" d="M358.7,404.6c0.5,7.4-0.7,14.4-3.4,21.3c-0.7,1.8,2.2,2.6,2.9,0.8c2.9-7.1,4.1-14.4,3.5-22.1
					C361.5,402.7,358.5,402.7,358.7,404.6L358.7,404.6z"/>
			</g>
		</g>
		<g>
			<g>
				<path class="st2" d="M368.7,405.3c1,2.9,1.1,6.2,0.8,9.3c-0.3,3.9-1.8,6.1-4.6,8.7c-1.4,1.3,0.7,3.4,2.1,2.1
					c5.8-5.3,7.1-13.5,4.5-20.9C370.9,402.7,368,403.4,368.7,405.3L368.7,405.3z"/>
			</g>
		</g>
		<g>
			<g>
				<path class="st2" d="M369.6,410c0.6,6.2,4.1,11.5,8.9,15.4c1.5,1.2,3.6-0.9,2.1-2.1c-4.1-3.3-7.5-7.8-8-13.3
					C372.4,408.1,369.4,408.1,369.6,410L369.6,410z"/>
			</g>
		</g>
		<g>
			<g>
				<path class="st2" d="M378.7,403.3c-0.1,7.7,0.6,17,6.2,22.8c1.3,1.4,3.5-0.7,2.1-2.1c-5-5.1-5.5-14-5.3-20.7
					C381.7,401.3,378.7,401.3,378.7,403.3L378.7,403.3z"/>
			</g>
		</g>
		<g>
			<g>
				<path class="st2" d="M387.7,404.6c-0.5,9.3,1.3,19.1,7.8,26.2c1.3,1.4,3.4-0.7,2.1-2.1c-6-6.4-7.4-15.6-6.9-24.1
					C390.8,402.7,387.8,402.7,387.7,404.6L387.7,404.6z"/>
			</g>
		</g>
		<g>
			<g>
				<path class="st2" d="M397.8,407.3c-0.5,8.6,1,21.1,8.4,26.7c1.5,1.2,3-1.4,1.5-2.6c-6.4-4.8-7.3-16.8-6.9-24.1
					C400.9,405.3,397.9,405.3,397.8,407.3L397.8,407.3z"/>
			</g>
		</g>
		<g>
			<g>
				<path class="st2" d="M406.2,411.5c1.2,8.2,2.9,16.3,5.1,24.3c0.5,1.9,3.4,1.1,2.9-0.8c-2.2-8-3.9-16.1-5.1-24.3
					C408.8,408.8,405.9,409.6,406.2,411.5L406.2,411.5z"/>
			</g>
		</g>
		<g>
			<g>
				<path class="st2" d="M416.6,415.6c3.4,9.3,4,18.8,1.9,28.4c-0.4,1.9,2.5,2.7,2.9,0.8c2.2-10.1,1.6-20.3-1.9-30
					C418.8,413,415.9,413.8,416.6,415.6L416.6,415.6z"/>
			</g>
		</g>
		<g>
			<g>
				<path class="st2" d="M432.1,433.1c2.5-0.2,5-0.4,7.3,0.9c1.7,0.9,3.2-1.7,1.5-2.6c-2.7-1.5-5.8-1.5-8.8-1.3
					C430.2,430.2,430.2,433.2,432.1,433.1L432.1,433.1z"/>
			</g>
		</g>
		<g>
			<g>
				<path class="st2" d="M319.2,418.1c-3.8,4.2-6.1,9.2-8.9,14.1c-2.5,4.5-6.1,7.8-9.1,11.9c-5.1,6.9-7.7,15.5-9.4,23.9
					c-1.6,8.3-2.3,16.8-2.8,25.2c-0.2,3.5-0.4,7-0.7,10.5c-0.1,1.5,0,4.5-1.1,5.8c-1.2,1.5,0.9,3.6,2.1,2.1c2.5-3,2-8.7,2.3-12.4
					c0.5-8.6,0.9-17.3,2.3-25.8c1.4-8.9,3.5-18.1,8.4-25.7c2.6-4.2,6.5-7.3,9.1-11.5c3.4-5.4,5.7-11.2,9.9-16
					C322.6,418.8,320.5,416.7,319.2,418.1L319.2,418.1z"/>
			</g>
		</g>
		<g>
			<g>
				<path class="st2" d="M302.6,433.8c1.7,0.5,3.2,1.7,4.4,2.9c1.4,1.3,3.5-0.8,2.1-2.1c-1.6-1.5-3.6-3.1-5.8-3.7
					C301.5,430.4,300.7,433.2,302.6,433.8L302.6,433.8z"/>
			</g>
		</g>
		<g>
			<g>
				<path class="st2" d="M294.3,504c-2.2,5.2,0.9,11.2,4.6,14.9c1.1,1,2.9,0,2.5-1.5c-1.8-6.3,3.9-15.2,8-19.2
					c1.4-1.4-0.7-3.5-2.1-2.1c-5,4.9-10.9,14.8-8.8,22.2c0.8-0.5,1.7-1,2.5-1.5c-2.5-2.5-5.7-7.4-4.1-11.2
					C297.6,503.7,295,502.2,294.3,504L294.3,504z"/>
			</g>
		</g>
		<g>
			<g>
				<path class="st2" d="M245.5,444.8c0.4-0.9,0.9-1.8,1.4-2.7c0.2-0.3,0.4-0.7,0.6-0.8c0.3-0.2,0.8-0.1,1.1-0.2
					c1.9-0.4,1.1-3.3-0.8-2.9c-0.6,0.1-1.2,0.1-1.7,0.5c-0.5,0.3-1,0.7-1.3,1.2c-0.8,1-1.4,2.2-1.9,3.4c-0.3,0.7-0.2,1.6,0.5,2.1
					C244.1,445.7,245.2,445.5,245.5,444.8L245.5,444.8z"/>
			</g>
		</g>
		<g>
			<g>
				<path class="st2" d="M238,416.9c0-0.1-0.1-0.2-0.1-0.2c0.1,0.4,0.1,0.8,0.2,1.2c0.2-0.7,1.3-1.3,1.8-1.6
					c0.7-0.4,1.6-0.7,2.4-0.8c0.8-0.1,1.5-0.6,1.5-1.5c0-0.7-0.7-1.6-1.5-1.5c-1.8,0.2-3.4,0.8-4.8,1.8c-1.4,1-2.9,2.4-2.1,4.3
					C236.2,420.2,238.8,418.6,238,416.9L238,416.9z"/>
			</g>
		</g>
		<g>
			<g>
				<path class="st2" d="M262.3,470.5c0.3-1.3,2-2,3.1-2.4c0.8-0.3,2.8-0.8,3.2-0.5c-0.1-0.8-0.2-1.6-0.3-2.4c0,0,0,0-0.1,0.1
					c0.7,0,1.4,0,2.1,0c0,0,0,0,0,0c-1.4-1.4-3.5,0.7-2.1,2.1c0,0,0,0,0,0c0.6,0.6,1.5,0.5,2.1,0c0,0,0,0,0.1-0.1
					c0.7-0.7,0.5-1.9-0.3-2.4c-1.6-1-4.6-0.2-6.2,0.5c-1.9,0.8-4.1,2.1-4.5,4.3C259,471.6,261.9,472.4,262.3,470.5L262.3,470.5z"/>
			</g>
		</g>
		<g>
			<g>
				<path class="st2" d="M254.8,456.5c-0.3-0.1-0.4-0.1-0.1,0.1c0.2,0.2,0.3,0.3,0.4,0.5c0.3,0.4,0.5,0.8,0.8,1.2
					c0.5,0.8,1,1.7,1.2,2.7c0.1,0.8,0.6,1.5,1.5,1.5c0.7,0,1.6-0.7,1.5-1.5c-0.3-1.9-1-3.5-2.1-5c-1-1.4-2.1-2.8-4-2.4
					C252.1,453.9,252.9,456.8,254.8,456.5L254.8,456.5z"/>
			</g>
		</g>
		<g>
			<g>
				<path class="st2" d="M276.7,487.5c0.5-0.9,1.2-1.5,2.2-1.8c1.9-0.5,1.1-3.4-0.8-2.9c-1.7,0.4-3.2,1.6-4,3.1
					c-0.4,0.7-0.2,1.6,0.5,2.1C275.3,488.4,276.3,488.2,276.7,487.5L276.7,487.5z"/>
			</g>
		</g>
		<g>
			<g>
				<path class="st2" d="M283.1,505.8c4.1-4.3,6.5-9.3,8.5-14.9c0.7-1.8-2.2-2.6-2.9-0.8c-1.8,5.1-4,9.6-7.7,13.6
					C279.6,505.1,281.7,507.2,283.1,505.8L283.1,505.8z"/>
			</g>
		</g>
		<g>
			<g>
				<path class="st2" d="M310.3,521.3c1.3-2.3,3.1-4.1,5.3-5.6c1.6-1.1,0.1-3.7-1.5-2.6c-2.6,1.7-4.8,4-6.4,6.7
					C306.8,521.4,309.3,522.9,310.3,521.3L310.3,521.3z"/>
			</g>
		</g>
		<g>
			<g>
				<path class="st2" d="M330.8,536.7c0.1-0.9,0.3-1.7,0.7-2.5c0.3-0.5,0.9-1.7,1.3-1.8c1.9-0.4,1.1-3.2-0.8-2.9
					c-1.4,0.3-2.4,1.8-3,3c-0.7,1.3-1,2.7-1.2,4.2C327.7,538.7,330.7,538.7,330.8,536.7L330.8,536.7z"/>
			</g>
		</g>
		<g>
			<g>
				<path class="st2" d="M337.3,539.1c1.9-2.3,3.6-4.8,5.1-7.4c1-1.7-1.6-3.2-2.6-1.5c-1.4,2.4-2.9,4.7-4.6,6.8
					C333.9,538.4,336.1,540.5,337.3,539.1L337.3,539.1z"/>
			</g>
		</g>
		<g>
			<g>
				<path class="st2" d="M347.5,543.8c0.5-0.6,0.7-1.3,1-2.1c0.1-0.4,0.2-0.8,0.3-1.2c0.1-0.2,0.1-0.4,0.2-0.6
					c0.2-0.4,0.1-0.4-0.2-0.1c-0.5,0-1,0-1.5,0c0,0,0.1,0,0.1,0.1c1.7,0.9,3.2-1.7,1.5-2.6c-1.2-0.7-2.3,0.2-2.7,1.4
					c-0.2,0.5-0.3,1.1-0.5,1.6c-0.1,0.3-0.2,0.6-0.3,0.9c0,0.1-0.2,0.6-0.1,0.5c-0.5,0.6-0.6,1.5,0,2.1
					C345.9,544.3,347,544.4,347.5,543.8L347.5,543.8z"/>
			</g>
		</g>
		<g>
			<g>
				<path class="st2" d="M439,499.5c3.7,6.9,9.1,13.1,17.3,13.8c1.9,0.2,1.9-2.8,0-3c-7.1-0.6-11.6-6.5-14.7-12.3
					C440.6,496.2,438,497.8,439,499.5L439,499.5z"/>
			</g>
		</g>
		<g>
			<g>
				<path class="st2" d="M446.5,509.5c0.4,2.3-1.6,5.3-2.8,7c0.9,0,1.7,0,2.6,0c-1.1-1.8-2.4-3.4-4-4.8c-1.5-1.3-3.6,0.9-2.1,2.1
					c1.4,1.2,2.5,2.6,3.5,4.2c0.6,1,1.9,0.9,2.6,0c1.9-2.5,3.7-6.1,3.2-9.3C449.1,506.8,446.2,507.6,446.5,509.5L446.5,509.5z"/>
			</g>
		</g>
		<g>
			<g>
				<path class="st2" d="M454,501c0.9,3.3,4,5.6,7.4,5.5c1.9-0.1,1.9-3.1,0-3c-2.1,0.1-4-1.3-4.6-3.3
					C456.4,498.4,453.5,499.2,454,501L454,501z"/>
			</g>
		</g>
		<g>
			<g>
				<path class="st2" d="M464,486.9c1.1,0.8,2.2,1.3,3.5,1.8c0.8,0.3,1.6-0.3,1.8-1c0.2-0.8-0.3-1.6-1-1.8c-1-0.4-1.9-0.9-2.7-1.5
					c-0.7-0.5-1.7-0.1-2.1,0.5C463,485.6,463.3,486.4,464,486.9L464,486.9z"/>
			</g>
		</g>
		<g>
			<g>
				<path class="st2" d="M502.4,427.2c1.3,0.8,2.9,1.3,4.2,2.1c1.6,1,3.2-1.6,1.5-2.6c-1.3-0.8-2.9-1.3-4.2-2.1
					C502.3,423.6,500.8,426.2,502.4,427.2L502.4,427.2z"/>
			</g>
		</g>
		<g>
			<g>
				<path class="st2" d="M488,450c1.8,0.7,3.7,1.3,5.6,1.6c0.8,0.1,1.6-0.2,1.8-1c0.2-0.7-0.2-1.7-1-1.8c-1.9-0.3-3.8-0.8-5.6-1.6
					c-0.8-0.3-1.6,0.3-1.8,1C486.7,449,487.2,449.6,488,450L488,450z"/>
			</g>
		</g>
		<g>
			<g>
				<path class="st2" d="M482.6,458.7c2.9,1.9,6.7,2.8,10,1.4c1.8-0.8,0.2-3.4-1.5-2.6c-2.2,1-5.1-0.2-7-1.4
					C482.5,455.1,481,457.7,482.6,458.7L482.6,458.7z"/>
			</g>
		</g>
		<g>
			<g>
				<path class="st2" d="M482.8,473.1c0.4-2.1-2.2-3.8-3.7-4.8c-1.6-1.1-5.2-3-6.2-0.2c-0.7,1.8,2.2,2.6,2.9,0.8
					c0-0.1,0-0.1,0.1-0.2c-0.2,0.3-0.5,0.6-0.7,0.9c-0.2,0.1,0.2,0.1,0.3,0.2c0.2,0.1,0.4,0.2,0.6,0.3c0.6,0.3,1.2,0.7,1.7,1
					c0.5,0.4,1,0.7,1.4,1.2c0.2,0.2,0.3,0.4,0.5,0.5c0.4,0.3-0.1,0.9,0.1-0.4C479.5,474.2,482.4,475,482.8,473.1L482.8,473.1z"/>
			</g>
		</g>
		<g>
			<g>
				<path class="st2" d="M469.1,479.3c1.1,0.3,2.2,0.6,3.2,1c0.8,0.3,1.6-0.3,1.8-1c0.2-0.8-0.3-1.6-1-1.8c-1.1-0.4-2.1-0.7-3.2-1
					C468,475.9,467.2,478.8,469.1,479.3L469.1,479.3z"/>
			</g>
		</g>
		<g>
			<g>
				<path class="st2" d="M310.8,430.6c-4,8-4,20.1-1.2,28.4c0.6,1.8,3.5,1,2.9-0.8c-2.5-7.4-2.6-19,0.9-26.1
					C314.3,430.4,311.7,428.9,310.8,430.6L310.8,430.6z"/>
			</g>
		</g>
		<g>
			<g>
				<path class="st2" d="M299.9,448.1c-2.7,9.3-3,18.8-1,28.3c0.4,1.9,3.3,1.1,2.9-0.8c-1.9-9-1.5-17.9,1-26.7
					C303.3,447,300.4,446.2,299.9,448.1L299.9,448.1z"/>
			</g>
		</g>
		<g>
			<g>
				<path class="st2" d="M431.3,447.9c1.3,6.2,0.9,12.4-1.1,18.4c-0.6,1.8,2.3,2.6,2.9,0.8c2.1-6.6,2.5-13.3,1.1-20
					C433.8,445.2,430.9,446,431.3,447.9L431.3,447.9z"/>
			</g>
		</g>
		<g>
			<g>
				<path class="st2" d="M445.6,466.9c1.9,8.8-1,17.3-2.2,25.9c-0.7,4.9-0.8,10.2,1.9,14.6c1,1.6,3.6,0.1,2.6-1.5
					c-3.8-6.2-1.2-14.6,0-21.2c1.2-6.2,1.9-12.3,0.6-18.5C448.1,464.2,445.2,465,445.6,466.9L445.6,466.9z"/>
			</g>
		</g>
	</g>
</g>
</svg>
