<?xml version="1.0" encoding="utf-8"?>
<!-- Generator: Adobe Illustrator 19.2.0, SVG Export Plug-In . SVG Version: 6.00 Build 0)  -->
<svg version="1.1" id="Layer_1" xmlns="http://www.w3.org/2000/svg" xmlns:xlink="http://www.w3.org/1999/xlink" x="0px" y="0px"
	 viewBox="0 0 440 470" style="enable-background:new 0 0 440 470;" xml:space="preserve">
<style type="text/css">
	.st0{fill:#EFEFEF;}
	.st1{fill:#BBBBBC;}
	.st2{fill:#7A7B7B;}
</style>
<g>
	<path class="st0" d="M299.3,448.6c-0.2,0-0.5-0.1-0.7-0.2c-1.7-0.8-3.5-2.1-5.2-3.3c-0.8-0.6-1.6-1.1-2.3-1.7
		c-4-2.7-7.9-5.4-11.9-8.1c-4.9-3.4-9.8-6.7-14.7-10.1c-3.8-2.6-7.6-5.2-11.4-7.8l-1.1-0.8l-1.1,0.7c-2.5,1.6-5.2,3.2-8.1,5
		c-1.1,0.7-2.2,1.4-3.4,2.1c-5.5,3.4-11.2,6.9-17.1,8.8c-0.7,0.2-1.1,0.3-1.4,0.3c-0.4,0-0.9,0-1-3.8c-0.2-5.1-0.2-10.3-0.3-15.3
		c-0.2-13.9-0.4-28.3-2.7-42.2l0.1-0.6l-0.2-0.6c-3.9-11.3-7.6-22.5-10-33.7l-0.3-1.3l-1.3-0.3c-2.2-0.5-4.4-0.9-6.7-1.3
		c-10.6-2-21.6-4-30.3-10.2l-0.7-0.5l-0.8,0.1c-2,0.3-4.1,0.5-6.3,0.5c-15.5,0-34.3-7.9-40.3-23c-7.4-18.6-8.9-40.9-4-59.8
		c0.6-2.5,1.4-5,2.4-7.5l0.5-1.2l-1-0.9c-34-32-45.9-89-28.3-135.6l0.1-0.3v-0.3c0.4-13.8,3.4-22.3,9-26l0.8-0.5l0.1-1
		c1-11.7,5-27,18.5-33.5l1-0.3l0.4-1c1.5-4.5,3.9-8.1,7.5-10.8l0,0c0.6,0.6,1.4,1.3,2.1,2c1.5,1.3,3,2.6,3.7,4
		c0.7,1.2,1,3.3,1.3,5.2c0.2,1.1,0.3,2.1,0.5,3c0.8,3.4,1.8,6.9,2.9,10.4c4.2,13.3,10.3,26.5,18.7,40.6
		c15.6,26.3,35.7,49.7,54.9,71.4l1.5,1.8l1.5-1.6c1.4-1.5,2.7-2.9,4.1-4.4l0.1-0.1c18.8-19.8,38.2-40.4,59.8-57.5l0.5-0.2l0.4-0.5
		c12.2-16.8,27.8-42.6,22.1-72.2c0-0.1,0.1-0.1,0.2-0.1l1.5,0.7l0.9-1.3c18.3,11.1,30.3,32.4,32,56.9c1.8,26.8-7.6,51.3-15.7,67.1
		c-9.5,18.3-22.9,32.9-37.1,48.3c-2.3,2.5-4.6,5-6.9,7.5c-1.5,1.6-3,3.3-4.4,5l-1.2,1.4l0.7,1.2c4.8,8.6,10.2,16.9,15.4,25
		c1.3,2,2.5,4,3.8,5.9c8.3,13.1,16.9,26.3,25.2,39.1c8.4,13,17.1,26.4,25.5,39.6l0.1,0.1c2.5,3.9,5.1,7.9,7.5,11.9
		c0.3,0.4,0.6,0.9,0.9,1.4c0.8,1.2,1.8,2.6,1.9,3.6c0.4,3.1-3.7,8.3-6.1,11.4c-0.7,0.9-1.4,1.7-1.9,2.4c-2.9,4-6,8.1-8.9,12
		c-2.2,2.9-4.5,6-6.8,9l-0.7,0.9l0.2,0.9c1,4,1.9,8.3,2.8,13.4c0.1,0.6,0.3,1.4,0.4,2.2c1,4.8,2.8,13.7-1.1,15.4
		c-3,1.3-6.8,2-12.2,2.1h-2.3l0.3,2.3l-0.2,0.3c-3.8,10-7.8,20.3-11.9,30.4c-0.3,0.6-0.5,1.4-0.8,2.2
		C302,444.8,300.7,448.6,299.3,448.6L299.3,448.6z"/>
	<g>
		<path class="st1" d="M210.9,160.1c-18.8-21.2-38.4-44-54-69.6c-7.7-12.8-13.9-25.4-18.3-37.7c-2.7-7.5-4.6-14.5-5.9-21.2
			c-0.4-2.3-1.2-3.1-2.7-4.5l-3-3.1l-0.7,0.6c-11.1,9.9-7.2,28.6-4.7,41l0.2,1.2c3,14.5,5.9,27.6,11.1,40c0.3,0.1,0.6,0.4,0.7,0.9
			c2.2,10.8,7.3,20.6,10,31.2c0.1,0.3,0.1,0.5,0,0.8c4.9,16,11.2,31.7,18.6,46.7l0.4,0.9l0.9-0.4c9.8-4.8,20.8-8.6,32.7-11.5
			c0.1,0,0.2,0,0.3,0c0.2,0,0.3,0,0.5,0.1l0.7,0.5l0.6-0.6c4-4.4,8.3-9,12.7-13.8l0.6-0.8L210.9,160.1z"/>
		<path class="st1" d="M128.3,214.4c-3.2-3.5-5.3-7.5-7.7-11.5c-2.4-4.1-5.5-7.8-7.9-11.9c-4.8-8.1-9.8-16.7-12.2-25.9
			c-0.1-0.5,0-0.9,0.3-1.2c-7-17.1-11.1-36.2-11.8-55.5l-2-0.2c-11.6,43.9,0.7,92.9,30.6,121.9l1,1l0.6-1.3
			C121.7,224.4,124.7,219.3,128.3,214.4C128.4,214.4,128.3,214.4,128.3,214.4z"/>
		<path class="st1" d="M129.4,282.7c-0.3-0.1-0.6-0.4-0.7-0.8c-0.9-4.2-1.7-9.2,0.4-13.2c0.1-0.3,0.4-0.5,0.6-0.6
			c5.1-12.3,13-23.6,20.6-34.2c12.3-17,26.7-34.7,44-54l2.2-2.5l-3.2,0.8c-25.2,6.4-43.9,16.2-57.2,30
			c-17.3,17.8-24.7,43.9-20.5,71.6c1.3,8.4,3.1,15.4,5.6,21.6c3.8,9.4,13.8,17.1,26.9,20.5l0.9-1.7
			C139.4,312.1,131.9,297.7,129.4,282.7z"/>
		<path class="st1" d="M267.3,402.5c-7.2-2.2-12.8-5.1-17.1-8.6c-4-3.3-5.3-8.3-6.7-13c-5.1-18.1-7.8-37.3-10.4-55.8l-0.5-3.4
			c-2.2-15.5-4.4-32-5.9-48.8l-0.3-3.1l-1.6,2.6c-14.2,23.3-20,43-18.2,61.8v0.3l0.2,0.2c0.1,0.1,0.2,0.2,0.2,0.4
			c2.6,12.5,6.8,24.9,10.9,36.9c0.6,1.8,1.2,3.5,1.8,5.3c0.8,2.4,1.6,4.9,2.4,7.3c3.3,10,6.7,20.2,11.2,29.8c0.2,0.1-3.1,2.7-3,3.1
			c0.8,3.1,1.6,6.1,2.9,9.1c0.6-0.3,6.1-3.5,6.6-3.8c9.2-5.5,18.9-11.5,27.4-18.6l1.4-1.2L267.3,402.5z"/>
		<path class="st1" d="M236.2,425.1c-1.2-3.2-3.6-5.9-4.5-9.2c-0.1-0.3-0.1-0.6,0.1-0.8c-4-8.4-7.1-17.4-10.2-26.6l-1.9,0.4
			c0.4,5.5,0.5,11,0.7,16.7c0.2,5.5,0.3,11.1,0.4,16.5v1.8c0,1.6,0.1,3.2,0.1,4.8c0,0.2,0,0.6,0.1,1c0.1,0.5,0.1,1.1,0.2,1.6
			l0.1,1.6l1.4-0.8c0.5-0.3,1.4-0.6,2.1-0.8c0.6-0.2,1.2-0.4,1.6-0.6C229.8,428.7,233.1,426.9,236.2,425.1L236.2,425.1z"/>
		<g>
			<path class="st1" d="M264.1,290c-2.5,2.9,7.3,19,9,35.7s1.3,21,4.6,22.5c3.4,1.5,11.3,0.8,11-7.8c-0.3-8.7-9.6-43.4-13-48.7
				S266,287.8,264.1,290z"/>
			<path class="st1" d="M315,32.2c4.1,15.1,6.1,41.8-3.7,67.8c-5.9,15.7-2.5,17.6,0,17.2c8.3-1.5,15.5-15.5,18.1-26.2
				c2.7-10.7,1.8-28.3,1.4-34.3s-7.3-14.3-7.3-14.3S314.1,29,315,32.2z"/>
			<path class="st1" d="M291.4,144.3c-4.6,1.7-12.3,16.2-20.5,25.5s-18.5,20.5-12.8,21.9c5.7,1.3,16.6-5.8,22.6-11.9
				c6-6.1,14.7-21.5,15.3-27.8S291.4,144.3,291.4,144.3z"/>
			<path class="st1" d="M204.3,320.3c0,0-0.3,1.8-3.6,4.2c-3.3,2.4-6.2-13.9-6.2-23.3c0-11.9-9.2,3.2-7.7,20.6
				c0.2,2.6-5-21.9-6.4-39.9c-1.6-20.7-10,15.3-4.2,39.9c0.7,3-19.8-11.4-22.7-44.7c-0.7-8.7-14.9,7.5-5.8,33.2
				c1,2.9-14.3-15.7-18.3-30.8c-0.6-2.3,1.2,24.9,1.2,24.9l13.9,17.4l10.4,1.3l10.2,0.1l11.1,5.4l15,4.4l14.8,2.7L204.3,320.3z"/>
			<path class="st1" d="M263.5,410c0,0,39.4,18.9,44.5,15.5c5.1-3.5,7.5-19.1,7.5-19.1l-12.9,0.1l-31.8-4.1L263.5,410z"/>
		</g>
		<path class="st1" d="M330.6,397c-0.4-4.8-1.3-9.4-2.2-13.6c-1.9-9-4-17.8-7.7-25.7c-0.5-0.6-0.9-1.2-1.3-1.9
			c-0.3-0.4-0.5-0.7-0.8-1.1c-0.1-0.1-0.2-0.3-0.3-0.4c0,0-0.3-0.3-0.1-0.2c-0.3-0.2-0.5-0.5-0.6-0.8c-5.2,3.1-10.5,6.4-15.9,9.9
			c-8.4,5.5-18.2,12-27.3,19.5c-0.5,0.4-1.2,0.9-1.9,1.5c-4.2,3.3-10.5,8.3-11.1,13.2l-0.1,0.7l0.7,0.3c4.9,2,10,3.3,14.4,4.3
			c9.6,2.2,20.1,3.4,31,3.7c1.2,0,2.4,0,3.6,0c3.2,0,6-0.1,8.8-0.3c0.5,0,1-0.1,1.6-0.1c2.6-0.1,5.8-0.3,7.9-1.5
			c1.8-1.1,1.6-4.4,1.4-7.1L330.6,397z"/>
	</g>
	<g>
		<g>
			<path class="st2" d="M213,157.9c-19.9-22.4-39.4-45.3-54.8-71.1c-7.5-12.7-14-26.1-18.5-40.2c-1.1-3.4-2-6.8-2.9-10.3
				c-0.6-2.6-0.8-6.5-2.1-8.7c-1.4-2.4-4.3-4.4-6.2-6.4c-0.6-0.6-1.7-0.8-2.4-0.3c-12.1,9.1-11,25.8-8.6,39.2
				c3.1,17.1,6.8,34.5,13.8,50.5c1,2.4,4.5,0.3,3.5-2c-5.8-13.4-9-27.8-11.9-42c-2.7-12.9-7.2-32.7,5.3-42.2
				c-0.8-0.1-1.6-0.2-2.4-0.3c1.1,1.1,2.3,2.3,3.4,3.4c1.6,1.6,2.2,2.2,2.6,4.3c1.4,7.3,3.5,14.4,6,21.4
				c4.7,13.2,11.1,25.9,18.4,37.9c15.3,25.2,34.6,47.8,54.1,69.8C211.9,162.7,214.7,159.9,213,157.9L213,157.9z"/>
		</g>
		<g>
			<path class="st2" d="M117.5,32.9C103.1,39.8,98.4,56,97.6,70.8c-1.3,25,6.1,50.6,14.5,73.9c6.5,18,14.3,35.4,22.8,52.5
				c1.2,2.3,4.6,0.3,3.5-2c-13.5-26.8-25.4-54.9-32.3-84.2c-4.3-18.2-7.9-39.7-1.3-57.9c2.7-7.3,7.5-13.4,14.6-16.7
				C121.8,35.3,119.8,31.8,117.5,32.9L117.5,32.9z"/>
		</g>
		<g>
			<path class="st2" d="M163.7,186.9c-7.9-15.7-14.4-32-19.4-48.9c-0.7-2.5-4.6-1.4-3.9,1.1c5.2,17.2,11.8,33.8,19.8,49.8
				C161.4,191.2,164.8,189.2,163.7,186.9L163.7,186.9z"/>
		</g>
		<g>
			<path class="st2" d="M98.5,67.6c-11.3,6.5-10.9,26.8-10.6,37.8c0.4,20.6,4.6,41.6,12.7,60.6c1,2.4,4.5,0.3,3.5-2
				c-7.5-17.5-11.3-36.9-12.1-55.9c-0.3-7.8-0.1-15.7,1.5-23.4c1-4.8,2.5-11,7.1-13.6C102.8,69.8,100.8,66.3,98.5,67.6L98.5,67.6z"
				/>
		</g>
		<g>
			<path class="st2" d="M87.9,95.5c-17.4,45.9-7.2,105,29.7,138.8c1.9,1.7,4.7-1.1,2.8-2.8c-35.9-32.9-45.6-90.3-28.7-134.9
				C92.7,94.1,88.8,93.1,87.9,95.5L87.9,95.5z"/>
		</g>
		<g>
			<path class="st2" d="M299.5,24.9c6,30.9-11.8,61.7-31.4,84.1c-9.4,10.8-19.9,20.6-29.7,31c-10.3,11-20.2,22.2-29.6,33.9
				c-11.3,14-21.8,28.7-31.2,44.1c-1.3,2.2,2.1,4.2,3.5,2c17.3-28.2,38.3-53.7,60.8-77.8c20.6-22,43.3-42.5,55.3-70.8
				c6.3-14.8,9.3-31.7,6.2-47.6C302.9,21.3,299,22.3,299.5,24.9L299.5,24.9z"/>
		</g>
		<g>
			<path class="st2" d="M277.3,95.8c-21.7,17.2-41.1,37.7-60.1,57.8c-23.9,25.3-47.3,51.4-67.7,79.7c-8.2,11.3-16.4,23.2-21.5,36.3
				c-0.9,2.4,2.9,3.4,3.9,1.1c4.4-11.4,11.5-21.9,18.6-31.8c9.7-13.7,20.2-26.7,31-39.5c22-25.9,45.3-50.8,69.7-74.4
				c9.3-9,18.8-18.1,29-26.2C282.1,97.1,279.3,94.3,277.3,95.8L277.3,95.8z"/>
		</g>
		<g>
			<path class="st2" d="M196.1,174.4c-36.1,8.6-71.9,28.4-81.8,66.7c-5.1,19.7-3.5,42.2,4.1,61.1c7.2,18.1,32,26.9,49.9,23.6
				c2.5-0.5,1.5-4.3-1.1-3.9c-15.9,2.9-38.8-5.3-45.1-21c-2.7-6.8-4.4-14.1-5.5-21.3c-3.9-25.5,1.9-51.9,20.2-70.8
				c16.1-16.5,38.3-25.3,60.3-30.6C199.7,177.7,198.6,173.8,196.1,174.4L196.1,174.4z"/>
		</g>
		<g>
			<path class="st2" d="M149.6,292.8c0,12.3,6.9,25.4,16.7,32.7c11.1,8.2,25.4,9.6,38.5,12.3c2.5,0.5,3.6-3.3,1.1-3.9
				c-11.5-2.4-23.7-3.6-34-9.6c-10.7-6.2-18.3-19.1-18.3-31.5C153.6,290.2,149.6,290.2,149.6,292.8L149.6,292.8z"/>
		</g>
		<g>
			<path class="st2" d="M303,25.4c44.4,26.8,34.3,89.2,12.3,127.2c-12,20.8-29.6,37.1-45.3,55c-16,18.1-30.9,37.4-44,57.7
				c-13.5,20.9-25,45-21.9,70.6c0.3,2.5,4.3,2.6,4,0c-3-25.2,8.5-48.7,21.8-69.3c14.2-21.8,30.4-42.5,47.8-61.7
				c16.2-17.8,33.1-34.7,44.3-56.3c10.7-20.7,17.5-44.7,16-68.1c-1.6-23.4-12.6-46.1-33-58.5C302.8,20.6,300.8,24,303,25.4L303,25.4
				z"/>
		</g>
		<g>
			<path class="st2" d="M269.2,211.4c12.5,22.4,27.3,43.7,41.2,65.2c13.1,20.2,26.6,40.2,38.9,60.9c0.7,1.2,0.8,0.3,0,1.6
				c-2,3.3-3.9,6.6-6.1,9.8c-5.5,7.8-11.5,15.3-17.1,23.1c-1.5,2.1,1.9,4.1,3.5,2c5.2-7.1,10.6-14,15.8-21.1
				c2.5-3.5,9-10.4,8.4-15.2c-0.3-1.9-2.1-4.1-3.1-5.7c-2.5-4.1-5.1-8.1-7.6-12.1c-16.8-26.3-33.9-52.4-50.7-78.7
				c-6.7-10.4-13.6-20.8-19.6-31.6C271.4,207.1,267.9,209.1,269.2,211.4L269.2,211.4z"/>
		</g>
		<g>
			<path class="st2" d="M225.4,266.7c1.3,18.8,3.9,37.6,6.5,56.2c2.8,19.8,5.4,40.2,11.1,59.5c1.6,5.5,3.3,9.8,8,13.3
				c8,6,18.3,8.8,28,10.7c10.7,2.1,21.7,3.1,32.6,3.1c4.2,0,8.3-0.2,12.5-0.8c2.3-0.3,5.8-0.5,7.7-2c2.2-1.8,1.9-5.4,1.8-7.9
				c-0.2-5-1.2-10.1-2.2-15c-2.2-10.6-4.7-21.8-9.5-31.6c-1.1-2.3-4.6-0.3-3.5,2c3.9,7.7,6,16.6,7.9,25c1.1,4.8,2.2,9.7,2.8,14.7
				c0.3,2.3,1.5,7.2,0.3,9.4c-0.2,0.3-0.7,0.5-1.9,0.8c-1.5,0.4-3,0.6-4.5,0.8c-3.9,0.5-7.9,0.6-11.9,0.6c-10.4,0-20.9-0.9-31.1-2.9
				c-9-1.8-18.7-4.3-26.3-9.8c-4.7-3.4-5.9-7.8-7.4-13.1c-4.9-17.7-7.5-36.1-10.1-54.2c-2.8-19.5-5.5-39.1-6.9-58.7
				C229.2,264.1,225.2,264.1,225.4,266.7L225.4,266.7z"/>
		</g>
		<g>
			<path class="st2" d="M262.3,397.9c0.2-5.5,9-11.4,12.6-14.5c8.6-7.1,17.8-13.4,27.2-19.5c9.3-6,18.7-11.7,28.4-17.1
				c5.6-3.1,11.7-7,18-8.6c2.5-0.6,1.4-4.5-1.1-3.9c-4.8,1.2-9.3,3.9-13.7,6.2c-7.7,4-15.1,8.4-22.5,12.9
				c-15.2,9.3-30.7,19.1-43.8,31.2c-3.6,3.3-8.9,7.9-9.1,13.2C258.2,400.5,262.2,400.5,262.3,397.9L262.3,397.9z"/>
		</g>
		<g>
			<path class="st2" d="M204.4,336.1c3.1,14.8,8.3,29.4,13.1,43.7c4.3,12.9,8.3,26.5,14.4,38.8c1.1,2.3,4.6,0.3,3.5-2
				c-6.1-12.3-10-26-14.3-39c-4.7-14-9.7-28.1-12.7-42.6C207.8,332.5,203.9,333.5,204.4,336.1L204.4,336.1z"/>
		</g>
		<g>
			<path class="st2" d="M214.9,372.5c3.2,18.8,2.4,38.2,3,57.2c0.1,3.7,0.5,6.8,5,5.4c7.4-2.3,14.4-7.1,20.9-11
				c9.4-5.7,18.9-11.7,27.3-18.9c2-1.7-0.9-4.5-2.8-2.8c-8.7,7.5-18.7,13.7-28.6,19.5c-4.5,2.7-9.1,5.3-13.8,7.6
				c-1.1,0.5-3.5,1-4.3,1.9c-0.1,0.1-0.8,0.1-0.9,0.3c0.9,0.2,1.3,0.7,1.3,1.3c0-0.2,0-0.4-0.1-0.6c0.3-0.6-0.1-3.2-0.1-3.8
				c-0.1-2-0.1-3.9-0.1-5.9c-0.1-5.7-0.2-11.4-0.4-17.2c-0.3-11.3-0.7-22.8-2.6-33.9C218.3,368.9,214.5,370,214.9,372.5L214.9,372.5
				z"/>
		</g>
		<g>
			<path class="st2" d="M251.9,419c8.7,6,17.4,12,26.1,18c4,2.7,7.9,5.4,11.9,8.1c2.5,1.7,5.1,3.9,7.8,5.1c4.7,2.1,6.2-5.5,7.6-8.8
				c4.2-10.2,8.2-20.5,12.1-30.8c0.9-2.4-2.9-3.4-3.9-1.1c-3.5,9.1-7,18.2-10.7,27.3c-0.9,2.2-1.8,4.4-2.7,6.5
				c-0.3,0.8-1.7,2.7-1.6,3.6c-0.1,0.1-0.1,0.2-0.2,0.4c-0.6,0.9,0.1,0.8,2-0.1c0,0-0.6-0.3-0.6-0.4c-0.3-0.6-1.9-1.2-2.5-1.6
				c-14.7-9.6-28.9-19.8-43.4-29.7C251.8,414,249.8,417.5,251.9,419L251.9,419z"/>
		</g>
		<g>
			<path class="st2" d="M127.9,279.5c1.9,16.4,10.5,36,25.1,44.7c1.7,1,3.2-1.6,1.5-2.6c-13.5-8.2-21.8-26.9-23.6-42.1
				C130.7,277.6,127.7,277.6,127.9,279.5L127.9,279.5z"/>
		</g>
		<g>
			<path class="st2" d="M316,37.8c5.7,21.7,4.3,44.4-3.8,65.3c-0.7,1.8,2.2,2.6,2.9,0.8c8.3-21.4,9.6-44.7,3.8-66.9
				C318.4,35.2,315.5,36,316,37.8L316,37.8z"/>
		</g>
		<g>
			<path class="st2" d="M325.8,69.5c0.1,9-1.4,17.7-4.6,26.1c-0.7,1.8,2.2,2.6,2.9,0.8c3.3-8.7,4.9-17.6,4.7-26.9
				C328.8,67.6,325.8,67.6,325.8,69.5L325.8,69.5z"/>
		</g>
		<g>
			<path class="st2" d="M282.8,156.2c-4.5,9.1-10,17.6-16.4,25.4c-1.2,1.5,0.9,3.6,2.1,2.1c6.6-8,12.3-16.7,16.9-26
				C286.2,156,283.6,154.4,282.8,156.2L282.8,156.2z"/>
		</g>
		<g>
			<path class="st2" d="M290.1,154.8c-2.9,6.7-6.4,13-10.7,18.9c-1.1,1.6,1.5,3.1,2.6,1.5c4.2-5.9,7.8-12.2,10.7-18.9
				C293.4,154.6,290.8,153,290.1,154.8L290.1,154.8z"/>
		</g>
		<g>
			<path class="st2" d="M267.1,300.2c5,11.4,8,23.4,9.1,35.8c0.2,1.9,3.2,1.9,3,0c-1.1-13-4.2-25.4-9.5-37.3
				C268.9,296.9,266.3,298.4,267.1,300.2L267.1,300.2z"/>
		</g>
		<g>
			<path class="st2" d="M274.8,301.8c4.4,9.6,7.3,19.7,8.5,30.2c0.2,1.9,3.2,1.9,3,0c-1.3-11-4.3-21.6-8.9-31.7
				C276.6,298.5,274,300.1,274.8,301.8L274.8,301.8z"/>
		</g>
		<g>
			<path class="st2" d="M181.7,178.4c-5.6-8.7-10.4-17.8-14.6-27.2c-0.8-1.8-3.4-0.2-2.6,1.5c4.2,9.5,9,18.5,14.6,27.2
				C180.2,181.6,182.8,180.1,181.7,178.4L181.7,178.4z"/>
		</g>
		<g>
			<path class="st2" d="M188.2,177.7c-4-5.6-7.5-11.4-10.6-17.4c-0.9-1.7-3.5-0.2-2.6,1.5c3.1,6.1,6.7,11.9,10.6,17.4
				C186.7,180.7,189.3,179.2,188.2,177.7L188.2,177.7z"/>
		</g>
		<g>
			<path class="st2" d="M129.3,212.9c-7.4-10.3-14-21.2-19.8-32.5c-0.9-1.7-3.5-0.2-2.6,1.5c5.8,11.3,12.4,22.1,19.8,32.5
				C127.8,216,130.4,214.5,129.3,212.9L129.3,212.9z"/>
		</g>
		<g>
			<path class="st2" d="M152,288.7c0,0,2-4,0-4C149,284.7,149,288.7,152,288.7C152,288.7,149,288.7,152,288.7z"/>
		</g>
		<g>
			<path class="st2" d="M154.3,279.9c-1.3-8.1,2.2-17.2,5.2-24.5c3.4-8.1,7.7-16.6,14-22.8c1.8-1.8-1-4.6-2.8-2.8
				c-6.8,6.7-11.4,15.8-15,24.6c-3.4,8.2-6.7,17.7-5.2,26.7C150.8,283.5,154.7,282.4,154.3,279.9L154.3,279.9z"/>
		</g>
		<g>
			<path class="st2" d="M151.3,194.4c-3.2-6.4-6.6-12.7-10.2-18.9c-1-1.7-3.6-0.2-2.6,1.5c3.6,6.2,7,12.5,10.2,18.9
				C149.6,197.7,152.2,196.2,151.3,194.4L151.3,194.4z"/>
		</g>
		<g>
			<path class="st2" d="M154.8,193.3c-2.2-3.8-4.1-7.8-5.7-12c-0.7-1.8-3.6-1-2.9,0.8c1.6,4.4,3.6,8.7,6,12.7
				C153.2,196.4,155.8,194.9,154.8,193.3L154.8,193.3z"/>
		</g>
		<g>
			<path class="st2" d="M123.1,224.6c-2.8-2.5-5.2-5.2-7.2-8.4c-1-1.6-3.6-0.1-2.6,1.5c2.1,3.4,4.7,6.4,7.7,9
				C122.4,228,124.6,225.9,123.1,224.6L123.1,224.6z"/>
		</g>
		<g>
			<path class="st2" d="M124.7,220.5c-4.6-5.2-8.6-10.8-12.2-16.8c-1-1.7-3.6-0.2-2.6,1.5c3.7,6.2,7.9,12,12.7,17.4
				C123.9,224.1,126,221.9,124.7,220.5L124.7,220.5z"/>
		</g>
		<g>
			<path class="st2" d="M193.5,331.7c-11.4-8.8-14-23.1-11.9-36.7c0.3-1.9-2.6-2.7-2.9-0.8c-2.2,14.6,0.5,30.1,12.7,39.6
				C192.9,335,195,332.9,193.5,331.7L193.5,331.7z"/>
		</g>
		<g>
			<path class="st2" d="M199.2,333.4c-4.6-6.6-6.8-14-6.3-22c0.1-1.9-2.9-1.9-3,0c-0.5,8.5,1.9,16.6,6.8,23.5
				C197.7,336.4,200.3,334.9,199.2,333.4L199.2,333.4z"/>
		</g>
		<path class="st2" d="M350.4,337.4c0,0-0.1-0.1-0.2-0.2l-0.7-1l-0.8,1c-0.1,0.1-0.3,0.2-0.5,0.3c-5.3,1.4-10.3,4.2-15.1,7
			c-1,0.6-2.1,1.2-3.1,1.7c-3.4,1.9-6.9,3.9-10.5,6c1.4,1.1,2.2,2.9,3.3,4.3c0,0,0,0.1,0.1,0.1c0,0,0,0.1,0.1,0.1
			c0,0.1,0.1,0.1,0.1,0.2l0,0c0.2,0.4,0.2,0.9-0.1,1.2c1.5,3.4,2.9,7.1,4.1,11.4l0.6,1.9l1.2-1.6c1.5-2.1,3.1-4.1,4.6-6.1
			c3.5-4.6,7.1-9.3,10.4-14.1c1.6-2.2,3-4.6,4.3-6.8c0.6-1,1.2-2,1.8-3c0.2-0.3,0.3-0.4,0.4-0.5
			C350.9,338.4,350.9,337.9,350.4,337.4z"/>
	</g>
</g>
</svg>
