<?xml version="1.0" encoding="utf-8"?>
<!-- Generator: Adobe Illustrator 19.2.0, SVG Export Plug-In . SVG Version: 6.00 Build 0)  -->
<svg version="1.1" id="Layer_1" xmlns="http://www.w3.org/2000/svg" xmlns:xlink="http://www.w3.org/1999/xlink" x="0px" y="0px"
	 viewBox="0 0 178.8 67.9" style="enable-background:new 0 0 178.8 67.9;" xml:space="preserve">
<style type="text/css">
	.st0{fill:#D6AA89;}
	.st1{fill:#FFFFFF;}
	.st2{fill:#3A291D;}
	.st3{fill:#E2E2E2;}
</style>
<g>
	<g>
		<g>
			<path class="st0" d="M85.7,0.2c-2.7-0.9-3.2,2.4-2.4,4.7c0.9,2.4-4.7,8.3-4.7,8.3l-4.7,5.9c0,0-4.2-9.2-8.2-10.3
				C43.6,2.3,6.3,8.5,3.2,13.1c-2.3,1.4-6.7,21.5,2,21c5.9-0.4,13.4,1.1,18,2.6c8.4,2.7,8.3-1.2,8.3-1.2l13,1.2c0,0,1.6-0.4,3.8-0.9
				c0.2,1,0.1,2.1-0.3,3.2c-4.5,12.8-20,15.6-16.5,16.6C44,59.5,58,45,60.9,46.2s18.4-15.4,15.3-20c-0.4-0.5-1.4-0.9-2.7-1.2
				c0.1,0,0.3,0,0.3,0c0.9,0.3,7.1-4.4,9.4-5.9c2.4-1.5,7.1-8,7.1-11.8C90.4,3.5,88.3,1.1,85.7,0.2z"/>
		</g>
		<g>
			<g>
				<polygon class="st1" points="48,26.2 43.3,25 32.6,26.2 23.2,26.2 17.3,28.5 22,34.4 29.1,38 38.5,38 46.8,36.8 49.1,34.4 				
					"/>
			</g>
			<g>
				<polygon class="st2" points="37.4,26.2 27.9,25 25.4,27.5 29.1,33.4 35,34.6 40.9,31.1 42.1,25 				"/>
			</g>
			<g>
				<g>
					<path class="st2" d="M41.3,26.3c-0.5,4.4-3.4,7.7-8,6.9c-3.3-0.5-6.4-3-6.2-6.6c0.1-1.3-1.9-1.3-2,0c-0.3,4.7,4,8.1,8.4,8.6
						c5.8,0.6,9.2-3.6,9.8-9C43.4,25,41.4,25,41.3,26.3L41.3,26.3z"/>
				</g>
				<g>
					<path class="st2" d="M58.3,25.8c-7.9-0.9-15.9-1.5-23.9-1.5c-6,0-12.9,0-18.4,2.8c-2.3,1.2-0.3,4.7,2,3.5
						c5.5-2.9,13.1-2.3,19.1-2.2c7.1,0.1,14.1,0.7,21.1,1.4C60.8,30,60.8,26,58.3,25.8L58.3,25.8z"/>
				</g>
				<g>
					<path class="st2" d="M49.7,36.9c1.3-4.3,1.2-8.1-1.9-11.6c-1.7-1.9-4.5,0.9-2.8,2.8c2.1,2.4,1.7,4.9,0.8,7.8
						C45.1,38.3,49,39.4,49.7,36.9L49.7,36.9z"/>
				</g>
				<g>
					<path class="st2" d="M47.4,35.1c-8.3,0.9-23.8,1.5-28.6-7.2c-1.2-2.3-4.7-0.2-3.5,2c5.6,10.2,22.2,10.3,32.1,9.2
						C50,38.8,50,34.8,47.4,35.1L47.4,35.1z"/>
				</g>
				<g>
					<path class="st2" d="M46,36.7c-2.6,7.3-8.1,12.5-15.1,15.5c-1.8,0.8-0.2,3.4,1.5,2.6c7.7-3.4,13.6-9.3,16.5-17.3
						C49.5,35.6,46.6,34.8,46,36.7L46,36.7z"/>
				</g>
			</g>
			<g>
				<g>
					<path class="st2" d="M81,6.1c0,2.2-2.2,4.5-3.6,6.2c-1.4,1.6-2.8,3.1-4.4,4.5c-1.5,1.3,0.7,3.4,2.1,2.1c2.1-1.8,4-3.8,5.7-6
						c1.5-2,3.2-4.1,3.2-6.7C84,4.2,81,4.2,81,6.1L81,6.1z"/>
				</g>
				<g>
					<path class="st2" d="M82.1,15.8c-2.5,3.1-5.7,5.4-9.5,6.6c-1.8,0.6-1,3.5,0.8,2.9c4.3-1.4,8-3.9,10.8-7.4
						C85.5,16.4,83.4,14.3,82.1,15.8L82.1,15.8z"/>
				</g>
			</g>
			<g>
				<path class="st2" d="M15.2,25.3c13.6-0.6,27.1-1.8,40.7-2.9c1.9-0.1,1.9-3.2,0-3c-13.5,1.1-27.1,2.3-40.7,2.9
					C13.3,22.4,13.3,25.4,15.2,25.3L15.2,25.3z"/>
			</g>
		</g>
	</g>
	<g>
		<g>
			<path class="st0" d="M169,10.1c-3.7-2.3-42.4-6.2-58.6-1c-7.9,2.6-9.5,17.5-6.8,20.8c2.7,3.2,8.6,6.5,11.8,7.3
				c4.3,1.2,13-0.3,13-0.3l13-1.2c0,0-0.1,3.8,8.3,1.2c4.7-1.5,12.1-2.9,18-2.6C176.3,34.7,172.5,12.9,169,10.1z"/>
		</g>
		<g>
			<g>
				<polygon class="st1" points="149.6,26.2 140.2,26.2 129.6,25 124.9,26.2 123.7,34.4 126,36.8 134.3,38 143.7,38 150.8,34.4 
					155.5,28.5 				"/>
			</g>
			<g>
				<polygon class="st2" points="144.9,25 135.5,26.2 130.8,25 131.9,32.1 137.8,34.6 143.7,32.4 146.4,28.5 				"/>
			</g>
			<g>
				<g>
					<path class="st2" d="M129.5,26.3c0.6,5.4,4.1,9.6,9.8,9c4.4-0.5,8.7-3.8,8.4-8.6c-0.1-1.3-2.1-1.3-2,0c0.2,3.6-2.9,6-6.2,6.6
						c-4.6,0.8-7.6-2.5-8-6.9C131.4,25,129.4,25,129.5,26.3L129.5,26.3z"/>
				</g>
				<g>
					<path class="st2" d="M114.6,29.8c7-0.8,14.1-1.3,21.1-1.4c6-0.1,13.6-0.6,19.1,2.2c2.3,1.2,4.3-2.3,2-3.5
						c-5.4-2.8-12.4-2.8-18.4-2.8c-8,0-15.9,0.6-23.9,1.5C112,26,112,30,114.6,29.8L114.6,29.8z"/>
				</g>
				<g>
					<path class="st2" d="M127,35.9c-0.8-2.8-1.2-5.4,0.8-7.8c1.7-1.9-1.1-4.8-2.8-2.8c-3.1,3.5-3.2,7.3-1.9,11.6
						C123.8,39.4,127.7,38.3,127,35.9L127,35.9z"/>
				</g>
				<g>
					<path class="st2" d="M125.4,39.1c9.9,1.1,26.5,1,32.1-9.2c1.2-2.3-2.2-4.3-3.5-2c-4.8,8.7-20.3,8.1-28.6,7.2
						C122.8,34.8,122.9,38.8,125.4,39.1L125.4,39.1z"/>
				</g>
				<g>
					<path class="st2" d="M124,37.4c2.9,8,8.7,13.9,16.5,17.3c1.8,0.8,3.3-1.8,1.5-2.6c-7-3.1-12.5-8.3-15.1-15.5
						C126.2,34.8,123.3,35.6,124,37.4L124,37.4z"/>
				</g>
			</g>
			<g>
				<path class="st2" d="M157.6,22.3c-13.6-0.6-27.1-1.8-40.7-2.9c-1.9-0.2-1.9,2.9,0,3c13.5,1.1,27.1,2.3,40.7,2.9
					C159.5,25.4,159.5,22.4,157.6,22.3L157.6,22.3z"/>
			</g>
		</g>
	</g>
</g>
<g>
	<ellipse class="st3" cx="38" cy="30.4" rx="3.1" ry="1.4"/>
	<ellipse class="st3" cx="143" cy="30.4" rx="3.1" ry="1.4"/>
</g>
</svg>
