<?xml version="1.0" encoding="utf-8"?>
<!-- Generator: Adobe Illustrator 19.2.0, SVG Export Plug-In . SVG Version: 6.00 Build 0)  -->
<svg version="1.1" id="Layer_1" xmlns="http://www.w3.org/2000/svg" xmlns:xlink="http://www.w3.org/1999/xlink" x="0px" y="0px"
	 viewBox="0 0 530 300" style="enable-background:new 0 0 530 300;" xml:space="preserve">
<style type="text/css">
	.st0{fill:#FFD4DA;}
	.st1{opacity:0.55;}
	.st2{fill:#E1A3A8;}
	.st3{opacity:0.35;}
	.st4{fill:#AD6872;}
	.st5{opacity:0.35;fill:#843E3E;enable-background:new    ;}
	.st6{fill:#843E3E;}
	.st7{fill:#9E5255;}
</style>
<g>
	<path class="st0" d="M488.2,150.8c-9.6-7.3-84.4-55.1-93-60.5c-3.5-2.2-7.1,0.2-6.5-10.4c-14.5-16.2-13.6-40.8-13.6-40.8L347,13.8
		c0,0,1.4,44.7,1.4,55.2c-5.5,4.4-52.3,37.8-57.8,40.2c-12.2,24.3-27.8,51.4-27.8,51.4l-13.9-36.5c0,0-63.3-39.3-73-46.4
		c-3.3-2,2.2-51.3,2.2-51.3s-22.9,19-23.5,20.9c-5.7,19.6-3.6,31.1-20.5,41.5c-5.7,3.5-1.1,8.6-1.1,8.6s-55.7,22.1-96.1,52.3
		c-21.9,16.4-24.2,57.8,3.5,79c83,63.6,325,89.2,445.3,8.8C513.9,218.6,521.2,175.9,488.2,150.8z"/>
	<g class="st1">
		<path class="st2" d="M138.4,105.7c-1.7-3.3-2.9-5.9-4-8.3c-0.2-0.5-0.4-0.9-0.6-1.3c-1-2.1-1.8-3.7,0.2-6.2c2.4-3,5.4-5.4,8.3-7.7
			c1.4-1.1,2.8-2.2,4.1-3.3c1.5-1.3,1.6-2.5,1.7-4.5c0-0.5,0.1-1,0.1-1.5c0.8-6.6,1.8-14.8,4.9-21.5c1.7-3.7,4.8-6.6,7.8-9.4
			c0.4-0.4,0.8-0.8,1.2-1.2c4-3.8,8.3-7.4,13.2-11.2l1.7-1.3v2.1c-0.2,6.9-0.4,14.3-0.7,22.5v0.6l-0.5,0.3c-0.2,0.1-0.3,0.2-0.4,0.4
			c-1.9,3-3.3,6.9-3.9,11l-0.2,1.5l-1.3-0.8c-0.9-0.6-2.4-0.9-4.1-0.9c-0.6,0-1.2,0-1.8,0.1c-5.1,0.8-9.1,4-10.8,8.8
			c-0.9,2.4-1.2,5.1-1.2,8.5c0,0.7,0,1.4,0.1,2.1c0.2,4.5,0.3,7.4-4.7,11.1c-3.7,2.8-6.3,5.5-7.2,10.1l-0.6,2.9L138.4,105.7z"/>
		<path class="st2" d="M179.8,173.1c-7.2-9-14.2-19-21.3-30.7l-0.2-0.3l0.1-0.4c1-6.8,3.9-13,8.4-17.8c1.4-1.5,3-2.7,4.6-3.8
			c2.2-1.6,4.4-3.2,5.7-5.3c1.8-2.9,1.4-5.9,1-9.1c-0.1-1-0.3-2-0.3-3.1c-0.5-7.3,4.1-11.8,13.6-13.6l0.4-0.1l0.4,0.2
			c3.2,2,6.4,4,9.6,6l2.5,1.6c4.5,2.8,9.1,5.6,13.7,8.5l2.3,1.4l-2.7,0.4c-9.1,1.4-10.3,11.9-11.4,21.2c-0.4,3-0.7,5.9-1.3,8.3
			c-1.5,5.9-5.5,10.2-9.4,14.3c-1.7,1.7-3.4,3.6-4.8,5.4c-3.8,4.8-6.8,10.4-9.2,16.5l-0.6,1.6L179.8,173.1z"/>
		<path class="st2" d="M376.4,53.1c-1.4-1.8-3.1-3.1-5.1-3.9c-1.9-0.7-4-1.1-6.4-1.1c-3.1,0-6.2,0.6-8.8,1.1l-0.8,0.2l-0.3-0.8
			c-1.3-3.2-3.2-5.7-5.6-7.9c-0.2-0.2-0.4,0.1-0.7,0.1h-1v-1.4l-0.1-4.3c-0.1-5.9-0.3-12.2-0.3-18.2v-2.2l1.7,1.4
			c3.3,2.7,6.5,5.5,9.6,8.3c1.1,1,2.1,1.9,3.2,2.9c1.4,1.2,2.8,2.4,4.2,3.6c3.1,2.6,6.3,5.2,9,8.2l0.2,0.2l0.1,0.2
			c0.2,0.8,0.4,1.5,0.5,2.2c0.1,0.3,0.2,0.7,0.2,1l2.4,9.6L376.4,53.1z"/>
		<path class="st2" d="M237.6,145.3v-0.5l-0.9-1c-0.2-0.2-0.6-0.5-1-0.9c-0.6-0.5-1.3-1.1-1.8-1.6l-1-1.1l-0.6,1.4
			c-0.6,1.3-1.9,2.8-3,4.2c-0.7,0.8-1.3,1.6-1.8,2.3c-2.8,4.1-5.7,8.3-8.4,12.4c-7.2,10.9-14.7,22.1-23.4,32
			c-0.2,0.2-0.5,0.2-0.6,0.2c-0.3,0-0.6-0.1-0.8-0.3c-8.6-8.4-16.8-18.4-25.3-30.6l-1.6-2.3l-0.2,2.7c-2.2,24.5,0,49.2,2.2,73.2
			c1.3,14,2.6,28.4,3,42.7c21.2,3.9,43.6,6.6,66.4,8.2C233.2,239.7,232.8,192.2,237.6,145.3z"/>
		<path class="st2" d="M360.6,250.8c0.2-1.7,0.4-3.4,0.6-5.1c0.5-3.3,0.9-6.8,1-10.2c0.2-6.2-1.4-11.5-3-15.9
			c-3-8.3-3.1-16.7-3.1-25.5l-0.2-34.9l-1.7,2c-4.2,4.9-8.3,9.3-12.4,13.3c-0.6,0.6-1.2,1.2-1.8,1.8c-2.4,2.4-5,5.1-7.8,6.3
			c-0.1,0-0.1,0-0.2,0c-0.3,0-0.8-0.4-1-0.9c-6.8-18.7-16.4-36.5-28.5-52.6l-0.5-0.7l-0.8,0.4c-5.4,3.1-10.7,9.2-14.2,16.3l-0.3,0.6
			l0.4,0.5c0,0.1,0.1,0.1,0.1,0.2c14.9,45.4,24.8,92.6,29.3,140.2c15.2-1,30.2-2.6,45-4.9C360.5,272.1,359.5,261.4,360.6,250.8z"/>
		<path class="st2" d="M399.1,93.6c-0.6-0.4-1.3-0.7-1.9-1.1c-1-0.6-2.1-1.2-3.1-1.8c-0.7-0.4-1.2-0.8-1.5-1.3l-0.2-0.2
			c-0.5-0.2-1-0.3-1.5-0.6l-0.2,1.2c-1.4,8.6-4,17.5-7.7,26.3l-0.3,0.6l0.5,0.5c0.1,0.1,0.1,0.1,0.1,0.2
			c3.8,12.7,7.7,25.9,10.8,39.1c1.5,6.5,2.5,13.3,3.5,19.8c0.9,5.9,1.8,12,3.1,18c0.7,3.4,2,6.6,3.2,9.8c1.1,2.7,2.2,5.5,2.9,8.4
			c1.3,5.2,1.8,10.8,2.2,16.1l3.3,41.4c0,0,0,0.1,0,0.2l-0.1,0.3c8.7-2.5,17.2-5.4,25.3-8.5c1.8-0.7,3.5-1.4,5.3-2.1
			c8.5-3.5,16.7-7.3,24.5-11.4l-0.1-0.1c-0.1-0.1-0.2-0.1-0.2-0.4c-0.1-23.4-3.1-46.2-5.8-63.4l-0.9-6.2
			c-2.6-17.3-5.4-35.3-9.9-52.5c-11.1-7.2-22.8-14.7-32.7-21.1C411.8,101.1,405.6,97.4,399.1,93.6z"/>
		<path class="st2" d="M119.5,264.9c-6.2-54.7-2.9-109.6,9.6-163.3l0.5-2l-1.9,0.9c-16.4,7.8-31.2,14.9-45.9,22.7l-0.4,0.2l-0.1,0.4
			c-11,39.5-15.6,80.4-13.4,121.3v0.5c15,7.6,32.5,14.3,51.7,20.1L119.5,264.9z"/>
		<path class="st2" d="M488.2,150.8c-2.4-1.8-8.8-6.1-17.2-11.6l-45.4,14c-3.1,0.9-6.1,1.9-9.2,2.8c-12,3.7-24.4,7.6-36.8,10.5
			c-12.8,3-26.7,4.4-42.6,4.4c-13.7,0-27.5-1.1-40.5-2.1c-8-0.7-15.8-1.3-23.6-1.6c-0.6,0-1.1-0.1-1.7-0.1c-1.5-0.1-3.1-0.2-4.7-0.2
			c-1.1,0-2,0-2.9,0.1c-2.9,0.2-5.1,1.1-7.4,2.1c-0.6,0.3-1.3,0.5-2,0.8c-3.4,1.3-7.4,1.4-10.4,1.4c-1.6,0-3.2-0.2-4.7-0.2
			s-3-0.3-4.5-0.3h-0.3c-2.9,0-5.8,0.2-8.7,0.2c-3.7,0-7.3,0.1-11,0.1c-30.7-0.3-58.5-3.2-84.9-8.9c-20.1-4.3-40.5-9-60.2-13.6
			c-7.4-1.7-14.8-3.4-22.3-5.1l-0.5-0.1l-0.4,0.3c-7.4,5.5-15.6,11.7-21,20.1c-5.7,11.3-7,25.6-2.9,38.9h0.1h0.1h0.1
			c37,7.3,74.4,13.5,111,18.3c36.4,4.8,68.6,8.1,98.4,10.1c3.3,0.2,6.3,0.3,9.1,0.3c6.1,0,11.7-0.5,17.1-1.5l1.7-0.3
			c6-1.1,11.7-2.2,17.7-2.2c0.3,0,0.7,0,1,0c5.9,0.1,11.9,1.1,17.7,2c1.9,0.3,3.8,0.6,5.7,0.9c6.4,0.9,13.1,1.4,19.8,1.4
			c1.7,0,3.4,0,5-0.1c12.9-0.4,25.8-2.1,38.4-3.7c3.4-0.4,6.8-0.9,10.2-1.3l15.7-1.9c11.1-1.3,22.1-2.6,33.2-4
			c34.2-4.1,61.4-12.8,85.4-27.2C510.2,178.2,503.6,162.5,488.2,150.8z"/>
		<path class="st2" d="M323.6,160.2c-5.2-10.5-11.4-20.6-18.4-30.1l-0.7-1l1.1-0.5c0.1,0,0.1-0.1,0.2-0.1l26-25.1
			c1.8-1.7,3.6-3.4,5.4-5.1c6.2-5.7,12.5-11.6,17.2-18.5c7.7-11.3,11-25.8,10.5-45.9l-0.1-2.2l1.7,1.4c2.4,2,5.2,4.4,7.5,6.9
			l0.2,0.2l0.1,0.2c0.2,0.7,0.4,1.4,0.5,2.1c0.1,0.3,0.2,0.7,0.2,1l2.5,10.1c0.5,2,0.8,3.9,1.2,5.7c0.4,2.3,0.9,4.7,1.7,7.6
			c0.8,3,1.9,6.4,3.8,9.1c0.8,1.1,1.7,2.1,2.6,3.1l0.9,1l-0.1,0.5c-9.1,33.7-31.8,62.8-62.3,79.9l-1,0.7L323.6,160.2z"/>
		<path class="st2" d="M210.2,168.1c-3.6-3.3-7.2-6.5-10.8-9.7c-10.3-9.2-21-18.8-30.9-28.7c-7.4-7.5-13-14-17.7-20.6
			c-5-7.1-9.9-14.8-11.8-22.9l-0.1-0.6l0.5-0.4c1-0.8,2-1.6,3-2.4c1.4-1.1,2.8-2.2,4.1-3.4c1.5-1.3,1.6-2.5,1.7-4.5
			c0-0.5,0.1-1,0.1-1.5c0.7-5.5,1.5-12.3,3.6-18.3l1.9,0.4c-0.5,16.1,11.4,30.1,21.5,39.1c12.1,10.7,24.9,21,37.3,31
			c5.7,4.6,11.5,9.3,17.2,13.9l0.9,0.6l-0.5,0.9l-0.4,0.6c-0.2,0.3-0.4,0.6-0.5,0.8c-4.1,5.7-8.1,11.6-11.9,17.4
			c-1.9,2.8-3.7,5.6-5.6,8.3l-0.7,1.1L210.2,168.1z"/>
		<polygon class="st2" points="346.9,39.3 347,70.9 352.5,67.6 356,59 355.4,52.2 352.4,44.1 		"/>
		<path class="st2" d="M485.7,237.4c3.4-2.3,6.5-4.9,9.3-7.8l-46.6,13.5c-3.3,0.9-6.5,1.9-9.8,2.8c-12.8,3.7-25.9,7.6-39.1,10.5
			c-13.6,3-28.5,4.4-45.3,4.4c-14.5,0-29.3-1.1-43.1-2.1c-8.5-0.7-16.8-1.3-25.1-1.6c-0.6,0-1.2-0.1-1.8-0.1c-1.6-0.1-3.3-0.2-5-0.2
			c-1.1,0-2.1,0-3.1,0.1c-3.1,0.2-5.4,1.1-7.9,2.1c-0.7,0.3-1.4,0.5-2.1,0.8c-3.7,1.3-7.9,1.4-11.1,1.4c-1.7,0-3.4-0.2-5-0.2
			s-3.2-0.3-4.8-0.3h-0.3c-3.1,0-6.2,0.2-9.3,0.2c-3.9,0-7.8,0.1-11.7,0.1c-32.7-0.3-62.2-3.2-90.4-8.9c-21.4-4.3-43.1-9-64.1-13.6
			c-7.1-1.5-14.2-3.1-21.3-4.6C137.3,293.6,368.9,315.5,485.7,237.4z"/>
		<path class="st2" d="M356.2,153.3c-1.5-3.8-4.2-7.3-8.6-11c-2-1.7-4.2-3.3-6.3-4.9l-1.5-1.1c-0.8-0.6-1.7-1.2-2.6-1.8
			c-4.4-3-9.8-6.7-9.9-12.3c0-1.3,0.1-2.6,0.3-3.8c0.2-1.8,0.4-3.5,0.1-5.3c-0.5-3.1-1.6-5.9-3.3-8.3c-2.8-3.8-6.9-6.2-11.7-6.8
			l-2.7-0.3l3.5-2.3c2.9-1.9,5.8-3.8,8.7-5.7c1.5-1,3-2,4.6-3c8-5.3,16.3-10.7,23.7-17c0.5-0.4,1-0.9,1.5-1.4l0.4-0.5l5.3,1.9
			l0.2,0.3c0.6,0.9,1,1.8,1.3,2.8c0.5,1.3,0.8,2.5,1.1,4.2c0.4,2.7,0.4,5.3,0.4,7.8c0,1-0.1,2-0.1,3c-0.2,3.3-0.4,6.8,0.9,9.4
			c1.2,2.4,3.7,3.5,6.3,4.6l0.3,0.1c6.3,2.8,9.8,7.1,10.7,13.4c0,0.2,0.1,0.2,0.2,0.2s0.2,0,0.3-0.1l2.4-1.1l-1,2.4
			c-4.9,11.3-12,22.9-20.8,34.4c-0.4,0.5-0.9,1.1-1.3,1.6l-1.8,2.2L356.2,153.3z"/>
	</g>
	<g class="st3">
		<path class="st4" d="M75,149.9c-4.1,20.1-6.5,40.4-7.3,60.9c16.3,2.8,32.6,5.4,48.9,7.7c-0.3-19.6,0.6-39.1,2.7-58.5
			C104.4,156.7,89.6,153.3,75,149.9z"/>
		<path class="st4" d="M234.6,231.1c-0.7-20-0.4-40.2,0.9-60.2c-0.3,0-0.6-0.1-0.9-0.1h-0.3c-2.9,0-5.8,0.2-8.7,0.2
			c-3.7,0-7.3,0.1-11,0.1c-0.9,0-1.7,0-2.5,0c-5.1,7.4-10.4,14.8-16.3,21.5c-0.2,0.2-0.5,0.2-0.6,0.2c-0.3,0-0.6-0.1-0.8-0.3
			c-6.8-6.7-13.5-14.5-20.2-23.5c-2.5-0.2-4.9-0.5-7.4-0.8c-1.2,19,0.1,38.1,1.7,56.9c22.6,2.6,43.7,4.5,63.6,5.8
			C233,231,233.8,231,234.6,231.1z"/>
		<path class="st4" d="M341.7,174.4c-0.6,0.6-1.2,1.2-1.8,1.8c-2.4,2.4-5,5.1-7.8,6.3c-0.1,0-0.1,0-0.2,0c-0.3,0-0.8-0.4-1-0.9
			c-1.3-3.7-2.8-7.4-4.4-11c-10.2-0.4-20.4-1.1-30.1-1.9c-0.8-0.1-1.7-0.1-2.5-0.2c5.9,20.5,10.8,41.3,14.7,62.3
			c4.4,0.4,8.9,0.6,13.4,0.6c1.7,0,3.4,0,5-0.1c11.6-0.4,23.2-1.7,34.6-3.2c-0.6-3.2-1.5-6.1-2.5-8.7c-3-8.3-3.1-16.7-3.1-25.5
			l-0.2-23.9c-3.4,0.3-7,0.5-10.6,0.6C344.2,172,343,173.2,341.7,174.4z"/>
		<path class="st4" d="M461.4,184.5l-0.9-6.2c-1.7-11.3-3.5-22.7-5.7-34.1l-29.1,9c-3.1,0.9-6.1,1.9-9.2,2.8
			c-6.9,2.2-13.9,4.4-21,6.4c0.9,4.7,1.6,9.4,2.3,14c0.9,5.9,1.8,12,3.1,18c0.7,3.4,2,6.6,3.2,9.8c1.1,2.7,2.2,5.5,2.9,8.4
			c0.8,3.3,1.3,6.7,1.7,10.1c5.4-0.6,10.7-1.3,16.1-1.9c14.7-1.8,28.1-4.4,40.5-8C464,202.4,462.6,192.8,461.4,184.5z"/>
		<path class="st4" d="M364.9,48.1c2.4,0,4.5,0.4,6.4,1.1c2,0.8,3.7,2.1,5.1,3.9l0.8-0.4l-2.3-9.2c-0.1-0.3-0.2-0.7-0.2-1
			c-0.2-0.7-0.3-1.4-0.5-2.1l-0.1-0.2l-0.2-0.2c-2.3-2.6-5.1-4.9-7.5-6.9l-1.7-1.4l0.1,2.2c0.1,5.1,0,9.8-0.3,14.2
			C364.6,48.1,364.8,48.1,364.9,48.1z"/>
		<path class="st4" d="M376.4,108.4c-1.8-2.8-4.5-4.9-8.2-6.6l-0.3-0.1c-2.6-1.1-5.1-2.2-6.3-4.6c-1.3-2.6-1.1-6.1-0.9-9.4
			c0.1-1,0.1-2,0.1-3c0-2.5,0-5.1-0.4-7.8c-0.3-1.6-0.6-2.9-1.1-4.2c-0.1-0.3-0.3-0.7-0.4-1c-1.3,2.9-2.8,5.6-4.5,8.1
			c-4.7,6.9-11.1,12.8-17.2,18.5c-1.8,1.7-3.7,3.4-5.4,5.1l-5.2,5c0.6,1.4,1,2.9,1.2,4.5c0.3,1.8,0.1,3.5-0.1,5.3
			c-0.1,1.2-0.3,2.5-0.3,3.8c0,5.7,5.5,9.4,9.9,12.3c0.9,0.6,1.8,1.2,2.6,1.8l1.5,1.1c2.1,1.6,4.3,3.2,6.3,4.9
			c0.4,0.4,0.9,0.8,1.3,1.1C359.9,133.4,369.3,121.5,376.4,108.4z"/>
		<path class="st4" d="M178.6,97.3c-0.6,1.6-0.9,3.4-0.8,5.4c0.1,1,0.2,2.1,0.3,3.1c0.4,3.2,0.8,6.3-1,9.1c-1.3,2.1-3.5,3.7-5.7,5.3
			c-1.6,1.2-3.3,2.4-4.6,3.8c-0.6,0.7-1.2,1.4-1.8,2.1c1.1,1.2,2.3,2.4,3.5,3.6c8,8.1,16.6,15.9,25,23.5c0.7-0.7,1.4-1.5,2.1-2.2
			c3.9-4.1,8-8.4,9.4-14.3c0.6-2.4,0.9-5.2,1.3-8.3c0.3-2.4,0.6-4.8,1-7.2C197.7,113.4,188,105.4,178.6,97.3z"/>
		<path class="st4" d="M156.3,68.9c-1.6-4.2-2.5-8.7-2.4-13.4l-1.9-0.4c-2.1,6.1-2.9,12.8-3.6,18.3c-0.1,0.5-0.1,1.1-0.1,1.5
			c-0.2,2-0.3,3.2-1.7,4.5c-1.3,1.2-2.7,2.3-4.1,3.4c-1,0.8-2,1.6-3,2.4l-0.5,0.4l0.1,0.6c1,4.2,2.8,8.3,4.9,12.3c1-1.1,2.2-2,3.5-3
			c4.9-3.7,4.8-6.6,4.7-11.1c0-0.7,0-1.4-0.1-2.1c0-3.4,0.3-6.1,1.2-8.5C154,71.8,155,70.2,156.3,68.9z"/>
		<path class="st4" d="M119.5,264.9c-0.6-5.3-1.1-10.5-1.5-15.8c-16.4-3.4-32.8-7-48.7-10.5c-0.5-0.1-1.1-0.2-1.6-0.4
			c0.1,2.3,0.2,4.5,0.3,6.8v0.5c1.1,0.6,2.3,1.1,3.4,1.7c0,0,0.1,0,0.1,0.1c3.4,1.6,6.8,3.2,10.4,4.8c0.1,0,0.2,0.1,0.3,0.1
			c1.7,0.7,3.4,1.5,5.2,2.2c0.2,0.1,0.4,0.2,0.6,0.2c1.7,0.7,3.4,1.4,5.2,2c0.2,0.1,0.5,0.2,0.7,0.3c1.8,0.7,3.5,1.3,5.4,2
			c0.2,0.1,0.3,0.1,0.5,0.2c1.8,0.7,3.6,1.3,5.5,1.9c0.1,0,0.2,0.1,0.3,0.1c1.8,0.6,3.7,1.2,5.5,1.8c0.3,0.1,0.6,0.2,0.9,0.3
			c1.8,0.6,3.6,1.1,5.4,1.7c0.4,0.1,0.8,0.2,1.2,0.4c0.4,0.1,0.8,0.2,1.2,0.3L119.5,264.9z"/>
		<path class="st4" d="M236.3,261c-0.3,0-0.6,0-0.9,0c-3.9,0-7.8,0.1-11.7,0.1c-18.3-0.2-35.7-1.2-52.4-3c0.5,6.7,0.9,13.5,1.1,20.2
			l0,0c2.6,0.5,5.2,0.9,7.9,1.4c0.4,0.1,0.7,0.1,1.1,0.2c2.2,0.4,4.5,0.7,6.7,1.1c0.8,0.1,1.5,0.2,2.3,0.3c1.9,0.3,3.7,0.6,5.6,0.8
			c0.9,0.1,1.8,0.2,2.7,0.4c1.8,0.2,3.5,0.5,5.3,0.7c1,0.1,1.9,0.2,2.9,0.3c1.7,0.2,3.5,0.4,5.2,0.6c1,0.1,2,0.2,2.9,0.3
			c1.7,0.2,3.5,0.4,5.2,0.5c1,0.1,2,0.2,2.9,0.3c1.8,0.2,3.6,0.3,5.3,0.5c0.9,0.1,1.9,0.2,2.8,0.2c1.9,0.1,3.7,0.3,5.6,0.4
			c0.6,0,1.2,0.1,1.9,0.1C237.8,278,237,269.5,236.3,261z"/>
		<path class="st4" d="M360.1,260.8c-2,0-4,0.1-6,0.1c-13.8,0-27.7-0.9-40.9-2c1.3,9.2,2.4,18.4,3.2,27.6c0.5,0,1-0.1,1.4-0.1
			c1-0.1,1.9-0.1,2.9-0.2c1.5-0.1,3.1-0.2,4.6-0.4c0.8-0.1,1.5-0.1,2.3-0.2c2.2-0.2,4.3-0.4,6.5-0.6c0.8-0.1,1.6-0.2,2.4-0.2
			c1.6-0.2,3.1-0.3,4.7-0.5c0.8-0.1,1.6-0.2,2.4-0.3c2.2-0.3,4.3-0.5,6.5-0.8c0.2,0,0.5-0.1,0.7-0.1c2.1-0.3,4.2-0.6,6.3-0.9
			c0.7-0.1,1.4-0.2,2.1-0.3s1.5-0.2,2.2-0.3C360.8,275.1,360.1,268,360.1,260.8z"/>
		<path class="st4" d="M438.6,245.9c-9,2.6-18.2,5.3-27.5,7.7l1.3,16.2c0,0,0,0.1,0,0.2l-0.1,0.3c0.6-0.2,1.1-0.3,1.7-0.5
			c1.3-0.4,2.6-0.8,3.9-1.2c0.9-0.3,1.8-0.6,2.7-0.9c1.3-0.4,2.6-0.8,3.9-1.3c0.9-0.3,1.7-0.6,2.6-0.9c1.3-0.5,2.7-0.9,4-1.4
			c0.8-0.3,1.6-0.6,2.3-0.9c1.4-0.5,2.7-1,4.1-1.5c1.9-0.7,3.7-1.4,5.6-2.2c1.5-0.6,2.9-1.2,4.3-1.8c0.7-0.3,1.4-0.6,2.1-0.9
			c1.4-0.6,2.7-1.2,4-1.8c0.7-0.3,1.5-0.7,2.2-1c1.3-0.6,2.6-1.2,3.8-1.9c0.8-0.4,1.5-0.7,2.3-1.1c1.2-0.6,2.4-1.3,3.6-1.9
			c0.6-0.3,1.3-0.7,1.9-1l-0.1-0.1c-0.1-0.1-0.2-0.1-0.2-0.4c0-3.4-0.1-6.8-0.2-10.2l-18.5,5.4C445.1,244,441.9,245,438.6,245.9z"/>
	</g>
	<path class="st5" d="M227.4,144l-29.8,44.2c0,0,6.9,9.5,10.6,8.9s27.4-36,27.4-36l17.2,10.7l3.2-6.7l-21.2-26.6L227.4,144z"/>
	<g class="st3">
		<path class="st6" d="M183.4,113.9c-4.4-1.7-31.2-27.6-31.2-27.6s-6.2-9.9-6-11.4l-3.9,5.4c0,0,0,6.4,5.2,12
			c2.1,2.3,27.8,25.8,32,27C182.2,120.1,186.2,115,183.4,113.9z"/>
		<path class="st6" d="M174.7,61.7l-1.7,4.5l-0.2,7.2l2.9,0.1l2.4-47.7l-13.5,10l-12.3,16C156.3,46.3,171.8,48,174.7,61.7z"/>
		<path class="st6" d="M354.4,62.5c-1-14.6,9.4-31.7,18.8-21.7c3.6,3.8-2.4-5.8-2.4-5.8l-24.2-21.4l0.7,56.8
			C347.3,70.3,354.4,63.2,354.4,62.5z"/>
		<path class="st6" d="M378.9,66.2c-2.6-0.7-3.6,2.4-5.2,5.2c0,0-11.9,17.5-13,19.5c-1,2-8.8,7.7-9.3,9.9c-0.6,2.7,0,4.9,3.1,5.2
			c3.3,0.3,5.5-4.3,7.9-8.1s14.8-18.2,17.3-22.6S381.1,66.8,378.9,66.2z"/>
	</g>
	<path class="st5" d="M303.6,128.4h-4.1l-11,12.1l-5.1,10.5c0,0,2.3,4.8,6.7,4.3c4.4-0.6,10.1-3.8,10.1-3.8s19.7,30.7,23,30.7
		s8.2-4.1,8.2-4.1l-9.8-21L303.6,128.4z"/>
	<g>
		<g>
			<path class="st7" d="M345.9,16.2c5.1,3.9,9.8,8.4,14.6,12.6c4.2,3.7,9,7.2,12.7,11.3c0.8,0.9-0.4-1.3,0,0c0.3,1,0.5,2,0.7,3
				c0.8,3.4,1.7,6.7,2.5,10.1c1.1,4.6,1.4,8,2.9,13.3c0.9,3.3,2,6.7,4,9.4c2.7,3.7,6.1,5.9,7.3,10.8c0.6,2.4,0.7,3.5,2.9,4.8
				c1.7,1,3.4,2,5.1,2.9c13.1,7.7,26.2,15.6,39,23.7c16.5,10.4,33.3,21,48,34c1.9,1.7,4.8-1.1,2.8-2.8c-12.6-11.2-27-20.6-41.1-29.7
				s-28.4-17.8-42.8-26.4c-2.5-1.5-8.7-4-9.8-6.1c-0.6-1.1-0.6-2.9-1.1-4.2c-0.7-1.8-1.7-3.5-2.9-5c-1.4-1.8-3.3-3-4.5-4.9
				c-1.3-2-2.1-4.3-2.7-6.6c-1.3-4.4-1.9-9.1-3-13.5c-0.8-3.1-1.5-6.1-2.3-9.2c-0.4-1.8-0.6-4.4-1.7-5.9c-0.9-1.3-2.7-2.5-3.9-3.5
				c-2.8-2.5-5.7-5.1-8.5-7.6c-5.3-4.7-10.6-9.6-16.2-14C345.9,11.2,343.9,14.6,345.9,16.2L345.9,16.2z"/>
		</g>
		<g>
			<path class="st7" d="M388.6,82.8c-2.1,25-14.4,48-29.5,67.6c-5.6,7.3-11.8,14.3-18.4,20.7c-2.1,2-4.2,4-6.4,5.9
				c-0.7,0.6-1.7,1.2-2.3,1.9c-0.2,0.2-1.3,0.8-0.6,0.5c0.8,0.5,1.6,0.9,2.5,1.4c-7.2-19.7-17.2-38.2-29.9-54.9
				c-0.7-0.9-1.6-1.2-2.7-0.7c-9.2,4.2-17.1,16-19.7,25.5c-0.7,2.5,3.2,3.6,3.9,1.1c2.3-8.6,9.5-19.3,17.8-23.1
				c-0.9-0.2-1.8-0.5-2.7-0.7c12.5,16.4,22.5,34.5,29.5,53.9c0.3,0.9,1.4,1.8,2.5,1.4c3.7-1.6,7.1-5.6,9.9-8.3
				c7.1-6.9,13.7-14.4,19.8-22.2c15.7-20.3,28.2-44.1,30.4-70C392.8,80.3,388.8,80.3,388.6,82.8L388.6,82.8z"/>
		</g>
		<g>
			<path class="st7" d="M265.2,284.5c0.6-19.2,0.7-38.5,0.5-57.7c0-5.2-3.1-9.8-5.1-14.5c-4.3-9.9-9.4-20.2-11.7-30.8
				c-0.1-0.5-0.3-3.1-0.6-2.4c0.5-1.2,3.4-2.9,4.3-3.7c1.6-1.5,3.1-3,4.5-4.7c5-5.6,9.4-11.7,13.3-18.1c6.8-11,12.4-22.7,17.2-34.7
				c0.6-1.6,1.3-3.1,1.9-4.7c0.2-0.6,0.8-1.8,0.5-1.4c1-1.2,4.2-2.9,6-4c8.9-5.9,17.9-11.7,26.8-17.6c9.6-6.4,19.6-12.6,28.4-20
				c9.3-7.8,7.1-22.5-1.3-30.3c-1.9-1.7-4.7,1.1-2.8,2.8c5.3,4.9,8.9,15.2,4.2,21.9c-1.6,2.3-4.4,4-6.6,5.6
				c-8.9,6.7-18.2,12.8-27.4,18.9c-8.4,5.5-16.8,10.9-25.1,16.5c-1.6,1-3.8,2.1-5,3.5c-1.3,1.5-1.8,4-2.6,5.8
				c-4.6,11.5-9.9,22.7-16.2,33.4c-4.1,6.9-8.7,13.6-14.1,19.5c-2.4,2.7-5.1,5.1-7.8,7.6c-1.2,1.1-1.8,1.7-1.9,3.3
				c-0.3,3.4,1.5,7.3,2.5,10.4c1.8,5.3,4,10.6,6.1,15.8c1.9,4.6,3.9,9.2,5.9,13.7c0.7,1.5,1.4,3.1,2,4.6c0.3,0.7,0.7,2.1,0.6,1.1
				c0.5,3.2,0,6.8,0,10.1c0,6.3-0.1,12.6-0.1,18.9c-0.1,10.3-0.1,20.7-0.4,31C261.2,287.1,265.2,287.1,265.2,284.5L265.2,284.5z"/>
		</g>
		<g>
			<path class="st7" d="M265,158.2c-4.3-9.8-8.1-19.9-12.3-29.7c-1-2.4-1.9-5.6-3.8-7.4c-1.4-1.4-3.5-2.4-5.2-3.4
				c-18.4-11.6-37.2-22.6-55.4-34.5c-3.9-2.5-8.7-5-12.1-8.2c-4.5-4.3-1.1-14.8,1.8-19.3c1.4-2.2-2.1-4.2-3.5-2
				c-3,4.7-4.6,11.2-4.3,16.7c0.2,4.7,2.2,6.8,5.8,9.4c9,6.4,18.4,12.2,27.8,18.1c10.1,6.3,20.3,12.5,30.4,18.8
				c4.7,2.9,11,5.6,13,9.7c5.3,11.1,9.4,22.8,14.3,34.1C262.5,162.6,266,160.6,265,158.2L265,158.2z"/>
		</g>
		<g>
			<path class="st7" d="M40.9,148.4c28.9-19.4,60.7-34.3,92.1-49.3c2.3-1.1,0.3-4.6-2-3.5c-31.4,15-63.1,29.9-92.1,49.3
				C36.7,146.3,38.7,149.8,40.9,148.4L40.9,148.4z"/>
		</g>
		<g>
			<path class="st7" d="M269.2,199.4c1.9,3.9,7,6,10.8,3.4c4.7-3.2,2.5-10.2-0.2-13.9c-2.6-3.5-8.3-6.9-11.9-2.7
				C264.6,189.9,266.6,195.8,269.2,199.4c1.5,2.1,5,0.1,3.5-2c-1.4-1.9-2.8-4.6-2.4-7c0.6-3.9,4.5-1.3,6,0.5s4.1,6.6,1.6,8.5
				c-1.9,1.5-4.3-0.3-5.2-2C271.5,195.1,268.1,197.1,269.2,199.4z"/>
		</g>
		<g>
			<path class="st7" d="M149.9,86.4c7,7.6,14.5,14.7,22.3,21.4c1.5,1.2,3.6-0.9,2.1-2.1C166.4,99,159,91.9,152,84.3
				C150.7,82.9,148.6,85,149.9,86.4L149.9,86.4z"/>
		</g>
		<g>
			<path class="st7" d="M149.5,96c5.5,4.5,10.7,9.2,15.8,14.2c1.4,1.4,3.5-0.8,2.1-2.1c-5.1-5-10.3-9.7-15.8-14.2
				C150.1,92.7,148,94.8,149.5,96L149.5,96z"/>
		</g>
		<g>
			<path class="st7" d="M373.8,68.2c-3.7,8.8-8.8,16.7-15.4,23.7c-1.3,1.4,0.8,3.5,2.1,2.1c6.7-7.2,12-15.3,15.8-24.3
				C377.2,67.9,374.6,66.4,373.8,68.2L373.8,68.2z"/>
		</g>
		<g>
			<path class="st7" d="M370.1,85.8c-3.5,4.7-7.1,9.4-10.6,14.1c-1.2,1.5,1.4,3,2.6,1.5c3.5-4.7,7.1-9.4,10.6-14.1
				C373.9,85.8,371.3,84.3,370.1,85.8L370.1,85.8z"/>
		</g>
		<g>
			<path class="st7" d="M348.6,69.6c0.7-18.7-0.4-37.3-0.4-56c0-1.9-3-1.9-3,0c0,18.7,1.1,37.3,0.4,56
				C345.5,71.5,348.5,71.5,348.6,69.6L348.6,69.6z"/>
		</g>
		<g>
			<path class="st7" d="M176.2,26.4c-0.3,16.2-1.1,32.3-1.8,48.5c-0.1,1.9,2.9,1.9,3,0c0.7-16.2,1.5-32.3,1.8-48.5
				C179.2,24.5,176.2,24.5,176.2,26.4L176.2,26.4z"/>
		</g>
		<g>
			<path class="st7" d="M258.8,166.3c-5.4-9.4-13.3-17.9-20.9-25.5c-1.3-1.3-3.4-4.1-5.5-3.6c-1.7,0.4-3,2.8-3.9,4
				c-11.7,16.1-21.7,33.6-34.9,48.6c0.9,0,1.9,0,2.8,0c-22.9-22-40.1-51.2-54.7-79.7c-2.3-4.4-4.5-8.6-6.5-13.1
				c-1.3-3-2.4-4-0.5-6.5c3.4-4.3,8.2-7.3,12.3-10.9c2.2-1.9,1.9-3.8,2.2-6.7c0.8-7,1.8-14.8,4.8-21.2c1.9-4.1,5.6-7.2,8.8-10.3
				c4.9-4.6,10.1-8.9,15.4-13c2-1.5,0-5-2-3.5c-8.3,6.2-17.4,13.1-23.7,21.4c-3.8,4.9-5,11.9-6,17.8c-0.5,2.9-0.9,5.8-1.3,8.8
				c-0.1,1-0.4,2.2-0.3,3.2c0.1,2.5-0.1-0.8,0.8-0.5c-0.5-0.2-4.1,3.2-4.5,3.5c-2.6,2.1-5.2,4.2-7.5,6.6c-2.4,2.4-5,5-4,8.6
				c1,3.4,2.9,6.7,4.4,9.9c6.6,13.7,14.1,27.1,22.1,40.1c10.8,17.4,22.7,34.5,37.3,48.9c0.7,0.7,2.1,0.8,2.8,0
				c12-13.6,21.5-29.6,31.8-44.5c1.4-2,4.4-4.8,5.1-7.2c0-0.1,0.6-0.6,0.6-0.7c-0.2-0.8-1.4-0.3-1.3,0.5s2.7,2.6,3.3,3.2
				c7,7.2,14.3,15,19.3,23.8C256.6,170.5,260.1,168.5,258.8,166.3L258.8,166.3z"/>
		</g>
		<path class="st7" d="M145.8,75.7c-0.1,0-0.2,0-0.4,0.1C145.6,75.7,145.7,75.6,145.8,75.7z"/>
		<path class="st7" d="M145.8,76.2c-0.1,0-0.2,0-0.4,0.1C145.6,76.2,145.7,76.2,145.8,76.2z"/>
	</g>
</g>
</svg>
