<?xml version="1.0" encoding="utf-8"?>
<!-- Generator: Adobe Illustrator 19.2.0, SVG Export Plug-In . SVG Version: 6.00 Build 0)  -->
<svg version="1.1" id="Layer_1" xmlns="http://www.w3.org/2000/svg" xmlns:xlink="http://www.w3.org/1999/xlink" x="0px" y="0px"
	 viewBox="0 0 358 342.5" style="enable-background:new 0 0 358 342.5;" xml:space="preserve">
<style type="text/css">
	.st0{fill:#F9BE72;}
	.st1{fill:#D88A3D;}
	.st2{fill:#9B581C;}
</style>
<g>
	<path class="st0" d="M291.7,282.6c-1.5-7.8-2.7-16.1-4-26.7l-0.1-1l-0.2-0.1l0.2-0.2l-0.1-0.8c-0.6-5.1-1.2-10.4-1.7-15.4
		c-2-18.7-4-38-8.6-56.6c-1.3-5.2-2.7-11.2-5.7-16.1c-1.4-2.3-3.2-4.6-6.6-4.6c-1.6,0-3.3,0.5-5.5,1.2
		c-18.6,5.7-39.5,12.1-60.3,16.5c-5.1,1.1-10.5,1.6-16.5,1.6c-8.9,0-17.7-1.2-26.7-2.5c-17.3-2.5-34.7-6-51.6-9.5l-2.9-0.6
		c-3.3-0.7-6.5-1.3-9.8-2c-0.4-0.1-1-0.2-1.6-0.4c-1.3-0.3-2.7-0.7-4-0.8l-0.5,0l-0.2,0.1l-0.3-0.1l-0.6,0.1
		c-3.1,0.7-4.4,4.3-5.2,6.6l-0.2,0.6c-3.9,10.3-5.7,21.5-7.5,32.3c-0.2,1.4-0.8,4.8-0.9,5.2l-0.2,1.5l0,0.1l-0.1,0.1l-0.1,0.5
		c-0.8,5-1.6,10.2-2.5,16l-0.1,0.9l0.1,0.2l-0.2,0.1l-0.1,0.8c-0.6,4.2-1.2,8.5-1.8,12.7c-0.5,3.7-1.1,7.5-1.6,11.2
		c-0.3,2.1-0.6,4.3-0.9,6.5c-1,7.2-2,14.5-3.9,21.5c-1.8-13-4.4-26-6.9-38.6c-2.9-14.4-5.8-29.3-7.6-44.1
		c-2.3-19.4-2.9-46.7,17.4-60l0.7-0.5l0.2-1.2l0-0.3c-0.9-8.1,1.7-16.2,7.3-23.4c12.6-16.2,34-25.3,51.2-31.5
		c17.6-6.3,31.9-9.7,45-10.9l3.5-0.3l-1.9-2.5c4.9-2,11.1-3,18.3-3c3.5,0,7.2,0.2,11.3,0.7c9.6,1.1,18.1,3.6,25.4,7.4l0.6,0.3
		l0.7-0.1c0.8-0.1,1.7-0.2,2.6-0.2c4.6,0,9.5,1.6,14.1,3.2c8.5,3,17,7.2,25.3,12.6c20.3,13.2,31.6,27.9,33.5,43.8l0.1,0.6l0.4,0.4
		c11,13.8,10.9,32.1,9.4,48.2l-0.1,0.8l0.4,0.5c0,0.5-0.1,1.4-0.7,2.9l-0.1,0.3l0,0.3c-0.3,2.8-0.7,5.7-1,8.4
		c-0.2,1.9-0.5,3.7-0.7,5.6c-1.2,9.8-2.8,20.1-4.7,30.6l-0.1,0.8l0.1,0.1l-0.1,0.1l-0.2,0.9C299.8,249,296.2,265,291.7,282.6z"/>
	<path class="st1" d="M291.7,281.6c-1.5-7.7-2.7-16.1-4-26.7l0-0.3l0.4,0.1c0.7,0.1,1.5,0.1,2.2,0.1c2.8,0,5.6-0.7,8.2-1.9
		C296.5,262,294.3,271.6,291.7,281.6z M59.2,280.8c-1.4-10.2-3.3-20.3-5.2-30.3l0.6-0.2c1.2,1.4,2.6,2.7,3.9,3.9l0.4,0.3
		c0.3,0.2,0.5,0.5,0.8,0.7c0.6,0.6,1.2,1.1,1.9,1.7l1.7,1.4c-0.1,0.4-0.1,0.8-0.2,1.1C62.1,266.5,61.1,273.9,59.2,280.8z
		 M64.5,245.7c-3.9-3.8-8-7.9-11.2-12.5l-2.5,1.1c-2.3-11.9-4.5-24-6-36.1c-0.1-0.8-0.2-1.6-0.3-2.4c3.9,13.3,13.8,23.7,21.1,30.5
		l2,1.8l-0.1,0.1l-0.1,0.8c-0.6,4.2-1.2,8.5-1.8,12.7c-0.2,1.4-0.4,2.8-0.6,4.2L64.5,245.7z M287.4,236.4c-0.1,0-0.3,0-0.4,0
		l-1.3-0.1c-0.7-6.5-1.4-13.1-2.2-19.7l1.6-1c5.7-3.5,10.7-7.8,14.8-12.6c2.4-2.8,4.6-5.9,6.5-9.2c0.2-0.4,0.5-0.8,0.7-1.2
		c0.6-0.9,1.2-2,1.9-3.2c-0.2,1.8-0.5,3.6-0.7,5.4c-0.2,1.9-0.5,3.7-0.7,5.6c-1.2,9.8-2.8,20.1-4.7,30.6l-0.1,0.8l0.1,0.1l-2.3,0.9
		c-2.8,1.2-5.5,2-8.2,2.6c-0.4,0.1-0.8,0.2-1.3,0.3C289.8,236,288.5,236.4,287.4,236.4z M70.5,209.4c-13.4-11.2-20.5-21-23.8-32.8
		l-2.8,0.3c0.6-14.8,4.9-29.9,18.4-38.8l0.7-0.5l0.2-1.2l0-0.3c-0.9-8.1,1.7-16.2,7.3-23.4c12.6-16.2,34-25.3,51.2-31.5
		c17.6-6.3,31.9-9.7,45-10.9l3.5-0.3l-1.9-2.5c4.9-2,11.1-3,18.3-3c3.5,0,7.2,0.2,11.3,0.7c9.6,1.1,18.1,3.6,25.4,7.4l0.6,0.3
		l0.7-0.1c0.8-0.1,1.7-0.2,2.6-0.2c0.6,0,1.1,0,1.7,0.1l-0.9,2.6c1.8,1.2,3.6,2.6,5.2,4c-7.5-1.3-15.7-2.2-25.2-2.7
		c-5-0.3-10-0.4-14.8-0.4c-17.9,0-35,1.8-50.8,5.2c-25.3,5.6-45.2,15.3-59.3,29l-0.7,0.7l0.1,0.5c-0.9,0.6-1.6,1.7-2.1,2.6
		c-0.1,0.2-0.3,0.4-0.4,0.6c-0.3,0.4-0.6,0.9-0.9,1.4l-0.6,1l0,0.4c-9,9.6-9.4,22.8-5.1,34.4l-2.8,0.4c-0.5,10.4,0.9,18,4.3,23.8
		l1.6,2.7c-2.2,7.9-3.5,16.2-4.9,24.2c-0.2,1.4-0.4,2.7-0.7,4.1C70.7,207.9,70.5,209.4,70.5,209.4z M281.3,201.6
		c-1.1-6.9-2.4-13.9-4.1-20.7c-1.3-5.2-2.7-11.2-5.7-16.1c-1.4-2.3-3.2-4.6-6.6-4.6c-1.6,0-3.3,0.5-5.5,1.2
		c-5.2,1.6-10.5,3.2-16,4.9l-0.2-2.9c-8.2-1.3-17.1-1.9-27.4-1.9c-1.8,0-3.6,0-5.3,0.1c-6.6,0.1-14.1,0.3-20.6,3
		c-3.2,1.3-5.1,3.2-5.7,5.6c-0.7,2.6,0.4,5.6,3,8.9l0.1,0.5c-1.5,0.1-3.1,0.1-4.7,0.1c-3.1,0-6.2-0.1-9.3-0.4l-1.2-2.2
		c-1.9-3.4-2.2-8-0.9-12.1c1.8-5.5,6.3-8.8,12.6-9.5l0.2,0l0.2,0c1.8-0.4,3.6-0.9,5.3-1.5l0.3,0.1l0.7-0.1
		c7.8-1.6,16.6-2.4,26.9-2.4c7.1,0,14.1,0.4,20.7,0.7c13.8,0.8,28.5,1.9,42.6,4.9l0.7,0.1l0.6-0.3c0.9-0.5,1.7-0.9,2.5-1.4l0.3-0.1
		l0.3-0.3c1.4-1.1,2.8-2.2,4.2-3.4l2.7-2.3l-0.7-0.2c3-1.9,5.9-5.7,7.5-10l0.2-0.4l0.2,0.2l0.6-3.2c0.2-0.9,0.2-1.7,0.2-2.5l0.1,0
		l0.3,0.4c3.3,4.1,5.6,8.7,7.2,13.4l-2.8,0.4c-0.1,10.7-2.3,21-6.5,30.6c-2.3,5.2-5,10.2-8.2,14.6c-0.3,0.5-0.7,0.9-1,1.4
		c-2.1,3-4.4,6.4-7.4,7.5L281.3,201.6z M148.9,175.9c-7.2-1.1-14.4-2.5-21.6-3.8l-0.1-1.6c-1.1-12.9,1.3-23.9,7.1-32.5
		c9.1-13.4,25.6-21.7,49.2-24.6c5.8-0.7,11.7-1.1,17.7-1.1c12.1,0,24.2,1.4,36.2,4.2c-7.3-0.9-14.4-1.4-21.1-1.4
		c-15.2,0-29.1,2.5-41.2,7.3l-0.3,0l-0.4,0.2c-1.3,0.5-2.6,1.1-4,1.7l-0.6,0.3l-0.2,0.4c-14.6,7-26.3,27.9-20.7,50.8L148.9,175.9z
		 M97.6,166.1l-0.7-2.1c-3.9-12.1-2.6-25.7,3.5-37.1c7-13.2,20.3-22.7,37.4-26.7l0.6-0.1l0.3-0.3l1.6-0.3c2.6-0.5,5.2-1,7.8-1.7
		l0.5-0.1l0.2-0.2c17.6-4.2,35.7-6.4,53.7-6.4c8.7,0,17.4,0.5,25.9,1.5c23.2,2.7,43,8.8,58.8,17.9l1.8-2.2c1.5,1.9,2.9,3.9,4.2,5.8
		l0.1,0.1l0,0l0.1,0.1c2.2,3.5,3.9,7.1,5,10.7c-8.4-10-21.4-14.2-32.9-18l-1.7-0.6c-11.6-3.8-24.8-5.8-41.7-6.3
		c-2.3-0.1-4.7-0.1-7-0.1c-25.5,0-50.8,4.5-75.2,13.4l-0.9,0.3l-0.3,0.7c-0.5,0.2-1,0.4-1.5,0.6c-2,0.7-4.3,1.5-6,3.1l-0.1,0.1
		l-0.1,0c-8.2,3.2-15.3,10.5-19.4,20.1c-4.4,10.3-4.9,21.7-1.3,30.4C108.3,168.3,98.9,166.4,97.6,166.1z M271.5,92.1
		c-0.5-0.2-0.9-0.3-1.3-0.5c-2-0.8-4.1-1.6-6.6-2.5l0.8-1.8c0.7,0.4,1.4,0.9,2.1,1.3c1.8,1.1,3.5,2.3,5.1,3.5
		C271.5,92.1,271.5,92.1,271.5,92.1z"/>
	<g>
		<g>
			<path class="st2" d="M86.8,163.6c-6.5-13.8-7.3-32.6,4.8-43.7c1.4-1.3-0.7-3.4-2.1-2.1c-13.2,12-12.4,32.3-5.3,47.3
				C85,166.9,87.6,165.4,86.8,163.6L86.8,163.6z"/>
		</g>
		<g>
			<path class="st2" d="M82.2,164.1c-10.1-12.5-14.4-32.2-2.3-45c1.3-1.4-0.8-3.5-2.1-2.1c-13.3,14.1-8.9,35.4,2.3,49.2
				C81.3,167.7,83.4,165.6,82.2,164.1L82.2,164.1z"/>
		</g>
		<g>
			<path class="st2" d="M64.1,136.9C61.5,118.2,78,104.5,92.3,96c17.7-10.6,37.9-17.3,58-21.6c8.6-1.8,17.5-3.3,26.3-3.3
				c1.9,0,1.9-3,0-3c-18.8-0.1-38.1,5.2-55.7,11.5c-18.8,6.7-39.6,16-52.2,32.1c-5.9,7.5-8.9,16.4-7.5,26
				C61.5,139.6,64.4,138.7,64.1,136.9L64.1,136.9z"/>
		</g>
		<g>
			<path class="st2" d="M167.9,68.9c8.4-3.5,18.7-3.5,27.7-2.7c13.5,1.1,27.1,5.3,37.3,14.5c1.4,1.3,3.6-0.8,2.1-2.1
				c-10.2-9.2-23.4-13.7-36.9-15.2c-9.9-1.1-21.6-1.3-31,2.6C165.4,66.7,166.1,69.6,167.9,68.9L167.9,68.9z"/>
		</g>
		<g>
			<path class="st2" d="M224.4,74c5.4-1,11.6,1.3,16.6,3c8.4,3,16.5,7.1,24,11.9c15.4,9.8,31.9,24.5,34,43.8c0.2,1.9,3.2,1.9,3,0
				c-2.2-20.1-18.4-35.3-34.5-45.8c-8-5.2-16.7-9.6-25.7-12.8c-5.6-2-12.2-4.2-18.2-3C221.7,71.5,222.5,74.4,224.4,74L224.4,74z"/>
		</g>
		<g>
			<path class="st2" d="M299.5,133.8c7.9,9.7,10.1,21.3,9.8,33.5c-0.3,12.4-1.7,24.8-3.2,37c-3.5,26.7-9.2,53.1-15.9,79.2
				c-0.5,1.9,2.4,2.7,2.9,0.8c7.1-27.6,13.1-55.5,16.5-83.7c2.8-22.7,7.8-49.7-7.9-68.9C300.4,130.2,298.3,132.3,299.5,133.8
				L299.5,133.8z"/>
		</g>
		<g>
			<path class="st2" d="M60.5,283.7c3-9.8,4-20.4,5.5-30.5c2.2-15.1,4.3-30.3,6.8-45.3c2-12,3.7-24.6,8-36c0.8-2,1.8-5.5,4.1-6
				c1.7-0.4,4.7,0.8,6.4,1.1c3.5,0.7,7,1.4,10.5,2.1c17.9,3.6,35.8,7.3,53.8,9.9c14.7,2.1,29.3,3.9,43.9,0.8
				c20.4-4.3,40.5-10.4,60.4-16.5c4.8-1.5,7-2.2,9.8,2.5c2.8,4.7,4.2,10.3,5.5,15.6c8.2,33.8,8.1,69,14.9,103
				c0.4,1.9,3.3,1.1,2.9-0.8c-6.4-32.2-7-65.3-13.7-97.5c-1.2-6-2.6-12-5-17.7c-1.3-3.2-3.2-7.3-6.5-8.9c-1.1-0.6-2.2-0.7-3.5-0.6
				c-4.5,0.4-9.6,2.8-13.9,4.1c-10.9,3.3-21.8,6.4-32.8,9.3c-8.7,2.3-17.5,4.8-26.5,6c-7.4,1-15.1,0.1-22.4-0.6
				c-19.9-2.1-39.5-6.1-59.1-10c-6.8-1.4-13.7-2.9-20.6-4.1c-3.1-0.6-5.7-1.4-8,1.2c-2.4,2.6-3.5,6.6-4.5,9.9
				c-1.8,5.8-3,11.7-4.2,17.6c-3.4,17.3-5.8,34.7-8.3,52.2c-1.8,12.7-2.8,26.2-6.6,38.6C57,284.7,59.9,285.5,60.5,283.7L60.5,283.7z
				"/>
		</g>
		<g>
			<path class="st2" d="M61.9,136c-21.3,13.2-21.7,40.3-19.1,62.5c3.4,28.6,11,56.4,14.7,84.9c0.2,1.9,3.2,1.9,3,0
				c-3.3-25.5-10-50.3-13.5-75.7c-3.2-23.2-6.8-54.5,16.4-69C65.1,137.5,63.6,134.9,61.9,136L61.9,136z"/>
		</g>
		<g>
			<path class="st2" d="M98.4,165.2c-4.4-12.4-3.3-26.2,2.9-37.7c7.7-14.4,21.9-23,37.5-26.5c1.9-0.4,1.1-3.3-0.8-2.9
				c-16.3,3.7-31.2,12.8-39.3,27.9c-6.5,12.2-7.8,26.9-3.2,40C96.1,167.8,99,167,98.4,165.2L98.4,165.2z"/>
		</g>
		<g>
			<path class="st2" d="M112.3,168.3c-7.1-16.4,2.2-41.9,19.6-48.4c1.8-0.7,1-3.6-0.8-2.9c-19.4,7.2-29.3,34.5-21.4,52.8
				C110.5,171.6,113,170.1,112.3,168.3L112.3,168.3z"/>
		</g>
		<g>
			<path class="st2" d="M150.9,175.9c-4.7-17.8,2.1-41.1,19.6-49.3c1.7-0.8,0.2-3.4-1.5-2.6c-18.7,8.8-26,33.6-21,52.7
				C148.5,178.6,151.4,177.8,150.9,175.9L150.9,175.9z"/>
		</g>
		<g>
			<path class="st2" d="M174,177.8c-2.7-3.2-3-8.1-1.9-12.1c1.5-5.7,6-9,11.8-9.5c1.9-0.2,1.9-3.2,0-3c-6.8,0.7-12.3,4.2-14.4,10.9
				c-1.7,5.2-1.1,11.5,2.5,15.8C173.1,181.4,175.2,179.2,174,177.8L174,177.8z"/>
		</g>
		<g>
			<path class="st2" d="M61.1,137.2c1.1,3.3,2.7,6.2,4.9,8.8c1.2,1.5,3.4-0.7,2.1-2.1c-1.9-2.2-3.2-4.7-4.1-7.5
				C63.4,134.6,60.5,135.4,61.1,137.2L61.1,137.2z"/>
		</g>
		<g>
			<path class="st2" d="M43,169c2.3,18.5,13,31,26.8,42.6c1.5,1.2,3.6-0.9,2.1-2.1c-13.1-10.9-23.8-22.8-26-40.4
				C45.8,167.1,42.8,167.1,43,169L43,169z"/>
		</g>
		<g>
			<path class="st2" d="M42.9,193.2c3.1,14.6,13.7,26.3,24.6,35.9c1.4,1.3,3.6-0.8,2.1-2.1c-10.5-9.3-20.8-20.5-23.8-34.6
				C45.4,190.5,42.5,191.3,42.9,193.2L42.9,193.2z"/>
		</g>
		<g>
			<path class="st2" d="M49.7,231.4c3.5,6,8.5,11.1,13.4,15.8c1.4,1.3,3.5-0.8,2.1-2.1c-4.8-4.6-9.6-9.5-13-15.2
				C51.3,228.2,48.8,229.7,49.7,231.4L49.7,231.4z"/>
		</g>
		<g>
			<path class="st2" d="M53.7,250.8c1.4,1.7,3.1,3.2,4.7,4.7c1.3,1.2,2.7,2.6,4.3,3.5c1.7,1,3.2-1.6,1.5-2.6c-1.4-0.8-2.7-2.2-4-3.3
				c-1.5-1.4-3.1-2.8-4.4-4.4C54.6,247.1,52.5,249.3,53.7,250.8L53.7,250.8z"/>
		</g>
		<g>
			<path class="st2" d="M50.5,148.3c-0.1,17.8,2.9,40.3,17.8,52.2c1.5,1.2,3.6-0.9,2.1-2.1c-14.2-11.4-17-33-16.9-50.1
				C53.5,146.4,50.5,146.4,50.5,148.3L50.5,148.3z"/>
		</g>
		<g>
			<path class="st2" d="M61.6,142.5c-2.3,17.1,0.8,34.2,8.8,49.5c0.9,1.7,3.5,0.2,2.6-1.5c-7.8-14.8-10.6-31.4-8.4-48
				C64.8,140.6,61.8,140.6,61.6,142.5L61.6,142.5z"/>
		</g>
		<g>
			<path class="st2" d="M70,145.2c-1.1,10.3-1.7,23.5,4.2,32.6c1,1.6,3.6,0.1,2.6-1.5c-5.6-8.7-4.8-21.3-3.8-31.1
				C73.2,143.2,70.2,143.3,70,145.2L70,145.2z"/>
		</g>
		<g>
			<path class="st2" d="M298,132.7c0.5,4.8-4,13-8.4,15.1c-1.7,0.8-0.2,3.4,1.5,2.6c5.4-2.6,10.5-11.7,9.9-17.7
				C300.8,130.8,297.8,130.7,298,132.7L298,132.7z"/>
		</g>
		<g>
			<path class="st2" d="M303.8,143.8c0.3,10.1-1.3,20.1-4.7,29.6c-1.7,4.7-3.9,9.2-6.4,13.4c-2.5,4.2-6.9,12.8-12.1,13.9
				c-1.9,0.4-1.1,3.3,0.8,2.9c4.7-1,7.7-6.2,10.4-9.9c3.4-4.7,6.2-9.7,8.4-15c4.7-11,6.9-22.9,6.6-34.8
				C306.7,141.9,303.7,141.9,303.8,143.8L303.8,143.8z"/>
		</g>
		<g>
			<path class="st2" d="M309.9,184.1c0.1,0,0.2,0.1,0.3,0.1c-0.4-0.5-0.7-1-1.1-1.4c0.2,2.7-3.1,7.7-4.5,10
				c-1.8,3.2-3.9,6.1-6.3,8.9c-4.5,5.3-9.9,9.7-15.9,13.2c-1.7,1-0.2,3.6,1.5,2.6c7.1-4.2,13.4-9.5,18.4-16c2.3-2.9,4.3-5.9,6-9.2
				c1.3-2.4,4.1-6.7,3.8-9.6c-0.1-0.7-0.4-1.2-1.1-1.4c-0.1,0-0.2-0.1-0.3-0.1C308.9,180.6,308.1,183.5,309.9,184.1L309.9,184.1z"/>
		</g>
		<g>
			<path class="st2" d="M285.9,227.3c4.3-0.8,8.5-2.2,12.3-4.4c2.9-1.7,6.2-3.6,7.1-7c0.5-1.9-2.4-2.7-2.9-0.8
				c-0.9,3.1-5.2,5.1-7.9,6.3c-3,1.5-6.2,2.4-9.5,3C283.2,224.8,284,227.7,285.9,227.3L285.9,227.3z"/>
		</g>
		<g>
			<path class="st2" d="M284.5,237.4c2,1.9,5.8,0.4,8.2-0.1c4-0.9,7.9-2.3,11.6-4c1.7-0.8,0.2-3.4-1.5-2.6c-2.7,1.3-5.5,2.3-8.4,3.1
				c-1,0.3-7,2.1-7.7,1.5C285.3,234,283.1,236.1,284.5,237.4L284.5,237.4z"/>
		</g>
		<g>
			<path class="st2" d="M286.2,255.4c4.8,1,9.5,0.3,13.7-2.1c1.7-0.9,0.2-3.5-1.5-2.6c-3.5,2-7.4,2.6-11.4,1.8
				C285.1,252.1,284.3,255,286.2,255.4L286.2,255.4z"/>
		</g>
		<g>
			<path class="st2" d="M288.1,262.2c3.4-0.1,6.6-0.6,9.8-1.8c1.8-0.6,1-3.5-0.8-2.9c-2.9,1-5.9,1.6-9,1.6
				C286.2,259.2,286.2,262.2,288.1,262.2L288.1,262.2z"/>
		</g>
		<g>
			<path class="st2" d="M265.1,161.8c6.8,0.3,14.2-2,19.9-5.7c1.6-1,0.1-3.6-1.5-2.6c-5.3,3.4-12.1,5.5-18.4,5.3
				C263.2,158.7,263.2,161.7,265.1,161.8L265.1,161.8z"/>
		</g>
		<g>
			<path class="st2" d="M296.6,141.8c-2.4,14.2-9.7,26.9-20.7,36.2c-1.5,1.2,0.7,3.4,2.1,2.1c11.4-9.6,19-22.8,21.5-37.5
				C299.8,140.7,296.9,139.9,296.6,141.8L296.6,141.8z"/>
		</g>
		<g>
			<path class="st2" d="M164.9,177.6c-5.4-11.2,0.7-26.6,11.8-31.2c1.8-0.7,1-3.6-0.8-2.9c-13,5.4-20,22.5-13.6,35.6
				C163.1,180.9,165.7,179.4,164.9,177.6L164.9,177.6z"/>
		</g>
		<g>
			<path class="st2" d="M189.2,154.9c15.9-3.6,32.9-2.9,49.1-2c14.1,0.8,28.4,2,42.2,4.9c1.9,0.4,2.7-2.5,0.8-2.9
				c-14.1-3-28.7-4.2-43-5c-16.5-1-33.7-1.6-49.9,2.1C186.5,152.5,187.3,155.3,189.2,154.9L189.2,154.9z"/>
		</g>
		<g>
			<path class="st2" d="M181.3,142.9c0.8-0.4,1.6-0.7,2.5-1.1c0.7-0.3,0.9-1.4,0.5-2.1c-0.5-0.8-1.3-0.9-2.1-0.5
				c-0.8,0.4-1.6,0.7-2.5,1.1c-0.7,0.3-0.9,1.4-0.5,2.1C179.7,143.1,180.5,143.2,181.3,142.9L181.3,142.9z"/>
		</g>
		<g>
			<path class="st2" d="M189,138.5c0-0.1,0-0.2,0-0.2c0-0.8-0.7-1.5-1.5-1.5c-0.8,0-1.5,0.7-1.5,1.5c0,0.1,0,0.2,0,0.2
				c0,0.8,0.7,1.5,1.5,1.5C188.3,140,189,139.3,189,138.5L189,138.5z"/>
		</g>
		<g>
			<path class="st2" d="M195.4,137.9c21.3-4,42.4-0.3,63.2,4.6c1.9,0.4,2.7-2.4,0.8-2.9c-21.4-5.1-42.9-8.7-64.8-4.6
				C192.7,135.4,193.5,138.3,195.4,137.9L195.4,137.9z"/>
		</g>
		<g>
			<path class="st2" d="M268.1,144.8c7,1.5,14,3.4,20.8,5.6c1.8,0.6,2.6-2.3,0.8-2.9c-6.9-2.2-13.8-4.1-20.8-5.6
				C267.1,141.5,266.3,144.4,268.1,144.8L268.1,144.8z"/>
		</g>
		<g>
			<path class="st2" d="M175.7,124.3c22.4-9,47.8-8.5,71.3-4.3c10.2,1.9,20.3,4.5,30.1,8.1c7,2.6,14.4,5.6,20.2,10.4
				c1.5,1.2,3.6-0.9,2.1-2.1c-5.5-4.6-12.3-7.5-18.9-10.1c-10.5-4.1-21.6-7.1-32.7-9.1c-24-4.4-49.9-4.9-72.9,4.3
				C173.1,122.1,173.9,125,175.7,124.3L175.7,124.3z"/>
		</g>
		<g>
			<path class="st2" d="M139.7,115.6c26.3-9.7,54.2-14.3,82.3-13.4c13.9,0.5,27.9,1.9,41.2,6.2c12.1,4,25.6,8,34,18.2
				c1.2,1.5,3.3-0.6,2.1-2.1c-7.9-9.6-19.8-13.6-31.2-17.6c-13.8-4.8-27.9-6.9-42.4-7.6c-29.5-1.5-59.1,3.2-86.7,13.4
				C137.1,113.3,137.8,116.2,139.7,115.6L139.7,115.6z"/>
		</g>
		<g>
			<path class="st2" d="M148.9,98.3c25.5-6.1,52.1-7.9,78.1-5c23.1,2.5,46.6,8.7,66,21.9c1.6,1.1,3.1-1.5,1.5-2.6
				c-19.4-13.2-42.9-19.4-65.9-22.1c-26.8-3.2-54.2-1.4-80.5,4.9C146.3,95.9,147.1,98.8,148.9,98.3L148.9,98.3z"/>
		</g>
		<g>
			<path class="st2" d="M128.2,171c-1.9-20.8,6.6-38.6,25.4-48.1c18-9.2,39.7-10.4,59.6-8.9c11.2,0.9,22.4,2.8,33.3,6
				c1.9,0.5,2.6-2.3,0.8-2.9c-20.5-6-42.8-8.2-64-5.6c-18.9,2.3-39.4,8.9-50.6,25.4c-6.8,10-8.5,22.2-7.4,34.1
				C125.3,172.9,128.3,172.9,128.2,171L128.2,171z"/>
		</g>
		<g>
			<path class="st2" d="M95.6,116.7c11.4-13.6,29-20.7,45.9-25.1c14.8-3.8,31.1-6.4,46.4-4.3c1.9,0.3,2.7-2.6,0.8-2.9
				c-15.8-2.1-32.6,0.4-48,4.3c-17.3,4.5-35.4,11.9-47.2,25.9C92.2,116,94.3,118.2,95.6,116.7L95.6,116.7z"/>
		</g>
		<g>
			<path class="st2" d="M83.2,113.2c15.9-16.1,37.6-24.8,59.4-29.6c21.3-4.7,43.4-5.9,65.1-4.8c9,0.5,18.1,1.3,27,3
				c1.9,0.4,2.7-2.5,0.8-2.9c-18.3-3.5-37.3-4.1-55.8-3.2c-22.9,1.2-46.1,5-67.1,14.2c-11.7,5.1-22.6,12-31.5,21.1
				C79.7,112.5,81.8,114.6,83.2,113.2L83.2,113.2z"/>
		</g>
		<g>
			<path class="st2" d="M241.3,84.2c6.3,1.3,12.5,3.6,18.6,5.7c3.2,1.1,6.4,2.3,9.5,3.5c1.7,0.7,4.5,1.4,5.8,2.7
				c1.3,1.4,3.5-0.7,2.1-2.1c-3.2-3.3-10.3-4.8-14.5-6.3c-6.8-2.5-13.7-5-20.8-6.5C240.2,81,239.4,83.9,241.3,84.2L241.3,84.2z"/>
		</g>
		<g>
			<path class="st2" d="M188.9,177.7c-3.8-4.7-4.3-9,1.8-11.5c6.1-2.5,13.4-2.7,19.9-2.8c12.4-0.2,25.4,0.3,37.6,2.8
				c1.9,0.4,2.7-2.5,0.8-2.9c-14.6-3-30.6-3.7-45.4-2.6c-5.9,0.5-13.9,1-18.4,5.3c-4.4,4.2-1.6,9.7,1.7,13.7
				C188,181.3,190.1,179.2,188.9,177.7L188.9,177.7z"/>
		</g>
	</g>
</g>
</svg>
