<?xml version="1.0" encoding="utf-8"?>
<!-- Generator: Adobe Illustrator 19.2.0, SVG Export Plug-In . SVG Version: 6.00 Build 0)  -->
<svg version="1.1" id="Layer_1" xmlns="http://www.w3.org/2000/svg" xmlns:xlink="http://www.w3.org/1999/xlink" x="0px" y="0px"
	 viewBox="0 0 440 470" style="enable-background:new 0 0 440 470;" xml:space="preserve">
<style type="text/css">
	.st0{fill:#EADACA;}
	.st1{fill:#BC5B34;}
	.st2{fill:#BCA691;}
	.st3{fill:#A58A79;}
	.st4{fill:#896E5B;}
</style>
<g>
	<path class="st0" d="M290.1,329c-6.8,0-13.8-1.1-20.7-2.1l-0.3-0.1c-23.8-3.4-48.9-8.9-79-17c-30.3-8.2-57.3-17.1-82.6-27.2
		c-20.3-8-41.5-17-59.2-30c-16-11.7-23.6-30-29.5-46.3c-4.9-13.4-8.1-25.6-9.9-37.2c-1.4-9.1-2.6-19.6,0.5-28.2
		c0.2-0.6,0.4-1,0.6-1.4l0.2,0.9l0.5,1.6h2.1l0.6-0.7l-2.4-3.2c0.4-0.4,0.9-0.7,1.6-0.9c3-0.9,6.1-1.6,9.2-2.2
		c1-0.2,2.1-0.4,3.1-0.6c5.9-1.2,11.9-2.5,17.8-3.6c5.9-1.2,12.1-2.4,18.1-3.7l1.3-0.3l0.3-1.3c3-13.5,10.7-23.2,21.8-27.3l2.8-1
		L84.9,95c-7.3-7.8-9.7-14.7-7.1-21l0.4-0.6v-0.8c-0.2-10,6.7-19,10.9-23.5c9.7-10.5,22.7-17,33-21.5c0.1,0,0.1,0,0.2,0l0,0
		c0,0,0,0,0,0.1c-2.1,9.5-1,19.8,0.3,30.4c1.5,11.6,3.9,25,10.9,35.5l0.4,1.2l1.2,0.2c15.4,1.7,31.1,2.6,46.7,2.6
		c5.3,0,10.7-0.1,16-0.3h1.1c29.8-1.1,63.6-2.4,87.2-23c11.1-9.7,19.5-22,25.5-31.7c1.7-2.8,3.6-5.8,5.7-9.5c0.3-0.6,0.7-1.2,1-1.9
		c0.7-1.3,1.5-3,2.3-3.6s3.7-1.3,5.3-1.3h0.2c4.5,0.2,9,8.7,11.2,12.7l0.6,1.1c5.7,10.4,9.3,21.5,10.9,33l0.2,1.3l1.2,0.4
		c6.8,2.1,13.2,7.4,19.6,16.3c4.2,5.8,7.7,12.2,10.1,18.4l0.3,0.7l0.6,0.4c3.9,5.6,8.9,10.7,16.1,16.5c9.3,7.5,18.9,15.2,21.3,28.3
		c1.5,8,0.7,17.2-2.3,28c-6.9,24.6-21.4,47-34.6,65.8c-13.6,19.3-28.2,37.1-43.4,53c-7.7,8.1-16.1,16.5-26.2,22
		C305.4,327.3,298.6,329,290.1,329L290.1,329z"/>
	<path class="st1" d="M12.1,139.5L12.1,139.5L12.1,139.5z"/>
	<g>
		<g>
			<path class="st2" d="M140.1,250.6c5,1.7,10.1,2.9,15.1,4c14.9,3.2,30.1,4.7,45.2,5.6c34.2,1.9,68.9,0.4,102.6-5.5
				c13.5-2.3,27.1-5.4,39.8-10.4c-5.6,9.6-13.8,17.3-23.9,22.1c-12.6,5.9-27.7,7.9-41.4,10c-27.5,4.2-56,4.8-83.2-1.3
				C174.6,270.6,156.4,262.3,140.1,250.6z"/>
			<path class="st2" d="M153.6,262.2c0,0-101.2-38.6-90.2,0c0.7,2.6-22.6-12.5-30.5-25.6C16.9,209.9,9,169.2,9,169.2
				s-1.3-19.5-1.2-20.8c0.2-1.3,3.2-10.6,3.2-10.6l10.6-4.1l30.9-6.3l9.9-1.8l7.4-19.5l10.5-6.1l6.7-2.7c0,0-8.7-7.2-8.7-9.2
				c0-2.1-1.2-12-1.2-12l11.3,12l15.6,2.4c0,0,28.5,4.7,36.2,7c47.6,13.8,36.9,80.3,62.3,92.1c13,6.1,21.8-4.2,21.8-4.2l15.1-7.7
				l19.3-12.6l25.1-19.3L313,122l30-21l9.3-4.1c0,0-39.9,58.8-26.5,80.8c6.5,10.7,28.2-3.3,28.2-3.3L338,185l-19.6,16l-14.2,10.6
				l-21,3.5h-49.3l-25-4l-12.3-6.7c0,0-8.7-9.4-12.7-10.7c-25.3-8.3-48.1,46.6-31.7,55c16.5,8.4,3.7,4,3.7,4l-17.3-4L153.6,262.2z"
				/>
			<path class="st2" d="M364.7,160.4c-4,7.6,1.2,1.7,26.9-14.9c20.5-13.2,16.3,54.6,13.2,65.5c-3.1,11,7.2-16.2,7.2-16.2l5.3-17.3
				L419,160l-3.3-13l-9.6-12.6l-14.2-11.8l-11-12.2l-11-19.4l-6.8-8l-14.2-9.9c0,0,11.9,11.4,2.7,23.1c-3.3,4.3,11.8-0.7,11.8-0.7
				S385.1,121.8,364.7,160.4z"/>
			<path class="st2" d="M348.8,75c0,0-25.3,26.8-36.8,33.8s-21.2,7.3-22.5,3.3s55.2-53.5,53.8-60.6s3.9,9.2,3.9,9.2L348.8,75z"/>
		</g>
		<g>
			<path class="st2" d="M201.5,189.7c-1.2,0-2.5-0.1-3.7-0.2c-10.9-1-19.1-8-27-14.9c-0.8-0.7-1.5-1.3-2.3-2
				c-7.1-6-13.9-12.4-20.2-19.1c-2.9-3.1-5.7-6.4-8.5-9.5c-2.6-3-5.3-6.1-8-9.1l-2.7-2.8l3.7,1.2c9.3,3,17.8,7.8,26.1,12.5
				c5.2,2.9,10.6,6,16,8.5c10,4.6,20.5,6.9,31.3,6.9c5.8,0,11.8-0.7,17.8-2c22.3-5,41.6-17.3,60.3-29.2
				c12.1-7.7,24.5-15.6,37.7-21.6c2.2-1,4.5-1.9,7.4-2.9l0.9,1.8c-6.4,4.4-12.6,9.5-18.5,14.3c-1.6,1.3-3.1,2.5-4.6,3.8
				c-4.2,3.4-8.3,6.8-12.5,10.2c-13.9,11.4-28.3,23.1-43.4,33.4C235.7,179.4,219,189.7,201.5,189.7z"/>
			<path class="st2" d="M223.7,258.1c-22.7,0-42.9-1.7-61.7-5.1c-12.2-2.2-25-4.9-34.9-11.9c-0.2-0.1-0.3,0-0.5,0h-0.4l-0.3-0.4
				c-1-0.9-2.1-1.9-3.1-2.9c-19-17.9-36.2-40.4-49.9-65c-9.7-17.3-13-32.2-10.2-45.4c0.7-3.1,1.6-6.2,2.9-9l1.9,0.4
				c0.5,14.6,8.2,28.5,14.8,38.9c8.7,13.5,19.4,26.2,31.9,37.6c23.8,21.7,53,38.6,86.9,50.2c12.9,4.4,26.4,8,40.1,10.5l-0.1,2
				C235.2,258,229.3,258.1,223.7,258.1z"/>
			<polygon class="st2" points="11.4,140.5 10.9,139.2 11.5,138.7 12.7,140.3 12.5,140.5 12.1,140.5 			"/>
			<path class="st2" d="M140.1,277.2c-27.1-9.1-52.9-24.9-74.4-45.8c-22.7-22-41.1-50.3-56.1-86.6l-0.1-0.3l0.2-0.8
				c0.3-1.6,0.8-3.6,1.8-4.8l0.1-0.1l0.1-0.1c0.1-0.1,0.3-0.2,0.5-0.3c0.5-0.3,1.2-0.4,1.7-0.5c0.2,0,0.4-0.1,0.6-0.1
				c7.7-1.9,15.9-3.5,23.7-5l4.8-0.9v1.2c2,36.4,20.1,73.1,49.1,103.5c13.8,14.5,29.8,27.2,48.9,38.9L140.1,277.2z"/>
		</g>
	</g>
	<g>
		<path class="st3" d="M237.5,280.7c-15.2,0-29.8-1.5-43.2-4.6c-19.7-4.5-38.1-12.8-54.7-24.6l0.9-1.8c5.3,1.8,10.8,3.1,15,4
			c13,2.8,27.3,4.6,45.1,5.6c9.1,0.5,18.3,0.8,27.3,0.8c11.2,0,22.4-0.4,33.3-1.2h0.1h0.1c1.4,0.2,2.9,0.3,4.3,0.5h0.1
			c0.3,0,0.5-0.1,0.6-0.4l0.2-0.6l0.6-0.1c12.2-1,24.3-2.6,35.8-4.6c16.5-2.8,28.7-6,39.6-10.3l2.7-1.1l-1.4,2.5
			c-5.8,10-14.2,17.8-24.3,22.5c-12,5.6-26.4,7.8-39.2,9.7l-2.5,0.4C263.9,279.6,250.3,280.7,237.5,280.7z"/>
		<path class="st3" d="M85.8,56.4c8.2-11.9,21-19.5,33.9-25.5c-1.3,9.2-0.2,19.1,1,28.2c1.5,11.2,3.8,23.3,9.6,33.2
			c-10-1.2-20-2.8-29.8-4.8c-7.8-1.5-18-2.2-19.9-11.6C79.2,69.2,81.9,62,85.8,56.4z"/>
		<path class="st3" d="M133.9,137.3c0,0,39.7,36.7,57.7,37.3c49.4,1.7,93.4-47.3,125.7-58.3c5.5-1.9-17.1,15.9-17.1,15.9l-57.9,43.5
			c0,0-32.6,15.5-33.7,14.9c-1.1-0.5-25.7-2.4-26-2.5c-0.3-0.2-17.8-15.7-17.8-15.7l-16.6-18.8L133.9,137.3z"/>
		<path class="st3" d="M112.5,118.2c-17.3,6.1-22.3,48.9-13.9,59.4S76.7,148,76.7,148s-13.4,2.8-9.6,15.2
			c3.7,12.5-15.6,7.6-15.6,7.6s-13.7-14.4-22.1-4.1c-6.2,7.6-1,18.6-1,18.6s-13.4,5.4-12.2,13.6S9.5,179,9.5,179l-1.7-20l0.5-13.7
			l5.7-7.5l36.5-10.5l10.3-1.5l5.5-11.4l6.7-9l12.8-7.8l-4.3-6.9l-3-8.6l18.4,7.5C96.7,89.8,92.3,104.3,112.5,118.2z"/>
	</g>
	<g>
		<g>
			<path class="st4" d="M75.9,73.3c-3.6,8.8,1.7,16.9,7.6,23.2c9.6,10.2,21.5,18.2,32.1,27.4c13.3,11.5,23.8,25.4,36.2,37.7
				c6.8,6.7,13.9,13,21.4,18.9c4.4,3.5,8.7,7.2,13.8,9.4c16.9,7.4,36.2-0.9,51.1-9.3c20.9-11.7,39.5-27.4,58.1-42.5
				c10.2-8.4,20.4-16.8,31.1-24.6c7.9-5.7,16.2-11.6,25.5-14.8c2.4-0.8,1.4-4.7-1.1-3.9c-16.9,5.7-31.5,18.6-45.1,29.6
				c-18.4,14.8-36.3,30.3-55.8,43.5c-15,10.1-33.9,22.2-52.9,20.5c-11.6-1-20.3-9.4-28.8-16.6c-7-6-13.7-12.3-20.1-19
				c-5.8-6.1-11-12.8-16.8-19c-11.3-11.9-24.5-21.4-36.9-32c-7.6-6.4-20.1-16.3-15.5-27.6C80.7,72,76.9,70.9,75.9,73.3L75.9,73.3z"
				/>
		</g>
		<g>
			<path class="st4" d="M365.7,162.6c5.4-8.2,10.6-16.6,15.5-25.1c3.8-6.6,5.1-11.6,3.4-19.3c-2.2-10.1-7.1-20-13.2-28.3
				c-5.5-7.5-12.6-15.1-21.9-17.4c0.5,0.6,1,1.3,1.5,1.9c-1.4-12.4-5.3-24.4-11.3-35.3c-2.4-4.4-7.4-14.6-13.5-14.9
				c-1.7-0.1-5.4,0.7-6.8,1.7c-1.8,1.3-2.8,4.3-3.9,6.2c-1.9,3.2-3.8,6.4-5.7,9.5c-7.1,11.3-15,22.4-25.1,31.2
				c-23.3,20.4-57.6,21.4-87.1,22.5c-32.5,1.2-65.2-1.3-97.2-7.6c-7.8-1.5-18-2.2-19.9-11.6c-1.4-6.8,1.4-14.1,5.2-19.6
				c9-13,23.4-20.9,37.5-27.1c-1-0.8-2-1.5-2.9-2.3c-2.2,10.3-1,21.8,0.4,32.1c1.6,12.1,4.1,25.1,10.9,35.4c1.4,2.1,4.9,0.1,3.5-2
				c-6.6-10.1-9.1-22.9-10.6-34.7c-1.2-9.5-2.4-20.2-0.3-29.7c0.4-1.8-1.3-3-2.9-2.3c-12.3,5.4-24.5,12-33.7,22
				c-7.2,7.7-13.2,18.3-10.9,29.2C79.6,90.5,96.1,91,107,92.9c15.7,2.8,31.5,4.7,47.4,5.7c31.7,2,65.4,1.7,96.5-5.1
				c13.4-3,25.6-8.5,36.1-17.5c10-8.6,18-19.4,25-30.5c2-3.1,3.9-6.3,5.8-9.5c1.1-1.8,2-3.7,3.2-5.4c0.9-1.4-0.1-0.7,1.4-1.5
				c4-2,5.7,0.1,8.3,3.3c9.2,11.6,14.7,27.3,16.3,41.9c0.1,0.9,0.6,1.7,1.5,1.9c9.3,2.3,16.2,10.5,21.3,18.1
				c5.1,7.7,9.5,16.6,11.2,25.8c1.4,7.5-1.1,11.7-4.8,18c-4.5,7.5-9.1,15-13.9,22.3C360.8,162.7,364.3,164.7,365.7,162.6
				L365.7,162.6z"/>
		</g>
		<g>
			<path class="st4" d="M379,111.3c7.7,10.9,18.7,17.3,27.9,26.7c8.3,8.4,10.9,19.5,9.8,31c-2.2,22.7-14.6,44.3-26.6,63.2
				c-12.8,20.2-27.5,39.3-43.4,57.2c-5.4,6.1-10.9,12.1-16.8,17.8c-5.3,5.1-10.8,10-17.1,13.7c-8.6,5.1-17.4,6.6-27.3,5.8
				c-24.8-2-49.5-7.5-73.5-13.4c-26.8-6.5-53.3-14.3-79.3-23.5c-22.9-8-45.7-16.9-66.9-28.7c-7.6-4.2-15.2-8.8-21.8-14.6
				c-6.2-5.4-10.4-12.3-14.1-19.6C19.3,206,11,181.4,9.8,157.9c-0.2-4.5-0.2-9.1,0.8-13.5c0.4-1.6,0.8-4,1.9-5.2
				c-0.3,0.4-0.4,0.3,0.3-0.1c0.6-0.3,1.4-0.4,2-0.5c10.3-2.6,20.9-4.4,31.3-6.5c5.3-1.1,10.7-2.1,16-3.3c2.5-0.5,1.5-4.4-1.1-3.9
				c-12.1,2.5-24.3,4.9-36.4,7.4c-4.1,0.9-8.4,1.6-12.5,2.8c-2.7,0.8-3.5,2.3-4.5,5c-3.4,9.1-2.1,19.8-0.6,29.2
				c2,12.8,5.6,25.4,10,37.6c6.6,18,14.4,35.6,30.2,47.2c17.9,13.2,39.1,22.1,59.6,30.2c27,10.7,54.8,19.6,82.8,27.2
				c26.1,7.1,52.5,13.2,79.2,17.1c15,2.2,30,4.4,43.9-3.1c10.2-5.5,18.7-13.9,26.7-22.2c15.9-16.6,30.4-34.5,43.6-53.2
				c14.3-20.3,28.1-42.4,34.9-66.4c2.6-9.3,4.1-19.3,2.3-28.9c-2.5-13.5-11.9-21.3-22-29.5c-5.9-4.7-11.3-9.8-15.7-16
				C381,107.2,377.5,109.2,379,111.3L379,111.3z"/>
		</g>
		<g>
			<path class="st4" d="M86.6,95.4C61.9,102,55,131.2,61.2,153.1c4.2,14.6,12.6,27.6,21.1,40c8.2,12.1,17,23.8,26.8,34.7
				c19.6,21.7,43.5,38.9,71.6,47.7c28.4,8.9,58.9,9.7,88.3,6.1c16.4-2,34.2-4.3,49.5-10.6c13.5-5.6,24.4-16.3,30.5-29.6
				c0.9-1.9-0.9-3.6-2.7-2.7c-26.9,12.1-58.4,15.3-87.6,17.2c-32,2.1-64.9,1.9-96.5-3.9c-11.7-2.2-24.6-4.9-34.5-11.9
				c-2.1-1.5-4.1,2-2,3.5c8.6,6.1,19.5,8.9,29.6,11.1c14.9,3.2,30.1,4.7,45.2,5.6c34.2,1.9,68.9,0.4,102.6-5.5
				c15.4-2.7,30.9-6.2,45.2-12.6c-0.9-0.9-1.8-1.8-2.7-2.7c-5.4,11.8-14.6,21.5-26.5,27c-12.6,5.9-27.7,7.9-41.4,10
				c-27.5,4.2-56,4.8-83.2-1.3c-27-6.1-50.9-19.2-71-38.2c-19.5-18.5-36.6-41.2-49.7-64.7c-7.5-13.4-13.4-29.1-10.1-44.7
				c2.7-12.8,10.9-24.8,24-28.3C90.1,98.6,89.1,94.7,86.6,95.4L86.6,95.4z"/>
		</g>
		<g>
			<path class="st4" d="M352.9,172.5c-6.1,2.7-11.6,7.1-16.8,11.2c-6.6,5.2-13,10.6-19.5,15.9c-3.8,3.1-8.4,8.1-13.1,9.8
				c-2.4,0.8-5.4,0.8-7.8,1c-12.8,1.3-25.6,2-38.5,2.2c-14.4,0.2-29.2,0.2-43.3-2.8c-6.8-1.4-11.7-3.6-16.6-8.4
				c-10.9-10.6-21.8-21.2-32.4-32.1c-1.8-1.9-4.6,1-2.8,2.8c9.9,10.2,20.1,20.2,30.3,30.1c4.7,4.6,8.4,7.9,14.7,9.9
				c13.5,4.3,28.5,4.4,42.5,4.5c14.3,0,28.6-0.7,42.8-1.9c3.7-0.3,7.5-0.5,11.1-1.3c3.3-0.7,6-3.1,8.7-5.1
				c7.4-5.7,14.4-11.8,21.7-17.7c6.6-5.3,13.4-11.3,21.2-14.7C357.3,175,355.2,171.5,352.9,172.5L352.9,172.5z"/>
		</g>
		<g>
			<path class="st4" d="M151.7,124.1c9.1,2.4,16.5,8.5,20.6,16.9c0.8,1.7,3.4,0.2,2.6-1.5c-4.5-9.1-12.6-15.7-22.4-18.3
				C150.6,120.7,149.8,123.6,151.7,124.1L151.7,124.1z"/>
		</g>
		<g>
			<path class="st4" d="M152.7,112.2c7.3,0.8,14.2,8.6,18.4,14.2c1.1,1.5,3.7,0,2.6-1.5c-4.9-6.5-12.4-14.8-21-15.7
				C150.8,109,150.8,112,152.7,112.2L152.7,112.2z"/>
		</g>
		<g>
			<path class="st4" d="M314.9,94.2c5.2-5.3,9.9-11,14.1-17.1c1.1-1.6-1.5-3.1-2.6-1.5c-4,5.9-8.6,11.4-13.6,16.5
				C311.4,93.4,313.5,95.5,314.9,94.2L314.9,94.2z"/>
		</g>
		<g>
			<path class="st4" d="M319.1,96c7.9-6.7,14.2-14.7,18.9-23.9c0.9-1.7-1.7-3.2-2.6-1.5c-4.6,9-10.8,16.8-18.5,23.3
				C315.5,95.2,317.6,97.3,319.1,96L319.1,96z"/>
		</g>
		<g>
			<path class="st4" d="M384.1,146c3.9-3.3,7.2-7.2,9.9-11.6c1-1.6-1.6-3.2-2.6-1.5c-2.6,4.2-5.8,7.8-9.5,11
				C380.5,145.2,382.7,147.3,384.1,146L384.1,146z"/>
		</g>
		<g>
			<path class="st4" d="M389.8,148.1c2.8-3.1,5.2-6.4,7.2-10c1-1.7-1.6-3.2-2.6-1.5c-1.9,3.4-4.2,6.5-6.8,9.4
				C386.4,147.4,388.5,149.5,389.8,148.1L389.8,148.1z"/>
		</g>
		<g>
			<path class="st4" d="M79.9,60.4c4.8,12,12.3,22.3,22.3,30.5c1.5,1.2,3.6-0.9,2.1-2.1C94.7,81,87.4,71.1,82.8,59.6
				C82,57.9,79.1,58.6,79.9,60.4L79.9,60.4z"/>
		</g>
		<g>
			<path class="st4" d="M86.6,53.5c7.3,15.9,18.4,29.4,32.5,39.7c1.6,1.1,3.1-1.5,1.5-2.6c-13.7-10-24.4-23.2-31.5-38.6
				C88.4,50.2,85.8,51.8,86.6,53.5L86.6,53.5z"/>
		</g>
		<g>
			<path class="st4" d="M94,45.2c7.2,17.2,18.5,32,33.3,43.4c1.5,1.2,3-1.4,1.5-2.6c-14.1-10.9-25.1-25.2-31.9-41.6
				C96.2,42.7,93.3,43.4,94,45.2L94,45.2z"/>
		</g>
		<g>
			<path class="st4" d="M99.6,41.6c5.2,12,10.9,24.1,22.1,31.6c1.6,1.1,3.1-1.5,1.5-2.6c-10.7-7.2-16-19.1-21-30.5
				C101.4,38.4,98.8,39.9,99.6,41.6L99.6,41.6z"/>
		</g>
		<g>
			<path class="st4" d="M106.8,36.4c3.5,7.5,8,14.3,13.4,20.5c1.3,1.5,3.4-0.7,2.1-2.1c-5.2-6-9.5-12.6-12.9-19.9
				C108.6,33.1,106,34.7,106.8,36.4L106.8,36.4z"/>
		</g>
		<g>
			<path class="st4" d="M112.8,33.8c2.1,3.4,4.3,6.8,6.7,10c1.1,1.5,3.8,0,2.6-1.5c-2.4-3.2-4.6-6.5-6.7-10
				C114.4,30.6,111.8,32.1,112.8,33.8L112.8,33.8z"/>
		</g>
		<g>
			<path class="st4" d="M78.4,71.1C82.6,78.8,88.6,85.2,96,90c1.6,1,3.1-1.5,1.5-2.6C90.5,83,84.9,76.9,81,69.6
				C80,67.9,77.4,69.4,78.4,71.1L78.4,71.1z"/>
		</g>
		<g>
			<path class="st4" d="M73.2,106.8c3,9.2,7.6,17.5,13.8,24.9c1.2,1.5,3.4-0.6,2.1-2.1c-5.9-7-10.2-14.9-13.1-23.6
				C75.5,104.1,72.6,104.9,73.2,106.8L73.2,106.8z"/>
		</g>
		<g>
			<path class="st4" d="M80.5,106.9c2.7,6,6,11.6,9.9,16.9c1.1,1.5,3.8,0,2.6-1.5c-3.9-5.3-7.3-10.9-9.9-16.9
				C82.3,103.6,79.7,105.1,80.5,106.9L80.5,106.9z"/>
		</g>
		<g>
			<path class="st4" d="M149.1,252c1.1,3.5,2.1,7,3.2,10.5c0.6,1.8,3.5,1.1,2.9-0.8c-1.1-3.5-2.1-7-3.2-10.5
				C151.5,249.4,148.6,250.2,149.1,252L149.1,252z"/>
		</g>
		<g>
			<path class="st4" d="M159.4,255c0.3,4.3,1.3,8.3,3.1,12.2c0.8,1.8,3.4,0.2,2.6-1.5c-1.6-3.4-2.5-7-2.7-10.7
				C162.3,253.1,159.3,253.1,159.4,255L159.4,255z"/>
		</g>
		<g>
			<path class="st4" d="M167.3,257.4c0.8,4.7,2.1,9.3,3.9,13.7c0.7,1.8,3.6,1,2.9-0.8c-1.8-4.4-3.1-9-3.9-13.7
				C169.9,254.7,167,255.5,167.3,257.4L167.3,257.4z"/>
		</g>
		<g>
			<path class="st4" d="M176.4,257.7c0.9,6,2.6,11.8,5,17.4c0.8,1.8,3.3,0.2,2.6-1.5c-2.3-5.3-3.8-10.9-4.7-16.7
				C179,255,176.1,255.8,176.4,257.7L176.4,257.7z"/>
		</g>
		<g>
			<path class="st4" d="M185.2,258.4c1.2,5.9,2.9,11.7,5,17.4c0.7,1.8,3.6,1,2.9-0.8c-2.1-5.7-3.8-11.5-5-17.4
				C187.7,255.7,184.8,256.5,185.2,258.4L185.2,258.4z"/>
		</g>
		<g>
			<path class="st4" d="M196.9,260.4c1.1,5.6,3,10.9,5.5,16c0.9,1.7,3.4,0.2,2.6-1.5c-2.4-4.9-4.1-10-5.2-15.3
				C199.4,257.7,196.5,258.5,196.9,260.4L196.9,260.4z"/>
		</g>
		<g>
			<path class="st4" d="M208.7,259.4c1,7,2.5,13.9,4.3,20.7c0.5,1.9,3.4,1.1,2.9-0.8c-1.9-6.8-3.3-13.7-4.3-20.7
				C211.4,256.7,208.5,257.5,208.7,259.4L208.7,259.4z"/>
		</g>
		<g>
			<path class="st4" d="M219.2,260c1.1,7.5,3.3,14.6,6.5,21.4c0.8,1.8,3.4,0.2,2.6-1.5c-3.1-6.6-5.1-13.5-6.2-20.7
				C221.8,257.3,218.9,258.1,219.2,260L219.2,260z"/>
		</g>
		<g>
			<path class="st4" d="M230.1,260c1.5,7.1,3.5,14,6.1,20.7c0.7,1.8,3.6,1,2.9-0.8c-2.6-6.8-4.6-13.7-6.1-20.7
				C232.6,257.3,229.7,258.1,230.1,260L230.1,260z"/>
		</g>
		<g>
			<path class="st4" d="M242.8,259.7c0.4,4.3,1.2,8.4,2.3,12.6c0.9,3.1,1.4,7.9,3.5,10.4c0.7,0.8,1.9,0.4,2.4-0.3
				c0-0.1,0.1-0.1,0.1-0.2c0.5-0.7,0.1-1.6-0.5-2.1c-0.1,0-0.1-0.1-0.2-0.1c-1.6-1.1-3.1,1.5-1.5,2.6c0.1,0,0.1,0.1,0.2,0.1
				c-0.2-0.7-0.4-1.4-0.5-2.1c0,0.1-0.1,0.1-0.1,0.2c0.8-0.1,1.6-0.2,2.4-0.3c-1.6-1.9-2.3-7.4-2.9-9.8c-1-3.6-1.7-7.3-2-11
				C245.6,257.8,242.6,257.7,242.8,259.7L242.8,259.7z"/>
		</g>
		<g>
			<path class="st4" d="M252.6,259.3c0.8,7.5,2.8,14.6,6,21.4c0.8,1.8,3.4,0.2,2.6-1.5c-2.9-6.3-4.8-13-5.5-19.9
				C255.3,257.4,252.3,257.4,252.6,259.3L252.6,259.3z"/>
		</g>
		<g>
			<path class="st4" d="M264.7,259.4c1,6.6,3,12.8,6,18.7c0.9,1.7,3.5,0.2,2.6-1.5c-2.9-5.7-4.8-11.7-5.7-18
				C267.4,256.7,264.5,257.5,264.7,259.4L264.7,259.4z"/>
		</g>
		<g>
			<path class="st4" d="M277.1,259.4c1.2,6.2,2.6,12.3,4.3,18.4c0.5,1.9,3.4,1.1,2.9-0.8c-1.7-6.1-3.1-12.2-4.3-18.4
				C279.6,256.7,276.7,257.5,277.1,259.4L277.1,259.4z"/>
		</g>
		<g>
			<path class="st4" d="M287.7,258.7c1.2,3.7,2.5,7.4,3.7,11c0.8,2.4,1.4,5.1,3.5,6.7c1.5,1.2,3.6-0.9,2.1-2.1
				c-2.1-1.7-2.7-5.4-3.6-7.9c-1-2.9-1.9-5.7-2.9-8.6C290,256.1,287.1,256.9,287.7,258.7L287.7,258.7z"/>
		</g>
		<g>
			<path class="st4" d="M298,255c0.7,6.1,2.4,11.9,5.3,17.4c0.9,1.7,3.5,0.2,2.6-1.5c-2.6-5-4.2-10.3-4.9-15.8
				C300.8,253.1,297.8,253.1,298,255L298,255z"/>
		</g>
		<g>
			<path class="st4" d="M307.3,254.4c1.1,5.6,2.6,11,4.6,16.4c0.7,1.8,3.6,1,2.9-0.8c-1.9-5.3-3.5-10.8-4.6-16.4
				C309.8,251.7,306.9,252.5,307.3,254.4L307.3,254.4z"/>
		</g>
		<g>
			<path class="st4" d="M315.9,251.4c1.6,5,3.3,9.9,5.2,14.7c0.7,1.8,3.6,1,2.9-0.8c-1.9-4.9-3.6-9.8-5.2-14.7
				C318.3,248.8,315.4,249.6,315.9,251.4L315.9,251.4z"/>
		</g>
		<g>
			<path class="st4" d="M325.3,249.7c1,4.6,2.5,9.1,4.4,13.4c0.8,1.8,3.4,0.2,2.6-1.5c-1.8-4.1-3.2-8.3-4.1-12.7
				C327.8,247,324.9,247.8,325.3,249.7L325.3,249.7z"/>
		</g>
		<g>
			<path class="st4" d="M332.7,246.7c0.7,3,1.4,6,2.2,9c0.4,1.9,3.3,1.1,2.9-0.8c-0.7-3-1.4-6-2.2-9
				C335.1,244,332.2,244.8,332.7,246.7L332.7,246.7z"/>
		</g>
		<g>
			<path class="st4" d="M41.5,133c3,39.6,22.5,75.7,49.7,104.1c29.7,31,68,51.9,107.5,67.8c12,4.8,24.1,9.2,36.3,13.3
				c12.1,4.1,24.4,8.9,37.1,10.5c2.5,0.3,2.5-3.7,0-4c-11.5-1.5-22.7-5.9-33.6-9.5c-10-3.3-20-6.8-29.8-10.6
				c-20.3-7.7-40.2-16.6-59-27.4c-34.7-20-65.5-47.2-85.2-82.4c-10.6-19-17.4-40-19.1-61.8C45.3,130.5,41.3,130.5,41.5,133L41.5,133
				z"/>
		</g>
		<g>
			<path class="st4" d="M6.3,144.6c10.4,25.4,23.4,49.8,40.8,71.1c17.7,21.6,39.8,39.8,64.6,52.7c13.9,7.3,28.7,12.8,44,16.3
				c2.5,0.6,3.6-3.3,1.1-3.9c-34.2-7.9-65.3-25.9-90.4-50.2c-25.2-24.4-43-54.9-56.2-87.2C9.2,141.2,5.3,142.2,6.3,144.6L6.3,144.6z
				"/>
		</g>
		<g>
			<path class="st4" d="M349.3,243.6c30.3-28.2,52.4-64.4,63.8-104.1c0.7-2.5-3.2-3.5-3.9-1.1c-11.2,39.2-32.9,74.7-62.8,102.4
				C344.6,242.5,347.4,245.4,349.3,243.6L349.3,243.6z"/>
		</g>
		<g>
			<path class="st4" d="M67.2,109.2c-3.3,17.7,5,34.3,14.3,48.8c8.9,14,19.9,26.6,32.1,37.8c25.1,22.8,55.3,39.4,87.3,50.4
				c20.9,7.2,42.6,11.8,64.7,14.1c2.6,0.3,2.5-3.7,0-4c-66-6.9-134.3-36.6-174.4-91.3c-11.2-15.3-23.8-34.9-20.1-54.8
				C71.5,107.8,67.6,106.7,67.2,109.2L67.2,109.2z"/>
		</g>
		<g>
			<path class="st4" d="M126.6,132.7c17.6,3.9,31.8,15.1,47.9,22.5c15.9,7.3,32.7,8.8,49.8,5c36.9-8.3,64.5-35.7,98.2-50.9
				c8.9-4,18.3-6.1,27.3-9.6c6.9-2.6,13.2-6.5,16.2-13.4c1-2.3-2.4-4.4-3.5-2c-3.2,7.2-10.1,10.4-17.1,12.7
				c-7.3,2.4-14.7,4.4-21.8,7.4c-16.3,6.9-31,16.8-45.8,26.3c-30.1,19.1-65.9,37.4-101.3,21.1c-16.4-7.6-30.9-19-48.8-22.9
				C125.2,128.3,124.1,132.2,126.6,132.7L126.6,132.7z"/>
		</g>
	</g>
</g>
</svg>
