<?xml version="1.0" standalone="no"?>
<!DOCTYPE svg PUBLIC "-//W3C//DTD SVG 20010904//EN"
 "http://www.w3.org/TR/2001/REC-SVG-20010904/DTD/svg10.dtd">
<svg version="1.0" xmlns="http://www.w3.org/2000/svg"
 width="16.000000pt" height="16.000000pt" viewBox="0 0 16.000000 16.000000"
 preserveAspectRatio="xMidYMid meet">
<metadata>
Created by potrace 1.11, written by Peter Selinger 2001-2013
</metadata>
<g transform="translate(0.000000,16.000000) scale(0.003125,-0.003125)"
fill="#000000" stroke="none">
<path d="M714 5105 c-278 -60 -498 -230 -623 -480 -21 -44 -47 -105 -55 -136
-9 -31 -20 -67 -24 -80 -4 -13 -8 -836 -9 -1829 -1 -1572 0 -1814 14 -1875 67
-313 314 -583 614 -669 31 -9 67 -20 80 -24 42 -12 3607 -14 3674 -1 347 63
620 318 710 663 l23 91 -1 1815 -2 1815 -22 71 c-100 320 -334 549 -644 629
l-94 24 -1790 0 c-1445 -1 -1802 -3 -1851 -14z"/>
</g>
</svg>
