<?xml version="1.0" encoding="utf-8"?>
<!-- Generator: Adobe Illustrator 19.2.0, SVG Export Plug-In . SVG Version: 6.00 Build 0)  -->
<svg version="1.1" id="Layer_1" xmlns="http://www.w3.org/2000/svg" xmlns:xlink="http://www.w3.org/1999/xlink" x="0px" y="0px"
	 viewBox="0 0 500 500" style="enable-background:new 0 0 500 500;" xml:space="preserve">
<style type="text/css">
	.st0{fill:#36447f;}
	.st1{opacity:0.75;fill:#273366;}
	.st2{opacity:0.75;}
	.st3{fill:#273366;}
	.st4{fill:#1a2849;}
	.st5{fill:#1a1d31;}
</style>
<g>
	<path class="st0" d="M382.7,401c1.3-28.5-40.9-40.8-59-44.8c-20.4-4.5-42.8-6.6-68.6-6.6c-8.3,0-16.8,0.2-26.1,0.7
		c-22.3,1.1-48.2,3.6-70.5,13.5c-20.7,9.3-26.6,22-27.9,30.9l-0.2,1.7l-1.4-1.1c-6.5-5.3-7.1-15.6-5.5-22.8
		c3.8-15.4,2-32.2,0.3-48.4c-0.2-2.2-0.5-4.3-0.7-6.5c-0.2-2-0.4-4-0.6-6c-0.7-6.2-1.3-12.7-1.6-19.1c-0.2-4.8,0.2-7.9,2.6-11.7
		c10.9-17,32.6-28.3,66.4-34.5c15.8-2.9,32.9-4.3,52.3-4.3c7.7,0,15.6,0.2,24.3,0.7c28.4,1.5,50.9,4.9,70.9,10.8
		c30.9,9.1,49.8,22.4,57.9,40.7c4.8,10.9,2.9,21.9,1,32.5c-0.8,4.7-1.7,9.6-1.9,14.4c-0.4,7.5-0.1,15.3,0.2,22.7
		c0.1,3,0.2,6.1,0.3,9.1c0,0.7,0,1.4,0.1,2.1c0.1,3.2,0.2,6.5-0.2,9.8c-0.8,6.7-4.6,12.9-10.6,17.1l-1.6,1.1L382.7,401z"/>
	<path class="st0" d="M385.3,278c-7.5-7.6-17.7-14.1-30.3-19.4c-16.4-6.9-35.5-11.5-59.9-14.5c-17.3-2.1-34.4-3.2-50.7-3.2
		c-11.8,0-23.5,0.6-34.7,1.7c-22.1,2.2-53.8,7.1-75.1,24.7l-2,1.7l0.4-2.6c1.2-7.7,4.9-14.9,8.3-21c4.7-8.5,10.2-16.6,15.1-23.8
		c0.8-1.2,1.7-2.5,2.6-3.7c3.6-5.2,7.2-10.5,10.2-16.1l0.2-0.4c1.7-3.2,3.9-7.1,2.5-10.4c-0.1-0.2-0.1-0.2-0.2-0.2
		c-0.1,0-0.4,0.1-0.5,0.3s-0.1,0.4,0,0.6c1.6,3.7-2.3,9.4-4.8,13.2c-0.4,0.6-0.8,1.2-1,1.6l-0.4,0.6l-0.6,1l-0.9-0.8
		c-10.7-9.5-16.3-18.9-17.1-28.7c-0.9-11.3,5-21.1,10.1-27.3c12.4-15.1,31.9-27.3,57.8-36.1c11.5-3.9,21-6,29.7-6.5
		c1.1-0.1,2.1-0.1,3.1-0.1c2.6,0,5.1,0.2,7.4,0.7c3.5,0.6,7.1,1.2,10.5,1.7c3.3,0.5,6.6,1,9.9,1.6c32.8,5.9,59,18.6,75.8,36.7
		c7.8,8.4,12.6,16.9,14,25c0.7,4.2,0.5,7.8-0.7,10.8c-1.5,3.6-4.4,6.6-6.9,9.2c-0.3,0.3-0.6,0.7-1,1.2c-0.9,1.1-2.1,2.4-3.2,3.3
		l-1,0.8l-0.6-1.1c-0.4-0.9-0.8-1.6-1.2-2.4c-0.3-0.6-0.6-1.2-0.9-1.9c-2.4-4.9-5.8-11.7-3.7-16.6c0-0.1,0.1-0.2,0-0.2
		c-0.1-0.1-0.2-0.2-0.5-0.2c-0.2,0-0.5,0.1-0.6,0.4c-1.7,4.1,0.8,9.8,2.6,14l0.4,1c0.9,2,1.8,4.1,2.9,6.3l0.3,0.5l-0.3,0.5
		c-0.1,0.2-0.1,0.3-0.1,0.4l0.1,0.3c0.1,0.3,0.3,0.4,0.5,0.4h0.6l0.3,0.5c2.4,4.8,5,9.5,7.6,14.2l1.8,3.3c1.4,2.6,2.8,5.1,4.3,7.7
		c9,16.1,18.2,32.7,21.7,50.5l0.6,3.2L385.3,278z"/>
	<path class="st1" d="M382.7,401c1.3-28.5-40.9-40.8-59-44.8c-20.4-4.5-42.8-6.6-68.6-6.6c-8.3,0-16.8,0.2-26.1,0.7
		c-22.3,1.1-48.2,3.6-70.5,13.5c-20.7,9.3-26.6,22-27.9,30.9l-0.2,1.7l-1.4-1.1c-6.5-5.3-7.1-15.6-5.5-22.8
		c3.8-15.4,2-32.2,0.3-48.4c-0.2-2.2-0.5-4.3-0.7-6.5c-0.2-2-0.4-4-0.6-6c-0.7-6.2-1.3-12.7-1.6-19.1c-0.2-4.8,0.2-7.9,2.6-11.7
		c10.9-17,32.6-28.3,66.4-34.5c15.8-2.9,32.9-4.3,52.3-4.3c7.7,0,15.6,0.2,24.3,0.7c28.4,1.5,50.9,4.9,70.9,10.8
		c30.9,9.1,49.8,22.4,57.9,40.7c4.8,10.9,2.9,21.9,1,32.5c-0.8,4.7-1.7,9.6-1.9,14.4c-0.4,7.5-0.1,15.3,0.2,22.7
		c0.1,3,0.2,6.1,0.3,9.1c0,0.7,0,1.4,0.1,2.1c0.1,3.2,0.2,6.5-0.2,9.8c-0.8,6.7-4.6,12.9-10.6,17.1l-1.6,1.1L382.7,401z"/>
	<g class="st2">
		<path class="st3" d="M252.1,123.9c-5.4,1.5,2.8,11.4,5.7,22.3c2.9,10.9,3.1,24.3,8.1,28.9c5,4.6,7.9,2.8,7.8-6.2
			s-0.9-19.9-3.4-26.3C266,130.9,258.7,122.1,252.1,123.9z"/>
		<path class="st3" d="M164.1,208.1c0,0,7.2-10,7.9-13s3-11.9-2.3-24.6c-1.4-3.4-7.5-11.8-14.3-4.3s-5.8,28.8-2,31.4
			c3.8,2.6,10.8,9.8,10.8,9.8"/>
		<path class="st3" d="M349.5,197.2l-4.6-13l-0.6-6.7c0,0,2-11.5,9.2-9.5c10.3,2.9,11.9,13.5,10.1,18.7
			c-1.3,3.7-12.1,14.8-12.1,14.8L349.5,197.2z"/>
		<path class="st4" d="M394.4,356.7c-18.4-14.9-43.3-28.3-62-27.4c-18.7,1-12.6-16.2-7.2-19.2c11.2-6.2,56.5,3,70.4,21.2
			C399.5,336.4,395.3,357.4,394.4,356.7z"/>
		<path class="st4" d="M124.8,358.8c7.3-10.3,50.3-27.4,65.3-24.7c14.9,2.7,5.6-22.4-3.5-23.1c-16-1.3-55.7,9.9-62.8,20.5
			C122.9,332.8,124.8,358.8,124.8,358.8z"/>
	</g>
	<g>
		<g>
			<path class="st5" d="M134.1,269.7c0.4-8.4,4.4-16.3,8.4-23.5c4.5-8.2,9.8-16,15-23.7c4.4-6.5,9.1-13,12.9-19.9
				c1.9-3.5,4.5-8.1,2.7-12.2c-1-2.3-4.5-0.3-3.4,2c1.5,3.4-4.2,10.8-5.8,13.4c-4.4,7-9.2,13.7-13.7,20.6
				c-8.5,12.7-19.1,27.6-20,43.4C130,272.3,134,272.3,134.1,269.7L134.1,269.7z"/>
		</g>
		<g>
			<path class="st5" d="M165.2,207c-8.5-7.4-16.6-16.9-17.5-28.6c-0.7-9.7,3.7-18.7,9.7-26c14.3-17.4,36.5-28.7,57.5-35.9
				c9.3-3.2,19.1-5.8,29-6.4c3.4-0.2,6.8-0.1,10.2,0.5c6.8,1.3,13.7,2,20.5,3.3c27.3,4.9,55.7,15.6,75,36.3
				c6.3,6.8,12,15.2,13.6,24.5c0.5,3.2,0.6,6.7-0.7,9.8c-1.4,3.4-4.1,6.2-6.6,8.7c-1.3,1.3-4.3,5-5.8,5.3c0.8,0.5,1.6,0.9,2.5,1.4
				c0-0.1-0.1-0.2-0.1-0.3c-0.2,0.6-0.3,1.2-0.5,1.8c0.1-0.1,0.2-0.4,0.3-0.4c-0.9,0-1.9,0-2.8,0c0.1,0,0.1,0.2,0.2,0.3
				c2,1.6,4.8-1.2,2.8-2.8c-0.1,0-0.1-0.1-0.2-0.1c-0.8-0.6-2-0.9-2.8,0c-0.1,0.1-0.2,0.2-0.3,0.3c-0.5,0.5-0.8,1.3-0.5,1.9
				c0,0.1,0.1,0.2,0.1,0.3c0.4,1,1.3,1.7,2.5,1.4c1.4-0.3,2.7-1.8,3.7-2.7c2.8-2.5,5.4-5.2,7.7-8.1c2.7-3.4,4.4-6.9,4.8-11.2
				c0.6-7.9-2.7-15.8-6.8-22.3c-14.4-22.9-41.1-36.4-66.3-43.6c-9.4-2.7-19.1-4.6-28.8-5.9c-4.8-0.6-9.7-1.9-14.5-2.3
				c-9.7-0.9-19.8,1.3-29.1,3.9c-23.3,6.5-47.7,18.1-64.5,36c-7.6,8.1-13.8,18.4-13.9,29.9c-0.1,13.8,8.8,25.2,18.7,33.8
				C164.3,211.5,167.1,208.7,165.2,207L165.2,207z"/>
		</g>
		<g>
			<path class="st5" d="M343,177c-2.1,5,1.1,11.6,3.1,16.2c3.9,9.1,8.9,17.8,13.6,26.5c10.5,19.1,23.3,39.5,26.5,61.5
				c0.4,2.5,4.2,1.5,3.8-1.1c-3-20.6-14.7-40-24.5-58c-4.8-8.8-9.8-17.6-14.1-26.7c-2.1-4.4-6.7-12.2-4.6-17.3
				C347.8,175.7,343.9,174.6,343,177L343,177z"/>
		</g>
		<g>
			<path class="st5" d="M121.2,371.8c-2,9.5-0.7,22,8.7,27.1c1.4,0.7,2.9-0.2,3-1.7c0.9-14,11.4-23.5,23.2-29.5
				c19.5-9.9,42.5-12.9,64-14.4c30.2-2.2,61.3-1.8,91.2,3.1c18.5,3,38.3,7.8,53.7,19c8.8,6.4,16.8,16.4,15.1,27.9
				c-0.3,1.7,1.3,3.1,2.9,2.3c19.5-10.5,14.3-34.1,13.9-52.4c-0.2-9.9,1-18.9,2.7-28.7c1.4-8,2.6-16.3,0.5-24.4
				c-5.4-21.2-25.3-34.9-44.4-42.9c-19.1-8.1-39.8-12.2-60.4-14.7c-28.4-3.5-57.6-4.4-86.1-1.5c-28.6,2.9-63.4,9.7-83.4,32.5
				c-2.4,2.8-5,6-6.5,9.5c-2,4.7-0.9,10.9-0.5,15.8c1.6,20,4.8,40.1,3.9,60.2C122.6,363.4,122.2,367.7,121.2,371.8
				c-0.6,2.5,3.2,3.6,3.8,1.1c4.3-17.6,1.5-37-0.3-54.8c-0.8-8.3-1.8-16.6-2.2-24.9c-0.2-4.4-0.2-7.6,2.1-11.3
				c13.3-21.3,42.2-29.9,65.3-34.1c25.2-4.7,51.1-5,76.6-3.7c23.8,1.2,47.9,4,70.9,10.8c21.7,6.4,46.8,17.7,56.6,39.8
				c6.7,15.2-0.2,30.7-1,46.3c-0.6,10.6,0.3,21.3,0.5,31.9c0.1,3.9,0.4,7.9-0.1,11.7c-0.9,7.6-5.8,13.9-12.4,17.4
				c1,0.8,2,1.5,2.9,2.3c4.6-30.8-36.9-44.6-59.6-49.6c-30.9-6.8-63.4-7.6-94.9-6.1c-24.1,1.1-49.5,3.8-71.7,13.7
				c-14.6,6.6-27.8,17.8-28.9,34.7c1-0.6,2-1.1,3-1.7c-7.7-4.2-8.5-14.9-6.9-22.6C125.6,370.4,121.7,369.3,121.2,371.8z"/>
		</g>
		<g>
			<path class="st5" d="M137.3,348.3c14.4-9.3,30.9-14.4,48-14.8c2.6-0.1,2.6-4.1,0-4c-17.8,0.5-35,5.7-50,15.4
				C133.2,346.3,135.2,349.7,137.3,348.3L137.3,348.3z"/>
		</g>
		<g>
			<path class="st5" d="M137.7,333.2c9.7-6.9,20.6-11.3,32.4-13.3c2.5-0.4,1.5-4.3-1.1-3.8c-12.1,2-23.4,6.6-33.4,13.7
				C133.6,331.3,135.6,334.7,137.7,333.2L137.7,333.2z"/>
		</g>
		<g>
			<path class="st5" d="M385.8,342.1c-13.1-9.7-28-16.4-43.9-19.6c-2.5-0.5-3.6,3.3-1.1,3.8c15.6,3.2,30.1,9.7,43,19.2
				C385.8,347.1,387.8,343.6,385.8,342.1L385.8,342.1z"/>
		</g>
		<g>
			<path class="st5" d="M384.4,327.6c-7.5-3.6-14.9-7.4-22.2-11.5c-2.2-1.3-4.3,2.2-2,3.4c7.3,4.1,14.7,7.9,22.2,11.5
				C384.7,332.2,386.7,328.7,384.4,327.6L384.4,327.6z"/>
		</g>
		<g>
			<path class="st5" d="M256.9,143.7c2,4.4,3.4,9.1,4.2,13.9c0.4,2.5,4.3,1.5,3.8-1.1c-0.9-5.2-2.4-10.1-4.6-14.8
				C259.3,139.3,255.8,141.3,256.9,143.7L256.9,143.7z"/>
		</g>
		<g>
			<path class="st5" d="M260.1,135.7c8.4,8.2,8.5,20.2,8.3,31.2c0,2.6,4,2.6,4,0c0.1-12.1-0.3-25-9.5-34
				C261.1,131.1,258.2,133.9,260.1,135.7L260.1,135.7z"/>
		</g>
		<g>
			<path class="st5" d="M161.5,171.1c4,0.5,5.3,5.5,6.1,8.8c0.7,2.5,4.5,1.4,3.8-1.1c-1.5-5.4-3.8-10.9-10-11.7
				C159,166.7,159,170.7,161.5,171.1L161.5,171.1z"/>
		</g>
		<g>
			<path class="st5" d="M354.2,183.7c-0.6-2.5,0.4-4.9,2.3-6.5c2-1.6-0.8-4.4-2.8-2.8c-3.1,2.5-4.3,6.6-3.4,10.3
				C351,187.2,354.8,186.2,354.2,183.7L354.2,183.7z"/>
		</g>
		<g>
			<path class="st5" d="M167,162.2c3.3,1.7,5.7,4.3,7.3,7.6c1.1,2.3,4.5,0.3,3.4-2c-1.8-3.9-4.9-7.1-8.7-9.1
				C166.7,157.6,164.7,161.1,167,162.2L167,162.2z"/>
		</g>
	</g>
</g>
</svg>
