<?xml version="1.0" encoding="utf-8"?>
<!-- Generator: Adobe Illustrator 19.2.0, SVG Export Plug-In . SVG Version: 6.00 Build 0)  -->
<svg version="1.1" id="Layer_1" xmlns="http://www.w3.org/2000/svg" xmlns:xlink="http://www.w3.org/1999/xlink" x="0px" y="0px"
	 viewBox="0 0 739.6 909.9" style="enable-background:new 0 0 739.6 909.9;" xml:space="preserve">
<style type="text/css">
	.st0{fill-rule:evenodd;clip-rule:evenodd;fill:#D6AA89;}
	.st1{fill:#3A291D;}
</style>
<g>
	<g>
		<path class="st0" d="M388.6,445.8l-9.4,1.2h-8.3c0,0-6.8-2.7-8.3-1.2s-3.9,5.7-3.5,9.4c0.3,3.2,32.3,5.9,33-2.4
			C392.5,449.4,388.6,445.8,388.6,445.8z M430.1,421.6c-2.7-4.4-4.7-2.1-5.9-1.2s-1.4,2.6-1.2,3.5c1.2,4.9,2.2,7,1.2,14.1
			c-0.4,2.7,6.7,2.8,8.8-1.2C435,433.2,432.8,426,430.1,421.6z"/>
	</g>
	<g>
		<g>
			<path class="st1" d="M333.4,430c5.3-0.2,10.7-0.1,16,0.2c4.8,0.2,9.6,0.3,14.4,0.9c3.6,0.5,6.9,2.6,10.5,2.7
				c4.8,0.1,9.5-2.4,14.3-2.8c4.7-0.4,9.4-0.7,14.1-0.9c5.6-0.3,11.1-0.3,16.7-0.5c2.6-0.1,2.6-4.1,0-4c-5.4,0.2-10.7,0.2-16.1,0.5
				c-4.6,0.2-9.2,0.5-13.8,0.9c-5,0.4-10.3,3.2-15.3,2.9c-3.4-0.2-6.4-2.2-9.8-2.7c-4.8-0.7-9.7-0.7-14.5-0.9
				c-5.5-0.3-11.1-0.4-16.6-0.2C330.9,426.1,330.9,430.1,333.4,430L333.4,430z"/>
		</g>
		<g>
			<path class="st1" d="M417.7,424c3.7,2.2,3.9,6.8,2.3,10.4c-1,2.3,2.5,4.4,3.5,2c2.4-5.7,2-12.5-3.8-15.9
				C417.5,419.3,415.4,422.7,417.7,424L417.7,424z"/>
		</g>
		<g>
			<path class="st1" d="M330.5,420.7c-2.1,2-2.6,5.4-2.9,8.2c-0.3,2.5-0.8,5.5,0.3,7.9c1.1,2.3,4.5,0.3,3.5-2c-0.4-0.9,0-4,0.2-5.3
				c0.2-1.8,0.4-4.6,1.9-5.9C335.2,421.8,332.4,419,330.5,420.7L330.5,420.7z"/>
		</g>
		<g>
			<path class="st1" d="M355.6,446.6c5.2,2.9,12.7,2.6,18.5,2.5c7-0.1,14.5-0.6,21-3.4c2.4-1,0.3-4.5-2-3.5
				c-5.8,2.5-12.8,2.7-19,2.8c-5,0.1-11.9,0.6-16.4-1.9C355.4,441.9,353.4,445.4,355.6,446.6L355.6,446.6z"/>
		</g>
	</g>
</g>
</svg>
