<?xml version="1.0" encoding="utf-8"?>
<!-- Generator: Adobe Illustrator 19.2.0, SVG Export Plug-In . SVG Version: 6.00 Build 0)  -->
<svg version="1.1" id="Layer_1" xmlns="http://www.w3.org/2000/svg" xmlns:xlink="http://www.w3.org/1999/xlink" x="0px" y="0px"
	 viewBox="0 0 739.6 909.9" style="enable-background:new 0 0 739.6 909.9;" xml:space="preserve">
<style type="text/css">
	.st0{fill-rule:evenodd;clip-rule:evenodd;fill:#D6AA89;}
	.st1{fill-rule:evenodd;clip-rule:evenodd;fill:#A55959;}
	.st2{fill:#3A291D;}
</style>
<g>
	<g>
		<path class="st0" d="M388.6,445.5l-9.4,1.2h-8.3c0,0-6.8-2.7-8.3-1.2s-3.9,5.7-3.5,9.4c0.3,3.2,32.3,5.9,33-2.4
			C392.4,449,388.6,445.5,388.6,445.5z M430.1,421.2c-2.7-4.4-4.7-2.1-5.9-1.2s-1.4,2.6-1.2,3.5c1.2,4.9,2.2,7,1.2,14.1
			c-0.4,2.7,6.7,2.8,8.8-1.2C435,432.8,432.7,425.7,430.1,421.2z"/>
	</g>
	<polygon class="st1" points="368,435 379.5,436 392.7,435 401.6,433.8 408.6,427.5 402.5,424 378,425.2 350.6,426.9 	"/>
	<g>
		<g>
			<path class="st2" d="M346.4,429.4c10.8,6.2,24.5,7.6,36.7,7.3c8.4-0.2,21.8-0.7,27.1-8.5c1.5-2.1-2-4.1-3.5-2
				c-2.2,3.2-7,4.3-10.5,5c-5.1,1.1-10.4,1.5-15.6,1.5c-10.8,0-22.7-1.3-32.2-6.8C346.2,424.6,344.2,428.1,346.4,429.4L346.4,429.4z
				"/>
		</g>
		<g>
			<path class="st2" d="M417.6,423.7c3.7,2.2,3.9,6.8,2.3,10.4c-1,2.3,2.5,4.4,3.5,2c2.4-5.7,2-12.5-3.8-15.9
				C417.4,418.9,415.4,422.4,417.6,423.7L417.6,423.7z"/>
		</g>
		<g>
			<path class="st2" d="M330.4,420.3c-2.1,2-2.6,5.4-2.9,8.2c-0.3,2.5-0.8,5.5,0.3,7.9c1.1,2.3,4.5,0.3,3.5-2c-0.4-0.9,0-4,0.2-5.3
				c0.2-1.8,0.4-4.6,1.9-5.9C335.2,421.4,332.3,418.6,330.4,420.3L330.4,420.3z"/>
		</g>
		<g>
			<path class="st2" d="M355.6,446.3c4.6,2.6,11,2.7,16.2,2.8c7.6,0.2,15.3-0.3,22.8-1.5c2.5-0.4,1.5-4.3-1.1-3.9
				c-6.7,1.1-13.6,1.5-20.4,1.4c-4.9-0.1-11.2,0.2-15.5-2.3C355.3,441.6,353.3,445,355.6,446.3L355.6,446.3z"/>
		</g>
		<g>
			<path class="st2" d="M331.5,430.3c17.9-3.1,36.2-4.3,54.3-4.1c11.1,0.1,23.5-0.3,34.2,2.9c2.5,0.7,3.5-3.1,1.1-3.9
				c-11.1-3.3-23.9-3-35.3-3c-18.5-0.1-37.1,1.2-55.4,4.3C327.9,426.9,329,430.7,331.5,430.3L331.5,430.3z"/>
		</g>
	</g>
</g>
</svg>
