<?xml version="1.0" encoding="utf-8"?>
<!-- Generator: Adobe Illustrator 19.2.0, SVG Export Plug-In . SVG Version: 6.00 Build 0)  -->
<svg version="1.1" id="Layer_1" xmlns="http://www.w3.org/2000/svg" xmlns:xlink="http://www.w3.org/1999/xlink" x="0px" y="0px"
	 viewBox="0 0 739.6 909.9" style="enable-background:new 0 0 739.6 909.9;" xml:space="preserve">
<style type="text/css">
	.st0{fill-rule:evenodd;clip-rule:evenodd;fill:#D6AA89;}
	.st1{fill:#3A291D;}
</style>
<g>
	<g>
		<g>
			<path class="st0" d="M388.6,445.8l-9.4,1.2h-8.3c0,0-6.8-2.7-8.3-1.2s-3.9,5.7-3.5,9.4c0.3,3.2,32.3,5.9,33-2.4
				C392.4,449.4,388.6,445.8,388.6,445.8z M429.8,419.9c-2.7-4.4-4.7-2.1-5.9-1.2c-1.2,0.9-1.4,2.6-1.2,3.5c1.2,4.9,2.2,7,1.2,14.1
				c-0.4,2.7,6.7,2.8,8.8-1.2C434.7,431.5,432.5,424.3,429.8,419.9z"/>
		</g>
		<g>
			<g>
				<path class="st1" d="M332.9,430.6c28.3,6,58.6,4.5,86.8-1.6c2.5-0.6,1.4-4.4-1.1-3.9c-27.4,6-57.1,7.5-84.7,1.6
					C331.5,426.2,330.4,430,332.9,430.6L332.9,430.6z"/>
			</g>
			<g>
				<path class="st1" d="M417.4,423.5c3.7,2.2,3.9,6.8,2.3,10.4c-1,2.3,2.5,4.4,3.5,2c2.4-5.7,2-12.5-3.8-15.9
					C417.2,418.7,415.1,422.2,417.4,423.5L417.4,423.5z"/>
			</g>
			<g>
				<path class="st1" d="M330.5,421.3c-2.1,2-2.6,5.4-2.9,8.2c-0.3,2.5-0.8,5.5,0.3,7.9c1.1,2.3,4.5,0.3,3.5-2c-0.4-0.9,0-4,0.2-5.3
					c0.2-1.8,0.4-4.6,1.9-5.9C335.2,422.4,332.4,419.6,330.5,421.3L330.5,421.3z"/>
			</g>
			<g>
				<path class="st1" d="M357.9,446.6c4.4,2.5,10.4,2.5,15.4,2.5c6.3,0,12.8-0.4,18.9-2.1c2.5-0.7,1.4-4.5-1.1-3.9
					c-5.4,1.5-11,1.9-16.5,1.9c-4.6,0-10.5,0.3-14.6-2C357.7,441.9,355.7,445.4,357.9,446.6L357.9,446.6z"/>
			</g>
		</g>
	</g>
</g>
</svg>
