<?xml version="1.0" encoding="utf-8"?>
<!-- Generator: Adobe Illustrator 19.2.0, SVG Export Plug-In . SVG Version: 6.00 Build 0)  -->
<svg version="1.1" id="Layer_1" xmlns="http://www.w3.org/2000/svg" xmlns:xlink="http://www.w3.org/1999/xlink" x="0px" y="0px"
	 viewBox="0 0 739.6 909.9" style="enable-background:new 0 0 739.6 909.9;" xml:space="preserve">
<style type="text/css">
	.st0{fill-rule:evenodd;clip-rule:evenodd;fill:#D6AA89;}
	.st1{fill-rule:evenodd;clip-rule:evenodd;fill:#A55959;}
	.st2{fill:#3A291D;}
</style>
<g>
	<g>
		<path class="st0" d="M389,445.5l-9.4,1.2h-8.3c0,0-6.8-2.7-8.3-1.2s-3.9,5.7-3.5,9.4c0.3,3.2,32.3,5.9,33-2.4
			C392.9,449,389,445.5,389,445.5z M430.6,421.2c-2.7-4.4-4.7-2.1-5.9-1.2c-1.2,0.9-1.4,2.6-1.2,3.5c1.2,4.9,2.2,7,1.2,14.1
			c-0.4,2.7,6.7,2.8,8.8-1.2C435.5,432.8,433.2,425.7,430.6,421.2z"/>
	</g>
	<path class="st1" d="M341.8,430.1c0.5,0.3,11.1,3.9,11.1,3.9l15.3,2H388l11.5-2.9l11.4-4.8l-10.7-2.1l-14.6,0.1l-15.4,0l-13.1-0.1
		L341.8,430.1z"/>
	<g>
		<g>
			<path class="st2" d="M331.9,429.6c29.3-0.4,58.7,0,88-0.5c2.6,0,2.6-4,0-4c-29.3,0.5-58.7,0-88,0.5
				C329.3,425.7,329.3,429.7,331.9,429.6L331.9,429.6z"/>
		</g>
		<g>
			<path class="st2" d="M418.1,423.7c3.7,2.2,3.9,6.8,2.3,10.4c-1,2.3,2.5,4.4,3.5,2c2.4-5.7,2-12.5-3.8-15.9
				C417.9,418.9,415.9,422.4,418.1,423.7L418.1,423.7z"/>
		</g>
		<g>
			<path class="st2" d="M330.9,420.3c-2.1,2-2.6,5.4-2.9,8.2c-0.3,2.5-0.8,5.5,0.3,7.9c1.1,2.3,4.5,0.3,3.5-2c-0.4-0.9,0-4,0.2-5.3
				c0.2-1.8,0.4-4.6,1.9-5.9C335.6,421.4,332.8,418.6,330.9,420.3L330.9,420.3z"/>
		</g>
		<g>
			<path class="st2" d="M356.1,446.3c5.2,2.9,12.7,2.6,18.5,2.5c7-0.1,14.5-0.6,21-3.4c2.4-1,0.3-4.5-2-3.5
				c-5.8,2.5-12.8,2.7-19,2.8c-5,0.1-11.9,0.6-16.4-1.9C355.8,441.6,353.8,445,356.1,446.3L356.1,446.3z"/>
		</g>
		<g>
			<path class="st2" d="M339.7,430.1c10.2,6.5,24.5,7,36.2,6.8c11.7-0.2,26-1.2,36-8c2.1-1.5,0.1-4.9-2-3.5
				c-9.4,6.5-22.9,7.3-34,7.5c-11,0.2-24.6-0.1-34.2-6.3C339.6,425.3,337.6,428.8,339.7,430.1L339.7,430.1z"/>
		</g>
	</g>
</g>
</svg>
