<?xml version="1.0" encoding="utf-8"?>
<!-- Generator: Adobe Illustrator 19.2.0, SVG Export Plug-In . SVG Version: 6.00 Build 0)  -->
<svg version="1.1" id="Layer_1" xmlns="http://www.w3.org/2000/svg" xmlns:xlink="http://www.w3.org/1999/xlink" x="0px" y="0px"
	 viewBox="0 0 130 59" style="enable-background:new 0 0 130 59;" xml:space="preserve">
<style type="text/css">
	.st0{fill-rule:evenodd;clip-rule:evenodd;fill:#7a502b;}
	.st1{fill:#3A291D;}
</style>
<g>
	<g>
		<path class="st0" d="M75.7,39.9L66.3,41H58c0,0-6.8-2.7-8.3-1.2s-3.9,5.7-3.5,9.4c0.3,3.2,32.3,5.9,33-2.4
			C79.6,43.4,75.7,39.9,75.7,39.9z M117.2,15.6c-2.7-4.4-4.7-2.1-5.9-1.2s-1.4,2.6-1.2,3.5c1.2,4.9,2.2,7,1.2,14.1
			c-0.4,2.7,6.7,2.8,8.8-1.2C122.1,27.2,119.9,20.1,117.2,15.6z"/>
	</g>
	<g>
		<g>
			<path class="st1" d="M20.5,24.1c5.3-0.2,10.7-0.1,16,0.2c4.8,0.2,9.6,0.3,14.4,0.9c3.6,0.5,6.9,2.6,10.5,2.7
				c4.8,0.1,9.5-2.4,14.3-2.8c4.7-0.4,9.4-0.7,14.1-0.9c5.6-0.3,11.1-0.3,16.7-0.5c2.6-0.1,2.6-4.1,0-4c-5.4,0.2-10.7,0.2-16.1,0.5
				c-4.6,0.2-9.2,0.5-13.8,0.9c-5,0.4-10.3,3.2-15.3,2.9c-3.4-0.2-6.4-2.2-9.8-2.7c-4.8-0.7-9.7-0.7-14.5-0.9
				c-5.5-0.3-11.1-0.4-16.6-0.2C18,20.2,18,24.2,20.5,24.1L20.5,24.1z"/>
		</g>
		<g>
			<path class="st1" d="M104.8,18.1c3.7,2.2,3.9,6.8,2.3,10.4c-1,2.3,2.5,4.4,3.5,2c2.4-5.7,2-12.5-3.8-15.9
				C104.6,13.3,102.5,16.8,104.8,18.1L104.8,18.1z"/>
		</g>
		<g>
			<path class="st1" d="M17.6,14.8c-2.1,2-2.6,5.4-2.9,8.2c-0.3,2.5-0.8,5.5,0.3,7.9c1.1,2.3,4.5,0.3,3.5-2c-0.4-0.9,0-4,0.2-5.3
				c0.2-1.8,0.4-4.6,1.9-5.9C22.3,15.8,19.5,13,17.6,14.8L17.6,14.8z"/>
		</g>
		<g>
			<path class="st1" d="M42.7,40.7c5.2,2.9,12.7,2.6,18.5,2.5c7-0.1,14.5-0.6,21-3.4c2.4-1,0.3-4.5-2-3.5c-5.8,2.5-12.8,2.7-19,2.8
				c-5,0.1-11.9,0.6-16.4-1.9C42.5,36,40.5,39.4,42.7,40.7L42.7,40.7z"/>
		</g>
	</g>
</g>
</svg>
