<?xml version="1.0" encoding="utf-8"?>
<!-- Generator: Adobe Illustrator 19.2.0, SVG Export Plug-In . SVG Version: 6.00 Build 0)  -->
<svg version="1.1" id="Layer_1" xmlns="http://www.w3.org/2000/svg" xmlns:xlink="http://www.w3.org/1999/xlink" x="0px" y="0px"
	 viewBox="0 0 172 77" style="enable-background:new 0 0 172 77;" xml:space="preserve">
<style type="text/css">
	.st0{fill:#D6AA89;}
	.st1{fill:#FFFFFF;}
	.st2{fill:#648B5C;}
	.st3{fill:#4C5F2B;}
	.st4{fill:#3A291D;}
	.st5{fill:#D88A3D;}
	.st6{fill:#9B581C;}
</style>
<g>
	<g>
		<g>
			<path class="st0" d="M166.9,37.4c-1.2-7.2-5.9-9.4-5.9-9.4l-7.1-2.4l-8.3-1.2l-9.4-1.2l-7.1,1.2l-10.6,2.4c0,0-5.8,2.9-10.6,10.6
				c-4.6,7.5-7.5,8.5-4.9,11.8c2.7,3.2,6.2-0.2,9.5-0.8s16.6-6.3,16.6-6.3h10.7l11.9,3.5l5.9,5.9c0,0,5,3.7,7.1,0
				C169.7,43.3,167.3,39.5,166.9,37.4z"/>
		</g>
		<g>
			<g>
				<polygon class="st1" points="152.8,44.5 144.5,43.3 126.8,43.3 125.7,53.9 128,56.3 136.3,57.5 145.7,56.3 151.6,53.9 155.1,48 
									"/>
			</g>
			<g>
				<polygon class="st2" points="145.7,42.1 135.1,43.3 129.2,43.3 130.4,50.4 136.3,53.9 142.2,52.7 146.9,46.9 				"/>
			</g>
			<g>
				<g>
					<path class="st3" d="M128.6,44.8c0.2,5.2,3.2,9.4,8.8,9.3c4.6-0.1,9.4-3,10.4-7.7c0.3-1.3-1.6-1.8-1.9-0.5
						c-0.8,3.6-4.3,5.9-7.9,6.2c-4.6,0.4-7.2-2.9-7.3-7.3C130.6,43.5,128.6,43.5,128.6,44.8L128.6,44.8z"/>
				</g>
				<g>
					<path class="st4" d="M114.7,49c6.9-3.5,14.5-5,22.1-4.7c5.6,0.2,12.6,1.1,16.6,5.5c1.7,1.9,4.6-0.9,2.8-2.8
						c-4.5-4.9-11.8-6.2-18.1-6.6c-8.8-0.5-17.7,1.2-25.5,5.2C110.3,46.7,112.4,50.1,114.7,49L114.7,49z"/>
				</g>
				<g>
					<path class="st4" d="M126.1,55.4c-0.9-3.4-0.5-7,1.8-9.8c1.7-2-1.2-4.8-2.8-2.8c-3.3,3.9-4.2,8.8-2.9,13.6
						C122.9,58.9,126.7,57.9,126.1,55.4L126.1,55.4z"/>
				</g>
				<g>
					<path class="st4" d="M124.5,58.6c9.9,1.1,26.5,1,32.1-9.2c1.2-2.3-2.2-4.3-3.5-2c-4.8,8.7-20.3,8.1-28.6,7.2
						C121.9,54.3,122,58.3,124.5,58.6L124.5,58.6z"/>
				</g>
				<g>
					<path class="st4" d="M123.1,56.9c2.9,8,8.7,13.9,16.5,17.3c1.8,0.8,3.3-1.8,1.5-2.6c-7-3.1-12.5-8.3-15.1-15.5
						C125.3,54.3,122.4,55.1,123.1,56.9L123.1,56.9z"/>
				</g>
			</g>
			<g>
				<path class="st4" d="M115,38.7c12.1-2.7,29.1-3.1,40.2,3c1.7,0.9,3.2-1.6,1.5-2.6c-11.9-6.6-29.5-6.2-42.5-3.4
					C112.3,36.2,113.1,39.1,115,38.7L115,38.7z"/>
			</g>
		</g>
		<path class="st5" d="M169.6,32.3c-8.1-5-18.4-7.5-30.8-7.5c-8.7,0-18.5,1.3-28.2,3.8c-2.5-2.2-5-8-4.2-11c0.7-2.8,5.2-4.3,8.2-5.3
			c4.8-1.6,10-2.6,15.4-3h0.2c1.2-0.1,2.3-0.2,3.2-0.2c0.6,0,1.1,0,1.6,0c3.6,0,4.3,0.4,4.9,3.2l0.4,1.7l1.8-0.1
			c0.8-0.1,1.7-0.1,2.5-0.1c5.7,0,12.4,1.5,17.8,4c-0.1,0.1-0.1,0.1-0.2,0.2l-0.6,0.5l-0.1,0.8l-0.3,1.3l0.9,0.8
			C165.6,24,169.1,27.5,169.6,32.3z"/>
		<g>
			<g>
				<path class="st6" d="M111.6,28.1c-2.2-1.9-5.4-8.1-4-10.9c1.4-2.7,6.8-3.9,9.5-4.6c4-1.1,8.2-1.9,12.3-2.3
					c1.9-0.2,3.7-0.3,5.6-0.3c3,0,3.7-0.1,4.1,3.4c0.1,0.7,0.6,1.6,1.5,1.5c7-0.8,15.4,0.8,21.8,3.8c-0.2-0.6-0.5-1.1-0.7-1.7
					c0.3-1.2-1.4,1.1-1.8,1.5c-0.7,0.8-0.5,1.8,0.3,2.4c4.1,3.1,8.4,6.9,8.5,12.4c0.8-0.4,1.5-0.9,2.3-1.3
					c-17.1-11.1-42-9.1-60.8-4.2c-1.9,0.5-1.1,3.4,0.8,2.9c18.1-4.6,42.1-6.7,58.5,3.9c1,0.6,2.3-0.2,2.3-1.3c-0.1-6.7-5-11.2-10-15
					c0.1,0.8,0.2,1.6,0.3,2.4c0.7-0.7,2.3-1.7,2.5-2.8c0.1-0.6-0.1-1.4-0.7-1.7c-6.8-3.2-15.7-5.1-23.3-4.2c0.5,0.5,1,1,1.5,1.5
					c-0.8-6.1-2.9-6.5-8.7-6.4c-6.5,0.2-13.2,1.3-19.3,3.3c-3.4,1.1-8.6,2.8-9.6,6.7c-1,4,2,10.5,5,13.1
					C110.9,31.5,113,29.4,111.6,28.1z"/>
			</g>
			<g>
				<path class="st6" d="M116.3,27.1c-1-4.5-1.5-12,2.7-15.3c1.5-1.2-0.6-3.3-2.1-2.1c-5,3.9-4.7,12.7-3.4,18.2
					C113.8,29.8,116.7,29,116.3,27.1L116.3,27.1z"/>
			</g>
			<g>
				<path class="st6" d="M122.5,26.3c-0.3-6,3.2-13.1,8.3-16.3c1.6-1,0.1-3.6-1.5-2.6c-6,3.7-10.2,11.8-9.8,18.8
					C119.6,28.2,122.6,28.2,122.5,26.3L122.5,26.3z"/>
			</g>
			<g>
				<path class="st6" d="M130.9,25.3c1.5-4.5,5.8-9.4,10.5-10.5c1.9-0.4,1.1-3.3-0.8-2.9c-5.7,1.3-10.8,7.2-12.6,12.6
					C127.4,26.3,130.3,27.1,130.9,25.3L130.9,25.3z"/>
			</g>
			<g>
				<path class="st6" d="M144.2,26.4c5.9-3.3,10.9-5.7,17.9-5.6c-0.5-0.5-1-1-1.5-1.5c0.2-0.3,0.3-0.6,0.5-0.9
					c-1.6,1-0.1,3.6,1.5,2.6c0.7-0.4,0.9-0.9,1-1.7c0.1-0.8-0.7-1.5-1.5-1.5c-7.4-0.1-13.1,2.5-19.4,6
					C141,24.7,142.5,27.3,144.2,26.4L144.2,26.4z"/>
			</g>
		</g>
	</g>
	<g>
		<g>
			<g>
				<path class="st0" d="M81.9,20.3c-2.7-0.9-3.2,2.4-2.4,4.7c0.9,2.4-4.7,8.3-4.7,8.3l-4.7,5.9c0,0-8.3-0.9-8.3,1.2
					c0,0.6-0.1,1.2-0.1,1.8c-3.2-1.5-9.5-1.1-9.3-0.6l-8.3-1.2h-8.3L26.5,38l-5.9-1.2l-7.1-1.2c0,0-8.5-3.4-10.3-2.3
					c-2.3,1.4-6.7,21.5,2,21c5.9-0.4,9.5,1.1,14.2,2.6c8.4,2.7,8.3-1.2,8.3-1.2l13,1.2c0,0,1.6-0.4,3.8-0.9c0.2,1,0.1,2.1-0.3,3.2
					c-4.4,12.7-19.9,15.4-16.5,16.5c12.5,3.9,26.5-10.6,29.5-9.4s18.4-15.4,15.3-20c-0.4-0.5-1.4-0.9-2.7-1.2c0.1,0,0.3,0,0.3,0
					c0.9,0.3,7.1-4.4,9.4-5.9s7.1-8,7.1-11.8C86.6,23.6,84.5,21.2,81.9,20.3z"/>
			</g>
			<g>
				<path class="st0" d="M81.9,20.3c-2.7-0.9-3.2,2.4-2.4,4.7c0.9,2.4-4.7,8.3-4.7,8.3l-4.7,5.9c0,0-8.3-0.9-8.3,1.2
					c0,0.6-0.1,1.2-0.1,1.8c-3.2-1.5-9.5-1.1-9.3-0.6l-8.3-1.2h-8.3L26.5,38l-5.9-1.2l-7.1-1.2c0,0-8.5-3.4-10.3-2.3
					c-2.3,1.4-6.7,21.5,2,21c5.9-0.4,9.5,1.1,14.2,2.6c8.4,2.7,8.3-1.2,8.3-1.2l13,1.2c0,0,1.6-0.4,3.8-0.9c0.2,1,0.1,2.1-0.3,3.2
					c-4.4,12.7-19.9,15.4-16.5,16.5c12.5,3.9,26.5-10.6,29.5-9.4s18.4-15.4,15.3-20c-0.4-0.5-1.4-0.9-2.7-1.2c0.1,0,0.3,0,0.3,0
					c0.9,0.3,7.1-4.4,9.4-5.9s7.1-8,7.1-11.8C86.6,23.6,84.5,21.2,81.9,20.3z"/>
			</g>
			<g>
				<g>
					<path class="st1" d="M39.4,45.1l-10.6,1.2h-9.4l-5.9,2.4l4.7,5.9l7.1,3.5h9.4l8.3-1.2l2.4-2.4l-1.2-8.3L39.4,45.1z"/>
				</g>
				<g>
					<path class="st2" d="M24.1,45.1l-1.5,3.5l2.7,3.9l5.9,2.2l5.9-3.5l1.2-6.1l-4.7,1.2L24.1,45.1z"/>
				</g>
				<g>
					<g>
						<path class="st3" d="M37.5,46.4c-0.5,4.4-3.4,7.7-8,6.9c-3.3-0.5-6.4-3-6.2-6.6c0.1-1.3-1.9-1.3-2,0c-0.3,4.7,4,8.1,8.4,8.6
							c5.8,0.6,9.2-3.6,9.8-9C39.6,45.1,37.6,45.1,37.5,46.4L37.5,46.4z"/>
					</g>
					<g>
						<path class="st4" d="M54.5,45.9c-7.9-0.9-15.9-1.5-23.9-1.5c-6,0-12.9,0-18.4,2.8c-2.3,1.2-0.3,4.7,2,3.5
							c5.5-2.9,13.1-2.3,19.1-2.2c7.1,0.1,14.1,0.7,21.1,1.4C57,50.1,57,46.1,54.5,45.9L54.5,45.9z"/>
					</g>
					<g>
						<path class="st4" d="M45.9,57c1.3-4.3,1.2-8.1-1.9-11.6c-1.7-1.9-4.5,0.9-2.8,2.8c2.1,2.4,1.7,4.9,0.8,7.8
							C41.3,58.4,45.2,59.5,45.9,57L45.9,57z"/>
					</g>
					<g>
						<path class="st4" d="M43.6,55.2C35.3,56.1,19.8,56.7,15,48c-1.2-2.3-4.7-0.2-3.5,2c5.6,10.2,22.2,10.3,32.1,9.2
							C46.1,58.9,46.2,54.9,43.6,55.2L43.6,55.2z"/>
					</g>
					<g>
						<path class="st4" d="M42.2,56.8c-2.6,7.3-8.1,12.5-15.1,15.5c-1.8,0.8-0.2,3.4,1.5,2.6c7.7-3.4,13.6-9.3,16.5-17.3
							C45.7,55.7,42.8,54.9,42.2,56.8L42.2,56.8z"/>
					</g>
				</g>
				<g>
					<g>
						<path class="st4" d="M77.2,26.2c0,2.2-2.2,4.5-3.6,6.2c-1.4,1.6-5.8,6.1-7.4,7.5c-1.5,1.3,0.7,3.4,2.1,2.1
							c2.1-1.8,7-6.8,8.7-9c1.5-2,3.2-4.1,3.2-6.7C80.2,24.3,77.2,24.3,77.2,26.2L77.2,26.2z"/>
					</g>
					<g>
						<path class="st4" d="M78.3,35.9c-2.5,3.1-5.7,5.4-9.5,6.6c-1.8,0.6-1,3.5,0.8,2.9c4.3-1.4,8-3.9,10.8-7.4
							C81.6,36.5,79.5,34.4,78.3,35.9L78.3,35.9z"/>
					</g>
				</g>
				<g>
					<path class="st4" d="M11.4,45.4c13.6-0.6,27.1-1.8,40.7-2.9c1.9-0.1,1.9-3.2,0-3c-13.5,1.1-27.1,2.3-40.7,2.9
						C9.5,42.5,9.5,45.5,11.4,45.4L11.4,45.4z"/>
				</g>
			</g>
		</g>
		<path class="st5" d="M66.1,41c1.8-1.2,7-10.9,5.1-13.8c-3.5-5.3-22.6-6.3-29.6-4.4C41.1,23,40.3,26,40.2,28
			c-4.8-0.8-17.4-1.1-22.5,0l0,0c1.1,0.9,1.8,1.9,2.1,2.1c-6.6,1.3-10.4,3.3-15.4,3.7C20.8,37.9,45.7,41,66.1,41z"/>
		<path class="st6" d="M66.6,22.5c-5.6-2-14.2-2.4-20.2-1.9c-5.1,0.4-6.7,1.3-7.5,5.7c-7.1-0.9-14.7-1.1-21.7,0.2
			c-0.8,0.2-1.2,1.1-1,1.8c0.1,0.3,0.3,0.7,0.6,1c-4.4,1.3-9.9,2.3-15.3,3c-1.5,0.2-2.2,2.6-0.4,2.9c6.7,1.5,15.3,2.7,21.1,3.8
			c0.5,0.5,1.3,0.7,1.9,0.4c4.7,0.9,9.5,1.6,15,2.3s11.1,1.2,16.7,1.4c2.8,0.1,8.1,0.4,10.7-0.7c0.1,0,0.2-0.1,0.2-0.1
			c0.1-0.1,0.3-0.1,0.4-0.3c3-2.6,5.4-8,5.8-11.9C73.5,25.9,70.3,23.8,66.6,22.5z M43.5,24.1c0,0.3,0.1,0.6,0.4,0.9
			c3.8,4.2,6.1,9.3,6.8,14.9c-1.9-0.1-3.8-0.3-5.6-0.5c-0.4-3.5-1.5-7.6-3.8-10.5c0.2-0.2,0.3-0.5,0.3-0.9
			C41.9,25.8,42,24.7,43.5,24.1z M24.5,36.6C24,34.2,22.9,32,21.3,30c0-0.3-0.1-0.7-0.4-0.9c0,0,0,0-0.1-0.1
			c1.8-0.2,3.7-0.4,5.6-0.4c1.5,1.5,2.4,3.2,3,5.2c0.2,0.8,0.4,1.5,0.5,2.3c0.1,0.3,0.3,0.9,0.4,1.4C28.3,37.3,26.4,36.9,24.5,36.6z
			 M19,32c1,1.2,1.8,2.5,2.3,4c-3-0.6-8.9-1.2-12.1-1.9C11.3,33.5,16.3,32.8,19,32z M33.5,38c-0.2-1.8-0.9-4-1.3-5.4
			c-0.4-1.5-1.1-2.8-1.9-4c2.4,0.1,4.8,0.2,7.2,0.5c0.1,0.1,0.1,0.2,0.2,0.2c2.7,2.2,4,6.3,4.4,9.7c-1-0.1-2-0.2-2.9-0.3
			C37.1,38.6,35.3,38.3,33.5,38z M54.8,40.1c-0.4,0-0.7,0-1-0.1c-0.7-6.2-3.1-11.8-7.1-16.5c1.1-0.1,2.2-0.1,3.3-0.1
			c1.5,0,2.9,0,4.4,0.1l0,0c3.7,3.6,5,11.7,4.5,16.7C57.5,40.3,56.1,40.2,54.8,40.1z M69.7,31.3c-0.6,2.7-2.3,6.4-4.4,8.4
			c-0.5,0.2-2.9,0.3-3.4,0.4c0.4-4.8-0.6-11.5-3.4-16c1.1,0.2,2.1,0.4,3.2,0.7C65.3,25.7,70.7,27,69.7,31.3z"/>
	</g>
</g>
</svg>
