<?xml version="1.0" encoding="utf-8"?>
<!-- Generator: Adobe Illustrator 19.2.0, SVG Export Plug-In . SVG Version: 6.00 Build 0)  -->
<svg version="1.1" id="Layer_1" xmlns="http://www.w3.org/2000/svg" xmlns:xlink="http://www.w3.org/1999/xlink" x="0px" y="0px"
	 viewBox="0 0 530 300" style="enable-background:new 0 0 530 300;" xml:space="preserve">
<style type="text/css">
	.st0{fill:#6E90A9;}
	.st1{opacity:0.75;}
	.st2{fill:#3B5164;}
	.st3{fill:#1F3F51;}
</style>
<g>
	<path class="st0" d="M487.8,155.3c-9.7-7.3-69.9-46.1-91-55.7c-3.8-1.7-20.4-10-20.4-10s-9.5-9.6-12.1-17.9
		c-4.8-15.1-13.1-31.6-13.1-31.6s-5.4,15.7-23.8,25.3c-39.8,18.2-60.2,30.2-63.5,31.2c-2.6,0.8-7.7,2.9-11.9,0.6
		c-6.9-3.8-28.3-19.1-36.3-24.9c-37.5-28.8-40.6-34.5-40.6-34.5l-5.6,6.3l-4.8,21.1l-9.6,19l-15.4,9.2c0,0-73.6,35.8-109.2,66.4
		c-20.9,17.9-24.2,52.1,3.9,73.3C111,291,371,317.3,485.2,241.9C513.9,223.1,521.2,180.4,487.8,155.3z"/>
	<g class="st1">
		<g>
			<g>
				<path class="st2" d="M365.4,79.2c-2.3-7.7-5.6-23.7-5.7-22.5c1.9,6-11.1,18.2-16.7,23.6c-2.7,2.6-5.3,5.2-7.5,8.1
					c-1.3,1.6-3.9,4.6-3.9,6.9c0,0.7,0.5,1.2,1.1,1.4c2.7,1.1,8.7-2.9,10.8-4C349.5,89.7,365.4,79.2,365.4,79.2z"/>
				<path class="st2" d="M187.6,83.9c-6.9-9.5-18-26.3-17.5-38.7c0.3-1-7.8,26.6-7.3,25c1.4,1.6,2.5,4.2,3.5,5.4
					c2.5,3.4,5,6.9,7.7,10.2c2.8,3.5,8.9,12.2,14.5,10.6C195.6,94.5,189.9,87.1,187.6,83.9z"/>
			</g>
		</g>
		<path class="st2" d="M231.6,113.5c-9.2,8.9-31.9,36.9-31.9,36.9c-7.2-13.1-36.5-51.8-44.6-65.6c6.4,16.1,33.8,63.4,45,75.8
			c3.6,4,38.2-52.1,55.1-63C250.5,100.8,235.4,109.9,231.6,113.5z"/>
		<path class="st2" d="M376.4,89.6c0-0.1-59.4,54.7-64.7,58.5c-13.9-11.9-27.8-42.3-48.9-50.7c17.2,11.8,32.1,47.7,45.8,59.8
			C314.2,162.2,376.6,98.9,376.4,89.6z"/>
	</g>
	<g>
		<g>
			<g>
				<path class="st3" d="M375.6,91c19.4,9.3,38.2,19.9,56.7,30.9c18.2,10.8,37,21.8,53,35.8c1.9,1.7,4.8-1.1,2.8-2.8
					c-15.9-13.9-34.5-24.9-52.6-35.7c-18.9-11.3-38.1-22.1-57.9-31.7C375.3,86.4,373.3,89.9,375.6,91L375.6,91z"/>
			</g>
			<g>
				<path class="st3" d="M35,158.9c20.8-15.2,42.9-28.7,65-41.7c18.7-11,37.6-22.1,57.2-31.3c2.3-1.1,0.3-4.6-2-3.5
					c-19.6,9.3-38.5,20.3-57.2,31.3c-22.2,13.1-44.3,26.5-65,41.7C30.9,156.9,32.9,160.4,35,158.9L35,158.9z"/>
			</g>
		</g>
		<g>
			<path class="st3" d="M241.1,105.8c0.9,21.9,0.3,43.8,0.1,65.7c-0.3,28.2-0.7,56.4-1.2,84.6c-0.2,10.4-0.4,20.8-0.5,31.2
				c0,1.9,3,1.9,3,0c0.7-50.1,1.8-100.2,1.9-150.3c0-10.4,0.1-20.8-0.3-31.2C244.1,103.8,241.1,103.8,241.1,105.8L241.1,105.8z"/>
		</g>
		<g>
			<g>
				<path class="st3" d="M262.2,99.3c22.5,8.4,30.9,35.2,48.1,50.2c0.6,0.5,1.7,0.9,2.4,0.3c14.1-10.4,27.2-22.8,40.1-34.6
					c7-6.5,14.2-13,20.4-20.2c1.5-1.7,3.5-3.8,4.1-6.1c1.4-5.6-4.7-7.4-7.7-10.4c-4.9-4.7-5.2-13.7-7.2-19.9
					c-2.4-7.3-5.4-14.9-10.6-20.7c-1.1-1.2-2.9-0.5-3.3,0.9c-2.4,7.8-6.1,16.7-13.7,20.6c-5.3,2.7-10.7,5.4-16.1,8.1
					c-15.1,7.5-30.3,15-45.5,22.5c-3.8,1.9-7.6,3.8-11.5,5.7c-2.3,1.1-0.3,4.6,2,3.5c24.5-12.1,49.3-23.8,73.5-36.5
					c8.2-4.3,12.3-14.2,15-22.7c-1.1,0.3-2.2,0.6-3.3,0.9c4.8,5.2,7.5,12.3,9.6,18.9c1.7,5.3,2.4,11.1,4.6,16.2c0.9,2,2,3.9,3.6,5.4
					c1.9,1.9,6.8,3.5,6.7,6.5c-0.1,1.6-3,4.2-3.9,5.3c-12.7,14.4-27.7,26.9-42.2,39.4c-5.4,4.7-10.8,9.6-16.6,13.9
					c0.8,0.1,1.6,0.2,2.4,0.3c-17.8-15.7-26.2-42.5-49.8-51.2C260.9,94.5,259.9,98.4,262.2,99.3z"/>
			</g>
			<g>
				<path class="st3" d="M201.5,149.4c-10.2-18.3-23.5-34.9-35-52.3c-2.2-3.4-4.5-6.7-6.5-10.3c-2.4-4.1-2-3.9,0.4-8.3
					c3.2-6,7.3-11.8,8.3-18.7c1.1-8.3,1.5-14.5,7.1-21.5c-0.9,0-1.9,0-2.8,0c11.4,14,27.6,25.4,42.2,36.1
					c7.9,5.8,15.9,11.5,24.2,16.8c4.7,3,10,6.6,15,8.4c0-1.3,0-2.6,0-3.9c-15,4-25.8,17.5-35.6,28.8c-7,8.1-13.8,16.3-20.5,24.6
					c-1.6,2,1.2,4.8,2.9,2.8c6.2-7.7,12.6-15.3,19-22.8c9.7-11.2,20.7-25.5,35.6-29.5c2-0.5,1.8-3.3,0-3.9c-5.3-1.7-10.4-5.5-15-8.5
					c-8-5.2-15.8-10.6-23.5-16.3c-14.4-10.5-30.3-21.5-41.5-35.5c-0.6-0.8-2.2-0.8-2.8,0c-3.8,4.6-6.5,9.5-7.4,15.5
					c-0.8,5.3-0.6,10.2-2.9,15.2c-1.4,3.1-3.3,6.1-5,9.1c-1.1,2-3.2,4.8-3.5,7.2c-0.2,1.6,0.5,3,1.2,4.4c3,6.2,7.2,11.8,11.1,17.5
					c5.5,8.1,11.1,16.1,16.6,24.2c5.2,7.5,10.5,15,15,23C199.3,153.7,202.7,151.7,201.5,149.4z"/>
			</g>
		</g>
		<g>
			<path class="st3" d="M256.1,116.8c1.5-1.1,4-1.3,5.4,0c1.8,1.6,0.5,3.9-1.5,4.4c-1.4,0.3-4.1,0.2-4.2-1.7c0-0.8,0.2-1.5,0.4-2.3
				c0.1-0.3,0.2-0.6,0.3-0.9c0.2-0.5-0.1,0.2,0.1-0.1c0.8-1.7-1.8-3.3-2.6-1.5c-0.9,2-1.8,4.8-0.8,6.9c1.5,3,6.3,3.3,9,1.9
				c3.1-1.6,4.2-5.7,1.8-8.4c-2.3-2.6-6.7-2.8-9.5-0.9C253,115.3,254.5,117.9,256.1,116.8z"/>
		</g>
		<g>
			<path class="st3" d="M256.1,155.3c1.5-1.1,4-1.3,5.4,0c1.8,1.6,0.5,3.9-1.5,4.4c-1.4,0.3-4.1,0.2-4.2-1.7c0-0.8,0.2-1.5,0.4-2.3
				c0.1-0.3,0.2-0.6,0.3-0.9c0.2-0.5-0.1,0.2,0.1-0.1c0.8-1.7-1.8-3.3-2.6-1.5c-0.9,2-1.8,4.8-0.8,6.9c1.5,3,6.3,3.3,9,1.9
				c3.1-1.6,4.2-5.7,1.8-8.4c-2.3-2.6-6.7-2.8-9.5-0.9C253,153.8,254.5,156.4,256.1,155.3z"/>
		</g>
		<g>
			<path class="st3" d="M256.1,193.8c1.5-1.1,4-1.3,5.4,0c1.8,1.6,0.5,3.9-1.5,4.4c-1.4,0.3-4.1,0.2-4.2-1.7c0-0.8,0.2-1.5,0.4-2.3
				c0.1-0.3,0.2-0.6,0.3-0.9c0.2-0.5-0.1,0.2,0.1-0.1c0.8-1.7-1.8-3.3-2.6-1.5c-0.9,2-1.8,4.8-0.8,6.9c1.5,3,6.3,3.3,9,1.9
				c3.1-1.6,4.2-5.7,1.8-8.4c-2.3-2.6-6.7-2.8-9.5-0.9C253,192.3,254.5,194.9,256.1,193.8z"/>
		</g>
		<g>
			<path class="st3" d="M256.1,232.3c1.5-1.1,4-1.3,5.4,0c1.8,1.6,0.5,3.9-1.5,4.4c-1.4,0.3-4.1,0.2-4.2-1.7c0-0.8,0.2-1.5,0.4-2.3
				c0.1-0.3,0.2-0.6,0.3-0.9c0.2-0.5-0.1,0.2,0.1-0.1c0.8-1.7-1.8-3.3-2.6-1.5c-0.9,2-1.8,4.8-0.8,6.9c1.5,3,6.3,3.3,9,1.9
				c3.1-1.6,4.2-5.7,1.8-8.4c-2.3-2.6-6.7-2.8-9.5-0.9C253,230.8,254.5,233.4,256.1,232.3z"/>
		</g>
		<g>
			<path class="st3" d="M256.1,270.8c1.5-1.1,4-1.3,5.4,0c1.8,1.6,0.5,3.9-1.5,4.4c-1.4,0.3-4.1,0.2-4.2-1.7c0-0.8,0.2-1.5,0.4-2.3
				c0.1-0.3,0.2-0.6,0.3-0.9c0.2-0.5-0.1,0.2,0.1-0.1c0.8-1.7-1.8-3.3-2.6-1.5c-0.9,2-1.8,4.8-0.8,6.9c1.5,3,6.3,3.3,9,1.9
				c3.1-1.6,4.2-5.7,1.8-8.4c-2.3-2.6-6.7-2.8-9.5-0.9C253,269.3,254.5,271.9,256.1,270.8z"/>
		</g>
		<g>
			<path class="st3" d="M351.1,73.9c-9.2,8.3-19.3,15.4-30.1,21.3c-1.7,0.9-0.2,3.5,1.5,2.6c11.1-6.1,21.3-13.3,30.7-21.8
				C354.7,74.8,352.6,72.6,351.1,73.9L351.1,73.9z"/>
		</g>
		<g>
			<path class="st3" d="M351.3,81.5c-3,3-6.3,5.4-10.1,7.3c-1.7,0.9-0.2,3.5,1.5,2.6c4-2,7.6-4.6,10.7-7.8
				C354.8,82.2,352.7,80.1,351.3,81.5L351.3,81.5z"/>
		</g>
		<g>
			<path class="st3" d="M172.5,71.6c4.6,6,9.5,11.8,14.8,17.2c1.3,1.4,3.5-0.7,2.1-2.1c-5.1-5.3-9.8-10.8-14.3-16.6
				C174,68.5,171.4,70,172.5,71.6L172.5,71.6z"/>
		</g>
		<g>
			<path class="st3" d="M172.4,79.3c3.6,5.2,7.6,10,12,14.5c1.4,1.4,3.5-0.7,2.1-2.1c-4.2-4.3-8.1-9-11.5-13.9
				C173.9,76.2,171.3,77.7,172.4,79.3L172.4,79.3z"/>
		</g>
		<g>
			<path class="st3" d="M255.3,99.2c2.7,0.2,5.3,0,8-0.4c1.9-0.3,1.1-3.2-0.8-2.9c-2.4,0.4-4.8,0.5-7.2,0.3
				C253.3,96.1,253.4,99.1,255.3,99.2L255.3,99.2z"/>
		</g>
	</g>
</g>
</svg>
