<?xml version="1.0" encoding="utf-8"?>
<!-- Generator: Adobe Illustrator 19.2.0, SVG Export Plug-In . SVG Version: 6.00 Build 0)  -->
<svg version="1.1" id="Layer_1" xmlns="http://www.w3.org/2000/svg" xmlns:xlink="http://www.w3.org/1999/xlink" x="0px" y="0px"
	 viewBox="0 0 630 410" style="enable-background:new 0 0 630 410;" xml:space="preserve">
<style type="text/css">
	.st0{fill:#Efefef;}
	.st1{fill:#bbbbbc;}
	.st2{fill:#7a7b7b;}
</style>
<g>
	<g>
		<path class="st0" d="M26.2,316.5c0.2-2,5.3-22.8,5.3-22.8s11.3-38.9,11.5-40c0.2-1.2,4.7-15.5,5.4-17.2s6.8-13.2,6.8-13.2
			l6.5-13.1l16.9-12.7l9.5-5.5l33.2-17.8l14.8-7.5l51.9-25l8.6-19.2l10.1-19L221,82.8l8.6-5.3l1.3,18.7l4.2,18l11.1,43l4.4,15.9
			l14.2,48.3l10.6,34.9l13.5,44.2l21.8,76.6l29.8-96.5l11.7-37.1l10.5-31.6l11.1-39.8l7.1-23.1l3.4-12.5l6.3-20.2l4.5-16.8l3.3-21.8
			l6.6,9l18.5,27.8l14,27.6l15.7,6.9l7.3,3.4l16.6,8.3l8.8,4.6l9.3,5l13.3,7.3l35.2,20.4l7.9,4.8l21.9,15l6.1,11.5l6.7,18.4
			c0,0,3.9,12.1,4.1,12.8s4.6,16,4.6,16l8.9,38.7c0,0-104.8,68.3-314.2,68.3C128.2,383.7,26.2,316.5,26.2,316.5z"/>
	</g>
	<g>
		<path class="st1" d="M152.4,183.8c-36.9-3.8-60.9,6.2-60.9,6.2l37.6-19.8l40.2-21.2l17.5-7.4l-0.4,11.8l9.9,61.1
			C196.2,214.5,183,187,152.4,183.8z"/>
		<path class="st1" d="M62.5,211.2c0,0-5.7,5.2-4.8,7.2c16.6,36.1,31.1,118.4,32.7,128.1c0.4,2.5,7.5,3.7,7.5,3.7l-0.6-8.6
			l-9.2-43.3L79.5,262L71,233.6L62.5,211.2z"/>
		<path class="st1" d="M304.8,354.8c0,0-9.7,15.5-28.6,16.8c-18.8,1.3-28.1-10.3-29.9-13.3c-1.9-3-19.5-56-21.9-62.7
			c-2.4-6.7-5.3-5.8-6.7-1.5c-5,15.4,11.1,84.8,17.1,86.3c12.2,3.1,73.8,3.1,73.8,3.1l1.9-6.6L304.8,354.8z"/>
		<path class="st1" d="M229.6,78l1.5,18.6l3.8,18.7c-43.3,42.6-28.6,129.3-28.6,133.7c0,4.4-10.6-31.1-10.6-31.1l-8.6-57.3V142
			l8.3-18.2L215,88.9L227,78H229.6z"/>
		<path class="st1" d="M367.5,324c12.9-15.6,18.1-36.6,18.8-39.8c0.7-3.2,8.7-4.8,9.2,0s-12.9,54.5-16.4,56.1
			C375.6,342,353.7,340.6,367.5,324z"/>
		<path class="st1" d="M422.1,206.8c24.5-56.7,76.5-34.8,84.7-30.2C515,181.2,470,157,470,157l-31-13.9v7.9
			C439,151,416.3,220.2,422.1,206.8z"/>
		<path class="st1" d="M397.7,78.3c0,0-7.3,26.6-0.3,28.5c18.9,5.1,38.1,43.2,38.1,54.3s2.7-13.3,2.7-13.3l-5.7-15.7L420.5,110
			L405,86.7L397.7,78.3z"/>
		<path class="st1" d="M571,217.8l-6.8,11.7l-15.1,34.8l-14.3,42.8l-9.8,35.6v7.3c0,0,6.4-1.1,6.7-2.5c6.8-37.1,39.8-123,42.8-125.4
			C577.5,219.7,571,217.8,571,217.8z"/>
	</g>
	<g>
		<g>
			<path class="st2" d="M395.7,78.3c-0.2,20.7-8.2,39.9-13.8,59.5c-5.8,20-11.1,40-17.2,59.9c-12.2,39.5-25.6,78.6-38.1,117.9
				c-3.5,11-6.9,21.9-10.1,33c-3.3,11.2-5.5,22.7-8.4,34c-0.6,2.5,3.2,3.6,3.9,1.1c5.1-20.1,10.1-39.9,16.3-59.7
				c6.2-19.9,12.7-39.7,19.3-59.5c13.2-40.1,26.1-80.2,37.1-121c5.8-21.5,15.1-42.5,15.2-65.1C399.7,75.8,395.7,75.8,395.7,78.3
				L395.7,78.3z"/>
		</g>
		<g>
			<path class="st2" d="M227.6,77.5c-1.1,12.8,3.1,26.8,5.9,39.1c5.1,22.1,11.3,43.9,17.6,65.7c14.1,49,29.5,97.6,44,146.4
				c5.1,17.3,10.7,34.7,14.3,52.4c0.5,2.5,4.4,1.5,3.9-1.1c-3-15-7.6-29.8-11.9-44.4c-6.7-22.8-13.7-45.5-20.6-68.2
				c-14.5-47.6-29.5-95.3-41.4-143.7c-2.3-9.3-4.5-18.7-6.1-28.2c-1-5.9-2.2-12.1-1.6-18.1C231.8,74.9,227.8,74.9,227.6,77.5
				L227.6,77.5z"/>
		</g>
		<g>
			<path class="st2" d="M228,75.1c-12.1,7.7-20.1,21.5-26.8,33.8c-6.1,11.2-11.3,22.8-16.2,34.6c-2.3,5.6-1.1,11.8-0.5,17.9
				c1.6,14.6,3.9,29.1,6.7,43.5c3.3,16.8,7,34.1,14.2,49.6c1.1,2.3,4.5,0.3,3.5-2c-6-13-9.3-27.3-12.3-41.3
				c-3.1-14.7-5.6-29.5-7.5-44.4c-0.6-4.9-1.2-9.7-1.5-14.6c-0.2-2.5-0.2-4.2,0.3-5.5c3.7-9.9,8.3-19.5,13-28.9
				c7-13.8,15.5-30.6,29-39.3C232.2,77.2,230.2,73.7,228,75.1L228,75.1z"/>
		</g>
		<g>
			<path class="st2" d="M396.7,78.7c8.9,11.7,16.9,24,24.3,36.6c3.6,6.1,7,12.3,10.1,18.6c2,4.1,5.4,10.2,5.7,14.1
				c0.2,2.5-0.8,5.4-1.4,7.8c-1.1,4.7-2.4,9.4-3.7,14c-3.6,12.6-7.6,25.2-11.8,37.6c-5.1,15-10.6,29.9-17.2,44.4
				c-1.1,2.3,2.4,4.4,3.5,2c11.7-25.8,20.8-53.1,28.6-80.3c2.3-7.8,5.4-16.3,5.9-24.5c0.2-3.5-1.6-6.9-2.9-10.1
				c-2.7-6.4-5.9-12.7-9.3-18.8c-8.4-15.2-17.8-29.9-28.3-43.7C398.7,74.6,395.2,76.6,396.7,78.7L396.7,78.7z"/>
		</g>
		<g>
			<path class="st2" d="M185.8,139.8c-32.6,16.1-65.4,31.7-97.1,49.5c-10.9,6.1-24,12-30.6,23.1c-10.8,17.9-16.7,39.1-22.5,59
				c-3.1,10.7-5.9,21.4-8.5,32.2c-1.2,5-3.2,10.6-3.3,15.9c-0.1,2.6,3.9,2.6,4,0c0.1-3.5,1.7-8.6,2.6-12.5c2.1-9,4.4-17.9,6.8-26.7
				c5.7-20.6,11.7-41.8,21.5-60.9c2.7-5.3,5.4-9.8,10.2-13.3c5.8-4.2,12.1-7.9,18.3-11.4c17.7-10.1,35.9-19.4,54.1-28.5
				c15.4-7.7,30.9-15.2,46.4-22.9C190.1,142.2,188.1,138.7,185.8,139.8L185.8,139.8z"/>
		</g>
		<g>
			<path class="st2" d="M60.3,211.6c2.8,3.3,4.4,9.8,5.9,14.1c3.3,9.4,6.2,19,9,28.6c6.5,22.4,12.4,45,16.9,67.9
				c1.8,9.2,3.7,18.7,3.8,28.1c0,2.6,4,2.6,4,0c-0.1-19.6-5.9-39.8-10.5-58.7c-5.4-22.1-11.4-44.3-18.9-65.8
				c-1.9-5.4-3.5-12.5-7.3-17C61.5,206.8,58.7,209.6,60.3,211.6L60.3,211.6z"/>
		</g>
		<g>
			<path class="st2" d="M436.3,144.2c15.8,5.5,30.6,13.4,45.3,21.1c15.5,8.1,30.8,16.7,46,25.5c13.9,8.1,28,16.1,41,25.5
				c7,5.1,9.5,13.9,12.3,21.7c2.8,7.7,5.4,15.4,7.8,23.2c5.6,18.3,10.1,37,13.6,55.9c0.5,2.5,4.3,1.5,3.9-1.1
				c-3.2-17.3-7.3-34.5-12.2-51.3c-2.6-8.8-5.4-17.4-8.5-26c-2.5-7-4.7-14.7-9.3-20.7c-4-5.3-10.9-8.8-16.3-12.4
				c-7.3-4.7-14.7-9.1-22.1-13.5c-15.8-9.3-31.8-18.4-48-27c-17-9-34.1-18.4-52.3-24.7C434.9,139.5,433.9,143.4,436.3,144.2
				L436.3,144.2z"/>
		</g>
		<g>
			<path class="st2" d="M569.3,216.6c-11.2,17-18.5,36.7-25.3,55.8c-6.9,19.2-13,38.7-18,58.5c-1.3,5.3-3.2,11.1-3.2,16.6
				c0,2.6,4,2.6,4,0c0-4.5,1.5-9.2,2.6-13.5c2-8.4,4.4-16.7,6.8-25c6.3-21.2,13.4-42.3,22.2-62.6c4.1-9.5,8.6-19,14.3-27.7
				C574.2,216.5,570.7,214.5,569.3,216.6L569.3,216.6z"/>
		</g>
		<g>
			<path class="st2" d="M226.6,315.7c3.5,8,6.9,16.1,10.4,24.1c0.8,1.8,3.3,0.2,2.6-1.5c-3.5-8-6.9-16.1-10.4-24.1
				C228.4,312.4,225.8,313.9,226.6,315.7L226.6,315.7z"/>
		</g>
		<g>
			<path class="st2" d="M217.4,305.4c1.3,7.3,3.1,14.3,5.6,21.3c0.6,1.8,3.5,1,2.9-0.8c-2.5-6.9-4.3-14-5.6-21.3
				C220,302.7,217.1,303.5,217.4,305.4L217.4,305.4z"/>
		</g>
		<g>
			<path class="st2" d="M384,291.9c-1.9,9.4-4.7,18.5-8.3,27.4c-0.7,1.8,2.2,2.6,2.9,0.8c3.6-8.9,6.4-18,8.3-27.4
				C387.3,290.8,384.4,290,384,291.9L384,291.9z"/>
		</g>
		<g>
			<path class="st2" d="M389.8,295.3c-1.1,4.7-2.6,9.2-4.7,13.6c-0.8,1.7,1.8,3.3,2.6,1.5c2.2-4.6,3.9-9.3,5-14.3
				C393.1,294.2,390.2,293.4,389.8,295.3L389.8,295.3z"/>
		</g>
	</g>
</g>
</svg>
