<?xml version="1.0" encoding="utf-8"?>
<!-- Generator: Adobe Illustrator 19.2.0, SVG Export Plug-In . SVG Version: 6.00 Build 0)  -->
<svg version="1.1" id="Layer_1" xmlns="http://www.w3.org/2000/svg" xmlns:xlink="http://www.w3.org/1999/xlink" x="0px" y="0px"
	 viewBox="0 0 172 38.5" style="enable-background:new 0 0 172 38.5;" xml:space="preserve">
<style type="text/css">
	.st0{fill:#2E3438;}
	.st1{fill:#1A1E21;}
</style>
<g>
	<g>
		<path class="st0" d="M169.4,32.3c-8.1-5-18.4-7.5-30.8-7.5c-8.7,0-18.5,1.3-28.2,3.8c-2.5-2.2-5-8-4.2-11c0.7-2.8,5.2-4.3,8.2-5.3
			c4.8-1.6,10-2.6,15.4-3h0.2c1.2-0.1,2.3-0.2,3.2-0.2c0.6,0,1.1,0,1.6,0c3.6,0,4.3,0.4,4.9,3.2l0.4,1.7l1.8-0.1
			c0.8-0.1,1.7-0.1,2.5-0.1c5.7,0,12.4,1.5,17.8,4c-0.1,0.1-0.1,0.1-0.2,0.2l-0.6,0.5l-0.1,0.8l-0.3,1.3l0.9,0.8
			C165.4,24,168.9,27.5,169.4,32.3z"/>
		<path class="st0" d="M2.2,32.3c8.1-5,18.4-7.5,30.8-7.5c8.7,0,18.5,1.3,28.2,3.8c2.5-2.2,5-8,4.2-11c-0.7-2.8-5.2-4.3-8.2-5.3
			c-4.8-1.6-10-2.6-15.4-3h-0.2c-1.2-0.1-2.3-0.2-3.2-0.2c-0.6,0-1.1,0-1.6,0c-3.6,0-4.3,0.4-4.9,3.2L31.5,14l-1.8-0.1
			c-0.8-0.1-1.7-0.1-2.5-0.1c-5.7,0-12.4,1.5-17.8,4c0.1,0.1,0.1,0.1,0.2,0.2l0.6,0.5l0.1,0.8l0.3,1.3l-0.9,0.8
			C6.2,24,2.7,27.5,2.2,32.3z"/>
	</g>
	<g>
		<g>
			<g>
				<path class="st1" d="M111.4,28.1c-2.2-1.9-5.4-8.1-4-10.9c1.4-2.7,6.8-3.9,9.5-4.6c4-1.1,8.2-1.9,12.3-2.3
					c1.9-0.2,3.7-0.3,5.6-0.3c3,0,3.7-0.1,4.1,3.4c0.1,0.7,0.6,1.6,1.5,1.5c7-0.8,15.4,0.8,21.8,3.8c-0.2-0.6-0.5-1.1-0.7-1.7
					c0.3-1.2-1.4,1.1-1.8,1.5c-0.7,0.8-0.5,1.8,0.3,2.4c4.1,3.1,8.4,6.9,8.5,12.4c0.8-0.4,1.5-0.9,2.3-1.3
					c-17.1-11.1-42-9.1-60.8-4.2c-1.9,0.5-1.1,3.4,0.8,2.9c18.1-4.6,42.1-6.7,58.5,3.9c1,0.6,2.3-0.2,2.3-1.3c-0.1-6.7-5-11.2-10-15
					c0.1,0.8,0.2,1.6,0.3,2.4c0.7-0.7,2.3-1.7,2.5-2.8c0.1-0.6-0.1-1.4-0.7-1.7c-6.8-3.2-15.7-5.1-23.3-4.2c0.5,0.5,1,1,1.5,1.5
					c-0.8-6.1-2.9-6.5-8.7-6.4c-6.5,0.2-13.2,1.3-19.3,3.3c-3.4,1.1-8.6,2.8-9.6,6.7c-1,4,2,10.5,5,13.1
					C110.7,31.5,112.8,29.4,111.4,28.1z"/>
			</g>
			<g>
				<path class="st1" d="M116.1,27.1c-1-4.5-1.5-12,2.7-15.3c1.5-1.2-0.6-3.3-2.1-2.1c-5,3.9-4.7,12.7-3.4,18.2
					C113.6,29.8,116.5,29,116.1,27.1L116.1,27.1z"/>
			</g>
			<g>
				<path class="st1" d="M122.3,26.3c-0.3-6,3.2-13.1,8.3-16.3c1.6-1,0.1-3.6-1.5-2.6c-6,3.7-10.2,11.8-9.8,18.8
					C119.4,28.2,122.4,28.2,122.3,26.3L122.3,26.3z"/>
			</g>
			<g>
				<path class="st1" d="M130.7,25.3c1.5-4.5,5.8-9.4,10.5-10.5c1.9-0.4,1.1-3.3-0.8-2.9c-5.7,1.3-10.8,7.2-12.6,12.6
					C127.2,26.3,130.1,27.1,130.7,25.3L130.7,25.3z"/>
			</g>
			<g>
				<path class="st1" d="M144,26.4c5.9-3.3,10.9-5.7,17.9-5.6c-0.5-0.5-1-1-1.5-1.5c0.2-0.3,0.3-0.6,0.5-0.9c-1.6,1-0.1,3.6,1.5,2.6
					c0.7-0.4,0.9-0.9,1-1.7c0.1-0.8-0.7-1.5-1.5-1.5c-7.4-0.1-13.1,2.5-19.4,6C140.8,24.7,142.3,27.3,144,26.4L144,26.4z"/>
			</g>
		</g>
		<g>
			<g>
				<path class="st1" d="M62.4,30.2c2.9-2.5,5.7-8.8,5-12.7c-0.7-4.2-6.1-6-9.6-7.1c-6-2-12.5-3-18.8-3.3c-6-0.2-8.5,0-9.3,6.4
					c0.5-0.5,1-1,1.5-1.5c-7.6-0.9-16.5,1-23.3,4.2c-0.6,0.3-0.8,1.1-0.7,1.7c0.3,1.1,1.8,2,2.5,2.8c0.1-0.8,0.2-1.6,0.3-2.4
					c-5,3.8-9.9,8.3-10,15c0,1.1,1.3,1.9,2.3,1.3c16.4-10.7,40.4-8.6,58.5-3.9c1.9,0.5,2.7-2.4,0.8-2.9C42.7,23,17.9,20.9,0.8,32
					c0.8,0.4,1.5,0.9,2.3,1.3c0.1-5.5,4.4-9.3,8.5-12.4c0.8-0.6,1-1.6,0.3-2.4c-0.4-0.4-2-2.6-1.8-1.5c-0.2,0.6-0.5,1.1-0.7,1.7
					c6.4-3,14.7-4.7,21.8-3.8c0.9,0.1,1.4-0.8,1.5-1.5c0.4-3.2,0.8-3.3,3.6-3.4c1.8,0,3.7,0.1,5.5,0.2c4.3,0.4,8.7,1.2,12.9,2.3
					c2.7,0.8,7.5,1.8,9.2,4.3c1.8,2.8-1.4,9.2-3.7,11.2C58.8,29.4,60.9,31.5,62.4,30.2z"/>
			</g>
			<g>
				<path class="st1" d="M58.4,27.9C59.7,22.4,60,13.6,55,9.7c-1.5-1.2-3.6,0.9-2.1,2.1c4.1,3.2,3.7,10.7,2.7,15.3
					C55.1,29,58,29.8,58.4,27.9L58.4,27.9z"/>
			</g>
			<g>
				<path class="st1" d="M52.4,26.3c0.3-7-3.8-15.2-9.8-18.8c-1.7-1-3.2,1.6-1.5,2.6c5.1,3.1,8.6,10.3,8.3,16.3
					C49.3,28.2,52.3,28.2,52.4,26.3L52.4,26.3z"/>
			</g>
			<g>
				<path class="st1" d="M43.9,24.5c-1.8-5.4-6.9-11.2-12.6-12.6c-1.9-0.4-2.7,2.5-0.8,2.9c4.7,1.1,9,6,10.5,10.5
					C41.6,27.1,44.5,26.3,43.9,24.5L43.9,24.5z"/>
			</g>
			<g>
				<path class="st1" d="M29.2,23.8c-6.3-3.5-12-6.2-19.4-6c-0.8,0-1.6,0.7-1.5,1.5s0.3,1.2,1,1.7c1.6,1,3.1-1.6,1.5-2.6
					c0.2,0.3,0.3,0.6,0.5,0.9c-0.5,0.5-1,1-1.5,1.5c6.9-0.1,12,2.3,17.9,5.6C29.4,27.3,30.9,24.7,29.2,23.8L29.2,23.8z"/>
			</g>
		</g>
	</g>
</g>
</svg>
