<?xml version="1.0" encoding="utf-8"?>
<!-- Generator: Adobe Illustrator 19.2.0, SVG Export Plug-In . SVG Version: 6.00 Build 0)  -->
<svg version="1.1" id="Layer_1" xmlns="http://www.w3.org/2000/svg" xmlns:xlink="http://www.w3.org/1999/xlink" x="0px" y="0px"
	 viewBox="0 0 358 342.5" style="enable-background:new 0 0 358 342.5;" xml:space="preserve">
<style type="text/css">
	.st0{fill:#EFEFEF;}
	.st1{fill:#BBBBBC;}
	.st2{fill:#7A7B7B;}
</style>
<g>
	<path class="st0" d="M291.2,281.4c-1.9-7.8-2.2-16-2.5-23.9c-0.1-2.9-0.2-6-0.4-9c-0.6-9.5-3-19.2-7.4-30.5
		c-1.1-2.7-2.2-5.5-3.3-8.2c-5.8-14.3-11.9-29.1-11.2-44.7l0.2-4.5l-4.4,3.6c-10.9,8.8-22.9,16.4-35.7,22.7l-0.9-0.5l-1,0.7
		c-6.9,5.1-14.5,9.4-22.7,12.7c-13.6,5.5-25.7,8.4-36,8.4c-1.7,0-3.3-0.1-4.9-0.2c5.3-4.1,7.6-10.6,9.6-16.4l0.4-1.2
		c0.5-1.3,1.1-3.1,1.7-4.8l-3.3-2.1c-4.6,4.5-9.7,8.8-15.2,12.6c-2.2,1.5-4.4,3-6.6,4.4c-4.7,3.1-9.6,6.2-14,10
		c0.2-3.2,0.8-6.3,1.7-9.3l-3.3-2c-5.4,5.5-11.1,9.8-16.7,12.4c2.5-4.8,4.7-9.8,6.6-14.9l-3.2-2.2c-3.6,3.2-6.9,6.7-9.7,10.7
		c0.4-2.1,0.7-4.1,0.9-6.1c0.5-3.9,1-7.6,2.4-11.3c0.2-0.6,0.5-1.1,0.7-1.7l-3.2-2.3c-6.6,5.9-12.8,11.8-17,19
		c0.2-2.5-0.1-4.9-0.4-7.2c-0.2-1.8-0.4-3.4-0.5-5.2c-0.1-4.6,1.2-9.5,4.1-15.9l-3.2-2.2c-4.9,4.9-9.6,9.9-14,15l-1.4-0.5l-0.7,1.8
		c-2.1,5.3-4.4,10.6-6.6,15.8c-2.2,5.1-4.4,10.4-6.5,15.6c-5.9,15-8.2,31.6-6.6,48.5c-0.6-1.8-1.2-3.6-1.8-5.5
		c-8.4-25.7-17.1-52.2-14.5-79.1c1.2-12.8,4.1-25.1,8.6-36.5c4.6-11.8,9.8-20,16.2-25.8l0.8-0.2l0.4-0.8c8.2-15.2,20.9-26,35.7-30.3
		l0.4-0.1l0.3-0.3c10.4-9,23.6-15.7,39.2-20.1c12.8-3.5,23.5-5.3,32.9-5.3c5.8,0,11.1,0.7,15.7,2l0.5,0.4l0.7,0
		c5.3,0.1,11.1,1,17.4,2.7c10.3,2.8,22.9,7.3,29.1,16.7l0.4,0.6l0.7,0.2c5.6,1.5,11.2,4.1,16.7,7.8c10.2,6.9,16.4,13.8,18.2,20.3
		l0.2,0.9l0.8,0.4c20.9,9.9,34.4,34.7,36.2,66.5C313.7,217.5,301.8,251.4,291.2,281.4L291.2,281.4z"/>
	<g>
		<path class="st1" d="M80,186.5l-4.6,4.9L68,208.7l-2.9,8.3l-6.3,19.4l-2.4,18l0.4,14.1l-4.5-9.4l-5.3-20.4l-4.9-16.9l-2.1-17.8
			L40,178.3c0,0,2.9-12.5,4-16.7c7.2-26.5,19.6-38.5,19.6-38.5l11.2-15.6l7-6.9l9.9-6.8l5.8-2.7l-9.1,14.6l-4.4,9.7l7.7-6.7L86,121
			l14.3-10.3c0,0-10,7.2-14.3,22.5c7.9-7.3,18.4-9.8,18.4-9.8l-16.6,21.9c0,0-2,8-6.6,20.7C77.5,176,80,186.5,80,186.5z"/>
		<path class="st1" d="M275.9,116c0,0,4.1,14.3,4.7,22.7c0.8,11-14.8,25.1-14.8,25.1l1.4,17.4l6.3,20l6.5,14.6l4.9,15.5l2.8,16.8
			l0.7,16.6l3.2,15.9c0,0,1.9-4,2.2-4.9c0.3-0.9,6.4-20.5,6.4-20.5l6.3-20.7c0,0,4.7-25,4.8-25.7c0.1-0.8,1.3-24,1.1-24.6
			c-0.2-0.6-2.5-18.4-2.6-19c-0.1-0.5-4.6-15.3-4.6-15.3l-5.1-12.7l-9.5-11.5l-8.6-6.2L275.9,116z"/>
	</g>
	<g>
		<g>
			<path class="st2" d="M277.8,135.3c3.7,14.3-11.9,25-21.7,32.4c-9.5,7.2-19.8,13.3-30.5,18.5c-1.7,0.8-0.2,3.4,1.5,2.6
				c13-6.3,25.1-14,36.3-23c9.5-7.7,20.8-17.7,17.3-31.3C280.2,132.7,277.3,133.5,277.8,135.3L277.8,135.3z"/>
		</g>
		<g>
			<path class="st2" d="M248.4,158.8c-10.7,19.3-28.3,33.1-48.7,41c-12.2,4.7-26.9,8.8-40.1,7.2c0.3,0.9,0.5,1.9,0.8,2.8
				c11.6-7.8,11.7-25,19.4-35.9c1.1-1.6-1.5-3.1-2.6-1.5c-3.8,5.3-6,11.3-8.1,17.4c-2.2,6.4-4.4,13.4-10.2,17.4
				c-1.3,0.9-0.7,2.6,0.8,2.8c14.2,1.7,30-2.9,43-8.1c20.3-8.3,37.7-22.3,48.4-41.5C251.9,158.6,249.3,157.1,248.4,158.8
				L248.4,158.8z"/>
		</g>
		<g>
			<path class="st2" d="M175.9,174.9c-7,8.6-15.2,15.7-24.4,21.9c-6.6,4.5-13.5,8.5-19.5,13.9c0.9,0.4,1.7,0.7,2.6,1.1
				c0.3-10.4,4.8-19.9,12.5-26.8c1.4-1.3-0.7-3.4-2.1-2.1c-8.4,7.5-13.1,17.8-13.4,29c0,1.4,1.6,1.9,2.6,1.1
				c6.5-5.8,14.1-10.1,21.2-15c8.5-5.9,16.1-12.7,22.7-20.8C179.2,175.6,177.1,173.4,175.9,174.9L175.9,174.9z"/>
		</g>
		<g>
			<path class="st2" d="M140.1,187.8c-6.3,9.2-16,19.2-26.5,23.6c0.6,0.7,1.1,1.5,1.7,2.2c3.6-6.9,6.7-14.1,9.1-21.5
				c0.4-1.2-1.1-2.5-2.2-1.7c-6.2,4.6-11.4,10.1-15.8,16.5c0.9,0.4,1.8,0.8,2.7,1.2c1.4-5.7,1.2-11.6,2.9-17.3
				c3.9-12.4,13.2-21.9,23.6-29.3c1.6-1.1,0.1-3.7-1.5-2.6c-10.2,7.3-19.4,16.3-24,28.3c-2.5,6.6-2.2,13.4-3.9,20.1
				c-0.4,1.7,1.8,2.5,2.7,1.2c4.1-6,8.9-11.1,14.7-15.5c-0.7-0.6-1.5-1.1-2.2-1.7c-2.4,7.2-5.3,14.1-8.8,20.8
				c-0.5,1,0.4,2.8,1.7,2.2c11.2-4.7,21.5-15,28.3-25C143.8,187.7,141.2,186.2,140.1,187.8L140.1,187.8z"/>
		</g>
		<g>
			<path class="st2" d="M115.3,177.4c-8.7,8.1-19.5,16.4-24.9,27.3c0.9,0.4,1.8,0.8,2.7,1.2c1-4.8,0.1-8.8-0.4-13.6
				c-0.8-8.7,3.8-17.4,7.6-24.9c0.8-1.5-1.1-3-2.4-1.8c-7.1,6.8-13.9,13.8-20.4,21.3c0.8,0.5,1.7,1,2.5,1.5
				c2.9-10.8-0.4-22.1,7.1-31.6c1.2-1.5-0.9-3.6-2.1-2.1c-3.7,4.7-5.5,9.8-6.2,15.6c-0.7,5.7-0.1,11.7-1.6,17.3
				c-0.4,1.4,1.5,2.6,2.5,1.5c6.4-7.4,13.2-14.5,20.4-21.3c-0.8-0.6-1.6-1.2-2.4-1.8c-3.8,7.5-8.2,16-8.1,24.6
				c0.1,5,1.6,9.5,0.6,14.6c-0.3,1.6,1.9,2.8,2.7,1.2c5.3-10.6,15.9-18.8,24.4-26.7C118.9,178.2,116.8,176.1,115.3,177.4
				L115.3,177.4z"/>
		</g>
		<g>
			<path class="st2" d="M276.6,115.6c-2.2-9.3-11.7-17-19.2-22.1c-10.2-6.9-22.7-11.4-35-8.6c-1.9,0.4-1.1,3.3,0.8,2.9
				c11.5-2.7,23.2,1.8,32.7,8.3c6.8,4.6,15.8,11.8,17.8,20.3C274.2,118.2,277.1,117.4,276.6,115.6L276.6,115.6z"/>
		</g>
		<g>
			<path class="st2" d="M173.6,72.5c10.6-6.5,24.1-5,35.6-1.8c10.4,2.9,23.1,7.3,28.9,17c1,1.6,3.6,0.1,2.6-1.5
				c-6.3-10.4-19.5-15.2-30.7-18.3c-12.3-3.4-26.6-4.8-37.9,2.1C170.4,70.9,171.9,73.5,173.6,72.5L173.6,72.5z"/>
		</g>
		<g>
			<path class="st2" d="M191.5,64.7c-15.5-4.6-34.7-1-49.9,3.2c-21.6,6-42.3,17.7-54.4,37.2c-1,1.6,1.6,3.2,2.6,1.5
				c11.9-19.1,32.5-30.4,53.7-36.1c14.3-3.8,32.5-7.2,47.1-2.9C192.5,68.1,193.3,65.2,191.5,64.7L191.5,64.7z"/>
		</g>
		<g>
			<path class="st2" d="M101.7,88.3c-29.5,8.6-46.2,39.6-46.8,68.8c0,1.9,3,1.9,3,0c0.6-27.9,16.5-57.7,44.6-65.9
				C104.4,90.7,103.6,87.8,101.7,88.3L101.7,88.3z"/>
		</g>
		<g>
			<path class="st2" d="M264.6,161.6c-2,20.4,7.2,38.7,14.4,57.2c3.8,9.7,6.5,19.4,7.2,29.9c0.7,11.2,0.3,22.5,3.1,33.4
				c0.5,1.9,3.4,1.1,2.9-0.8c-2.8-11.3-2.2-22.9-3.1-34.4c-0.8-9.5-3.2-18.5-6.6-27.4c-7.2-18.7-16.9-37.2-14.9-57.8
				C267.8,159.7,264.8,159.7,264.6,161.6L264.6,161.6z"/>
		</g>
		<g>
			<path class="st2" d="M274.4,117.3c26.7,12.3,36.2,44.2,36.5,71.4c0.4,32.2-10.4,63.4-20.9,93.4c-0.6,1.8,2.3,2.6,2.9,0.8
				c11.2-31.9,22.8-65.4,20.8-99.7c-1.5-26.5-12-56.6-37.8-68.5C274.2,113.9,272.6,116.4,274.4,117.3L274.4,117.3z"/>
		</g>
		<g>
			<path class="st2" d="M64.1,120c-7.9,7.1-12.9,16.9-16.8,26.6c-4.6,11.8-7.5,24.4-8.7,37.1c-2.9,30.9,8.7,61.2,17.9,90.1
				c0.6,1.8,3.5,1,2.9-0.8c-8.9-27.8-20.2-56.9-18-86.6c0.9-12.1,3.5-24.2,7.6-35.7c3.7-10.4,8.9-21.1,17.2-28.6
				C67.6,120.8,65.5,118.7,64.1,120L64.1,120z"/>
		</g>
		<g>
			<path class="st2" d="M77.3,183.7c-4.8,12.8-10.7,25.3-15.6,38c-7,18.1-7.8,38-4.3,57c0.3,1.9,3.2,1.1,2.9-0.8
				c-3.5-19.3-2.1-39,5.1-57.3c4.8-12.1,10.4-23.9,14.9-36.1C80.9,182.7,78,181.9,77.3,183.7L77.3,183.7z"/>
		</g>
		<g>
			<path class="st2" d="M61.9,150.9c-1.3,5.8-1.4,11.7-0.5,17.6c0.3,1.9,3.2,1.1,2.9-0.8c-0.9-5.4-0.7-10.7,0.5-16
				C65.2,149.8,62.3,149,61.9,150.9L61.9,150.9z"/>
		</g>
		<g>
			<path class="st2" d="M66.4,157.6c-1.2,5.4-1.1,10.7,0.2,16.1c0.5,1.9,3.3,1.1,2.9-0.8c-1.2-4.8-1.2-9.6-0.2-14.5
				C69.7,156.5,66.9,155.7,66.4,157.6L66.4,157.6z"/>
		</g>
		<g>
			<path class="st2" d="M285.7,157.6c1.9,7.8-2.6,17.3-5,24.7c-0.6,1.8,2.3,2.6,2.9,0.8c2.7-8.1,7.1-17.7,5-26.3
				C288.1,155,285.2,155.8,285.7,157.6L285.7,157.6z"/>
		</g>
		<g>
			<path class="st2" d="M289.2,173.3c-0.7,5.6-3,10.6-6.7,14.8c-1.3,1.4,0.8,3.6,2.1,2.1c4.3-4.9,6.8-10.6,7.6-17
				C292.4,171.3,289.4,171.4,289.2,173.3L289.2,173.3z"/>
		</g>
		<g>
			<path class="st2" d="M297.4,196.1c-1.2,6.8-4.2,12.8-9,17.7c-1.3,1.4,0.8,3.5,2.1,2.1c5.1-5.3,8.5-11.8,9.8-19
				C300.6,195,297.7,194.2,297.4,196.1L297.4,196.1z"/>
		</g>
		<g>
			<path class="st2" d="M298.7,206.9c-0.9,4.5-3.6,8.1-7.7,10.2c-1.7,0.9-0.2,3.5,1.5,2.6c4.7-2.5,8-6.9,9-12
				C302,205.8,299.1,205,298.7,206.9L298.7,206.9z"/>
		</g>
		<g>
			<path class="st2" d="M289.6,251.6c3-10.1,10.9-19.3,18.8-25.9c1.5-1.2-0.6-3.3-2.1-2.1c-8.3,6.9-16.5,16.7-19.6,27.3
				C286.2,252.7,289.1,253.4,289.6,251.6L289.6,251.6z"/>
		</g>
		<g>
			<path class="st2" d="M290,259.4c1.5-4.5,4.2-11,8.8-13.1c1.7-0.8,0.2-3.4-1.5-2.6c-5.3,2.5-8.4,9.7-10.2,14.9
				C286.5,260.4,289.4,261.2,290,259.4L290,259.4z"/>
		</g>
		<g>
			<path class="st2" d="M273.6,118.3c2.1,1.9,3.5,4.3,4.2,7.1c0.5,1.9,3.4,1.1,2.9-0.8c-0.8-3.2-2.5-6.1-5-8.4
				C274.3,114.9,272.1,117,273.6,118.3L273.6,118.3z"/>
		</g>
		<g>
			<path class="st2" d="M61,183.7c0.2,4.8,1.4,9.4,3.5,13.8c0.8,1.7,3.4,0.2,2.6-1.5c-1.9-3.9-2.9-8-3.1-12.3
				C63.9,181.8,60.9,181.8,61,183.7L61,183.7z"/>
		</g>
		<g>
			<path class="st2" d="M54.2,183.2c-0.2,6,1.1,11.7,3.8,17c0.9,1.7,3.5,0.2,2.6-1.5c-2.5-4.9-3.6-10.1-3.4-15.5
				C57.3,181.3,54.3,181.3,54.2,183.2L54.2,183.2z"/>
		</g>
		<g>
			<path class="st2" d="M40.7,189.9c1,6.1,2.7,12.1,7.3,16.5c1.4,1.3,3.5-0.8,2.1-2.1c-4.2-4-5.6-9.6-6.5-15.2
				C43.3,187.2,40.4,188,40.7,189.9L40.7,189.9z"/>
		</g>
		<g>
			<path class="st2" d="M38.6,198.4c1.4,7.5,5,14.3,10.5,19.6c1.4,1.4,3.5-0.8,2.1-2.1c-5.1-5.1-8.4-11.2-9.7-18.3
				C41.1,195.7,38.2,196.5,38.6,198.4L38.6,198.4z"/>
		</g>
		<g>
			<path class="st2" d="M58,237.5c-3.6-3.7-9.3-5.8-11.1-11c-0.6-1.8-3.5-1-2.9,0.8c2.1,6,7.7,8.1,11.9,12.3
				C57.2,241.1,59.4,238.9,58,237.5L58,237.5z"/>
		</g>
		<g>
			<path class="st2" d="M46.5,238.4c1.7,3.4,4.5,6.2,8,7.8c1.7,0.8,3.3-1.8,1.5-2.6c-3.1-1.4-5.4-3.7-6.9-6.8
				C48.2,235.2,45.6,236.7,46.5,238.4L46.5,238.4z"/>
		</g>
		<g>
			<path class="st2" d="M144.4,88.5c4.2-3.4,9.4-4.9,14.7-4.6c1.9,0.1,1.9-2.9,0-3c-6.2-0.3-12,1.6-16.9,5.5
				C140.7,87.6,142.9,89.7,144.4,88.5L144.4,88.5z"/>
		</g>
		<g>
			<path class="st2" d="M148.6,79.8c3.1-1.4,6.4-1.8,9.7-1.4c1.9,0.2,1.9-2.8,0-3c-3.9-0.5-7.7,0.2-11.2,1.8
				C145.4,78,146.9,80.6,148.6,79.8L148.6,79.8z"/>
		</g>
		<g>
			<path class="st2" d="M258.1,123.6c0.8,5.2-0.6,10.1-3.6,14.3c-1.1,1.6,1.5,3.1,2.6,1.5c3.5-4.9,4.8-10.7,3.9-16.6
				C260.8,120.9,257.9,121.7,258.1,123.6L258.1,123.6z"/>
		</g>
		<g>
			<path class="st2" d="M261.6,114.2c1.3,4.8,1.8,9.6,1.5,14.6c-0.1,1.9,2.9,1.9,3,0c0.3-5.2-0.2-10.3-1.6-15.4
				C264,111.5,261.1,112.3,261.6,114.2L261.6,114.2z"/>
		</g>
		<g>
			<path class="st2" d="M199.3,97.3c0.7-1.1,4-1.8,5.2-2.3c1.9-0.7,3.9-1.4,5.9-2c1.8-0.6,1.1-3.5-0.8-2.9c-2.7,0.8-5.3,1.7-7.9,2.7
				c-1.8,0.7-3.9,1.2-5,2.9C195.7,97.4,198.3,98.9,199.3,97.3L199.3,97.3z"/>
		</g>
		<g>
			<path class="st2" d="M199,89.8c3.5-1.6,7.1-2.5,10.9-2.8c1.9-0.1,1.9-3.1,0-3c-4.3,0.3-8.5,1.4-12.4,3.2
				C195.7,88,197.2,90.6,199,89.8L199,89.8z"/>
		</g>
		<g>
			<path class="st2" d="M102.6,161.7c4.6-5.2,10.1-9.2,16.4-12c1.8-0.8,0.2-3.4-1.5-2.6c-6.5,2.9-12.3,7.1-17,12.5
				C99.2,161,101.3,163.2,102.6,161.7L102.6,161.7z"/>
		</g>
		<g>
			<path class="st2" d="M105.4,150.5c4.3-3.8,9.1-6.7,14.5-8.6c1.8-0.7,1-3.6-0.8-2.9c-5.9,2.1-11.2,5.3-15.9,9.4
				C101.9,149.7,104,151.8,105.4,150.5L105.4,150.5z"/>
		</g>
		<g>
			<path class="st2" d="M88,148c3.9-6.7,9.2-12.2,15.9-16.1c1.7-1,0.2-3.6-1.5-2.6c-7.1,4.2-12.9,10-17,17.2
				C84.5,148.2,87.1,149.7,88,148L88,148z"/>
		</g>
		<g>
			<path class="st2" d="M92.9,134.3c3.8-4.2,8.4-7.5,13.8-9.5c1.8-0.7,1-3.6-0.8-2.9c-5.8,2.2-10.9,5.6-15.1,10.2
				C89.4,133.6,91.6,135.8,92.9,134.3L92.9,134.3z"/>
		</g>
		<g>
			<path class="st2" d="M87,122.5c4-4.3,8.7-7.8,14-10.5c1.7-0.9,0.2-3.5-1.5-2.6c-5.5,2.8-10.4,6.5-14.6,11
				C83.6,121.8,85.7,123.9,87,122.5L87,122.5z"/>
		</g>
		<g>
			<path class="st2" d="M85.1,116.6c2.7-3.1,5.9-5.7,9.5-7.7c1.7-0.9,0.2-3.5-1.5-2.6c-3.8,2.1-7.2,4.9-10.1,8.2
				C81.7,115.9,83.9,118.1,85.1,116.6L85.1,116.6z"/>
		</g>
		<g>
			<path class="st2" d="M184.3,166.4c2.7-6.8,5.2-13.7,7.3-20.7c0.6-1.9-2.3-2.6-2.9-0.8c-2.1,7-4.6,13.9-7.3,20.7
				C180.7,167.4,183.6,168.2,184.3,166.4L184.3,166.4z"/>
		</g>
		<g>
			<path class="st2" d="M192.8,157.1c2.5-6.6,4.3-13.4,5.5-20.4c0.3-1.9-2.6-2.7-2.9-0.8c-1.2,7-3,13.8-5.5,20.4
				C189.2,158.1,192.1,158.9,192.8,157.1L192.8,157.1z"/>
		</g>
		<g>
			<path class="st2" d="M218.3,151.2c-2.2,6.4-5.6,12-10.4,16.8c-1.4,1.4,0.8,3.5,2.1,2.1c5.1-5.2,8.8-11.3,11.1-18.1
				C221.8,150.2,218.9,149.4,218.3,151.2L218.3,151.2z"/>
		</g>
		<g>
			<path class="st2" d="M222.7,152.6c-1.1,2.9-2.6,5.6-4.6,8c-1.2,1.5,0.9,3.6,2.1,2.1c2.3-2.8,4.1-5.9,5.4-9.3
				C226.3,151.6,223.4,150.8,222.7,152.6L222.7,152.6z"/>
		</g>
		<g>
			<path class="st2" d="M139,158.2c0,0,2-3,0-3S137,158.2,139,158.2C139,158.2,137,158.2,139,158.2z"/>
		</g>
		<g>
			<path class="st2" d="M145.1,155c4.1-2,8.1-4,12.2-6c1.7-0.9,0.2-3.5-1.5-2.6c-4,2.1-8.1,4.1-12.2,6
				C141.9,153.2,143.4,155.8,145.1,155L145.1,155z"/>
		</g>
	</g>
</g>
</svg>
