<?xml version="1.0" encoding="utf-8"?>
<!-- Generator: Adobe Illustrator 19.2.0, SVG Export Plug-In . SVG Version: 6.00 Build 0)  -->
<svg version="1.1" id="Layer_1" xmlns="http://www.w3.org/2000/svg" xmlns:xlink="http://www.w3.org/1999/xlink" x="0px" y="0px"
	 viewBox="0 0 358 342.5" style="enable-background:new 0 0 358 342.5;" xml:space="preserve">
<style type="text/css">
	.st0{fill:#F9BE72;}
	.st1{fill:#D88A3D;}
	.st2{fill:#9B581C;}
</style>
<g>
	<path class="st0" d="M290.2,305.2c-0.3-17.3-3.6-34.1-9.8-49.9l-0.4-1.1c-2.6-6.7-5-13-5-20.1c0-4.9,0.8-10,1.7-14.8
		c0.3-1.6,0.6-3.3,0.8-4.9c1.1-7.2,2-15.5-1.5-23.2c-3-6.6-9.1-13.9-15-17.9c-1.9-1.3-4-2.1-6.5-2.6l-0.3-0.1l-0.2,0l-0.2-0.1
		l-0.3,0c-1.3-0.2-2.8-0.3-4.4-0.3c-2.5,0-4.9,0.2-7.3,0.4c-1.6,0.1-3.2,0.3-4.6,0.4c-3,0.1-6.2,0.2-9.4,0.2
		c-4.2,0-8.5-0.1-13.2-0.3c-11-0.5-22.2-1.6-33-2.6c-15.2-1.5-30.9-3-46.4-3c-3.3,0-6.6,0.1-9.8,0.2l-1.4,0.1
		c-7.5,0.3-15.9,0.7-23.3,3.1l-0.1,0l-0.1,0.1l-0.1,0l-0.1,0c-7,2.5-12.1,8.2-16.1,12.8c-12.8,14.5-17.5,30-13.1,43.7
		c0.4,1.4,0.9,2.7,1.4,4c1.5,4.1,2.9,8,2.5,12.2l-0.1,0.6l0,0.2l-0.1,0.2l-0.1,0.3c-0.7,3.8-2.4,7.4-4.3,11.1
		c-0.7,1.5-1.5,3-2.1,4.5c-0.5,1.2-1,2.4-1.6,3.9l0,0.1l0,0.1l-0.1,0.1l-0.1,0.2c-4.9,12.6-7.4,26.2-7.4,40.2v0l0,0l0,0
		c-7.6-27.4-12.1-55.1-13.2-82.4c-0.5-12.6-0.7-29.1,2.8-44.2c3.9-16.7,11.6-28.2,23-34.2l1.2-0.7l-0.2-1.4
		c-1.7-12.7,0.6-26.9,6.4-39.8c4.5-9.9,15.2-26.8,27.2-26.8c1.9,0,3.8,0.4,5.7,1.3l1.3,0.6l1-1c7.2-7,16-12.4,25.4-15.6
		c4.2-1.4,12.4-3.8,20.5-3.8c6,0,10.8,1.3,14.4,3.7c0,0,0,0.1,0,0.1c-4.1,0.7-8,2.4-12.2,5.1l1.3,3.7c1.1-0.1,2.3-0.2,3.4-0.2
		c3.6,0,7.2,0.7,10.7,2l0.7,0.3l0.7-0.2c10.5-3.4,21.7-5.6,33.1-6.3c2.7-0.2,5-0.3,7.1-0.3c10.1,0,17.1,1.9,22,6c0,0-0.1,0-0.1,0
		c-0.7-0.1-1.4-0.2-2.1-0.2c-3.8,0-7,1.8-9.8,3.7l-6.1,4.2l7.4-0.5c1.8-0.1,3.6-0.2,5.6-0.2c5.5,0,11.1,0.5,16.4,0.9l3.6,0.3
		c9.6,0.8,20.5,1.6,28.2,6.4c-1.7-0.4-3.5-0.6-5.3-0.6c-4.9,0-10,1.5-15.6,4.7l-4.8,2.7l5.4,1c6.3,1.2,11.4,3,16,5.5c0,0,0,0-0.1,0
		c-2.5,0.2-5.3,1-7.4,2.3l-3.9,2.5l4.5,1.1c21.9,5.6,33.7,13.6,36.1,24.7c0,0,0,0.1,0,0.1l-0.3,0c-3.3,0-6.2,0.9-8.8,2.6l-2.6,1.7
		l2.7,1.6c4.6,2.8,8.3,6.6,10.9,11.5c0,0,0,0.1-0.1,0.1c-3,1-5.6,2.5-8.1,4.4l-2.1,1.6l2.1,1.6c2.3,1.7,3.9,4,5,6.8c0,0,0,0,0,0
		c-1.7-0.1-3.6-0.1-5.6-0.2l-5-0.1l3.5,3.5c5.5,5.5,8.6,15.4,9.3,22.8c1.5,17.3-1.9,35.5-5.2,53.1c-0.4,2.1-0.8,4.3-1.2,6.4
		c-0.5,2.8-1.1,5.6-1.6,8.5l0,0.1l0,0.1l0,0.1l0,0.1c-0.7,3.6-1.4,7.3-2.3,11.3l0,0.2l0,0.2l-0.1,0.2l0,0.2
		c-2.7,13.2-5.8,26.4-9,39.1l-0.2,0L290.2,305.2L290.2,305.2C290.2,305.2,290.2,305.2,290.2,305.2z"/>
	<g>
		<path class="st1" d="M134.2,117.5c5.6-20.6,19.9-37.4,40.3-47.4l2.5-1.2l-2.8-0.6c-2.2-0.5-4.4-0.8-6.6-0.8
			c-4.2,0-8.3,0.9-12.2,2.7l-0.2,0.1l-0.1,0c-0.1,0-0.1,0.1-0.2,0.1c-16.5,5.5-30.1,20.6-37.3,41.4c-3.7,10.7-8.8,31.7-1.2,51.4
			l0.3,0.7l0.7,0c4.2-0.3,8.4-0.3,12.4-0.3c1,0,5,0,5,0l-0.5-1.3C130,149.5,130,133.2,134.2,117.5z"/>
		<path class="st1" d="M79.2,183.9c-5.4-8.3-12-17.6-22.9-22l-0.9-0.4l-0.4,0.9c-0.9,2.1-1.8,4.4-2.6,6.8l-0.2,0.8l0.7,0.4
			c2.1,1.2,4.3,2.4,6.4,3.5c6.4,3.5,13,7,18,12.3l0.8,0.9l0.7-1c0.1-0.2,0.2-0.3,0.4-0.5l0.7-1l-0.6-0.6
			C79.3,184.1,79.2,184,79.2,183.9z"/>
		<path class="st1" d="M87.9,172.7c-0.7-0.7-1.2-1.5-1.6-2.6c-0.1-0.2,0-0.4,0.1-0.6c0.1-0.1,0.1-0.2,0.2-0.3
			c-0.9-1.4-1.7-2.8-3-3.7c-0.1,0-0.1,0-0.2,0c-0.4,0-0.7-0.2-0.9-0.5c-4.7-6.3-7.9-13.6-9.5-21.6l-0.3-1.4l-1.2,0.7
			c-6,3.6-11,8.9-14.7,16l-0.5,1l1,0.4c10.7,4.5,17.4,13.1,23.1,21.8l0.8,1.2l0.9-1.1c2.1-2.6,4.4-5,6.8-7.3l0.9-0.8l-1-0.7
			C88.4,173.1,88.1,172.9,87.9,172.7z"/>
		<path class="st1" d="M52.6,256l-1.7-0.9l0.3,1.9c0.6,3.9,1.2,7.8,1.9,11.5l0.1,0.5l0.5,0.2c1.5,0.6,3.1,1.1,4.7,1.6
			c1.1,0.3,2.3,0.7,3.4,1.1l1,0.4l0.3-1c0.8-2.7,1.7-5.5,2.7-8.3l0.3-0.9l-0.9-0.4C60.9,260,56.6,258.1,52.6,256z"/>
		<path class="st1" d="M49.4,232.5l-1.2-0.1l0.1,1.2c0.3,3.7,0.7,7.4,1.1,11.1l0.1,1l1-0.1c1.4-0.1,2.8-0.2,4.2-0.2
			c5.7,0,11.3,1.1,16.1,3.3l0.9,0.4l0.4-0.9c1-2.1,1.6-3.9,2-5.7l0.1-0.6l-0.5-0.4C67.3,236.3,58.8,233.2,49.4,232.5z"/>
		<path class="st1" d="M56.8,272.3c-0.5-0.2-1.1-0.3-1.6-0.5l-1.6-0.5l0.3,1.6c1.1,5.5,2.3,11.1,3.6,16.7l2-0.1
			c0.5-4.8,1.4-9.7,2.6-14.5l0.2-0.8l-0.8-0.3C59.9,273.2,58.3,272.8,56.8,272.3z"/>
		<path class="st1" d="M68.8,222.9l1.5,0.3l-0.3-1.5c-0.8-3.7-1.1-7.5-0.8-11.3l0.1-0.6l-0.5-0.3c-6.8-4.3-14-6.6-20.5-6.7l-1,0l0,1
			c-0.1,3.3-0.1,6.8,0,10.4l0,0.6l0.5,0.3C54.3,218.8,61.4,221.5,68.8,222.9z"/>
		<path class="st1" d="M305.3,219.9c-0.7,0-1.3,0.1-2,0.2c-1.3,0.2-2.6,0.4-4,0.6c-1.2,0.2-2.4,0.4-3.5,0.6l-1.4,0.2
			c-5.4,0.7-11,1.5-16.1,4.1c-0.1,0-0.2,0.1-0.3,0.1l-0.7,0.1l-0.1,0.7c-0.2,1.4-0.3,2.8-0.3,4.2l-0.1,1.4l1.4-0.4
			c2.5-0.8,5.2-1.4,7.8-1.9c0.9-0.2,1.8-0.4,2.7-0.6c0.1,0,0.2,0,0.3,0c0.6,0,1,0.6,1,1c0.1,0.5-0.2,0.8-0.6,0.9
			c-1,0.2-2.1,0.4-3.1,0.7c-2.9,0.6-5.9,1.2-8.7,2.3l-0.7,0.3l0,0.7l0,0.3c0,0.1,0,0.3,0,0.4c0.2,2.7,0.7,5.6,1.7,8.8l0.2,0.7l0.8,0
			l0.1,0c0.8,0.1,1.7,0.1,2.6,0.2c2.9,0.2,6.2,0.5,9.4,0.5c4.4,0,7.9-0.5,10.7-1.5c0.1,0,0.2-0.1,0.4-0.1h0.1l0.9,0.1l0.2-0.9
			c0.7-4.1,1.5-8.2,2.2-12.6l0.2-1.1l-1.7,0c-0.8,0-1.6,0-2.4,0.1l-0.1,0c-1.6,0.1-3.2,0.1-4.8,0.5c-0.1,0-0.2,0-0.3,0
			c-0.6,0-0.9-0.6-1-1c0-0.3,0-0.8,0.7-0.9c1.8-0.4,3.7-0.5,5.6-0.6l0.6,0c0.6,0,1.2-0.1,1.8-0.1c0.3,0,0.7,0,1,0l0.9,0.1l0.1-0.9
			c0.3-2,0.6-3.9,0.9-5.9l0.2-1.2l-1.3,0.1C306.1,219.8,305.7,219.9,305.3,219.9z"/>
		<path class="st1" d="M288,256.5c-1.2,0-2.4,0-3.5,0.1l-1.4,0.1l0.5,1.3c0.2,0.5,0.4,1,0.5,1.5c0.6,1.8,1.2,3.7,1.8,5.6l0.2,0.6
			l0.7,0.1c1.2,0.1,2.8,0.2,4.5,0.2c3.4,0,6-0.5,8.1-1.6l0.4-0.2l0.1-0.5c0.5-2.5,1-5,1.5-7.4l0.3-1.7l-1.6,0.5
			C296.3,256.3,292.3,256.4,288,256.5z"/>
		<path class="st1" d="M309,189.3c-4.3,2.1-9.2,3.2-13.9,4.2l-1.4,0.3c-0.8,0.2-1.5,0.4-2.3,0.5c-3.5,0.8-7.1,1.7-10.7,2l-1.1,0.1
			l0.2,1c0.3,1.9,0.4,3.9,0.3,6.1l0,1l1,0c0.3,0,0.6,0,0.9,0c4,0,8-0.7,11.8-1.5c6-1.2,11.7-2.5,16-5.8l0.4-0.3l0-0.5
			c0.1-2.2,0.2-4.4,0.1-6.4l0-1.6L309,189.3z"/>
		<path class="st1" d="M275.5,94.5c-3.8-1.5-7.9-2.6-13.1-3.5c-0.2,0.4-0.8,0.7-1.2,0.2c-0.2-0.2-0.3-0.3-0.6-0.5
			c-0.4-0.1-0.8-0.1-1.3-0.2c-0.2,0-0.4-0.1-0.5-0.5c0,0,0,0,0,0c-2.1-0.4-5-0.2-6.5-0.1c-2.4,0.1-4.9,0.2-7.3,0.8c0,0,0,0,0,0
			c0,0.5-0.2,0.7-0.6,0.7c-0.1,0-0.1,0-0.2,0c-1.7-0.2-3.3-0.3-5-0.3c-15.9,0-30.9,10.3-41.3,28.2c-4.7,8.1-15.1,28.9-10.4,46.9
			l0.2,0.7l0.7,0.1c2.3,0.2,4.5,0.4,6.8,0.6l1.2,0.1l-0.1-1.2c-1.2-12.7,1.8-30.3,11.1-38.9c0.2-0.2,0.4-0.3,0.7-0.3
			c0.4,0,0.9,0.3,1.1,0.8c0.1,0.3,0,0.6-0.2,0.9c-9,8.3-11.8,25.1-10.5,38l0.1,0.8l0.8,0.1c1.5,0.1,2.9,0.2,4.4,0.3l1.4,0.1
			l-0.4-1.4c0-0.1,0-0.2,0-0.3c-0.3-8.6,1.7-16.7,5.9-24.2c0.2-0.3,0.4-0.5,0.7-0.5c0.4,0,0.8,0.2,1,0.6c0.2,0.3,0.2,0.6,0,0.9
			c-4.1,7.2-6,15-5.6,23.3c0,0.1,0,0.3-0.1,0.4l-0.5,1.2l1.3,0.1c3.8,0.3,7.6,0.4,11.2,0.6l0.9,0l0.1-0.9
			c1.4-10.4,5.4-21.7,11.7-33.6c7.8-14.7,17.5-24.5,28.8-29.3c0.1-0.1,0.2-0.1,0.3-0.2c0.1,0,0.3-0.1,0.4-0.1
			c0.2-0.1,0.4-0.2,0.7-0.3c0.1-0.1,0.3-0.1,0.4-0.1c0,0,0,0,0,0c2.7-1,5.1-2.3,7.8-3c-0.1-0.1-0.1-0.2-0.1-0.2
			c-0.1-0.1-0.2-0.5,0-0.7c1.3-1.8,3.3-3.3,5.8-4.4l2.3-0.9L275.5,94.5z"/>
		<path class="st1" d="M309.6,144.2l1.1-0.5l-0.6-1c-2.9-4.4-6.6-7.8-11.4-10.2c-2.4-0.3-5.4-0.1-7.4,1c-0.2,0.1-0.3,0.1-0.4,0.1
			c-17.6,6.3-34.2,19.2-42.4,33.2l-0.9,1.5l1.7,0c1.8,0,3.3,0.1,4.8,0.3l0.4,0l0.3-0.2c11.3-7.4,26.2-11,45.4-11
			c1.7,0,3.6,0,5.4,0.1l1.9,0.1l-1-1.6c-1.3-1.9-3-3.5-5.2-4.7c-0.2-0.1-0.4-0.4-0.5-0.7c0-0.1,0-0.5,0.3-0.8
			C303.6,147.4,306.4,145.6,309.6,144.2z"/>
		<path class="st1" d="M307.6,173.1l-0.5-1.3c-0.2-0.5-0.4-0.9-0.6-1.4l-0.2-0.5l-0.6-0.1c-3.1-0.3-6.2-0.5-9.4-0.5
			c-9.8,0-19.8,1.6-28.9,4.7l-1.5,0.5l1.1,1.1c1.2,1.2,2.3,2.4,3.2,3.4c0.7,0.7,1.3,1.5,1.9,2.3l0.5,0.6l0.7-0.4
			c10.3-5.3,21.4-8.1,32.8-8.4L307.6,173.1z"/>
		<path class="st1" d="M291.3,267.9c-1,0-2,0-3.1-0.1l-1.4-0.1l0.4,1.4c2.1,7.8,3.5,15.8,4.3,24l2,0.1c1.3-5.6,2.6-11.3,3.9-17.1
			c0.6-2.6,1.1-5.2,1.7-7.8l0.3-1.6l-1.6,0.4C295.8,267.7,293.8,267.9,291.3,267.9z"/>
		<path class="st1" d="M303.1,167.6l2.1,0.2L304,166c-1.8-2.7-3.9-4.7-6.1-5.9c-0.1-0.1-0.2-0.1-0.3-0.2l-0.3-0.4l-0.5,0
			c-15.4,0.4-27.8,3.2-37.7,8.7l-1.8,1l1.8,0.8c1.5,0.7,3,1.6,4.5,2.8l0.5,0.4l0.5-0.2l0.1,0c9.7-3.6,20.5-5.6,31.3-5.6
			C298.5,167.3,300.8,167.4,303.1,167.6z"/>
		<path class="st1" d="M221.6,75.3l-12,3.8L191.8,86l-16,15.2l-12.8,23.6c0,0-3.7,21.2-3.7,21.7c0,0.5,2.3,18.7,2.3,18.7h-7.5
			c0,0-2.8-6.9-3.4-14.2c-1-12.7,2.3-40.4,21.3-58.4c27.6-26.2,51-24.1,63.7-26.1c4.3-0.7-6.3,6-6.3,6L221.6,75.3z"/>
		<path class="st1" d="M111,75.3c1.6-0.5-10.5,18.5-10.5,18.5s-6.8,20.5-6.9,20.9c-0.1,0.5-1.3,19.8-1.3,19.8
			c-0.4-1.6-1.7,7.1,0.8,16.7c1.1,4.2,6.1,16.5,6.1,16.5s-3.9,4-5,3c-7.1-6.2-11.5-27.2-9.8-42.5C87.2,102.8,99.6,79.1,111,75.3z"/>
	</g>
	<g>
		<g>
			<g>
				<path class="st2" d="M61,302.3c0-15.1,3-30.1,9.1-43.9c2.5-5.7,6-11.2,6.7-17.5c0.7-6.1-2.2-11.4-4-17
					c-4.9-15.4,2.7-30.4,12.7-41.8c4.4-5,9.2-10.2,15.7-12.3c7.6-2.5,16.3-2.8,24.3-3.1c29.8-1.3,59.3,4,89,5.4
					c7.6,0.4,15.2,0.5,22.7,0.1c7.3-0.3,16.2-2.4,22.7,1.9c5.7,3.8,11.5,10.9,14.3,17c3.1,7,2.5,14.7,1.4,22.1
					c-1,6.6-2.5,13.3-2.5,20.1c0,7.8,2.8,14.7,5.6,21.9c6.1,15.8,9.3,32.4,9.6,49.3c0,2.6,4,2.6,4,0c-0.3-15.4-2.8-30.7-7.9-45.2
					c-2.7-7.7-6.7-15.2-7.3-23.5c-0.5-7.5,1.3-14.9,2.4-22.2c0.9-6.1,1.5-12.4,0.1-18.5c-1.4-6.3-5.2-11.6-9.4-16.4
					c-4.7-5.2-9.2-9.9-16.5-10.8c-7.2-0.9-14.8,0.5-22.1,0.6c-33.3,0.5-66.2-6.3-99.5-5.9c-12.9,0.2-30-0.4-40.6,8.1
					c-10.5,8.4-20.1,21.1-23.1,34.4c-1.8,7.6-1.2,15.1,1.5,22.4c1.7,4.6,3.7,9.1,2.9,14.1c-0.7,4.2-2.8,7.9-4.6,11.7
					C60.7,268.5,57,285.2,57,302.3C57,304.8,61,304.8,61,302.3L61,302.3z"/>
			</g>
			<g>
				<path class="st2" d="M60.9,301.7c-7-25.1-11.4-51.2-13-77.3c-0.8-13.5-0.8-27.1,1.3-40.5c2.6-16.2,8.5-33.5,24-41.4
					c2.3-1.2,0.3-4.6-2-3.5c-27.7,14-28.7,53.8-27.6,80.7c1.2,27.9,5.8,56.1,13.3,83C57.7,305.3,61.6,304.2,60.9,301.7L60.9,301.7z"
					/>
			</g>
			<g>
				<path class="st2" d="M113.1,72.4c-16.1-8.2-30.7,14.4-36,26.2c-9.6,21.4-10.7,47.6,3.8,67.1c1.5,2,5,0,3.5-2
					c-13.1-17.5-12.9-40.7-5-60.4c3.3-8.2,8-16.3,14.6-22.3c4.4-4.1,11-8.2,17.1-5.1C113.4,77,115.4,73.5,113.1,72.4L113.1,72.4z"/>
			</g>
			<g>
				<path class="st2" d="M102,166.4c-3.7-4.4-5.2-10.2-6.9-15.6c-0.8-2.4-4.6-1.4-3.9,1.1c1.9,6.1,3.7,12.4,7.9,17.4
					C100.8,171.2,103.6,168.3,102,166.4L102,166.4z"/>
			</g>
			<g>
				<path class="st2" d="M94.5,136.9C93.7,114.1,99,90.6,116,74.4c11.1-10.6,26.3-17.3,41.6-17.9c5.3-0.2,11.4,0.1,15.9,3.2
					c0.2-1.2,0.3-2.4,0.5-3.7c-8.4,1.4-15,6.6-21.4,12c-1.9,1.6,0.4,4,2.3,3.1c7.5-3.5,16.1-3.5,23.1-0.3c0-1.3,0-2.6,0-3.9
					c-22,9.3-39,26.4-45.5,49.8c-4.2,15-4.9,33.3,1.1,48.1c1,2.3,4.9,1.3,3.9-1.1c-5.5-13.5-5-30.1-1.5-44
					c5.8-22.8,21.9-39.9,43.4-48.9c1.9-0.8,1.9-3.1,0-3.9c-8.6-3.6-17.9-3.2-26.3,0.7c0.8,1,1.6,2.1,2.4,3.1
					c5.9-4.9,11.8-9.7,19.6-11c1.9-0.3,1.7-2.8,0.5-3.7c-10-6.9-26.2-3.8-36.7-0.2c-18.2,6.2-33.1,19.7-40.9,37.2
					c-6.1,13.7-8,28.8-7.5,43.7C90.6,139.5,94.6,139.5,94.5,136.9L94.5,136.9z"/>
			</g>
			<g>
				<path class="st2" d="M117.1,163.7c-6.6-16.2-4.8-35.4,0.8-51.7c6.1-17.8,18.2-34.6,36.6-40.7c2.4-0.8,1.4-4.7-1.1-3.9
					c-19,6.3-31.8,23-38.6,41.3c-6.5,17.4-8.8,38.5-1.6,56C114.2,167.2,118.1,166.1,117.1,163.7L117.1,163.7z"/>
			</g>
			<g>
				<path class="st2" d="M179.5,70.5c9.7-3.2,19.9-5.2,30-6.1c9.6-0.8,22.6-1.7,30.5,5.1c0.6-1.1,1.3-2.2,1.9-3.3
					c-9.1-1.6-13.9,5.4-21.4,8.7c-2.3,1-0.3,4.5,2,3.5c6.1-2.7,11.1-9.6,18.4-8.3c1.8,0.3,3.6-1.9,1.9-3.3c-8.2-7-20.6-7.1-30.8-6.4
					c-11.4,0.7-22.9,2.9-33.7,6.4C176,67.5,177.1,71.3,179.5,70.5L179.5,70.5z"/>
			</g>
			<g>
				<path class="st2" d="M222.1,78.5c9.6-2.4,20.8-1.3,30.6-0.6c9.7,0.8,22.3,1.2,30.9,6.5c0.5-1.2,1-2.4,1.5-3.7
					c-9.9-2.3-19,1.7-27.1,7.1c-1.3,0.8-1.4,3.4,0.5,3.7c7.3,1,14.3,2.6,20.8,6.2c0.3-1.2,0.7-2.5,1-3.7c-4.6,0.3-9.5,2.3-12.2,6.1
					c-0.7,1,0,2.7,1.2,2.9c13.1,3.1,35,8.9,38.3,24.3c0.6-0.8,1.3-1.7,1.9-2.5c-5.1-0.1-9.4,1.6-13.1,5.2c-0.9,0.8-0.8,2.6,0.4,3.1
					c5.6,2.7,9.8,6.7,12.7,12.2c0.4-1,0.8-2,1.2-2.9c-4.3,1.5-7.9,3.7-11.2,6.7c-0.9,0.9-0.7,2.5,0.4,3.1c3,1.7,5,3.8,6.2,7
					c0.6-0.8,1.3-1.7,1.9-2.5c-18.6-0.9-39.3,0.6-55.2,11.3c-2.1,1.4-0.1,4.9,2,3.5c15.3-10.3,35.3-11.6,53.2-10.7
					c1.2,0.1,2.4-1.3,1.9-2.5c-1.6-4.2-4.1-7.3-8-9.4c0.1,1,0.3,2.1,0.4,3.1c2.8-2.6,5.8-4.4,9.5-5.7c1.2-0.4,1.8-1.7,1.2-2.9
					c-3.3-6-8-10.6-14.2-13.6c0.1,1,0.3,2.1,0.4,3.1c2.9-2.8,6.2-4.1,10.2-4c1.4,0,2.2-1.3,1.9-2.5c-3.7-17-26.5-23.6-41.1-27.1
					c0.4,1,0.8,2,1.2,2.9c1.8-2.6,5.8-3.9,8.7-4.1c1.9-0.1,2.8-2.7,1-3.7c-6.8-3.8-14.1-5.5-21.8-6.6c0.2,1.2,0.3,2.4,0.5,3.7
					c7.2-4.8,15.2-8.7,24-6.7c2.2,0.5,3.5-2.4,1.5-3.7c-8.9-5.5-21.5-6.1-31.7-7c-10.6-0.9-22.5-2-32.9,0.6
					C218.5,75.3,219.6,79.2,222.1,78.5L222.1,78.5z"/>
			</g>
			<g>
				<path class="st2" d="M209,77.2c-14.6,3.3-27.9,14.7-36.7,26.2c-13.8,18-17.8,40.4-12.6,62.3c0.6,2.5,4.4,1.4,3.9-1.1
					c-5-21.2-0.9-42.8,12.8-59.9c8.3-10.4,20.4-20.7,33.8-23.7C212.6,80.5,211.5,76.6,209,77.2L209,77.2z"/>
			</g>
			<g>
				<path class="st2" d="M243.4,88.4c-20.9-2.7-38,11.3-48.2,28.4c-8.5,14.3-16,34.8-10.9,51.5c0.8,2.5,4.6,1.4,3.9-1.1
					c-4.7-15.3,2.3-34.3,10-47.5c9.5-16.4,25.2-29.9,45.3-27.4C246,92.7,245.9,88.7,243.4,88.4L243.4,88.4z"/>
			</g>
			<g>
				<path class="st2" d="M198.9,168.7c-1.6-12,0.6-30.3,10-39c1.9-1.7-0.9-4.6-2.8-2.8c-10.3,9.4-12.9,28.8-11.2,41.8
					C195.2,171.2,199.2,171.3,198.9,168.7L198.9,168.7z"/>
			</g>
			<g>
				<path class="st2" d="M207,166.8c-0.3-8.1,1.5-15.7,5.5-22.8c1.3-2.2-2.2-4.3-3.5-2c-4.3,7.6-6.4,16-6.1,24.8
					C203.1,169.3,207.1,169.3,207,166.8L207,166.8z"/>
			</g>
			<g>
				<path class="st2" d="M221.9,169.2c1.5-10.7,5.5-21.3,10.3-30.9c6.4-12.7,15.6-25.4,29.3-30.6c2.4-0.9,1.3-4.8-1.1-3.9
					c-14,5.4-23.8,17.5-30.6,30.4c-5.5,10.4-10.2,22.2-11.8,34C217.7,170.7,221.5,171.8,221.9,169.2L221.9,169.2z"/>
			</g>
			<g>
				<path class="st2" d="M247.1,170.1c8.3-16.5,27.1-30.1,44.3-35.9c2.4-0.8,1.4-4.7-1.1-3.9c-18.1,6.2-38,20.3-46.7,37.8
					C242.5,170.4,245.9,172.4,247.1,170.1L247.1,170.1z"/>
			</g>
			<g>
				<path class="st2" d="M296.7,161c7.8,4.4,11.4,17,11.9,25.4c0.5,8.4-0.4,16.8-1.4,25.2c-2.6,21.7-6.9,43.1-11.6,64.4
					c-2.1,9.3-4.2,18.6-6.6,27.8c-0.6,2.5,3.2,3.6,3.9,1.1c5.1-19.9,9.4-40.1,13.2-60.3c3.6-19.3,8.2-40.3,6.4-60
					c-0.8-9.2-5.2-22.2-13.7-27C296.4,156.3,294.4,159.7,296.7,161L296.7,161z"/>
			</g>
		</g>
		<g>
			<path class="st2" d="M233.6,170.4c1-4.9,2.6-9.5,5-13.9c1.2-2.3-2.3-4.3-3.5-2c-2.5,4.7-4.3,9.7-5.4,14.9
				C229.3,171.9,233.1,172.9,233.6,170.4L233.6,170.4z"/>
		</g>
		<g>
			<path class="st2" d="M241.2,152c0.2-0.4,0.5-0.8,0.7-1.1c0.6-0.9,0.2-2.2-0.7-2.7c-1-0.5-2.1-0.2-2.7,0.7
				c-0.2,0.4-0.5,0.8-0.7,1.1c-0.6,0.9-0.2,2.2,0.7,2.7C239.5,153.2,240.6,152.9,241.2,152L241.2,152z"/>
		</g>
		<g>
			<path class="st2" d="M244.7,147.2c5.4-6.1,11.8-11.1,19.1-14.8c2.3-1.2,0.3-4.6-2-3.5c-7.6,3.9-14.3,9-19.9,15.4
				C240.1,146.3,243,149.2,244.7,147.2L244.7,147.2z"/>
		</g>
		<g>
			<path class="st2" d="M215.8,137.3c0.4-1.3,1-2.5,2-3.4c1.8-1.8-1-4.7-2.8-2.8c-1.4,1.5-2.5,3.2-3,5.2
				C211.3,138.7,215.1,139.8,215.8,137.3L215.8,137.3z"/>
		</g>
		<g>
			<path class="st2" d="M221,128.9c0.1-0.2,0.3-0.4,0.4-0.6c0.6-0.9,0.2-2.3-0.7-2.7c-1-0.5-2.1-0.2-2.7,0.7
				c-0.1,0.2-0.3,0.4-0.4,0.6c-0.6,0.9-0.2,2.3,0.7,2.7C219.3,130.1,220.4,129.8,221,128.9L221,128.9z"/>
		</g>
		<g>
			<path class="st2" d="M213.2,123.8c0-0.1,0-0.2,0-0.2c0-1-0.9-2-2-2c-1.1,0-2,0.9-2,2c0,0.1,0,0.2,0,0.2c0,1,0.9,2,2,2
				C212.2,125.7,213.2,124.9,213.2,123.8L213.2,123.8z"/>
		</g>
		<g>
			<path class="st2" d="M147.4,163c-1.8-6-2.5-12-2.1-18.2c0.2-2.6-3.8-2.6-4,0c-0.4,6.6,0.3,13,2.2,19.3
				C144.2,166.5,148.1,165.5,147.4,163L147.4,163z"/>
		</g>
		<g>
			<path class="st2" d="M155,163.4c-1.2-4.1-1.3-8.2-1.3-12.4c0-2.6-4-2.6-4,0c-0.1,4.7,0.1,9,1.4,13.5
				C151.8,167,155.6,165.9,155,163.4L155,163.4z"/>
		</g>
		<g>
			<path class="st2" d="M171.3,162.9c-1.4-6.8-1.6-13.6-0.5-20.4c0.4-2.5-3.4-3.6-3.9-1.1c-1.2,7.6-1.1,15.1,0.5,22.6
				C168,166.4,171.9,165.4,171.3,162.9L171.3,162.9z"/>
		</g>
		<g>
			<path class="st2" d="M178.6,165.3c-2.4-3.8-2-10-1.8-14.3c0.1-2.6-3.9-2.6-4,0c-0.2,5-0.4,11.9,2.3,16.3
				C176.5,169.5,180,167.5,178.6,165.3L178.6,165.3z"/>
		</g>
		<g>
			<path class="st2" d="M84.6,170.4c0.4,1.1,1,2.1,1.9,3c0.4,0.4,0.9,0.8,1.4,1c0.2,0.1,0.4,0.2,0.6,0.3c0.1,0,0.2,0.1,0.3,0.2
				c0.3,0.2,0.2,0.1-0.2-0.2c1.3,2.2,4.8,0.2,3.5-2c-0.6-1-1.6-1.2-2.5-1.8c-0.1,0-0.5-0.5-0.6-0.6c0,0-0.2-0.3-0.3-0.4
				c0-0.1-0.3-0.6-0.2-0.4c-0.4-1-1.3-1.7-2.5-1.4C85,168.2,84.2,169.4,84.6,170.4L84.6,170.4z"/>
		</g>
		<g>
			<path class="st2" d="M54.4,162.6c10.7,4,17.2,12.6,23.2,21.9c1.4,2.2,4.8,0.2,3.5-2c-6.6-10.2-13.8-19.3-25.5-23.8
				C53.1,157.8,52,161.7,54.4,162.6L54.4,162.6z"/>
		</g>
		<g>
			<path class="st2" d="M49.7,172.5c8.9,5.3,19.1,9.2,25.9,17.3c1.7,2,4.5-0.9,2.8-2.8c-7-8.3-17.6-12.5-26.7-17.9
				C49.5,167.8,47.5,171.2,49.7,172.5L49.7,172.5z"/>
		</g>
		<g>
			<path class="st2" d="M71.5,198.3c-2.8-0.9-5.4-2.2-8-3.7c-2.2-1.3-4.2,2.2-2,3.5c2.8,1.6,5.8,3.1,8.9,4.1
				C72.9,203,73.9,199.1,71.5,198.3L71.5,198.3z"/>
		</g>
		<g>
			<path class="st2" d="M46.3,189.9c2.9,2.3,6.1,4.2,9.7,5.1c2.5,0.6,3.6-3.2,1.1-3.9c-2.9-0.7-5.6-2.2-8-4.1
				C47.1,185.6,44.3,188.4,46.3,189.9L46.3,189.9z"/>
		</g>
		<g>
			<path class="st2" d="M46.2,203.9c7.6-0.3,15.6,2.8,21.8,6.9c2.2,1.4,4.2-2.1,2-3.5c-6.8-4.4-15.6-7.8-23.9-7.4
				C43.7,200,43.7,204,46.2,203.9L46.2,203.9z"/>
		</g>
		<g>
			<path class="st2" d="M44.5,217.1c7.7,4.6,16,7.7,24.9,9.1c2.5,0.4,3.6-3.4,1.1-3.9c-8.6-1.4-16.5-4.3-24-8.7
				C44.3,212.3,42.3,215.8,44.5,217.1L44.5,217.1z"/>
		</g>
		<g>
			<path class="st2" d="M47.5,233.5c9.3,0.5,18.6,3.5,25.7,9.5c2,1.6,4.8-1.2,2.8-2.8c-8-6.7-18.2-10.1-28.6-10.7
				C45,229.3,45,233.3,47.5,233.5L47.5,233.5z"/>
		</g>
		<g>
			<path class="st2" d="M48.4,248.8c7-0.9,14.7-0.2,21.1,2.9c2.3,1.1,4.3-2.3,2-3.5c-7.1-3.4-15.4-4.5-23.2-3.5
				C45.9,245.1,45.9,249.1,48.4,248.8L48.4,248.8z"/>
		</g>
		<g>
			<path class="st2" d="M49,255.7c5.5,2.9,11.2,5.5,17.1,7.7c2.4,0.9,3.4-2.9,1.1-3.9c-5.5-2.1-10.9-4.6-16.1-7.3
				C48.7,251,46.7,254.5,49,255.7L49,255.7z"/>
		</g>
		<g>
			<path class="st2" d="M50.6,271.5c3.4,1.5,7,2.1,10.4,3.6c2.3,1,4.4-2.4,2-3.5c-3.4-1.5-7-2.1-10.4-3.6
				C50.3,267,48.2,270.5,50.6,271.5L50.6,271.5z"/>
		</g>
		<g>
			<path class="st2" d="M264.7,175.8c12.8-4.8,27.3-6.5,40.9-4.9c2.6,0.3,2.5-3.7,0-4c-13.8-1.6-28.9,0.1-41.9,5.1
				C261.3,172.9,262.3,176.7,264.7,175.8L264.7,175.8z"/>
		</g>
		<g>
			<path class="st2" d="M273.1,184.7c10.9-5.8,22.7-8.7,35-8.6c2.6,0,2.6-4,0-4c-13-0.1-25.6,3-37,9.1
				C268.8,182.4,270.8,185.9,273.1,184.7L273.1,184.7z"/>
		</g>
		<g>
			<path class="st2" d="M278.8,197.4c4.8-0.3,9.7-1.6,14.3-2.6c5.9-1.3,12.5-2.6,17.8-5.8c2.2-1.3,0.2-4.8-2-3.5
				c-5,3-11.2,4.2-16.8,5.4c-4.3,1-8.8,2.2-13.2,2.5C276.3,193.5,276.2,197.5,278.8,197.4L278.8,197.4z"/>
		</g>
		<g>
			<path class="st2" d="M279.3,207.6c5.2,0.4,10.8-0.7,15.8-1.8c5.8-1.2,11.9-2.9,16.6-6.7c2-1.6-0.8-4.4-2.8-2.8
				c-4.3,3.6-10.7,4.9-16,5.9c-4.4,0.9-9.1,1.7-13.6,1.4C276.8,203.4,276.8,207.4,279.3,207.6L279.3,207.6z"/>
		</g>
		<g>
			<path class="st2" d="M277.9,226.4c5.2-2.6,10.9-3.3,16.6-4.1c2.6-0.4,5.2-0.8,7.8-1.2c2-0.3,4.2,0,6-0.9c1.3-0.6,1.1-2.3,0.4-3.1
				c0,0-0.1-0.1-0.1-0.1c-0.5-0.6-1.8-0.8-2.4-0.3c0,0-0.1,0-0.1,0.1c-2,1.5-0.1,5,2,3.5c0,0,0.1,0,0.1-0.1
				c-0.8-0.1-1.6-0.2-2.4-0.3c0,0,0.1,0.1,0.1,0.1c0.1-1,0.3-2.1,0.4-3.1c-1.6,0.7-4.6,0.4-6.4,0.7c-3,0.5-5.9,0.9-8.9,1.3
				c-5.3,0.7-10.3,1.8-15.1,4.2C273.6,224.1,275.6,227.6,277.9,226.4L277.9,226.4z"/>
		</g>
		<g>
			<path class="st2" d="M276.1,235.2c4-1.7,8.4-2.3,12.6-3.2c2.5-0.6,1.4-4.4-1.1-3.9c-4.6,1-9.2,1.8-13.5,3.6
				C271.8,232.8,273.8,236.2,276.1,235.2L276.1,235.2z"/>
		</g>
		<g>
			<path class="st2" d="M296.7,231.3c1.5-0.4,3.2-0.4,4.7-0.5c0.8,0,1.7-0.1,2.5-0.1c0.3,0,0.5,0,0.8,0c0.2,0,0.9,0.1,0.3,0
				c2.5,0.6,3.6-3.3,1.1-3.9c-1.5-0.3-3.2-0.2-4.7-0.1c-1.9,0.1-3.9,0.2-5.8,0.6C293.1,228,294.2,231.8,296.7,231.3L296.7,231.3z"/>
		</g>
		<g>
			<path class="st2" d="M279,248.1c7.2,0.5,16.5,1.5,23.4-0.9c2.4-0.8,1.4-4.7-1.1-3.9c-6.6,2.3-15.5,1.2-22.4,0.7
				C276.4,244,276.4,248,279,248.1L279,248.1z"/>
		</g>
		<g>
			<path class="st2" d="M281.8,257.7c7.4-0.5,14.9,0.5,21.6-3.3c2.2-1.3,0.2-4.7-2-3.5c-6,3.4-13,2.2-19.5,2.7
				C279.3,253.9,279.3,257.9,281.8,257.7L281.8,257.7z"/>
		</g>
		<g>
			<path class="st2" d="M285.6,268.7c4.9,0.5,11.2,0.6,15.5-2.3c2.1-1.4,0.1-4.9-2-3.5c-3.7,2.5-9.2,2.1-13.5,1.7
				C283,264.4,283.1,268.4,285.6,268.7L285.6,268.7z"/>
		</g>
		<g>
			<path class="st2" d="M292.3,277.3c2.6,0,2.6-4,0-4C289.7,273.3,289.7,277.3,292.3,277.3L292.3,277.3z"/>
		</g>
	</g>
</g>
</svg>
