<?xml version="1.0" encoding="utf-8"?>
<!-- Generator: Adobe Illustrator 19.2.0, SVG Export Plug-In . SVG Version: 6.00 Build 0)  -->
<svg version="1.1" id="Layer_1" xmlns="http://www.w3.org/2000/svg" xmlns:xlink="http://www.w3.org/1999/xlink" x="0px" y="0px"
	 viewBox="0 0 178.8 36.7" style="enable-background:new 0 0 178.8 36.7;" xml:space="preserve">
<style type="text/css">
	.st0{fill:#2E3438;}
	.st1{fill:#1A1E21;}
</style>
<g>
	<g>
		<path class="st0" d="M67.5,30c1.8-1.2,7-10.9,5.1-13.8C69.1,10.9,52,10,45,11.9C44.5,12,43.7,15,43.6,17c-4.8-0.8-17.4-1.1-22.5,0
			l0,0c1.1,0.9,1.8,1.9,2.1,2.1C16.5,20.5,8.9,22.4,4,22.9C20.4,26.9,47.1,30,67.5,30z"/>
		<path class="st0" d="M111.5,30c-1.8-1.2-7-10.9-5.1-13.8c3.5-5.3,20.6-6.3,27.6-4.4c0.5,0.1,1.3,3.1,1.4,5.1
			c4.8-0.8,17.4-1.1,22.5,0l0,0c-1.1,0.9-1.8,1.9-2.1,2.1c6.6,1.3,14.3,3.2,19.2,3.7C158.6,26.9,131.9,30,111.5,30z"/>
	</g>
	<g>
		<g>
			<g>
				<path class="st1" d="M68.6,31.1c3-2.6,5.4-8,5.8-11.9c0.5-4.3-2.7-6.4-6.4-7.7c-5.6-2-12.2-2.4-18.2-1.9
					c-5.7,0.5-7.1,1.5-7.7,7.4c0.6-0.5,1.3-1,1.9-1.4c-7.5-1.1-15.8-1.4-23.3,0c-0.8,0.2-1.2,1.1-1,1.8c0.3,1,1.8,2.1,2.5,2.8
					c0.2-0.8,0.4-1.7,0.7-2.5C16.5,19,10.3,20.6,4,21.4c-1.5,0.2-2.2,2.6-0.4,2.9c12.9,2.8,25.9,5,39,6.5c5.5,0.7,11.1,1.2,16.7,1.4
					c2.8,0.1,6.1,0.4,8.7-0.7c1.8-0.7,1-3.6-0.8-2.9c-2.7,1.1-6.1,0.7-8.9,0.6c-5.2-0.2-10.5-0.7-15.7-1.4
					C29.7,26.3,17,24.2,4.4,21.4c-0.1,1-0.3,2-0.4,2.9c6.6-0.7,13.1-2.4,19.6-3.8c1.1-0.2,1.4-1.8,0.7-2.5c-0.2-0.2-1.7-1.4-1.8-1.5
					c-0.3,0.6-0.7,1.2-1,1.8c6.9-1.4,14.8-1,21.7,0c1,0.1,1.8-0.4,1.9-1.4c0.3-2.6,0.4-3.6,2.9-4.2c1.7-0.4,3.6-0.3,5.4-0.4
					c3.9,0,8,0.3,11.8,1.3c3.7,1,7.1,2.2,6,6.5c-0.7,2.8-2.4,6.8-4.6,8.7C65,30.2,67.1,32.3,68.6,31.1z"/>
			</g>
			<g>
				<path class="st1" d="M57.7,12.6c3.8,3.6,5.1,11.9,4.5,16.9c-0.2,1.9,2.8,1.9,3,0c0.6-5.8-1-14.8-5.4-19
					C58.4,9.2,56.3,11.3,57.7,12.6L57.7,12.6z"/>
			</g>
			<g>
				<path class="st1" d="M47.3,14.1c3.9,4.2,6.2,9.4,6.8,15.1c0.2,1.9,3.2,1.9,3,0c-0.7-6.5-3.3-12.3-7.7-17.2
					C48.2,10.5,46,12.6,47.3,14.1L47.3,14.1z"/>
			</g>
			<g>
				<path class="st1" d="M41,18.4c2.8,2.3,4.1,6.7,4.5,10.2c0.2,1.9,3.2,1.9,3,0c-0.5-4.3-1.9-9.5-5.4-12.3
					C41.7,15.1,39.5,17.2,41,18.4L41,18.4z"/>
			</g>
			<g>
				<path class="st1" d="M29.7,17.5c1.5,1.5,2.5,3.2,3,5.3c0.2,0.8,0.4,1.5,0.5,2.3c0.1,0.6,0.7,2.2,0.6,2.8
					c0.7-0.3,1.5-0.6,2.2-0.9h-0.1c0.2,0.7,0.4,1.4,0.5,2.1c0,0,0,0,0-0.1c0.9-1.7-1.7-3.2-2.6-1.5c0,0,0,0,0,0.1
					c-0.4,0.7-0.2,1.6,0.5,2.1h0.1c0.8,0.5,2,0.1,2.2-0.9c0.5-2-0.7-5.1-1.3-7.1c-0.7-2.4-1.9-4.4-3.7-6.2
					C30.5,14,28.4,16.1,29.7,17.5L29.7,17.5z"/>
			</g>
			<g>
				<path class="st1" d="M21.9,20.5c1.8,1.9,2.9,4.2,3.2,6.8c0.2,1.9,3.2,1.9,3,0c-0.4-3.4-1.7-6.4-4.1-8.9
					C22.7,17,20.6,19.1,21.9,20.5L21.9,20.5z"/>
			</g>
		</g>
		<g>
			<g>
				<path class="st1" d="M112.5,29c-2.2-1.9-3.7-5.6-4.5-8.2c-1.3-4.6,2-6,5.9-7c3.6-1,7.4-1.3,11.2-1.3c1.7,0,3.5,0,5.2,0.2
					c3.1,0.4,3.3,1,3.7,4.3c0.1,1.1,0.9,1.6,1.9,1.4c6.9-1,14.8-1.3,21.7,0c-0.3-0.6-0.7-1.2-1-1.8c0,0-1.6,1.3-1.8,1.5
					c-0.8,0.8-0.5,2.3,0.7,2.5c6.5,1.3,13,3,19.6,3.8c-0.1-1-0.3-2-0.4-2.9c-12.6,2.8-25.4,4.9-38.2,6.4c-5.2,0.6-10.4,1.2-15.7,1.4
					c-2.8,0.1-6.3,0.5-8.9-0.6c-1.8-0.7-2.6,2.2-0.8,2.9c2.6,1.1,6,0.8,8.7,0.7c5.6-0.2,11.1-0.7,16.7-1.4c13.1-1.5,26.1-3.7,39-6.5
					c1.8-0.4,1.2-2.8-0.4-2.9c-6.3-0.7-12.6-2.4-18.8-3.6c0.2,0.8,0.4,1.7,0.7,2.5c0.8-0.8,2.3-1.7,2.5-2.8c0.2-0.7-0.2-1.7-1-1.8
					c-7.5-1.5-15.8-1.1-23.3,0c0.6,0.5,1.3,1,1.9,1.4c-0.7-5.9-2.1-6.9-7.7-7.4c-5.9-0.5-12.5-0.1-18.2,1.9
					c-3.7,1.3-6.9,3.4-6.4,7.7c0.4,3.9,2.8,9.3,5.8,11.9C111.8,32.3,114,30.2,112.5,29z"/>
			</g>
			<g>
				<path class="st1" d="M119.1,10.5c-4.4,4.2-6,13.2-5.4,19c0.2,1.9,3.2,1.9,3,0c-0.6-5,0.7-13.3,4.5-16.9
					C122.7,11.3,120.5,9.2,119.1,10.5L119.1,10.5z"/>
			</g>
			<g>
				<path class="st1" d="M129.5,11.9c-4.4,4.9-7,10.7-7.7,17.2c-0.2,1.9,2.8,1.9,3,0c0.6-5.7,3-10.9,6.8-15.1
					C132.9,12.6,130.8,10.5,129.5,11.9L129.5,11.9z"/>
			</g>
			<g>
				<path class="st1" d="M135.8,16.3c-3.5,2.8-4.9,8.1-5.4,12.3c-0.2,1.9,2.8,1.9,3,0c0.4-3.5,1.7-7.9,4.5-10.2
					C139.4,17.2,137.3,15.1,135.8,16.3L135.8,16.3z"/>
			</g>
			<g>
				<path class="st1" d="M147.1,15.4c-1.7,1.8-3,3.8-3.7,6.2c-0.6,1.9-1.7,5.1-1.3,7.1c0.2,1,1.4,1.4,2.2,0.9h0.1
					c0.7-0.4,0.9-1.3,0.5-2.1c0,0,0,0,0-0.1c-0.9-1.7-3.5-0.2-2.6,1.5c0,0,0,0,0,0.1c0.2-0.7,0.4-1.4,0.5-2.1h-0.1
					c0.7,0.3,1.5,0.6,2.2,0.9c-0.1-0.6,0.5-2.1,0.6-2.8c0.2-0.8,0.3-1.6,0.5-2.3c0.6-2,1.5-3.8,3-5.3
					C150.6,16.1,148.5,14,147.1,15.4L147.1,15.4z"/>
			</g>
			<g>
				<path class="st1" d="M154.9,18.3c-2.4,2.5-3.7,5.5-4.1,8.9c-0.2,1.9,2.8,1.9,3,0c0.3-2.6,1.4-4.9,3.2-6.8
					C158.4,19.1,156.3,17,154.9,18.3L154.9,18.3z"/>
			</g>
		</g>
	</g>
</g>
</svg>
