<?xml version="1.0" encoding="utf-8"?>
<!-- Generator: Adobe Illustrator 19.2.0, SVG Export Plug-In . SVG Version: 6.00 Build 0)  -->
<svg version="1.1" id="Layer_1" xmlns="http://www.w3.org/2000/svg" xmlns:xlink="http://www.w3.org/1999/xlink" x="0px" y="0px"
	 viewBox="0 0 630 410" style="enable-background:new 0 0 630 410;" xml:space="preserve">
<style type="text/css">
	.st0{fill:#433947;}
	.st1{fill:#231e26;}
	.st2{fill:#0f0814;}
</style>
<g>
	<g>
		<path class="st0" d="M396.8,100.4c-0.2,28-2.8,55.8-5.7,83.6c0.2,0.4,0.5,0.7,0.5,1.1c-1.2,12.8-5.4,55.7-5.4,56.4
			c-1.2,10.6-2.1,20.8-2.1,31.5c-0.1,13-2.3,31-2.6,31.7c-0.1,4.7-0.6,3-0.6,7.7c0,4.9-1.1,8-1,12.9c-2.2,2.8-0.7,9.1-0.7,9.3
			c0.1,0.6-0.7,6.6-0.6,7.2c0.3,1.9-1,7.6-0.7,9.5c0.7,4.9,0.1,10.4-0.4,15.1C527.4,354.1,602,303.9,602,303.9l-9.2-36.1
			c0,0-5.3-22.1-5.4-22.8c-0.1-0.7-7.4-27.3-7.4-27.3l-5.8-8.6L553,195.7l-19-10.2L510.4,173l-14.2-7.4l-15.5-7.8l-7.6-3.4l5.2-29.6
			l-26.6-5.2l-12.7-1.3l14.2-28.7l-25.4-17.9L399.6,52l-3.2,23.5l1.3,24.8L396.8,100.4z"/>
		<path class="st0" d="M241.3,318c-2.4-43.9-4.2-87.9-6.2-131.8c-1.9-41.1-11.4-82.3-7.3-123.5l-3.2-4.5l-8.7,8.7l-26.7,32l7,22.7
			l-11.4,4.2l-19.4,8.1l-0.1,15.1l-40.6,18l-41.2,22.9L70.4,198l-15.3,10l-6,4c0,0-5.2,9.9-5.8,11.6s-7.5,18.4-7.7,19.6
			c-0.2,1.2-11.8,41-11.8,41s-4.6,20.7-4.8,22.6c0,0,91.7,52.7,227.3,63.1C243.5,352.8,242.2,335.3,241.3,318z"/>
	</g>
	<g>
		<path class="st1" d="M416.5,362l50.4-192.5c0,0,27.9,9.4,30.6,15c3.7,7.9-68.7,175.5-68.7,175.5L416.5,362z"/>
		<polygon class="st1" points="468.1,174.1 485.8,160.4 473.1,154.5 466.8,169.5 		"/>
		<path class="st1" d="M221.3,368L194,274.3l-18.3-72l-6.4-32.8c0,0-23.4,8.9-25,12.5s35,133.7,65.2,184
			C211,368.3,221.3,368,221.3,368z"/>
		<polygon class="st1" points="164.6,175 148.2,158.8 165.1,149.1 170.3,174.7 		"/>
		<path class="st1" d="M205.5,79.2c0,0,18.4,4.2,20.7,11.7c2.3,7.6,0.4-33,0.4-33h-4.9L205.5,79.2z"/>
		<path class="st1" d="M397,91.9c0-5.6,23-24.8,28.5-22c5.5,2.8-3-2.9-3-2.9l-24-15.5L397,69V91.9z"/>
	</g>
	<g>
		<g>
			<path class="st2" d="M396,51.5c-0.3,39.5-4,79.2-6.7,118.6c-3.5,49.8-7.3,99.7-11.1,149.5c-1.2,15.6-2.5,31.2-3.4,46.8
				c-0.2,2.6,3.8,2.6,4,0c2.1-35.7,5.3-71.4,7.9-107.1c3.8-50.9,7.7-101.8,10.8-152.7c1.1-18.3,2.4-36.7,2.5-55.1
				C400,48.9,396,48.9,396,51.5L396,51.5z"/>
		</g>
		<g>
			<path class="st2" d="M398.6,53.7c14.3,9.8,29.3,18.6,42.8,29.4c2.5,2,5.5,4.1,7.4,6.6c1.8,2.4,0.4,4.6-0.9,7.3
				c-3.2,7-7.3,13.5-10.7,20.3c-0.7,1.5,0.2,2.8,1.7,3c10.3,1.3,20.7,2.2,30.8,4.6c0.5,0.1,7.3,2.2,6,0.2c0.1,0.1,0,0.3,0,0.3
				c-0.1-0.2-0.1,0.4-0.2,0.9c-0.7,4-1.8,8-2.8,12c-4,16.4-8.4,32.6-12.7,48.9c-11.4,43-23,85.9-34.3,128.8
				c-4,15.2-8.2,30.4-11.8,45.7c-0.6,2.5,3.3,3.6,3.9,1.1c7.4-31.7,16.3-63,24.7-94.4c10.4-38.9,20.9-77.8,30.9-116.9
				c1.6-6.2,3.2-12.4,4.6-18.7c0.6-2.5,1.9-5.9,1.4-8.5c-0.1-0.7-0.8-1.2-1.4-1.4c-12.8-3.8-26.1-5-39.3-6.7c0.6,1,1.2,2,1.7,3
				c3.8-7.5,8.4-14.6,11.7-22.5c0.8-2,2.2-4.9,1.5-7.2c-0.9-2.6-4.2-5-6.2-6.7c-14.4-12.5-31.3-22-47-32.8
				C398.5,48.8,396.5,52.2,398.6,53.7L398.6,53.7z"/>
		</g>
		<g>
			<path class="st2" d="M472.5,156.5c9.1,2.8,17.9,8.5,26.3,12.8c14.4,7.5,28.8,15.1,43.1,22.8c10.1,5.4,20.3,10.8,30.3,16.4
				c0.8,0.4,1.8,0.8,2.5,1.4c0.2,0.1-0.6-0.9-0.1,0.2c0.4,0.7,0.6,1.4,0.9,2.2c2.5,6.6,4.5,13.5,6.4,20.2
				c7,23.8,13.2,48.1,16.8,72.7c0.4,2.5,4.2,1.5,3.9-1.1c-3.4-23-9.1-45.7-15.5-68c-2.2-7.6-4.4-15.2-7-22.7
				c-0.9-2.6-1.5-5.5-3.8-7.2c-2.8-2.1-6.4-3.5-9.4-5.2c-5.7-3.1-11.4-6.2-17.1-9.2c-14.6-7.9-29.3-15.7-44-23.3
				c-7-3.6-14-7.3-21.1-10.8c-3.6-1.8-7.4-3.9-11.3-5.1C471.1,151.9,470.1,155.7,472.5,156.5L472.5,156.5z"/>
		</g>
		<g>
			<path class="st2" d="M572.3,208.5c-4.3,12.6-6.1,26.4-8.5,39.5c-3.6,19.3-7,38.6-10.3,58c-1.3,7.6-2.6,15.2-3.7,22.8
				c-0.4,2.5,3.5,3.6,3.9,1.1c5.3-34.3,11.3-68.6,18.3-102.6c1.2-5.9,2.3-11.9,4.2-17.6C577,207.1,573.1,206.1,572.3,208.5
				L572.3,208.5z"/>
		</g>
		<g>
			<path class="st2" d="M433.8,167.5c7.4,1.5,14.8,2,22.4,1.6c2.6-0.2,2.6-4.2,0-4c-7.2,0.4-14.2,0-21.3-1.4
				C432.3,163.1,431.2,167,433.8,167.5L433.8,167.5z"/>
		</g>
		<g>
			<path class="st2" d="M224.6,58.5c0.4,39.7,4.4,79.4,7.1,119c2.8,40.7,5.5,81.3,8.2,122c1.5,23.1,3.1,46.3,4.6,69.4
				c0.2,2.6,4.2,2.6,4,0c-5.3-81.3-10.9-162.7-16.4-244c-1.5-22.1-3.2-44.2-3.5-66.4C228.6,55.9,224.6,55.9,224.6,58.5L224.6,58.5z"
				/>
		</g>
		<g>
			<path class="st2" d="M223.7,56.2c-4.9,5-10.1,9.7-14.6,15c-4.3,5.2-8.2,10.7-12.6,15.8c-2.2,2.6-4.5,5-6.9,7.4
				c-1.9,1.9-2,2.2-1.5,4.9c1.2,7.5,3.8,14.8,5.7,22.2c0.3-0.8,0.6-1.5,0.9-2.3c-10.1,4.9-20.9,8.1-31,13c-0.6,0.3-1,1.1-1,1.7
				c3.6,39.9,13.1,78.7,23.2,117.4c10.3,39.3,21.5,78.3,33.1,117.3c0.7,2.5,4.6,1.4,3.9-1.1c-10.1-34-20-68.1-29.2-102.4
				c-9.1-34.1-18.1-68.4-23.5-103.3c-0.8-5.5-1.6-10.9-2.2-16.4c-0.3-2.5-0.7-5.1-0.8-7.6c-0.1-3.1,0.6-3.1,3.5-4.3
				c8.7-3.8,17.7-6.6,26.2-10.8c0.8-0.4,1.1-1.4,0.9-2.3c-2.1-8-4.8-15.8-6-24c-0.2,0.6-0.3,1.3-0.5,1.9c6.5-5.9,11.6-12.9,17-19.8
				c5.6-7.1,12-13.2,18.3-19.6C228.3,57.2,225.5,54.3,223.7,56.2L223.7,56.2z"/>
		</g>
		<g>
			<path class="st2" d="M164.1,147.3c-16.8,8.9-45.2,18.7-61.5,28.5c-18.3,10.9-36.6,21.9-54,34.2c-2.1,1.5-0.1,5,2,3.5
				c17.3-12.3,35.7-23.3,54-34.2c16.3-9.8,44.7-19.6,61.5-28.5C168.4,149.6,166.4,146.1,164.1,147.3L164.1,147.3z"/>
		</g>
		<g>
			<path class="st2" d="M47.4,213c9.9,19.6,16.7,40.8,22.6,61.9c5.8,20.9,10.4,42.2,13.4,63.6c0.3,2.5,4.2,1.5,3.9-1.1
				c-3-22-7.8-43.8-13.8-65.2c-5.8-20.9-12.8-41.9-22.5-61.3C49.7,208.7,46.2,210.7,47.4,213L47.4,213z"/>
		</g>
		<g>
			<path class="st2" d="M47.4,211c-15.5,30.5-24.4,63.6-30.6,97.1c-0.5,2.5,3.4,3.6,3.9,1.1c6.2-33.1,14.9-66,30.2-96.1
				C52,210.7,48.5,208.7,47.4,211L47.4,211z"/>
		</g>
	</g>
</g>
</svg>
