<?xml version="1.0" encoding="utf-8"?>
<!-- Generator: Adobe Illustrator 19.2.0, SVG Export Plug-In . SVG Version: 6.00 Build 0)  -->
<svg version="1.1" id="Layer_1" xmlns="http://www.w3.org/2000/svg" xmlns:xlink="http://www.w3.org/1999/xlink" x="0px" y="0px"
	 viewBox="0 0 620 400" style="enable-background:new 0 0 620 400;" xml:space="preserve">
<style type="text/css">
	.st0{fill:#EFEFEF;}
	.st1{fill:#C6C6C6;}
	.st2{fill:#CE2041;}
	.st3{fill:#969696;}
	.st4{fill:#7A7B7B;}
</style>
<g>
	<path class="st0" d="M580,264.1c-5.2-14.9-11.2-29.8-18.8-43.7c-3.6-6.6-7.5-12.3-12.6-17.1c-0.1-0.6-0.7-1.1-1.3-1.2
		c-1.6-1.4-3.3-2.7-5.2-4c-11.8-7.7-24.2-14.5-36.6-21.1c-13.7-7.4-27.6-14.8-41.9-21c-0.3-5.5-1.3-11-2.5-16.4
		c-3.6-7-4.7-13.7-10.4-22.9c-0.3,0-3.6-1.8-6.3-1.8c-2.9,0-7.2,0.7-9.8,0.9c0.1,0,2.1-2.1,2.2-2.2c1.8-1,8.6-6.8,10.6-8.2
		c-7.5-11.9-22.7-55-34-69.2c-7.8-9.8-15.1,12.2-19.8,10.2c-1.2,5.8,1.7,33-0.6,38.5c1.4,20.8-6.6,18.3-26,32.2
		c-16.4,11.8-78,15.6-92.6,9.9c-8.6-3.4-30.1,2.6-59.4-48.1c-5.3-17.5-5-29.5-5.3-39.1c-7.9,6.3-22.8,25.1-35.2,55.4l-9,20.6
		l-6.3,15.6c0,0-0.9,10-6.6,21.5c-0.1,1.2-0.2,2.5-0.2,3.7c-28.9,13.6-57.4,29.3-84,46.9c-1.9,1.2-3.5,2.5-5,3.9
		c-0.7,0.1-1.4,0.7-1.5,1.4c-3.5,3.6-6.1,7.8-8.6,13.1c-6.4,13.4-11.2,27.7-15.7,41.8c-1.2,4-2.5,8-3.6,12
		c3.5,9.9,548.8,16.2,552.8,10C584.8,278.6,582.5,271.3,580,264.1z"/>
	<path class="st0" d="M580,264.1c-5.2-14.9-11.2-29.8-18.8-43.7c-3.6-6.6-7.5-12.3-12.6-17.1c-0.1-0.6-0.7-1.1-1.3-1.2
		c-1.6-1.4-3.3-2.7-5.2-4c-11.8-7.7-24.2-14.5-36.6-21.1c-13.3-7.1-26.7-14.3-40.5-20.3c-6.7,3.3-15.4,3.4-22.7,3.9
		c-13.3,0.8-26.7,1.8-40,3.4c-14.8,1.8-29.1,5.5-43.3,9.8c-6.8,2.1-13.6,4.4-20.6,6c-4,0.9-8.1,1.3-12.2,1.6c-0.5,0-3.2,0.2-3.5,0.2
		c0.1,0,0.1,0,0.2,0c-0.2,0-0.3,0-0.2,0c-1.5,0.1-0.6-0.1-2,0.8c-1.4,0.9-2.8,1.4-4.2,1.7c-2.8,1.5-6.1,2-9.2,0.9
		c-6.1-2.2-12.7-3.8-19-5.3c-6.3-1.6-12.4-3.8-18.7-5.3c-7-1.7-13.4-2.4-20.4-3.9c-6.6-1.4-13-3.6-19.7-5c-6.3-1.3-12.6-2.2-19-2.4
		c-3.7-0.2-7.3-0.2-10.9-1.1c-2.9-0.7-5.3-1.5-8-1.7c-6.8-0.4-13.6-0.6-20.3-0.9c-3.7-0.2-7.5-0.4-11-1.4c-1.4-0.4-2.9-1-4.3-1.5
		c-0.2-0.1-0.4-0.2-0.6-0.2c-1.1,0.3-2.1,0.4-3.1,0.4v0.1c-28.9,13.6-57.4,29.3-84,46.9c-1.9,1.2-3.5,2.5-5,3.9
		c-0.7,0.1-1.4,0.7-1.5,1.4c-3.5,3.6-6.1,7.8-8.6,13.1c-6.4,13.4-11.2,27.7-15.7,41.8c-1.2,4-2.5,8-3.6,12
		c3.5,9.9,10.3,19.3,21.6,27.1c39.8,27.3,183.9,59.2,254.9,61.4c74,2.3,223-34,260-61.4c6.9-5.1,12.3-10.9,16.3-17
		C584.8,278.6,582.5,271.3,580,264.1z"/>
	<g>
		<path class="st1" d="M104,322.9c-0.2-1.4-10.1-44.3-10.1-44.3l8.1-6.7l50.5-40.2l46.4-32.6l36.6-20.1l16.7-7.4l-9.6-3.6l-45.3-8.3
			l-43.6-2.1l-44.3,23.1l-47.7,28.2l-15.6,29.7l-12.3,40C52.7,313.7,104,322.9,104,322.9z"/>
		<path class="st1" d="M386.9,135.6c-0.9-11.6,46.6-26.5,47.1-31.3s-16-55.5-20.5-55.5s-4.4-6-4.4-6V35l6.6,1.6l7.9,11.9l9.7,24.1
			l10,24.5l4.1,7.2l-4.2,5.3l-10.4,6.3l-8.3,3.4l-17.1,6.3L386.9,135.6z"/>
		<path class="st1" d="M365.7,171.2c2-1.8,4.7-2.1,7.3-2.6c3.7-0.7,7.4-1.8,11.1-2.3c9.2-1.4,18.6-1.9,27.8-3.6
			c9.2-1.7,18.3-2.2,27.5-3.4c4.8-0.6,9.5-1,14.3-1.8c2.7-0.4,5.4-1.6,8.1-1.8l-1.1-9.5L455,125l-3.8-7.5l-7.9-1.6l-3.8,1.6
			c0,0,11,35.5,6.8,35.4c-23.5-0.3-107.2,13.4-124.3,23.1c-5.8,3.3-9.3,8.9-9.3,8.9l52.8-12.9C365.4,171.7,365.4,171.4,365.7,171.2z
			"/>
		<path class="st1" d="M583.4,271.5l-14.9-38.2l-13.8-23.2l-7.1-6.5l-53.2-30.3l-32.1-14.9l-0.1-1c-2.3,0.2-4.7,0.3-7,0.7
			c-4.5,0.7-8.9,2.1-13.5,2.8c-8.7,1.3-17.3,1.3-26,2.9c-8.1,1.6-16.2,2.3-24.4,3.4c-4.7,0.6-9.3,1.4-13.9,2.4
			c-2.9,0.7-7.3,0.7-9.9,2.5l3.7,2.9l64.8,45.4l39.1,29.3c0,0,40.8,30.2,39.5,31.5c-1.3,1.3-5.5,30.5-5.5,30.5l-2.3,18.6
			c0,0,62.9-16.6,79.9-44.4C588.7,282.8,583.4,271.5,583.4,271.5z"/>
	</g>
	<polygon class="st2" points="211,38.1 226.6,51.9 226.8,69.4 227.2,97 215,77.8 210,49.3 	"/>
	<g>
		<polygon class="st3" points="225.5,95.3 216.6,81.8 210,55.5 211,38.1 219.6,45.7 226.6,51.9 226.9,78 		"/>
		<path class="st3" d="M393.3,92.1l-0.1-43.5c0,0,5.8-6.6,6.5-7.1s8-8.6,8-8.6l1.4,8v17L398,90.4L393.3,92.1z"/>
		<path class="st1" d="M256.3,169.1c0,0-58.6-12.9-46.6-33.3c11.6-19.9,39.6-18.1,39.6-18.1l-22.1-19.3l-15.5-29.5L211,38.1
			l-6.8,5.8l-17.4,27.6l-20.5,41.9l-8,23.4l-4.4,22.6l48.9,12.3L256.3,169.1z"/>
		<path class="st3" d="M245.9,171c0,0-92,3.5-146.6,17.2c-10.3,2.6,54.6-30.6,54.6-30.6l70.4,7L245.9,171z"/>
		<path class="st3" d="M170.2,157.1c-4.7-29.3,31.5-88.3,40.8-86.3c7.5,1.6-1.4-30.9-1.4-30.9l-6.9,3.4l-10.4,17.4L173,98.5
			l-13.8,33l-5.3,19.1l1.7,9.2C155.5,159.7,170.8,160.8,170.2,157.1z"/>
	</g>
	<g>
		<g>
			<path class="st4" d="M312.4,299.8c0.1-37.8,0.4-75.7,1.2-113.5c-0.6,0.2-1.2,0.4-1.8,0.5c-0.8,0.1-1.6,0.1-2.5,0
				c-1.2,51-1.1,102-1,153c0,8.9-0.1,17.8,0.2,26.7c0.1,2.6,4.1,2.6,4,0C311.9,344.3,312.3,322,312.4,299.8z"/>
		</g>
		<g>
			<path class="st4" d="M311.3,183.9c-25.3-9.1-51.9-14.4-78.3-18.9c-26.2-4.4-52.7-7.9-79.2-9.3c0.7,0.7,1.3,1.3,2,2
				c0-7.7,2.1-15.3,4.4-22.6c3.1-9.8,7-19.3,11.2-28.6c8.2-18.2,17.4-36.1,28.3-52.8c2.9-4.5,6.4-11.2,11.3-14
				c2.2-1.3,0.2-4.7-2-3.5c-4.2,2.4-7.3,7.5-10,11.4c-5.2,7.5-9.8,15.4-14.2,23.3c-10.6,19.1-20.3,39-27.3,59.7
				c-2.9,8.6-5.8,17.8-5.7,27c0,1.1,0.9,1.9,2,2c26.7,1.5,53.3,4.9,79.7,9.5c25.9,4.4,52,9.7,76.8,18.6
				C312.7,188.6,313.7,184.8,311.3,183.9L311.3,183.9z"/>
		</g>
		<g>
			<path class="st4" d="M152.8,155.9c-23.9,11.2-47.1,24.2-69.7,37.8c-6.7,4.1-13.7,8-20,12.8c-7.8,6-12.4,16.1-16.2,24.9
				c-7.1,16.6-12,34.2-15,52c-0.4,2.5,3.4,3.6,3.9,1.1c2.6-15.6,6.7-31,12.4-45.7c3.8-9.7,8.5-21.9,16.8-28.7
				c5.8-4.7,12.7-8.4,19.1-12.3c10.5-6.3,21.1-12.4,31.8-18.3c12.8-7.1,25.7-13.9,38.9-20.1C157.2,158.3,155.2,154.9,152.8,155.9
				L152.8,155.9z"/>
		</g>
		<g>
			<path class="st4" d="M61.6,210c20.1,35.2,35,75.7,40.9,115.9c0.4,2.5,4.2,1.5,3.9-1.1c-5.9-40.5-21-81.3-41.3-116.8
				C63.8,205.7,60.3,207.7,61.6,210L61.6,210z"/>
		</g>
		<g>
			<path class="st4" d="M96.8,280c5.3-6.1,11.8-11.3,18-16.5c10.5-8.7,21.3-17.1,32.2-25.2c24.3-18.1,49.3-35.5,75.7-50.3
				c10.8-6,22.1-12.3,34.2-15.1c2.5-0.6,1.4-4.4-1.1-3.9c-10.4,2.5-20.3,7.5-29.7,12.5c-12.9,6.9-25.3,14.6-37.6,22.7
				c-25,16.4-49.3,34.1-72.5,53c-7.6,6.2-15.7,12.4-22.1,19.9C92.3,279.1,95.1,282,96.8,280L96.8,280z"/>
		</g>
		<g>
			<path class="st4" d="M312.6,187.2c27.2-8.5,55.1-14.9,83.2-19.3c22.2-3.5,44.5-5.8,66.8-8.9c0.8-0.1,1.5-1.1,1.5-1.9
				c-0.4-8.6-2.3-17.4-4.8-25.6c-1.3-4.3-2.8-8.7-5-12.7c-2.2-3.9-3.9-4.4-8.4-4.8c-10.5-0.8-21.2,2.5-30.9,6.2
				c-10.1,3.9-19.7,8.7-29.2,13.8c-2.3,1.2-0.2,4.7,2,3.5c16.4-8.8,35.2-19.2,54.3-19.5c1.9,0,4.4-0.3,6.2,0.4
				c1.7,0.7,2.1,1.8,3,3.5c2,3.8,3.3,7.9,4.5,12c2.2,7.5,3.9,15.4,4.3,23.3c0.5-0.6,1-1.3,1.5-1.9c-22.2,3.1-44.6,5.4-66.8,8.9
				c-28.2,4.5-56,10.8-83.2,19.3C309.1,184.1,310.2,188,312.6,187.2L312.6,187.2z"/>
		</g>
		<g>
			<path class="st4" d="M427.2,120.4c4.1-0.9,8.1-3.4,11.6-5.5c3.2-1.9,7.9-4.3,9.9-7.7c1.9-3.2-0.9-5.8-2.4-8.6
				c-2.5-4.9-4.6-10.1-6.7-15.2c-4.6-11.3-8.8-22.8-14.5-33.6c-3.7-7.1-8.8-16.6-17.3-18.7c-1.8-0.5-3,1.4-2.3,2.9
				c2.2,4.9,0.9,13.5,0.5,18.8c-1,11.1-3.7,22.3-8.5,32.4c-5.4,11.4-13.5,21.2-24.8,27.1c-17.9,9.3-38.2,14.1-58.1,16.3
				c-2.5,0.3-2.6,4.3,0,4c16.4-1.9,32.7-5.3,48.1-11.5c11.1-4.5,21.3-9.9,29.1-19.2c12.1-14.7,17.5-34.3,18.5-53
				c0.3-5.2,0.9-12-1.3-16.9c-0.8,1-1.5,2-2.3,2.9c7.7,2,12.4,11.9,15.7,18.4c4.8,9.6,8.7,19.6,12.7,29.5c1.7,4.3,3.4,8.5,5.3,12.7
				c0.9,2,1.8,3.9,2.8,5.9c0.5,0.9,2.3,3,2.4,4c0-1.3-0.6,0.3-1.1,0.6c-0.9,0.6-1.7,1.5-2.5,2.1c-1.7,1.2-3.4,2.3-5.2,3.4
				c-3.3,1.9-6.9,4.3-10.7,5.1C423.6,117.1,424.7,121,427.2,120.4L427.2,120.4z"/>
		</g>
		<g>
			<path class="st4" d="M461.1,158.8c21.6,9.3,42.5,20.8,62.8,32.5c7.5,4.3,15.7,8.6,22.4,14.3c9.6,8.2,16.3,20.4,21.8,31.6
				c8.2,16.4,14.5,34.2,16.8,52.5c0.3,2.5,4.3,2.6,4,0c-2-15.7-6.8-30.9-13.1-45.4c-5.6-12.9-12.5-26-21.9-36.6
				c-5.9-6.7-13.6-11.2-21.2-15.8c-11.3-6.7-22.8-13-34.4-19.2c-11.5-6.1-23.2-12.1-35.2-17.3C460.8,154.3,458.8,157.8,461.1,158.8
				L461.1,158.8z"/>
		</g>
		<g>
			<path class="st4" d="M545.4,202.6c-23.3,38-36.8,84.1-40.6,128.4c-0.2,2.6,3.8,2.5,4,0c3.7-43.6,17.1-89,40-126.4
				C550.2,202.4,546.7,200.4,545.4,202.6L545.4,202.6z"/>
		</g>
		<g>
			<path class="st4" d="M516.4,283c-3.5-4.8-9.2-8.6-13.7-12.3c-9.8-8.1-19.8-15.9-29.8-23.7c-24.3-18.9-48.9-37.5-74-55.4
				c-10.5-7.5-21-15-32.1-21.7c-2.2-1.3-4.2,2.1-2,3.5c22,13.3,42.6,29,63.1,44.4c23.1,17.2,46.1,34.7,68.4,52.9
				c5.2,4.2,13.1,9.5,16.6,14.4C514.4,287.1,517.9,285.1,516.4,283L516.4,283z"/>
		</g>
		<g>
			<path class="st4" d="M395.1,94c0.4-12.2,0.6-24.4,0.5-36.6c0-2.5-0.8-6.6-0.1-8.9c0.6-1.8,2.3-2.6,3.7-3.9
				c3.5-3.1,6.3-6.8,8.6-10.8c1.3-2.2-2.2-4.3-3.5-2c-3,5.3-6.8,8.6-11.2,12.6c-3.1,2.8-1.5,8.1-1.5,12.1
				c0.1,12.5-0.1,25.1-0.5,37.6C391,96.6,395,96.6,395.1,94L395.1,94z"/>
		</g>
		<g>
			<path class="st4" d="M209.6,39.5c3.5,3.2,7,6.4,10.5,9.6c2.4,2.2,4,4.1,4.1,7.5c0.1,2.9,0.1,5.8,0.2,8.7
				c0.2,10.6,0.5,21.2,0.7,31.8c0.1,2.6,4.1,2.6,4,0c-0.3-12.5-0.6-25-0.8-37.6c-0.1-4.3-0.1-7.8-3.1-11.1
				c-3.9-4.2-8.6-7.8-12.8-11.7C210.6,34.9,207.7,37.7,209.6,39.5L209.6,39.5z"/>
		</g>
		<g>
			<path class="st4" d="M198.8,133c6.4,4.9,13.4,8.6,21.1,11.2c1.8,0.6,2.6-2.3,0.8-2.9c-7.4-2.5-14.2-6.2-20.4-10.9
				C198.7,129.2,197.2,131.9,198.8,133L198.8,133z"/>
		</g>
		<g>
			<path class="st4" d="M204,127.8c5.4,3.4,11.1,6.4,17,9c1.8,0.8,3.3-1.8,1.5-2.6c-5.9-2.6-11.5-5.6-17-9
				C203.9,124.1,202.4,126.7,204,127.8L204,127.8z"/>
		</g>
		<path class="st4" d="M309.4,183.6c0.7,0.2,1.4,0.2,2.1,0.1c0.7-0.2,1.4-0.5,2.1-0.8c0.4-17.6,0.8-35.1,1.6-52.7c0.1-1.1-1-2-2-2
			c-26.9-0.1-55.9-1.2-76-21.6c-17-17.1-28.5-43.8-25-68.1c0.4-2.5-3.5-3.6-3.9-1.1c-3.7,25.4,7.6,52.7,25.1,71
			c20.5,21.4,49.8,23.5,77.8,23.7C310.4,149.3,309.9,166.5,309.4,183.6z"/>
	</g>
</g>
</svg>
