<?xml version="1.0" encoding="utf-8"?>
<!-- Generator: Adobe Illustrator 19.2.0, SVG Export Plug-In . SVG Version: 6.00 Build 0)  -->
<svg version="1.1" id="Layer_1" xmlns="http://www.w3.org/2000/svg" xmlns:xlink="http://www.w3.org/1999/xlink" x="0px" y="0px"
	 viewBox="0 0 739.6 909.9" style="enable-background:new 0 0 739.6 909.9;" xml:space="preserve">
<style type="text/css">
	.st0{fill:#433947;}
	.st1{fill:#0F0814;}
</style>
<g>
	<polygon class="st0" points="360.4,575.7 354.5,570.7 341.5,565.2 334.1,563 319.2,561.3 317.7,567.4 316.7,589 317.7,606.8 
		319.4,618.4 324.9,617.4 335.1,614.6 347.6,609.1 359,601.9 360.9,600 363.1,602.9 368.7,602.9 378.4,603.4 381,601.8 384.9,604 
		396.2,611.8 403.3,615.4 412.3,618 418.1,618.4 420.3,614 421.5,605 422.7,589.8 423,578.1 423,570 419.9,562.2 415.5,562.3 
		407.9,565.2 396.6,568.7 386.4,572.2 380.4,575.5 376.9,574.2 365.6,575.1 	"/>
	<g>
		<g>
			<g>
				<path class="st1" d="M361.5,574.6c-12.4-9.6-27.3-14.8-43.1-14.9c-0.6,0-1.4,0.5-1.4,1.1c-2.6,19.3-2.3,38.7,0.9,57.9
					c0.1,0.9,1.1,1.2,1.8,1c12.4-1.9,24.4-6.3,35-13.1c3.4-2.2,7-4,7.5-8.3c0.8-7.2,0.1-15,0.1-22.2c0-1.9-3-1.9-3,0
					c0,5.7,0,11.5,0,17.2c0,4.1,0.4,6.3-3.3,8.8c-2.1,1.5-4.2,2.8-6.4,4.1c-9.5,5.5-19.9,9-30.7,10.6c0.6,0.3,1.2,0.7,1.8,1
					c-3.1-18.7-3.4-37.6-0.9-56.4c-0.5,0.4-1,0.7-1.4,1.1c14.9,0,29.2,4.9,40.9,14C360.9,577.9,363,575.8,361.5,574.6L361.5,574.6z"
					/>
			</g>
		</g>
		<g>
			<g>
				<path class="st1" d="M382,576.6c7.7-4.9,17.5-7.5,26.3-10c1.7-0.5,10.3-3.8,11.4-2.9c0.6,0.5,0.8,2.2,0.9,2.9
					c1.6,7.8,0.9,16.3,0.5,24.2c-0.4,7.9-0.8,16-2.4,23.7c-0.1,0.6-0.2,2.2-0.7,2.7c-0.3,0.3-6.1-0.9-6.3-0.9
					c-1.8-0.4-3.7-0.9-5.4-1.5c-8.6-2.9-15.8-8.5-22.9-14c-1.5-1.2-3,1.4-1.5,2.6c6.3,4.8,12.6,9.7,19.9,12.8
					c3.5,1.5,7.2,2.6,11,3.2c1.6,0.3,5.4,1.3,6.9,0.3c3.2-2.1,2.9-10.7,3.3-13.9c1-8.9,1.5-17.8,1.5-26.7c0-4.5,0.9-13.6-2.4-17.4
					c-0.6-0.7-1.1-1-2-1.2c-1.5-0.2-3.7,0.8-5.1,1.1c-2.5,0.6-4.9,1.2-7.4,1.9c-9,2.6-19,5.2-27,10.3
					C378.8,575.1,380.3,577.7,382,576.6L382,576.6z"/>
			</g>
		</g>
		<g>
			<g>
				<path class="st1" d="M361.8,577.2c1.6-1.3,7.4-0.4,9.5-0.4c2.1,0,4.5-0.4,6.6-0.2c0.8,0.1,1.5,0.3,0.8-0.3
					c0.6,0.6,0.7,1.9,0.9,2.7c0.6,2.4,0.8,5.1,0.9,7.6c0.1,2.4,0.1,4.8,0,7.2c-0.1,1.5,0.2,6-0.8,7.1c-1.5,1.7-5.5,0.6-7.5,0.5
					c-2.4-0.1-8.8,1.3-9.9-1.6c-0.7-1.8-3.6-1-2.9,0.8c1.1,2.8,2.9,3.7,5.9,3.9c2.6,0.1,5.2-0.2,7.7,0c2,0.1,4,0.5,6,0.1
					c5.7-1.2,4.5-10.5,4.5-14.9c0-3.5,0.6-14.2-3.7-15.9c-2.6-1-7.2,0.1-9.9,0.1c-3.5,0-7.4-1.1-10.3,1.3
					C358.2,576.3,360.3,578.4,361.8,577.2L361.8,577.2z"/>
			</g>
		</g>
		<g>
			<g>
				<path class="st1" d="M360.1,587.5c-1.2-0.3-2.7,0.3-3.8,0.6c-2.3,0.5-4.6,1.1-6.9,1.2c-0.6,0-2.3,0.3-2.9-0.1
					c-0.7-0.6,0.4-1.8,1.3-2.1c2.5-1,5.5,1.2,8.2,0.5c1.9-0.5,1.1-3.4-0.8-2.9c-3.6,1-7.2-2.4-10.4,0.9c-1.6,1.7-2.4,4.8,0,6.2
					c2.2,1.3,5.4,0.5,7.7,0.2c1.5-0.3,3.1-0.6,4.6-0.9c0.6-0.1,1.2-0.3,1.8-0.4c0.3-0.1,1,0,0.4-0.2
					C361.1,590.9,361.9,588,360.1,587.5L360.1,587.5z"/>
			</g>
		</g>
		<g>
			<g>
				<path class="st1" d="M382.1,589.5c3,0.7,6.2,0.9,9.3,1.1c3.2,0.2,7.3,0.6,10.3-0.7c2-0.9,2.8-2.7,1.4-4.6
					c-2.8-3.9-10.4-0.9-14.3-1.1c-1.9-0.1-1.9,2.9,0,3c1.9,0.1,3.7,0,5.6-0.2c1.1-0.1,5.7-1.5,6.4,0.2c-0.1-0.1-0.7,0.1-1.4,0.3
					c-1.2,0.3-2.4,0.3-3.6,0.3c-4.2,0.1-8.7-0.2-12.8-1.1C381,586.2,380.2,589.1,382.1,589.5L382.1,589.5z"/>
			</g>
		</g>
		<g>
			<g>
				<path class="st1" d="M381.5,586.2c1,0.6,2.3,0.5,3.4,0.4c0.8-0.1,1.5-0.6,1.5-1.5c0-0.7-0.7-1.6-1.5-1.5c-0.4,0-0.7,0.1-1.1,0.1
					c-0.1,0-0.2,0-0.3,0c0,0-0.4,0-0.2,0c0.2,0-0.2,0-0.2,0c-0.3,0,0.2,0.1-0.1,0c-0.7-0.4-1.6-0.2-2.1,0.5
					C380.6,584.9,380.8,585.8,381.5,586.2L381.5,586.2z"/>
			</g>
		</g>
		<g>
			<g>
				<path class="st1" d="M360.5,584.9c-1-0.3-2-0.3-3-0.1c-0.8,0.2-1.3,1.1-1,1.8c0.2,0.8,1.1,1.2,1.8,1c0.4-0.1,0.9-0.1,1.4,0.1
					c0.7,0.2,1.7-0.3,1.8-1C361.8,586,361.3,585.2,360.5,584.9L360.5,584.9z"/>
			</g>
		</g>
	</g>
</g>
</svg>
