<?xml version="1.0" encoding="utf-8"?>
<!-- Generator: Adobe Illustrator 19.2.0, SVG Export Plug-In . SVG Version: 6.00 Build 0)  -->
<svg version="1.1" id="Layer_1" xmlns="http://www.w3.org/2000/svg" xmlns:xlink="http://www.w3.org/1999/xlink" x="0px" y="0px"
	 viewBox="0 0 739.6 909.9" style="enable-background:new 0 0 739.6 909.9;" xml:space="preserve">
<style type="text/css">
	.st0{fill:#433947;}
	.st1{opacity:0.75;}
	.st2{opacity:0.75;fill:#231E26;}
	.st3{fill:#0F0814;}
	.st4{fill:#231E26;}
	.st5{fill:#E5E5E5;}
	.st6{fill:#7A7B7B;}
</style>
<g>
	<g>
		<path class="st0" d="M384.3,606.9C384.3,606.9,384.3,606.9,384.3,606.9c0.3-10,3.1-21,8.2-29.6c-3.5-8.2-35.4-9-42.5-0.9
			c0,0,5.7,18.6,8.5,31c0.1,0,0.2,0,0.2,0c-4.4,15.4-17.5,96.3-18.5,154.7c0,0,12.8,1.9,29.4,1.9c14.3,0,29.4-1.1,29.4-1.1
			C399.3,723.4,391.8,634.8,384.3,606.9z"/>
	</g>
	<g class="st1">
		<path class="st2" d="M355.1,575.2c0,0,5.6,26.4,7.3,26.7c1.7,0.3,21.2-0.6,21.6,0.9c0.4,1.5,0,4.2,0,4.2l-10.1-0.9l-9.1,0.4
			l-6.3,0.9l-5.6-21.3l-3.4-10.2l4.4-2.2L355.1,575.2z"/>
		<polygon class="st2" points="367.6,606 366.3,613.7 361.8,630.7 354.6,657.3 349,671.8 349,664 350.1,649.5 354.4,628.3 
			357.2,612 359.9,607 		"/>
		<path class="st2" d="M375.3,607c0.1,1,1.7,11.5,1.7,11.5l1.9,13.7l3,13.3l4.6,10.5l7,13.8l-1-8.5l-1.5-14.8l-2.1-15.8l-2.6-15
			L384,607L375.3,607z"/>
	</g>
	<g>
		<g>
			<g>
				<path class="st3" d="M358.9,608.8c8.3-1.4,16.7-1.6,25-0.5c1,0.1,1.9-0.4,1.9-1.4c0.2-5.9,1.2-11.7,2.9-17.3
					c0.9-2.7,1.9-5.4,3.2-8c0.6-1.2,2.2-3,2.1-4.5c-0.4-4-7.4-5.9-10.5-6.6c-9.8-2.3-26.9-3.2-34.6,4.9c-0.4,0.4-0.5,0.9-0.4,1.5
					c3.2,10.2,6.1,20.5,8.5,31c0.4,1.9,3.3,1.1,2.9-0.8c-2.1-9.5-4.8-18.9-7.6-28.3c-0.2-0.6-0.9-2-0.8-2.7
					c-0.3,1.6,0.4,0.3,1.1,0.1c0.8-0.2,1.5-0.9,2.3-1.2c3.8-1.7,8.1-2.3,12.1-2.6c4.2-0.3,8.5-0.2,12.7,0.5c3,0.5,8.3,1.1,10.3,3.7
					c1.3,1.6-0.5,2.9-1.5,5c-1.1,2.4-2,4.8-2.8,7.3c-1.8,5.9-2.8,12-3,18.1c0.6-0.5,1.3-1,1.9-1.4c-8.9-1.2-17.8-1.1-26.6,0.5
					C356.2,606.3,357,609.2,358.9,608.8z"/>
			</g>
		</g>
		<g>
			<g>
				<path class="st3" d="M357.3,607.6c-5.6,19.7-7.9,40.9-10.6,61.2c-4.2,30.9-7.4,62-8,93.2c0,1.9,3,1.9,3,0
					c0.6-31.4,3.9-62.8,8.1-93.8c2.7-19.8,4.9-40.5,10.4-59.8C360.7,606.6,357.9,605.8,357.3,607.6L357.3,607.6z"/>
			</g>
		</g>
		<g>
			<g>
				<path class="st3" d="M382.6,607.4c4.8,17.4,6.5,35.9,8.5,53.8c2.5,23.3,4.4,46.7,5.6,70.2c0.5,10.8,1,21.7,0.9,32.5
					c0,1.9,3,1.9,3,0c0.1-21.2-1.3-42.3-2.9-63.4c-1.7-22.5-3.9-45.1-7.2-67.4c-1.3-8.8-2.7-17.8-5.1-26.4
					C384.9,604.7,382,605.5,382.6,607.4L382.6,607.4z"/>
			</g>
		</g>
		<g>
			<g>
				<path class="st3" d="M366.2,606.8c-3.3,14.2-7.1,28.2-10.5,42.4c-0.5,1.9,2.4,2.7,2.9,0.8c3.4-14.1,7.2-28.2,10.5-42.4
					C369.6,605.7,366.7,604.9,366.2,606.8L366.2,606.8z"/>
			</g>
		</g>
		<g>
			<g>
				<path class="st3" d="M373.8,607c3.1,23,8,46,18.9,66.7c0.9,1.7,3.5,0.2,2.6-1.5c-10.6-20.2-15.5-42.8-18.5-65.2
					C376.5,605.1,373.5,605.1,373.8,607L373.8,607z"/>
			</g>
		</g>
		<g>
			<g>
				<path class="st3" d="M353.7,654.8c-1.5,5.5-3.7,11.1-6.1,16.3c-0.8,1.7,1.8,3.3,2.6,1.5c2.6-5.4,4.9-11.2,6.4-17
					C357.1,653.7,354.2,652.9,353.7,654.8L353.7,654.8z"/>
			</g>
		</g>
	</g>
	<g class="st1">
		<circle class="st4" cx="370.4" cy="730.6" r="3.8"/>
	</g>
	<g>
		<circle class="st5" cx="370.4" cy="727.6" r="4.3"/>
		<path class="st6" d="M370.4,723.7c2.1,0,3.8,1.7,3.8,3.8s-1.7,3.8-3.8,3.8c-2.1,0-3.8-1.7-3.8-3.8S368.3,723.7,370.4,723.7
			 M370.4,722.7c-2.7,0-4.8,2.2-4.8,4.8s2.2,4.8,4.8,4.8c2.7,0,4.8-2.2,4.8-4.8S373.1,722.7,370.4,722.7L370.4,722.7z"/>
	</g>
</g>
</svg>
