<?xml version="1.0" encoding="utf-8"?>
<!-- Generator: Adobe Illustrator 19.2.0, SVG Export Plug-In . SVG Version: 6.00 Build 0)  -->
<svg version="1.1" id="Layer_1" xmlns="http://www.w3.org/2000/svg" xmlns:xlink="http://www.w3.org/1999/xlink" x="0px" y="0px"
	 viewBox="0 0 455 562" style="enable-background:new 0 0 455 562;" xml:space="preserve">
<style type="text/css">
	.st0{fill:#FDDDC6;}
	.st1{fill:#D6AA89;}
	.st2{fill:#AA7C5B;}
	.st3{fill:#3A291D;}
</style>
<g>
	<g>
		<path class="st0" d="M448.7,469.8c-60.8-50.9-140.8-63.7-142.7-85c0-0.5-0.1-1-0.2-1.4l0.7-0.7l-1.3-91.7
			c9.5-10.9,17-19.8,18.1-21.5c3.5-5.3,13.3-63,14.7-80.2c2.6-31.5,5.7-115.7,1.9-126.8c-3.8-11.3-69.6-63-114.8-61.7
			c-45.4,1.3-107.1,41.4-115,68.4c-2.4,8.3-7.4,79.8-5.3,112.6c1.1,17.3,10.7,89.8,16.4,97.4c1,1.3,9.1,9.3,19.6,19.1h-0.4
			l-0.2,85.7c-6.5,24-73.3,35.2-135.6,80.7c-24.8,18.1,73.1,101.2,215.6,96.5C375.6,555.9,463.5,482.2,448.7,469.8z"/>
	</g>
	<g>
		<path class="st1" d="M260,339.3c1.5-3,1.2-8-1.3-10c-5.8-4.8-60.6-2.4-68.8,0c-3,0.9-6.9-4.3-7.7-5.6c-11.4-19-23.1-49-25-54.9
			c-5.7-17.2-13.3-44.6-29-65.3c-4.9-6.4-4.9-55.6,8-78.7c5.5-9.8-17-71-26-54.1c-7.4,13.7-3.2,85.7-5.6,99.8
			c-0.2,1.3,2.7,30.9,3.5,33c0.9,2.1,4.7,40.1,4.7,40.1s7.9,35.3,8.5,37.1s15.6,15.3,15.6,15.3l8.8,7.6l-3.1-2.5l-2.4,65.8
			c0,0,16.6,18,38.4,31.7c3.4,10,9,22.6,9.9,23.9c2.5,3.3,5.9,1.7,8,0.6c2.1-1.1-1-9.4-4.3-17c10.2,4.8,20.9,8.1,31.2,7.8
			c11.4-0.2,25.7-7.1,39.2-15.6c-3.8,8-10.7,23.6-8.5,25.5c3,2.6,5.5,2.4,6.3,0.8c0.6-1.2,9-23.6,12.6-33.3
			c19.2-13.5,34.7-28.1,34.7-28.1l-1.6-68.4L260,339.3z M241.2,451.5c-2.2,2.7-6.8,19.5-18.6,19.6c-9,0.1-11.8-8.3-17.2-10.6
			c-1.7-0.7-3.5,0.2-4.3,1.7s-1.7,8.9,2,10.5s6.7,3,8.2,3.5s5.3,3.2,8.9,4.3s4.4,1.7,7.6,0c3.1-1.7,7-3,9.8-4.6
			c4.1-2.3,10.8-21.9,9.2-24.1C245,449.7,242,450.5,241.2,451.5z M360.4,481.9c-13.5,3.2-29-0.2-42.7,1.7c-4.1,0.6-3.4,5.8-0.5,6.6
			c13,3.7,34.5,4.5,42.8-1C363.3,487,364.1,481,360.4,481.9z M129.2,489c-12.2,1.7-24.6,1.3-35.5,0c-7.3-0.9-7.3,6.3-2.1,8.7
			c5.2,2.3,26.5,4,32.9,0C130.9,493.7,133.5,488.5,129.2,489z M215.8,504c0,7.7,4.4,32,4.4,49c0,3.8,6,5.3,10.1,1.7
			c4.1-3.7-2.4-51.7-4.4-54.2C223.9,498.1,215.8,496.2,215.8,504z"/>
	</g>
	<g>
		<path class="st1" d="M107.7,244.7c2,0,4.3-1.2,4.8-3.3v-0.2V241c-1.3-7.5-2.4-15.1-3.5-22.5c-0.3-1.9-0.6-3.9-0.9-5.8
			c-1.6-10.4-2.8-21.3-3.8-33.1v-0.5l-0.5-0.3c-0.1-0.1-0.2-0.2-0.3-0.4c-1.4-3.1-5.3-10.3-10.1-10.3c-1.4,0-2.7,0.6-3.9,1.8
			c-2,1.9-2.6,5.1-3,8c-1,7.8,0.4,16,1.9,23.1c1.9,8.8,4.6,17.5,8.1,25.9c1.8,4.3,3.7,8.4,5.8,12.1c0.2,0.3,0.4,0.7,0.6,1.1
			c0.7,1.5,1.6,3.5,3,4.2C106.2,244.6,106.9,244.7,107.7,244.7z"/>
		<path class="st2" d="M107.7,209.4L99.5,192l-7.4-10.9c0,0-3.2-3.6-5.1-2s-2.1,15.7,0,20.6s16.5,24,16.5,24l-4.2-11L95,198.8
			c0,0,1.7-8.1,1.1-8.7s2,1.9,2,1.9L107.7,209.4z"/>
		<g>
			<path class="st3" d="M106,176.8c-2.3-4.9-6.3-11.5-12.3-11.9c-4.1-0.3-7.2,2.9-8.7,6.4c-3.9,9-1.6,20.6,0.3,29.8
				c2.8,13.1,7.3,26,13.5,37.9c2,3.7,3.6,8.5,8.4,8.7c4.2,0.1,7-2.6,7.4-6.7c0.2-2.6-3.8-2.5-4,0c-0.3,3.1-3.6,3.2-5.2,1.5
				c-1.2-1.3-2-3.4-2.8-5c-2.1-4-4.1-8.2-5.8-12.4c-3.3-8.1-5.9-16.5-7.7-25.1c-1.5-7-2.6-14.4-1.8-21.5c0.3-2.5,0.8-5.4,2.3-7.4
				c5-6.5,11.1,3.7,13,7.7C103.6,181.1,107.1,179.1,106,176.8L106,176.8z"/>
		</g>
		<g>
			<path class="st3" d="M110.5,212.7c-2-5.6-15.7-41.8-24.5-34c-1.5,1.3,0.7,3.4,2.1,2.1c3.9-3.4,18.3,29.1,19.5,32.7
				C108.3,215.3,111.2,214.6,110.5,212.7L110.5,212.7z"/>
		</g>
		<g>
			<path class="st3" d="M94.8,186.5c-1,12.8,1.9,26.5,7.5,38c0.8,1.7,3.4,0.2,2.6-1.5c-5.4-11-8-24.2-7.1-36.5
				C97.9,184.5,94.9,184.5,94.8,186.5L94.8,186.5z"/>
		</g>
	</g>
	<g>
		<path class="st0" d="M335.9,244.7c-2,0-4.3-1.2-4.8-3.3v-0.2V241c1.3-7.5,2.4-15.1,3.5-22.5c0.3-1.9,0.6-3.9,0.9-5.8
			c1.6-10.4,2.8-21.3,3.8-33.1v-0.5l0.5-0.3c0.1-0.1,0.2-0.2,0.3-0.4c1.4-3.1,5.3-10.3,10.1-10.3c1.4,0,2.7,0.6,3.9,1.8
			c2,1.9,2.6,5.1,3,8c1,7.8-0.4,16-1.9,23.1c-1.9,8.8-4.6,17.5-8.1,25.9c-1.8,4.3-3.7,8.4-5.8,12.1c-0.2,0.3-0.4,0.7-0.6,1.1
			c-0.7,1.5-1.6,3.5-3,4.2C337.3,244.6,336.7,244.7,335.9,244.7z"/>
		<path class="st1" d="M336,209.4l8.2-17.4l7.4-10.9c0,0,3.2-3.6,5.1-2s2.1,15.7,0,20.6s-16.5,24-16.5,24l4.2-11l4.3-13.9
			c0,0-1.7-8.1-1.1-8.7s-2,1.9-2,1.9L336,209.4z"/>
		<g>
			<path class="st3" d="M341.1,178.8c1.9-4,7.5-13.9,12.7-8c1.7,1.9,2.2,4.8,2.5,7.2c1,7.5-0.3,15.3-1.9,22.6
				c-1.8,8.6-4.5,17-7.8,25.1c-1.7,4.2-3.6,8.3-5.8,12.3c-0.7,1.4-1.9,4.5-3.3,5.3c-1.9,1.1-5.1-0.3-5.4-2.5c-0.3-2.5-4.3-2.6-4,0
				c0.4,4.2,3.3,6.6,7.5,6.7c5,0.1,6.5-3.5,8.6-7.5c6.5-11.9,11.1-25.1,14-38.4c2-9.2,4.3-21,0.6-30.1c-1.4-3.5-4.2-6.6-8.3-6.7
				c-6.3-0.1-10.6,6.9-12.9,11.8C336.5,179.1,340,181.1,341.1,178.8L341.1,178.8z"/>
		</g>
		<g>
			<path class="st3" d="M336,213.5c1.2-3.5,15.6-36.1,19.5-32.7c1.4,1.3,3.6-0.8,2.1-2.1c-8.9-7.8-22.6,28.4-24.5,34
				C332.5,214.6,335.4,215.3,336,213.5L336,213.5z"/>
		</g>
		<g>
			<path class="st3" d="M345.9,186.5c1,12.3-1.7,25.4-7.1,36.5c-0.8,1.7,1.7,3.3,2.6,1.5c5.6-11.5,8.5-25.2,7.5-38
				C348.8,184.5,345.8,184.5,345.9,186.5L345.9,186.5z"/>
		</g>
	</g>
	<g>
		<g>
			<path class="st1" d="M211.9,165.8c0,0-14.8,1.4-15.3,20c-0.1,4.2-1.5,27.8-2.1,37.3c-5.2,3.5-10.6,8.1-12,9.9
				c-11.7,14.7,19.4,0.3,19.4,0.3l6.5-2.7l-0.6-1.2c0.2,0,0.4,0,0.6,0C212.5,229.4,211.9,165.8,211.9,165.8z"/>
		</g>
		<g>
			<path class="st2" d="M236.6,234.1l-10.6,3.5l-5.9-1.2c0,0-19.1-8.3-18.9-7.1c2.7,13,23.9,45.4,44.8-1.2
				C246.7,226.9,236.6,234.1,236.6,234.1z"/>
		</g>
		<g>
			<path class="st3" d="M201.5,220.6c-1,2.4-2.8,6.1-0.9,8.4c1.4,1.8,4.7,2.7,6.6,3.5c4.7,2,11.1,5.5,16.4,5.3
				c5.6-0.2,12.2-3.6,17.3-5.8c1.8-0.8,4.8-1.7,5.9-3.6c1.7-2.8-0.6-6.3-2.3-8.4c-1.6-2-4.5,0.9-2.8,2.8c2.7,3.2,1.7,3.6-1.1,5
				c-2.2,1.1-4.6,2-6.9,2.8c-3,1.1-7.3,3.3-10.6,3.1c-3.8-0.2-8.3-2.5-11.8-3.9c-1.9-0.8-4.5-1.5-6.1-2.8c-0.3-0.3-1.4-0.5-1.6-0.9
				c-0.1-0.2,1.7-3.9,1.9-4.5C206.4,219.3,202.5,218.3,201.5,220.6L201.5,220.6z"/>
		</g>
	</g>
	<g>
		<path class="st3" d="M102.8,183.3c1,15,3.2,29.9,5.3,44.7c2.3,15.9,4.2,32.6,9,48c2.6,8.3,10.1,13.7,16.2,19.5
			c12.3,11.7,24.8,23.3,37.8,34.2c4.9,4.1,9.8,8.3,15.2,11.7c4.7,3,10.1,3.8,15.6,4.4c16.9,1.8,35,1,51.8-1.7
			c9.7-1.6,17.2-11.5,23.6-18.1c11.8-12.1,23-24.7,34-37.5c5.4-6.3,13-12.9,15.4-21.1c4.7-16.3,7.1-33.5,9.7-50.2
			c5.4-34.4,6.3-69.3,6.9-104.1c0.3-15,1.1-30.6-0.9-45.5c-1.3-9.7-10.8-16.5-17.8-22.2c-15.1-12.5-31.9-23.3-49.7-31.7
			C257.4,5.4,238.3-1,218.7,0.9c-21.9,2.2-43.2,10.9-62.1,21.9c-16.4,9.5-33.6,21.7-44,37.9c-6.6,10.3-6.5,22.8-7.5,34.6
			c-1.6,20.5-2.7,41.1-2.9,61.6C102.3,165.7,102.3,174.5,102.8,183.3c0.2,2.6,4.2,2.6,4,0c-1.1-18.8-0.4-37.7,0.5-56.4
			c0.8-16.7,1.6-33.4,3.8-50c1.8-13.6,11.8-23.9,21.8-32.5c16.7-14.5,36.9-25.7,57.8-33c19.1-6.6,38.2-9.2,57.9-3.7
			c19.6,5.4,37.9,15.4,54.8,26.7c7.2,4.8,14.3,10,20.9,15.7c4.3,3.7,9,7.6,12.4,12.3c2.1,3,2.2,6.3,2.5,9.9
			c0.5,6.7,0.6,13.5,0.6,20.2c0.1,19-0.5,38-1.3,56.9c-0.6,15.2-1.1,30.5-2.7,45.6c-1.9,17.2-4.9,34.4-8.2,51.4
			c-1.7,9-2.4,19.7-8.4,27.1c-8.8,10.7-18,21.1-27.3,31.3c-9.7,10.8-19.5,22-30.6,31.4c-3,2.5-5.2,3.7-9,4.2
			c-7.7,1.2-15.5,1.6-23.2,1.9c-9.1,0.4-18.4,0.5-27.5-0.5c-5.7-0.6-10.3-1.8-15-5.1c-12.1-8.4-23-18.8-33.9-28.7
			c-9.6-8.8-19.4-17.6-28.4-27c-2.1-2.2-2.9-4.7-3.7-7.8c-1.9-7-3.2-14.1-4.5-21.2c-3-17.1-5.5-34.4-7.5-51.6
			c-0.7-5.6-1.3-11.3-1.7-17C106.7,180.8,102.7,180.7,102.8,183.3z"/>
	</g>
	<g>
		<path class="st3" d="M171.1,347.9c6.2,24.2,13.5,49.1,23.9,71.9c0.8,1.8,3.4,0.2,2.6-1.5c-10.3-22.6-17.5-47.2-23.6-71.2
			C173.5,345.2,170.6,346,171.1,347.9L171.1,347.9z"/>
	</g>
	<g>
		<path class="st3" d="M174.9,390c3.5,9,7.4,17.8,11.9,26.3c0.9,1.7,3.5,0.2,2.6-1.5c-4.3-8.3-8.2-16.9-11.6-25.6
			C177.1,387.4,174.2,388.2,174.9,390L174.9,390z"/>
	</g>
	<g>
		<path class="st3" d="M454.4,471.7c-33.8-28.8-75.3-46.7-115.1-65.4c-6.9-3.2-13.8-6.4-20.4-10.1c-2.9-1.6-8.1-3.7-9.7-6.9
			c-1.5-2.9-0.7-9.2-0.8-12.7c-0.3-8.6-0.5-17.3-0.6-26c-0.3-18.9-0.6-37.7-0.6-56.6c0-2.6-4-2.6-4,0c0,16.9,0.3,33.8,0.5,50.7
			c0.2,9.3,0.3,18.6,0.6,27.9c0.2,5.3-0.1,11,0.8,16.3c0.6,3.4,3.2,5.3,5.9,7.1c5.2,3.6,11.1,6.3,16.8,9.1
			c18.4,9,37.2,17.2,55.5,26.4c24,12.1,47.9,25.4,68.4,42.9C453.5,476.2,456.4,473.3,454.4,471.7L454.4,471.7z"/>
	</g>
	<g>
		<path class="st3" d="M2.8,467.8c34.4-26.1,74.4-42.8,113-61.4c5.9-2.8,11.8-5.6,17.3-9c2.7-1.7,6.4-3.8,7.6-7
			c1.3-3.5,0.8-8.5,0.9-12.2c0.3-8,0.5-15.9,0.6-23.9c0.4-18.1,0.6-36.2,0.7-54.3c0-2.6-4-2.6-4,0c0,15.3-0.2,30.6-0.5,45.9
			c-0.1,8.3-0.3,16.6-0.5,24.9c-0.2,5.5,0.1,11.3-0.7,16.7c-0.5,3-3,4.4-5.6,6c-5.1,3.2-10.6,5.9-16,8.5
			c-17.1,8.3-34.5,16-51.5,24.4c-22,11-43.7,22.9-63.3,37.8C-1.2,465.9,0.8,469.3,2.8,467.8L2.8,467.8z"/>
	</g>
	<g>
		<path class="st3" d="M48,478.1c27.9,2.4,55.9,3.4,83.8,1.9c13.8-0.7,27.5-2,41.2-3.6c11.9-1.4,28.8-6.3,38.7,2.9
			c1.4,1.3,3.6-0.8,2.1-2.1c-8.6-7.9-20.6-6.3-31.3-4.9c-15.1,1.9-30.3,3.5-45.6,4.4c-29.7,1.8-59.4,0.9-89-1.6
			C46,474.9,46.1,477.9,48,478.1L48,478.1z"/>
	</g>
	<g>
		<path class="st3" d="M219.4,481.9c6.2,3.3,11.4-1.6,16.7-4.4c7.5-4.1,16.6-3.1,24.9-3.2c14.9,0,29.8-0.1,44.6,0.7
			c15.3,0.8,30.4,2.4,45.7,2.2c12.2-0.1,24.4-0.3,36.6-1c1.9-0.1,1.9-3.1,0-3c-11.8,0.7-23.6,0.8-35.4,1c-15,0.2-29.8-1.1-44.8-2.1
			c-14.2-0.9-28.5-0.8-42.7-0.8c-6.8,0-13.8-0.4-20.5,0.4c-3.6,0.4-6.8,1.4-9.9,3.2c-4,2.2-8.9,7-13.7,4.4
			C219.2,478.4,217.7,481,219.4,481.9L219.4,481.9z"/>
	</g>
	<g>
		<path class="st3" d="M273.3,353.6c-3.5,17.7-8.1,35.6-13.6,52.9c-0.6,1.8,2.3,2.6,2.9,0.8c5.5-17.2,10.1-35.1,13.6-52.9
			C276.5,352.5,273.6,351.7,273.3,353.6L273.3,353.6z"/>
	</g>
	<g>
		<path class="st3" d="M270.4,391.7c-2.2,7.4-4.7,14.6-7.7,21.8c-0.7,1.8,2.2,2.6,2.9,0.8c3-7.1,5.5-14.4,7.7-21.8
			C273.8,390.6,270.9,389.8,270.4,391.7L270.4,391.7z"/>
	</g>
	<g>
		<path class="st3" d="M217.8,517.1c1.9,11.5,3.3,23,4,34.6c0.1,1.9,3.1,1.9,3,0c-0.7-11.9-2.1-23.7-4.1-35.4
			C220.4,514.4,217.5,515.2,217.8,517.1L217.8,517.1z"/>
	</g>
	<g>
		<path class="st3" d="M223.3,508.4c1.6,12.2,2.8,24.4,3.6,36.7c0.1,1.9,3.1,1.9,3,0c-0.8-12.3-2-24.5-3.6-36.7
			C226.1,506.5,223.1,506.5,223.3,508.4L223.3,508.4z"/>
	</g>
</g>
</svg>
