<?xml version="1.0" encoding="utf-8"?>
<!-- Generator: Adobe Illustrator 19.2.0, SVG Export Plug-In . SVG Version: 6.00 Build 0)  -->
<svg version="1.1" id="Layer_1" xmlns="http://www.w3.org/2000/svg" xmlns:xlink="http://www.w3.org/1999/xlink" x="0px" y="0px"
	 viewBox="0 0 178.8 77" style="enable-background:new 0 0 178.8 77;" xml:space="preserve">
<style type="text/css">
	.st0{fill-rule:evenodd;clip-rule:evenodd;fill:#D6AA89;}
	.st1{fill-rule:evenodd;clip-rule:evenodd;fill:#FFFFFF;}
	.st2{fill-rule:evenodd;clip-rule:evenodd;fill:#3a291d;}
	.st3{fill:#3a291d;}
	.st4{fill:#3A291D;}
	.st5{fill:#d88a3d;}
	.st6{fill:#9B581C;}
</style>
<g>
	<g>
		<g>
			<path class="st0" d="M85.7,9.3c-2.7-0.9-3.2,2.4-2.4,4.7c0.9,2.4-4.7,8.3-4.7,8.3l-4.7,5.9c0,0-8.3-0.9-8.3,1.2
				c0,0.6-0.1,1.2-0.1,1.8c-3.2-1.5-9.5-1.1-9.3-0.6L48,29.4h-8.3L30.3,27l-5.9-1.2l-7.1-1.2c0,0-12.4-3.4-14.1-2.4
				c-2.3,1.4-6.7,21.5,2,21c5.9-0.4,13.4,1.1,18,2.6c8.4,2.7,8.3-1.2,8.3-1.2l13,1.2c0,0,1.6-0.4,3.8-0.9c0.2,1,0.1,2.1-0.3,3.2
				C43.5,60.9,28,63.7,31.5,64.7C44,68.6,58,54.1,60.9,55.3c2.9,1.2,18.4-15.4,15.3-20c-0.4-0.5-1.4-0.9-2.7-1.2c0.1,0,0.3,0,0.3,0
				c0.9,0.3,7.1-4.4,9.4-5.9c2.4-1.5,7.1-8,7.1-11.8C90.4,12.6,88.3,10.2,85.7,9.3z"/>
		</g>
		<g>
			<g>
				<polygon class="st1" points="48,35.3 43.3,34.1 32.6,35.3 23.2,35.3 17.3,37.6 22,43.5 29.1,47.1 38.5,47.1 46.8,45.9 
					49.1,43.5 				"/>
			</g>
			<g>
				<polygon class="st2" points="37.4,35.3 27.9,34.1 25.4,36.6 29.1,42.5 35,43.7 40.9,40.2 42.1,34.1 				"/>
			</g>
			<g>
				<g>
					<path class="st3" d="M41.3,35.4c-0.5,4.4-3.4,7.7-8,6.9c-3.3-0.5-6.4-3-6.2-6.6c0.1-1.3-1.9-1.3-2,0c-0.3,4.7,4,8.1,8.4,8.6
						c5.8,0.6,9.2-3.6,9.8-9C43.4,34.1,41.4,34.1,41.3,35.4L41.3,35.4z"/>
				</g>
				<g>
					<path class="st4" d="M58.3,34.9c-7.9-0.9-15.9-1.5-23.9-1.5c-6,0-12.9,0-18.4,2.8c-2.3,1.2-0.3,4.7,2,3.5
						c5.5-2.9,13.1-2.3,19.1-2.2c7.1,0.1,14.1,0.7,21.1,1.4C60.8,39.1,60.8,35.1,58.3,34.9L58.3,34.9z"/>
				</g>
				<g>
					<path class="st4" d="M49.7,46c1.3-4.3,1.2-8.1-1.9-11.6c-1.7-1.9-4.5,0.9-2.8,2.8c2.1,2.4,1.7,4.9,0.8,7.8
						C45.1,47.4,49,48.5,49.7,46L49.7,46z"/>
				</g>
				<g>
					<path class="st4" d="M47.4,44.2c-8.3,0.9-23.8,1.5-28.6-7.2c-1.2-2.3-4.7-0.2-3.5,2c5.6,10.2,22.2,10.3,32.1,9.2
						C50,47.9,50,43.9,47.4,44.2L47.4,44.2z"/>
				</g>
				<g>
					<path class="st4" d="M46,45.8c-2.6,7.3-8.1,12.5-15.1,15.5c-1.8,0.8-0.2,3.4,1.5,2.6c7.7-3.4,13.6-9.3,16.5-17.3
						C49.5,44.7,46.6,43.9,46,45.8L46,45.8z"/>
				</g>
			</g>
			<g>
				<g>
					<path class="st4" d="M81,15.2c0,2.2-2.2,4.5-3.6,6.2c-1.4,1.6-2.8,3.1-4.4,4.5c-1.5,1.3,0.7,3.4,2.1,2.1c2.1-1.8,4-3.8,5.7-6
						c1.5-2,3.2-4.1,3.2-6.7C84,13.3,81,13.3,81,15.2L81,15.2z"/>
				</g>
				<g>
					<path class="st4" d="M82.1,24.9c-2.5,3.1-5.7,5.4-9.5,6.6c-1.8,0.6-1,3.5,0.8,2.9c4.3-1.4,8-3.9,10.8-7.4
						C85.5,25.5,83.4,23.4,82.1,24.9L82.1,24.9z"/>
				</g>
			</g>
			<g>
				<path class="st4" d="M15.2,34.4c13.6-0.6,27.1-1.8,40.7-2.9c1.9-0.1,1.9-3.2,0-3c-13.5,1.1-27.1,2.3-40.7,2.9
					C13.3,31.5,13.3,34.5,15.2,34.4L15.2,34.4z"/>
			</g>
		</g>
	</g>
	<g>
		<g>
			<path class="st0" d="M175.7,22.3c-1.8-1.1-14.1,2.4-14.1,2.4l-7.1,1.2l-5.9,1.2l-9.4,2.4h-8.3l-8.3,1.2c0.2-0.6-5,0.2-8.3,1.2
				c-8,2.4-7.4,3.8-4.7,7.1c2.7,3.2,8.6,6.5,11.8,7.3c4.3,1.2,13-0.3,13-0.3l13-1.2c0,0-0.1,3.8,8.3,1.2c4.7-1.5,12.1-2.9,18-2.6
				C182.3,43.8,178,23.7,175.7,22.3z"/>
		</g>
		<g>
			<g>
				<polygon class="st1" points="155.6,35.3 146.2,35.3 135.6,34.1 130.9,35.3 129.7,43.5 132,45.9 140.3,47.1 149.7,47.1 
					156.8,43.5 161.5,37.6 				"/>
			</g>
			<g>
				<polygon class="st2" points="150.9,34.1 141.5,35.3 136.8,34.1 137.9,41.2 143.8,43.7 149.7,41.5 152.4,37.6 				"/>
			</g>
			<g>
				<g>
					<path class="st3" d="M135.5,35.4c0.6,5.4,4.1,9.6,9.8,9c4.4-0.5,8.7-3.8,8.4-8.6c-0.1-1.3-2.1-1.3-2,0c0.2,3.6-2.9,6-6.2,6.6
						c-4.6,0.8-7.6-2.5-8-6.9C137.4,34.1,135.4,34.1,135.5,35.4L135.5,35.4z"/>
				</g>
				<g>
					<path class="st4" d="M120.6,38.9c7-0.8,14.1-1.3,21.1-1.4c6-0.1,13.6-0.6,19.1,2.2c2.3,1.2,4.3-2.3,2-3.5
						c-5.4-2.8-12.4-2.8-18.4-2.8c-8,0-15.9,0.6-23.9,1.5C118,35.1,118,39.1,120.6,38.9L120.6,38.9z"/>
				</g>
				<g>
					<path class="st4" d="M133,45c-0.8-2.8-1.2-5.4,0.8-7.8c1.7-1.9-1.1-4.8-2.8-2.8c-3.1,3.5-3.2,7.3-1.9,11.6
						C129.8,48.5,133.7,47.4,133,45L133,45z"/>
				</g>
				<g>
					<path class="st4" d="M131.4,48.2c9.9,1.1,26.5,1,32.1-9.2c1.2-2.3-2.2-4.3-3.5-2c-4.8,8.7-20.3,8.1-28.6,7.2
						C128.8,43.9,128.9,47.9,131.4,48.2L131.4,48.2z"/>
				</g>
				<g>
					<path class="st4" d="M130,46.5c2.9,8,8.7,13.9,16.5,17.3c1.8,0.8,3.3-1.8,1.5-2.6c-7-3.1-12.5-8.3-15.1-15.5
						C132.2,43.9,129.3,44.7,130,46.5L130,46.5z"/>
				</g>
			</g>
			<g>
				<path class="st4" d="M163.6,31.4c-13.6-0.6-27.1-1.8-40.7-2.9c-1.9-0.2-1.9,2.9,0,3c13.5,1.1,27.1,2.3,40.7,2.9
					C165.5,34.5,165.5,31.5,163.6,31.4L163.6,31.4z"/>
			</g>
		</g>
	</g>
	<g>
		<g>
			<path class="st5" d="M67.5,30c1.8-1.2,7-10.9,5.1-13.8C69.1,10.9,52,10,45,11.9C44.5,12,43.7,15,43.6,17
				c-4.8-0.8-17.4-1.1-22.5,0c0,0,0,0,0,0c1.1,0.9,1.8,1.9,2.1,2.1C16.5,20.5,8.9,22.4,4,22.9C20.4,26.9,47.1,30,67.5,30z"/>
			<path class="st5" d="M111.5,30c-1.8-1.2-7-10.9-5.1-13.8c3.5-5.3,20.6-6.3,27.6-4.4c0.5,0.1,1.3,3.1,1.4,5.1
				c4.8-0.8,17.4-1.1,22.5,0c0,0,0,0,0,0c-1.1,0.9-1.8,1.9-2.1,2.1c6.6,1.3,14.3,3.2,19.2,3.7C158.6,26.9,131.9,30,111.5,30z"/>
		</g>
		<g>
			<g>
				<g>
					<path class="st6" d="M68.6,31.1c3-2.6,5.4-8,5.8-11.9c0.5-4.3-2.7-6.4-6.4-7.7c-5.6-2-12.2-2.4-18.2-1.9
						c-5.7,0.5-7.1,1.5-7.7,7.4c0.6-0.5,1.3-1,1.9-1.4c-7.5-1.1-15.8-1.4-23.3,0c-0.8,0.2-1.2,1.1-1,1.8c0.3,1,1.8,2.1,2.5,2.8
						c0.2-0.8,0.4-1.7,0.7-2.5C16.5,19,10.3,20.6,4,21.4c-1.5,0.2-2.2,2.6-0.4,2.9c12.9,2.8,25.9,5,39,6.5
						c5.5,0.7,11.1,1.2,16.7,1.4c2.8,0.1,6.1,0.4,8.7-0.7c1.8-0.7,1-3.6-0.8-2.9c-2.7,1.1-6.1,0.7-8.9,0.6
						c-5.2-0.2-10.5-0.7-15.7-1.4C29.7,26.3,17,24.2,4.4,21.4c-0.1,1-0.3,2-0.4,2.9c6.6-0.7,13.1-2.4,19.6-3.8
						c1.1-0.2,1.4-1.8,0.7-2.5c-0.2-0.2-1.7-1.4-1.8-1.5c-0.3,0.6-0.7,1.2-1,1.8c6.9-1.4,14.8-1,21.7,0c1,0.1,1.8-0.4,1.9-1.4
						c0.3-2.6,0.4-3.6,2.9-4.2c1.7-0.4,3.6-0.3,5.4-0.4c3.9,0,8,0.3,11.8,1.3c3.7,1,7.1,2.2,6,6.5c-0.7,2.8-2.4,6.8-4.6,8.7
						C65,30.2,67.1,32.3,68.6,31.1z"/>
				</g>
				<g>
					<path class="st6" d="M57.7,12.6c3.8,3.6,5.1,11.9,4.5,16.9c-0.2,1.9,2.8,1.9,3,0c0.6-5.8-1-14.8-5.4-19
						C58.4,9.2,56.3,11.3,57.7,12.6L57.7,12.6z"/>
				</g>
				<g>
					<path class="st6" d="M47.3,14.1c3.9,4.2,6.2,9.4,6.8,15.1c0.2,1.9,3.2,1.9,3,0c-0.7-6.5-3.3-12.3-7.7-17.2
						C48.2,10.5,46,12.6,47.3,14.1L47.3,14.1z"/>
				</g>
				<g>
					<path class="st6" d="M41,18.4c2.8,2.3,4.1,6.7,4.5,10.2c0.2,1.9,3.2,1.9,3,0c-0.5-4.3-1.9-9.5-5.4-12.3
						C41.7,15.1,39.5,17.2,41,18.4L41,18.4z"/>
				</g>
				<g>
					<path class="st6" d="M29.7,17.5c1.5,1.5,2.5,3.2,3,5.3c0.2,0.8,0.4,1.5,0.5,2.3c0.1,0.6,0.7,2.2,0.6,2.8
						c0.7-0.3,1.5-0.6,2.2-0.9c0,0-0.1,0-0.1,0c0.2,0.7,0.4,1.4,0.5,2.1c0,0,0,0,0-0.1c0.9-1.7-1.7-3.2-2.6-1.5c0,0,0,0,0,0.1
						c-0.4,0.7-0.2,1.6,0.5,2.1c0,0,0.1,0,0.1,0c0.8,0.5,2,0.1,2.2-0.9c0.5-2-0.7-5.1-1.3-7.1c-0.7-2.4-1.9-4.4-3.7-6.2
						C30.5,14,28.4,16.1,29.7,17.5L29.7,17.5z"/>
				</g>
				<g>
					<path class="st6" d="M21.9,20.5c1.8,1.9,2.9,4.2,3.2,6.8c0.2,1.9,3.2,1.9,3,0c-0.4-3.4-1.7-6.4-4.1-8.9
						C22.7,17,20.6,19.1,21.9,20.5L21.9,20.5z"/>
				</g>
			</g>
			<g>
				<g>
					<path class="st6" d="M112.5,29c-2.2-1.9-3.7-5.6-4.5-8.2c-1.3-4.6,2-6,5.9-7c3.6-1,7.4-1.3,11.2-1.3c1.7,0,3.5,0,5.2,0.2
						c3.1,0.4,3.3,1,3.7,4.3c0.1,1.1,0.9,1.6,1.9,1.4c6.9-1,14.8-1.3,21.7,0c-0.3-0.6-0.7-1.2-1-1.8c0,0-1.6,1.3-1.8,1.5
						c-0.8,0.8-0.5,2.3,0.7,2.5c6.5,1.3,13,3,19.6,3.8c-0.1-1-0.3-2-0.4-2.9c-12.6,2.8-25.4,4.9-38.2,6.4
						c-5.2,0.6-10.4,1.2-15.7,1.4c-2.8,0.1-6.3,0.5-8.9-0.6c-1.8-0.7-2.6,2.2-0.8,2.9c2.6,1.1,6,0.8,8.7,0.7
						c5.6-0.2,11.1-0.7,16.7-1.4c13.1-1.5,26.1-3.7,39-6.5c1.8-0.4,1.2-2.8-0.4-2.9c-6.3-0.7-12.6-2.4-18.8-3.6
						c0.2,0.8,0.4,1.7,0.7,2.5c0.8-0.8,2.3-1.7,2.5-2.8c0.2-0.7-0.2-1.7-1-1.8c-7.5-1.5-15.8-1.1-23.3,0c0.6,0.5,1.3,1,1.9,1.4
						c-0.7-5.9-2.1-6.9-7.7-7.4c-5.9-0.5-12.5-0.1-18.2,1.9c-3.7,1.3-6.9,3.4-6.4,7.7c0.4,3.9,2.8,9.3,5.8,11.9
						C111.8,32.3,114,30.2,112.5,29z"/>
				</g>
				<g>
					<path class="st6" d="M119.1,10.5c-4.4,4.2-6,13.2-5.4,19c0.2,1.9,3.2,1.9,3,0c-0.6-5,0.7-13.3,4.5-16.9
						C122.7,11.3,120.5,9.2,119.1,10.5L119.1,10.5z"/>
				</g>
				<g>
					<path class="st6" d="M129.5,11.9c-4.4,4.9-7,10.7-7.7,17.2c-0.2,1.9,2.8,1.9,3,0c0.6-5.7,3-10.9,6.8-15.1
						C132.9,12.6,130.8,10.5,129.5,11.9L129.5,11.9z"/>
				</g>
				<g>
					<path class="st6" d="M135.8,16.3c-3.5,2.8-4.9,8.1-5.4,12.3c-0.2,1.9,2.8,1.9,3,0c0.4-3.5,1.7-7.9,4.5-10.2
						C139.4,17.2,137.3,15.1,135.8,16.3L135.8,16.3z"/>
				</g>
				<g>
					<path class="st6" d="M147.1,15.4c-1.7,1.8-3,3.8-3.7,6.2c-0.6,1.9-1.7,5.1-1.3,7.1c0.2,1,1.4,1.4,2.2,0.9c0,0,0.1,0,0.1,0
						c0.7-0.4,0.9-1.3,0.5-2.1c0,0,0,0,0-0.1c-0.9-1.7-3.5-0.2-2.6,1.5c0,0,0,0,0,0.1c0.2-0.7,0.4-1.4,0.5-2.1c0,0-0.1,0-0.1,0
						c0.7,0.3,1.5,0.6,2.2,0.9c-0.1-0.6,0.5-2.1,0.6-2.8c0.2-0.8,0.3-1.6,0.5-2.3c0.6-2,1.5-3.8,3-5.3
						C150.6,16.1,148.5,14,147.1,15.4L147.1,15.4z"/>
				</g>
				<g>
					<path class="st6" d="M154.9,18.3c-2.4,2.5-3.7,5.5-4.1,8.9c-0.2,1.9,2.8,1.9,3,0c0.3-2.6,1.4-4.9,3.2-6.8
						C158.4,19.1,156.3,17,154.9,18.3L154.9,18.3z"/>
				</g>
			</g>
		</g>
	</g>
</g>
</svg>
