<?xml version="1.0" encoding="utf-8"?>
<!-- Generator: Adobe Illustrator 19.2.0, SVG Export Plug-In . SVG Version: 6.00 Build 0)  -->
<svg version="1.1" id="Layer_1" xmlns="http://www.w3.org/2000/svg" xmlns:xlink="http://www.w3.org/1999/xlink" x="0px" y="0px"
	 viewBox="0 0 440 470" style="enable-background:new 0 0 440 470;" xml:space="preserve">
<style type="text/css">
	.st0{fill:#7B3F4E;}
	.st1{fill:#5B2E38;}
	.st2{fill:#49232D;}
	.st3{fill:#D6C9B6;}
	.st4{fill:#381A1E;}
</style>
<g>
	<path class="st0" d="M218.6,352.5c-1.5,0-3.1-0.2-4.7-0.5c-12.7-2.5-24.6-10.2-34.9-17.2c-34-23.4-64.4-55.1-87-80
		C77.6,239,65.1,224,53.7,209.1c-8.2-10.7-17.5-23.2-25.1-36.8c-0.2-0.4-0.5-0.8-0.7-1.2c-2.2-3.9-3.5-6.4-2.5-9.8
		c1.7-5.6,6.1-10.6,9.9-15l0.7-0.8c7-8.1,14.9-15.5,22.5-22.7c3.2-3,6.5-6.2,9.8-9.3c3.9-3.8,2.2-8.9,0.7-13.4
		c-1.1-3.5-2.3-7-1.2-10c1.9-5.1,7.2-7.8,12.4-10.3c1.6-0.8,3.1-1.5,4.5-2.4c4.2-2.5,8.4-5.5,10.4-10.4c3.1-7.8,0.5-19.2-1.2-26.7
		c-0.3-1.5-0.7-2.9-1.1-4.2c-1-3.8-2-7.5-2.1-11.2c-0.1-4.6,1.2-9.2,4.3-14.6l0.2-0.3l0.1-0.3c0,0,0-0.1,0.1-0.1
		c6.7,7.2,14,14,21.8,20.3c35.2,28.8,76.6,47.9,112.6,63.6l0.6,0.3l0.6-0.3c8.1-3.4,16.5-8.6,26.4-16.5c14.1-11.1,28.3-25,44.7-43.7
		l2.5-2.9c7.4-8.4,15-17,21.2-26.6c0,0,0.1-0.1,0.1-0.1c4.1,9.8,5,21,5.4,31.7c0.4,10,0.1,20.3-0.8,30.4l-0.1,1.6l1.4,0.5
		c19.7,6.8,31,17.2,34.7,31.7l0.4,1.4c1.6,6.3,3,12.3,7.1,18.1c3.2,4.6,7,8.4,10.7,12.2l0.8,0.8c6.9,7,8.5,16,4.6,26.6l-0.7,1.9
		l2.3,1c0.3,0.1,0.6,0.2,1,0.4l0,0l3.1,1.8l0.1-0.1c-0.1,0.5-0.9,1.4-1.1,1.8c-0.2,0.3-0.4,0.5-0.5,0.7c-1.8,2.6-3.7,5.1-5.5,7.6
		l-0.1,0.1c-6.3,8.5-13.2,17.6-21.9,28.7c-24.2,31.1-46.1,57.7-67,81.5c-13.4,15.3-24.6,27.2-35.2,37.6
		c-8.4,8.3-18.3,17.7-28.9,24.8C229,350.7,223.9,352.5,218.6,352.5C218.6,352.5,218.6,352.5,218.6,352.5z"/>
	<g>
		<path class="st1" d="M208.2,85.8l-27.2-13.5L143.6,53l-32.1-21.7L92.3,17.9l-0.4-0.4c0,0.2,0,0.3,0,0.5
			c-0.6,5.7-0.8,11.5-0.9,17.3c1,1.1,1.8,2.6,2.1,4.4c0.5,2.9,0.9,5.7,1.1,8.5c0.8,6.2,1.6,12.4-0.2,18.4
			c-2.7,9.7-11.4,15.1-20.7,17.2c-1.8,1.3-3.6,2.5-5,4.3c-0.3,0.4-0.6,0.8-0.8,1.2c-0.3,0.6-0.7,1-1.1,1.5c0.1,1.7,0.3,3.3,0.7,4.9
			c1.6,6.8,4,12.9,0.1,19.5c-2.8,4.8-7.1,9-11.4,12.5c-2.8,2.3-6.1,5.1-9.7,7c-3.2,7-10.6,11.5-14.9,18.9c-0.8,1.3-2.8,1.9-4.2,2
			c0,0.9,0,0.9,0.1,1.7c0.3,4.5,0.5,9-0.6,13.3c1.1,1.1,1.9,2.5,2.5,4.2c1.5,0.8,2.8,2.1,3.5,3.8c3.1,6.9,7.4,13,11.8,19
			c3.5,4.8,7.5,11.2,10.7,15.2c6.7,8.6,17.1,15.1,20.7,25.7c18.9,20,40.5,41.2,54.1,48.5c2.3,1.2,0.5-7.2-3.1-10.8
			c-6.1-6.1-16.5-16.7-28.4-29.7c-17-26,4.1-78.8,47.4-69.8c14.8,3.1,21.2,14.2-2.9-8.6c-15.3-20.8,12.9-55.9,29.5-50
			c16.2,11.9,12.7,0,1.3-13.3c-6.3-7.4,0.1-24.6,9.6-23.8C225.2,99.1,208.2,85.8,208.2,85.8z"/>
		<path class="st1" d="M130.5,159.6c-15.2-10.6,83.3,87.7,115.6,89.6c18.9,1.1,23-12.3,19.5-13.2
			C221.1,224.1,170.4,187.5,130.5,159.6z"/>
		<path class="st1" d="M162.1,96.5c-2.6-1.8-0.5,9.8,9,20.5c2.6,2.9,62.1,53.1,83.3,56.1c30.6,4.3,48.8-8.5,44-9.8
			C273.6,156.4,206.4,127.2,162.1,96.5z"/>
		<path class="st1" d="M323,176.8l-20.3,17.7c0,0-18.1,20.8-18.9,24.9c-1.5,7.4,1.3,17.9,8.1,16.4c6.9-1.5,14.2-13.3,14.7-17.5
			c0.5-4.2,3.7-17,3.7-17l10.5-19.1L323,176.8z"/>
		<path class="st1" d="M233.1,93l11.7-6.5l21.1-16.1c0,0-5.5,10.6,5.4,25.5c7,9.6,29.5,19.6,49.1,22.4c20.4,2.9,44.9-6.7,42.9-15
			c-2-8.3,0.1-11.3,0.1-11.3l4,11.3l6.8,16.3c0,0-3.2,4.2-7.3,8.7c-4.1,4.5-0.1,12.7,2.9,14.8s19.7,9,21,5.6
			c1.3-3.5,3.3-0.2,3.3-0.2l-4.9,12.2l-8.2-3.1l-59.3-25.2l-51-22.5l-32-13.1L233.1,93z"/>
		<path class="st1" d="M308,217c0,0-2,6,0,6c1,0,22.7-24.5,44.4-35.3c4.2-2.1-0.1-9.6-0.1-9.6l-9.7,7.3l-24.8,19.3L308,217z"/>
		<path class="st1" d="M330.4,67.4c0,0-35.8-4.4-35.2-7.4s3.3-9.6,12.4-10.8c9.1-1.2,23.9,0,23.9,0L330.4,67.4z"/>
	</g>
	<path class="st2" d="M358.9,148.7c0,0-4,1.7-12.4-0.7c-22.8-6.3-130.9-50.5-166.8-68.8C145.7,62,121.4,48.7,114,43.3
		c-7.4-5.4-4.9,16.8-3.7,19.3c1.2,2.5,33.6,16.6,31.5,23.8c-2.1,7.2-6.5,11.9-9.1,10.5s-29-19.8-31.7-16.4
		c-2.8,3.4-18.6,25.3-13,36.3s20.8,17.2,23.8,18.8c3,1.6,0.4,12-4.5,13c-4.9,0.9-29-16.8-32.8-18.6c-3.9-1.8-16,24.8-14.7,38.8
		c3.8,42.8,83.7,125,106.4,147.8c3.9,3.9,5.8,12.9,3.3,11.6c-30.4-16.3-98.6-97.4-98.6-97.4l-29-37.4l-13.1-21.1l-3.5-9.2l5.8-11.5
		l10.8-12.3l15.8-15.2l12.7-12.1l0.4-6.4l-3.2-9.7l2.9-9l15.9-11.6l9-8.3l1.3-7l-1.9-10.8l-2.6-16.7l-0.3-10.9l2.9-10l6.4,3.5
		l28.3,23.9l20.6,14.4l35.2,19l41.9,19.7l28.8,11L358.9,148.7z"/>
	<polygon class="st3" points="306.5,217.3 310.3,200.9 317.5,185.5 327,174.4 339.5,162 347.4,168.3 352.3,178.1 340.6,186.9 
		323.8,198.8 313,207 	"/>
	<g>
		<g>
			<path class="st4" d="M93.8,11.4c29.7,31.7,68.4,53.3,107.2,71.7c50.4,23.9,102.7,43.6,154,65.4c7.6,3.2,15.1,6.5,22.7,9.8
				c3.6,1.6,7.1,3.1,10.7,4.7c0.8,0.4,1.8,1,2.7,1.2c0.3,0.1,0.6,0.3,0.9,0.4c0.7,0.7,1.1,0.6,1.3-0.3c-0.2,0,0.8-1.2,0.5-1
				c-1.2,1-2.1,3.1-3,4.4c-5.4,7.5-10.9,14.8-16.5,22.1c-19.5,25.5-39.5,50.5-60.3,75c-20.6,24.3-41.7,48.7-65.7,69.7
				c-7,6.1-15.1,13.4-24.1,16.2c-9,2.8-19.8-2.6-27.5-6.6c-14.3-7.5-27.3-17.5-39.6-27.9c-15-12.6-29.3-26.1-43-40.1
				c-26.2-26.8-51.4-55.4-72.7-86.3c-3.7-5.4-7.3-10.9-10.5-16.7c-2.5-4.4-5-7.7-2.7-12.6c3.3-6.8,8.8-12.6,13.9-18
				c5.8-6.2,11.9-12.2,18.1-18c3.5-3.3,7.9-6.5,10.9-10.3c6.1-7.9-6.2-17-0.2-24.8c5-6.5,14.7-8.3,20.7-13.7
				c8.7-7.7,6.8-19.3,5.2-29.7c-0.9-5.6-2.7-10.9-3.7-16.4c-1.2-6.7,0.6-12.4,3.9-18.3c1.3-2.2-2.2-4.3-3.5-2
				c-2.8,4.8-4.9,10-4.9,15.6c0,5.1,1.6,10,2.8,14.9c1.7,7,3.3,14.9,2.8,22.1c-0.5,6.3-4,10.3-9.1,13.6c-6.3,4-15.6,6.6-18.9,13.9
				c-1.9,4.2-0.8,8.4,0.7,12.5c1.5,4,3,7.8,0.1,10.7c-10.9,10.7-22.5,20.7-32.5,32.3c-4.2,4.9-9.3,10.5-11.2,16.8
				c-1.4,4.8,1.4,8.8,3.7,12.8c7.2,13,16.2,25.1,25.2,36.9c12,15.5,24.6,30.5,37.8,45c26.3,29,54.5,57.6,86.8,80.1
				c10.7,7.5,22.6,15.1,35.6,18c8.6,1.9,15.3-0.2,22.6-4.8c10.4-6.6,19.7-15.3,28.5-23.9c11.9-11.5,23.2-23.7,34.2-36.1
				c23.3-26.2,45.4-53.4,66.9-80.9c7.8-9.9,15.5-19.9,23-30c2.3-3.1,4.6-6.1,6.8-9.2c0.9-1.2,2.4-2.7,2.9-4.2
				c0.9-2.6-1.1-3.1-3.4-4.1c-7.7-3.4-15.3-6.8-23-10.1c-14.6-6.3-29.2-12.5-43.9-18.5c-27.3-11.3-54.7-22.3-81.9-33.9
				c-43.9-18.8-89-38.8-126.3-69.3c-7.8-6.4-15.2-13.3-22.1-20.6C94.9,6.7,92.1,9.5,93.8,11.4L93.8,11.4z"/>
		</g>
		<g>
			<path class="st4" d="M308.9,217.2c0.1-12.9,7-25,14.4-35.1c3.4-4.6,7.1-9,11-13c1.2-1.2,2.5-2.5,3.8-3.6c0.6-0.5,2.2-1.6,1.9-1.6
				c0,0,2.7,2.9,3.3,3.6c1.7,2,3.2,4.2,4.6,6.5c0.9,1.4,1.7,2.8,2.4,4.2c-0.2-0.5,0.8-1.5,0.1-0.9c-0.4,0.3-0.8,0.7-1.2,1
				c-7.3,5.6-14.9,10.7-22.2,16.3c-7.8,6-17.5,12.7-22.1,21.7c-1.2,2.3,2.3,4.3,3.5,2c5.1-10,16.9-17.6,25.7-24.1
				c4.5-3.3,9-6.6,13.5-9.8c1.8-1.3,5.5-3.1,6.5-5.2c1.3-2.7-2.4-6.8-3.7-8.9c-2.1-3.2-5.2-8.7-9.1-10c-2.6-0.9-4.5,1.2-6.3,2.8
				c-4,3.6-7.6,7.6-10.9,11.8c-9.6,11.9-18.9,26.5-19,42.4C304.9,219.8,308.9,219.8,308.9,217.2L308.9,217.2z"/>
		</g>
		<g>
			<path class="st4" d="M391.7,160.1c3.7-10,3.4-20.4-4.3-28.3c-3.9-4-8-7.9-11.3-12.5c-4.1-5.7-6-11.6-7.4-18.4
				c-4.5-21-24.5-31.4-43.4-36.7c-9.7-2.7-19.7-4.2-29.5-6.2c-2.5-0.5-3.6,3.3-1.1,3.9c17.2,3.6,35.1,5.6,50.5,14.6
				c8.6,5,15.8,12.4,18.8,22.1c1.7,5.4,2.1,10.8,4.6,16c2.3,4.8,5.6,9,9.1,12.9c3.1,3.4,7.1,6.5,9.7,10.3c4.4,6.3,2.9,14.6,0.5,21.3
				C387,161.5,390.8,162.5,391.7,160.1L391.7,160.1z"/>
		</g>
		<g>
			<path class="st4" d="M332.1,70.5c1.2-11.3,1.6-22.7,1.2-34c-0.4-11-1.2-22.7-5.6-32.9c-0.7-1.6-2.7-2-3.7-0.5
				c-9.7,15-22.6,28.7-34.8,41.7c-17,18.1-36.5,38.1-59.9,47.7c-2.4,1-1.3,4.8,1.1,3.9c18.1-7.4,33.6-21,47.5-34.4
				c14.1-13.6,27.3-28.2,39.5-43.5c3.4-4.3,7-8.6,10-13.3c-1.2-0.2-2.4-0.3-3.7-0.5c4.4,10.4,5.1,22.2,5.5,33.3
				c0.3,10.9-0.1,21.8-1.3,32.5C327.8,73,331.8,73,332.1,70.5L332.1,70.5z"/>
		</g>
		<g>
			<path class="st4" d="M351.2,136.7c-0.3-7.3,2.2-12.7,6.7-18.3c1.6-2-1.2-4.8-2.8-2.8c-5.2,6.6-8.2,12.7-7.9,21.2
				C347.3,139.3,351.3,139.3,351.2,136.7L351.2,136.7z"/>
		</g>
		<g>
			<path class="st4" d="M357.8,137.9c-0.6-4.5,0.8-8.6,3.3-12.3c1.5-2.1-2-4.1-3.5-2c-3.2,4.6-4.5,9.8-3.7,15.4
				C354.3,141.5,358.2,140.5,357.8,137.9L357.8,137.9z"/>
		</g>
		<g>
			<path class="st4" d="M300.2,56.4c4.7-1,9.4-0.7,14,0.8c2.4,0.8,3.5-3,1.1-3.9c-5.2-1.8-10.7-2-16.1-0.8
				C296.7,53.1,297.7,57,300.2,56.4L300.2,56.4z"/>
		</g>
		<g>
			<path class="st4" d="M77.1,116.5c7.7,7.7,16.3,14.3,25.7,19.9c2.2,1.3,4.2-2.1,2-3.5c-9.1-5.4-17.4-11.8-24.9-19.3
				C78.1,111.9,75.3,114.7,77.1,116.5L77.1,116.5z"/>
		</g>
		<g>
			<path class="st4" d="M73.6,125.6c5.1,4.7,10.8,8.8,16.9,12.2c2.3,1.2,4.3-2.2,2-3.5c-5.9-3.2-11.2-7-16.1-11.6
				C74.5,121,71.7,123.8,73.6,125.6L73.6,125.6z"/>
		</g>
		<g>
			<path class="st4" d="M102.7,75.4c9.6,2.1,18,6.8,25,13.7c1.8,1.8,4.7-1,2.8-2.8c-7.4-7.4-16.5-12.6-26.8-14.7
				C101.3,71,100.2,74.9,102.7,75.4L102.7,75.4z"/>
		</g>
		<g>
			<path class="st4" d="M103.8,66.1c5.5-0.3,10.3,1.8,14.1,5.7c1.8,1.8,4.6-1,2.8-2.8c-4.5-4.6-10.5-7.2-17-6.9
				C101.2,62.3,101.2,66.3,103.8,66.1L103.8,66.1z"/>
		</g>
		<g>
			<path class="st4" d="M329.9,166.2c-8.3,9.9-18.2,17.8-28,26.2c-8.6,7.4-16.1,15.7-20.2,26.4c-0.9,2.4,2.9,3.4,3.9,1.1
				c4.2-11,12.6-19.1,21.4-26.6c9.1-7.7,18-15.2,25.7-24.3C334.4,167,331.6,164.2,329.9,166.2L329.9,166.2z"/>
		</g>
		<g>
			<path class="st4" d="M198.4,208c9.8,7.1,19.8,13.8,30.2,20c1.7,1,3.2-1.6,1.5-2.6c-10.4-6.2-20.4-12.9-30.2-20
				C198.3,204.3,196.9,206.9,198.4,208L198.4,208z"/>
		</g>
		<g>
			<path class="st4" d="M189.3,210.5c9,8.3,18.7,15.6,29.2,21.9c1.7,1,3.2-1.6,1.5-2.6c-10.3-6.1-19.8-13.3-28.6-21.4
				C190.1,207,187.9,209.1,189.3,210.5L189.3,210.5z"/>
		</g>
		<g>
			<path class="st4" d="M213.7,140.6c6.6,5.2,13.7,9.7,21.4,13.1c1.7,0.8,3.3-1.8,1.5-2.6c-7.5-3.4-14.4-7.6-20.8-12.7
				C214.3,137.3,212.2,139.4,213.7,140.6L213.7,140.6z"/>
		</g>
		<g>
			<path class="st4" d="M220.4,135.9c15.5,11.9,32.9,21,51.6,26.7c1.9,0.6,2.6-2.3,0.8-2.9c-18.5-5.6-35.5-14.6-50.9-26.4
				C220.4,132.1,218.9,134.7,220.4,135.9L220.4,135.9z"/>
		</g>
	</g>
</g>
</svg>
