<?xml version="1.0" encoding="utf-8"?>
<!-- Generator: Adobe Illustrator 19.2.0, SVG Export Plug-In . SVG Version: 6.00 Build 0)  -->
<svg version="1.1" id="Layer_1" xmlns="http://www.w3.org/2000/svg" xmlns:xlink="http://www.w3.org/1999/xlink" x="0px" y="0px"
	 viewBox="0 0 358 342.5" style="enable-background:new 0 0 358 342.5;" xml:space="preserve">
<style type="text/css">
	.st0{fill:#F9BE72;}
	.st1{fill:#D88A3D;}
	.st2{fill:#9B581C;}
</style>
<g>
	<path class="st0" d="M61.1,304.3l-10.4-53.4l-3.5-24.4L38,205.9l3.4-15.4l-4.5-5.4l4.1-19l-4.1-14.2l7.3-7.5l-6.4-18.1l14.8-3
		l-6.8-17.8l12.4-2.7l27.4,8l6.2,4.8l6.1-12.8l13.4-20.2l17-15.9l19.3-11.9L146,70.7l20.2-13.9l18.1-7.7l13.7-4.2l-4.7,10.6
		l-8.9,16.8l7.3-3.3l10.2-6.3l14.3-6.3l17.4-4.2L223.9,67l7.5-3.5l21.5-10.9l16.6-7.3l-5.7,16.2l8.7-8.3l7-4.7c0,0-4.5,16.4-4,15.3
		c0.5-1.1,5.8-7.9,5.8-7.9l-2.7,33.2l20.5-8.3l2.3,6.2c0,0-4,11.1-5.2,11.9s7.4,0.6,7.4,0.6l7-3.2l-0.8,10.2l-2.5,13.1l6.8-1.4
		c0,0-3.3,15.7-3.5,16.4c-0.2,0.7,1.6,6.1,1.6,6.1l-6,14.1l4.2-2l2.3-2l0.5,8l-3.7,13.2l-9.2,9.4l6-5l3-0.5v7.6l-10.5,14.8l5.1-0.1
		l6.9,2.2l-6.9,6l-0.4,7.5l-1,9.1l-3.7,10.9l0.6,12.2l-6.6,47.6l-5-23.1l-2.9-2.3l2.9-22.5l-3.1-6.3v-10.3l-2.7-3.9l0.3-13.4
		l-5.1,2.2l-0.3-12.2l-2.8-1.3l-4-23l-7.4-5.7l-5.4,2.4l-7.3-7.1l-4.2,2.6l-5-7.8l-6.3,4.7l-5.2-9.1l-13,8.7l-9.1-8.5l-7.1,6.6
		l-4.1-5.1v-4.8l-15.3,10.3l-5-4.1v-7.5l-16.2,10.8l-1.3-9.5L138.8,167l-0.8-8.5l-13.4,13.5l-14.9,0.3l-5.9-1.5l-18.6,18.7l1.4,3.7
		l-6.4,11.1L76,225.1l-9.5,37l-3.1,31.3L61.1,304.3z"/>
	<g>
		<path class="st1" d="M41.2,192.6l10,1.2l16.4,5.7l11.4,5.6l0.8,2.9l-6.4,16.1l2.1,3.4l-4.3,10.9l2.7,3.3l-4.9,6.9l2.2,2.1
			l-4.8,7.8v5.9l-2,4.9l-3.3,35c0,0-2.4-7.6-2.5-8.1c-0.1-0.4-11.9-65-11.9-65s-8.5-25.2-8.6-26.2C38.1,204.1,41.2,192.6,41.2,192.6
			z"/>
		<polygon class="st1" points="39.7,123.3 67.7,151.9 70.3,158.8 47.3,147.3 44.5,145.4 37.7,126.3 		"/>
		<path class="st1" d="M41.3,161.9l8.9,3l13.7,7.1l10,7.6L86,191l-4.7,9.7l-9.4-5.9l-14.4-7.5c0,0-12.3-3.5-13.5-3.5
			c-1.2,0-7.3,0-7.3,0l3.6-11.7L41.3,161.9z"/>
		<path class="st1" d="M93.2,114.9l12.2,17.2l0-8.7c0,0,2-27.8,3-28.4c1-0.6,8.9-15.2,8.9-15.2l5-8.9l-13.9,14.6
			c0,0-10.1,15.6-10.3,17.5C97.9,104.8,93.2,114.9,93.2,114.9z"/>
		<path class="st1" d="M124.7,170.7c0,0,16.9-32.8,42.8-65.3c32.8-41.1,66-53.2,66-53.2l-14.6,20.1l-42,43.8l-38.3,40.5L124.7,170.7
			z"/>
		<polygon class="st1" points="160.8,152.9 158.2,159.6 159.1,164.7 166.6,159.6 178.1,152.4 210.3,127.6 229.3,107.6 235.3,100.4 
			221.2,109.5 190.2,133.9 		"/>
		<path class="st1" d="M197.1,153l9.2-7.4l12-10.7L251,104l-13.8,21.3l-29.2,31.2l-7.9,8.1c0,0-4.1-2.6-4.1-3.9S197.1,153,197.1,153
			z"/>
		<polygon class="st1" points="239,161.9 249.9,152.9 268.5,136.7 284.6,118.2 296.7,101.1 303.6,98.3 309.2,94.7 304.9,106.9 
			296,123.8 280.2,144.4 260.9,159.6 246.4,170.1 		"/>
		<path class="st1" d="M262.5,172.2l6,7l9.7-7l20.4-17.3c0,0,6.3-13.9,8-13.4s2.7-4.6,2.7-4.6l-12.1,6.7l-12.6,7.4L262.5,172.2z"/>
		<path class="st1" d="M275.8,192.5c0.8-0.7,9.2-8.4,9.2-8.4l11.9-13.5l11-15.8l3.9-2.9l1.2,7l-5.8,16.1l-8.8,10.7l-21,15.2
			l-3.7-0.1L275.8,192.5z"/>
		<polygon class="st1" points="280.6,212.8 281.8,221.9 284.4,229.4 287.5,246 284.1,259.4 284.4,266.4 287.9,272.6 291.7,292.9 
			294,283.9 298.9,248.4 298.9,240.7 301.1,227.9 303.6,209.6 309.2,202.3 300.1,198.3 290,207.5 		"/>
		<path class="st1" d="M138.8,166c0,0,43.3-42.5,71.8-70.2c27.9-27.1,60.2-50.8,60.2-50.8l-7.3,17.8L242,92.6l-23.8,20l-31.5,23.7
			l-28.6,18.5L138.8,166z"/>
		<path class="st1" d="M229.1,156.7l14-11l18.4-23l11.3-19.2l4.4-21.7l4.1,4.5l16.1-5c0,0-5.5,11.8-16.8,30
			c-14.5,23.2-47.2,54-47.2,54L229.1,156.7z"/>
	</g>
	<g>
		<g>
			<g>
				<path class="st2" d="M160.1,166.4c24.9-15.1,47.6-34.4,67.9-55.3c18-18.5,37.4-40.3,44.8-65.6c0.4-1.4-1-2.9-2.5-2.5
					c-20.6,6.6-41.5,16.6-57.7,31.3c-1.9,1.7,0.9,4.6,2.8,2.8c15.6-14.2,36-23.9,55.9-30.3c-0.8-0.8-1.6-1.6-2.5-2.5
					c-7.4,25.1-26.9,46.7-44.8,64.9c-19.8,20.2-41.8,38.9-66,53.6C155.9,164.3,157.9,167.7,160.1,166.4L160.1,166.4z"/>
			</g>
			<g>
				<path class="st2" d="M125.9,174.2c32.6-35.1,65.2-70.2,97.4-105.7c4.6-5.1,9.5-10,13.7-15.5c0.9-1.1-0.3-3.2-1.7-3
					c-20.7,2.7-39.6,11.7-55,25.7c1,0.8,2.1,1.6,3.1,2.4c6.3-10.7,11.9-21.7,16.7-33.1c0.6-1.5-0.4-3.5-2.3-2.9
					c-19.5,6.1-37.7,15.8-53.3,28.9c1.1,0.5,2.3,0.9,3.4,1.4c0.4-5.9,1.4-11.8,2.9-17.5c0.4-1.4-1-2.9-2.5-2.5
					c-13.8,4.1-25.5,14-34.9,24.6c-9.9,11.1-18.5,24.4-22.1,39c-0.6,2.5,3.2,3.6,3.9,1.1c3.5-13.9,11.6-26.6,21.1-37.2
					c9-10.1,20.1-19.7,33.2-23.6c-0.8-0.8-1.6-1.6-2.5-2.5c-1.5,6.1-2.5,12.3-3,18.6c-0.1,1.9,2.2,2.4,3.4,1.4
					c15.1-12.7,32.8-22,51.6-27.9c-0.8-1-1.5-2-2.3-2.9c-4.9,11.4-10.4,22.4-16.7,33.1c-1.2,2,1.5,3.9,3.1,2.4
					c14.5-13.3,32.6-22,52.2-24.6c-0.6-1-1.2-2-1.7-3c-2.7,3.6-7.7,8.8-11.3,12.7c-7.8,8.7-15.7,17.3-23.7,25.9
					c-18.5,20.1-37,40.2-55.6,60.3c-6.6,7.2-13.3,14.3-19.9,21.5C121.3,173.3,124.1,176.1,125.9,174.2L125.9,174.2z"/>
			</g>
			<g>
				<path class="st2" d="M94.2,114.8c-14-9.1-33.9-15.9-50.4-10.8c-1.8,0.5-1.8,2.7-0.5,3.7c5.2,3.8,6.2,10.7,7.4,16.7
					c0.8-0.8,1.6-1.6,2.5-2.5c-5.6-1.3-11.7-0.9-16.4,2.7c-0.8,0.6-1.4,1.8-0.7,2.7c2.3,3.3,3.9,7.3,5,11.2c0.5,1.5,1.8,4.4,1.3,5.9
					c-0.4,1.3-3.6,3.3-4.5,4.8c-3.2,5,0.6,11.1,1.1,16.5c0.3,3.7-1,6.8-2,10.3c-0.7,2.4-2.4,6.1-2.1,8.8c0.3,2.2,2.4,2.8,3.5,4.6
					c1.6,2.6-0.1,5-0.9,7.5c-0.7,2.4-1.6,5.5-1.5,8.1c0.2,3,3,6.4,4.1,9.4c1.8,5.3,3.2,10.7,4.4,16.2c3.3,14.1,5.7,28.3,8.2,42.5
					c1.9,11,3.2,22.3,5.9,33.2c0.6,2.5,4.5,1.4,3.9-1.1c-5-20.4-7.1-41.7-11.2-62.3c-2.1-10.5-4.1-21.4-8-31.5
					c-0.5-1.4-1.1-2.8-1.8-4.1c-1.2-2.2-1.9-2.2-1.2-4.7c0.7-2.5,1-5,2-7.5c0.4-1.1,1.1-2.3,1.2-3.6c0.1-2.7-2-4.8-3.8-6.6
					c-1.3-1.3-1.1-0.6-0.5-2.5c0.6-1.8,1-3.7,1.5-5.5c0.9-3,2.2-6.1,2.3-9.2c0.1-3.4-0.7-6.8-1.5-10.1c-0.3-1.2-1.1-2.9-1.1-4.1
					c0-2.7,2.9-5.1,5-6.6c0.5-0.4,1.1-1,1-1.7c-0.8-6.9-3.1-14.3-7-20.1c-0.2,0.9-0.5,1.8-0.7,2.7c3.9-2.9,8.6-3.4,13.3-2.3
					c1.6,0.4,2.8-1,2.5-2.5c-1.4-7.3-2.9-14.5-9.2-19.1c-0.2,1.2-0.3,2.4-0.5,3.7c15.5-4.8,34.2,1.9,47.3,10.4
					C94.4,119.7,96.4,116.2,94.2,114.8L94.2,114.8z"/>
			</g>
			<g>
				<path class="st2" d="M248.2,168.4c1.9,3.2,4.1,6.4,7.4,8.3c0.8,0.5,1.7,0.2,2.4-0.3c26.5-21.7,58.1-46,54.1-84.2
					c-0.2-1.6-2.2-2.9-3.4-1.4c-2.9,3.4-8.5,7.5-13.1,8c0.6,1,1.2,2,1.7,3c3.4-6.5,5-14.3,3.7-21.6c-0.2-0.9-1.1-1.5-1.9-1.5
					c-7.7,0-17.8,2.6-23.3,8.3c1.1,0.6,2.2,1.3,3.3,1.9c3.6-11.1,5.4-22.6,5.2-34.2c0-1.8-2.1-2.5-3.4-1.4
					c-4.2,3.7-5.8,9.6-8.6,14.3c1.2,0.5,2.4,1,3.7,1.5c1.9-6.8,3.2-14,6.2-20.3c0.8-1.7-0.9-3.8-2.7-2.7
					c-7.9,4.7-13.8,11.6-19.3,18.9c-1.5,2.1,1.9,4.1,3.5,2c5-6.7,10.5-13.1,17.8-17.5c-0.9-0.9-1.8-1.8-2.7-2.7
					c-3.2,6.7-4.6,14.2-6.6,21.3c-0.6,2.2,2.5,3.5,3.7,1.5c2.6-4.4,4.1-10.1,8-13.5c-1.1-0.5-2.3-0.9-3.4-1.4
					c0.2,11.3-1.6,22.4-5,33.1c-0.6,1.9,2,3.4,3.3,1.9c4.7-4.9,13.8-7.2,20.4-7.2c-0.6-0.5-1.3-1-1.9-1.5c1.2,6.1-0.4,13-3.3,18.5
					c-0.6,1.2,0.1,3.2,1.7,3c5.8-0.7,12.1-4.9,15.9-9.2c-1.1-0.5-2.3-0.9-3.4-1.4c3.9,37.1-27.2,60.4-52.9,81.4
					c0.8-0.1,1.6-0.2,2.4-0.3c-2.6-1.6-4.4-4.3-5.9-6.9C250.3,164.1,246.9,166.1,248.2,168.4L248.2,168.4z"/>
			</g>
			<g>
				<path class="st2" d="M284.8,154.2c6.3-3.7,12.3-8,17.9-12.7c3.7-3,7.8-6.1,10.5-9.9c-1.2-0.3-2.5-0.7-3.7-1
					c1.3,10.2-2.6,20.2-7.6,28.9c-7.4,12.8-17.8,23.5-29.1,32.9c-2,1.6,0.9,4.5,2.8,2.8c11.9-9.9,22.8-21.3,30.4-34.9
					c5-8.9,8.8-19.4,7.5-29.7c-0.2-2-2.5-2.7-3.7-1c-2.5,3.5-6.6,6.4-9.9,9.1c-5.4,4.4-11.1,8.5-17.1,12
					C280.6,152.1,282.6,155.5,284.8,154.2L284.8,154.2z"/>
			</g>
			<g>
				<path class="st2" d="M300.9,186.1c3.7-2.7,7.1-5.5,9.9-9.1c-1.2-0.2-2.4-0.3-3.7-0.5c2.1,9.4-6.1,18.5-12.4,24.4
					c-3.3,3.1-7,6-10.8,8.4c-1.3,0.8-4.9,3.5-6.6,3.1c0.5,0.6,1,1.3,1.5,1.9c-0.1-3.2,0-6.4,0.3-9.7c0-0.4,0.3-3.4-0.4-2.2
					c0.1-0.1,0.4-0.2,0.5-0.3c0.9-1,2.9-1.7,4.1-2.4c5-3.1,9.8-6.5,14.2-10.5c11.3-10.1,19.1-23.5,17-39c-0.2-1.6-2.4-1.8-3.3-0.9
					c-2.4,2.2-5,4.2-7.5,6.3c-1.9,1.7,0.9,4.5,2.8,2.8c2.4-2.2,5-4.2,7.5-6.3c-1.1-0.3-2.2-0.6-3.3-0.9c2.2,16.4-8.7,30-21,39.3
					c-3.7,2.8-7.6,5.2-11.5,7.5c-4.8,2.9-3.5,11.1-3.3,16.1c0,0.9,0.6,1.7,1.5,1.9c2.7,0.7,6-1.4,8.3-2.7c4.7-2.7,9.1-6.2,13.1-9.9
					c7.5-7,15.9-17.2,13.4-28.3c-0.4-1.9-2.7-1.7-3.7-0.5c-2.3,3-5.4,5.4-8.5,7.6C296.8,184.2,298.8,187.6,300.9,186.1L300.9,186.1z
					"/>
			</g>
			<g>
				<path class="st2" d="M279.8,212.8c-1.9,6.4-1.1,11.9,1.9,17.7c0.7,1.4,2.7,1.2,3.5,0c7.6-11.1,16.4-19.2,26.8-27.6
					c1-0.8,0.7-2.6-0.4-3.1c-4.3-2-8.3-2.3-13-1.7c-2.5,0.3-2.5,4.3,0,4c3.8-0.5,7.3-0.5,11,1.2c-0.1-1-0.3-2.1-0.4-3.1
					c-10.7,8.5-19.6,17.4-27.4,28.4c1.2,0,2.3,0,3.5,0c-2.6-4-3.1-9.3-1.5-14.6C284.4,211.4,280.5,210.3,279.8,212.8L279.8,212.8z"
					/>
			</g>
			<g>
				<path class="st2" d="M283.6,227.4c-1,4-0.5,8.5,0,12.6c0.4,2.6,0.7,7,3.7,8c-0.5-0.8-0.9-1.6-1.4-2.5
					c-2.2,7.2-4.4,14.9-3.3,22.6c0.3,2,0.5,2.9,2.2,4c0.8,0.6,0.9-0.4,1.2,0c0.3,0.3,0.2,1.3,0.3,1.8c1.7,10.1,2.6,20.7,2.8,31
					c0.1,2.6,3.7,2.5,4,0c1.3-12.3,3.4-24.5,5.1-36.8c1.4-9.8,4.2-21.1,2.7-31c-0.3-2.2-3.2-1.6-3.9,0c-4.1,11-7.2,22.4-11.3,33.3
					c-0.9,2.4,3,3.6,3.9,1.2c4.1-11,7.2-22.2,11.3-33.2c-1.3,0-2.6,0-3.9,0c0.6,4-0.2,8.2-0.6,12.1c-0.7,6.8-1.6,13.7-2.6,20.5
					c-1.6,11.4-3.6,22.5-4.8,34.5c1.3,0,2.7,0,4,0c-0.2-10-1.3-20.6-2.7-30.5c-0.2-1.2-0.2-2.8-0.6-3.9c-0.5-1.2-1-1.2-1.8-2.1
					c-0.4-0.2-0.9-0.4-1.4-0.4c-0.1-0.9-0.2-1.8-0.2-2.8c-0.1-2.3,0-4.5,0.4-6.8c0.6-4.2,1.8-8.3,3.1-12.4c0.3-1.1-0.4-2.1-1.4-2.5
					c-0.2-0.1-1-6.3-1.1-7.5c-0.2-2.7-0.5-5.6,0.2-8.2C288.1,225.9,284.2,224.9,283.6,227.4L283.6,227.4z"/>
			</g>
			<g>
				<path class="st2" d="M300.5,239.5c2.6-9.8,4.3-19.7,5.2-29.9c0.2-2.6-3.8-2.6-4,0c-0.8,9.8-2.5,19.3-5,28.8
					C295.9,240.9,299.8,242,300.5,239.5L300.5,239.5z"/>
			</g>
			<g>
				<path class="st2" d="M91.8,118c14.2,15.6,24.7,34.3,30,54.8c0.6,2.5,4.5,1.4,3.9-1.1c-5.5-21.1-16.4-40.4-31-56.5
					C92.9,113.3,90.1,116.1,91.8,118L91.8,118z"/>
			</g>
			<g>
				<path class="st2" d="M125.7,172.2c-0.7-17.6,10.2-34.8,19.7-48.8c11-16.1,23.9-31.1,37.6-44.9c1.8-1.8-1-4.7-2.8-2.8
					c-14.3,14.4-27.7,30-39.1,46.9c-9.6,14.2-20.2,31.8-19.4,49.6C121.8,174.8,125.8,174.8,125.7,172.2L125.7,172.2z"/>
			</g>
			<g>
				<path class="st2" d="M115,144.4c0.3-27.5,16.5-52.1,33.9-72.3c1.7-1.9-1.1-4.8-2.8-2.8c-18.1,21-34.7,46.5-35.1,75.1
					C111,147,115,147,115,144.4L115,144.4z"/>
			</g>
			<g>
				<path class="st2" d="M121.1,69.3c-5.8,9.5-11.3,19.4-14.6,30.2c-3.2,10.8-3.7,22.1-2.7,33.3c0.2,2.5,4.2,2.6,4,0
					c-1-10.9-0.6-21.7,2.5-32.2c3.1-10.4,8.5-20,14.2-29.2C125.9,69.1,122.5,67.1,121.1,69.3L121.1,69.3z"/>
			</g>
			<g>
				<path class="st2" d="M139,169.1c20.1-10.5,38.8-24.3,57-37.8c21.3-15.9,43.2-32.7,60-53.5c1.6-2-1.2-4.8-2.8-2.8
					c-16.8,20.8-38.9,37.8-60.3,53.7c-17.8,13.2-36.2,26.7-55.9,37C134.7,166.8,136.8,170.3,139,169.1L139,169.1z"/>
			</g>
			<g>
				<path class="st2" d="M181.9,166.4c14-9.5,26.9-20.9,39.3-32.2c15.8-14.5,31.4-29.8,44-47.2c5.2-7.2,10.3-15,12.5-23.7
					c0.6-2.5-3.2-3.6-3.9-1.1c-4.2,16.8-18.2,31.4-29.6,43.7c-14,15.1-29.3,29.1-45.1,42.2c-6.2,5.2-12.6,10.3-19.2,14.8
					C177.8,164.4,179.8,167.8,181.9,166.4L181.9,166.4z"/>
			</g>
			<g>
				<path class="st2" d="M275.3,88c-6.7,31.9-33.6,59.7-60.1,77c-2.2,1.4-0.1,4.9,2,3.5c15.4-10,29.1-22.6,40.4-37
					c9.8-12.5,18.2-26.7,21.5-42.3C279.6,86.5,275.8,85.4,275.3,88L275.3,88z"/>
			</g>
			<g>
				<path class="st2" d="M201.4,166.8c24.9-26.8,54.4-53,69-87.4c1-2.3-2.5-4.4-3.5-2c-14.4,34.1-43.6,60-68.3,86.6
					C196.8,165.9,199.6,168.7,201.4,166.8L201.4,166.8z"/>
			</g>
			<g>
				<path class="st2" d="M235.7,168.4c23.2-19,47.8-39.3,61.6-66.6c1.2-2.3-2.3-4.3-3.5-2c-13.7,26.9-38,47-60.9,65.8
					C230.9,167.2,233.7,170,235.7,168.4L235.7,168.4z"/>
			</g>
			<g>
				<path class="st2" d="M247.4,171.8c13.1-9.4,26.4-18.7,37.5-30.6c12.8-13.7,21.8-30.1,26.8-48.1c0.7-2.5-3.2-3.5-3.9-1.1
					c-5,17.8-13.9,33.9-26.7,47.3c-10.7,11.2-23.2,20.1-35.8,29C243.3,169.8,245.3,173.3,247.4,171.8L247.4,171.8z"/>
			</g>
			<g>
				<path class="st2" d="M269.9,180.5c7.3-6.2,14.9-12.1,21.8-18.8c8.7-8.5,18.5-18.5,21.8-30.6c0.7-2.5-3.2-3.6-3.9-1.1
					c-3.3,12.2-13.7,22.2-22.6,30.5c-6.4,6-13.3,11.4-20,17.1C265.1,179.4,267.9,182.2,269.9,180.5L269.9,180.5z"/>
			</g>
		</g>
		<g>
			<path class="st2" d="M139.4,168c1.5-7.8,6.6-15,11.6-21c1.6-2-1.2-4.8-2.8-2.8c-5.4,6.5-11,14.2-12.7,22.7
				C135.1,169.5,138.9,170.5,139.4,168L139.4,168z"/>
		</g>
		<g>
			<path class="st2" d="M160.8,163.6c0.2,0.3,0.1-0.9,0.2-1.4c0.2-1,0.5-2,0.9-2.9c0.9-2.3,2.1-4.5,3.7-6.3c1.7-1.9-1.1-4.7-2.8-2.8
				c-2.3,2.5-3.9,5.5-5,8.7c-0.7,2.1-1.5,4.7-0.5,6.8C158.5,168,161.9,166,160.8,163.6L160.8,163.6z"/>
		</g>
		<g>
			<path class="st2" d="M181.1,162.8c-3.6-1.5-4.2-5.7-2.7-8.9c1.1-2.3-2.4-4.4-3.5-2c-2.6,5.7-1,12.3,5.1,14.8
				C182.5,167.6,183.5,163.8,181.1,162.8L181.1,162.8z"/>
		</g>
		<g>
			<path class="st2" d="M201.2,164.5c-3.6-4-4-7-1-11.5c1.4-2.2-2-4.2-3.5-2c-1.7,2.6-3.1,5.4-2.7,8.6c0.4,3.1,2.3,5.6,4.4,7.8
				C200.1,169.2,202.9,166.4,201.2,164.5L201.2,164.5z"/>
		</g>
		<g>
			<path class="st2" d="M216.6,165.1c-2.8-1.7-7.2-5.6-5-9.3c1.3-2.2-2.1-4.2-3.5-2c-3.4,5.7,1.7,11.9,6.5,14.7
				C216.8,169.9,218.8,166.5,216.6,165.1L216.6,165.1z"/>
		</g>
		<g>
			<path class="st2" d="M235.2,166.2c-1.7-2.3-3.7-5.5-4.2-8.3c-0.5-2.5-4.3-1.5-3.9,1.1c0.3,1.7,1.2,3.2,1.9,4.7
				c0.8,1.6,1.6,3.1,2.7,4.6C233.3,170.3,236.8,168.3,235.2,166.2L235.2,166.2z"/>
		</g>
		<g>
			<path class="st2" d="M247,168.7c-0.9-1-1.9-2-2.8-3.1c-0.3-0.5-0.7-0.9-0.9-1.4c-0.2-0.3-0.8-1.4-0.8-1.7
				c-0.5,0.5-0.9,0.9-1.4,1.4c0,0,0.1,0,0.1,0c-0.8-0.3-1.5-0.6-2.3-0.9c0,0,0,0,0,0.1c1.3,2.2,4.8,0.2,3.5-2c0,0,0,0,0-0.1
				c-0.5-0.8-1.4-1.1-2.3-0.9c0,0-0.1,0-0.1,0c-0.6,0.1-1.3,0.8-1.4,1.4c-0.8,4,3.2,7.5,5.5,10.2C245.9,173.5,248.7,170.7,247,168.7
				L247,168.7z"/>
		</g>
		<g>
			<path class="st2" d="M270.4,178.6c-1.1-3-4.5-5.1-6.2-7.4c-0.6-0.9-1.7-1.3-2.7-0.7c-0.9,0.5-1.4,1.9-0.7,2.7
				c1,1.3,2.1,2.5,3.3,3.6c0.6,0.6,1.2,1.2,1.7,1.8c0.2,0.2,0.4,0.5,0.6,0.7c0.1,0.1,0.4,0.8,0.2,0.3
				C267.4,182.1,271.3,181,270.4,178.6L270.4,178.6z"/>
		</g>
		<g>
			<path class="st2" d="M275.3,193.4c-1.3-4.3-2.9-8.7-2.8-13.3c0-2.6-4-2.6-4,0c-0.1,5,1.5,9.6,2.9,14.3
				C272.1,196.9,276,195.8,275.3,193.4L275.3,193.4z"/>
		</g>
		<g>
			<path class="st2" d="M276.2,202.3c0.1-2.7,0.1-5.4,0.2-8.1c0.1-2.6-3.9-2.6-4,0c-0.1,2.7-0.1,5.4-0.2,8.1
				C272.1,204.8,276.1,204.8,276.2,202.3L276.2,202.3z"/>
		</g>
		<g>
			<path class="st2" d="M288.9,247.7c6.6-6.6,11.7-16.7,15.2-25.3c1-2.4-2.9-3.4-3.9-1.1c-1.9,4.6-4.5,9-7.1,13.2
				c-2.1,3.5-4.2,7.4-7.1,10.3C284.3,246.7,287.1,249.5,288.9,247.7L288.9,247.7z"/>
		</g>
		<g>
			<path class="st2" d="M52,125.3c8.4,1.9,16.1,7.5,22.6,12.9c11.6,9.6,21.1,21.4,29.1,34.2c1.4,2.2,4.8,0.2,3.5-2
				c-8.4-13.4-18.4-25.8-30.7-35.8c-6.8-5.5-14.7-11.2-23.4-13.1C50.6,120.8,49.5,124.7,52,125.3L52,125.3z"/>
		</g>
		<g>
			<path class="st2" d="M44.1,147.6c16.4,5.4,31.4,15.3,41.4,29.5c1.5,2.1,4.9,0.1,3.5-2c-10.6-15.1-26.4-25.6-43.8-31.4
				C42.7,142.9,41.6,146.8,44.1,147.6L44.1,147.6z"/>
		</g>
		<g>
			<path class="st2" d="M39.4,127.1c3,1.5,5.7,4.6,8.1,6.9c5,4.8,9.9,9.7,14.6,14.8c9.9,10.6,20.3,21.8,27.3,34.6
				c1.2,2.3,4.7,0.2,3.5-2c-7.2-13.1-17.8-24.6-27.9-35.4c-4.8-5.2-9.8-10.3-15-15.1c-2.6-2.4-5.4-5.6-8.6-7.2
				C39.1,122.5,37.1,126,39.4,127.1L39.4,127.1z"/>
		</g>
		<g>
			<path class="st2" d="M41.3,163.9c7,0.3,15,6.2,20.7,9.8c8.2,5.2,16.5,11,22.6,18.7c1.6,2,4.4-0.8,2.8-2.8
				c-6.6-8.2-15.7-14.5-24.5-20c-6.1-3.8-14.1-9.3-21.6-9.7C38.7,159.8,38.7,163.8,41.3,163.9L41.3,163.9z"/>
		</g>
		<g>
			<path class="st2" d="M39.3,186.1c14-1.4,30.7,7.6,40.1,17.6c1.8,1.9,4.6-1,2.8-2.8c-10-10.7-27.9-20.3-42.9-18.7
				C36.8,182.3,36.8,186.3,39.3,186.1L39.3,186.1z"/>
		</g>
		<g>
			<path class="st2" d="M41.2,194.6c7-0.1,14.1,2.1,20.6,4.6c5.4,2.1,11.8,4.6,16.2,8.6c1.9,1.7,4.7-1.1,2.8-2.8
				c-4.6-4.3-10.9-6.8-16.7-9.1c-7.2-2.9-15-5.4-22.9-5.3C38.6,190.6,38.6,194.6,41.2,194.6L41.2,194.6z"/>
		</g>
		<g>
			<path class="st2" d="M39.2,208.4c12.9,4.3,24.7,11.5,34.9,20.5c1.9,1.7,4.8-1.1,2.8-2.8c-10.8-9.4-23.1-17-36.7-21.5
				C37.8,203.7,36.7,207.5,39.2,208.4L39.2,208.4z"/>
		</g>
		<g>
			<path class="st2" d="M43.6,222.8c10.6,3.8,21.3,12.1,28.9,20.3c1.8,1.9,4.6-1,2.8-2.8c-8.1-8.7-19.5-17.3-30.7-21.3
				C42.2,218.1,41.2,221.9,43.6,222.8L43.6,222.8z"/>
		</g>
		<g>
			<path class="st2" d="M46.3,235.5c8.5,3.7,17,10,23.5,16.5c1.8,1.8,4.7-1,2.8-2.8c-6.8-6.7-15.6-13.3-24.3-17.1
				C45.9,231.1,43.9,234.5,46.3,235.5L46.3,235.5z"/>
		</g>
		<g>
			<path class="st2" d="M49.2,249.3c5.7,2.7,11.4,6,15.8,10.6c1.8,1.9,4.6-1,2.8-2.8c-4.6-4.8-10.6-8.4-16.6-11.2
				C49,244.8,46.9,248.2,49.2,249.3L49.2,249.3z"/>
		</g>
		<g>
			<path class="st2" d="M52.3,265.4c3.5,2.4,7.2,4.3,11.1,5.8c2.4,0.9,3.4-2.9,1.1-3.9c-3.6-1.4-7-3.3-10.2-5.4
				C52.2,260.5,50.2,264,52.3,265.4L52.3,265.4z"/>
		</g>
		<g>
			<path class="st2" d="M305.9,126c3.8-2.7,6.8-6.4,10.1-9.7c-1.1-0.5-2.3-0.9-3.4-1.4c0,6-1.5,11.6-3,17.3
				c-0.7,2.5,3.2,3.6,3.9,1.1c1.6-6.1,3.2-12.1,3.2-18.4c0-1.7-2.2-2.6-3.4-1.4c-3.1,3-5.9,6.5-9.3,9
				C301.8,124,303.8,127.5,305.9,126L305.9,126z"/>
		</g>
		<g>
			<path class="st2" d="M62.9,270.9c-0.3,12-1.1,24-2.4,36c-0.2,1.9,2.8,1.9,3,0c1.3-12,2.1-24,2.4-36C66,269,63,269,62.9,270.9
				L62.9,270.9z"/>
		</g>
		<g>
			<path class="st2" d="M65.7,270.1c2.1-3.1,2.9-7.2,2.5-10.9c-0.2-1.9-3.2-1.9-3,0c0.3,3.2-0.3,6.7-2.1,9.3
				C62,270.2,64.6,271.7,65.7,270.1L65.7,270.1z"/>
		</g>
		<g>
			<path class="st2" d="M67.9,258.4c1.1-1.1,2-2.4,2.8-3.7c0.7-1.1,1.6-2.4,2-3.7c0.5-1.9-2.4-2.7-2.9-0.8c-0.3,1.1-1.1,2.1-1.7,3
				c-0.7,1.1-1.4,2.2-2.3,3.1C64.4,257.7,66.5,259.8,67.9,258.4L67.9,258.4z"/>
		</g>
		<g>
			<path class="st2" d="M71.1,248.3c1.5-1.9,2.9-3.8,4.1-5.9c1-1.7-1.6-3.2-2.6-1.5c-1.1,1.9-2.3,3.6-3.7,5.3
				C67.7,247.7,69.8,249.8,71.1,248.3L71.1,248.3z"/>
		</g>
		<g>
			<path class="st2" d="M72.5,239.1c1.8-3.5,3.3-7.1,4.5-10.8c0.6-1.8-2.3-2.6-2.9-0.8c-1.1,3.5-2.6,6.9-4.2,10.1
				C69,239.3,71.6,240.9,72.5,239.1L72.5,239.1z"/>
		</g>
		<g>
			<path class="st2" d="M76,224.8c2.2-5.1,5-11.2,5.3-16.8c-0.2,0.4-0.5,0.9-0.7,1.3c-0.2,0-0.4,0.1-0.6,0.1c1.9,0,1.9-3,0-3
				c-2.1,0.1-2,3.3-2.4,4.8c-1.1,4.1-2.5,8.2-4.2,12.1C72.6,225.1,75.2,226.6,76,224.8L76,224.8z"/>
		</g>
		<g>
			<path class="st2" d="M81.2,206.2c0.5-0.7,0.9-1.4,1.4-2.1c0.5-0.7,0.1-1.7-0.5-2.1c-0.7-0.4-1.6-0.1-2.1,0.5
				c-0.5,0.7-0.9,1.4-1.4,2.1c-0.5,0.7-0.1,1.7,0.5,2.1C79.9,207.2,80.8,206.9,81.2,206.2L81.2,206.2z"/>
		</g>
		<g>
			<path class="st2" d="M81.9,202.4c2.5-3.5,5-7,7.2-10.7c1-1.7-1.6-3.2-2.6-1.5c-2.1,3.7-4.6,7.2-7.2,10.7
				C78.2,202.5,80.8,204,81.9,202.4L81.9,202.4z"/>
		</g>
		<g>
			<path class="st2" d="M86.6,189.6c1.8-1.5,3.5-3.2,4.9-5.1c0.5-0.6,0.6-1.5,0-2.1c-0.5-0.5-1.6-0.6-2.1,0
				c-1.5,1.8-3.1,3.5-4.9,5.1C82.9,188.8,85.1,190.9,86.6,189.6L86.6,189.6z"/>
		</g>
		<g>
			<path class="st2" d="M92.3,182.2c2.3-1.5,4.5-3.1,6.5-4.9c2-1.7,3.7-3.7,5.6-5.5c1.4-1.3-0.7-3.4-2.1-2.1c-1.7,1.6-3.2,3.4-4.9,5
				c-2.1,1.8-4.3,3.5-6.6,5C89.2,180.7,90.7,183.3,92.3,182.2L92.3,182.2z"/>
		</g>
		<g>
			<path class="st2" d="M104.9,172.7c6,0.8,13.2,2.5,19.2,1.2c1.9-0.4,1.1-3.3-0.8-2.9c-5.6,1.2-12.8-0.6-18.4-1.3
				C103,169.4,103.1,172.4,104.9,172.7L104.9,172.7z"/>
		</g>
		<g>
			<path class="st2" d="M120.9,155c0.6-14.7,4.9-28.7,12.6-41.2c1-1.7-1.6-3.2-2.6-1.5c-8,13-12.4,27.5-13,42.7
				C117.8,157,120.8,157,120.9,155L120.9,155z"/>
		</g>
		<g>
			<path class="st2" d="M151.8,89.1c2.7-3.4,5.6-6.6,8.7-9.6c1.4-1.3-0.7-3.4-2.1-2.1c-3.2,3-6.1,6.2-8.7,9.6
				C148.5,88.4,150.6,90.6,151.8,89.1L151.8,89.1z"/>
		</g>
		<g>
			<path class="st2" d="M183.2,59c1.9-1.7,3.9-3.5,5.7-5.4c1.7-1.6,3.7-4.7,6-5.3c-0.6-0.5-1.3-1-1.9-1.4c0,0,0,0,0,0.1
				c0.6-0.5,1.3-1,1.9-1.4c0,0,0,0-0.1,0c-1.9-0.4-2.7,2.5-0.8,2.9c0,0,0,0,0.1,0c0.9,0.2,1.9-0.4,1.9-1.4c0,0,0,0,0-0.1
				c0-1-1-1.7-1.9-1.4c-2.6,0.7-4.2,3-6,4.8c-2.3,2.3-4.6,4.5-7,6.7C179.7,58.2,181.8,60.3,183.2,59L183.2,59z"/>
		</g>
		<g>
			<path class="st2" d="M174.3,65.9c1.9,0,1.9-3,0-3C172.4,62.9,172.4,65.9,174.3,65.9L174.3,65.9z"/>
		</g>
		<g>
			<path class="st2" d="M140.9,96.5c-1.7,2.1-3.2,4.4-4.4,6.8c-0.9,1.7,1.7,3.2,2.6,1.5c1.1-2.2,2.4-4.3,3.9-6.2
				C144.3,97.1,142.1,95,140.9,96.5L140.9,96.5z"/>
		</g>
		<g>
			<path class="st2" d="M48.1,107.2c6.3,1.1,11.8,4.7,17.1,8.1c5.5,3.6,10.8,7.5,15.8,11.8c1.5,1.3,3.6-0.9,2.1-2.1
				c-5.2-4.5-10.6-8.6-16.4-12.3c-5.5-3.5-11.3-7.3-17.8-8.4C47,104,46.2,106.9,48.1,107.2L48.1,107.2z"/>
		</g>
		<g>
			<path class="st2" d="M86.8,133c2.5,2.1,4.8,4.4,6.7,7.1c1.1,1.6,3.7,0.1,2.6-1.5c-2.1-2.9-4.4-5.4-7.2-7.7
				C87.4,129.7,85.3,131.8,86.8,133L86.8,133z"/>
		</g>
		<g>
			<path class="st2" d="M100.3,147.6c6.1,8,11.7,16.4,16.7,25.2c1,1.7,3.6,0.2,2.6-1.5c-5-8.8-10.6-17.2-16.7-25.2
				C101.7,144.5,99.1,146,100.3,147.6L100.3,147.6z"/>
		</g>
		<g>
			<path class="st2" d="M70.4,143.7c3.8,2.9,7.2,6.2,10.3,9.9c1.2,1.5,3.3-0.6,2.1-2.1c-3.2-3.9-6.9-7.3-10.9-10.4
				C70.4,139.9,68.9,142.5,70.4,143.7L70.4,143.7z"/>
		</g>
		<g>
			<path class="st2" d="M84.7,159.6c4.4,5.1,8,10.6,11.1,16.6c0.9,1.7,3.5,0.2,2.6-1.5c-3.2-6.2-7.1-11.9-11.6-17.2
				C85.6,156,83.5,158.2,84.7,159.6L84.7,159.6z"/>
		</g>
		<g>
			<path class="st2" d="M64.7,138.9c0.1,0.1,0.2,0.2,0.2,0.2c0.6,0.6,1.5,0.6,2.1,0c0.6-0.6,0.6-1.5,0-2.1c-0.1-0.1-0.2-0.2-0.2-0.2
				c-0.6-0.6-1.5-0.6-2.1,0C64.1,137.4,64.1,138.4,64.7,138.9L64.7,138.9z"/>
		</g>
		<g>
			<path class="st2" d="M213.5,164.6c8.4-6.3,16.8-13.2,23.2-21.6c1.2-1.5-1.4-3-2.6-1.5c-6,7.9-14.2,14.6-22.1,20.5
				C210.5,163.2,212,165.8,213.5,164.6L213.5,164.6z"/>
		</g>
		<g>
			<path class="st2" d="M241.2,137.9c1.9,0,1.9-3,0-3C239.3,134.9,239.3,137.9,241.2,137.9L241.2,137.9z"/>
		</g>
		<g>
			<path class="st2" d="M246.7,131.7c2.2-2.5,4.3-5,6.5-7.5c1.3-1.4-0.9-3.6-2.1-2.1c-2.2,2.5-4.3,5-6.5,7.5
				C243.4,131,245.5,133.1,246.7,131.7L246.7,131.7z"/>
		</g>
		<g>
			<path class="st2" d="M78,215.5c-0.4-2.2-2.9-3.2-4.7-4.3c-2.4-1.5-4.9-2.9-7.5-4.2c-1.7-0.9-3.2,1.7-1.5,2.6c1.9,1,3.8,2,5.7,3.1
				c1.2,0.7,4.9,2.2,5.1,3.6C75.4,218.2,78.3,217.4,78,215.5L78,215.5z"/>
		</g>
		<g>
			<path class="st2" d="M60,204.6c-0.4-0.3-0.8-0.5-1.2-0.8c-0.7-0.4-1.7-0.1-2.1,0.5c-0.4,0.7-0.1,1.6,0.5,2.1
				c0.4,0.3,0.8,0.5,1.2,0.8c0.7,0.4,1.7,0.1,2.1-0.5C61,205.9,60.7,205,60,204.6L60,204.6z"/>
		</g>
	</g>
</g>
</svg>
