<?xml version="1.0" encoding="utf-8"?>
<!-- Generator: Adobe Illustrator 19.2.0, SVG Export Plug-In . SVG Version: 6.00 Build 0)  -->
<svg version="1.1" id="Layer_1" xmlns="http://www.w3.org/2000/svg" xmlns:xlink="http://www.w3.org/1999/xlink" x="0px" y="0px"
	 viewBox="0 0 739.6 909.9" style="enable-background:new 0 0 739.6 909.9;" xml:space="preserve">
<style type="text/css">
	.st0{fill:#BC5B34;}
	.st1{fill:#9B4527;}
	.st2{fill:#6D3924;}
</style>
<g>
	<g>
		<path class="st0" d="M353.7,733.6c0.3-14.9-6-23.9-7.8-38.7c-2.5-20.6-5.1-45.9-12.5-60.6c-4.8-9.6-8-12.1-17.2-20.1
			c-1.4-1.2-16.2-26.5-20.4-40.9c-1.1-3.7-10.6-51.6-8.8-93.4c0.1-3.4-21.4,6.1-36.5,53.9l-7.6,14.8l-8.3,8.3
			c0,0-43.2,22.4-100.3,53.9c-27,14.9-50.4,68.7-7.5,98.1c38.3,26.4,143.3,55.9,239.2,62.1C365.7,766.5,353.7,738,353.7,733.6z"/>
		<path class="st0" d="M629.3,630c-15.5-14.4-78.5-54.2-101-64.2c-1.8-0.8-4.5-1-5.8-4.2c-6.6-16.5-46-86.3-65-83
			c1.4,41.1,7.3,57.7-1.6,86.6c-2.1,6.7-15,37.6-17.5,40.2c-14.3,26.9-25.8,51.3-32.4,77.6c-3.3,13.3-5.9,31.3-8,46.1
			c-1.3,9-14.8,32.8-14.7,41.7c91,2.1,204-35.7,239.7-62.1C652.2,687.2,654.7,653.5,629.3,630z"/>
		<polygon class="st0" points="199.5,577.7 202.1,564.7 195.6,569 176.7,577.6 174.6,575.2 157.7,584.5 156.9,588 137.3,598.8 
			144.3,607.9 		"/>
		<path class="st0" d="M541.9,575.6c-0.1-0.4-1.2-13.1-1.2-13.1l30.1,17.3l3-1.2l11.2,3l4.5,8.8l8,4.1l21.6,14.1v2.4l-10.7,7.5
			L541.9,575.6z"/>
	</g>
	<g>
		<path class="st1" d="M414,658.9c0,0,14.2-16.8,25.3-21.8c12.6-5.7,21.4-10.2,30.8-17.2c11.9-8.8,16.8-17,27.4-23.9
			c14.9-9.8,32-6.7,28.6-12.4c-3.4-5.7-12.5-20-12.5-20l-22.4,9.6l-10.3,10.3L462,605.2l-18.3,13.3L431,629.3l-8.5,11.4L414,658.9z"
			/>
		<path class="st1" d="M325.4,622.2l-10.8-6.8l-11.1-3.7l-8.4-6.9l-8.9-9.8l-3.9-3.4l-4,9.1l-7.2,15.8l-9.6,16.9l4.2,5.5l-9.8,13.9
			c0,0,11.9,6.8,14.3,6.2s8.7-9.4,8.7-13.5s-8.7-11-8.7-11s6.4-9,8.3-12.1c1.6-2.7,5.7-11.2,5.7-11.2s8.9,4.4,16.3,6.4
			C306.7,619.2,325.4,622.2,325.4,622.2z"/>
		<path class="st1" d="M254.1,596.6c-0.8-0.2-20.9-11.1-21.9-13s6.4-16.6,6.4-16.6l23.8,12.4L254.1,596.6z"/>
		<path class="st1" d="M488.8,573.3c-2.5-12.3-23.1-43.4-26.3-38.6c-1.1,1.6-5.3,23.4-5.3,23.4s16,8.7,20.7,27.2
			C478.4,587,489.3,575.6,488.8,573.3z"/>
		<polygon class="st1" points="288.6,597.2 296.4,579.4 302.4,594.1 310.6,607.9 316.3,614.2 307,616.5 292.1,611 		"/>
		<polygon class="st1" points="442.3,598.9 451.2,614.8 425.3,637 427.5,625.3 435.2,611 		"/>
		<path class="st1" d="M472,504.5c-1.7,2.6-0.7,7,1.1,8.6c1.8,1.7,12.2,20.4,12.3,23.2c0.1,2.8,0.5,7,3.4,6.5c2.8-0.5,5.3-5,4.4-8.7
			S476.4,498,472,504.5z"/>
		<path class="st1" d="M278.4,518c1-2.2-2.1-7.5-4.7-6.2c-2.6,1.2-11.3,30.6-11.2,37.9c0.1,7.3,4.5,9.2,4.9,6
			C268.3,549.7,273.6,528.5,278.4,518z"/>
		<path class="st1" d="M413.1,699.7c0.3,8.7-3.9,34.3-6,40c-1.4,3.9-3.4,7.1-2.8,12.7c0.5,4.4,5.2,1.1,6.3-1.6
			c1.1-2.6,9.5-28.6,8.4-45.1C418.6,700.5,413,697.6,413.1,699.7z"/>
		<path class="st1" d="M329.9,662.2c4,2.4,2.1,26.3,4.1,40c1.7,11.5,3.3,19.3,5.6,25.9c1.3,3.9-6.9,2.2-7.8,0.8
			c-3.2-4.8-16.2-43-8.2-62.8C325,662.4,328.3,661.2,329.9,662.2z"/>
		<path class="st1" d="M475.2,681c0,0-5,56.3-1.9,58s93.5-2.5,93.5-2.5l11.4-4.5l-5.7-1.6l-31.1-3.7l-34.4-1.6l-25.4,1.2l-2.4-4.7
			l-1.8-32.2L475.2,681z"/>
		<path class="st1" d="M272,689.9V729l-9.3,2.5l-36.5,6.3l-20.7,4.2l13.4,3.7c0,0,57.3-5.9,58.5-7.6c1.2-1.7-3.1-48.2-3.1-48.2H272z
			"/>
	</g>
	<g>
		<g>
			<path class="st2" d="M286.5,477.6c-6.7,1.1-11.8,6.6-15.8,11.7c-5.3,6.8-9.4,14.5-13,22.2c-2.4,5.1-4.5,10.3-6.6,15.6
				c-5,12.7-12.6,24.2-18.2,36.6c-0.4,1-0.3,2.1,0.7,2.7c16.5,9.9,35.2,16.8,50.1,29.1c6.9,5.7,11.1,15,19.8,18.4
				c5.8,2.3,11.6,3.4,16.8,7c12,8.4,13.5,22.7,16.1,35.9c3.5,17.6,6.6,35.2,10,52.7c1.8,9.1,3.6,18.1,5.7,27.1
				c2.8,12,7.1,23.3,11.9,34.7c1,2.3,4.9,1.3,3.9-1.1c-4.5-10.6-8.6-21.2-11.3-32.4c-1.9-8-3.6-16-5.2-24
				c-3.7-18.3-6.9-36.7-10.5-55c-2.4-12.1-3.6-25.8-12-35.5c-5-5.8-11.9-9.5-19.2-11.7c-2.3-0.7-4.6-1.2-6.8-2.4
				c-5.4-3.1-8.6-8.6-12.7-13c-7.2-7.6-17.1-12.9-26.2-17.9c-9.5-5.2-19.2-9.8-28.5-15.3c0.2,0.9,0.5,1.8,0.7,2.7
				c5-11.1,11.6-21.3,16.5-32.5c2.5-5.6,4.4-11.3,6.9-16.9c3.3-7.2,6.9-14.4,11.3-21c3.9-5.7,9.1-12.8,16.3-14
				C290.1,481,289.1,477.1,286.5,477.6L286.5,477.6z"/>
		</g>
		<g>
			<path class="st2" d="M459,480.6c8.4-1.3,13.7,5.8,18.3,11.6c5.5,7.1,10.7,14.4,15.7,21.8c5.8,8.5,11.3,17.1,16.5,25.9
				c4.1,7.1,8.4,14.4,11,22.2c0.5-0.8,0.9-1.6,1.4-2.5c-6.5,1.1-12.9,2.7-19.1,4.8c-5.5,1.8-11.6,3.9-16,7.9
				c-6.3,5.7-9.9,14.4-15.3,21c-5.9,7.1-13.4,12.5-20.9,17.8c-6.7,4.7-13.5,9.3-19.4,15.1c-6.3,6.1-10.9,13.5-14.6,21.4
				c-3.9,8.4-7.5,17.2-10.3,26c-3,9.2-3.7,18.8-4.8,28.4c-2.6,24-12.8,45.6-20.1,68.3c-0.8,2.5,3.1,3.5,3.9,1.1
				c6-18.7,14.5-36.8,18.4-56.2c1.9-9.5,2.2-19.3,3.8-28.9c1.6-9.4,5-18.2,8.6-27.1c3.6-9,7.6-18.1,13.8-25.7
				c5.3-6.5,12.1-11.5,18.9-16.3c6.5-4.6,13.1-9,19-14.3c6.4-5.7,11-12.7,15.7-19.7c2.4-3.6,4.7-7.4,8.4-9.7c3.3-2,7-3.5,10.6-4.7
				c6.6-2.3,13.4-4.1,20.3-5.2c1-0.2,1.7-1.5,1.4-2.5c-2.8-8.5-7.4-16.5-11.9-24.2c-5.8-9.8-12.1-19.4-18.6-28.8
				c-5.1-7.4-10.3-14.7-16-21.6c-5.2-6.3-11.2-11.1-19.9-9.8C455.4,477.1,456.5,481,459,480.6L459,480.6z"/>
		</g>
		<g>
			<path class="st2" d="M455.8,479.3c2.4,30.6,3.3,63-4.3,93c-3.1,12.2-9.4,22.4-15.5,33.3c-8.5,15-17,30.3-21.4,47
				c-0.7,2.5,3.2,3.6,3.9,1.1c4.6-17.6,13.9-33.5,22.8-49.2c6-10.5,11.5-20.3,14.4-32.2c7.3-30.1,6.6-62.4,4.2-93
				C459.6,476.7,455.6,476.7,455.8,479.3L455.8,479.3z"/>
		</g>
		<g>
			<path class="st2" d="M285.1,479.9c0.1,19.9,0.5,39.8,2.7,59.6c2.4,20.9,6.3,42.4,16.3,61.1c4.9,9.2,11.5,17.5,20.3,23.3
				c2.1,1.4,4.1-2,2-3.5c-16.2-10.9-24.1-30.4-28.8-48.6c-5.3-20.5-7.2-41.8-8-63c-0.4-9.7-0.5-19.4-0.5-29.1
				C289.1,477.3,285.1,477.3,285.1,479.9L285.1,479.9z"/>
		</g>
		<g>
			<path class="st2" d="M260.2,578.4c-6.4,14.8-13.5,29.2-21.2,43.3c-0.3,0.6-0.4,1.4,0,2c5.1,7.1,11.7,12.1,19.9,15.2
				c0.8,0.3,1.8-0.2,2.3-0.9c8.6-14.7,16.2-29.8,22.9-45.4c1-2.3-2.4-4.4-3.5-2c-6.7,15.6-14.3,30.7-22.9,45.4
				c0.8-0.3,1.3-0.6,2-0.9c-7.1-2.7-12.7-7.2-17.7-13.4c0,0.7,0,1.3,0,2c8-14.1,15.1-28.5,21.5-43.3
				C264.5,578,261.2,576,260.2,578.4L260.2,578.4z"/>
		</g>
		<g>
			<path class="st2" d="M241.8,619.4c-2.4-1.1-5.3-5.1-8.1-4.9c-2.4,0.2-4.4,4.4-5.6,6.1c-1.8,2.7-5.7,7.2-5.7,10.7
				c0,2,1.6,3.5,3,4.7c5.8,5.5,13,9.9,20,13.7c4,2.2,10.3,6.8,14,2.5c2.8-3.2,5.5-7,7.5-10.8c2.3-4.4-1.6-6.4-5.1-8.7
				c-2.1-1.4-4.1,2-2,3.5c0.4,0.3,3.8,2.2,3.9,2.7c0.1,0.3-1,1.7-1.1,1.9c-1,1.6-2,3.1-3.1,4.6c-1,1.4-2.3,2.8-3.2,4.3
				c-0.7,1.1,0.5,0.8-0.8,0.4c-6.3-2-12.3-6-17.8-9.7c-2.9-2-5.8-4-8.5-6.3c-2.3-2-3.2-2.2-1.8-4.8c1.8-3.5,4.6-6.5,6.4-9.9
				c1-1.9,0.9-0.3-0.4-0.9c0.7,0.3,1.5,1,2.1,1.5c1.4,1,2.7,2.1,4.3,2.9C242.1,623.9,244.1,620.5,241.8,619.4L241.8,619.4z"/>
		</g>
		<g>
			<path class="st2" d="M519,563.8c24.5,12.9,49.1,25.5,72.6,40.1c10.6,6.5,21,13.4,30.5,21.4c6.7,5.6,14.2,12.3,17.4,20.7
				c0.9,2.4,4.8,1.4,3.9-1.1c-3-8.1-9.4-14.5-15.8-20.2c-9.3-8.2-19.7-15.3-30.2-21.9c-24.6-15.6-50.6-28.9-76.3-42.4
				C518.7,559.2,516.7,562.6,519,563.8L519,563.8z"/>
		</g>
		<g>
			<path class="st2" d="M239.6,551.4c-23.7,12.4-47.6,24.3-71.3,36.9c-9.1,4.8-18.2,9.7-27,14.9c-4.4,2.6-9.9,5.4-13.2,9.4
				c-1.6,2,1.2,4.8,2.8,2.8c3.4-4.2,9.1-6.9,13.6-9.5c8.9-5.2,17.9-10.1,27-14.9c23.2-12.3,46.7-24.1,70-36.2
				C243.9,553.7,241.9,550.2,239.6,551.4L239.6,551.4z"/>
		</g>
		<g>
			<path class="st2" d="M132.9,610.5c-3.9,17.2-3.2,35.7-1.7,53.1c1.6,19.1,4.6,38.7,12.4,56.4c1,2.4,4.5,0.3,3.5-2
				c-7.6-17.4-10.4-37-11.9-55.8c-1.3-16.6-2.1-34.3,1.7-50.7C137.3,609,133.5,607.9,132.9,610.5L132.9,610.5z"/>
		</g>
		<g>
			<path class="st2" d="M628.4,634.7c-1.4,25.1-7.7,49.5-18.5,72.2c-1.1,2.3,2.3,4.3,3.5,2c11.1-23.3,17.6-48.4,19-74.2
				C632.5,632.2,628.5,632.2,628.4,634.7L628.4,634.7z"/>
		</g>
		<g>
			<path class="st2" d="M590.3,729.7c1.7-11.5,3-23.1,3.9-34.8c0.1-0.8-0.7-1.8-1.5-1.9c-38.3-6.6-77.1-10.3-115.7-14.8
				c-2.6-0.3-2.5,3.7,0,4c38.3,4.4,76.7,8.1,114.6,14.7c-0.5-0.6-1-1.3-1.5-1.9c-0.9,11.3-2.2,22.5-3.8,33.7
				C586.1,731.2,589.9,732.3,590.3,729.7L590.3,729.7z"/>
		</g>
		<g>
			<path class="st2" d="M475.1,680.2c0.1,15.7,1.4,31.2,3.9,46.7c0.1,0.8,1.1,1.6,1.9,1.5c33-3.6,66,0.7,98.6,5.6
				c2.5,0.4,3.6-3.5,1.1-3.9c-33-5-66.3-9.3-99.7-5.7c0.6,0.5,1.3,1,1.9,1.5c-2.4-15.1-3.7-30.3-3.7-45.7
				C479.1,677.6,475.1,677.6,475.1,680.2L475.1,680.2z"/>
		</g>
		<g>
			<path class="st2" d="M475.4,706.6c0.1,18.8-3.4,38-5.9,56.6c-0.3,2.5,3.5,3.6,3.9,1.1c2.6-18.9,6.1-38.5,6-57.6
				C479.4,704,475.4,704,475.4,706.6L475.4,706.6z"/>
		</g>
		<g>
			<path class="st2" d="M204.5,742.9c13.6-1.9,27.2-3.9,40.7-6.2c9.3-1.6,19-2.9,27.9-5.8c0.9-0.3,1.4-1,1.5-1.9
				c0.4-13.8,0.4-27.5-0.1-41.3c0-1-0.9-2.1-2-2c-26.6,3.5-53.2,7.1-79.9,9.4c-6.1,0.5-12.2,1-18.3,1.3c-2.8,0.1-8.5-0.9-10.5,1.6
				c-2.1,2.6-1.2,7.9-0.9,10.9c0.6,6.9,1.7,13.8,3,20.6c0.5,2.5,4.3,1.5,3.9-1.1c-1.2-6.5-2.3-13-2.9-19.5c-0.2-2.1-0.6-4.7-0.2-6.8
				c0.4-2.2,0.9-1.3,3.4-1.4c10.8-0.4,21.5-1.3,32.2-2.4c23.5-2.3,46.9-5.4,70.3-8.5c-0.7-0.7-1.3-1.3-2-2
				c0.5,13.8,0.5,27.5,0.1,41.3c0.5-0.6,1-1.3,1.5-1.9c-9,3-18.6,4.3-27.9,5.8c-13.5,2.3-27.1,4.3-40.7,6.2
				C200.9,739.4,202,743.3,204.5,742.9L204.5,742.9z"/>
		</g>
		<g>
			<path class="st2" d="M268.2,729.7c0.5,9.5,1.1,19,1.8,28.5c0.2,2.6,4.2,2.6,4,0c-0.7-9.5-1.2-19-1.8-28.5
				C272.1,727.1,268.1,727.1,268.2,729.7L268.2,729.7z"/>
		</g>
		<g>
			<path class="st2" d="M547.2,574.3c-5-3.2-5.1-9.1-3.8-14.3c-1.3-0.4-2.6-0.7-3.9-1.1c-1.2,6.3,8.2,11,12.5,13.5
				c3.8,2.3,7.8,4.3,11.8,6.2c3.6,1.7,8.2,2.1,4.1,7.1c-1.6,2,1.2,4.8,2.8,2.8c2.4-2.9,4.4-7.7,0.8-10.5c-2.1-1.7-5.3-2.6-7.7-3.7
				c-4.2-2.1-8.5-4.3-12.5-6.8c-1.7-1.1-8.6-4.8-8.1-7.4c0.5-2.5-3.2-3.6-3.9-1.1c-1.8,7.1-1,14.6,5.6,18.8
				C547.3,579.2,549.3,575.7,547.2,574.3L547.2,574.3z"/>
		</g>
		<g>
			<path class="st2" d="M571.4,580.4c4.3,0.4,9,0.9,12.5,3.8c3.4,2.9,4.8,7.9,1.6,11.6c-1.7,1.9,1.1,4.8,2.8,2.8
				c3.9-4.5,3.9-10.6,0.3-15.3c-4.2-5.3-10.8-6.3-17.2-6.9C568.8,576.1,568.8,580.1,571.4,580.4L571.4,580.4z"/>
		</g>
		<g>
			<path class="st2" d="M588.4,591.1c7.1,4.3,14.2,8.5,21.2,12.8c2.6,1.6,5.7,3.2,8,5.3c1.7,1.5,1.7,0.6,0.1,1.4
				c-2.1,1.1-4.4,1.5-6.7,2.2c-2.4,0.8-1.4,4.6,1.1,3.9c3-1,10.9-2.2,10.9-6.9c0-2.2-2.8-3.7-4.3-4.7c-9-6.4-18.8-11.7-28.3-17.4
				C588.2,586.3,586.2,589.8,588.4,591.1L588.4,591.1z"/>
		</g>
		<g>
			<path class="st2" d="M179.8,582.1c-1.3-2.2-1.6-4.4-1.9-6.9c-0.1-1.1-0.8-2-2-2c-3.4-0.1-6.1,1.5-8.8,3.3
				c-2.7,1.8-5.9,2.9-8.5,4.8c-4.4,3.2-2.7,7.9-0.4,11.9c1.3,2.2,4.7,0.2,3.5-2c-0.8-1.4-2.4-3.6-1.9-5.4c0.5-1.5,2.9-2.3,4.2-2.9
				c3.8-1.8,7.6-5.9,11.9-5.8c-0.7-0.7-1.3-1.3-2-2c0.3,3.2,0.7,6.1,2.4,8.9C177.6,586.3,181.1,584.3,179.8,582.1L179.8,582.1z"/>
		</g>
		<g>
			<path class="st2" d="M195.9,578.3c5.3-3.5,8.3-8.2,10.4-14.1c0.6-1.8-1.5-2.9-2.9-2.3c-9.4,4.1-17.7,10.7-27.5,13.8
				c-2.4,0.8-1.4,4.6,1.1,3.9c10.2-3.3,18.8-10,28.5-14.3c-1-0.8-2-1.5-2.9-2.3c-1.7,4.9-4.1,8.9-8.5,11.8
				C191.7,576.3,193.7,579.8,195.9,578.3L195.9,578.3z"/>
		</g>
		<g>
			<path class="st2" d="M155.9,586.7c-4.9,3.6-10.9,5.6-16.4,8c-5.9,2.5-4.6,8.4,0.8,10.8c2.3,1,4.4-2.4,2-3.5
				c-1.3-0.6-3.7-1.4-2.1-3.3c0.3-0.3,1.2-0.5,1.6-0.7c1.6-0.7,3.1-1.3,4.7-2c3.9-1.7,8-3.4,11.4-5.9
				C160,588.7,158,585.2,155.9,586.7L155.9,586.7z"/>
		</g>
		<g>
			<path class="st2" d="M467.6,554.1c3.7,5.6,6.6,11.5,8.6,17.9c0.6,1.8,3.5,1.1,2.9-0.8c-2.1-6.6-5-12.9-8.9-18.6
				C469.1,551,466.5,552.5,467.6,554.1L467.6,554.1z"/>
		</g>
		<g>
			<path class="st2" d="M470.7,550.4c2.7,3.5,4.6,7.4,5.7,11.6c0.5,1.9,3.4,1.1,2.9-0.8c-1.2-4.5-3.2-8.6-6-12.4
				C472.2,547.4,469.6,548.9,470.7,550.4L470.7,550.4z"/>
		</g>
		<g>
			<path class="st2" d="M269.2,518c-2.7,9.1-5,18.3-7,27.7c-0.4,1.9,2.5,2.7,2.9,0.8c2-9.3,4.3-18.5,7-27.7
				C272.6,516.9,269.7,516.1,269.2,518L269.2,518z"/>
		</g>
		<g>
			<path class="st2" d="M272.2,529.9c-1.8,5.8-3.4,11.7-4.8,17.7c-0.4,1.9,2.5,2.7,2.9,0.8c1.4-6,3-11.8,4.8-17.7
				C275.7,528.9,272.8,528.1,272.2,529.9L272.2,529.9z"/>
		</g>
		<g>
			<path class="st2" d="M471.9,512.5c4.6,8.5,9.7,15.7,12.4,25.2c0.5,1.9,3.4,1.1,2.9-0.8c-1.3-4.5-2.9-8.8-5-12.9
				c-2.3-4.5-5.4-8.5-7.8-12.9C473.5,509.3,470.9,510.8,471.9,512.5L471.9,512.5z"/>
		</g>
		<g>
			<path class="st2" d="M476.4,509c2.1,2.9,3.9,6,5.3,9.4c0.7,1.8,3.6,1,2.9-0.8c-1.4-3.6-3.3-7-5.6-10.1
				C477.9,506,475.3,507.5,476.4,509L476.4,509z"/>
		</g>
		<g>
			<path class="st2" d="M328.4,672.7c0,9.5,0.7,18.9,1.9,28.3c0.2,1.9,3.2,1.9,3,0c-1.2-9.4-1.8-18.8-1.9-28.3
				C331.3,670.7,328.3,670.7,328.4,672.7L328.4,672.7z"/>
		</g>
		<g>
			<path class="st2" d="M323.5,690.7c0.3,10.5,2.5,20.7,6.5,30.4c0.7,1.8,3.6,1,2.9-0.8c-4-9.5-6.1-19.3-6.4-29.6
				C326.4,688.7,323.4,688.7,323.5,690.7L323.5,690.7z"/>
		</g>
		<g>
			<path class="st2" d="M411.6,708.3c-0.3,10.5-2,20.8-4.9,30.9c-0.5,1.9,2.4,2.7,2.9,0.8c3-10.4,4.6-21,5-31.7
				C414.6,706.4,411.6,706.4,411.6,708.3L411.6,708.3z"/>
		</g>
		<g>
			<path class="st2" d="M417.3,705c0.8,15.6-1.9,31-8.1,45.3c-0.8,1.8,1.8,3.3,2.6,1.5c6.4-14.9,9.4-30.7,8.5-46.8
				C420.2,703.1,417.2,703.1,417.3,705L417.3,705z"/>
		</g>
	</g>
</g>
</svg>
