<?xml version="1.0" encoding="utf-8"?>
<!-- Generator: Adobe Illustrator 19.2.0, SVG Export Plug-In . SVG Version: 6.00 Build 0)  -->
<svg version="1.1" id="Layer_1" xmlns="http://www.w3.org/2000/svg" xmlns:xlink="http://www.w3.org/1999/xlink" x="0px" y="0px"
	 viewBox="0 0 739.6 909.9" style="enable-background:new 0 0 739.6 909.9;" xml:space="preserve">
<style type="text/css">
	.st0{fill:#BC5B34;}
	.st1{fill:#9B4527;}
	.st2{fill:#6D3924;}
</style>
<g>
	<g>
		<path class="st0" d="M312.7,745.9c0.3-15.6,3.8-31.3,6.2-46.6c4.2-26.8,8.1-55.2,2.5-86.5c-0.3-1.8,3.5-0.5,3.2-2.3
			c-4.2-8-5.6-36.9-10.1-42.6c-2.5-3.2-19.7-2.1-25.2-8.3c-9.2-10.3-3.7-62.9,0-75.7c3.7-12.8-23.5,22.3-34,47
			c-2.3,5.4-8.7,21.7-8.7,21.7s-49.9,23.8-107,56.7c-27,15.6-51.6,73.4-7.5,102.4c37.4,24.6,108.8,47.5,179.3,57.3
			C310.7,764.1,312.6,750.5,312.7,745.9z"/>
		<path class="st0" d="M634.5,629.2c-15.5-15-78.5-56.5-101.1-66.9c-1.8-0.8-30.4-12.9-31.9-16.1c-5.4-11.4-17.3-70.5-41-70.5
			c0,0,2.2,38-14,64.4c-8.9,14.5-22,32-42.2,38.5c-7,2.3,2.5,30.4,4.4,37.3c1,3.5,29-5.6,26.5-2.9c6,26.5,8.5,53.6,11.1,80.5
			c1.3,14.1,2.7,28.3,4.6,42.4c1.3,9.4,2.3,26,2.5,35.3c65.8-5.3,128.6-29.1,174.9-60C658.9,690.8,659.9,653.7,634.5,629.2z"/>
	</g>
	<g>
		<path class="st1" d="M499.6,552.8c3.7,29.4-47.9,81.6-54.8,84.7c-6.9,3.1-9.5-24.5-9.5-24.5l16.2-7l11.8-6.8l10-8.9
			c0,0,12.9-12.8,20.4-24.1C498.8,558.6,499.3,550.2,499.6,552.8z"/>
		<path class="st1" d="M264.9,578.9c0,0,7.5,26,26.8,38.2c9.5,6,33.2,15.4,33.2,15.4l-4.6-22.1c0,0-17.6-1.4-25.7-4.7
			c-8.1-3.4-19-15.5-19-15.5L264.9,578.9z"/>
		<path class="st1" d="M491.2,537.4c-2.7-1.2-8,10.2-10.2,13.1s-12.7,14.5-17.9,16.6c-5.2,2.1-10.7,6.3-5,9.4s15.1-8.5,18.7-11.9
			c3.6-3.4,16-15.8,16.5-19.4C493.8,541.6,493.1,538.2,491.2,537.4z"/>
		<path class="st1" d="M292.6,560.9c0,0-1.7,13.1-1.7,18c0,4.9,1.7,26.8,1.7,26.8l-11.9-10.3c0,0-2.4-8.5-1.2-18.3
			c1.6-12.4,7-25.3,8.9-23.8C290.2,554.9,292.6,560.9,292.6,560.9z"/>
		<path class="st1" d="M482.3,706.3c-2-0.8,13.7-6.3,35-6.8c20.5-0.5,32.8,5.4,30.1,5.3c-2.7-0.1-20.9,0.3-20.9,0.3L482.3,706.3z"/>
		<polygon class="st1" points="267.8,504 271.6,524.9 280.1,545.5 291.7,558.5 288.1,542.5 288.6,517.8 288.8,497.8 289.2,483.7 
			284.8,484.3 274.8,493.3 		"/>
		<polygon class="st1" points="436.6,556.3 448.6,537.3 457,513.4 458.6,493.6 458.9,475.5 464.9,477 473.8,482.6 477.8,487.5 
			478.7,496.7 472,515.4 461.6,533.7 446.8,551.6 434,560.2 		"/>
		<path class="st1" d="M142.6,627.2c1.3-1.4,49.5-19.7,52.7-19.8c3.2-0.2,3.7-13.2,6.3-14.5s5.1-2,5.1-2l-7.9,19.6l-4.9,1.9
			l-42.5,15.3l-10.2,4.9L142.6,627.2z"/>
		<path class="st1" d="M141.2,645.5c12.5-6.3,49.7-16.9,49.7-16.9s1-9.8,2.9-12.6c0.8-1.2,4.9-3.7,4.9-3.7l-4.9,20.4l-4.4,0.8
			l-37.4,11l-11.2,4.7L141.2,645.5z"/>
		<path class="st1" d="M142.1,663.9c0,0,16.3-9.2,43.9-10.6c2-0.1,1.9-14.5,3.5-16.2c1.6-1.7,3.6-3.3,3.6-3.3l-1.7,9.3l-2,13.7
			l-4.4,0.2l-23.7,5.3l-16.1,4.1l-4.3,2.2L142.1,663.9z"/>
		<path class="st1" d="M143.1,679c11-6.4,39.8-9.8,39.8-9.8s1.3-9.4,3.1-10c1.8-0.7,3.5-2.4,3.5-2.4l-1.5,15.8l-4.9,0.4l-32.4,6.1
			l-8.1,2.4L143.1,679z"/>
		<path class="st1" d="M145.3,694.7c12.5-7.2,38.3-11.1,38.3-11.1s0.4-5.5,2.4-8.3c2-2.8,2.5-0.3,2.5-0.3l-1,11.9h-3.8l-22.5,6.1
			l-16.4,5.6C144.8,698.5,144.3,695.3,145.3,694.7z"/>
		<path class="st1" d="M148,708.9c9-6.4,36.3-8.9,36.3-8.9s-0.4-6.7-0.2-8c0.2-1.3,2.4-4.5,2.4-4.5l1.4,16.2c0,0-4,0-4.5,0.2
			c-0.5,0.2-28.1,6.5-28.1,6.5l-7.4,2.5V708.9z"/>
		<path class="st1" d="M151.5,722.6c6.2-4.8,32.2-9.7,32.2-9.7s0.3-3.9,1.5-6.1c1.2-2.2,2.5-2.3,2.5-2.3l-0.2,12.1l-8.4,2.2l-23,6.1
			L151.5,722.6z"/>
		<path class="st1" d="M173.9,732.8l-4.6-2l15.8-4.8c0,0-0.7-4.2,0.9-6.8c1.6-2.6,2.5-2.6,2.5-2.6l1,10.3l-6.2,3.1L173.9,732.8z"/>
		<path class="st1" d="M186.2,737.9c0,0-0.2-4.7,1.7-7.1s2,0.2,2,0.2v7.9L186.2,737.9z"/>
		<path class="st1" d="M143.6,611.7c0,0,32.8-16.8,61.3-26.3c1.4-0.5,10.1-15.3,14.5-17.2c4.3-2,4.4,0,4.4,0l-14.7,21.3l-7.6,3.3
			l-20.3,5.7L157,609.4l-13.9,7.7L143.6,611.7z"/>
		<path class="st1" d="M613.9,627.2c-1.3-1.4-49.5-19.7-52.7-19.8c-3.2-0.2-3.7-13.2-6.3-14.5c-2.7-1.4-5.1-2-5.1-2l7.9,19.6
			l4.9,1.9l42.5,15.3l10.2,4.9L613.9,627.2z"/>
		<path class="st1" d="M615.3,645.5c-12.5-6.3-49.7-16.9-49.7-16.9s-1-9.8-2.9-12.6c-0.8-1.2-4.9-3.7-4.9-3.7l4.9,20.4l4.4,0.8
			l37.4,11l11.2,4.7L615.3,645.5z"/>
		<path class="st1" d="M614.4,663.9c0,0-16.3-9.2-43.9-10.6c-2-0.1-1.9-14.5-3.5-16.2c-1.6-1.7-3.6-3.3-3.6-3.3l1.7,9.3l2,13.7
			l4.4,0.2l23.7,5.3l16.1,4.1l4.3,2.2L614.4,663.9z"/>
		<path class="st1" d="M613.4,679c-11-6.4-39.8-9.8-39.8-9.8s-1.3-9.4-3.1-10c-1.8-0.7-3.5-2.4-3.5-2.4l1.5,15.8l4.9,0.4l32.4,6.1
			l8.1,2.4L613.4,679z"/>
		<path class="st1" d="M611.2,694.7c-12.5-7.2-38.3-11.1-38.3-11.1s-0.4-5.5-2.4-8.3S568,675,568,675l1,11.9h3.8l22.5,6.1l16.4,5.6
			C611.7,698.5,612.2,695.3,611.2,694.7z"/>
		<path class="st1" d="M609,708.9c-9-6.4-36.5-8.9-36.5-8.9s0.2-6.7,0.1-8c-0.2-1.3-2.5-4.5-2.5-4.5l-1.5,16.2c0,0,4,0,4.5,0.2
			c0.5,0.2,28.3,6.5,28.3,6.5l7.6,2.5V708.9z"/>
		<path class="st1" d="M608,724.6c-6.2-4.8-35.2-11.7-35.2-11.7s-0.3-3.9-1.5-6.1c-1.2-2.2-2.5-2.3-2.5-2.3l0.2,12.1l8.4,2.2l26,8.1
			L608,724.6z"/>
		<path class="st1" d="M586.6,734.8l4.6-2l-19.8-6.8c0,0,0.7-4.2-0.9-6.8s-2.5-2.6-2.5-2.6l-1,10.3l6.2,3.1L586.6,734.8z"/>
		<path class="st1" d="M569.4,742.9c0,0,1.3-9.7-0.7-12.1s-2,0.2-2,0.2l-1,12.9L569.4,742.9z"/>
		<path class="st1" d="M612.9,611.7c0,0-32.8-16.8-61.3-26.3c-1.4-0.5-10.1-15.3-14.5-17.2c-4.3-2-4.4,0-4.4,0l14.7,21.3l7.6,3.3
			l20.3,5.7l24.2,10.9l13.9,7.7L612.9,611.7z"/>
	</g>
	<g>
		<g>
			<path class="st2" d="M402.7,575.4c-4.7,1.9-1.6,12.9-1.1,16.4c1.3,8.2,2.6,16.7,5.3,24.6c0.3,0.9,1,1.4,1.9,1.5
				c36.1,2.3,70.9-22.8,87.9-53.5c2.6-4.8,5.1-10,5.7-15.5c0.3-2.9-0.4-5.6-1-8.5c-2.9-12.7-6.9-25.3-12.4-37.2
				c-5.7-12.5-14.9-28.5-30.2-29.8c-1-0.1-2.1,1-2,2c2.7,24.5-2,49.3-15.8,70C432.4,558.6,418.8,572.3,402.7,575.4
				c-2.5,0.5-1.5,4.3,1.1,3.9c16.8-3.2,30.8-17.2,40.1-30.8c14.6-21.3,19.8-47.5,17-73c-0.7,0.7-1.3,1.3-2,2
				c12.6,1.1,20.5,15,25.4,25.1c5.6,11.5,9.6,23.9,12.7,36.3c0.6,2.3,1.6,6.2,1.7,7.9c0.2,4.4-2,9.1-3.9,12.9
				c-6.6,13.3-17,25-28.6,34.2c-16.2,13.1-36.2,21.3-57.3,20c0.6,0.5,1.3,1,1.9,1.5c-2-6-3.1-12.5-4.3-18.7
				c-0.7-3.9-1.4-7.8-1.8-11.7c-0.1-1.3-0.3-2.6-0.3-3.9c0-0.6,0.1-1.2,0-1.8c-0.1-1,0.8-0.7-0.7-0.1
				C406.1,578.3,405.1,574.4,402.7,575.4z"/>
		</g>
		<g>
			<path class="st2" d="M287.2,483.2c0.6,18-1.6,36.1-0.9,54.2c0.3,7.4,0,17,3.7,23.8c1.8,3.4,5.2,4,8.8,4.6
				c3.9,0.6,12.1,0,14.3,3.8c1.1,1.9,1.4,4.9,1.9,7c0.8,3.5,1.5,6.9,2.3,10.4c1.7,8,3.3,16,5.4,23.9c0.6-0.8,1.3-1.7,1.9-2.5
				c-9.7,0-21-0.9-30-4.9c-4.9-2.2-9.1-6.2-12.9-10c-9.6-9.5-18-20.4-25.7-31.5c-2.4-3.5-4.3-7.8-7-11c-0.9-1.1-0.2-1.9-0.7-0.2
				c0.3-0.8,0.8-1.7,1.1-2.5c4.5-10.3,9.1-20.6,14.3-30.5c3.6-6.7,7.4-13.3,11.9-19.5c3.6-5,8.2-10.8,14.1-13.2
				c2.4-0.9,1.3-4.8-1.1-3.9c-11.7,4.7-19.2,18.2-25.1,28.6c-6.4,11.3-11.8,23.2-17,35.1c-0.8,1.8-2.3,4-2,6
				c0.6,3.2,3.8,6.9,5.5,9.5c7.8,11.7,16.4,23.1,26.1,33.3c4.6,4.8,9.7,9.9,15.7,12.9c9.5,4.8,22.1,5.8,32.6,5.8
				c1.3,0,2.3-1.3,1.9-2.5c-3.4-12.6-5.2-25.6-8.6-38.2c-0.9-3.3-1.7-6-5.1-7.4c-4.8-2.1-10.5-1.6-15.6-2.8c-4-1-4.5-3.5-5.3-7.2
				c-0.9-4.5-1.3-9.2-1.5-13.8c-0.6-10.8-0.4-21.6,0-32.4c0.2-8.2,1.1-16.6,0.8-24.9C291.1,480.7,287.1,480.7,287.2,483.2
				L287.2,483.2z"/>
		</g>
		<g>
			<path class="st2" d="M318.5,610.9c8.1,24.8,4.3,52.9,0.7,78.1c-3.7,26.5-9.3,52.9-10.7,79.6c-0.1,2.6,3.9,2.6,4,0
				c1.5-27.8,7.4-55.1,11.1-82.6c3.3-24.7,6.6-51.9-1.3-76.1C321.5,607.4,317.7,608.5,318.5,610.9L318.5,610.9z"/>
		</g>
		<g>
			<path class="st2" d="M434.6,612.9c9,52.3,14,105.4,16.5,158.4c0.1,2.6,4.1,2.6,4,0c-2.5-53.4-7.6-106.8-16.6-159.4
				C438,609.3,434.2,610.4,434.6,612.9L434.6,612.9z"/>
		</g>
		<g>
			<path class="st2" d="M416.9,590.9c-1.9,2.9-1.9,7.2,1.1,9.3c2.6,1.9,6.6,1.4,8.2-1.6c1.5-2.9,0.9-7.2-1.7-9.4
				c-2.4-2-6.5-1.6-7.9,1.4c-0.8,1.7,1.7,3.3,2.6,1.5c0.7-1.5,2.6-1.5,3.7-0.4c1.2,1.3,1.5,3.7,0.7,5.3c-0.7,1.5-2.7,1.6-3.9,0.7
				c-1.7-1.3-1.2-3.8-0.2-5.3C420.6,590.8,418,589.3,416.9,590.9L416.9,590.9z"/>
		</g>
		<g>
			<path class="st2" d="M431.6,585.8c-0.5,3.2-1.5,7.7,1.4,10.1c3,2.5,7.2,0.1,8.5-3.1c1.3-3,0.4-7.1-2.8-8.5
				c-2.9-1.2-6.4,0.1-7.5,3.1c-0.7,1.8,2.2,2.6,2.9,0.8c0.5-1.4,2.6-1.7,3.8-1c1.6,1,1.5,3.4,0.6,4.9c-1,1.8-3.6,2.6-4.3,0.2
				c-0.5-1.8,0-3.9,0.3-5.7C434.8,584.7,431.9,583.9,431.6,585.8L431.6,585.8z"/>
		</g>
		<g>
			<path class="st2" d="M303.9,577.7c-3.5,1.5-3.8,6.1-3.2,9.3c0.5,2.4,2.1,7.2,5.5,6.2c5.7-1.7,4-17.2-1.9-15.7
				c-1.9,0.5-1.1,3.4,0.8,2.9c0.5-0.1,1.4,4.1,1.5,4.8c0.1,0.9,0.1,5.2-1.1,5.2c-0.9,0-1.7-3.7-1.9-4.7c-0.2-1.9-0.2-4.5,1.9-5.4
				C307.2,579.5,305.6,576.9,303.9,577.7z"/>
		</g>
		<g>
			<path class="st2" d="M477.4,706.3c0,4.8,0.7,8.7,2.4,13.2c0.4,1.1,1.3,1.6,2.5,1.4c11.1-1.5,22.3-3.1,33.5-3.7
				c11.1-0.5,22.2-0.2,33.2,0c1.1,0,2-0.9,2-2c0.1-3.7,0.1-7.4,0.2-11.1c0-1.1-0.9-1.9-2-2c-13.3-1.1-26.9,0.1-40.1,0.7
				c-9.9,0.4-19.7,1-29.6,1.6c-2.6,0.2-2.6,4.2,0,4c9.9-0.6,19.7-1.1,29.6-1.6c13.3-0.6,26.9-1.7,40.1-0.7c-0.7-0.7-1.3-1.3-2-2
				c-0.1,3.7-0.1,7.4-0.2,11.1c0.7-0.7,1.3-1.3,2-2c-11.4-0.2-22.9-0.6-34.3,0.1c-11.2,0.6-22.4,2.3-33.5,3.8
				c0.8,0.5,1.6,0.9,2.5,1.4c-1.6-4.1-2.2-7.8-2.3-12.1C481.4,703.7,477.4,703.7,477.4,706.3z"/>
		</g>
		<g>
			<path class="st2" d="M235.6,555.9c-20.6,12.6-31.8,36.3-38.6,58.5c-8.2,26.8-11.3,55.3-11.2,83.2c0,14.2,1,28.3,3.4,42.3
				c0.4,2.5,4.3,1.5,3.9-1.1c-4.2-24.9-4.1-50.8-1.5-75.8c2.7-26,8.4-53,21.2-76.1c6.1-11,14.1-21,24.9-27.6
				C239.8,558.1,237.8,554.6,235.6,555.9L235.6,555.9z"/>
		</g>
		<g>
			<path class="st2" d="M133.3,617.4c5-6,12-10.4,18.7-14.4c9.6-5.7,19.5-10.8,29.5-15.7c21.7-10.7,43.9-20.7,64.9-32.8
				c2.2-1.3,0.2-4.7-2-3.5c-21.4,12.3-44.1,22.4-66.2,33.4c-9.9,4.9-19.8,9.9-29.2,15.7c-6.6,4-13.5,8.4-18.5,14.4
				C128.9,616.6,131.7,619.4,133.3,617.4L133.3,617.4z"/>
		</g>
		<g>
			<path class="st2" d="M143.2,605.3c-5.3,16.7-4.8,36.1-4.4,53.4c0.5,20.5,1.9,42.5,9.2,61.9c0.9,2.4,4.8,1.4,3.9-1.1
				c-7.1-19.1-8.6-40.6-9-60.8c-0.4-16.9-1-36,4.3-52.3C147.8,603.9,144,602.8,143.2,605.3L143.2,605.3z"/>
		</g>
		<g>
			<path class="st2" d="M290.7,562.5c-1.6,9.9-2.3,19.9-1.3,29.9c0.2,2.5,4.3,2.6,4,0c-1-9.7-0.5-19.3,1.1-28.9
				C295,561,291.1,560,290.7,562.5L290.7,562.5z"/>
		</g>
		<g>
			<path class="st2" d="M481.6,545.6c-3.9,7.4-10.5,12.6-17,17.7c-2,1.6,0.8,4.4,2.8,2.8c6.8-5.3,13.5-10.8,17.6-18.5
				C486.3,545.3,482.8,543.3,481.6,545.6L481.6,545.6z"/>
		</g>
		<g>
			<path class="st2" d="M484.1,552.3c-2.5,4.5-5.3,8.2-9.4,11.5c-2,1.6,0.8,4.4,2.8,2.8c4.3-3.5,7.3-7.5,10-12.3
				C488.8,552,485.4,550,484.1,552.3L484.1,552.3z"/>
		</g>
		<g>
			<path class="st2" d="M143.9,618.4c19.8-11.7,41-20.7,63.2-26.8c1.9-0.5,1.1-3.4-0.8-2.9c-22.4,6.2-43.9,15.3-63.9,27.1
				C140.7,616.8,142.2,619.4,143.9,618.4L143.9,618.4z"/>
		</g>
		<g>
			<path class="st2" d="M141.7,634.5c8.8-5.5,18.6-9.3,28.3-12.9c9.8-3.6,19.7-6.9,29.9-9.3c1.9-0.4,1.1-3.3-0.8-2.9
				c-10.6,2.4-21,5.9-31.2,9.8c-9.4,3.5-19.1,7.3-27.7,12.7C138.6,632.9,140.1,635.5,141.7,634.5L141.7,634.5z"/>
		</g>
		<g>
			<path class="st2" d="M140.8,651.1c16.6-8.1,35.2-13.8,53.4-16.9c1.9-0.3,1.1-3.2-0.8-2.9c-18.5,3.2-37.3,8.9-54.1,17.2
				C137.6,649.3,139.1,651.9,140.8,651.1L140.8,651.1z"/>
		</g>
		<g>
			<path class="st2" d="M142.8,669c7.1-3.4,14.9-5.4,22.5-7.2c7.9-1.8,16-3.5,24.1-3.6c1.9,0,1.9-3,0-3c-8.4,0.1-16.8,1.8-24.9,3.7
				c-7.9,1.8-15.9,4-23.3,7.5C139.6,667.3,141.1,669.9,142.8,669L142.8,669z"/>
		</g>
		<g>
			<path class="st2" d="M143,683c14.1-5.3,30.1-7.1,44.9-9c1.9-0.2,1.9-3.2,0-3c-15.2,1.8-31.4,3.7-45.7,9.1
				C140.4,680.8,141.2,683.7,143,683L143,683z"/>
		</g>
		<g>
			<path class="st2" d="M145.6,699.8c12.8-5.5,27-8.7,40.8-10.9c1.9-0.3,1.1-3.2-0.8-2.9c-14,2.2-28.4,5.6-41.5,11.2
				C142.3,698,143.8,700.6,145.6,699.8L145.6,699.8z"/>
		</g>
		<g>
			<path class="st2" d="M147.6,713c6.8-1.8,13.8-3.2,20.7-4.7c5.8-1.2,12.1-3.2,18.1-3.2c1.9,0,1.9-3,0-3c-5.8,0-12,1.9-17.7,3.1
				c-7.3,1.5-14.6,3-21.9,4.9C145,710.6,145.8,713.5,147.6,713L147.6,713z"/>
		</g>
		<g>
			<path class="st2" d="M155.4,726.7c10.4-4,21.8-5.7,32.6-8.7c1.9-0.5,1.1-3.4-0.8-2.9c-10.7,3-22.1,4.7-32.6,8.7
				C152.8,724.5,153.6,727.4,155.4,726.7L155.4,726.7z"/>
		</g>
		<g>
			<path class="st2" d="M172.7,735.4c5.2-1.9,10.4-3.8,15.6-5.8c1.8-0.7,1-3.6-0.8-2.9c-5.2,1.9-10.4,3.8-15.6,5.8
				C170.1,733.2,170.9,736.1,172.7,735.4L172.7,735.4z"/>
		</g>
		<g>
			<path class="st2" d="M519.8,559.4c20.6,12.5,30.9,37.3,37.1,59.5c7.4,26.5,10.2,54.5,9.9,81.9c-0.1,13.8-1,27.6-3.4,41.1
				c-0.4,2.5,3.4,3.6,3.9,1.1c4.5-26.2,4.5-53.4,1.8-79.8c-2.8-27.2-8.4-55.6-22-79.7c-6.2-11-14.4-21-25.2-27.6
				C519.6,554.6,517.6,558.1,519.8,559.4L519.8,559.4z"/>
		</g>
		<g>
			<path class="st2" d="M642.4,635c-11.7-14.6-28.8-25.4-44.2-35.6c-20.7-13.6-42.1-26.1-63.8-38c-10.4-5.6-20.8-11.1-31.4-16.3
				c-2.3-1.1-4.3,2.3-2,3.5c19.7,9.7,39.1,20.3,58.1,31.4c20.3,11.8,40.4,24.2,59.2,38.4c7.7,5.8,15.4,12,21.4,19.5
				C641.2,639.9,644,637,642.4,635L642.4,635z"/>
		</g>
		<g>
			<path class="st2" d="M610.8,613.7c5.1,15.9,4.5,34.3,3.9,50.7c-0.6,19.8-2.4,40.5-9.4,59.2c-0.9,2.4,3,3.5,3.9,1.1
				c7.1-19,8.9-40.2,9.5-60.3c0.5-16.8,1.1-35.6-4.1-51.8C613.9,610.2,610,611.2,610.8,613.7L610.8,613.7z"/>
		</g>
		<g>
			<path class="st2" d="M615.1,615.8c-20-11.8-41.5-20.9-63.9-27.1c-1.9-0.5-2.7,2.4-0.8,2.9c22.2,6.1,43.4,15.1,63.2,26.8
				C615.2,619.4,616.7,616.8,615.1,615.8L615.1,615.8z"/>
		</g>
		<g>
			<path class="st2" d="M617.2,631.9c-8.6-5.4-18.2-9.1-27.7-12.7c-10.2-3.8-20.6-7.3-31.2-9.8c-1.9-0.4-2.7,2.5-0.8,2.9
				c10.2,2.3,20.1,5.7,29.9,9.3c9.7,3.6,19.5,7.4,28.3,12.9C617.3,635.5,618.8,632.9,617.2,631.9L617.2,631.9z"/>
		</g>
		<g>
			<path class="st2" d="M618.1,648.5c-16.9-8.3-35.6-14-54.1-17.2c-1.9-0.3-2.7,2.6-0.8,2.9c18.2,3.1,36.8,8.8,53.4,16.9
				C618.3,651.9,619.8,649.3,618.1,648.5L618.1,648.5z"/>
		</g>
		<g>
			<path class="st2" d="M616.1,666.4c-7.3-3.5-15.4-5.6-23.3-7.5c-8.1-1.9-16.5-3.6-24.9-3.7c-1.9,0-1.9,3,0,3
				c8.1,0.1,16.2,1.7,24.1,3.6c7.6,1.8,15.5,3.8,22.5,7.2C616.3,669.9,617.8,667.3,616.1,666.4L616.1,666.4z"/>
		</g>
		<g>
			<path class="st2" d="M615.2,680.1c-14.4-5.4-30.6-7.2-45.7-9.1c-1.9-0.2-1.9,2.8,0,3c14.8,1.8,30.8,3.7,44.9,9
				C616.2,683.7,617,680.8,615.2,680.1L615.2,680.1z"/>
		</g>
		<g>
			<path class="st2" d="M613.3,697.2c-13.1-5.6-27.5-9-41.5-11.2c-1.9-0.3-2.7,2.6-0.8,2.9c13.7,2.2,28,5.4,40.8,10.9
				C613.6,700.6,615.1,698,613.3,697.2L613.3,697.2z"/>
		</g>
		<g>
			<path class="st2" d="M610.5,710.1c-7.2-1.9-14.6-3.4-21.9-4.9c-5.7-1.2-11.9-3-17.7-3.1c-1.9,0-1.9,3,0,3c5.9,0,12.3,2,18.1,3.2
				c6.9,1.4,13.9,2.9,20.7,4.7C611.6,713.5,612.4,710.6,610.5,710.1L610.5,710.1z"/>
		</g>
		<g>
			<path class="st2" d="M602.8,723.8c-10.4-4-21.8-5.7-32.6-8.7c-1.9-0.5-2.7,2.4-0.8,2.9c10.7,3,22.1,4.7,32.6,8.7
				C603.8,727.4,604.6,724.5,602.8,723.8L602.8,723.8z"/>
		</g>
		<g>
			<path class="st2" d="M585.5,732.5c-5.2-1.9-10.4-3.8-15.6-5.8c-1.8-0.7-2.6,2.2-0.8,2.9c5.2,1.9,10.4,3.8,15.6,5.8
				C586.5,736.1,587.3,733.2,585.5,732.5L585.5,732.5z"/>
		</g>
		<g>
			<path class="st2" d="M476.2,489.3c1.5,3.6-0.2,8.8-1.2,12.3c-2.1,7.7-5.5,15-9.4,21.9c-10.7,18.8-26.4,34.6-45.8,44.2
				c-2.3,1.1-0.3,4.6,2,3.5c20.4-10.1,36.8-26.8,47.8-46.6c4-7.1,7.4-14.7,9.5-22.6c1.1-4,2.7-9.6,1-13.7
				C479.1,485.9,475.3,486.9,476.2,489.3L476.2,489.3z"/>
		</g>
		<g>
			<path class="st2" d="M267.6,503.2c-1,22.3,7.6,43.1,22.9,59.2c1.8,1.9,4.6-1,2.8-2.8c-14.7-15.4-22.7-35-21.8-56.3
				C271.8,500.7,267.8,500.7,267.6,503.2L267.6,503.2z"/>
		</g>
	</g>
</g>
</svg>
