<?xml version="1.0" encoding="utf-8"?>
<!-- Generator: Adobe Illustrator 19.2.0, SVG Export Plug-In . SVG Version: 6.00 Build 0)  -->
<svg version="1.1" id="Layer_1" xmlns="http://www.w3.org/2000/svg" xmlns:xlink="http://www.w3.org/1999/xlink" x="0px" y="0px"
	 viewBox="0 0 739.6 909.9" style="enable-background:new 0 0 739.6 909.9;" xml:space="preserve">
<style type="text/css">
	.st0{fill:#EFEFEF;}
	.st1{fill:#BBBBBC;}
	.st2{fill:#BC5B34;}
	.st3{fill:#9B4527;}
	.st4{fill:#7A7B7B;}
	.st5{fill:#6D3924;}
</style>
<g>
	<g>
		<path class="st0" d="M641.5,679.1c-5.2-14.9-8.7-30.8-16.3-44.7c-3.6-6.6-3.3-13.2-8.4-18c-0.1-0.6-1.3-3.9-1.9-4
			c-1.6-1.4-2.5-2.9-4.3-4.1c-11.8-7.7-23.2-16.2-35.6-22.8c-13.7-7.4-23.8-13.5-38.1-19.7c-4.8-3.6-7.4-3.1-10.4-5.5
			c-3.6-1.9-13.6-3.2-19.4-8.4c-0.3,0,4-22.9,1.4-22.8c-1.3,0.1-3.3-5.2-1.3-6.6c0.1,0.5-5.6-39.3-6.6-39.6
			c-13.5-3.9-18.7-14.5-23.6-20.6c-7.8-9.8-16-0.8-20.8,1.7c-1.2,5.8,1.8,27.7-0.4,33.2c-0.7,3.3-7.6,13-27,26.9
			c-8.7,6.2-26.2,17.1-45.1,15.6c-4.3-0.3-8.2-6.8-39.8-7.1c-9.3-0.1-37.2-9.7-52.7-28.8c-1.3-12.4-1.4-27.9-1.7-37.6
			c-12.2-15.4-23.3-7.8-27.5-1.8c-4.9,7.1-7.6,23.7-12.8,35.2c-2.9,6.6-8.4,7.4-11.3,14.6l1.7,15.6l-8.8,4.6l-4.2,19.4
			c0,0-7.1,1-10.5,6.1c-0.1,1.2-7.4,1.8-7.4,3.1c-28.9,13.6-50,33.2-76.6,50.8c-1.9,1.2-3.2,6.6-4.7,8c-0.7,0.1-1.4,0.7-1.5,1.4
			c-3.5,3.6-3.4,8.2-5.9,13.4c-6.4,13.4-11.8,29.3-16.2,43.5c-1.2,4-2.7,8.4-3.8,12.4c3.5,9.9,8.4,17,19.7,24.7
			c39.8,27.3,183.9,59.2,254.9,61.4c74,2.3,223-34,260-61.4c6.9-5.1,9.7-8.8,13.7-15C646.2,694.6,644,686.3,641.5,679.1z"/>
	</g>
	<g>
		<path class="st1" d="M292,575c0,0-82.3-4.8-123.9,13.2c-10.7,4.6,29.1-16.1,29.7-17.6c0.6-1.5,30.5-19.7,30.5-19.7h31.4L292,575z"
			/>
		<path class="st2" d="M379.9,536.8l-16.4-3.1l-21.5-2.7l-20.6-5.8l-14.7-9.7l-16.8-13.1L277,490.8l-9.9-12.8l-6.3-12.6l-3.4,11.7
			l-6.4,19l-4.9,8.3l-7.4,7.9l-1.2,5.1l1.9,10.3l-0.7,2.9l-6.2,1.7l-4.2,10.5l-1.9,10.4l8.8,6.3l12.3,4.6l15.4,4.1l11.2,1.9
			l14.1,3.1l18.5,2.8l9.3,3.5l16.7,8.6l2.1,0.5c0.8-8.3,0.2-16.6-2.9-24.3l0.3-0.1c2.9-0.2,7,2.5,8.3,5.1c3.2,6.7,3.8,14.1,2.9,21.6
			l1.9,0.4l26.7,5v-7l1.8-19.3l0-10.5l5.1-12.8l3.5-7.9L379.9,536.8z"/>
		<path class="st2" d="M508.4,529l-2.3-12.1l-3-15.4l-2-12.4l-0.7-6.2l-8.6-3.9l-8.7-8.1l-6.3-8.5l-4.8-3.3l-4.6,15l-6,15.3
			l-9.7,14.3l-13.5,13.4l-13.8,10l-21,10.8l-7.8,2.8l-1.8,0.1l-0.9,6.4l-0.1,19.7L395,579v3.5l-6.3-0.5l0.8,14.4l5.6-0.9l18.9-7.3
			l3.8-1.7c0.4-1.2,0.9-2.3,1.3-3.5c1.4-3.4,2.9-6.7,3.9-10.1c1.8-5.9,2.4-19.2,2.4-19.2c-0.3-1.5,3.3-1.8,4.5-0.8
			c2.9,2.4,2.9,6.8,2.3,10.5c-1,6.4-2.9,12.7-4.9,18.9l0.9-0.4l17.5-7.4l4.7-2.2l7.5-2.4l4.5-4.1l14.4-3.2l14.9-4.1l13.9-6.4
			l2.5-4.2l0.9-9.8L508.4,529z"/>
		<g>
			<path class="st2" d="M634.7,660.9H632l-12.5,4.1l-15.6,7.6l-3.6,0.8l-4.5-4.8l-7.6,10.2l-4.9,3l-13.8,5.5l-43.9,17.2l-70.5,27.5
				L392,756.7l-2,0.1v21.5c78-2.4,209.9-35.8,244.4-61.4c6.8-5,9.6-8.8,13.5-14.8L634.7,660.9z"/>
			<path class="st2" d="M379,757.1l-2.4,0.1l-32.6-14l-40.8-14.7l-55.7-19.1l-47.6-16.2l-32.8-12l-7.6-5.1l-4.2-9.4l-5.6-7.1
				l-7.1-3.2l-18.3-4.8l-9.4-3.5c-4.2,10.4-7.9,21.5-11.1,31.7c-1.2,4-2.7,8.4-3.8,12.4c3.5,9.9,8.4,17,19.7,24.7
				c39.8,27.3,184.3,59.2,255.2,61.4c1.3,0,2.2,0.1,4.2,0.1V757.1z"/>
		</g>
		<path class="st1" d="M347.4,704c-0.1-0.2-0.2-0.4-0.4-0.6c0.4-0.7,0.7-1.5,0.8-2.2c0.3-2.2-0.5-4.4-1.2-6.5
			c-4-11.7-7.3-23.9-6.4-36.2c0.9-12,5.9-23.3,9.2-34.8c3.4-11.6,5.1-24.4-0.1-35.3c-0.9-1.9-3.3-3.8-5.7-4.6c0,2.6-0.2,5.2-0.6,7.9
			c2.4,12.8-0.7,26.5-4.3,39.3c-2.4,8.3-4.9,16.8-6.4,25.3c1.2,6.2,3.1,12.4,5.1,18.4c0.7,2.1,1.5,4.3,1.2,6.5
			c-0.3,2.2-2,4.4-4.2,4.4c-0.4-0.6-0.7-1.3-1-1.9c2.3,7.7,6.2,14.9,10,21.9c0.4,0,0.8-0.1,1.1-0.2c1,2.8,2.1,5.5,3.4,8.2
			c0.8,1.7,3.4,0.2,2.6-1.5C349.4,709.5,348.4,706.8,347.4,704z"/>
		<path class="st1" d="M417,719.1c-0.7-2.7-1.7-5.3-2.8-7.8c0.2-0.1,0.4-0.1,0.7-0.2c-0.7-6.1-0.6-12.3-0.1-18.4
			c-0.1,0-0.2,0.1-0.3,0.1c-5.6-14.4-0.6-30.5-1.1-45.9c-0.2-7.1-1.6-14.1-2.2-21.1c-0.7-7.8-0.5-15.6,0.7-23.3
			c-5,13.8-7,28.7-5.7,43.3c0.6,7.1,2,14.1,2.2,21.1c0.4,15.4-4.5,31.5,1.1,45.9c0.7-0.2,1.3-0.4,2-0.6c0,0.2,0.1,0.4,0.1,0.5
			c1.1,2.3,1.9,4.7,2.6,7.2C414.6,721.7,417.5,721,417,719.1z"/>
		<polygon class="st2" points="375.4,769.3 377.6,746.7 375.2,668.3 374,612.1 371.8,592.3 371.2,564.2 378.9,546.9 384.6,540.4 
			397,539.7 397,560 395.1,582.5 389.5,596.5 387.2,640 388,678.5 388.8,725.8 390.1,777.9 377.1,777.9 		"/>
	</g>
	<g>
		<polygon class="st3" points="288.9,501.5 279.9,492.5 267,478 260.2,467.9 264.3,461.4 270.2,457 277,455.8 285,462.3 290,467.9 
			290,479 290.7,498 		"/>
		<path class="st3" d="M455.2,496c0-1.7,0.7-21.7,0.7-21.7l0-11.5l7.1-2.2l9-1.7l-2.4,7.7l-4.4,12.9l-5.4,12.2L455.2,496z"/>
		<path class="st3" d="M253.4,488.8c-0.3,6,4.2,23.6,15.9,31.6c16.2,11.2,33.6,21.4,37.4,22.5c3.8,1.1,4.7,2.6,4.7,2.6l-14.7-4.4
			l-26.3-12.6l-11.3-8.1l-9.3-9.5l-3.6-6.4l3.6-5L253.4,488.8z"/>
		<path class="st3" d="M342,569.2c0,0,7.4,13.3,9.4,21.8c0.7,3-7.4,0.1-7.4,0.1V585L342,569.2z"/>
		<path class="st3" d="M433.6,559c0,0,1.4,16.5-1.2,20.3c-2.5,3.8-5.2,3.1-5.2,3.1l3.2-9.6L433.6,559z"/>
		<path class="st3" d="M377.8,539.5c0,0-39.3,5.5-47.5,3.4c-24.2-6.2-48.4-29.8-54.9-37.8c-7.5-9.2-13.2-32.2-13.2-32.2l-0.9,15.8
			l5.5,14.6l7.3,11.2l14.2,13l15.9,11.4l12.6,7.1l12.8,2.9l18.3-2.2l25.2-4.9L377.8,539.5z"/>
		<path class="st3" d="M238.5,520.9c0,0,9,8.8,10.5,11.5s12.4,8.5,17.7,10.5c5.3,2.1,26,7.9,30.1,10.4c4.2,2.5,10.5,10,15.3,11
			c4.8,1,11.5,3.4,13.9,5.4c2.4,2.1,2.8,3.1,2.8,3.1l-5-0.5l-4.4-2.2l-11.7-1.9l-7.7-4l-6.4-6.4l-9.2-3.4c0,0-20.8-6.1-21.3-6.3
			c-0.6-0.2-16.2-8.6-16.2-8.6l-10.2-7.9l2.6-2.3L238.5,520.9z"/>
		<path class="st3" d="M227.8,544.3c12.9,12.7,79.6,29.4,87.4,29.5c7.9,0.1-6.8,1.4-6.8,1.4l-31.5-3.8l-29.5-7.1
			c0,0-16.3-7.8-17.3-8.2c-1.1-0.4-4.5-3.7-4.5-3.7S226.3,542.8,227.8,544.3z"/>
		<path class="st3" d="M310.7,575.7c14.3,4.5,24.1,5.7,24.1,5.7s0.2,6.8-1,6.8s-7.4-3.2-7.4-3.2l-11.7-6.8
			C314.7,578.2,309.6,575.4,310.7,575.7z"/>
		<path class="st3" d="M342.6,583.8c13.8,8.6,27.9,9.9,29.1,8.6c1.2-1.3,0,4.7,0,4.7l-5.7-1.5l-22.3-4.4
			C343.7,591.1,341.1,582.8,342.6,583.8z"/>
		<path class="st3" d="M442.1,569.2c0,0,4.2,2,8.6,0c4.4-2,8-5.5,9.3-6.6c1.3-1.2,31.6-11.4,37.3-14.6c5.7-3.2,10.2-17.8,10.2-17.8
			l1.3,8l-1.3,12l-11.1,6.9l-17,4.9l-18.7,4.6l-3,3.5l-6.6,2.1l-11.2-1.4L442.1,569.2z"/>
		<path class="st3" d="M499,481.9l-5.3,7.9l-5.3,6.3l-1.4,27.6l-0.7,8.2l-7.8,12l-20.4,15.7l-21.8,9.9c0,0,2.2-5.3,5.5-6.9
			c10.6-5.5,27.8-15.6,33.6-27.5c3.8-7.8,3.4-28.6,6.7-39.8c2.2-7.8,12.4-15.3,12.4-15.3L499,481.9z"/>
		<path class="st3" d="M472,463.8c-4.4,73.5-73.9,77.4-73.9,77.4l7.5,4l30-5.6l17.2-11.9l13.8-19.5l5.4-16.3l2.4-18
			C474.4,473.9,472.2,460.5,472,463.8z"/>
		<path class="st3" d="M340.1,568.6c0,0,10.1,7.7,18.4,6c8.3-1.7,15.5-12.7,15.5-12.7V573l-1.1,12l-5.9,3.2l-10.5-3.2
			c0,0-13.6-7.1-13.7-7.5S340.1,568.6,340.1,568.6z"/>
		<path class="st3" d="M424.5,559c0,0-15.3,0.5-18.9,6.2c-3.6,5.7-5.6,11.3-1.3,12.2c2.1,0.4,1.8-2.9,1.8-2.9l7.3-4.8l10.4-0.3
			L424.5,559z"/>
		<path class="st3" d="M433.6,559c0,0,3.4,4.6,8.1,3.5s3,1.1,3,1.1l-6.7,5.8l-5.7-0.3L433.6,559z"/>
	</g>
	<g>
		<g>
			<path class="st4" d="M286.3,572.5c-21.7,13.6-44.4,25.8-65.4,40.4c-2.2,1.5-4.7,3-6.2,5.1c-2,2.7-3.3,6.1-4.7,9.1
				c-5.2,11-10,22.2-14.9,33.3c-3.8,8.7-7.4,17.4-11.2,26.1c-0.8,1.8,1.8,3.3,2.6,1.5c8-18.3,15.6-36.8,24-54.9
				c2.8-6,4.8-12.5,10.3-16.5c9.9-7.2,20.6-13.4,31.1-19.7c12-7.3,24.1-14.4,36-21.9C289.5,574,288,571.4,286.3,572.5L286.3,572.5z"
				/>
			<path class="st4" d="M156.9,673c0.1,0,0.3,0.1,0.4,0.2c1,1.3,2.3,2.2,3.6,3.2c-0.4-1.6-0.8-3.2-1.2-4.7
				c-5.7-20.9-13.6-41.3-26.4-58.9c-1.1-1.5-3.7-0.1-2.6,1.5c12.6,17.4,20.5,37.5,26.1,58.2C156.8,672.6,156.9,672.8,156.9,673z"/>
		</g>
		<g>
			<path class="st5" d="M112.8,646.7c-6,15.4-10.4,31.3-15,47.2c-0.5,1.9,2.4,2.7,2.9,0.8c4.2-14.6,8.3-29.3,13.6-43.6
				c0.3-0.8,0.6-1.5,0.8-2.3C114.4,648.2,113.6,647.5,112.8,646.7z"/>
		</g>
		<path class="st4" d="M224.7,552.6c-8.3,3.2-16,8.7-23.6,13.2c-12.8,7.7-25.4,15.6-37.9,23.7c-9.2,6-18.7,11.8-27.3,18.6
			c-10.3,8.1-16.1,21.6-21,33.3c-0.5,1.3-1,2.5-1.5,3.8c0.8,0.7,1.5,1.4,2.3,2.1c4.8-12.7,10.7-27.3,21-36.1
			c7.5-6.4,16.3-11.6,24.5-16.9c12.1-7.9,24.4-15.6,36.7-23.2c8.8-5.4,17.9-12,27.6-15.8C227.3,554.8,226.5,551.9,224.7,552.6z"/>
		<g>
			<path class="st5" d="M649.9,703.3c-4.1-14.1-8.6-28.1-13.3-42.1c-1,0.1-2,0.2-3,0.3c4.9,14.1,9.3,28.3,13.5,42.6
				C647.6,705.9,650.5,705.1,649.9,703.3z"/>
		</g>
		<g>
			<path class="st5" d="M382.1,538.6c-14.2,2.6-28.5,5.9-42.8,7.8c-15,2.1-27.4-3.9-39.6-12.1c-10.3-6.9-19.5-15.5-27.3-25.2
				c-5.1-6.4-8.6-12.3-9.2-20.5c-0.6-7.7-0.6-15.5-0.9-23.2c-0.1-1.7-2.5-2.1-2.9-0.4c-2.9,10.6-6.3,21.2-10.2,31.5
				c-1.4,3.7-3.2,5.9-6.2,8.8c-2.8,2.7-6.7,6-7,10.2c-0.2,3.2,0.8,6.7,1.4,9.8c0.2,1,0.9,3.7,0.6,4.3c-0.5,0.8-4.4,1.6-5.4,2
				c-2.4,0.9-2.8,2.1-3.6,4.5c-1.8,5.2-3.2,10.6-4.7,15.9c-0.5,1.9,2.4,2.7,2.9,0.8c1.4-5.2,2.7-10.4,4.5-15.4
				c0.7-2,0.9-2.6,2.9-3.3c1.6-0.6,3.4-1,4.8-1.9c4.4-2.9-0.5-11.6-0.3-15.9c0.3-5.1,6.7-8.8,9.8-12.3c1.7-2,2.5-4.1,3.4-6.5
				c3.9-10.3,7.3-20.8,10.2-31.5c-1-0.1-2-0.3-2.9-0.4c0.3,8.3,0.3,16.7,1.1,25c0.7,7,3.5,12.4,7.7,17.9c8,10.7,17.8,20,28.8,27.6
				c11.6,8,24.4,15,38.9,13.8c15.8-1.3,31.7-5.5,47.2-8.4C384.8,541.2,384,538.3,382.1,538.6L382.1,538.6z"/>
		</g>
		<g>
			<path class="st5" d="M343.1,578.9c6.3,2.6,11.7,7.1,18.4,8.8c3.3,0.9,10.3,1.4,12.6-2c1.4-2,0.7-6.7,0.7-9c0-4.4,0-8.7,0.8-13
				c0.7-3.9,1.6-7.9,3-11.7c1.2-3.4,3.3-6.3,4.5-9.7c0.6-1.8-2.3-2.6-2.9-0.8c-1,2.8-2.7,5.3-3.8,8c-1.1,2.7-1.9,5.5-2.6,8.3
				c-1.5,6.3-1.9,12.3-2,18.8c0,3.5,0.6,7.3-3.5,8.4c-3.4,0.9-7.3-0.6-10.3-2c-4.8-2.2-9.1-5.2-14-7.2
				C342.1,575.3,341.4,578.2,343.1,578.9L343.1,578.9z"/>
		</g>
		<g>
			<path class="st4" d="M485.4,560.6c10.6,9.5,21.6,18.5,33.3,26.6c10.9,7.6,23.7,13.3,33.3,22.6c14.8,14.1,23.7,33.8,30.4,52.8
				c1.7,4.9,2.8,10.5,5.2,15.2c0.9,1.7,3.5,0.2,2.6-1.5c-2.1-4.1-3.1-9.2-4.6-13.6c-3-8.5-6.3-16.9-10.4-25
				c-4.7-9.3-10.3-18.3-17.3-26c-8.3-9.2-18.9-14.5-29.2-21.2c-14.6-9.5-28.3-20.3-41.3-31.9C486.1,557.2,484,559.3,485.4,560.6
				L485.4,560.6z"/>
			<path class="st4" d="M636.1,659.9c-0.7-1.9-1.3-3.8-2-5.7c-4.9-13.9-9.7-29-17.7-41.5c-4.6-7.2-13-10.8-20.1-14.9
				c-14-8-28.3-15.7-42.5-23.3c-15.1-8-30.2-16-45.6-23.5c-1.7-0.8-3.3,1.7-1.5,2.6c27.8,13.6,55.1,28.3,82.1,43.4
				c5.2,2.9,10.4,5.8,15.4,8.9c2.7,1.6,5.7,3.2,7.7,5.6c3.7,4.3,6.1,10.2,8.4,15.4c3.4,7.6,6.3,15.4,9.1,23.2
				c1.2,3.4,2.4,6.8,3.6,10.1C634.1,660.1,635.1,660,636.1,659.9z"/>
			<path class="st4" d="M610.5,612.5c-11.2,20.6-19.2,42.7-23.8,65.6c1.2-1.2,2.4-2.4,3.8-3.5c4.6-21.1,12.1-41.5,22.5-60.5
				C614.1,612.3,611.5,610.8,610.5,612.5z"/>
		</g>
		<g>
			<path class="st5" d="M225.2,554.4c11.4,10.8,29.3,13.7,44.1,16.9c10.2,2.2,20.4,4.1,30.8,4.9c5.5,0.4,11,0.6,16.5-0.1
				c5.8-0.7,11.4-1.6,17.2-1.2c1.9,0.1,1.9-2.9,0-3c-10-0.7-19.9,2.1-30,1.5c-10.7-0.6-21.4-2.4-31.9-4.7
				c-14.7-3.1-33.2-5.8-44.6-16.6C225.9,551,223.8,553.1,225.2,554.4L225.2,554.4z"/>
		</g>
		<g>
			<path class="st5" d="M334.9,586.8c-11.9-4.9-22.8-12-35.7-13.7c-1.9-0.2-1.9,2.8,0,3c12.6,1.6,23.4,8.8,34.9,13.6
				C335.9,590.4,336.6,587.5,334.9,586.8L334.9,586.8z"/>
		</g>
		<g>
			<path class="st5" d="M373.4,595.6c-9.8-1.9-19.6-3.6-29.2-5.9c-1.9-0.4-2.7,2.4-0.8,2.9c9.7,2.3,19.5,4,29.2,5.9
				C374.5,598.8,375.3,595.9,373.4,595.6L373.4,595.6z"/>
		</g>
		<g>
			<path class="st5" d="M244.6,504.9c4.5,11.9,17.1,20.4,27.6,26.5c14.2,8.4,30.2,14.6,46.7,16.2c1.9,0.2,1.9-2.8,0-3
				c-15.5-1.5-30.5-7.4-43.9-15.1c-10.1-5.8-23.1-14-27.4-25.5C246.8,502.3,243.9,503.1,244.6,504.9L244.6,504.9z"/>
		</g>
		<g>
			<path class="st5" d="M236.3,533.5c13.4,11.1,28.5,17.7,45.3,21.8c4.5,1.1,9,2.4,12.7,5.3c3,2.4,5.1,5.7,8.6,7.5
				c6.7,3.4,14.9,2.2,21.3,6.3c1.6,1,3.1-1.6,1.5-2.6c-6-3.9-13.3-3.2-19.9-5.7c-4.3-1.6-6.4-5.4-9.9-8.1c-2.7-2.1-5.9-3.5-9.1-4.5
				c-8.3-2.6-16.7-3.9-24.7-7.5c-8.5-3.8-16.6-8.7-23.8-14.7C237,530.1,234.9,532.3,236.3,533.5L236.3,533.5z"/>
		</g>
		<g>
			<path class="st5" d="M384,541.1c2.1,0,4.5,0.2,6.6-0.1c1.4-0.2,2.2,0.8,1.7-1.1c0.1,0.5-0.3,1.6-0.4,2.1c-0.6,3.8-0.9,7.7-1,11.5
				c-0.3,9.5-0.1,19.8,3.3,28.8c0.3-0.6,0.7-1.2,1-1.8c-4.1,0.7-7.9,0.6-12,0.4c-3.1-0.1-2.7-0.6-2.9-3.5c-0.2-3.9,0-7.9,0.2-11.8
				c0.6-8.4,1.4-17.2,4.1-25.3c0.6-1.8-2.3-2.6-2.9-0.8c-2.4,7.1-3.2,14.8-3.9,22.2c-0.6,6.6-1.4,13.9,0.1,20.5c0.1,0.5,0.6,1,1,1
				c5.7,1,11.3,1.1,17,0.1c0.8-0.1,1.3-1.1,1-1.8c-2.7-7.2-3.2-15.1-3.3-22.8c0-6.1,0-12.6,1.5-18.6c0.1-0.5,0-1.1-0.4-1.5
				c-2.4-1.9-8.2-0.6-11-0.6C382.1,538.1,382.1,541.1,384,541.1L384,541.1z"/>
		</g>
		<g>
			<path class="st5" d="M427.8,583.8c7.2-3.7,15.3-5.5,22-10.2c1.6-1.1,0.1-3.7-1.5-2.6c-6.7,4.6-14.8,6.5-22,10.2
				C424.6,582.1,426.1,584.7,427.8,583.8L427.8,583.8z"/>
		</g>
		<g>
			<path class="st5" d="M389.9,597.9c9.7-1.6,19.3-6.4,28.4-10.1c1.8-0.7,1-3.6-0.8-2.9c-9,3.7-18.7,8.5-28.4,10.1
				C387.2,595.3,388,598.2,389.9,597.9L389.9,597.9z"/>
		</g>
		<g>
			<path class="st5" d="M432.4,570.6c8.2,1,16.3,5.1,24.4,1.5c2.4-1.1,2.7-3.1,4.8-4.4c1.7-1.1,4.3-1.5,6.3-2
				c11-3,22.6-4.9,33.1-9.4c3-1.3,6.4-2.8,7.8-6c2.4-5.4,1.6-13,1-18.6c-1.5-15.2-6.3-29.9-7.4-45.1c-0.3-4,0.1-4.8-3.9-6.7
				c-4.6-2.2-8.9-3.4-12.4-7.4c-4.1-4.7-7.5-12.9-13.7-15.2c-1.4-0.5-2.2,1.1-1.7,2.2c1.6,3.5,1.5,8.1,1.6,11.8
				c0.2,6.9-0.5,13.8-2,20.6c-3.9,17.7-13.6,33.8-29.8,42.7c-5.7,3.1-11.9,5.3-18.2,6.6c-7.1,1.5-19.4,4.4-25-1.6
				c-1.3-1.4-3.4,0.7-2.1,2.1c4.8,5.2,12.3,4.5,18.8,3.8c6.5-0.7,12.9-2,19.1-4.3c10-3.7,19.1-9.8,25.9-18.1
				c11.2-13.6,16.2-31.7,16.4-49.2c0.1-5.1,0.1-11.3-2-16c-0.6,0.7-1.1,1.5-1.7,2.2c5.2,1.9,8.5,9.8,12,13.9c1.9,2.2,4,4.1,6.6,5.5
				c2.9,1.5,8.2,2.1,9.1,5.3c0.6,2.4,0.5,5.3,0.8,7.8c0.5,3.5,1.2,7,1.8,10.4c1.4,7.1,2.9,14.1,4,21.2c1,6.7,1.9,13.8,1,20.7
				c-0.7,5-2.7,6.6-7.2,8.5c-9.8,4.1-20.6,6-30.8,8.7c-3,0.8-7.5,1.4-10,3.5c-2.2,1.9-1,2.8-4.8,4.2c-2.7,0.9-5.7,0.8-8.4,0.3
				c-4.4-0.7-8.7-2.1-13.2-2.7C430.5,567.4,430.5,570.4,432.4,570.6L432.4,570.6z"/>
		</g>
		<g>
			<path class="st5" d="M406.6,576.3c4.2-5.1,11-5.6,17.2-5.8c1.9-0.1,1.9-3.1,0-3c-7,0.2-14.5,1-19.3,6.7
				C403.3,575.6,405.4,577.8,406.6,576.3L406.6,576.3z"/>
		</g>
		<g>
			<path class="st5" d="M497,481.1c-1.3,6.3-7.9,9.3-9.6,15.3c-1,3.5-0.8,7.6-1.1,11.1c-0.3,5.2-0.6,10.5-0.9,15.7
				c-0.1,2.5,0.1,5.6-0.6,8.1c-1.6,5.6-6.8,10.7-10.8,14.5c-10.7,10.3-24.3,17.2-38.2,22.2c-1.8,0.6-1,3.5,0.8,2.9
				c17.8-6.4,36.2-16.1,47.4-32c6.4-9.1,4.7-20.8,5.3-31.4c0.2-3.4-0.1-7.6,1.1-10.8c2-5.7,8.2-8.5,9.5-14.8
				C500.3,480,497.4,479.2,497,481.1L497,481.1z"/>
		</g>
		<g>
			<path class="st5" d="M371.2,585c3,64.5,4,129,5,193.6c0,1.9,3,1.9,3,0c-1-64.5-2.1-129.1-5-193.6
				C374.1,583.1,371.1,583.1,371.2,585L371.2,585z"/>
		</g>
		<g>
			<path class="st5" d="M387.2,583.8c-2.9,64.9,1,129.8,1.2,194.8c0,1.9,3,1.9,3,0c-0.3-64.9-4.1-129.8-1.2-194.8
				C390.3,581.9,387.3,581.9,387.2,583.8L387.2,583.8z"/>
		</g>
		<g>
			<path class="st5" d="M113.2,648.2c9.5,4.9,21.5,7.2,31.7,10.3c6.6,2,7,10.4,10.7,15.5c3.6,4.9,9.1,8,14.6,10.4
				c13.5,5.8,27.8,9.9,41.7,14.5c41.3,13.9,82.6,27.7,123.4,42.8c8.8,3.2,17.5,6.5,26.2,10.1c4.7,1.9,9.9,3.8,14.1,6.8
				c1.6,1.1,3.1-1.5,1.5-2.6c-3.5-2.4-7.6-4-11.5-5.7c-6.9-2.9-13.9-5.6-20.9-8.3c-19.8-7.5-39.8-14.5-59.8-21.4
				c-35-12.1-70.3-23.5-105.3-35.9c-6.5-2.3-13.5-4.7-18.7-9.5c-5.5-5-5.6-15-12.3-18.7c-3.9-2.1-9.1-2.6-13.4-3.7
				c-6.5-1.7-14.3-4.2-20.3-7.2C113,644.7,111.5,647.3,113.2,648.2L113.2,648.2z"/>
		</g>
		<g>
			<path class="st5" d="M392.4,758.2c27.4-11.1,55-21.7,82.5-32.4c32.4-12.6,64.9-25.2,97.2-38c4-1.6,8.1-3,12.1-4.7
				c5.4-2.4,8.9-9.2,12.5-13.2c-0.7,0-1.4,0-2.1,0c3.5,3,4.6,6.9,9.4,4.5c9.7-5,20.1-11.7,31.2-12.2c1.9-0.1,1.9-3.1,0-3
				c-8.9,0.3-16.5,4.4-24.3,8.3c-2,1-4,1.9-6,2.9c-0.9,0.5-2.4,1.7-3.5,1.8c-0.7,0.1-0.2,0.2-1.1-0.9c-1.2-1.3-2.4-2.6-3.7-3.8
				c-0.5-0.5-1.6-0.7-2.1,0c-3.2,4-6.8,10.2-11.2,12.5c-3.1,1.6-6.7,2.7-10,4c-13.5,5.4-27.1,10.6-40.7,15.9
				c-33.9,13.2-67.8,26.4-101.6,39.6c-13.2,5.1-26.4,10.4-39.5,15.7C389.9,756,390.6,758.9,392.4,758.2L392.4,758.2z"/>
		</g>
		<path class="st2" d="M337.2,619.7c3.8-11.8,8.4-23.7,8-36.4c-0.3-8.3-2.8-20.1-13-20.5c-0.4,0-0.7,0.1-0.9,0.2
			c-0.7,0.2-1.2,0.8-0.9,1.7c8.2,21.7-1.9,43.7-6.8,64.9c-2.2,9.6-3.5,19.5-1.8,29.3c1.7,10.2,6.7,19.4,11.6,28.4
			c0.3,0.6,1.1,0.8,1.7,0.7c11-2.2,1.9-19.2,0.3-25.2C331.5,647.9,332.6,634.3,337.2,619.7z"/>
		<path class="st5" d="M337.2,619.7c3.8-11.8,8.4-23.7,8-36.4c-0.3-8.3-2.8-20.1-13-20.5c-0.4,0-0.7,0.1-0.9,0.2
			c-0.7,0.2-1.2,0.8-0.9,1.7c8.2,21.7-1.9,43.7-6.8,64.9c-2.2,9.6-3.5,19.5-1.8,29.3c1.7,10.2,6.7,19.4,11.6,28.4
			c0.3,0.6,1.1,0.8,1.7,0.7c11-2.2,1.9-19.2,0.3-25.2C331.5,647.9,332.6,634.3,337.2,619.7z M335.3,684.7c-5.1-9.4-10-19-11.2-29.8
			c-1.2-11.3,1.6-22.7,4.6-33.5c5-17.9,11.2-36.9,5.2-55.3c10.1,2.4,8.6,21.3,7.3,28.9c-1.7,10-5.8,19.4-8.5,29.1
			c-2.7,9.3-3.8,18.6-2.5,28.2c0.6,4.4,1.5,8.8,2.7,13.1C333.7,668.4,339.8,681.9,335.3,684.7z"/>
		<g>
			<path class="st5" d="M336.5,686.8c1,3,2.2,5.9,3.6,8.8c0.8,1.7,3.4,0.2,2.6-1.5c-1.2-2.6-2.3-5.3-3.3-8.1
				C338.8,684.2,335.9,685,336.5,686.8L336.5,686.8z"/>
		</g>
		<path class="st2" d="M433.6,563.5c0.5-3.8,0.7-9.4-3-11.8c-2.1-1.4-6.1-1.2-6.7,1.7c0,0,0,0.1,0,0.1c0,0.1,0,0.2,0,0.3
			c-0.4,8.2-1.1,16.2-4.2,23.9c-5,12.5-8.7,24.8-9.3,38.4c-0.7,14.1,3.1,27.9,2.3,42c-0.7,13.2-3.4,26.4,1.2,39.2
			c0.3,0.7,1,1.3,1.8,1c1.8-0.6,3.6-1.1,5.4-1.7c0.6-0.2,1.2-0.8,1.1-1.4c-1.5-15.3,1.4-30.3,2.3-45.5c0.4-7.3,0.2-14.5-0.8-21.8
			c-1.1-8.3-2.3-16.3-0.9-24.6C425.3,589.7,431.8,577.2,433.6,563.5z"/>
		<g>
			<path class="st5" d="M426.8,554.2c2.6,0.5,3.9,1.8,3.9,3.8c0.2,0.6,0.2,1.3,0.2,1.9c0,1.7-0.2,3.3-0.5,4.9
				c-0.5,2.9-1.2,5.8-2,8.6c-1.5,5.4-3.4,10.7-5,16.1c-3.4,11.1-4.7,21.5-3.2,33.1c1.6,12,2,23.3,0.8,35.3
				c-1.2,12.4-2.8,24.7-1.7,37.2c0.4-0.5,0.7-1,1.1-1.4c-1.8,0.6-3.6,1.1-5.4,1.7c0.6,0.3,1.2,0.7,1.8,1
				c-4.7-13.1-1.5-26.7-1.1-40.2c0.5-14.1-3.3-27.9-2.3-42.1c0.5-7.2,1.7-14.3,3.7-21.2c1.9-6.4,4.9-12.4,6.9-18.8
				c2.1-6.5,2.4-13.7,2.7-20.4c0.1-1.9-2.9-1.9-3,0c-0.4,8.2-1.1,16.2-4.2,23.9c-5,12.5-8.7,24.8-9.3,38.4
				c-0.7,14.1,3.1,27.9,2.3,42c-0.7,13.2-3.4,26.4,1.2,39.2c0.3,0.7,1,1.3,1.8,1c1.8-0.6,3.6-1.1,5.4-1.7c0.6-0.2,1.2-0.8,1.1-1.4
				c-1.5-15.3,1.4-30.3,2.3-45.5c0.4-7.3,0.2-14.5-0.8-21.8c-1.1-8.3-2.3-16.3-0.9-24.6c2.3-13.5,8.7-26,10.6-39.7
				c0.5-3.8,0.7-9.4-3-11.8c-2.1-1.4-6.1-1.2-6.7,1.7C423.5,555.3,426.4,556.1,426.8,554.2z"/>
		</g>
		<g>
			<path class="st5" d="M262.8,465.5c0.2-2.4,9.8-8.3,12.2-8c2.4,0.4,5.4,3.1,7.2,4.5c1.5,1.1,4.9,3,5.7,4.6
				c0.4,0.9,0.2,3.3,0.2,4.5c0.1,3.3,0.3,6.5,0.4,9.8c0.3,7.4,0.5,14.7,0.7,22.1c0.1,1.9,3.1,1.9,3,0c-0.3-9.5-0.5-19-0.9-28.5
				c-0.1-2.5,0.2-5.7-0.4-8.1c-0.5-1.9-1.8-2.8-3.3-4c-3.4-2.8-9.7-9.1-14.6-7.8c-3.7,1-12.7,6.5-13.2,10.9
				C259.6,467.4,262.6,467.4,262.8,465.5L262.8,465.5z"/>
		</g>
		<g>
			<path class="st5" d="M258.9,468.7c3.7,4.9,6.7,10.2,10.8,14.8c4.3,4.8,8.7,9.5,13.1,14.1c8.8,9,18.3,17.5,29,24.1
				c9.8,6.1,20.6,10.2,32.1,11.6c12.6,1.5,26.3,0.7,37.7,6.9c1.7,0.9,3.2-1.7,1.5-2.6c-9.4-5.2-20.4-5.7-30.9-6.6
				c-13-1.1-24.7-3.8-36.2-10.4c-10.9-6.3-20.5-14.6-29.4-23.5c-4.4-4.4-8.6-8.9-12.7-13.4c-4.7-5.2-8.3-11-12.5-16.6
				C260.4,465.6,257.7,467.1,258.9,468.7L258.9,468.7z"/>
		</g>
		<g>
			<path class="st5" d="M395.5,542c38.3-12.1,71.6-42.1,77.3-83.1c0.2-1.1-0.6-2.1-1.8-1.8c-5.3,1.2-10.4,2.2-15.4,4.3
				c-0.6,0.2-1.2,0.7-1.1,1.4c1.1,11.4-0.1,22.8-0.3,34.2c0,1.9,3,1.9,3,0c0.2-11.4,1.4-22.8,0.3-34.2c-0.4,0.5-0.7,1-1.1,1.4
				c5-2.1,10.1-3.1,15.4-4.3c-0.6-0.6-1.2-1.2-1.8-1.8c-5.6,40-37.8,69.2-75.2,81C392.8,539.7,393.6,542.5,395.5,542L395.5,542z"/>
		</g>
		<g>
			<path class="st5" d="M416.5,697.7c1.1,2.3,1.9,4.7,2.6,7.2c0.5,1.9,3.4,1.1,2.9-0.8c-0.7-2.7-1.7-5.3-2.9-7.9
				C418.3,694.5,415.7,696,416.5,697.7L416.5,697.7z"/>
		</g>
		<g>
			<path class="st5" d="M167.1,704c-1.7-8.4-3.6-16.9-5.6-25.3c-1.2-1.2-2.7-2.2-4-3.3c2.3,8.9,4.3,17.9,6.2,26.9
				c2.5,12,5.1,24,4.6,36.3c-0.1,1.9,2.9,1.9,3,0C171.8,726.9,169.5,715.4,167.1,704z"/>
		</g>
		<g>
			<path class="st5" d="M590.1,676.7c-1.3,1.2-2.6,2.5-3.8,3.8c-3.8,20.2-4.9,40.9-3.2,61.5c0.2,1.9,3.2,1.9,3,0
				C584.3,720.1,585.7,698.1,590.1,676.7z"/>
		</g>
	</g>
</g>
</svg>
