<?xml version="1.0" encoding="utf-8"?>
<!-- Generator: Adobe Illustrator 19.2.0, SVG Export Plug-In . SVG Version: 6.00 Build 0)  -->
<svg version="1.1" id="Layer_1" xmlns="http://www.w3.org/2000/svg" xmlns:xlink="http://www.w3.org/1999/xlink" x="0px" y="0px"
	 viewBox="0 0 358 342.5" style="enable-background:new 0 0 358 342.5;" xml:space="preserve">
<style type="text/css">
	.st0{fill:#4F5559;}
	.st1{fill:#2E3438;}
	.st2{fill:#1A1E21;}
</style>
<g>
	<path class="st0" d="M289.5,282.9l-0.4,0.3c0.1-7,0.2-14.1,0.4-21c0.1-5.5,0.2-10.9,0.3-16.4l0.1-5.3c0.4-22.6,0.7-46.1-2.1-68.8
		l-0.1-1.1c-0.9-6.9-1.9-15.4-7.2-21c-9-9.6-19.9-17.6-30.5-25.3l-2.1-1.6l-1,0.3c-16.7,5.9-35.3,8.9-53.6,8.9c-0.5,0-0.9,0-1.4,0
		c-10.7-0.1-20.6-1.4-29.6-4l-0.6-0.2l-0.7,0.2c-6.2,1.4-12.6,2.1-19.1,2.1c-7,0-14.1-0.8-20.9-2.5c-5.9-1.4-10.4-3-14.2-4.8
		l-1.3-0.6c0,0-3.2,3.4-4.2,4.5c-8.5,9-17.2,18.2-23.9,29c-9.4,15.2-10.7,32.1-10.8,45.2c0,4.5,0,9,0.1,13.4
		c0.1,5.1,0.1,10.5,0,15.7l0,0.2l0.3,0.2l0.2,0.2v0.1c0,5.3-0.4,9.8-0.7,13.9c0,0.4-0.3,2-0.3,2v0.1l-0.2,0.1c-0.5,5-1.2,10-1.9,15
		l-0.1,0.5l0.1,0.3l-0.2,0.3l-0.1,0.4c-1,6.9-2.3,13.7-3.7,20.4l-1.1-5.2c-1-4.4-1.9-8.8-2.9-13.2l-0.1-0.6l-0.1-0.1l0-0.1l-0.1-0.5
		c-3.3-15.3-6.9-33.4-9-51.5l0.2-0.2l0.2-0.1V212l-0.2-0.1c-0.5-4.1-1-7.9-1.3-11.6c-1-12.2-1.8-26.3,1.5-38.9
		c2.8-10.6,8.2-21.4,16-32l0.1-0.1l0-0.1l0.1-0.1l0.1-0.1c2.9-3.9,6.1-7.8,9.6-11.6c10.9-11.9,22.6-21.5,34.8-28.5
		c10.6-6.1,23.7-10.6,41.1-14c14.4-2.8,28.8-4.3,42.7-4.3c17.5,0,33.9,2.3,48.6,6.8c6.9,2.1,23.7,8.3,29.4,19.4
		c2.2,4.4,2.4,9.2,0.7,14.2l-0.7,1.9l1.9,0.7c1.7,0.6,3.5,1.3,5.1,2l0.4,0.2l0.3,0l0.2,0.2l0.4,0.2c12.1,5.6,19.9,13.1,23.8,23
		c3.2,8.1,4.3,17.3,5.4,26.2l0.3,2.3c2.3,18.2,2.5,33,0.8,46.5c-0.1,0.6-0.2,1.2-0.3,1.9l-0.2,1.2l0,0.1l0,0.1l0,0.2
		c-1,7.5-2.3,14.9-3.9,21.9l-0.1,0.4l0,0.2l-0.1,0.2l-0.1,0.4c-1.4,6.3-3,12.5-4.7,18.2c-1.7,5.6-3.7,11.2-5.6,16.6
		c-1,2.7-1.9,5.4-2.9,8.1L289.5,282.9z"/>
	<g>
		<path class="st1" d="M65.2,188c-4.9-7.4-11.4-13.6-19.2-18.3l-0.6-0.3l0.1-0.7c0.6-3.7,1.4-7.4,2.6-11l0.5-1.6l1.2,1.3
			c7.8,8.4,13.3,16.2,16.9,23.8c0.1,0.2,0.2,0.2,0.2,0.2l1,0.2l-0.2,1c-0.3,1.7-0.5,3.4-0.7,5.1l-0.3,2.8L65.2,188z"/>
		<path class="st1" d="M81.9,147.1c-9-7.1-10.6-21.7-10.9-27.7l0-0.4l0.3-0.3c1.3-1.5,2.6-2.9,3.9-4.3l1.1-1.1l0.6,1.4
			c3.7,9.1,9.7,16.1,16.1,18.7l1.3,0.5l-1,1.1c-4,4.4-7.1,8.1-9.9,11.8l-0.6,0.8L81.9,147.1z"/>
		<path class="st1" d="M66.6,178.6c-3.7-7.4-9.4-14.9-17.2-23.2L49,155l0.2-0.6c1.1-3,2.4-6,3.9-9.1l0.8-1.6l1,1.5
			c1,1.5,2,3.1,3,4.6c4.3,6.5,8.8,13.2,11.4,20.5c0.1,0.2,0.1,0.2,0.3,0.3l0.8,0.4l-0.2,0.8c-0.6,2.2-1.2,4.4-1.7,6.6l-0.6,2.8
			L66.6,178.6z"/>
		<path class="st1" d="M61.9,266.5c-1.9-0.6-3.9-1.4-5.7-2.2l-0.5-0.2c0,0-0.7-3.3-0.9-4.1l-0.4-2l1.8,0.9c0.7,0.3,1.4,0.7,2.1,0.9
			c0.3,0.1,0.7,0.3,1.1,0.4c1.2,0.4,2.7,0.9,3.7,1.7l0.5,0.4l-0.1,0.6c-0.1,0.6-0.2,1.3-0.3,1.9l-0.3,2L61.9,266.5z"/>
		<path class="st1" d="M65.1,219.1c-5.9-2.8-11.9-5.2-18-7.2l-0.6-0.2l-0.1-0.6c-0.3-2.2-0.5-4.5-0.7-6.7l-0.2-1.6l1.5,0.5
			c1.3,0.5,2.8,0.8,4.3,1.1c1.2,0.2,2.3,0.5,3.3,0.8c3.2,1,6.5,2,9.7,3.1l1.2,0.4l0.8,0.2l0,0.7c0,1.8,0.1,3.5,0.1,5.3l0.1,4.9
			L65.1,219.1z"/>
		<path class="st1" d="M58.9,278.6c-0.8-3.8-1.7-7.6-2.5-11.5l-0.4-1.8l1.7,0.7c1.5,0.6,2.9,1.1,4.3,1.6l0.8,0.3l-0.1,0.9
			c-0.5,3.2-1.2,6.5-1.9,9.9L58.9,278.6z"/>
		<path class="st1" d="M65.1,207.4c-1-0.3-1.9-0.6-2.9-0.9c-2-0.6-4-1.2-6-1.9c-1-0.4-2.3-0.6-3.7-0.9c-2.1-0.4-4.4-0.8-6.1-1.8
			l-0.3-0.2l-0.1-0.4c0-0.1-0.1-0.2-0.2-0.2l-0.4-0.3l0-0.5c-0.1-1.2-0.2-2.4-0.3-3.5l-0.1-1.2l1.2,0.2c7.1,0.9,13.7,3.7,19.6,8.1
			l0.5,0.3l0.1,0.6l0,2.9L65.1,207.4z"/>
		<path class="st1" d="M64.9,238.3c-4.8-2.3-9.8-2.7-14-2.7l-0.8,0l-0.1-0.8c-0.8-4.8-1.6-9.7-2.3-14.8l-0.4-2.7l2,1.8
			c4.8,4.2,10.2,8.5,16.7,11.1l0.6,0.3l0,0.7c0,2.1-0.1,4.2-0.2,6.3l-0.1,1.5L64.9,238.3z"/>
		<path class="st1" d="M62.7,260.6c-0.5-0.2-1-0.4-1.5-0.6c-0.3-0.1-0.6-0.2-0.9-0.4l-0.3-0.1c-1.9-0.8-3.7-1.5-5.4-2.6l-0.4-0.2
			l-0.1-0.4c-1.1-5.2-1.9-9.2-2.6-13l-0.3-1.6l1.5,0.4c1.5,0.4,3.4,1,5.4,1.6c0.4,0.1,1,0.3,1.6,0.5c1.9,0.5,4.2,1.2,5.5,2.2
			l0.5,0.3l-0.1,0.6c-0.4,4.2-0.9,8.4-1.5,12.6l-0.2,1.3L62.7,260.6z"/>
		<path class="st1" d="M297.4,259.5c-0.3-0.1-0.6-0.2-0.8-0.3c-0.2-0.1-0.4-0.2-0.6-0.2c-1.7-0.7-3.6-1.3-5.7-1.7l-0.8-0.2l0-0.8
			c0.1-4.3,0.2-8.7,0.2-13l0-2l1.6,1.2c2.3,1.8,5.8,4.2,9.5,4.5l1.2,0.1l-0.3,1.1c-0.8,3.3-1.6,6.2-2.4,9c-0.1,0.4-0.2,0.8-0.4,1.2
			l-0.5,1.6L297.4,259.5z"/>
		<path class="st1" d="M289.1,281c0.1-4.8,0.1-9.6,0.2-14.4l0-1.2l1.2,0.3c1.6,0.4,3.1,0.9,4.6,1.7l0.8,0.4l-0.3,0.8
			c-0.8,2.3-1.6,4.7-2.5,7c-0.7,1.9-1.4,3.8-2.1,5.8L289.1,281z"/>
		<path class="st1" d="M302.8,239.4c-5.1-0.7-9.9-4.4-12.3-6.5c0,0-0.1-0.1-0.2-0.1l-0.6-0.3l0-0.6c0-3.9,0-7.8,0-11.7l0-1.3
			l2.4,0.6c4.8,1.1,9.4,2.2,13.6,5.1l0.5,0.4l-0.1,0.6c-0.7,4.2-1.5,8.6-2.4,13l-0.2,0.9L302.8,239.4z"/>
		<path class="st1" d="M214.7,124.3c-10.7,0-21.1-1.2-30.9-3.7c-7.3-1.8-14-4.2-19.8-7.1l-1-0.5c-2.4-1.2-5.2-2.5-6.8-4.4
			c0,0,0,0,0,0c-5.7-3.6-9.9-10.1-9.9-16.9c0-0.2,0.1-0.3,0.2-0.4c-1.2-6.7-0.9-11.6,0.9-14.6l1.2-2l-2.3,0.5
			c-5.3,1.1-10.4,2.5-15.2,3.9c-2,0.6-4.1,1.3-6.3,2.1l-0.1,0l-0.1,0.1c0,0-0.2,0.1-0.2,0.1c-3,1.2-3.4,4.7-3.4,7.2
			c0.1,0.1,0.2,0.2,0.2,0.4c0.9,4.7,2.2,9.6,4.3,13.9c1.8,3.6,4.6,5.7,7,8.8c0,0,0,0.1,0.1,0.1c8.5,8,19.2,13.7,31.8,16.9
			c8.9,2.3,18.6,3.4,28.8,3.4c10.8,0,22.3-1.3,34.4-3.8c7.3-1.5,13.7-3.3,19.8-5.4l0.2-0.1l0.1-0.1l-0.6-1.9
			C235.9,123.1,225.1,124.3,214.7,124.3z"/>
		<path class="st1" d="M230.5,77.7C230.5,77.7,230.5,77.7,230.5,77.7c2.3,0.7,4,2.4,6.2,3.3c0.4,0.1,0.5,0.5,0.5,0.8
			c6.8,3.5,12.7,9.2,18.3,14.7l0.8,0.8c4.3,4.3,9.3,9.2,11.8,14.7l0.3,0.7c0.1-0.1,0.2-0.2,0.3-0.2c0.3-0.1,0.6-0.3,0.9-0.4
			c0.1-0.1,0.2-0.1,0.3-0.1l0-0.1c2.3-5.9,2-11.3-0.6-16.2c-6.7-12.4-27.8-18.6-39.8-21.1l-0.8,1.8l0.3,0.2
			C229.4,76.8,230,77.2,230.5,77.7z"/>
		<path class="st1" d="M272.3,114.7c0-0.1-0.1-0.2,0-0.2l0-0.7l-1-0.4c-0.3-0.1-0.6-0.2-0.8-0.3c-0.1,0.1-0.1,0.2-0.3,0.2
			c-0.4,0.2-0.7,0.4-1.1,0.5c0,0.3-0.2,0.6-0.5,0.7c-0.8,0.3-1.7,0.3-2.5,0.6c-0.9,0.3-1.7,0.7-2.6,1.1c-0.2,0.1-0.5,0.1-0.7,0
			l-0.3,0.1l-0.2,0.3c-1.8,2.7-6.5,4.3-10,5.6c-0.7,0.2-1.3,0.5-2,0.7l-1.7,0.6l1.5,1.1c1.1,0.8,2.3,1.7,3.4,2.5l0.5,0.4l0.5-0.2
			c0.1,0,0.1,0,0.2,0c0,0,0.1,0,0.1,0c0.4,0.1,0.8,0.1,1.2,0.1c3.3,0,7.2-2.6,9.5-4.2c1.5-1,2.8-2.1,3.8-3.2
			c0.8-0.9,2.8-3.3,3.1-4.7l0.1-0.3L272.3,114.7z"/>
		<path class="st1" d="M96,116c-0.1-0.1-0.1-0.2-0.1-0.4c-1.9-1.7-3.2-4.3-3.4-6.7c0-0.3,0.1-0.5,0.3-0.6c0-3.2,0.6-6,1.8-8.6
			l-1.5-1.2c-2.1,1.6-4.2,3.2-6.2,4.9l-0.4,0.4l0,0.5c-1.1,9.1,1.5,21.3,9.7,26.4l0.7,0.4l0.6-0.6c1.3-1.4,2.7-2.9,4-4.3l3.1-3.3
			l-1.1-0.6C100.4,120.5,97.9,118.3,96,116z"/>
		<path class="st1" d="M279.1,148.1c-1.4-1.4-2.9-2.9-4.8-4.5l-0.9-0.8l0.9-0.8c6.7-5.8,12.9-10.9,20.5-13.3l0.6-0.2l0.6,0.7
			c0.1,0.2,0.3,0.3,0.4,0.5l0.5,0.7l-0.6,0.6c-2.1,2.3-4.3,4.6-6.4,6.7c-3.1,3.3-6.4,6.6-9.4,10.2l-0.7,0.9L279.1,148.1z"/>
		<path class="st1" d="M262.8,134.3c-1.9-1.5-3.7-3-5.6-4.4l-1.8-1.3l2.2-0.4c3.7-0.7,7.7-3.5,9.8-5.1c2.6-2,5.5-5,5.9-7.7l0.2-1.2
			l1.1,0.5c0.5,0.2,1,0.4,1.5,0.7l0.7,0.3l-0.2,0.8c-0.7,3.6-2,6.8-3.8,9.7c-1.5,2.3-5.4,7.7-9.4,8.5l-0.4,0.1L262.8,134.3z"/>
		<path class="st1" d="M307.5,187.9c-5-1.8-10.5-2.1-15.8-2.3l-2.7-0.1l-0.1-0.9c-0.3-4.5-0.7-8.6-1.2-12.6l-0.1-1.1l1.1,0
			c0.7,0,1.4,0.2,2.2,0.2c1.4,0,2.8,0.4,4.2,0.4c0,0,0,0,0,0c0.1,0,0.3-0.3,0.3-0.6c0-0.1,0-0.7-0.5-0.8c-1.3-0.1-2.7-0.2-4.1-0.2
			c-0.8,0-1.6,0-2.4,0l-0.9,0l-0.1-0.9c-0.2-1.3-0.4-3.1-0.7-4.8l-0.2-1.3l1.3,0.1c2.8,0.2,5.7,0.3,8.5,0.3c3.2,0,6.5-0.1,9.7-0.4
			l1-0.1l0.1,1c0.2,1.5,0.4,3,0.5,4.5l0.1,0.9l-0.8,0.2c-1.8,0.5-3.7,1-5.5,1c-0.5,0-1,0.2-1.5,0.2c0,0,0,0,0,0
			c-0.1,0-0.3-0.2-0.3,0.1c0,0.1,0,0.5,0.5,0.5c0.5,0,1,0,1.4,0c1.7,0,3.5-0.2,5.3-0.7l1.1-0.3l0.1,1.1c0.6,5.2,0.9,10.5,1.1,15.6
			l0,1.5L307.5,187.9z"/>
		<path class="st1" d="M295.9,162.3c-3,0-6.1-0.1-9.1-0.3l-0.7-0.1l-0.2-0.7c-0.3-1.5-0.7-2.9-1.2-4.2l-0.3-0.8l0.8-0.4
			c6.9-3.6,13-5.4,18.6-5.6l0.9,0l0.2,0.8c0.6,2.8,1.1,6,1.6,9.8l0.1,1l-1,0.1C302.4,162.1,299.1,162.3,295.9,162.3L295.9,162.3z"/>
		<path class="st1" d="M259.9,117l-5.8,1.3l-22.3-2l-28.5-7l-25.1-12l-8.3-10.5l-2.5-4.6l-1.2-4.5c0,0,0-7.8,1-6.5
			C196.9,108.2,259.9,117,259.9,117z"/>
	</g>
	<g>
		<g>
			<path class="st2" d="M103.9,122.3c-9.4,10-19.2,19.9-26.7,31.5c-7.8,12-11,25.5-11.6,39.7c-0.7,15.4,0.7,30.9-0.4,46.3
				c-1.1,15.4-3.4,30.7-6.8,45.7c1,0,1.9,0,2.9,0c-4.9-22-10.1-45.2-13.1-68.2c-1.9-14.2-3.3-28.7-2.3-43
				c1.1-15.4,7.4-29.5,16.1-42.1c16.8-24.2,41-43.6,69.3-52.2c29.5-9,62.2-11,92.6-5.6c16.8,3,54.9,12.8,44.8,37.6
				c-0.3,0.8,0.4,1.6,1,1.8c13.5,4.7,26.3,12.4,31.3,26.6c3.2,9.1,4.4,19.4,5.5,29c3.5,29.7,0.1,58.9-8.2,87.5
				c-2.7,9.2-6.1,18-9.2,27c-0.6,1.8,2.3,2.6,2.9,0.8c2.9-8.5,6.2-16.8,8.7-25.4c4.4-14.7,7.4-29.9,9.3-45.1c2-15.6,1.2-31.5-0.8-47
				c-1.2-9.6-2.3-20-5.9-29c-5.8-14.5-18.7-22.4-32.9-27.3c0.3,0.6,0.7,1.2,1,1.8c8.4-20.6-14.7-32.6-30.9-37.5
				c-29.4-9-62.4-8.4-92.3-2.6c-14.3,2.8-29,6.9-41.7,14.2c-13.2,7.6-25.1,17.8-35.3,28.9c-11.7,12.8-21.9,28-26.4,44.9
				c-3.4,12.8-2.7,26.6-1.6,39.6c2.4,29,8.9,57.4,15,85.8c0.3,1.4,2.6,1.4,2.9,0c3.1-13.7,5.3-27.6,6.5-41.6
				c1.3-14.6,0.5-29.1,0.6-43.7c0.1-15.6,2.2-30.7,10.5-44.1c7.4-12,17.5-22.1,27.1-32.3C107.3,123,105.2,120.9,103.9,122.3
				L103.9,122.3z"/>
		</g>
		<g>
			<path class="st2" d="M246.8,124.6c11,8.1,22.6,16.4,32,26.4c5.1,5.4,5.9,13.9,6.8,21c3.1,24.4,2.4,49.3,2,73.9
				c-0.2,12.8-0.5,25.7-0.7,38.5c0,1.9,3,1.9,3,0c0.3-25.5,1.2-51,0.7-76.5c-0.2-12.1-0.6-24.3-2.2-36.3c-0.9-6.7-1.6-15-5.8-20.6
				c-4.1-5.5-10.2-9.9-15.4-14.2c-6.2-5.1-12.6-9.9-19-14.7C246.8,120.9,245.3,123.5,246.8,124.6L246.8,124.6z"/>
		</g>
		<g>
			<path class="st2" d="M260.9,115.1c-1.5,2.9-7.9,4.6-10.6,5.7c-7.5,2.9-15.3,5-23.1,6.6c-20.4,4.3-42.4,5.6-62.7,0.4
				c-12.2-3.1-23.5-8.9-32.5-17.8c-1.4-1.4-3.5,0.8-2.1,2.1c16.4,16.1,39.4,21.8,61.9,22c19.9,0.2,40.5-3.3,59.1-10.3
				c3.6-1.4,10.8-3.3,12.7-7.2C264.4,114.8,261.8,113.3,260.9,115.1L260.9,115.1z"/>
		</g>
		<g>
			<path class="st2" d="M160.6,127.1c-13,2.9-26.5,2.8-39.4-0.4c-8.3-2-18.4-5.2-23.8-12.2c-1.2-1.5-3.3,0.6-2.1,2.1
				c5.7,7.4,16.5,10.9,25.2,13c13.4,3.3,27.5,3.5,41,0.4C163.3,129.6,162.5,126.7,160.6,127.1L160.6,127.1z"/>
		</g>
		<g>
			<path class="st2" d="M259.5,116.4c-5.5,1-11.5,0.4-17.1-0.2c-8.9-0.9-17.7-2.5-26.4-4.7c-15.7-4-36.3-10.3-44.8-25.4
				c-0.9-1.7-3.5-0.2-2.6,1.5c8.7,15.5,29.4,22.3,45.5,26.5c9.1,2.4,18.5,4.1,27.9,5c6,0.6,12.4,1.3,18.3,0.1
				C262.2,118.9,261.4,116,259.5,116.4L259.5,116.4z"/>
		</g>
		<g>
			<path class="st2" d="M264,114.6c-13.5-14-30.7-23.7-49.7-27.8c-1.9-0.4-2.7,2.5-0.8,2.9c18.5,4,35.3,13.3,48.4,27
				C263.2,118.1,265.3,116,264,114.6L264,114.6z"/>
		</g>
		<g>
			<path class="st2" d="M269.4,112.7c-2.5-6.6-8.4-12.2-13.3-17c-5.8-5.8-12.3-11.9-19.7-15.5c-1.7-0.8-3.3,1.8-1.5,2.6
				c6.9,3.3,12.8,8.8,18.2,14.1c4.8,4.7,11,10.2,13.4,16.6C267.2,115.3,270.1,114.5,269.4,112.7L269.4,112.7z"/>
		</g>
		<g>
			<path class="st2" d="M94.8,109.5c-0.4-10,5-15.7,13.6-20c1.7-0.9,0.2-3.5-1.5-2.6c-9.6,4.8-15.5,11.5-15.1,22.6
				C91.9,111.5,94.9,111.5,94.8,109.5L94.8,109.5z"/>
		</g>
		<g>
			<path class="st2" d="M128.3,105.8c-1.5-2-2.8-4.2-3.8-6.5c-0.8-1.8-3.4-0.2-2.6,1.5c1,2.3,2.3,4.5,3.8,6.5
				C126.9,108.8,129.5,107.3,128.3,105.8L128.3,105.8z"/>
		</g>
		<g>
			<path class="st2" d="M122,95.2c0-0.2,0-0.3,0-0.5c0-0.8-0.7-1.5-1.5-1.5c-0.8,0-1.5,0.7-1.5,1.5c0,0.2,0,0.3,0,0.5
				c0,0.8,0.7,1.5,1.5,1.5C121.3,96.7,122,96.1,122,95.2L122,95.2z"/>
		</g>
		<g>
			<path class="st2" d="M122.1,89.5c0-2.5-0.1-6.2,2.7-7.3c1.8-0.7,1-3.6-0.8-2.9c-4.3,1.7-4.9,6.1-4.9,10.2
				C119.1,91.4,122.1,91.4,122.1,89.5L122.1,89.5z"/>
		</g>
		<g>
			<path class="st2" d="M168.1,83.5c0.8-0.4,1.1-1.4,0.9-2.2c-0.2-0.8-1.1-1.3-1.8-1c-0.8,0.2-1.3,1.1-1,1.8c0-0.1,0-0.1,0-0.2
				c0.1-0.3,0.1-0.5,0.2-0.8c0.1-0.1,0.2-0.2,0.3-0.3c-0.7,0.3-0.9,1.4-0.5,2.1C166.5,83.8,167.4,83.9,168.1,83.5L168.1,83.5z"/>
		</g>
		<g>
			<path class="st2" d="M167.6,77.3c-0.4-1.9,0.4-3.8,1.8-5c1.4-1.3-0.7-3.4-2.1-2.1c-2.2,2-3.1,5-2.5,8
				C165.1,80,168,79.2,167.6,77.3L167.6,77.3z"/>
		</g>
		<g>
			<path class="st2" d="M231.5,77.1c-2.2-1.7-4.4-3.3-6.6-4.9c-1.5-1.2-3,1.4-1.5,2.6c2.2,1.6,4.4,3.3,6.6,4.9
				C231.5,80.9,233,78.3,231.5,77.1L231.5,77.1z"/>
		</g>
		<g>
			<path class="st2" d="M84.5,104.4c-1.2,9.8,2,22.9,11.1,28.3c1.7,1,3.2-1.6,1.5-2.6c-8.2-4.8-10.6-17-9.6-25.7
				C87.7,102.5,84.7,102.5,84.5,104.4L84.5,104.4z"/>
		</g>
		<g>
			<path class="st2" d="M75.1,113.4c3.1,8.6,9.9,19.1,19.2,21.7c1.9,0.5,2.7-2.4,0.8-2.9c-8.2-2.3-14.4-12-17.1-19.6
				C77.4,110.8,74.5,111.6,75.1,113.4L75.1,113.4z"/>
		</g>
		<g>
			<path class="st2" d="M69,119.4c0.5,10.5,3.5,23.2,12.3,29.8c1.5,1.2,3-1.4,1.5-2.6c-7.8-5.9-10.4-18.1-10.8-27.2
				C71.9,117.4,68.9,117.4,69,119.4L69,119.4z"/>
		</g>
		<g>
			<path class="st2" d="M61.2,129c0.8,4.6,2.8,8.7,5.8,12.3c1.2,1.5,3.3-0.6,2.1-2.1c-2.7-3.2-4.3-6.9-5-11
				C63.8,126.3,60.9,127.1,61.2,129L61.2,129z"/>
		</g>
		<g>
			<path class="st2" d="M70,147.2c1.9,2.6,4.4,5.9,7.4,7.2c1.8,0.8,3.3-1.8,1.5-2.6c-2.6-1.1-4.7-3.9-6.4-6.1
				C71.5,144.1,68.9,145.6,70,147.2L70,147.2z"/>
		</g>
		<g>
			<path class="st2" d="M52.6,143.6c5.4,8.6,12.3,17.4,15.7,27c0.6,1.8,3.5,1,2.9-0.8c-3.5-9.9-10.5-18.9-16-27.8
				C54.2,140.4,51.6,141.9,52.6,143.6L52.6,143.6z"/>
		</g>
		<g>
			<path class="st2" d="M47.5,156.3c7.1,7.5,13.9,15.9,18.3,25.3c0.8,1.7,3.4,0.2,2.6-1.5c-4.5-9.6-11.5-18.3-18.8-25.9
				C48.2,152.8,46.1,154.9,47.5,156.3L47.5,156.3z"/>
		</g>
		<g>
			<path class="st2" d="M44.4,171.1c8.8,5.2,16.1,12.5,21.2,21.4c1,1.7,3.6,0.2,2.6-1.5c-5.4-9.4-13-17-22.3-22.5
				C44.3,167.5,42.8,170.1,44.4,171.1L44.4,171.1z"/>
		</g>
		<g>
			<path class="st2" d="M66.7,202.2c-6.5-5-14-7.8-22.2-8.6c-1.9-0.2-1.9,2.8,0,3c7.7,0.7,14.6,3.5,20.7,8.2
				C66.7,206,68.2,203.4,66.7,202.2L66.7,202.2z"/>
		</g>
		<g>
			<path class="st2" d="M45.5,200.1c-0.1,0-0.1,0-0.2,0c-0.7,0-1.2,0.5-1.4,1.1c0,0.1-0.1,0.1-0.1,0.2c-0.3,0.7,0.2,1.3,0.7,1.7
				c2.5,1.9,7,2.1,9.9,3c3.7,1.1,7.3,2.3,11,3.5c1.8,0.6,2.6-2.3,0.8-2.9c-3.2-1-6.4-1.9-9.7-3.1c-3-1.1-7.9-1.1-10.5-3.1
				c0.2,0.6,0.5,1.1,0.7,1.7c0-0.1,0.1-0.1,0.1-0.2c-0.5,0.4-1,0.7-1.4,1.1c0.1,0,0.1,0,0.2,0C47.5,203.2,47.5,200.2,45.5,200.1
				L45.5,200.1z"/>
		</g>
		<g>
			<path class="st2" d="M67.5,219.1c-6.8-3.4-13.9-6.2-21.1-8.5c-1.8-0.6-2.6,2.3-0.8,2.9c7,2.2,13.8,4.9,20.4,8.2
				C67.7,222.6,69.3,220,67.5,219.1L67.5,219.1z"/>
		</g>
		<g>
			<path class="st2" d="M46,217.5c6.3,5.7,12.7,11.1,20.8,14.1c1.5,0.6,2.3-1.5,1.5-2.5c-0.1-0.1-0.2-0.2-0.3-0.3
				c-1.3-1.5-3.4,0.7-2.1,2.1c0.1,0.1,0.2,0.2,0.3,0.3c0.5-0.8,1-1.7,1.5-2.5c-7.5-2.8-13.6-8-19.5-13.3
				C46.7,214.1,44.5,216.2,46,217.5L46,217.5z"/>
		</g>
		<g>
			<path class="st2" d="M50,237.6c0,0,10.6,0.4,15.5,3.2c1.7,1,3.2-1.6,1.5-2.6c-5.4-3.1-11-3.6-17-3.6C48,234.6,48,237.6,50,237.6
				C50,237.6,48,237.6,50,237.6z"/>
		</g>
		<g>
			<path class="st2" d="M51,242.5c2.3,0.6,4.5,1.2,6.7,2c1.8,0.6,6.2,1.6,7.4,3c0.1-0.8,0.2-1.6,0.3-2.4c0,0-0.1,0-0.1,0.1
				c0.7,0.2,1.4,0.4,2.1,0.5c0,0,0-0.1,0-0.1c-1-1.7-3.6-0.2-2.6,1.5c0,0,0,0.1,0,0.1c0.4,0.7,1.3,0.9,2.1,0.5c0,0,0.1,0,0.1-0.1
				c0.9-0.5,0.9-1.7,0.3-2.4c-1.3-1.5-4.8-2.3-6.6-3c-2.9-1.1-5.9-2-8.9-2.8C49.9,239.1,49.1,242,51,242.5L51,242.5z"/>
		</g>
		<g>
			<path class="st2" d="M65.7,263.2c0,0,0-0.1,0.1-0.1c0.3-0.7,0.2-1.2-0.2-1.8c-1-1.3-3.4-2-4.9-2.6c-2.2-0.9-4.2-1.7-6.2-3
				c-1.6-1.1-3.1,1.5-1.5,2.6c1.6,1.1,3.3,1.9,5.1,2.6c1.4,0.6,4.4,1.3,5.4,2.6c-0.1-0.6-0.2-1.2-0.2-1.8c0,0,0,0.1-0.1,0.1
				C62.3,263.5,64.9,265,65.7,263.2L65.7,263.2z"/>
		</g>
		<g>
			<path class="st2" d="M63.1,265.8c-2.5-0.8-4.9-1.7-7.2-2.7c-1.7-0.8-3.3,1.8-1.5,2.6c2.6,1.2,5.2,2.2,7.9,3
				C64.2,269.3,65,266.4,63.1,265.8L63.1,265.8z"/>
		</g>
		<g>
			<path class="st2" d="M254.3,129.1c4.5,1,10.3-2.7,13.7-5.3c2.6-2,6.9-6.2,6.3-9.8c-0.2-1-1.4-1.3-2.2-0.9c0,0-0.1,0-0.1,0.1
				c-0.7,0.4-0.9,1.3-0.5,2.1c0,0,0,0,0,0.1c0.9,1.7,3.5,0.2,2.6-1.5c0,0,0,0,0-0.1c-0.2,0.7-0.4,1.4-0.5,2.1c0,0,0.1,0,0.1-0.1
				c-0.7-0.3-1.5-0.6-2.2-0.9c0.2,1-2.3,3.8-2.8,4.4c-1.1,1.2-2.3,2.2-3.6,3.1c-2.4,1.6-6.9,4.6-9.9,3.9
				C253.2,125.8,252.4,128.7,254.3,129.1L254.3,129.1z"/>
		</g>
		<g>
			<path class="st2" d="M264.1,136.4c3.6-0.6,7.2-4.8,9.2-7.5c3-4,4.9-8.6,5.6-13.5c0.3-1.9-2.6-2.7-2.9-0.8
				c-0.6,3.9-1.8,7.6-3.9,10.9c-1.8,2.7-5.4,7.5-8.8,8C261.4,133.8,262.2,136.7,264.1,136.4L264.1,136.4z"/>
		</g>
		<g>
			<path class="st2" d="M274.4,143.4c6.3-5.5,13.1-11.3,21.3-13.8c1.8-0.5,1.1-3.4-0.8-2.9c-8.7,2.6-15.9,8.7-22.6,14.5
				C270.8,142.5,272.9,144.6,274.4,143.4L274.4,143.4z"/>
		</g>
		<g>
			<path class="st2" d="M281.5,150.1c5.3-6.4,11.4-12,16.9-18.2c1.3-1.4-0.8-3.6-2.1-2.1c-5.5,6.2-11.6,11.8-16.9,18.2
				C278.2,149.4,280.3,151.5,281.5,150.1L281.5,150.1z"/>
		</g>
		<g>
			<path class="st2" d="M284.8,156.9c5.6-2.9,13.2-5.8,19.2-5.8c2,0,2-3,0-3c-7,0-14.7,3-20.9,6.2
				C281.4,155.2,283.1,157.8,284.8,156.9L284.8,156.9z"/>
		</g>
		<g>
			<path class="st2" d="M286.9,163.9c6.5,0.5,13.1,0.5,19.6-0.1c1.9-0.2,1.9-3.2,0-3c-6.5,0.6-13.1,0.6-19.6,0.1
				C284.9,160.8,284.9,163.8,286.9,163.9L286.9,163.9z"/>
		</g>
		<g>
			<path class="st2" d="M287.9,171.8c2.3-0.1,4.7-0.1,7,0.1c1.9,0.1,1.9-2.9,0-3c-2.3-0.2-4.7-0.2-7-0.1
				C285.9,168.9,285.9,171.9,287.9,171.8L287.9,171.8z"/>
		</g>
		<g>
			<path class="st2" d="M299.7,172c2.8,0.2,5.6-0.1,8.2-0.9c1.8-0.6,1.1-3.5-0.8-2.9c-2.4,0.7-4.9,1-7.4,0.8
				C297.8,168.9,297.8,171.9,299.7,172L299.7,172z"/>
		</g>
		<g>
			<path class="st2" d="M289.5,187.4c6.3,0.3,12.7,0.4,18.7,2.8c1.8,0.7,2.6-2.2,0.8-2.9c-6.2-2.5-12.9-2.6-19.5-2.9
				C287.6,184.3,287.6,187.3,289.5,187.4L289.5,187.4z"/>
		</g>
		<g>
			<path class="st2" d="M289.7,193.1c1.5,0.2,3.1,0.4,4.6,0.7c1.9,0.3,2.7-2.5,0.8-2.9c-1.8-0.3-3.6-0.6-5.4-0.8
				c-0.8-0.1-1.5,0.8-1.5,1.5C288.2,192.5,288.9,193,289.7,193.1L289.7,193.1z"/>
		</g>
		<g>
			<path class="st2" d="M299,196c0,0,2-3,0-3S297,196,299,196C299,196,297,196,299,196z"/>
		</g>
		<g>
			<path class="st2" d="M303.4,197.6c1.9,0.5,3.6,1.3,5.2,2.5c0.7,0.5,1.7,0.1,2.1-0.5c0.5-0.8,0.1-1.6-0.5-2.1
				c-1.8-1.3-3.7-2.3-5.9-2.8C302.3,194.2,301.5,197.1,303.4,197.6L303.4,197.6z"/>
		</g>
		<g>
			<path class="st2" d="M289.3,208.3c6.5,2.6,12.6,6,18.2,10.1c0.4-0.9,0.8-1.8,1.2-2.7c-0.2-0.1-0.5-0.1-0.7-0.2
				c-1.9-0.4-2.7,2.5-0.8,2.9c0.2,0.1,0.5,0.1,0.7,0.2c1.7,0.4,2.5-1.8,1.2-2.7c-5.9-4.3-12.2-7.8-18.9-10.4
				C288.3,204.7,287.5,207.6,289.3,208.3L289.3,208.3z"/>
		</g>
		<g>
			<path class="st2" d="M307,222.9c-4.8-3.4-10.2-4.4-15.8-5.8c-1.9-0.4-2.7,2.4-0.8,2.9c5.4,1.3,10.6,2.2,15.1,5.5
				C307.1,226.7,308.6,224.1,307,222.9L307,222.9z"/>
		</g>
		<g>
			<path class="st2" d="M289.1,234.3c4.1,3.6,9.6,7.1,15.2,7.2c1.9,0.1,1.9-2.9,0-3c-4.7-0.1-9.6-3.3-13.1-6.3
				C289.8,230.9,287.6,233,289.1,234.3L289.1,234.3z"/>
		</g>
		<g>
			<path class="st2" d="M288.7,241.6c3.6,3,8.1,6.4,13,6.4c1.9,0,1.9-3,0-3c-3.9,0-7.9-3.1-10.8-5.5
				C289.3,238.2,287.2,240.3,288.7,241.6L288.7,241.6z"/>
		</g>
		<g>
			<path class="st2" d="M289,259c1.4,0.3,2.8,0.6,4.1,1.1c1.2,0.4,3.2,0.8,4.1,1.6c-0.1-0.4-0.3-0.7-0.4-1.1c0,0.1,0,0.2,0,0.2
				c-0.1,1.9,2.9,1.9,3,0c0-1.8-2.1-2.3-3.4-2.8c-2.1-0.9-4.3-1.5-6.6-1.9C287.9,255.7,287.1,258.6,289,259L289,259z"/>
		</g>
		<g>
			<path class="st2" d="M288.8,266.4c2.1,0.3,4.1,0.9,6,2c1.7,0.9,3.2-1.7,1.5-2.6c-2.1-1.2-4.4-1.9-6.7-2.3
				C287.8,263.3,286.9,266.2,288.8,266.4L288.8,266.4z"/>
		</g>
		<g>
			<path class="st2" d="M252.2,117.6c-22.2,5.5-45.6,6.7-67.9,1.1c-6.5-1.6-13-3.8-19-6.7c-2.5-1.2-6-2.6-7.8-4.8
				c-1.2-1.5-3.3,0.6-2.1,2.1c1.9,2.3,5.5,3.9,8.1,5.2c6.4,3.2,13.2,5.5,20,7.2c22.8,5.7,46.7,4.5,69.5-1.1
				C254.9,120,254.1,117.1,252.2,117.6L252.2,117.6z"/>
		</g>
		<g>
			<path class="st2" d="M153.1,102.1c-1.1-1.4-1.8-3-2.2-4.7c-0.4-1.9-3.3-1.1-2.9,0.8c0.4,2.3,1.5,4.3,2.9,6
				C152.2,105.7,154.3,103.5,153.1,102.1L153.1,102.1z"/>
		</g>
		<g>
			<path class="st2" d="M148.5,91.6c-0.8-4.2-2.4-13.4,2.7-15.9c1.7-0.8,0.2-3.4-1.5-2.6c-6.5,3.2-5.2,13.7-4,19.3
				C146,94.3,148.9,93.5,148.5,91.6L148.5,91.6z"/>
		</g>
	</g>
</g>
</svg>
