<?xml version="1.0" encoding="utf-8"?>
<!-- Generator: Adobe Illustrator 19.2.0, SVG Export Plug-In . SVG Version: 6.00 Build 0)  -->
<svg version="1.1" id="Layer_1" xmlns="http://www.w3.org/2000/svg" xmlns:xlink="http://www.w3.org/1999/xlink" x="0px" y="0px"
	 viewBox="0 0 530 300" style="enable-background:new 0 0 530 300;" xml:space="preserve">
<style type="text/css">
	.st0{fill:#6E90A9;}
	.st1{opacity:0.75;}
	.st2{fill:#3B5164;}
	.st3{fill:#1F3F51;}
</style>
<g>
	<path class="st0" d="M487.9,152.5c-9.6-7.3-84.4-50.1-93-55.5c-3.5-2.2-4.1-1.8-3.5-12.4c-0.4-1.3-8.5-7.2-14.8-16.7
		c-7.8-11.8-14.1-27.4-14.1-27.4l-15.8-12c0,0,4.4,27.2-1.1,37.9c-10.7,21.9-85.8,59.5-89,58.4c-31.1-11-71.3-38.3-81-45.4
		c-3.3-2,0.6-44.9,0.6-44.9s-13.1,19.8-18,32c-3.3,8.3-14.7,8.4-22,23.8c-1.7,3.5,0.8,5.7,0.8,5.7s-65.5,30.5-100.7,61.1
		c-20.6,17.9-23.9,52.1,3.8,73.3c83,63.6,325,89.2,445.3,8.8C513.7,220.3,520.9,177.6,487.9,152.5z"/>
	<g class="st1">
		<path class="st2" d="M378.7,68.9c-2.6-0.7-3.6,2.4-5.2,5.2c0,0-11.9,17.5-13,19.5c-1,2-8.8,7.7-9.3,9.9c-0.6,2.7,0,4.9,3.1,5.2
			c3.3,0.3,5.5-4.3,7.9-8.1S377,82.4,379.5,78C382.1,73.5,380.9,69.5,378.7,68.9z"/>
		<path class="st2" d="M349,57.3c2-13.6,11.7-10,21.1,0.1c3.6,3.8-3-7.1-3.6-8.5c-6-14.7-21.1-20.5-21.1-20.5l3.7,18l-3,18.8
			C346.1,65,349.1,58,349,57.3z"/>
		<path class="st2" d="M172.5,64.4l0.3,4.5l-0.2,7.2l1.9,0.1l-1.4-15.1l3.8-26.6l-7.2,7.5l-7.2,15.6
			C166.5,52.2,169.6,50.7,172.5,64.4z"/>
		<path class="st2" d="M282.8,154.4l-0.2,0.7V155l-8.7-13.6l-3.7-6.1L265,148c0,0,6.6-0.6,7.6,1.1c5.4,9.1,21.6,40.4,24.2,41.4
			c2.7,1,9.4-5.6,9.4-5.6L282.8,154.4z"/>
		<path class="st2" d="M252,133.8l-4.6,4.3l-3.6,13.4l-18.2,34.9c0,0,2.8,6.7,5.7,5.5c2.4-1,13.8-30,17.2-38.8l1.9,5.5l2-9.2v-3
			l1.1-6.3L252,133.8z"/>
		<path class="st2" d="M184,113.4c0.8,3.7-1.4,5.2-5,4.5s-10.6-9.6-13.3-12c-2.6-2.4-8.5-5.4-10.8-8.2c-2.2-2.8-6.2-5.4-4.8-9.6
			c1.5-4.2,5.1-5.2,6.1-3.2c0.9,2,2.9,7,5.2,8.8s17.5,15.1,17.5,15.1S183.7,111.7,184,113.4z"/>
	</g>
	<g>
		<g>
			<path class="st3" d="M346.2,31.1c15.3,4.6,19.3,22.3,26.6,34.5c3.7,6.2,7.9,10.3,13.8,14.3c3,2,2.6,5.6,2.4,9.1
				c-0.1,2.1-1.1,5,0.4,6.9s5,3.1,7.1,4.2c4.4,2.4,8.9,4.8,13.3,7.2c12.6,6.9,25.1,13.9,37.4,21.3c13.2,8,26.7,16.2,38.3,26.5
				c1.9,1.7,4.8-1.1,2.8-2.8c-21.4-18.9-47.9-32.7-72.8-46.4c-5-2.8-10.1-5.5-15.1-8.2c-1.6-0.8-7.2-2.7-8.1-4.4
				c-0.3-0.5,0.8-6.1,0.8-7.5c-0.1-2.3-0.2-5.3-1.6-7.3c-1.7-2.3-5.2-3.2-7.4-5.1c-3.2-2.7-5.6-6.2-7.8-9.8
				c-8-13.4-12.3-31.3-29-36.3C344.8,26.5,343.7,30.3,346.2,31.1L346.2,31.1z"/>
		</g>
		<g>
			<path class="st3" d="M389.1,87.4c-10.9,24.4-27,45.6-45.9,64.4c-11.7,11.7-24.9,21.6-36.9,32.6c0.9,0,1.9,0,2.8,0
				c-14.6-15-26.5-32.8-37.6-51c-0.5-0.8-1.4-1-2.3-0.8c-2,0.4-2.6,2.8-3.2,4.5c-1.3,4.1-1.9,8.5-3.3,12.6c-0.8,2.4,3,3.5,3.9,1.1
				c0.5-1.6,2.9-14,3.6-14.1c-0.8-0.3-1.5-0.6-2.3-0.9c11.4,18.5,23.4,36.2,38.3,52.1c0.7,0.8,2.1,0.7,2.8,0
				c12.3-11.7,25.8-21.8,37.8-33.8c18.7-18.8,34.7-40.3,45.6-64.6C393.6,87.1,390.2,85.1,389.1,87.4L389.1,87.4z"/>
		</g>
		<g>
			<path class="st3" d="M265,287.2c0.3-9.6,0.3-19.2,0.4-28.9c0.1-10,0.8-20.3,0.2-30.3c-0.3-5.2-1.7-10.5-2.6-15.7
				c-2.1-12.1-4.2-24.2-6.1-36.3c-1.3-8.4-3.8-18.1-2.3-25.8c1.3-6.9,2.1-14.2,4.4-20.8c0.9-2.6,2.2-2.6,4.9-3.9
				c20.5-9.6,40.8-20.5,58.7-34.5c18.6-14.6,33.6-30,25.9-62.9c-1.3-2.2-4.7-0.2-3.5,2c5.3,33.7-8.2,44.8-25.3,58.1
				c-17.8,13.9-38,24.6-58.4,34.1c-2.2,1-4.3,1.6-5.4,3.8c-2.4,4.4-2.9,10.4-3.8,15.2c-1,5-2.6,10.1-2.1,15.2c0.4,4,1,8.1,1.6,12.1
				c1.8,12,3.8,23.9,5.9,35.9c1.3,7.6,3.1,15.2,4,22.8c0-0.2,0,0.5,0,1.4c0,2,0,3.9,0,5.9c0,6.3-0.1,12.7-0.1,19
				c-0.1,11.2-0.1,22.4-0.4,33.6C260.9,289.8,264.9,289.8,265,287.2L265,287.2z"/>
		</g>
		<g>
			<path class="st3" d="M259.1,123.9c-6.1-1.2-12-4.7-17.4-7.4c-9.2-4.6-18.2-9.6-27.1-14.8c-8.7-5-17.4-10.2-25.9-15.6
				c-3.3-2.1-3.6-2.2-6.8-4.5c-2.9-2-4.3-3-4.7-6.7c-1.4-12,1.1-25.3,3.9-37c0.6-2.5-3.3-3.6-3.9-1.1c-2.7,11.2-4.5,23.1-4.3,34.6
				c0.1,3.1,0,7.4,2.1,10c1.9,2.3,5.2,3.9,7.6,5.6c17.9,11.9,33.7,20.8,52.8,30.7c7,3.7,14.7,8.4,22.5,10
				C260.6,128.3,261.7,124.4,259.1,123.9L259.1,123.9z"/>
		</g>
		<g>
			<path class="st3" d="M255.1,141.8c-0.1-2.1-0.6-13.6-5.6-11c-2.3,1.2-3.2,6.8-4,8.9c-5.9,16.4-12.7,32.6-22.7,47.1
				c0.9-0.2,1.8-0.5,2.7-0.7c-24.5-16.8-45.4-39.4-64.4-62.1c-6.7-8-13.3-16.1-19.2-24.7c-0.9-1.3-2.9-4.2-3.1-4.9
				c-1.2-6.3,8.2-13.9,12.5-17.9c5.1-4.7,8.8-8.9,11.6-15.3c3.8-8.6,9.2-17.2,15.6-24.3c1.7-1.9-1.1-4.8-2.8-2.8
				c-5.7,6.4-11.4,13.8-14.7,21.6c-2.8,6.7-5.6,11.7-11,16.7c-5.9,5.5-19.1,16-13.8,25.4c4.5,7.9,10.7,15.2,16.4,22.2
				c9.6,11.9,19.7,23.3,30.3,34.2c12.5,12.9,25.8,25.2,40.6,35.4c0.9,0.6,2.2,0.1,2.7-0.7c7.9-11.5,13.9-24.1,19-37
				c1.8-4.6,3.4-9.2,5.1-13.8c0.3-0.8,1.6-2.9,1.4-3.7c0-0.1,0.1-0.2,0.1-0.3c0.5-0.9-0.1-0.5-1.8,1c0.3,0.8,0.5,1.6,0.6,2.4
				c0.2,1.5,0.4,2.9,0.3,4.4C251.2,144.4,255.2,144.4,255.1,141.8L255.1,141.8z"/>
		</g>
		<g>
			<path class="st3" d="M40.7,156.1c30.5-22.6,63.7-42.4,97.9-58.7c2.3-1.1,0.3-4.6-2-3.5c-34.2,16.4-67.4,36.2-97.9,58.7
				C36.6,154.1,38.6,157.6,40.7,156.1L40.7,156.1z"/>
		</g>
		<g>
			<path class="st3" d="M154.7,88.1c7,7.6,14.5,14.7,22.3,21.4c1.5,1.2,3.6-0.9,2.1-2.1c-7.9-6.7-15.3-13.8-22.3-21.4
				C155.5,84.6,153.3,86.7,154.7,88.1L154.7,88.1z"/>
		</g>
		<g>
			<path class="st3" d="M154.3,97.7c5.5,4.5,10.7,9.2,15.8,14.2c1.4,1.4,3.5-0.8,2.1-2.1c-5.1-5-10.3-9.7-15.8-14.2
				C154.9,94.4,152.8,96.5,154.3,97.7L154.3,97.7z"/>
		</g>
		<g>
			<path class="st3" d="M373.6,70.9c-3.7,8.8-8.8,16.7-15.4,23.7c-1.3,1.4,0.8,3.5,2.1,2.1c6.7-7.2,12-15.3,15.8-24.3
				C376.9,70.6,374.4,69.1,373.6,70.9L373.6,70.9z"/>
		</g>
		<g>
			<path class="st3" d="M369.9,88.5c-3.5,4.7-7.1,9.4-10.6,14.1c-1.2,1.5,1.4,3,2.6,1.5c3.5-4.7,7.1-9.4,10.6-14.1
				C373.7,88.5,371.1,87,369.9,88.5L369.9,88.5z"/>
		</g>
		<g>
			<path class="st3" d="M266.8,182.4c-0.5,3.7,1.3,8.2,5.4,8.6c3.7,0.4,5.9-3.2,6.6-6.3c0.9-4.1-1.9-7.4-6-7.8
				c-4.1-0.4-6.2,2.5-6.1,6.3c0.1,2.6,4.1,2.6,4,0c0-1.3-0.1-2.3,1.5-2.4c2.1,0,3.1,1.4,2.6,3.3c-0.3,0.9-0.8,2.6-1.8,2.8
				c-1.7,0.3-2.5-2.3-2.3-3.6C271,181,267.1,179.9,266.8,182.4L266.8,182.4z"/>
		</g>
		<g>
			<path class="st3" d="M273.8,224.4c-0.5,3.7,1.3,8.2,5.4,8.6c3.7,0.4,5.9-3.2,6.6-6.3c0.9-4.1-1.9-7.4-6-7.8
				c-4.1-0.4-6.2,2.5-6.1,6.3c0.1,2.6,4.1,2.6,4,0c0-1.3-0.1-2.3,1.5-2.4c2.1,0,3.1,1.4,2.6,3.3c-0.3,0.9-0.8,2.6-1.8,2.8
				c-1.7,0.3-2.5-2.3-2.3-3.6C278,223,274.1,221.9,273.8,224.4L273.8,224.4z"/>
		</g>
		<g>
			<path class="st3" d="M274.8,264.4c-0.5,3.7,1.3,8.2,5.4,8.6c3.7,0.4,5.9-3.2,6.6-6.3c0.9-4.1-1.9-7.4-6-7.8s-6.2,2.5-6.1,6.3
				c0.1,2.6,4.1,2.6,4,0c0-1.3-0.1-2.3,1.5-2.4c2.1,0,3.1,1.4,2.6,3.3c-0.3,0.9-0.8,2.6-1.8,2.8c-1.7,0.3-2.5-2.3-2.3-3.6
				C279,263,275.1,261.9,274.8,264.4L274.8,264.4z"/>
		</g>
	</g>
</g>
</svg>
