<?xml version="1.0" encoding="utf-8"?>
<!-- Generator: Adobe Illustrator 19.2.0, SVG Export Plug-In . SVG Version: 6.00 Build 0)  -->
<svg version="1.1" id="Layer_1" xmlns="http://www.w3.org/2000/svg" xmlns:xlink="http://www.w3.org/1999/xlink" x="0px" y="0px"
	 viewBox="0 0 323 353" style="enable-background:new 0 0 323 353;" xml:space="preserve">
<style type="text/css">
	.st0{fill:#4F5559;}
	.st1{fill:#2E3438;}
	.st2{fill:#1A1E21;}
</style>
<g>
	<g>
		<path class="st0" d="M272.1,101.1l-7.2,25.9l1.2,8.3l-1.2,4.7l-10.8,13l-3.6-4.7l-14.4,13l3.6,4.7l-8.4,4.7l6,8.3l-6-3.5l-6-1.2
			v20l-9.6-18.9l-7.2-11.8l-3.6-9.4l4.8-2.4l4.8-5.9l2.4-5.9l-7.2,4.7l-6-1.2l-8.4-2.4l-8.4-4.7l-12-3.5h-8.4l-7.2,2.4l-4.8-2.4
			l-8.4-1.2l-12,3.5l-12,5.9l-12,3.5l-7.2-2.4l2.4,7.1l3.6,5.9l-13.2,25.9l-4.8,5.9l-3.6-24.8l-2.4-5.9l-8.4,10.6l-16.8-21.2l-13-47
			L45.9,92c-0.7,0.1-1.4,0.1-2.1,0.1l0.5,1.9l1.2,21.2l-1.2,27.1v29.5l-1.2,20l1.2,5.9l3.6-3.5l2.4,8.3l3.6,16.5l3.6,5.9l3.6-2.4
			l6,14.1l4.8-4.7l3.6,11.8l3.6-4.7l7.2,4.7l4.8,7.1l4.8,14.1l4.8-9.4l3.6,10.6l4.8-5.9l4.8-11.8l1.2,9.4l-1.2,14.1l-2.4,3.5
			l8.4-4.7l4.8-10.6l3.6,5.9l6,9.4l6,10.6l2.4-8.3l4.8,2.4l7.2,7.1l9.6,5.9l13.2,2.4l3.6-1.2l-2.4-3.5l1.2-11.8l4.8-3.5l8.4-1.2v4.7
			l7.2-4.7l9.6-8.3l7.2-13l4.8,7.1l2.4,7.1l4.8-4.7l4.8-18.9l1.2-13l4.8,9.4l3.6,11.8l3.6-3.5l6-20l3.6,8.3l4.8-5.9l1.2-14.1
			l-1.2-23.6l4.8,8.3l2.4,11.8l2.4-13l-1.2-14.1l-1.2-8.3l4.8-3.5l3.6-4.7l1.2,4.7l1.2-20v-24.8L275.7,94L272.1,101.1z M193,182.4
			l-6,5.9l-4.8-3.5l-14,1.7l-10-4.1l-4.8,1.2l-13.2,10.6l-8.4-10.6l-6,11.8l-6,8.3l-1.2-15.3l3.6-16.5l1.2-14.1h10.8l12-2.4
			l14.4-3.5l12,3.5L187,160l2.4,8.3l3.6,3.5V182.4z"/>
	</g>
	<path class="st1" d="M82.1,215.4l2.4-10.6c0,0,4.8-10.9,4.8-13.7c0.4,1.4,1.2,4.3,1.2,4.3l-1.2,18.9v20l1.2,11.8l-6-4.7l-4.8-2.4
		l0,0v-9.4L82.1,215.4z M89.3,190.7c0,0.1,0,0.3,0,0.4C89.1,190.4,89.1,190.1,89.3,190.7z M193.6,274.4h-4.8l-2.7,1l-0.9,0.1
		l-0.7,0.5l-1.7,0.7l-0.5,0.9l-1.9,1.4l-0.2,1.6l-1-5.1V259v-30.7l-1.2-20l1.2-2.4c0,0,7.2,12.7,7.2,14.1s6,23.6,6,23.6l2.4,20
		L193.6,274.4L193.6,274.4L193.6,274.4z M249.9,207.2c-0.3-1.5-4.8-10.6-4.8-10.6l-6-16.5l-6-8.3l4.4-4.3l2.8-1.6l-0.5-0.7l0.5-0.5
		l9.6,7.1l7.2,10.6l4.8,9.4l0.1,1.3l-0.1-0.2l1,19l-1,10.5l-1.2,9.4l-3.6,4.7l-3.6-15.3C253.5,221.3,250.2,208.7,249.9,207.2z
		 M100.4,173.6l4-7.9l2.9,5l9.6,7.1l3.5,4.7l-0.2,1.6l-0.9,4.3l0.2,2.1l-0.2,1.4l-0.9,17.2l-8.7-18.4L100.4,173.6z M179.2,148.2v7.1
		l-8.4-1.2l-3.6-3.5c0,0,0.9-14.7,1.2-15.3c0.2-0.3,0.9-1.5,1.6-2.4h3.2l2.4,1.2L179.2,148.2z M197.2,164.7l-6-5.9
		c0,0,6.3-1.5,7.2-1.2s7.2-1.2,7.2-1.2l2.4,7.1l-3.6,1.2L197.2,164.7L197.2,164.7z M197.2,144.7l4.8-1.2l3.6,13l-9.6,1.2
		L197.2,144.7z M158.8,145.9L154,153l-7.2,2.4l-3.3,0.7l4.5-8.9l2.4-14.1h4.8l3.6,1.8l1.2,1.8L158.8,145.9z M110.3,144.5l0.5,0.2
		l3.6-1.1l-1.2,8.1h-4.8l-4.8-9.4l6,2.4L110.3,144.5z M131.2,156.5h-9.6l4.8-5.9l6-13l9.6-2.4l-4.8,13L131.2,156.5z M108,159.2
		l2.9-5.1l8.4,2.4l4.7,1.9l-0.6,7.2l-1.1,3.9l-3-1.2L108,159.2z M265.5,140l1.2-1.2l3.6,3.5l3.6,16.5L277,170l-3.1,4.1l-4.8,3.5
		l0.4,2.9l-0.4,0.7l-2.4-5.9l-6-13l-7.2-10.6l0.2-0.2l1-0.7L265.5,140z M193.6,173v-1.2l-1.2-1.2l-1.2-2.4l6,4.7h9.6l7.5-1.1
		l2.1,3.4l2.8,5.5L219,181l1,1.4l3,5.9l3,11.8c0,0,0.3,16.5,0,17.7s-3.6,17.7-3.6,17.7l-3.6,16.5l-1.2-4.7l-2.4-22.4
		c0,0-6.9-17.7-7.2-18.9s-7.2-16.5-7.2-16.5l1.8-1.6l-6.6-4.3L193.6,173z M150.4,246.1c0-1.5,4.8-9.4,4.8-9.4l3.6-13l4.8-10.6
		l3.6-9.4l1.2-11.8l6,7.1l1.2,10.6l-1.2,10.6l-6,14.1l-4.8,11.8l-2.4,13l-2.4,13l1.2,10.6l4.8,9.4l-4.8-2.4l-8-5.5l-4-3.9l-0.2-0.1
		l-2.2-11.7l1.2-9.4C146.8,259.1,150.4,247.6,150.4,246.1z M112.1,275.6l2.4-3.5l1.2-14.1l-1.1-8.7c0.6-4.2,2.3-11.3,2.3-11.3v-15.3
		c0,0,3.3-13.3,3.6-14.1c0.2-0.5,1.5-4.9,2.5-8.2l3.5-4.8l4.8-9.4l3.6,1.2l6,7.1l-8.4,14.1l-6,10.6l-1.2,13l-1.2,11.8l2.4,16.5
		l-0.7,0.8l-0.5-0.8L124,263l-6,6.7L112.1,275.6L112.1,275.6L112.1,275.6z M61.7,157.7c0,0,2.2-6.1,3.4-6l2.8,3.6
		c2.1,3.1,4.5,7.1,4.5,7.1l-4.8,8.3l-6,13c0,0-3.9,17.4-3.6,18.9s2.4,17.7,2.4,17.7l-1.7,4.3L58,225l-3.6-5.9l-3.6-16.5l-0.1-0.4
		l-1.1-14.9l4.8-14.1L61.7,157.7z"/>
	<g>
		<path class="st1" d="M155,184.6c6.7-9.3-10.6,44.6-10.6,44.6l-3.6,31.8c0,0,2.4,28.5,0,23.2C130.8,262.4,121.1,231.9,155,184.6z"
			/>
		<path class="st1" d="M227.1,174.7c8.5,11.9,21,44,17.8,75.7c-0.1,1.4-3.9-4-3.9-4l-6-19.4l-8.9-33.7l-1.2-19.4
			C224.9,173.9,226.8,174.2,227.1,174.7z"/>
	</g>
	<g>
		<g>
			<path class="st2" d="M238.6,161.9c4.3-4.2,8.6-8.9,12.6-12.9c-0.9,0-1.9,0-2.8,0c15.9,18,23.6,42.2,17.4,66.2
				c1.3,0.2,2.6,0.3,3.9,0.5c0.9-7.6-2.4-16-5.4-22.7c-5.9-13.1-15-24.5-25.7-34c-1.9-1.7-4.8,1.1-2.8,2.8c10.1,9,18.8,19.6,24.5,32
				c3,6.4,6.2,14.5,5.3,21.8c-0.3,2.3,3.4,2.7,3.9,0.5c6.6-25.4-1.5-50.8-18.4-70.2c-0.7-0.8-2.2-0.8-2.8,0
				c-4,4.6-8.3,8.9-12.6,13.2C234,160.8,236.8,163.7,238.6,161.9L238.6,161.9z"/>
		</g>
		<g>
			<path class="st2" d="M254.5,152c4.4-4,9.4-8,12.9-12.9c1.5-2.1-2-4.1-3.5-2c-1.5,2-3.6,3.8-5.4,5.6c-2.3,2.2-4.6,4.4-6.9,6.5
				C249.8,150.9,252.6,153.7,254.5,152L254.5,152z"/>
		</g>
		<g>
			<path class="st2" d="M266.5,131.9c1.8-13.1,6.9-26.2,11-38.7c-1.3-0.2-2.6-0.4-3.9-0.5c2.6,27.7,4.2,55.2,2.3,83.1
				c1.3-0.2,2.6-0.4,3.9-0.5c-3.5-15-7.9-29.9-13.3-44.3c-0.9-2.4-4.8-1.4-3.9,1.1c5.4,14.4,9.8,29.3,13.3,44.3
				c0.5,2.3,3.8,1.6,3.9-0.5c1.9-27.8,0.4-55.3-2.3-83.1c-0.2-2.2-3.2-2.8-3.9-0.5c-4.1,12.6-9.2,25.6-11,38.7
				C262.3,133.4,266.2,134.5,266.5,131.9L266.5,131.9z"/>
		</g>
		<g>
			<path class="st2" d="M230.1,171.5c6.9,7.9,11.1,18.4,14.5,28.1c4.6,12.7,7.9,26.1,9.2,39.5c0.2,2,2.5,2.6,3.7,1
				c4.1-5.6,5.4-13,6.1-19.7c1.1-10.8,0.1-21.7-2.1-32.2c-0.5-2.5-4.4-1.5-3.9,1.1c2,9.8,2.9,19.8,2.1,29.7
				c-0.6,6.5-1.7,13.8-5.7,19.1c1.2,0.3,2.5,0.7,3.7,1c-1.5-14.4-4.9-28.5-9.9-42.1c-3.7-9.9-8-20.3-15-28.4
				C231.3,166.7,228.4,169.5,230.1,171.5L230.1,171.5z"/>
		</g>
		<g>
			<path class="st2" d="M161.1,132.9c-9.2-5.2-20.3-1.5-29.4,2c-5,1.9-10,4.2-15.1,5.9c-3.2,1-8.7,3.1-11.1-0.4c-1-1.5-4-1.1-3.7,1
				c2.7,24.3,34.2,18.9,50.7,14.4c1.8-0.5,6.9-1.1,8.3-2.5c0.2-0.2-1.9-0.9-0.3,0.1c1,0.6,2.2,0.9,3.2,1.3c9.1,3.3,19,5.7,28.8,5.5
				c13.3-0.3,24-6.8,27.6-20c0.5-1.8-2-3.5-3.3-1.9c-8.8,10.2-23.1,0.4-31.6-4.6c-7.8-4.6-17.9-4.5-26.1-0.6c-2.3,1.1-0.3,4.5,2,3.5
				c4-1.9,8.8-2.6,13.2-2.2c8.1,0.7,13.8,7,21.1,9.9c7.8,3.1,18.1,3.9,24.2-3c-1.1-0.6-2.2-1.3-3.3-1.9c-6.2,22.8-33.4,18-50.5,12
				c-4.2-1.5-4.9-2-9.3-0.6c-8.3,2.6-16.9,4.6-25.6,5.1c-10.7,0.6-23.8-1.4-25.2-14.2c-1.2,0.3-2.5,0.7-3.7,1
				c5.1,7.5,16.2,2.2,22.6-0.4c9.9-4,23.9-11.6,34.5-5.7C161.3,137.6,163.3,134.1,161.1,132.9z"/>
		</g>
		<g>
			<path class="st2" d="M249.8,216.1c0.5,7.7-0.4,15.1-2.2,22.5c-1.1,4.5-2.4,10.4-5.2,13.4c1.2,0,2.3,0,3.5,0
				c-7.1-13-10.3-29.8-13.4-44.9c-2.3-11.1-5.5-23-5.7-34.4c0-2.6-4-2.5-4,0.1c0.2,11.8,3.4,24.1,5.8,35.6
				c3.2,15.4,6.5,31.9,13.8,46c0.8,1.5,2.6,1.1,3.5,0c3-4.1,4.4-9.7,5.6-14.5c1.9-7.8,2.9-15.8,2.3-23.8
				C253.7,213.5,249.7,213.5,249.8,216.1L249.8,216.1z"/>
		</g>
		<g>
			<path class="st2" d="M215.9,179.2c10.9,19.1,8.5,40.5,4.5,61.1c-0.9,4.6-3.2,10.4-3,15.1c0.1,2.1,1.4,4.6,2.2,6.5
				c1,2.7,2,5.6,3.8,7.8c0.8,1,2.6,0.6,3.1-0.4c9.5-16.6,10.2-35.8,7.5-54.4c-0.4-2.5-4.2-1.5-3.9,1.1c2.5,17.5,1.8,35.7-7.1,51.3
				c1-0.1,2.1-0.3,3.1-0.4c-2-2.6-3-6.4-4-9.4c-0.8-2.3-0.9-1.7-0.5-3.8c1.5-7,2.9-14.1,4.1-21.2c3.2-18.9,3.3-38.3-6.5-55.4
				C218.1,174.9,214.6,176.9,215.9,179.2L215.9,179.2z"/>
		</g>
		<g>
			<path class="st2" d="M216.1,249.8c-5.3,12.2-14.1,22-25.6,28.7c1,0.8,2,1.5,2.9,2.3c4.6-20.5,0.5-42.3-6.3-61.8
				c-2.7-8-6-15.8-10-23.2c-2-3.7-4.4-8.9-8.1-11.2c-2.2-1.3-4.2,2.2-2,3.5c3.3,1.9,5.5,7.4,7.1,10.5c3.8,7.3,7,14.9,9.6,22.7
				c6.2,18.5,10.2,39.1,5.9,58.4c-0.4,1.7,1.4,3.2,2.9,2.3c12-7,21.4-17.4,27-30.1C220.6,249.5,217.2,247.4,216.1,249.8L216.1,249.8
				z"/>
		</g>
		<g>
			<path class="st2" d="M172.2,191.8c3.3-2.6,7.1-5.4,11.3-6.4c-0.8-0.3-1.5-0.6-2.3-0.9c17.1,26.6,21.3,62.9,9.7,92.4
				c-0.9,2.4,2.9,3.4,3.9,1.1c11.9-30.4,7.5-68-10.1-95.4c-0.5-0.8-1.4-1.1-2.3-0.9c-4.9,1.3-9.2,4.4-13.1,7.5
				C167.4,190.5,170.2,193.4,172.2,191.8L172.2,191.8z"/>
		</g>
		<g>
			<path class="st2" d="M187.4,188c2.8-1.5,5.6-3.2,8.3-4.9c-0.8-0.1-1.6-0.2-2.4-0.3c7.8,9.1,12.5,20.9,16.1,32.2
				c3.7,11.5,6.4,23.7,6.5,35.8c0,2.6,4,2.6,4,0c-0.1-13-3-26-7.1-38.3c-3.8-11.5-8.7-23.2-16.6-32.6c-0.6-0.7-1.7-0.8-2.4-0.3
				c-2.7,1.7-5.5,3.4-8.3,4.9C183.1,185.8,185.2,189.3,187.4,188L187.4,188z"/>
		</g>
		<g>
			<path class="st2" d="M167.4,182.9c-3.5-2.5-7.7-2.6-11.8-2.4c-0.9,0-1.7,0.6-1.9,1.5c-4.1,15.4-7.9,30.9-10.3,46.6
				c-1.6,10.7-2.9,21.7-2.3,32.6c0.4,7.6,1.5,16.2,6.5,22.3c3.8,4.8,10.1,7.8,15.6,10.1c6.1,2.5,13,4.7,19.6,3.6
				c2-0.3,1.8-3.3,0-3.9c-1.9-0.5-1.9-9.5-2-11.3c-0.4-8-0.1-16-0.1-24c0.2-18.2,0.7-37-3.3-54.9c-1.6-7.1-4.1-14.8-9.6-19.9
				c-1.9-1.7-4.7,1.1-2.8,2.8c5.3,4.9,7.4,12.6,8.8,19.5c1.9,9.3,2.5,18.8,2.8,28.2c0.5,17.3-1,34.8,0.4,52
				c0.3,3.5,0.4,10.1,4.7,11.4c0-1.3,0-2.6,0-3.9c-6.4,1.1-13.7-1.8-19.4-4.4c-4.4-2.1-9.3-4.5-12.2-8.6c-4.6-6.4-5-15.5-5.1-23.1
				c-0.2-19.4,3.8-38.8,8.3-57.6c1.3-5.6,2.9-11.1,4.3-16.6c-0.6,0.5-1.3,1-1.9,1.5c3.4-0.1,6.9-0.2,9.8,1.9
				C167.5,187.9,169.5,184.4,167.4,182.9z"/>
		</g>
		<g>
			<path class="st2" d="M152.3,182.9c-5.3,2.3-9.7,7.4-13.2,11.7c-5.8,7-10.5,15-13.6,23.6c-9.2,25.2-1.5,50.6,15,70.8
				c1.1,1.4,3.5,0.2,3.4-1.4c-0.4-12.6,1.3-25.2,1-37.7c-0.1-2.6-4.1-2.6-4,0c0.3,12.6-1.4,25.2-1,37.7c1.1-0.5,2.3-0.9,3.4-1.4
				c-15.9-19.5-22.8-43.9-13.6-68c3.1-8,7.7-15.6,13.3-22.1c3.1-3.6,6.8-7.8,11.3-9.7C156.7,185.3,154.7,181.9,152.3,182.9
				L152.3,182.9z"/>
		</g>
		<g>
			<path class="st2" d="M124.2,258c-2.8,7.3-7.7,13.3-14.2,17.5c1,0.8,2,1.5,2.9,2.3c6.2-15.1,4-31.4,5-47.3
				c1.1-16.5,5.6-32.5,16.3-45.4c-1-0.1-2.1-0.3-3.1-0.4c2,4.3,4.5,8.2,7.7,11.7c1.7,1.9,4.5-0.9,2.8-2.8c-2.9-3.3-5.2-6.9-7-10.9
				c-0.5-1.1-2.4-1.3-3.1-0.4c-10,12.1-15.1,26.5-16.9,41.9c-2.1,17.5,1.4,35.9-5.5,52.6c-0.7,1.6,1.6,3.2,2.9,2.3
				c7.5-4.9,12.9-11.6,16.1-19.9C129,256.7,125.1,255.6,124.2,258L124.2,258z"/>
		</g>
		<g>
			<path class="st2" d="M106.5,269.4c4.8-8.5,9.2-17.2,11-26.9c0.5-2.5-3.4-3.6-3.9-1.1c-1.8,9.4-6,17.7-10.6,25.9
				C101.8,269.6,105.2,271.6,106.5,269.4L106.5,269.4z"/>
		</g>
		<g>
			<path class="st2" d="M98.7,175.2c3.7,22.4,5.3,45.7,1.4,68.3c-0.9,5.5-2.2,10.9-3.9,16.2c-0.7,2.4-2,4.9-2.2,7.4
				c1.3-0.2,2.6-0.4,3.9-0.5c-2.6-13-6.6-25.8-7.2-39.1c-0.9-18.2,4.5-36,10.6-52.9c0.9-2.4-3-3.5-3.9-1.1
				c-6.2,17.3-11.6,35.5-10.7,54c0.7,13.6,4.7,26.8,7.4,40.2c0.5,2.3,3.8,1.6,3.9-0.5c0.1-1.3,1.7-5.3,2.3-7.3
				c1.8-5.9,3.1-11.9,4.1-18c3.4-22.4,1.8-45.3-1.9-67.6C102.1,171.6,98.3,172.7,98.7,175.2L98.7,175.2z"/>
		</g>
		<g>
			<path class="st2" d="M97.6,173c-6.8,11.5-13.1,23.5-16.9,36.4c-3.7,12.9-4.6,26.2-3.7,39.5c1.2-0.3,2.5-0.7,3.7-1
				c-9.4-15.2-10.8-33.8-8.4-51.1c2-13.9,6.1-28.7,14.4-40.3c-1,0.1-2.1,0.3-3.1,0.4c2.3,2,3,8.1,3.5,10.8
				c1.5,7.9,1.6,15.9,0.6,23.8c-0.3,2.5,3.7,2.5,4,0c1.1-8.7,0.8-17.6-1-26.2c-0.7-3.2-1.5-9-4.3-11.4c-1-0.9-2.4-0.7-3.1,0.4
				c-8.8,12.4-13.2,28.3-15.1,43.2c-2.3,17.8-0.6,36.8,9,52.3c1,1.6,3.9,1.1,3.7-1c-0.9-13-0.1-25.9,3.5-38.4
				c3.7-12.6,9.8-24.2,16.5-35.5C102.4,172.8,99,170.8,97.6,173L97.6,173z"/>
		</g>
		<g>
			<path class="st2" d="M67.5,215.5c0.3,7,0,14.3-0.8,21.3c1.2-0.3,2.5-0.7,3.7-1c-16.7-23-9.8-55.4,6.4-76.3c1.6-2-1.3-4.9-2.8-2.8
				c-11.6,15-18.7,33-16.8,52.3c1,9.9,3.9,20.7,9.8,28.9c1.2,1.7,3.5,1,3.7-1c0.9-7,1.1-14.2,0.8-21.3C71.4,213,67.4,213,67.5,215.5
				L67.5,215.5z"/>
		</g>
		<g>
			<path class="st2" d="M73.8,162.2c-1.2-4.1-3.3-7.8-5.4-11.4c-0.6-1-2.3-1.4-3.1-0.4c-8.7,10.9-13.9,25.3-15.9,39
				c-2.1,14.2-0.1,30,12,39.4c2,1.6,4.9-1.3,2.8-2.8c-11.7-9-12.9-24.3-10.6-37.9c2.1-12.2,6.7-25,14.5-34.8c-1-0.1-2.1-0.3-3.1-0.4
				c1.9,3.4,3.9,6.7,5,10.5C70.7,165.7,74.5,164.7,73.8,162.2L73.8,162.2z"/>
		</g>
		<g>
			<path class="st2" d="M60.5,165.4c2.8-5.4,6.1-10.5,8.9-15.8c1-1.9-0.9-3.5-2.7-2.7c-20.9,9.1-28.8,33.3-23.4,54.4
				c0.4,1.7,2.7,1.9,3.7,0.5c5.7-8.8,6-19.7,10.5-28.9c1.1-2.3-2.3-4.3-3.5-2c-4.5,9.2-4.8,20.2-10.5,28.9c1.2,0.2,2.4,0.3,3.7,0.5
				c-5-19.5,2.3-41.4,21.6-49.8c-0.9-0.9-1.8-1.8-2.7-2.7c-2.8,5.4-6.1,10.5-8.9,15.8C55.9,165.6,59.3,167.7,60.5,165.4L60.5,165.4z
				"/>
		</g>
		<g>
			<path class="st2" d="M46,180.8c1.8-16.1,2-32.3,2.1-48.4c0.1-13.2,0.5-26.6-0.9-39.7c-1.3,0.2-2.6,0.4-3.9,0.5
				c2.2,10.4,4.7,20.7,7.7,31c2.5,8.6,5,18.2,10.1,25.7c1.4,2.1,4.9,0.1,3.5-2c-5.2-7.6-7.6-17.3-10.1-26.1
				c-2.8-9.8-5.2-19.7-7.3-29.6c-0.5-2.2-4.2-1.7-3.9,0.5c1.4,13.1,1,26.5,0.9,39.7c-0.1,16.1-0.3,32.4-2.1,48.4
				C41.7,183.4,45.7,183.4,46,180.8L46,180.8z"/>
		</g>
		<g>
			<path class="st2" d="M166.1,186.8c1.4,6.9-0.6,14.2-2.6,20.8c-2.5,8.1-5.7,16-8.8,23.9c-5.7,14.7-12.8,31.1-11.1,47.3
				c0.3,2.5,4.3,2.6,4,0c-1.8-17.1,6.3-34.5,12.4-50c5.1-13,12.8-28.7,9.9-43C169.5,183.3,165.6,184.3,166.1,186.8L166.1,186.8z"/>
		</g>
		<g>
			<path class="st2" d="M173.7,204.6c0.2,6.5-2.8,13.4-4.7,19.5c-3,9.3-6.1,18.6-8.4,28.1c-3.2,13.1-7.9,34.4,6.5,42.8
				c2.2,1.3,4.2-2.2,2-3.5c-14.1-8.2-6.3-32.8-2.9-44.8c2.4-8.5,5.3-16.9,7.9-25.3c1.7-5.3,3.9-11.2,3.7-16.9
				C177.6,202,173.6,202,173.7,204.6L173.7,204.6z"/>
		</g>
		<g>
			<path class="st2" d="M275.5,169.6c-6.1,2.6-9,9.1-8.6,15.5c0.2,2.6,4.2,2.6,4,0c-0.4-5.2,1.6-9.9,6.6-12
				C279.9,172,277.8,168.6,275.5,169.6L275.5,169.6z"/>
		</g>
		<g>
			<path class="st2" d="M180.8,281.9c1.6-4.5,7.3-6.1,11.5-4.7c2.5,0.8,3.5-3.1,1.1-3.9c-6.4-2-14,1-16.4,7.5
				C176.1,283.3,179.9,284.3,180.8,281.9L180.8,281.9z"/>
		</g>
		<g>
			<path class="st2" d="M79.3,242.2c1.8-0.6,4.2,1,5.6,1.9c2.6,1.7,4.7,4.2,5.7,7.2c0.8,2.4,4.7,1.4,3.9-1.1c-1.3-4-4-7.2-7.5-9.6
				c-2.3-1.5-5.8-3.3-8.7-2.3C75.8,239.2,76.8,243.1,79.3,242.2L79.3,242.2z"/>
		</g>
		<g>
			<path class="st2" d="M232.1,172c1.7-0.6,3.4-1.6,4.9-2.5s3.7-2,4.4-3.7c1-2.3-2.4-4.4-3.5-2c-0.4,0.8-2.3,1.8-3.3,2.5
				c-0.8,0.5-1.6,0.9-2.4,1.3c-0.3,0.2-0.6,0.3-1,0.5c-0.5,0.2-0.2,0.1-0.3,0.1C228.6,169,229.7,172.9,232.1,172L232.1,172z"/>
		</g>
		<g>
			<path class="st2" d="M224.3,174.7c3.8,0.7,7.6,2.3,10.9,4.4c2.2,1.4,4.2-2.1,2-3.5c-3.5-2.2-7.7-4-11.8-4.8
				C222.8,170.4,221.8,174.3,224.3,174.7L224.3,174.7z"/>
		</g>
		<g>
			<path class="st2" d="M215,177.2c-1.2,5.7-2,11.4-2,17.3c0,2.6,4,2.6,4,0c0-5.5,0.8-10.8,1.9-16.2
				C219.4,175.8,215.5,174.7,215,177.2L215,177.2z"/>
		</g>
		<g>
			<path class="st2" d="M201,189.6c12.6-0.8,15.1,14.4,16.1,24c1.3,12.6,0.4,25.3,0.1,38c-0.1,2.6,3.9,2.6,4,0
				c0.4-14.6,1.5-29.5-0.9-44c-1.7-10.6-6.6-22.7-19.3-21.9C198.4,185.8,198.4,189.8,201,189.6L201,189.6z"/>
		</g>
		<g>
			<path class="st2" d="M99.2,176.1c17,15.6,15.2,45,14.4,65.9c-0.1,2.6,3.9,2.6,4,0c0.9-22,2.3-52.3-15.6-68.7
				C100.1,171.5,97.3,174.4,99.2,176.1L99.2,176.1z"/>
		</g>
		<g>
			<path class="st2" d="M74.2,158.5c-0.1,2-0.3,4.1-0.4,6.1c0,1.5,0.3,3.1,1.5,4.1c2,1.6,4.8-1.2,2.8-2.8c-0.7-0.6-0.3-2.3-0.2-3.1
				c0.1-1.4,0.2-2.8,0.3-4.3C78.3,156,74.3,156,74.2,158.5L74.2,158.5z"/>
		</g>
		<g>
			<path class="st2" d="M219.3,177.1c-4.7-6.2-10.5-13.5-12.2-21.2c-0.6-2.5-4.4-1.4-3.9,1.1c1.8,8.1,7.7,15.7,12.6,22.2
				C217.4,181.2,220.9,179.2,219.3,177.1L219.3,177.1z"/>
		</g>
		<g>
			<path class="st2" d="M183.9,158.1c0.5,5.1,3.7,11.8,8.6,14.1c-0.3-0.8-0.6-1.5-0.9-2.3c-1.1,4-0.1,8.2,1.3,12
				c0.9,2.4,4.7,1.4,3.9-1.1c-1.1-3.1-2.2-6.6-1.3-9.9c0.2-0.8-0.1-1.9-0.9-2.3c-3.6-1.7-6.2-6.8-6.6-10.6
				C187.6,155.5,183.6,155.5,183.9,158.1L183.9,158.1z"/>
		</g>
		<g>
			<path class="st2" d="M192.4,172.2c6.3,3.1,13.4,2.5,20.2,2c2.6-0.2,2.6-4.2,0-4c-5.9,0.4-12.6,1.3-18.2-1.4
				C192.1,167.6,190.1,171,192.4,172.2L192.4,172.2z"/>
		</g>
		<g>
			<path class="st2" d="M101.3,174.5c2.8-7.2,7.6-13.7,12-20.1c1.5-2.1-2-4.1-3.5-2c-4.6,6.7-9.4,13.5-12.4,21.1
				C96.5,175.9,100.4,176.9,101.3,174.5L101.3,174.5z"/>
		</g>
		<g>
			<path class="st2" d="M122.1,160.9c-1.2,9.8-2.2,19.6-3.4,29.3c-1.2,10.1-1.5,21.4-4.5,31.1c-0.8,2.5,3.1,3.5,3.9,1.1
				c3.1-9.8,3.3-21,4.5-31.1s2.2-20.3,3.5-30.4C126.4,158.4,122.4,158.4,122.1,160.9L122.1,160.9z"/>
		</g>
		<g>
			<path class="st2" d="M107.6,159.1c1.9,3.5,3.6,6.7,7,8.8c2.2,1.3,6.3,3.7,8.8,2.4c2.3-1.2,0.3-4.6-2-3.5
				c-0.1,0.1-0.2,0.1-0.4,0.2c0.5-0.1,1-0.1,1.5-0.2c-2.2-0.4-4.8-1.6-6.6-2.9c-2.4-1.7-3.6-4.4-4.9-7
				C109.8,154.9,106.3,156.9,107.6,159.1L107.6,159.1z"/>
		</g>
		<g>
			<path class="st2" d="M102.9,163.7c0.4,3.7,3.4,7.1,5.5,9.9c3.5,4.8,7.3,9.4,11,14.1c1.6,2,4.4-0.8,2.8-2.8
				c-3.2-4.1-6.5-8.1-9.6-12.3c-1.7-2.2-5.3-6-5.7-8.9C106.6,161.2,102.6,161.1,102.9,163.7L102.9,163.7z"/>
		</g>
		<g>
			<path class="st2" d="M157.4,136c1.4,5.6-0.9,12.3-5.3,16c-2,1.7,0.9,4.5,2.8,2.8c5.4-4.6,8-13.1,6.3-19.9
				C160.6,132.5,156.8,133.5,157.4,136L157.4,136z"/>
		</g>
		<g>
			<path class="st2" d="M148.2,135.1c-0.6,6.5-3.3,13-6.4,18.6c-1.3,2.2,2.2,4.3,3.5,2c3.5-6.3,6.4-13.4,7-20.6
				C152.4,132.5,148.4,132.5,148.2,135.1L148.2,135.1z"/>
		</g>
		<g>
			<path class="st2" d="M140.2,133.5c-0.9,8.2-5.7,18.9-13.4,22.5c-2.3,1.1-0.3,4.5,2,3.5c9.1-4.2,14.4-16.4,15.4-25.9
				C144.5,130.9,140.5,131,140.2,133.5L140.2,133.5z"/>
		</g>
		<g>
			<path class="st2" d="M130.4,136.7c-1.6,6.3-6.1,15.5-12.6,17.9c-2.4,0.9-1.4,4.8,1.1,3.9c8-2.9,13.4-12.8,15.4-20.7
				C134.9,135.3,131,134.2,130.4,136.7L130.4,136.7z"/>
		</g>
		<g>
			<path class="st2" d="M113.2,144.8c0.2,2.1-0.7,5.8-2.6,7c-2.2,1.3-0.2,4.8,2,3.5c3.1-1.9,5-6.9,4.6-10.4
				C116.9,142.3,112.9,142.2,113.2,144.8L113.2,144.8z"/>
		</g>
		<g>
			<path class="st2" d="M165.3,135.3c1.1,1.7,1.1,4.7,1.2,6.6c0.2,3.6,0,7.3-1.6,10.6c-1.1,2.3,2.3,4.3,3.5,2
				c1.9-3.9,2.4-8.3,2.1-12.6c-0.2-2.6-0.3-6.3-1.8-8.6C167.3,131.1,163.9,133.1,165.3,135.3L165.3,135.3z"/>
		</g>
		<g>
			<path class="st2" d="M171.4,133.8c3.8,2.4,4.7,7.4,5.1,11.6c0.1,1.9,0.5,7.5-0.4,8.4c-1.7,1.9,1.1,4.8,2.8,2.8
				c2.4-2.8,1.8-8.9,1.5-12.2c-0.5-5.4-2.1-11.1-7-14.1C171.3,128.9,169.2,132.4,171.4,133.8L171.4,133.8z"/>
		</g>
		<g>
			<path class="st2" d="M185.2,137.8c1,5.5-0.5,14.1-3.8,18.6c-1.5,2.1,2,4.1,3.5,2c4-5.5,5.4-15.2,4.2-21.7
				C188.6,134.2,184.7,135.3,185.2,137.8L185.2,137.8z"/>
		</g>
		<g>
			<path class="st2" d="M192.9,142.9c1.2,3.2,3.1,9.3,0.3,12.1c-1.6,1.6,0.5,4.4,2.4,3.1c0.2-0.1,0.4-0.2,0.6-0.4
				c2.2-1.4,0.2-4.8-2-3.5c-0.2,0.1-0.4,0.2-0.6,0.4c0.8,1,1.6,2.1,2.4,3.1c4.1-4.1,2.6-11.2,0.8-16
				C195.9,139.5,192,140.5,192.9,142.9L192.9,142.9z"/>
		</g>
		<g>
			<path class="st2" d="M199.7,145.2c2,2.7,3.3,5.7,3.7,9.1c0.3,2.5,4.3,2.6,4,0c-0.4-4.1-1.8-7.8-4.3-11.1
				C201.7,141.1,198.2,143.1,199.7,145.2L199.7,145.2z"/>
		</g>
		<g>
			<path class="st2" d="M189.6,161.3c3.7,4.4,11.5,5.4,16.8,4c2.5-0.6,1.4-4.5-1.1-3.9c-4,1-10.1,0.3-12.9-3
				C190.7,156.5,187.9,159.3,189.6,161.3L189.6,161.3z"/>
		</g>
		<g>
			<path class="st2" d="M47.1,147.6c4.2-0.9,8-2.6,11.8-4.3c2.3-1,0.3-4.5-2-3.5c-3.6,1.6-7,3.1-10.9,3.9
				C43.5,144.3,44.6,148.1,47.1,147.6L47.1,147.6z"/>
		</g>
		<g>
			<path class="st2" d="M47.6,139.8c1.1-1.2,2.3-2.3,3.4-3.5c0.5-0.5,1.1-1.1,1.6-1.6c0.3-0.3,0.5-0.5,0.8-0.8
				c0.1-0.1,0.3-0.3,0.4-0.4c0.7-0.6,0.1-0.7-1.7-0.3c-0.2-0.5-0.4-0.9-0.6-1.4c0,0.1,0,0.1,0,0.2c-0.2,2.6,3.8,2.5,4,0
				c0.1-1.1-0.7-2.1-1.8-2.4c-1.2-0.3-2.1,0.5-2.9,1.3c-2,2-4,4.1-6,6.1C43,138.8,45.8,141.6,47.6,139.8L47.6,139.8z"/>
		</g>
		<g>
			<path class="st2" d="M100.6,242c-1,6.5-1.6,13.1-0.5,19.6c0.4,2.4,0.8,5.8,2.6,7.8c1.8,1.9,4.6-0.9,2.8-2.8
				c-0.9-1-1.4-4.6-1.6-6.3c-0.8-5.7-0.3-11.5,0.6-17.2C104.8,240.5,101,239.4,100.6,242L100.6,242z"/>
		</g>
	</g>
</g>
</svg>
