<?xml version="1.0" encoding="utf-8"?>
<!-- Generator: Adobe Illustrator 19.2.0, SVG Export Plug-In . SVG Version: 6.00 Build 0)  -->
<svg version="1.1" id="Layer_1" xmlns="http://www.w3.org/2000/svg" xmlns:xlink="http://www.w3.org/1999/xlink" x="0px" y="0px"
	 viewBox="0 0 500 500" style="enable-background:new 0 0 500 500;" xml:space="preserve">
<style type="text/css">
	.st0{fill:#EFEFEF;}
	.st1{fill:#7A7B7B;}
	.st2{fill:#BBBBBC;}
</style>
<g>
	<path class="st0" d="M132.1,391.7c-0.5,0-1,0-1.4-0.1c-1.2-0.1-3-0.6-4-4.4l-0.2-0.6l-0.1-0.1v-0.2l-0.1-0.5
		c-0.6-3.2-0.5-6.9-0.4-9.7c0-0.7,0-1.3,0-1.8c0-6.2,0.5-12.5,1-18.8c0.3-4.2,0.7-8.5,0.9-12.8v-1L127,341
		c-3.4-2.9-4.1-8.2-3.3-11.9c0.5-2.5,1.4-4.9,2.3-7.5c0.9-2.5,1.8-5,2.4-7.7c1.6-6.7,2.7-13.6,3.6-20c0.9-5.7,1.7-11.5,2.4-17.3
		c1.2-8.8,2.4-18,4-26.9l0.3-1.6c1.7-10.1,3.7-21.5,9.3-30c2.3-3.5,5.4-6.7,9.4-9.8l0.1-0.1l0.3-0.3l0.2-0.1l0.3-0.2
		c3.4-2.5,7.4-4.9,12.3-7.3c17.8-8.9,39.3-15,67.8-19.2l2.1-0.3c1.4-0.2,2.8-0.4,4.3-0.6l2.6-0.4l-1-2.4c-0.2-0.5-0.1-0.7,0.1-1
		c1-1.5,5.6-3.2,11.1-3.2c4.5,0,7.3,1.1,8,2.2c0.2,0.3,0.4,0.7,0.1,1.7l-0.9,2.4l2.6,0.3c11.9,1.2,24.3,4.1,34.3,6.5
		c24.6,5.8,58.3,13.8,70,41.9c4.4,10.6,5.6,22.2,6.2,32.1c0.8,13.7,2.7,27.6,5.6,41.5c0.9,4,1.9,8.2,3.1,12.5c0.5,1.6,1,3.3,1.6,4.9
		c1,2.9,2,5.8,2.5,8.7c0.7,4.7-0.7,11-4.3,13.7c-0.4,0.3-0.8,0.5-1.1,0.5l-2.2,0.3l0.5,2.1c2.3,10.8,2.4,24,0.2,35.8
		c-0.6,3.1-1.5,8.2-4.4,9.5c-0.9,0.4-2.1,0.6-3.5,0.6l0,0c-2.6,0-5.5-0.7-8-1.4c-9.9-2.7-19.5-7.8-28.7-12.7c-1.9-1-3.7-2-5.6-3
		c-14.2-7.4-28.9-15.2-44.8-20.4c-10.3-3.3-20.5-5-31.3-5c-6.7,0-13.6,0.6-20.9,1.9c-15.5,2.7-31.1,7.9-47.8,15.9
		c-6.9,3.3-13.6,6.9-20.2,10.4c-4.7,2.5-9.6,5.2-14.5,7.6l-0.8,0.4C146.8,387.9,139.3,391.7,132.1,391.7z"/>
	<g>
		<path class="st1" d="M126.2,340.5c-4.7-4.5-2.3-11.4-0.6-16.5c0.3-0.8,0.5-1.5,0.8-2.2c1.8-5.6,3-11.5,4-17
			c1.7-9.2,2.9-18.7,4.2-27.8c0.6-4.4,1.2-8.9,1.8-13.4l0.3-1.8c1.7-11.8,3.5-24.2,7.7-35.5c1.6-4.4,3.9-8.3,7.1-11.9l1.7,0.9
			c-0.6,2.1-1.1,4.2-1.5,6.2l-0.2,1c-1.9,9-3,18.4-4.1,27.8c-0.7,5.9-1.2,11.9-1.6,17.9c-1.1,12.7-2.1,26-4.9,38.6
			c-0.6,2.8-1.9,5.6-3.4,8.6c-2.8,5.8-5.6,11.9-2.2,17.1c0.1,0.1,0.1,0.2,0.2,0.2l1.5,0.7l-1.4,1c-2.6,1.9-5.2,3.9-7.7,5.9l-0.2,0.2
			h-0.3c-0.1,0-0.1,0-0.2,0l-0.6,0.2L126.2,340.5z"/>
		<path class="st1" d="M385.2,341.7c-1.1,0-1.7-0.9-2.4-1.7c-0.2-0.3-0.4-0.6-0.7-0.9c-0.1-0.2-0.3-0.3-0.4-0.5l-0.7-0.8l0.2-0.6
			c2.2-6.2-0.7-12.8-3.4-19.3c-1.6-3.7-3.2-7.6-3.8-11.3c-0.6-3.9-0.8-7.9-0.9-11.8c-0.1-2.1-0.1-4.2-0.3-6.2
			c-1.5-21.5-3.5-44.2-10.8-64.8c-1.3-3.7-3.4-9.3-6.5-14.1l1.5-1.3c4.9,3.9,8.6,8.4,11.6,13.7c5,8.8,7.8,19.7,8.9,34
			c1,12.8,2.2,23.7,3.8,34.1c1.3,8.2,2.9,15.6,4.8,22.7c0.4,1.3,0.9,2.9,1.5,4.5c2.6,7.5,6.2,17.8-0.4,23.5
			C386.5,341.4,385.8,341.7,385.2,341.7z"/>
		<path class="st1" d="M246.8,178.4c0,0,0-0.1-0.1-0.1c-0.4-0.5-0.4-1.2-0.1-1.7c1.2-2.3,8.7-2.8,11.4-2.8c4.1,0,6.6,0.7,7.4,2
			c0.4,0.6,0.4,1.4,0,2.1c0,0,0,0.1-0.1,0.1l-0.2,0.8l-0.8-0.1c-2.2-0.2-4.3-0.3-6.2-0.3c-0.4,0-0.7,0-1.1,0c-2.7,0-5.6,0.2-9.2,0.6
			l-0.8,0.1L246.8,178.4z"/>
	</g>
	<g>
		<path class="st2" d="M131.9,392c-1.5,0-2.6-0.3-3.4-0.9c-0.6-0.5-1.2-1.2-1.6-2.2l-0.6-1.5l1.6,0.1c0.3,0,0.5,0,0.8,0
			c7.3,0,15.6-4.7,22.2-8.5c1.6-0.9,3-1.7,4.4-2.5c18-9.7,35.7-18.9,54.8-25c18.1-5.7,33.8-8.5,48.2-8.5c7.4,0,14.4,0.8,20.9,2.3
			c20.2,4.7,38.9,14.7,57.1,24.1c0,0,5.3,2.8,6.7,3.5c7.3,3.9,14.9,7.9,22.7,11.2l0.5,0.2c4,1.7,8.6,3.7,13.1,3.9l3.5,0.2l-3,1.7
			c0,0-0.1,0.1-0.2,0.1c-1,0.5-2.2,0.7-3.6,0.7c-3,0-6.6-1.1-8.9-1.8l-0.6-0.2c-9.9-3.1-19.3-8.1-28.4-12.9
			c-2.1-1.1-4.3-2.3-6.4-3.4c-13-6.8-25.8-13.4-39.4-18.1c-11.9-4.2-23.1-6.2-34.1-6.2c-2.6,0-5.2,0.1-7.8,0.3
			c-15,1.3-30.2,4.9-45.3,10.7c-12.9,4.9-25.2,11.3-35.5,17c-1.7,0.9-3.4,1.9-5.1,2.8c-7.3,4.1-14.9,8.2-23,10.9l-0.6,0.2
			C138.4,390.8,134.8,392,131.9,392z"/>
		<path class="st2" d="M379.7,387.2c-4.7,0-9.7-2.3-13.7-4.1l-1.4-0.6c-7.1-3.1-14.1-6.8-20.8-10.3l-5.5-2.9
			c-17.3-9-35.1-18.5-54.1-23.8c-7.9-2.2-16.6-3.4-25.7-3.4c-11.4,0-23.8,1.7-37.7,5.2c-17,4.3-34.8,11.5-56.1,22.9
			c-2.3,1.2-4.5,2.4-6.8,3.7c-5.1,2.8-10.4,5.7-15.8,8.2l-0.7,0.4c-3.8,1.8-8.4,4-12.9,4c-0.5,0-1,0-1.5-0.1l-0.8-0.1l-0.1-0.8
			c-0.4-2.6-0.3-5.5-0.2-7.6c0-0.7,0-1.3,0-1.8c0-6.8,0.5-13.8,1-20.5c0.3-4.3,0.7-8.8,0.9-13.3v-0.6l0.5-0.3c0,0,0.1,0,0.1-0.1
			c34.3-27.9,80-43.2,128.9-43.2c16.5,0,33.1,1.7,49.2,5.1c27.8,5.8,49.1,14.9,65.2,27.4c2.9,2.3,5.6,4.7,7.9,7.1l0.1,0.1l0.1,0.2
			l0.1,0.1l0.1,0.1l0.5,0.5c0.2,0.3,0.5,0.5,0.7,0.8c0.3,0.4,0.2,0.8,0.5,1.2l0.2,0.8v0.4c0,0.1,0.5,0.1,0.5,0.2
			c3.1,12.1,2.7,25.4,1.6,34.3v1c-0.3,2.4-0.6,6.1-1.8,8.9L382,387l-0.5,0.1C381,387.1,380.3,387.2,379.7,387.2z"/>
		<path class="st2" d="M137.6,318c0,0,9.2-7.7,16.5-10c7.3-2.3,13.5-0.7,14.6-3.8s1.6-7.9-1-8c-2.6-0.1-26.1,7.4-26.8,10
			C140.4,308.7,137.6,318,137.6,318z"/>
		<path class="st2" d="M375.9,314.2c-4.2-3-19.7-11.8-26.5-10.5c-6.2,1.2-6.4-5.2-4-6.3c7-3.2,26,2.6,27.8,5.1
			C374.9,305,375.9,314.2,375.9,314.2z"/>
		<path class="st2" d="M255.7,178.4c0.1,0,4.9,39.8,5.4,47.3c0.4,6.1-5.5,16-8.5,14.9c-6.8-2.5-19.4-56.7-16-58.8
			C240.1,179.5,255.7,178.4,255.7,178.4z"/>
	</g>
	<g>
		<g>
			<path class="st1" d="M125.9,341.1c-0.4,11.1-1.9,22.2-2,33.3c0,5.3-1.2,18.6,6.6,19.2c8.5,0.6,17.3-4,24.6-7.7
				c11.6-5.9,22.8-12.5,34.6-18.1c15-7.1,30.8-12.7,47.3-15.7c17.6-3.1,34.2-2.6,51.3,3c15.5,5,30.1,12.6,44.5,20.3
				c11.1,5.8,22.4,12.5,34.6,15.9c3.7,1,9.2,2.4,12.9,0.6c3.8-1.8,4.8-7.4,5.5-11c2.3-12.4,2.3-26.9-0.8-39.1
				c-0.5-1.9-3.4-1.1-2.9,0.8c2.7,10.7,2.7,23,1.4,33.9c-0.4,3.4-0.9,10.9-4.5,12.7c-3.3,1.7-9.3-0.4-12.5-1.4
				c-12.1-3.7-23.4-10.4-34.6-16.3c-12.9-6.7-25.9-13.4-39.6-18.2c-13.8-4.8-27.7-7.2-42.3-5.9c-15.6,1.4-30.9,5.2-45.5,10.8
				c-12.3,4.7-24.1,10.7-35.6,17c-9.1,4.9-18.1,10.4-28,13.7c-2.6,0.9-9.3,3.3-11.7,1.4c-3-2.4-2.2-10.9-2.2-14.3
				c-0.1-11.6,1.5-23.2,2-34.8C128.9,339.2,125.9,339.2,125.9,341.1L125.9,341.1z"/>
		</g>
		<g>
			<path class="st1" d="M125.4,388.1c10.1,2.1,22-6.3,30.4-10.8c17.7-9.5,35.4-18.8,54.6-25c21.5-6.9,46.2-11.5,68.6-6.2
				c21,4.9,40.4,15.5,59.4,25.4c8.9,4.6,17.7,9.4,26.9,13.5c5.3,2.3,11.6,5.1,17.4,4c1.9-0.3,1.1-3.2-0.8-2.9
				c-5.5,1-12-2.3-16.8-4.4c-8.2-3.6-16.1-7.9-24.1-12c-18.2-9.5-36.6-19.5-56.5-25c-20.9-5.9-43.1-3.4-63.9,1.9
				c-19.8,5-38.3,13.5-56.3,23c-7.5,4-14.9,8.2-22.6,11.9c-4.5,2.1-10.4,5.1-15.5,4C124.3,384.9,123.5,387.7,125.4,388.1
				L125.4,388.1z"/>
		</g>
		<g>
			<path class="st1" d="M376,312.7c-6.1-6-14.1-9.9-22.9-10.7c-1.9-0.2-1.9,2.9,0,3.1c8,0.7,16.2,4,21.8,9.9
				C376.2,316.4,377.3,314.7,376,312.7L376,312.7z"/>
		</g>
		<g>
			<path class="st1" d="M366.9,299.8c-4.6-2.4-9.4-4.4-14.6-4.5c-1.9-0.1-1.9,2.9,0,3c4.7,0.1,9,2,13.1,4.1
				C367.1,303.4,368.7,300.7,366.9,299.8L366.9,299.8z"/>
		</g>
		<g>
			<path class="st1" d="M138.7,319c4.3-4.3,11-9.2,17.3-9.9c1.9-0.2,1.9-3.2,0-3c-7.2,0.8-14.4,5.8-19.4,10.7
				C135.2,318.3,137.3,320.4,138.7,319L138.7,319z"/>
		</g>
		<g>
			<path class="st1" d="M146.3,305.7c1.5-1.3,3.7-2.1,5.5-2.8c1.9-0.7,3.9-1.6,5.9-1.6c1.9-0.1,1.9-3.1,0-3c-2.5,0.1-5,1-7.3,2
				c-2.2,0.9-4.5,1.8-6.3,3.4C142.7,304.9,144.8,307,146.3,305.7L146.3,305.7z"/>
		</g>
		<g>
			<path class="st1" d="M254.8,180.2c1.1,9.6,1.8,19.4,2.3,29.1c0.1,1.9,3.1,1.9,3,0c-0.5-9.7-1.2-19.5-2.3-29.1
				C257.6,178.3,254.6,178.3,254.8,180.2L254.8,180.2z"/>
		</g>
		<g>
			<path class="st1" d="M251.1,201.4c0.7,4.8,0.9,9.7,0.7,14.7c-0.1,1.9,2.9,1.9,3,0c0.2-5.2-0.1-10.3-0.8-15.5
				C253.7,198.7,250.8,199.5,251.1,201.4L251.1,201.4z"/>
		</g>
		<g>
			<path class="st1" d="M127.6,340.4c-6-4.6-2-12.7-0.3-18.3c1.8-5.6,2.9-11.3,4-17.2c2.5-13.7,4-27.4,6-41.2
				c1.8-12.4,3.5-25.3,7.9-37.1c3.5-9.6,10.4-16.3,19-21.5c19.6-11.9,43.3-17.6,65.6-21.5c8.2-1.4,16.4-2.7,24.7-3.2
				c11-0.7,22.4,1.9,33.1,4c15.8,3,31.5,7,46.5,12.6c13.7,5.1,26.1,12.2,33.5,25.4c5.8,10.2,7.9,22,8.8,33.6
				c0.9,11.5,2,22.8,3.8,34.2c1.2,7.6,2.8,15.3,4.8,22.8c2,7.3,8.9,20.6,1.4,27c-1.9,1.6-2.2,0-3.6-1.7c-1.3-1.6-2.8-3.1-4.3-4.5
				c-3-2.9-6.3-5.4-9.7-7.8c-17.9-12.5-39.4-19.9-60.6-24.5c-54.8-11.8-115.4-5-163.3,25.3c-6.3,4-12.3,8.3-18.1,13
				c-1.5,1.2,0.6,3.3,2.1,2.1c49.1-39.9,116.4-50.7,177.3-37.8c22.7,4.8,46.3,12.7,64.8,27.2c3.4,2.6,6.6,5.6,9.4,8.8
				c2.1,2.4,3.5,5.5,6.9,3c4.5-3.2,5.9-10.4,5.1-15.6c-0.7-4.7-2.8-9.3-4.1-14c-1.2-4.1-2.2-8.2-3.1-12.3
				c-2.9-13.5-4.8-27.3-5.6-41.2c-0.6-11.1-2-22.4-6.3-32.8c-11.8-28.5-44.1-36.6-71.4-43.1c-14.2-3.3-29.3-6.8-43.9-7.1
				c-6.6-0.1-13.4,1-20,2c-23.3,3.4-47.3,8.7-68.4,19.4c-8.8,4.4-17.8,10.1-23.3,18.6c-6.1,9.3-8,21.7-9.9,32.4
				c-2.6,14.7-4.2,29.5-6.4,44.2c-1,6.6-2.1,13.3-3.6,19.8c-1.2,5.2-3.6,10.1-4.8,15.3c-1.1,4.9,0.2,11,4.3,14.2
				C127.6,344.2,129.1,341.6,127.6,340.4L127.6,340.4z"/>
		</g>
		<g>
			<path class="st1" d="M137,331.7c-4.5-6.9,4.2-16.9,5.8-24.2c1.5-7.2,2.3-14.7,3-21.9c2-19.2,3.2-38.5,6.6-57.6
				c1-5.9,1.9-14.8,6.3-19.3c1.4-1.4-0.8-3.5-2.1-2.1c-3.9,3.9-5.1,10.6-6.2,15.8c-2,9.2-3.1,18.6-4.1,27.9
				c-2.1,18.7-2.5,38-6.5,56.4c-1.8,8.3-10.9,18.2-5.5,26.5C135.5,334.8,138,333.3,137,331.7L137,331.7z"/>
		</g>
		<g>
			<path class="st1" d="M381.9,338.4c4.3-10.5-5.3-21.8-6.9-31.8c-0.9-5.8-0.7-12-1.1-18c-1.5-21.8-3.6-44.4-10.9-65
				c-3.1-8.7-7.3-18.3-15.4-23.4c-1.6-1-3.1,1.6-1.5,2.6c7.4,4.7,11.3,13.7,14,21.6c3.6,10.1,5.7,20.8,7.3,31.4
				c2.5,16.6,2.9,33.2,4.5,49.8c1,10.1,11.3,21.8,7.1,32C378.2,339.3,381.1,340.1,381.9,338.4L381.9,338.4z"/>
		</g>
		<g>
			<path class="st1" d="M247.6,177.7c-2-3,19.3-4.7,17-0.4c-0.9,1.7,1.7,3.2,2.6,1.5c6-11.2-28.2-8.6-22.2,0.4
				C246.1,180.8,248.7,179.3,247.6,177.7L247.6,177.7z"/>
		</g>
	</g>
</g>
</svg>
