<?xml version="1.0" encoding="utf-8"?>
<!-- Generator: Adobe Illustrator 19.2.0, SVG Export Plug-In . SVG Version: 6.00 Build 0)  -->
<svg version="1.1" id="Layer_1" xmlns="http://www.w3.org/2000/svg" xmlns:xlink="http://www.w3.org/1999/xlink" x="0px" y="0px"
	 viewBox="0 0 620 400" style="enable-background:new 0 0 620 400;" xml:space="preserve">
<style type="text/css">
	.st0{fill:#433947;}
	.st1{opacity:0.75;}
	.st2{fill:#231E26;}
	.st3{fill:#0F0814;}
</style>
<g>
	<path class="st0" d="M569.5,213.9c-55.6-40.2-101.1-59.5-122.7-69.5c-1.7-0.8-4.4-4.7-6.4-7.6c-10-14.5-28.6-46.2-41.6-59.5
		c1.6,21.1-5.4,51.7-9.3,81.7c-0.9,7-8,40.6-9.4,47.2c-2.9,21.5-10.8,49.6-17,75.9c-3,12.7-10.6,43.5-10.6,43.5l-10.7,38.8
		c91.7-10,181.8-35.4,209.2-56.6C578.9,286.2,601.8,237.2,569.5,213.9z"/>
	<path class="st0" d="M49.7,213.9c55.6-40.2,101.1-59.5,122.7-69.5c1.7-0.8,4.4-4.7,6.4-7.6c10-14.5,28.6-46.2,41.6-59.5
		c-1.6,21.1,5.4,51.7,9.3,81.7c0.9,7,8,40.6,9.4,47.2c2.9,21.5,10.8,49.6,17,75.9c3,12.7,10.6,43.5,10.6,43.5l10.7,38.8
		c-91.7-10-181.8-42.4-209.2-63.6C40.3,279.2,17.4,237.2,49.7,213.9z"/>
	<g class="st1">
		<path class="st2" d="M227.7,355L171,188.6l-1.4-5.3c0,0-2.8-0.2-3.2,5.3c-0.4,5.4,50,166,50,166l12,2.4L227.7,355z"/>
		<path class="st2" d="M176.7,173.9l-11.1-13.3c0,0-1.9,0.9-1.7,2.8s8.9,15.6,8.9,15.6l2.9-2.9L176.7,173.9z"/>
		<path class="st2" d="M391.6,355l56.7-166.4l1.4-5.3c0,0,2.8-0.2,3.2,5.3c0.4,5.4-50,166-50,166l-12,2.4L391.6,355z"/>
		<path class="st2" d="M442.6,173.9l11.1-13.3c0,0,1.9,0.9,1.7,2.8s-8.9,15.6-8.9,15.6l-2.9-2.9L442.6,173.9z"/>
		<path class="st2" d="M425.4,310.5l32.6,0.9l36.3,3.5c0,0-12.7-9.2-35.1-10.4C436.9,303.1,425.4,310.5,425.4,310.5z"/>
		<path class="st2" d="M431.2,320.6c-3.1,2.2-0.4,7,3,8.4s19.6-1.3,27.2-0.8c7.6,0.4,10,1.7,13.2,1.2c3.2-0.5,8.1-6.9,6.9-8.8
			S435.9,317.4,431.2,320.6z"/>
	</g>
	<g>
		<g>
			<path class="st3" d="M393.6,75.2c5.8,13.3,3.2,30.3,1.2,44.1c-2.2,15.3-5.5,30.4-8.5,45.6c-8.3,42.7-17.6,85.2-27.9,127.5
				c-5.8,23.8-11.7,47.5-17,71.4c-0.6,2.5,3.3,3.6,3.9,1.1c9.9-43.8,21.3-87.3,30.9-131.2c4.8-21.9,9.3-43.8,13.6-65.8
				c3.1-16,6.6-32,8.9-48.2c2.1-14.9,4.5-32.3-1.7-46.5C396,70.8,392.6,72.8,393.6,75.2L393.6,75.2z"/>
		</g>
		<g>
			<path class="st3" d="M394.2,75.6c8,7.3,14.5,16.3,20.7,25.1c7.1,10.1,13.7,20.5,20.1,31c4.7,7.7,9.2,15.4,13.6,23.3
				c0.6,1,1.1,2.1,1.7,3.1c0.9,1.4-0.1,0.9,0.3,0.2c-2.5,4.8-6.4,9.1-9.8,13.3c-1.6,2,1.2,4.8,2.8,2.8c2.7-3.5,5.5-6.9,8-10.5
				c1.4-2,3.4-4,2.7-6.6c-1.2-4-4.4-8-6.5-11.6c-9.9-17.2-20.4-34.2-32-50.4c-5.7-7.9-11.7-15.9-18.9-22.5
				C395.1,71.1,392.2,73.9,394.2,75.6L394.2,75.6z"/>
		</g>
		<g>
			<path class="st3" d="M392.7,138.8c11.7,5.7,22,14.6,31.7,23.2c8.2,7.2,16.3,14.6,23.7,22.7c1.7,1.9,4.6-0.9,2.8-2.8
				c-7.7-8.4-16.2-16.1-24.7-23.6c-9.7-8.4-19.9-17.2-31.5-22.9C392.4,134.3,390.4,137.7,392.7,138.8L392.7,138.8z"/>
		</g>
		<g>
			<path class="st3" d="M447.5,183.6c-7,24.4-15.4,48.5-23.6,72.5c-11.5,33.5-23.2,66.9-35.1,100.3c-0.9,2.4,3,3.5,3.9,1.1
				c11.8-33.4,23.6-66.8,35.1-100.3c8.2-24,16.7-48.1,23.6-72.5C452.1,182.2,448.2,181.1,447.5,183.6L447.5,183.6z"/>
		</g>
		<g>
			<path class="st3" d="M406.8,182.4c5.8,6.3,13.6,11.7,21.3,15.4c2.3,1.1,4.3-2.3,2-3.5c-7.4-3.6-14.9-8.7-20.5-14.8
				C407.8,177.7,405,180.5,406.8,182.4L406.8,182.4z"/>
		</g>
		<g>
			<path class="st3" d="M422.6,312.8c11.5-1.1,23.4-0.1,34.9,0.5c12.1,0.7,24.4,1.2,36.3,3.4c2.5,0.5,3.6-3.4,1.1-3.9
				c-11.9-2.2-24.1-2.8-36.1-3.5c-11.9-0.7-24.2-1.7-36.2-0.6C420.1,309,420.1,313,422.6,312.8L422.6,312.8z"/>
		</g>
		<g>
			<path class="st3" d="M443.2,144.4c23.4,12.7,47.6,23.7,71.2,36.1c21.4,11.3,44.9,23.4,61.3,41.7c1.7,1.9,4.5-0.9,2.8-2.8
				c-16.2-18.2-39.5-30.4-60.7-41.6c-24-12.7-48.7-23.9-72.5-36.8C443,139.7,440.9,143.2,443.2,144.4L443.2,144.4z"/>
		</g>
		<g>
			<path class="st3" d="M222.2,73.2c-5.5,12.6-4.1,27.7-2.4,41c1.8,14.8,5,29.4,7.8,44.1c8.5,44.3,18,88.5,28.6,132.3
				c6,24.7,12.1,49.4,17.7,74.2c0.6,2.5,4.4,1.4,3.9-1.1c-17.9-79.4-39.3-158.2-52.5-238.6c-2.5-15.4-6.2-34.9,0.3-49.8
				C226.6,72.8,223.2,70.8,222.2,73.2L222.2,73.2z"/>
		</g>
		<g>
			<path class="st3" d="M222.2,72.8c-13.9,12.6-24.3,29.6-34.3,45.3c-5.1,8-10,16.2-14.9,24.4c-2.6,4.5-6,9.2-8,14.1
				c-0.9,2.3-0.1,3.4,1.2,5.5c2.8,4.2,6,8.2,9.2,12.2c1.6,2,4.4-0.8,2.8-2.8c-3.3-4.2-7.2-8.5-9.8-13.3c0.4,0.7-0.6,1.2,0.3-0.2
				c0.6-1,1.1-2.1,1.7-3.1c4.4-7.9,8.9-15.6,13.6-23.3c6.4-10.5,13-20.9,20.1-31c6.2-8.8,12.7-17.8,20.7-25.1
				C226.9,73.9,224.1,71,222.2,72.8L222.2,72.8z"/>
		</g>
		<g>
			<path class="st3" d="M224.2,134.1c-11.3,6.3-21.4,15.2-31,23.7c-8.6,7.6-17.2,15.5-25,24c-1.7,1.9,1.1,4.7,2.8,2.8
				c7.5-8.2,15.7-15.7,24-23.1c9.7-8.7,19.7-17.7,31.2-24C228.5,136.3,226.5,132.9,224.2,134.1L224.2,134.1z"/>
		</g>
		<g>
			<path class="st3" d="M167.8,184.7c7,24.4,15.4,48.5,23.6,72.5c11.5,33.5,23.2,66.9,35.1,100.3c0.9,2.4,4.7,1.4,3.9-1.1
				c-11.8-33.4-23.6-66.8-35.1-100.3c-8.2-24-16.7-48.1-23.6-72.5C171,181.1,167.1,182.2,167.8,184.7L167.8,184.7z"/>
		</g>
		<g>
			<path class="st3" d="M174,141c-23.8,12.9-48.6,24.1-72.5,36.8c-21.3,11.3-44.5,23.4-60.7,41.6c-1.7,1.9,1.1,4.8,2.8,2.8
				c16.3-18.3,39.9-30.4,61.3-41.7c23.5-12.4,47.8-23.4,71.2-36.1C178.2,143.2,176.2,139.7,174,141L174,141z"/>
		</g>
		<g>
			<path class="st3" d="M444,322c0,0,14,0,21,0c3,0,3-4,0-4c-7,0-14,0-21,0C442,318,442,322,444,322C444,322,442,322,444,322z"/>
		</g>
		<g>
			<path class="st3" d="M451.7,330.3c5-0.5,10-0.4,15,0.2c2.5,0.3,2.5-3.7,0-4c-5-0.6-10-0.7-15-0.2
				C449.2,326.5,449.1,330.5,451.7,330.3L451.7,330.3z"/>
		</g>
	</g>
</g>
</svg>
