<?xml version="1.0" encoding="utf-8"?>
<!-- Generator: Adobe Illustrator 19.2.0, SVG Export Plug-In . SVG Version: 6.00 Build 0)  -->
<svg version="1.1" id="Layer_1" xmlns="http://www.w3.org/2000/svg" xmlns:xlink="http://www.w3.org/1999/xlink" x="0px" y="0px"
	 viewBox="0 0 290 100" style="enable-background:new 0 0 290 100;" xml:space="preserve">
<style type="text/css">
	.st0{fill:#3A291D;}
</style>
<g>
	<g>
		<path class="st0" d="M244.6,56c7-5.9,14.8-11,21.3-17.5c3.2-3.2-1.8-8.1-4.9-4.9c-6.5,6.5-14.3,11.6-21.3,17.5
			C236.2,54,241.1,58.9,244.6,56L244.6,56z"/>
	</g>
	<path class="st0" d="M242,48.8c-3.9-18.4-20.3-32.3-40.1-32.3c-19.4,0-35.5,13.8-39.9,31.8c-4.8-3.9-10.8-6.2-17.5-6.2
		c-6.7,0-12.7,2.5-17.5,6.5c-4.4-18.2-20.5-32.1-39.9-32.1c-19.8,0-36.4,13.8-40.1,32.3l-0.7,6.9c0,0-0.2,1.6-0.2,2.5
		c0,22.6,18.4,40.8,41,40.8s41-18.4,41-41c0-0.9,0-1.8-0.2-2.8c4.2-4.6,9.9-7.4,16.6-7.4s12.5,3,16.6,7.4c0,0.9-0.2,1.8-0.2,2.8
		c0,22.6,18.4,41,41,41s41-18.2,41-40.8c0-0.9,0-2.5-0.2-2.5L242,48.8z M87,93.6c-19.6,0-35.5-15.9-35.5-35.5S67.4,22.5,87,22.5
		s35.5,15.9,35.5,35.5S106.6,93.6,87,93.6z M201.8,93.6c-19.6,0-35.5-15.9-35.5-35.5s15.9-35.5,35.5-35.5s35.5,15.9,35.5,35.5
		S221.4,93.6,201.8,93.6z"/>
	<g>
		<path class="st0" d="M244.6,56c7-5.9,14.8-11,21.3-17.5c3.2-3.2-1.8-8.1-4.9-4.9c-6.5,6.5-14.3,11.6-21.3,17.5
			C236.2,54,241.1,58.9,244.6,56L244.6,56z"/>
	</g>
	<g>
		<path class="st0" d="M48.8,51.1c-7-5.9-14.8-11-21.3-17.5c-3.2-3.2-8.1,1.8-4.9,4.9C29.1,45,36.9,50.2,43.9,56
			C47.3,58.9,52.3,54,48.8,51.1L48.8,51.1z"/>
	</g>
</g>
</svg>
