<?xml version="1.0" encoding="utf-8"?>
<!-- Generator: Adobe Illustrator 19.2.0, SVG Export Plug-In . SVG Version: 6.00 Build 0)  -->
<svg version="1.1" id="Layer_1" xmlns="http://www.w3.org/2000/svg" xmlns:xlink="http://www.w3.org/1999/xlink" x="0px" y="0px"
	 viewBox="0 0 500 500" style="enable-background:new 0 0 500 500;" xml:space="preserve">
<style type="text/css">
	.st0{fill:#36447F;}
	.st1{fill:#1A1D31;}
	.st2{fill:#1A2849;}
	.st3{fill:#273366;}
</style>
<g>
	<path class="st0" d="M236.4,404c-13.9,0-27.4-0.4-40.1-1.1c-18.2-1-37.7-2.5-56.6-7.3c-23.2-5.9-34.4-14.7-34.4-26.8
		c0-11.9,9.4-22.8,17-31.5l1-1.2l-0.9-1.3c-3.7-5.5-2.1-11.1-0.2-17.5c0.6-1.9,1.2-3.9,1.6-6c1.1-5.2,0.6-10.2,0-15.1
		c-0.1-1.2-0.3-2.4-0.4-3.6c-0.5-5.7-0.8-11.3-0.8-16.6c-0.1-34.5,11.4-63.7,32.3-82.3c19.8-17.6,47.7-27.4,83-29.1l1.1-0.1l0.5-0.9
		c0.9-1.6,5.2-2.7,8.9-2.9h0.7c0.6,0,1.4,0,2.3,0c5.2,0,8.2,0.9,8.3,2.6l0.1,1.8l1.8,0.1c7,0.3,13.3,0.8,19.2,1.6
		c19.7,2.6,38,8.8,52.7,17.9c16.6,10.2,28.9,23.8,36.6,40.6c5.5,12,8.9,25.4,9.9,39.8c0.4,5.2,0.4,10.9,0,17.4
		c-0.4,8,1.2,16,2.7,23.8c0.6,3.1,1.2,6.3,1.7,9.4c0.1,0.6,0.2,1.3,0.3,2c0.9,5.2,1.9,11.7-0.1,16.2l-1.7,3.8l3.7-1
		c2.2,2,4.1,3.8,5.8,5.6c5.2,5.4,11.3,12.7,12.5,21c1.2,8.5-4.6,14.5-8.2,17.2c-10.2,7.9-24.2,11.4-36.5,14
		c-24.5,5.2-49.5,7.1-72.8,8.2C269.3,403.5,252.5,404,236.4,404L236.4,404z"/>
	<g>
		<path class="st1" d="M378,338.1c0.1-4.8-1.5-9.2-3.1-13.8l-0.5-1.4c-3.3-9.5-4.7-18.8-4.3-28.4c0.2-3.5,0.4-6.9,0.6-10.3
			c0.8-13.7,1.6-26.6-0.7-40c-2.3-13.5-7.2-25.1-14.8-34.5c-7.6-9.5-18.1-17.5-32.2-24.2c-19.3-9.3-40-14.5-57.7-18.4l0.3-2
			c60.2,3.7,87.8,30.2,100.4,51.8c6.9,11.9,11.4,25.4,13.4,40.3c0.8,6.4,0.8,12.8,0.9,19.1c0,6.8,0,13.9,1.1,20.8
			c0.5,2.9,1.1,5.8,1.7,8.7c1.6,7.8,3.3,15.9,2.6,23.8c-0.4,5-2.8,7.4-6.2,9.4l-1.6,1L378,338.1z"/>
		<path class="st1" d="M130.2,340.5c-2.1-1.1-4.2-2.3-6.1-3.5c-0.1,0-0.1-0.1-0.2-0.1l-1-0.2l0.2-1c0,0,0-0.1-0.1-0.2
			c-4.7-6.3-2.7-12.9-0.7-19.2c0.7-2.3,1.4-4.7,1.8-6.9c1-5.7,0.2-11.9-0.5-17.8c-0.4-3.3-0.8-6.7-0.9-9.9
			c-0.6-18.2,1.5-34.7,6.5-49c9.2-26.8,29.7-47.4,57.7-58.2c14.6-5.6,30.9-8.8,49.7-9.8l0.3,2l-3.6,1c-21.3,5.9-43.3,12-63.2,23.1
			c-15.8,8.9-26.2,18.7-31.9,30.2c-8.5,17.1-10.9,36.6-7.6,61.5c0.4,2.7,0.8,5.4,1.2,8.1c1.2,7.4,2.4,15,2.3,22.6
			c0,3.3-0.9,6.9-1.8,10.4c-1.4,5.5-2.8,11.2-0.8,16l1,2.5L130.2,340.5z"/>
		<path class="st1" d="M248.9,167.7c-1.6,0-3-0.1-4.4-0.4l-0.5-0.1c-1.2-0.2-2.4-0.4-3-1.4c-0.4-0.5-0.5-1.2-0.3-2
			c0.7-2.9,4.6-3.1,7-3.2c0.2,0,0.5,0,0.7,0s0.5,0,0.8,0c0.8,0,1.8-0.1,2.9-0.1c4.8,0,7.2,0.8,7.7,2.6c0.2,0.7,0.1,1.4-0.3,1.9
			c-1,1.5-3.5,2-5.3,2.3C252.3,167.5,250.5,167.7,248.9,167.7z"/>
	</g>
	<g>
		<path class="st2" d="M238.2,403.7c-7.6,0-15.4-0.1-23.1-0.3c-18.8-0.4-40.9-1.4-62.6-5.3c-11.7-2.1-24-4.9-34.3-10.9l0.8-1.8
			c3.9,1.2,8.1,2,11.7,2.7c10.8,2.1,21.8,3.5,30.2,4.4c21.1,2.3,43.7,3.8,68.9,4.6c8.3,0.3,16.9,0.4,25.4,0.4
			c25,0,50.8-1.1,76.6-3.3c10-0.8,23.2-2.1,36.4-4.6c3.6-0.7,7.4-1.4,11.2-2.4l0.6,1.9c-4.1,1.4-8.2,2.5-11.7,3.4
			c-21.4,5.5-43.5,7.5-64.3,9C282.3,402.9,260.2,403.7,238.2,403.7z"/>
		<path class="st3" d="M252.4,396.2c-27.5,0-54.6-1.2-80.4-3.6c-10-0.9-23.1-2.2-36.1-4.5l-1-0.2c-8.1-1.4-16.5-2.9-23.8-6.7
			c-0.1,0-0.2-0.1-0.2-0.1h-0.4l-0.3-0.3c-2.4-2.7-3.9-5.6-4.5-8.6c-2.5-12.2,7.7-24.4,13.7-31.7c0.8-1,1.7-2,2.6-3l1-1.1l0.7,1.3
			c0,0.1,0.1,0.1,0.2,0.2c12.1,7.9,27.1,11.7,40.2,14.3c16.6,3.3,34.7,5.3,57,6.2c9.5,0.4,19,0.6,28.2,0.6c31.8,0,62.1-2.4,90.2-7.2
			c13.1-2.3,25.9-4.7,37.1-10c3.2-1.5,6.5-3.3,8.3-6l1-1.4l0.8,1.5c0,0.1,0.1,0.1,0.1,0.2c12.3,11.1,18.4,20.5,18.7,28.8
			c0.1,4.7-1.7,9-5.3,12.7c-1.4,1.4-2.9,2.7-4.7,3.9l-1.1,0.8L394,381c-0.1-0.2-0.3-0.4-0.5-0.4c-0.1,0-0.2,0-0.2,0.1
			c-7,4-15.2,5.8-22.9,7.4c-11.7,2.4-23.4,3.6-32.3,4.5c-17.9,1.7-37.2,2.7-62.4,3.3C267.6,396.1,259.9,396.2,252.4,396.2z"/>
		<path class="st3" d="M135,318c0,0,25.4,6,30.9,4.2s4.2-9.8,1.2-10.5s-32.1,0-32.1,0V318z"/>
		<path class="st3" d="M368.6,305.5c0,0-13.2,5.9-27.2,6.2c-6.9,0.2-3,8.5,0,9.5s30-4.1,30.3-5.3C372,314.8,368.6,305.5,368.6,305.5
			z"/>
		<path class="st3" d="M250.7,169.2l-0.5,22.7l0.3,17.8c0,0,3.6,0.6,0.9,4.3c-2.7,3.7-11.1,3.2-9.7,0c5.3-12,2.8-46.7,2.8-46.7
			L250.7,169.2z"/>
	</g>
	<g>
		<g>
			<path class="st1" d="M121,335.7c-7.8,9-17.7,20.4-17.7,33.1c0,17.9,21.8,25.2,35.9,28.8c18.6,4.7,37.9,6.3,57,7.3
				c30.5,1.6,61.1,1.2,91.6-0.3c24.5-1.2,49.2-3.1,73.2-8.2c12.8-2.7,26.8-6.2,37.3-14.4c6-4.7,10-11.3,8.9-19.1
				c-1.2-8.6-7.2-16-13-22.1c-2-2-4-4-6.1-5.9c-1.4-1.3-3.6,0.8-2.1,2.1c10.4,9.4,26.7,26.5,13.3,40.1c-8.1,8.2-20.6,11.8-31.4,14.6
				c-20.9,5.3-42.6,7.5-64.1,9c-29.5,2-59.1,2.7-88.6,2c-20.9-0.5-41.9-1.6-62.5-5.3c-11.6-2.1-23.9-4.8-34.2-10.9
				c-5.4-3.2-10.5-7.8-11.8-14.2c-2.3-11.4,6.8-22.8,13.5-30.9c1-1.2,2-2.3,3-3.5C124.3,336.3,122.2,334.2,121,335.7L121,335.7z"/>
		</g>
		<g>
			<path class="st1" d="M392.6,380c-6.9,3.9-15,5.8-22.6,7.3c-10.6,2.1-21.4,3.4-32.2,4.5c-20.7,2-41.6,2.8-62.4,3.3
				c-34.5,0.8-68.9-0.1-103.3-3.3c-12.1-1.1-24.1-2.4-36-4.5c-8.2-1.4-17-2.9-24.5-6.7c-1.7-0.9-3.2,1.7-1.5,2.6
				c6.3,3.3,13.5,4.8,20.4,6.2c10,2,20.1,3.3,30.2,4.4c22.9,2.5,46,3.9,69,4.6c33.9,1,68.3-0.1,102.1-2.9c12.2-1,24.4-2.4,36.5-4.6
				c8.8-1.7,18-3.6,25.9-8.1C395.8,381.6,394.3,379.1,392.6,380L392.6,380z"/>
		</g>
		<g>
			<path class="st1" d="M123.9,335.1c-6.1-8.1-0.1-16.8,1.3-25.4c1.5-9-1.1-18.8-1.4-28c-0.6-16.4,1.1-33.1,6.4-48.7
				c9.4-27.2,30.5-47.3,57.1-57.6c16.1-6.2,33.3-9,50.6-9.8c1.9-0.1,1.9-3.1,0-3c-30.1,1.4-61.2,9.1-84.2,29.6
				c-23.8,21.2-33.1,52.7-33,83.8c0,5.6,0.3,11.2,0.8,16.8c0.6,6.1,1.7,12,0.4,18.1c-2,9-6.9,17.3-0.6,25.7
				C122.4,338.1,125,336.6,123.9,335.1L123.9,335.1z"/>
		</g>
		<g>
			<path class="st1" d="M132,341c-0.1-0.2-0.1-0.4,0-0.6c-2.5-1.2-5-2.6-7.3-4.1c-1.6-1.1-3.1,1.5-1.5,2.6c3.4,2.2,7,4.1,10.7,5.7
				C133.2,343.5,132.6,342.3,132,341z"/>
			<path class="st1" d="M386.6,315.2c-1.7-10.8-5-21.8-4.4-32.8c0.3-5.9,0.4-11.7,0-17.6c-1-13.9-4.2-27.7-10.1-40.5
				c-16.7-36.2-52.8-54.5-90.9-59.6c-6.9-0.9-13.9-1.4-20.8-1.7c-1.9-0.1-1.9,2.9,0,3c40.6,1.5,83.3,14.5,104.8,51.5
				c7.1,12.2,11.4,26,13.3,39.9c1.8,13.3-0.2,26.6,2,39.9c1.7,10.4,5.2,21.6,4.3,32.2c-0.4,4.5-2.4,6.8-6.2,9
				c-0.1,0-0.1,0.1-0.2,0.1c-0.1,1.1,0.1,2.2,0.3,3.3c2.6-1.3,5.3-3,7-5.4C389.6,330.8,387.6,321.6,386.6,315.2z"/>
		</g>
		<g>
			<g>
				<path class="st1" d="M249.2,169.2c-0.2,8.6-0.4,17.2-0.6,25.8c-0.1,6.1-1.9,14.3,1.5,19.7c1,1.6,3.6,0.1,2.6-1.5
					c-2-3.3-1.3-7.6-1.2-11.3c0.1-3.6,0.2-7.3,0.3-10.9c0.2-7.3,0.3-14.6,0.5-21.8C252.3,167.2,249.3,167.2,249.2,169.2L249.2,169.2
					z"/>
			</g>
			<g>
				<path class="st1" d="M258.3,167.8c19.5,4.1,39.2,8.9,57.6,16.8c13,5.6,25.7,12.9,35.2,23.5c19.8,21.9,19.9,53,17.3,80.7
					c-1,10.6-0.5,21,2.7,31.1c2.1,6.5,5.3,14.8,4.7,21.9c-0.2,1.9,2.8,1.9,3,0c0.6-6.1-1.6-13.5-3.6-19.2c-3.2-9.1-4.7-18.3-4.2-28
					c0.8-17,2.8-33.6-0.1-50.6c-2.2-12.7-6.9-24.8-15-35c-8.6-10.8-20.3-18.6-32.6-24.5c-20.3-9.7-42.4-15.2-64.3-19.8
					C257.3,164.5,256.5,167.4,258.3,167.8L258.3,167.8z"/>
			</g>
			<g>
				<path class="st1" d="M135.7,343.7c-3.7-5.2-2.3-14.4-0.8-20c0.9-3.6,1.4-7.1,1.4-10.8c0.1-7.7-1.2-15.3-2.4-22.9
					c-3.3-21.9-4.7-43.8,4.5-64.6c12.4-28,45-40.8,72.3-49.5c9.7-3.1,19.6-5.4,29.4-8.1c1.9-0.5,1.1-3.4-0.8-2.9
					c-23.9,6.7-47.7,12.7-69.5,24.9c-13,7.4-25.5,16.9-32.3,30.6c-9.8,19.6-10.6,40.7-7.7,62c1.4,10.1,3.6,20.3,3.5,30.5
					c-0.1,9.4-6.2,23.8-0.2,32.3C134.2,346.8,136.8,345.3,135.7,343.7L135.7,343.7z"/>
			</g>
			<g>
				<path class="st1" d="M144.2,320.7c5.7,1.3,11.5,2,17.4,2c1.9,0,1.9-3,0-3c-5.6-0.1-11.1-0.7-16.6-1.9
					C143.1,317.4,142.3,320.3,144.2,320.7L144.2,320.7z"/>
			</g>
			<g>
				<path class="st1" d="M141.9,314c5.2,1,10.4,1.3,15.7,0.9c1.9-0.1,1.9-3.1,0-3c-5,0.4-9.9,0.1-14.9-0.8
					C140.8,310.8,140,313.7,141.9,314L141.9,314z"/>
			</g>
			<g>
				<path class="st1" d="M363.7,314.5c-5.4,1.4-10.8,2.8-16.2,4.1c-1.9,0.4-1.1,3.3,0.8,2.9c5.4-1.3,10.8-2.6,16.2-4.1
					C366.3,316.9,365.5,314,363.7,314.5L363.7,314.5z"/>
			</g>
			<g>
				<path class="st1" d="M361.6,307.9c-4,1.1-8.1,1.9-12.3,2.3c-1.9,0.2-1.9,3.2,0,3c4.4-0.4,8.8-1.2,13.1-2.4
					C364.3,310.3,363.5,307.4,361.6,307.9L361.6,307.9z"/>
			</g>
			<path class="st1" d="M376.8,339.5c-9.5,5.1-20.9,7.2-31.3,9.2c-36.5,7.1-74.4,8.9-111.6,8.2c-19.3-0.4-38.7-1.6-57.9-4.5
				c-14.4-2.2-30.2-5.7-43.5-11.8c0.8,1.6,1.6,3.1,2.6,4.5c8.8,3.6,19.3,6.3,28.5,8.2c18.8,3.7,38,5.4,57.1,6.3
				c39.4,1.7,79.6,0,118.6-6.6c12.6-2.2,25.7-4.6,37.4-10.1c0.1-0.1,0.3-0.1,0.4-0.2C377.1,341.6,376.9,340.6,376.8,339.5z"/>
		</g>
		<g>
			<path class="st1" d="M248.4,161.7c1.7,0,9.7-0.7,10.4,1.7c0.6,2.2-3.7,2.8-4.8,3c-3,0.4-6.2,0.6-9.2,0c-1.7-0.3-3.5-0.4-3-2.3
				C242.2,161.7,246.3,161.8,248.4,161.7c1.9-0.1,1.9-3.1,0-3c-3.4,0.2-13.1,1.5-10.5,7.2c2.1,4.8,11.9,3.9,15.8,3.5
				c3.5-0.4,7.8-1.6,8.1-5.8c0.4-5.7-9.9-5-13.3-4.9C246.5,158.8,246.5,161.8,248.4,161.7z"/>
		</g>
	</g>
</g>
</svg>
