<?xml version="1.0" encoding="utf-8"?>
<!-- Generator: Adobe Illustrator 19.2.0, SVG Export Plug-In . SVG Version: 6.00 Build 0)  -->
<svg version="1.1" id="Layer_1" xmlns="http://www.w3.org/2000/svg" xmlns:xlink="http://www.w3.org/1999/xlink" x="0px" y="0px"
	 viewBox="0 0 500 500" style="enable-background:new 0 0 500 500;" xml:space="preserve">
<style type="text/css">
	.st0{fill:#36447f;}
	.st1{fill:#273366;}
	.st2{fill:#1a2849;}
	.st3{fill:#1a1d31;}
</style>
<g>
	<g>
		<path class="st0" d="M258.2,386c-2.6,0-5.3,0.1-7.9,0.1c-27.1-0.7-56.1-4.6-88.5-12.2c-30.2-7.1-55.7-15.3-78-25.4
			c-8-3.6-17.3-8.1-25.7-14.2c-4.9-3.6-9.7-7.6-11.6-12.6c-4.7-12.7,18.1-21.2,27.8-24.8l1.2-0.4c19.7-7.4,41.4-12.8,64.5-16.2
			l1.6-0.2l0.4-5.3c1.2-17.4,2.8-37.6,5.5-57.5l0.4-2.8c1.7-12.3,3.4-25.1,8.6-35.9c4.3-8.9,13.5-10.8,20.4-10.8
			c4.7,0,10,0.9,14.7,2.6c8.1,2.8,15.9,7.1,23.4,11.2c1.8,1,3.7,2,5.5,3l1.9,1l1-1c6.8-6.2,16.9-8.7,24.3-9.6
			c2.6-0.3,5.2-0.5,7.7-0.5c9.8,0,18.9,2.6,26.1,7.5l0.8,0.6l1-0.4c5.9-2.2,11.4-3.9,16.6-5.3c11-2.9,21.5-4.4,31.2-4.4
			c1.7,0,3.4,0,5.1,0.1c6.3,0.3,10.7,0.9,14.6,5.2c8.5,9.3,11.3,24.5,13.6,36.7v0.3c3.9,20.9,6.1,43.6,6.7,69.4v1.7l1.7,0.2
			c2.5,0.3,5.5,0.7,8.6,1.1c23.1,3.2,43.8,6.5,62.8,14.5c4.6,2,13.3,5.7,15.4,11.9c1.9,5.8-1.6,11.9-3.1,14.2
			c-10,14.7-30.1,22.9-44.7,28.9C389,366,363.2,373,333,378.6C305.6,383.7,281.1,386,258.2,386L258.2,386z"/>
	</g>
	<path class="st1" d="M249,194.7c-3.3,0-7.2-1.5-10.3-2.7c-0.4-0.2-0.9-0.3-1.3-0.5c-3.5-1.4-7.2-3-11.9-5.5l-1.4-0.7l1.2-1
		c6.9-5.6,16.5-7.7,23.4-8.5c2.2-0.3,4.5-0.4,6.6-0.4c8.6,0,16.4,1.9,23.1,5.7l1.8,1l-2,0.8c-3.3,1.3-6.7,2.7-10.1,4.1
		c-1.8,0.8-3.5,1.5-5.3,2.3c-1.9,0.9-3.9,1.7-5.8,2.6c-0.5,0.2-1,0.4-1.5,0.7c-1.9,0.9-4.1,1.9-6.1,2
		C249.3,194.7,249.2,194.7,249,194.7z M222.1,201.2c1.9-2.8,5.2-1.4,6.9,1.8s1.6,5.7-1,8.3s-23.8,16.2-27.3,17.6s-20.2,6.2-24.2,6.2
		s-11.5-0.3-14.8-2.8s-5.3-3.3-4.9-6.7s-0.3-8.6,2.5-11.2c2.8-2.6,7.9-9.8,10.3-11.2c2.4-1.3,3.7-5.6,7.7-0.3s-1,12.5,7.2,12.5
		S215,211.8,222.1,201.2z M265.3,201.2c5-9.7,30.9,12.5,56,9.6c12.8-1.5,15.6-11.2,21.5-9.7c2.4,0.7,2.7,4.7,2.7,4.7l1.9,11.5
		l-4.1,7.7l-10.2,6.7l-19.3-0.3l-20.1-4l-17-7.5l-8.1-6.6l-3.8-7L265.3,201.2z M247.3,196.5c0,0-11.6,0.8-19.6-1.8
		c-8-2.5-41.2-7.7-57.9-0.1c-7.1,3.3-23.3,22.7-20,34s24.5,19,47.3,11c6.8-2.4-12.7,42.8-8.7,53.1s-46.6-0.8-46.6-0.8l1.5-36.1
		l5.9-50.6l7.2-26.7l12.5-9.8l11.8-1.2l17.5,4.1L223,185l18.7,8.9L247.3,196.5z M187.3,289l-7.5,36.6c-47.2,7.6-121,2.7-129.3,0.3
		c-5.8-1.7-4.5-9.3-4.5-9.3l8.3-11l25.9-10.9l41.3-11.1l20.8-2.1L187.3,289z M373,318.1c11.1-16,35.2-23.6,46.7-23.2
		c8.4,0.2-18-5.7-18-5.7l-30.2-3.2C371.5,285.9,372.4,318.9,373,318.1z M358.4,322.5c0,0,6.1-48.6-9.7-93.8
		c-0.2-0.5,12.2-12.5,8-23.2c-4.3-11.2-5.7-19.6-11.5-22c-7.6-3.1-42.5-1.8-75.5,12.5c-3.4,1.5-3.2-6.2-3.2-6.2l21.5-9.3l27.2-6.8
		l22.6-1l9.5,2.1l7.7,8.9l5.9,12.1l3.5,19l4.6,32.8l2.3,23.9l0.7,32l-0.9,14.6L358.4,322.5z"/>
	<g>
		<path class="st2" d="M187.3,289l-7.5,36.6c-69.7-8.8-99.6-30.9-99.6-30.9l41.3-11.1l20.8-2.1L187.3,289z"/>
		<path class="st2" d="M177.5,313.8c57.8,18,144.5,7.7,156.2,6.5c2.4-0.2,6.6,4.5,6.6,4.5l-73.9,6.5l-58.9-1.8l-30.2-6.2
			C177.3,323.2,175.9,313.2,177.5,313.8z"/>
	</g>
	<path class="st1" d="M259.6,329.4c-28.7,0-53.9-1.8-77.3-5.4c-14.1-2.2-29-4.9-41.8-11.6l-0.7-0.4l0.2-0.7
		c1.3-6.2,1.6-12.9,1.9-19.3c0.1-2.5,0.2-5.1,0.4-7.6l0.2-2.4l1.3,0.5h0.1c8,2.4,16.6,3.5,24.9,4.7l1.4,0.2
		c13.5,1.8,28,3.2,44.3,4.4c20.7,1.4,39.2,2.1,56.6,2.1s33.4-0.7,49-2.1c5.2-0.5,9.8-1,14.2-1.5l1-0.1l0.1,1c0,0.1,0.1,0.3,0.2,0.4
		c2.9,4.5,3.3,11,3.7,16.8c0.1,1.3,0.2,2.6,0.3,3.7c0.3,3.1,0.5,6.2,0.8,9.6c0,0.4,0,0.7,0,1.1s0,0.7,0,1.1l0.1,0.9L338,325
		c-14.2,1.9-29.5,3.1-48.1,3.8C279.1,329.2,269.2,329.4,259.6,329.4z"/>
	<g>
		<path class="st3" d="M334.7,292c3.4,5.3,3.3,14,3.8,20.1c0.3,3.2,0.6,6.4,0.8,9.6c0.1,1.3-0.1,2.9,0.5,4.1c1.1,2.3,4.5,0.3,3.5-2
			c0.7,1.7,0.2,0.2,0.2-0.7c0-1.2-0.2-2.4-0.2-3.6c-0.3-3.7-0.6-7.4-1-11.1c-0.6-5.8-0.8-13.4-4-18.4
			C336.7,287.8,333.3,289.8,334.7,292L334.7,292z"/>
	</g>
	<path class="st1" d="M342.4,323.4c0-0.1,0-0.2,0-0.3c0-0.8-0.1-1.7-0.2-2.5c0-0.4-0.1-0.7-0.1-1.1c-0.3-4.1-0.6-7.7-1-11
		c-0.1-1-0.2-2-0.3-3c-0.4-4.9-0.9-10.4-3.2-14.3l-0.7-1.3l1.4-0.2c11.5-1.6,21.4-3.8,30.3-6.7l1.3-0.4v1.3
		c0.4,11.4,0.5,22.5,0.2,33.2v0.7l-0.8,0.3c-8.4,3.6-17.8,5.1-25.9,6.3l-1,0.1L342.4,323.4z"/>
	<g>
		<path class="st2" d="M187.2,289.4c-5.9-0.6-11.6-1.3-17.1-2l-1.4-0.2c-8.3-1.1-16.9-2.3-24.9-4.7h-0.1l-1.3-0.5l-0.2,2.4
			c-0.2,2.5-0.3,5.1-0.4,7.6c-0.3,6.4-0.6,13.1-1.9,19.3l-0.2,0.7l0.7,0.4c12.1,6.4,26.2,9.1,39.6,11.3L187.2,289.4z"/>
		<path class="st2" d="M369.9,282.5l-1.3,0.4c-3,1-6.2,1.9-9.5,2.7c1,18.5-0.3,32.4-0.7,36c3.7-0.9,7.4-2,10.9-3.6l0.8-0.3V317
			c0.2-10.7,0.1-21.8-0.2-33.2L369.9,282.5z"/>
		<path class="st2" d="M343.8,324.3c0,0,1.3-2.8,4-4.6c2.7-1.8,17.2-5.3,17.2-5.3v5.5L343.8,324.3z"/>
		<path class="st2" d="M177.5,313.8c57.8,18,144.5,7.7,156.2,6.5c2.4-0.2,6.6,4.5,6.6,4.5l-73.9,6.5l-58.9-1.8l-30.2-6.2
			C177.3,323.2,175.9,313.2,177.5,313.8z"/>
	</g>
	<g>
		<g>
			<path class="st3" d="M141.5,278c-22.6,3.1-45.4,8.5-66.7,16.6c-9.9,3.7-35.8,12.7-30.2,27.8c2.1,5.7,7.5,10,12.3,13.5
				c8,5.8,17,10.4,26,14.4c25.1,11.3,51.7,19.3,78.4,25.5c29.1,6.8,59,11.6,88.9,12.3c27.9,0.7,55.9-2.4,83.3-7.4
				c26.9-4.9,53.8-11.8,79.1-22.1c15.9-6.5,35.5-14.8,45.6-29.6c3.1-4.5,5.2-10.5,3.4-16c-2.3-6.8-10.4-10.6-16.5-13.2
				c-19.8-8.4-42.1-11.8-63.3-14.7c-3.4-0.5-6.9-0.9-10.4-1.3c-2.6-0.3-2.5,3.7,0,4c18.7,2.2,37.4,5.2,55.6,10.1
				c10.6,2.9,36.5,8.7,30,24.7c-2.5,6.3-8.3,11.3-13.7,15.2c-7.5,5.5-15.9,9.8-24.4,13.6c-22.7,10.2-46.9,17-71.2,22.3
				c-26.3,5.7-53.1,9.4-80.1,10.3c-27.4,0.9-54.8-2.1-81.7-7.1s-53.6-12-79.3-21.3c-17.8-6.5-38.1-13.9-52.4-26.8
				c-3.2-2.9-7.6-7.3-6.4-12.1c1.8-7,11.8-11.3,17.6-14c20.1-9.5,42.6-14.7,64.4-18.8c4.2-0.8,8.4-1.5,12.6-2.1
				C145.1,281.5,144,277.7,141.5,278L141.5,278z"/>
		</g>
		<g>
			<path class="st3" d="M366.4,214.4c-2.3-12.6-5.2-28.2-14.2-38c-4.4-4.9-9.6-5.5-15.9-5.8c-12.4-0.7-24.9,1.1-36.9,4.3
				c-10.8,2.9-21.3,6.9-31.6,11.3c-3.7,1.6-7.4,3.3-11.1,4.9c-2.1,0.9-4.8,2.5-7.2,2.6c-3.7,0.2-8.4-1.9-11.7-3.2
				c-5.6-2.1-11-4.9-16.3-7.8c-9.5-5.1-19-10.7-29.2-14.3c-12.6-4.4-30.8-4.7-37.6,9.2c-5.8,11.9-7.4,26.3-9.2,39.3
				c-2.6,19.1-4.1,38.4-5.5,57.7c-0.1,1.8-0.3,3.7-0.4,5.5c1.1,0.6,2.7,0.9,3.9,1.3c1-15.3,2.2-30.6,3.7-45.9
				c1.6-15.2,3.3-30.7,7.3-45.6c1.2-4.5,2.5-9.5,5.3-13.3c4.7-6.5,14.8-7.8,22-6.7c20.3,3,37,18,56,24.9c5.9,2.1,11,3.7,16.9,1.4
				c7.6-3,15-6.6,22.6-9.7c10.4-4.2,21.2-7.7,32.2-9.9c6.7-1.3,13.4-2.1,20.2-2.2c4.6-0.1,10.6-0.5,15,1.3s7.2,6.5,9.2,10.6
				c3.1,6.3,5,13.2,6.6,20c4.6,19.7,6.4,40.1,7.5,60.3c0.3,4.9,0.5,9.8,0.7,14.8c1.4-0.4,2.8-0.9,4.2-1.4
				C372.4,257.9,370.4,235.9,366.4,214.4z"/>
		</g>
		<g>
			<g>
				<path class="st3" d="M137.9,314.3c11.4,6.3,24.6,9.2,37.4,11.5c16.9,3,34,4.6,51.1,5.5c35.8,1.9,72.1,1.5,107.7-2.8
					c12.3-1.5,25.5-3,36.9-8c2.4-1,0.3-4.5-2-3.5c-9.7,4.2-20.8,5.6-31.2,6.9c-15.9,2.1-32,3.2-48,3.8c-35.7,1.3-72,0.7-107.3-4.8
					c-14.4-2.3-29.7-5-42.6-12.1C137.7,309.7,135.6,313.1,137.9,314.3L137.9,314.3z"/>
			</g>
			<g>
				<path class="st3" d="M143.5,283.4c8.6,2.6,17.6,3.7,26.5,4.9c14.7,2,29.5,3.4,44.4,4.4c35.1,2.4,70.6,3.2,105.7,0
					c16.6-1.5,33.4-3.8,49.3-9c2.4-0.8,1.4-4.7-1.1-3.9c-30.3,9.9-63.7,10.8-95.3,10.9c-32.2,0.1-64.6-1.7-96.6-5.6
					c-10.6-1.3-21.6-2.5-31.9-5.6C142.1,278.8,141,282.7,143.5,283.4L143.5,283.4z"/>
			</g>
			<path class="st3" d="M368.8,281.4c0.4,11.9,0.6,24.8,0.4,36.7c-0.1,2.6,3.9,2.6,4,0c0.3-12.3,0.3-25.7-0.1-38.1
				c0-0.7-1.2-1.5-2.5-0.9C369.6,279.5,368.9,280.4,368.8,281.4z"/>
			<path class="st3" d="M139.5,281c-0.4,5.7-0.8,11.4-1.2,17.1c-0.3,4.1-0.4,8.5-1.3,12.6c-0.6,2.5,3.3,3.6,3.9,1.1
				c2-8.8,1.8-18.5,2.4-27.5c0-0.7,0.1-1.4,0.1-2c0-0.9-0.2-2.9-2.2-3.1C139.9,279,139.7,280.2,139.5,281z"/>
		</g>
		<g>
			<path class="st3" d="M223.6,187.3c6.2-6.7,16.5-9.5,25.2-10.5c11.3-1.3,22.8,0.6,32.3,7.2c2.1,1.5,4.1-2,2-3.5
				c-10.4-7.2-23.3-9.2-35.6-7.6c-9.4,1.2-20.1,4.4-26.8,11.5C219,186.4,221.8,189.2,223.6,187.3L223.6,187.3z"/>
		</g>
		<g>
			<path class="st3" d="M224.2,202.9c5.9-1.3,5,4.9,2.6,7.5c-1.1,1.2-2.4,2.4-3.6,3.5c-3.6,3-7.5,5.6-11.6,8
				c-9,5.1-18.8,9.3-29.1,11c-4.7,0.8-9.8,1.2-14.5,0.1c-3.7-0.8-9.3-2.8-9.8-7.1c-0.5-4.5,2.6-9.6,4.9-13.2c2.1-3.3,5.2-8,9.1-9.4
				c1.8-0.7,1-3.6-0.8-2.9c-7.5,2.8-13.4,13.1-15.5,20.4c-2.5,8.6,3.2,13.4,11.2,15.2c10.1,2.2,21.2-0.7,30.6-4.3
				c9.7-3.7,19.1-8.7,27.1-15.3c2.5-2.1,6.7-5.5,7.3-9c0.7-4.7-4.7-8.2-8.8-7.3C221.5,200.4,222.3,203.3,224.2,202.9L224.2,202.9z"
				/>
		</g>
		<g>
			<path class="st3" d="M263.9,200.8c-4.6,15.8,19.5,25.1,30.7,28.4c9.4,2.8,19.4,4.4,29.2,3.9c7.3-0.4,15.9-1.8,21.2-7.5
				c6.5-7,3.9-17,0.1-24.6c-0.8-1.7-3.4-0.2-2.6,1.5c3.1,6.3,5.7,14.8,0.5,20.8c-4.5,5.1-12.4,6.4-18.9,6.8
				c-16.1,0.9-34.4-3.4-47.8-12.4c-5.2-3.5-11.5-9.2-9.4-16.2C267.3,199.7,264.4,198.9,263.9,200.8L263.9,200.8z"/>
		</g>
	</g>
</g>
</svg>
