<?xml version="1.0" encoding="utf-8"?>
<!-- Generator: Adobe Illustrator 19.2.0, SVG Export Plug-In . SVG Version: 6.00 Build 0)  -->
<svg version="1.1" id="Layer_1" xmlns="http://www.w3.org/2000/svg" xmlns:xlink="http://www.w3.org/1999/xlink" x="0px" y="0px"
	 viewBox="0 0 358 342.5" style="enable-background:new 0 0 358 342.5;" xml:space="preserve">
<style type="text/css">
	.st0{fill:#F9BE72;}
	.st1{fill:#D88A3D;}
	.st2{fill:#9B581C;}
</style>
<g>
	<path class="st0" d="M289.5,285.9c-0.6-0.9-1-2.6-1.2-4c-0.1-0.7-0.3-1.3-0.4-1.9c-1.3-5-2.6-10.2-3.9-15.1l-1.4-5.4l-0.3-0.3
		c0,0-0.1-0.1,0-0.2l0.1-0.4l-4.5-17.8l-0.2-0.3l0-0.3l-0.1-0.4c-2.7-10.9-5.7-22.6-8.4-34.4c-0.4-1.8-0.3-3.4-0.2-5.7l0.1-1.2
		c0.4-5.6,0.9-11.4,0.8-17.1c-0.1-6.2-0.2-14.6-4.7-20.1c-2.6-3.2-5.8-6.2-9.9-9.4l-0.5-0.4l-0.6,0c0,0-0.1-0.1-0.1-0.1l-0.2-0.5
		l-0.4-0.3c-4.6-3.4-9.5-6.3-13.7-8.9l-0.2-5.6l-3.3,4.5c-2.4,3.2-3.6,3.5-3.9,3.5c-0.9,0-2.2-2.3-3.8-6.6l-1.7-4.3l-2.1,3.3
		c-3.8,6.1-7.8,10.1-12.2,12.1c-0.1,0-0.1-0.1-0.2-0.2c-0.8-1.1-1.3-2.9-1.7-4.6c-0.2-0.7-0.4-1.3-0.5-1.9l-1.2-3.8l-2.3,3.2
		c-3,4.2-6.3,8-9.7,11.2c0,0,0,0,0,0c0,0,0,0,0-0.1c-0.1-1.2-0.3-2.4-0.7-3.5l-1.3-4.2l-3.2,5.2l0,0.5c0,0.1-0.1,0.1-0.1,0.2
		c-1.1-0.7-2.1-1.4-3.1-2.3l-2-1.9l-1.1,2.6c-0.4,0.9-0.8,1.8-1.2,2.6c-1.6,3.6-3.5,7.2-6.3,9c-0.3-1.4-0.6-2.8-0.9-4.2l-0.4-2
		l-3.9-0.1c-0.2,0.6-0.3,1.3-0.5,1.9c0,0-0.1-0.1-0.1-0.1c-0.8-2.1-1.6-4.5-2.3-6.9l-2.1-7.2l-1.8,7.3c-0.6,2.4-1.2,4.3-1.8,6.2
		c0,0.1-0.1,0.1-0.1,0.2c-2.8-1.8-5.4-5-7.6-9.6l-2.7-5.7l-1,6.3c-0.2,1.2-0.4,2.5-0.7,3.7l-0.4,1.9l0,0.1l-0.1,0l-0.1,0
		c-3.8-2.1-7.4-4.8-10.8-8.2l-1.3-1.3l-1.4,1.3c-1.8,1.4-3.7,2.3-5.8,3l-0.4-0.2l-0.4,0c-0.4-0.3-0.8-0.6-1.2-1l-0.5-0.4l-0.6,0
		c-0.8,0-1.6-0.1-2.4-0.1c-4.1,0-8.3,0.6-12.6,1.8l-0.2,0.1l-0.2,0.1l-0.3,0l-0.2,0.1c-2.5,0.8-5.1,1.7-7.7,2.9l-0.1,0.1l-0.1,0.1
		l-0.1,0l-0.2,0.1c-5.1,2.3-10.2,5.4-15.2,9.1c-4.1,3-8,6.1-10.4,10.2c-3.8,6.4-2.8,14.4-1.9,21.5c0.1,1.2,0.3,2.3,0.4,3.4
		c1.2,11.7-0.3,23.5-2,33.5c-1.2,7.5-2.8,15-4.6,22.5l-0.1,0.3l0,0.4c0,0.1,0,0.3-0.1,0.3l-0.2,0.3l-0.1,0.4
		c-1,4.1-2.1,8.1-3.2,11.9l-0.6,2.1c-2,6.8-4,13.8-7.5,19.5c0,0,0,0,0,0c0,0-0.1,0-0.1,0l0-0.3l-0.2-0.4
		c-5.1-31.6-7.2-62.1-6.4-90.5c0.3-11.3,0.8-22.4,2.4-33.3l0.1-0.5l-0.2-0.5c0,0,0-0.2,0.1-0.2l0.3-0.4l0.1-0.5
		c1.7-10,4.2-18.2,7.8-25.2c6.4-12.4,19.2-22,29.5-29.8l1.4-1L94,103l0.2-0.1l0.2-0.2c16.7-12.3,33.8-21.6,50.8-27.6
		c11.1-3.9,22.2-5.9,33.1-5.9c7.3,0,14.7,0.9,22,2.6c14,3.2,28.3,8.8,42.6,16.6c5.1,2.8,10.1,5.8,14.9,9c12.7,8.4,28.6,20.1,38.4,36
		c0,0,0.1,0.1,0.1,0.2l0.1,0.2l0.1,0.1l0,0.2l0.1,0.3c5.2,9.1,5.9,20.6,6,31.7l0,0.4l0.1,0.3l-0.1,0.2v0.4c0,1.6,0,3.2,0,4.7
		c-0.2,27.7-3.6,55.1-7.6,85.4l0,0.2l0,0.2l0,0.1l-0.5,3.8c-1,7.8-2.1,15.8-3.1,23.8c0,0.2-0.2,0.2-0.3,0.2l-0.7-0.2l-0.7,0.3
		C289.6,285.9,289.6,285.9,289.5,285.9C289.5,285.9,289.5,285.9,289.5,285.9z"/>
	<path class="st1" d="M285.8,263.9c-0.3-1.1-0.5-2.2-0.8-3.3c2.6-0.6,5.1-0.9,7.8-0.9c-0.1,1.1-0.3,2.1-0.4,3.2
		C290.2,263.2,288,263.5,285.8,263.9z M297,227.3c-6.6-0.6-13.5,0-20.1,0.6c-0.2-0.7-0.4-1.5-0.6-2.2c6.8-0.7,14.2-2.2,21-1.7
		C297.2,225.1,297.1,226.2,297,227.3z M295.4,240.4c-0.1,0.7-0.2,1.3-0.3,2c-4.5,1.5-9.3,2.1-14,2.4c-0.2-0.8-0.4-1.6-0.6-2.3
		C285.5,242.2,290.5,241.6,295.4,240.4z M293.4,255.5c-3.2-0.1-6.3,0.2-9.4,1c-0.6-2.5-1.3-5.1-1.9-7.6c4.2-0.3,8.4-0.8,12.4-2
		C294.1,249.8,293.8,252.7,293.4,255.5z M297.8,219.8c-7.3-0.6-15.3,1-22.5,1.8c-0.6-2.2-1.2-4.5-1.7-6.7c8.4-1.1,17.1-2.6,25.3-4.9
		C298.5,213.2,298.2,216.5,297.8,219.8z M257.2,150.6c6.8-9,11.9-20.3,15.4-31.5c-1.9,12-6.2,24.1-11.8,34.6
		C259.7,152.6,258.5,151.6,257.2,150.6z M249,144.8c7.2-12,12.4-25.9,16.8-39.3c1.8,1.3,3.6,2.7,5.4,4.2c-3.4,13.2-9,27.7-17.2,38.5
		C252.4,147,250.7,145.9,249,144.8z M266.2,159c9.6-7.9,18.7-17.7,25.5-28.6c0.8,1.1,1.5,2.2,2.1,3.4c-7.5,10.1-17.9,17.6-27.2,25.7
		C266.4,159.3,266.3,159.2,266.2,159z M271.9,188.4c8.9,1.1,17.8,0.4,26.4-2.2c-3.9,2-8.3,3.2-12.4,4.3c-4.6,1.3-9.5,2.5-14.3,2.7
		C271.7,191.5,271.8,189.9,271.9,188.4z M300.6,180.9c-9.2,3.4-18.9,4.6-28.6,3.2c0-1.9,0-3.9-0.1-5.8c0-0.4,0-0.8-0.1-1.2
		c9.8-0.9,19.6-3.5,28.8-7.4C300.7,173.5,300.7,177.2,300.6,180.9z M300.6,165.2c-9.1,4.1-19.2,6.9-29.1,7.7
		c-0.1-1.1-0.3-2.1-0.5-3.2c6.6-1,13.1-3.2,19.4-5.6c2.5-1,6.7-2,10-3.7C300.5,162,300.6,163.6,300.6,165.2z M272.1,208.6
		c4.9,0.1,9.9,0.1,14.8-0.2c-4.8,0.9-9.6,1.7-14.3,2.3C272.4,210,272.2,209.3,272.1,208.6z M132,144.8c-7.5-5.9-13.1-14.9-17.8-23.3
		c-4-7.1-8.3-14.9-9.9-23.2c4.1-2.7,8.4-5.3,12.7-7.8c0.9,18.1,7.5,38.2,19.4,52C135,143.5,133.6,144.2,132,144.8z M92.6,106.6
		c1.1,6.9,3.5,13.7,6.2,20.1c2.9,6.8,6.3,13.8,11,19.6c-1.5,0.5-3,1.1-4.4,1.8c-9.6-9.1-17.1-23.7-18-37.3
		C89.1,109.4,90.9,108,92.6,106.6z M56.2,248.6c3.8,2.1,7.8,3.7,12,4.6c-0.1,0.4-0.2,0.8-0.3,1.1c-0.3,1.2-0.6,2.4-0.9,3.6
		c-3.6-1.2-7.1-2.6-10.4-4.7C56.5,251.7,56.3,250.2,56.2,248.6z M54.6,220.4c0,0-0.1,0-0.1,0c-0.1-1.7-0.1-3.3-0.1-5
		c6.1,4.7,12.6,8.2,19.4,11.7c-0.1,0.5-0.2,1-0.2,1.4C67,226.4,60.8,223.4,54.6,220.4z M76,201.6c-7.8-2.6-15.4-6.4-21.5-12.2
		c0.1-1.9,0.2-3.8,0.3-5.7c6.5,6.6,13.7,12.3,21.2,17.6C76,201.4,76,201.5,76,201.6z M55.1,178.1c0.3-4.6,0.8-9.1,1.5-13.6
		c6,4.8,11.8,10,17.9,14.7c-0.4,5.6,0.6,11.2,1.1,16.8C68.4,190.6,61.4,184.8,55.1,178.1z M75.5,173.2c-0.1,0.4-0.2,0.8-0.3,1.2
		c-6-4.8-11.8-9.9-17.8-14.6c0.4-2.4,0.9-4.9,1.5-7.3C63.2,160.4,68.8,167.5,75.5,173.2C75.6,173.2,75.5,173.2,75.5,173.2z M60,280
		c-1.1-7.2-2-14.4-2.8-21.6c2.8,1.5,5.8,2.6,8.8,3.7C64.4,268.2,62.6,274.4,60,280z M86,159.4c-7.3-8.7-13.2-18.4-17.9-29
		c0-0.1-0.1-0.1-0.1-0.2c1.7-2.4,3.6-4.7,5.6-6.9c4.7,11.5,10.2,22.8,18,32.1C89.8,156.7,87.8,158,86,159.4z M150.6,146.3
		c-4.7-9.7-7.6-20.5-9.5-31.1c-2.1-11.6-3.6-25,0.4-36.4c3.3-1.3,6.6-2.4,10-3.4c-5.6,17-6.6,35.4-2.7,53c0.6,2.8,1.4,6.2,2.5,9.6
		C151.3,140.8,151,143.6,150.6,146.3z M171.7,148.9c-0.8-2.7-1.4-5.5-2-8.3c0.1-0.6,0-1.1-0.3-1.5c-1.3-6.9-2.1-14-2.6-20.9
		c-1.2-15.5-1-32,4.5-46.7c2.5-0.2,5-0.3,7.5-0.3c-0.5,13.6-1.8,27.1-3,40.7c-0.9,9.9-1.5,20.3-3,30.3c-0.3,0.4-0.5,1-0.4,1.7
		c0,0.1,0,0.3,0.1,0.4C172.3,145.9,172,147.4,171.7,148.9z M188.7,145.5c1.6-4.5,3-9.1,4.2-13.7c4.9-18.7,7.4-38.3,7.7-57.7
		c3.7,0.9,7.4,1.9,11,3.1c1.5,24.2-6.7,46.2-18.6,66.3c-0.3,0.3-0.6,0.7-0.6,1.1c-0.6,0.9-1.1,1.8-1.7,2.8c-0.7-0.5-1.3-1.1-1.9-1.7
		C188.8,145.6,188.8,145.6,188.7,145.5z M198.1,148.3c-0.3-1.1-0.7-2.1-1.3-3.1c11.8-20.2,20.1-42.4,18.9-66.6
		c2.9,1,5.8,2.2,8.6,3.4c0.4,10.5-2.5,21.4-5.9,31.2C214.1,126.1,207.4,138.5,198.1,148.3z M239.4,139.5c0.7-1.1,1.3-2,1.7-2.7
		c7.2-11.2,12.5-24.4,15.9-37.4c1.8,1.2,3.6,2.4,5.4,3.7c-4.4,13.5-9.5,27.5-16.8,39.6c-1.6-1-3.3-2-4.8-2.9
		C240.3,139.4,239.8,139.4,239.4,139.5z M286.8,268c1.6-0.3,3.3-0.6,4.9-0.7c-0.6,4.4-1.2,8.8-1.8,13.2c-0.1-0.3-0.2-0.6-0.2-0.9
		C288.8,275.7,287.8,271.9,286.8,268z"/>
	<g>
		<g>
			<path class="st2" d="M178.9,69.7c-0.5,14.1-1.8,28.6-3.1,42.6c-1.3,14.4-1.9,30.2-5.7,44.2c1.3,0,2.6,0,3.9,0
				c-4.6-12-6.2-25.4-7.2-37.8c-1.2-16-1-33.2,5-48.3c1-2.4-2.9-3.5-3.9-1.2c-6.1,15.4-6.4,32.8-5.1,49.1c1,12.8,2.6,26.5,7.3,38.5
				c0.7,1.7,3.3,2,3.9,0c3.7-14,4.4-29.3,5.7-43.7c1.3-14.5,2.7-29,3.2-43.5C183,67.1,179,67.1,178.9,69.7L178.9,69.7z"/>
		</g>
		<g>
			<path class="st2" d="M152.8,71.7c-6.8,18.1-8.1,37.8-4,56.7c2,9.1,5.6,23.6,14.2,28.9c1.2,0.7,2.5,0,2.9-1.2
				c1.8-5,2.7-10.2,3.8-15.4c0.5-2.5-3.3-3.6-3.9-1.1c-1.1,5.2-2,10.4-3.8,15.4c1-0.4,2-0.8,2.9-1.2c-3.2-2-5.1-6.1-6.6-9.3
				c-2.8-5.9-4.7-12.3-6-18.6c-3.6-17.8-2-36.2,4.3-53.1C157.5,70.4,153.6,69.3,152.8,71.7L152.8,71.7z"/>
		</g>
		<g>
			<path class="st2" d="M151.1,136.9c0.5,5-0.7,10-1.5,14.9c1-0.4,2-0.8,2.9-1.2c-21.2-11.4-31.5-40.4-31.7-63.4c0-2.6-4-2.6-4,0
				c0.2,24.4,11.2,54.8,33.6,66.9c1,0.6,2.7,0.1,2.9-1.2c0.9-5.2,2.2-10.7,1.7-15.9C154.9,134.4,150.9,134.3,151.1,136.9
				L151.1,136.9z"/>
		</g>
		<g>
			<path class="st2" d="M138,76.6c-4.6,11.9-3.1,26-1,38.2c2.2,13.2,6,26.8,12.9,38.4c1.3,2.2,4.8,0.2,3.5-2
				c-6.5-10.9-10-23.7-12.2-36.1c-2.2-12-3.7-25.8,0.8-37.5C142.8,75.3,138.9,74.3,138,76.6L138,76.6z"/>
		</g>
		<g>
			<path class="st2" d="M100.2,97.9c1.3,9.2,6.3,18.3,10.9,26.3c4.9,8.6,10.7,17.7,18.6,23.9c2,1.6,4.9-1.2,2.8-2.8
				c-7.7-6-13.2-14.8-18-23.1c-4.4-7.7-9.2-16.4-10.5-25.3C103.7,94.3,99.9,95.4,100.2,97.9L100.2,97.9z"/>
		</g>
		<g>
			<path class="st2" d="M92.2,103c0.7,8.2,3.5,16.2,6.7,23.7c3.3,7.8,7.3,15.9,13.3,22.1c1.8,1.9,4.6-1,2.8-2.8
				c-5.4-5.6-9-12.9-12.1-20c-3.1-7.2-6-15.1-6.7-23C96,100.4,92,100.4,92.2,103L92.2,103z"/>
		</g>
		<g>
			<path class="st2" d="M83.3,109.8c0.6,15.2,8.9,32,20.3,42.2c1.9,1.7,4.8-1.1,2.8-2.8c-10.6-9.4-18.5-25.1-19.1-39.3
				C87.2,107.2,83.2,107.2,83.3,109.8L83.3,109.8z"/>
		</g>
		<g>
			<path class="st2" d="M129.5,143.4c-12.3-1-24.7,4.2-35,10.5c-8.3,5-17.6,11.6-19.5,21.7c-1.5,7.8,0.5,15.7,0.9,23.5
				c0.3,5.5,0,11-0.6,16.5c-1.4,13.2-4.1,26.3-7.4,39.2c-2.6,9.9-5,21.5-10.5,30.3c-1.4,2.2,2.1,4.2,3.5,2
				c4.1-6.6,6.3-14.8,8.4-22.3c3.4-11.6,6.1-23.3,8.1-35.2c1.9-11.2,3.4-22.6,2.3-33.9c-0.7-7.7-2.9-17,0.8-24.2
				c2.1-4,6.3-7.3,9.8-9.9c10.9-8.2,25.2-15.2,39.2-14.1C132.1,147.6,132.1,143.6,129.5,143.4L129.5,143.4z"/>
		</g>
		<g>
			<path class="st2" d="M172.5,143.9c0.8,5.8,2.2,11.4,3.4,17.1c0.3,1.2,1.9,1.9,2.9,1.2c3.4-2.1,5.4-6.2,7-9.7
				c3.1-6.7,5.3-13.8,7.1-20.8c5.1-19.6,7.6-39.9,7.8-60.2c0-2.6-4-2.6-4,0c-0.2,18.9-2.4,37.8-6.9,56.2c-1.6,6.7-3.5,13.5-6.2,19.9
				c-1.5,3.6-3.4,9-6.9,11.2c1,0.4,2,0.8,2.9,1.2c-1.2-5.7-2.6-11.3-3.4-17.1C176,140.3,172.1,141.4,172.5,143.9L172.5,143.9z"/>
		</g>
		<g>
			<path class="st2" d="M193.2,151c14.4-22.8,24.6-47.9,22.4-75.4c-0.2-2.5-4.2-2.6-4,0c2.1,26.8-7.8,51.1-21.8,73.3
				C188.4,151.2,191.8,153.2,193.2,151L193.2,151z"/>
		</g>
		<g>
			<path class="st2" d="M224.3,80.5c0.7,10.9-2.3,22.4-5.8,32.6c-4.8,14.1-12.2,27.6-23.1,37.9c1.1,0.5,2.3,0.9,3.4,1.4
				c-0.2-3.2-1-5.8-2.7-8.5c-1.3-2.2-4.8-0.2-3.5,2c1.3,2.1,1.9,4,2.1,6.5c0.1,1.7,2.1,2.6,3.4,1.4c11.1-10.5,18.6-24.2,23.7-38.4
				c3.9-10.9,7.2-23.2,6.4-34.9C228.2,78,224.2,78,224.3,80.5L224.3,80.5z"/>
		</g>
		<g>
			<path class="st2" d="M208.2,142.1c0.8,2.3,1.2,5.4,2.7,7.4c0.7,1,1.7,1.2,2.7,0.7c10.2-4.5,16.2-18.1,20.4-27.6
				c4.8-10.8,9.3-22.5,10.7-34.3c0.3-2.6-3.7-2.5-4,0c-1.3,11-5.7,22.2-10.1,32.3c-3.9,8.8-9.5,21.9-18.9,26.1
				c0.9,0.2,1.8,0.5,2.7,0.7c-1.2-1.6-1.6-4.6-2.2-6.5C211.2,138.6,207.4,139.7,208.2,142.1L208.2,142.1z"/>
		</g>
		<g>
			<path class="st2" d="M225.8,136c1.3,2.7,2.7,8.2,5.4,9.7c0.6,0.3,1.4,0.4,2,0c6.4-4.2,10.3-12.5,13.5-19.1
				c4.6-9.5,8.5-19.6,11-29.9c0.6-2.5-3.3-3.6-3.9-1.1c-2.3,9.5-5.8,18.9-10,27.8c-3,6.2-6.6,15.1-12.7,19.1c0.7,0,1.3,0,2,0
				c0.8,1-0.3-0.5-0.3-0.9c-0.1-0.6-1-2-1.2-2.5c-0.8-1.7-1.6-3.4-2.4-5.1C228.1,131.7,224.6,133.7,225.8,136L225.8,136z"/>
		</g>
		<g>
			<path class="st2" d="M238.8,143.3c4.3,2.6,8.6,5.4,12.6,8.4c4.4,3.3,9.9,7,13,11.6c3.6,5.1,3.6,12.8,3.6,18.7
				c0,6.2-0.5,12.3-1,18.4c-0.1,2-0.1,3.6,0.3,5.5c4.8,19.8,9.7,39.6,14.7,59.4c1.3,5.1,2.5,10.2,3.9,15.3c0.5,1.9,0.8,4.8,1.9,6.5
				c1.5,2.1,4.9,0.1,3.5-2c0.4,0.5-0.2-0.8-0.4-1.2c-0.4-1.4-0.8-2.9-1.2-4.3c-1.2-4.5-2.3-9-3.5-13.5c-3-12-6-24.1-8.9-36.1
				c-2-8.3-4.2-16.6-6.1-24.9c-0.5-2-0.3-3.6-0.1-6c0.5-6.4,1-12.8,0.8-19.3c-0.2-6.3-0.7-13.9-4.6-19.1c-3.2-4.3-8.1-7.7-12.2-11
				c-4.6-3.6-9.4-6.8-14.4-9.8C238.6,138.5,236.6,141.9,238.8,143.3L238.8,143.3z"/>
		</g>
		<g>
			<path class="st2" d="M293.3,286c4.7-37.2,10.9-74.6,11.3-112.2c0.2-12.7,0.6-27.8-5.6-39.3c-8.4-15.5-23.7-27.5-38-37.2
				c-17.8-12.1-37.7-21.8-58.7-27c-19.4-4.8-38.3-3.8-57.2,2.8c-19.7,6.8-38.1,17.5-54.6,30.1c-10.9,8.3-23.5,18-29.7,30.5
				c-9.1,18.4-10,41.6-10.5,61.7c-0.8,30.1,1.7,60.4,6.4,90.1c0.4,2.5,4.3,1.5,3.9-1.1c-4.2-25.9-6.4-52.2-6.4-78.4
				c0-20.1,0.8-41.1,6.4-60.5c4-13.8,12.9-23.2,23.7-32.4c14.8-12.6,31.6-23.3,49.4-31.3c18.2-8.2,37.5-12.9,57.4-9.8
				c20.6,3.2,40.3,11.8,58.1,22.4c15.8,9.4,31.8,21.1,42.6,36.3c7.9,11,8.5,24.1,8.7,37.2c0.4,39.5-6.4,78.9-11.4,117.9
				C289,288.5,293,288.5,293.3,286L293.3,286z"/>
		</g>
		<g>
			<path class="st2" d="M262.7,102c-4.6,14.1-9.9,28.9-17.7,41.6c-1.4,2.2,2.1,4.2,3.5,2c8-13,13.4-28.1,18.1-42.6
				C267.4,100.6,263.5,99.6,262.7,102L262.7,102z"/>
		</g>
		<g>
			<path class="st2" d="M271.5,108.5c-3.5,14.2-9.5,30-18.8,41.4c-1.6,2,1.2,4.8,2.8,2.8c9.7-11.9,16.2-28.4,19.9-43.2
				C276,107,272.2,106,271.5,108.5L271.5,108.5z"/>
		</g>
		<g>
			<path class="st2" d="M273.6,110.8c-0.9,15.3-6.2,31.2-13.5,44.5c-1.2,2.3,2.2,4.3,3.5,2c7.7-14,13.1-30.5,14.1-46.5
				C277.8,108.2,273.8,108.2,273.6,110.8L273.6,110.8z"/>
		</g>
		<g>
			<path class="st2" d="M265.9,159.1c10.6-8.6,20.4-19.4,27.3-31.3c1.3-2.2-2.2-4.3-3.5-2c-6.6,11.6-16.3,22.1-26.6,30.5
				C261.1,157.9,263.9,160.8,265.9,159.1L265.9,159.1z"/>
		</g>
		<g>
			<path class="st2" d="M268,163.6c10.4-9.1,22-17.4,30.1-28.8c1.5-2.1-2-4.1-3.5-2c-7.8,11.1-19.4,19.2-29.5,28
				C263.2,162.5,266,165.3,268,163.6L268,163.6z"/>
		</g>
		<g>
			<path class="st2" d="M269.6,169.8c7.2-0.8,14.1-3.3,20.9-5.8c3.7-1.4,10.8-3,13.4-6.2c1.6-2-1.2-4.9-2.8-2.8
				c-0.8,1-2.6,1.5-3.7,2c-3,1.4-6,2.5-9.1,3.6c-6,2.2-12.3,4.5-18.6,5.2C267.1,166.1,267.1,170.1,269.6,169.8L269.6,169.8z"/>
		</g>
		<g>
			<path class="st2" d="M270.4,177.2c11.5-0.8,22.9-4.1,33.4-8.9c2.3-1.1,0.3-4.5-2-3.5c-9.7,4.5-20.6,7.6-31.3,8.3
				C267.8,173.4,267.8,177.4,270.4,177.2L270.4,177.2z"/>
		</g>
		<g>
			<path class="st2" d="M270.1,188c10.8,1.6,21.7,0.6,31.9-3.3c2.4-0.9,1.3-4.8-1.1-3.9c-9.5,3.6-19.7,4.8-29.8,3.3
				C268.7,183.8,267.6,187.6,270.1,188L270.1,188z"/>
		</g>
		<g>
			<path class="st2" d="M270.2,197.3c5.6,0.1,11.4-1.4,16.8-2.9c5.4-1.5,11.2-3.1,16-6.2c2.2-1.4,0.2-4.8-2-3.5
				c-4.5,2.9-10,4.4-15,5.8c-5,1.4-10.5,2.8-15.7,2.7C267.6,193.2,267.6,197.2,270.2,197.3L270.2,197.3z"/>
		</g>
		<g>
			<path class="st2" d="M269.9,208.4c10,0.3,20.1,0,30.1-1.1c2.5-0.3,2.6-4.3,0-4c-10,1.1-20.1,1.4-30.1,1.1
				C267.3,204.3,267.3,208.3,269.9,208.4L269.9,208.4z"/>
		</g>
		<g>
			<path class="st2" d="M271.2,215c9.9-1.3,20.2-2.9,29.7-5.8c2.5-0.8,1.4-4.6-1.1-3.9c-9.2,2.8-19.2,4.5-28.7,5.7
				C268.7,211.3,268.7,215.3,271.2,215L271.2,215z"/>
		</g>
		<g>
			<path class="st2" d="M275.1,225.7c7.5-0.7,15.9-2.5,23.5-1.7c2.6,0.3,2.5-3.7,0-4c-7.5-0.8-16,1-23.5,1.7
				C272.5,221.9,272.5,225.9,275.1,225.7L275.1,225.7z"/>
		</g>
		<g>
			<path class="st2" d="M275.5,232.1c7.4-0.7,15.4-1.4,22.8-0.6c2.6,0.3,2.5-3.7,0-4c-7.4-0.8-15.4-0.1-22.8,0.6
				C273,228.4,273,232.4,275.5,232.1L275.5,232.1z"/>
		</g>
		<g>
			<path class="st2" d="M277.7,242.4c6.8,0,13.6-0.9,20.1-2.8c2.5-0.7,1.4-4.6-1.1-3.9c-6.2,1.8-12.6,2.6-19.1,2.7
				C275.1,238.4,275.1,242.4,277.7,242.4L277.7,242.4z"/>
		</g>
		<g>
			<path class="st2" d="M279.9,249c5.8-0.4,11.8-1,17.3-3c2.4-0.9,1.4-4.8-1.1-3.9c-5.2,2-10.8,2.5-16.3,2.9
				C277.4,245.2,277.4,249.2,279.9,249L279.9,249z"/>
		</g>
		<g>
			<path class="st2" d="M282.8,261.1c4.1-1.2,8-1.7,12.3-1.3c2.6,0.2,2.5-3.8,0-4c-4.6-0.4-8.9,0.2-13.3,1.5
				C279.3,258,280.3,261.8,282.8,261.1L282.8,261.1z"/>
		</g>
		<g>
			<path class="st2" d="M285.1,268.2c2.9-0.4,5.6-1,8.5-1.2c2.6-0.1,2.6-4.1,0-4c-3.2,0.2-6.4,0.9-9.6,1.3
				C281.5,264.7,282.6,268.5,285.1,268.2L285.1,268.2z"/>
		</g>
		<g>
			<path class="st2" d="M72.4,120.3c5.2,13.2,11.4,26.5,21,37.1c1.7,1.9,4.5-0.9,2.8-2.8c-9.1-10.1-15-22.8-19.9-35.4
				C75.3,116.9,71.5,117.9,72.4,120.3L72.4,120.3z"/>
		</g>
		<g>
			<path class="st2" d="M64.7,132.5c5,11.3,11.5,21.7,19.6,31.1c1.7,2,4.5-0.9,2.8-2.8c-7.8-9.1-14.1-19.3-18.9-30.3
				C67.1,128.2,63.6,130.2,64.7,132.5L64.7,132.5z"/>
		</g>
		<g>
			<path class="st2" d="M56.5,147.9c4.6,9.7,11.2,18.8,19.5,25.6c2,1.6,4.8-1.2,2.8-2.8c-8.1-6.6-14.4-15.3-18.9-24.8
				C58.8,143.5,55.4,145.6,56.5,147.9L56.5,147.9z"/>
		</g>
		<g>
			<path class="st2" d="M53.6,162c7.5,5.7,14.4,12.1,21.9,17.8c2,1.6,4-1.9,2-3.5c-7.5-5.7-14.4-12.1-21.9-17.8
				C53.6,157,51.6,160.4,53.6,162L53.6,162z"/>
		</g>
		<g>
			<path class="st2" d="M51.7,180.3c7.5,8.2,16.2,15.1,25.2,21.5c2.1,1.5,4.1-2,2-3.5c-8.8-6.2-17.1-12.9-24.4-20.9
				C52.8,175.6,50,178.4,51.7,180.3L51.7,180.3z"/>
		</g>
		<g>
			<path class="st2" d="M51.2,191.7c7.2,7.1,16.5,11.7,26.1,14.5c2.5,0.7,3.5-3.1,1.1-3.9c-9-2.6-17.6-6.8-24.3-13.5
				C52.2,187.1,49.4,189.9,51.2,191.7L51.2,191.7z"/>
		</g>
		<g>
			<path class="st2" d="M51.6,213c7,6,14.9,10.2,23,14.4c2.3,1.2,4.3-2.3,2-3.5c-7.8-4-15.5-8-22.2-13.7
				C52.5,208.5,49.6,211.4,51.6,213L51.6,213z"/>
		</g>
		<g>
			<path class="st2" d="M52.6,224c6.9,3.4,14,6.8,21.4,9c2.5,0.7,3.5-3.1,1.1-3.9c-7.1-2.1-13.8-5.4-20.5-8.6
				C52.3,219.4,50.3,222.8,52.6,224L52.6,224z"/>
		</g>
		<g>
			<path class="st2" d="M52.8,246.6c5.6,3.3,11.1,5.9,17.6,6.9c0.2-1.3,0.4-2.6,0.5-3.9c-0.3,0-0.7-0.1-1-0.1c-2.6-0.3-2.5,3.7,0,4
				c0.3,0,0.7,0.1,1,0.1c2.2,0.2,2.8-3.6,0.5-3.9c-6.1-0.9-11.3-3.3-16.6-6.5C52.6,241.8,50.6,245.3,52.8,246.6L52.8,246.6z"/>
		</g>
		<g>
			<path class="st2" d="M54.3,256.7c4.1,2.7,8.6,4.3,13.3,5.9c2.5,0.8,3.5-3.1,1.1-3.9c-4.4-1.4-8.5-3-12.4-5.5
				C54.2,251.8,52.2,255.3,54.3,256.7L54.3,256.7z"/>
		</g>
		<g>
			<path class="st2" d="M132.6,148.9c2.3-0.7,4.5-1.8,6.4-3.2c0.9-0.7,1.3-1.7,0.7-2.7c-0.5-0.8-1.9-1.4-2.7-0.7
				c-1.7,1.3-3.5,2.2-5.5,2.8C129,145.8,130.1,149.7,132.6,148.9L132.6,148.9z"/>
		</g>
		<g>
			<path class="st2" d="M186.1,148.5c1.3,1.4,2.9,2.7,4.5,3.6c2.2,1.3,4.3-2.2,2-3.5c-1.4-0.8-2.6-1.8-3.7-3c-0.7-0.8-2.1-0.7-2.8,0
				C185.3,146.5,185.3,147.7,186.1,148.5L186.1,148.5z"/>
		</g>
	</g>
</g>
</svg>
