<?xml version="1.0" encoding="utf-8"?>
<!-- Generator: Adobe Illustrator 19.2.0, SVG Export Plug-In . SVG Version: 6.00 Build 0)  -->
<svg version="1.1" id="Layer_1" xmlns="http://www.w3.org/2000/svg" xmlns:xlink="http://www.w3.org/1999/xlink" x="0px" y="0px"
	 viewBox="0 0 739.6 909.9" style="enable-background:new 0 0 739.6 909.9;" xml:space="preserve">
<style type="text/css">
	.st0{fill:#C47546;}
	.st1{fill:#814927;}
	.st2{fill:#3A291D;}
</style>
<g>
	<g>
		<path class="st0" d="M352.9,124.5c0.1-1.7,1.4-5.8,2-7l1-2.1l-2.2-0.6c-1.9-0.5-5.7-2.3-9-4.8c-3.4-2.5-5.6-5.1-5.7-6.9
			c0-0.4-0.1-1.7,2.7-3l1.8-0.8l-1-1.8c-1.2-2.2-1.4-3.9-0.7-5.2l0.6-1.1l-0.8-1c-4.1-4.9-9.8-11.7-7.9-18.6c0.8-3,2.9-3.7,4.6-3.7
			c2.8,0,5.9,1.8,7.4,4.4l1.1,1.9l1.7-1.3c0.7-0.6,1.6-1,2.6-1.1c0.4-0.1,0.8-0.1,1.1-0.1c0.9,0,1.7,0.2,2.6,0.5l0.9,0.3l0.8-0.5
			c2.8-1.7,5.4-2.6,7.8-2.6c2.8,0,5.4,1.2,7.8,3.7l1.2,1.2l1.3-1c1.5-1.2,3-1.8,4.3-1.8c1.6,0,3,0.9,4.1,2.8
			c0.3,0.4,0.5,0.9,0.8,1.5l0.7,1.5l1.6-0.6c1.5-0.6,3.1-0.9,4.6-0.9c1.4,0,3.4,0.3,4.9,1.7l1.4,1.3l1.3-1.4
			c5-5.3,10.9-8.5,17.4-9.5c1-0.1,2-0.2,3-0.2c4.6,0,8.5,1.6,11,4.5c2.8,3.1,3.9,7.5,3.3,13.1c-0.9-6.2-4.2-10.4-9.1-11.4
			c-0.8-0.2-1.7-0.3-2.5-0.3c-5.4,0-10.8,3.4-16.1,10.2l-1.3,1.6l1.7,1.1c3.2,2.1,5.3,4.7,6,8c0.2,0.8,0.3,1.6,0.3,2.3l0,1.2
			l1.1,0.5c3.4,1.6,5.6,3.8,6,5.7c0.2,1.3-0.4,2.7-1.8,4.1c-3.2,3.2-8.3,5.8-15.1,7.7l-1.8,0.5l0.5,1.8c0.1,0.5,0.2,8.4,0.3,8.8
			c0,0-38.3-2.7-46.9-1.9L352.9,124.5z M337.5,74.3c0.1,0.2,0.1,0.4,0.2,0.6c0.4,0.9,1,1.7,1.4,2.4l0.1,0.2c0.6,0.8,1.2,1.7,1.8,2.5
			l1.9,2.6l1.5-1.7c0.3-0.4,0.7-0.7,1.1-1l1.4-1.1l-0.9-1.2c0.1-0.4,0.1-0.8,0.3-1.2l0.3-1.1l-0.9-0.8c-2.1-1.9-5.2-2.6-6.4-2.9
			l-2.1,0.2l0.1,2.5C337.4,74.2,337.4,74.3,337.5,74.3z"/>
		<g>
			<path class="st1" d="M353.8,120.4c0.2-1.9,1-3.5,2.2-4.9c0.7-0.8,1.5-1.5,2.6-2.3l0.6-0.5l0.6,0.5c0.1,0.1,0.2,0.1,0.2,0.1
				c0,0,0.1,0,0.1,0c3.5-0.9,9-2.1,15.1-2.1c6.7,0,12.3,1.4,16.6,4.1l-0.6,1.7c-2.5-0.4-5.3-0.6-8.2-0.6c-8.2,0-17.6,1.7-28,4.9
				l-1.4,0.4L353.8,120.4z"/>
			<path class="st1" d="M358.3,111.7c-4.2-2.1-19.3-13.1-16.4-19.2l0.1-0.2l0.2-0.1c0.1-0.1,0.2-0.2,0.3-0.4l0.1-0.3l1-1l0.6,0.9
				c4,6.8,12.3,13.7,16.7,17.4l1.2,1l-1.1,0.7c-0.5,0.3-1.1,0.7-1.6,1l-0.6,0.5L358.3,111.7z"/>
			<path class="st1" d="M370,104.6c-1.1-5.7-2.2-11.7-4.1-17.3c-1.3-3.7-2.7-6.7-4.4-9.2c-1.8-2.7-6.4-6.4-10.3-6.4
				c-1.6,0-4.5,0.7-5.1,5.7c0,0,0,0.1-0.1,0.2c0,0.1,0.1,0.1,0.1,0.2c0.1,0.3,0.1,0.7,0.1,1l0.4,0.1c0.1,0,0.1,0,0.1,0.1
				c10,6.5,17.2,16,20.6,27.5l0.3,0.9l0.9-0.3c0.2-0.1,0.5-0.2,0.7-0.2l1.1-0.3L370,104.6z"/>
			<path class="st1" d="M383.4,100.4c-1.1-6.5-3.6-18.5-9-25.9l-0.5-0.7l0.7-0.6c1.4-1.2,2.8-1.7,4.1-1.7c1.2,0,2.3,0.5,3.2,1.6
				c4.5,5.1,4,22.4,3.5,26.4c0,0,0,0.1,0,0.1l0,0.2l-0.2,0.6L383.4,100.4z"/>
			<path class="st1" d="M387,89.8c0.1-4.6-0.5-8.6-1.6-11.9l-0.3-0.8l0.8-0.3c1.4-0.6,3.1-0.9,4.6-0.9c2.2,0,4,0.7,5.1,1.9l0.5,0.6
				l-0.5,0.6c-2.6,3.2-5,7-6.9,11.2L387,89.8z"/>
		</g>
		<g>
			<g>
				<path class="st2" d="M354.9,125.3c-0.3-3.2-0.6-6.2,1.6-8.8c1.2-1.4,2.9-2.6,4.5-3.7c4-2.7,8.5-4.5,13.2-5.3
					c11.6-2.1,29,3.4,25.4,18.3c-0.5,1.9,2.4,2.7,2.9,0.8c3.8-15.6-12.2-23.6-25.6-22.5c-6.8,0.6-13.4,3.1-18.9,7.2
					c-5.2,3.9-6.7,7.5-6.1,14.1C352.1,127.2,355.1,127.2,354.9,125.3L354.9,125.3z"/>
			</g>
			<g>
				<path class="st2" d="M354.2,113.9c-3.4-0.8-6.8-3-9.6-5c-2.6-1.9-7.5-5.9-2.5-7.9c1.8-0.7,1-3.6-0.8-2.9
					c-12.9,5.2,5.7,17.3,12,18.7C355.3,117.2,356.1,114.3,354.2,113.9L354.2,113.9z"/>
			</g>
			<g>
				<path class="st2" d="M359.3,111c-4-1.7-22.4-15.3-14.9-19.6c1.7-1,0.2-3.6-1.5-2.6c-11.3,6.5,8.9,22.2,14.9,24.8
					C359.5,114.3,361,111.7,359.3,111L359.3,111z"/>
			</g>
			<g>
				<path class="st2" d="M363.8,108.6c-4.6-3.9-26.6-21.4-17.8-28c1.5-1.1,0-3.8-1.5-2.6c-12.3,9.2,10.8,27.3,17.2,32.7
					C363.1,112,365.3,109.9,363.8,108.6L363.8,108.6z"/>
			</g>
			<g>
				<path class="st2" d="M347,77.8c1.2-8,8.8-4.9,12.1-1.1c2.6,3,4.3,6.9,5.6,10.6c2.1,6.1,3.3,12.6,4.5,19c0.4,1.9,3.3,1.1,2.9-0.8
					c-1.9-10.2-3.6-22-10.4-30.3c-5-6.1-16.1-8.4-17.6,1.8C343.9,78.9,346.7,79.7,347,77.8L347,77.8z"/>
			</g>
			<g>
				<path class="st2" d="M356.3,73.3c18.3-11.8,24.1,18.5,25.7,30.9c0.2,1.9,3.2,1.9,3,0c-1.8-14.6-9.2-47.1-30.2-33.5
					C353.2,71.7,354.7,74.3,356.3,73.3L356.3,73.3z"/>
			</g>
			<g>
				<path class="st2" d="M374.7,74.5c11-9.6,10.3,19.9,9.6,24.9c-0.3,1.9,2.8,1.9,3,0c1.1-8.1,1.7-18.8-2.9-26.2
					c-3.1-5-7.9-4.4-11.9-0.9C371.1,73.6,373.2,75.7,374.7,74.5L374.7,74.5z"/>
			</g>
			<g>
				<path class="st2" d="M412.1,99.4c2.1,1,6.1,2.6,5.9,5.5c-0.2,2.2-3,4-4.6,5.1c-3.8,2.5-8.2,4.3-12.6,5.4
					c-1.9,0.5-1.1,3.4,0.8,2.9c5.8-1.5,12.5-4.1,16.9-8.4c5.4-5.4,0.8-10.4-4.8-13C411.9,96,410.4,98.6,412.1,99.4L412.1,99.4z"/>
			</g>
			<g>
				<path class="st2" d="M386.1,105.9c2.5-15.1,11-32.1,27.1-36.3c4.9-1.3,10.7-1.1,14.6,2.5c4.8,4.4,4.6,11.5,3.4,17.3
					c1,0.1,2,0.3,2.9,0.4c0.2-7-2.4-15-10-16.8c-8.7-2-16.3,5.5-21,11.8c-1.2,1.6,1.5,3,2.6,1.5c3.8-5.2,10.1-11.8,17.3-10.5
					c6.6,1.2,8.2,8.2,8.1,13.9c0,1.7,2.6,2.1,2.9,0.4c1.4-6.4,1.5-13.9-3.1-19.1c-3.9-4.5-10-5.8-15.7-4.9
					c-18.7,2.7-29.3,22.1-32.1,39C382.9,107,385.8,107.8,386.1,105.9L386.1,105.9z"/>
			</g>
			<g>
				<path class="st2" d="M343.2,90.5c-3.1-3.7-6.4-7.3-8-11.9c-0.9-2.6-1.9-8.8,2-9.6c2.8-0.6,6.7,2.1,7.8,4.5
					c0.8,1.7,3.4,0.2,2.6-1.5c-3.1-6.3-13.6-9-15.8-0.8c-2.2,8.3,4.4,15.7,9.3,21.5C342.3,94.1,344.4,92,343.2,90.5L343.2,90.5z"/>
			</g>
			<g>
				<path class="st2" d="M344.3,81.2c-1.1-1.6-2.3-3.2-3.4-4.8c-0.5-0.7-1-1.5-1.4-2.3c-0.1-0.2-0.2-0.7-0.3-0.8c0-0.1,0-0.2,0-0.3
					c-0.5,0.3-0.6,0.4-0.3,0.4c0.2,0.2,1.2,0.2,1.5,0.3c0.6,0.2,1.2,0.5,1.8,0.8c0.9,0.4,1.9,0.9,2.6,1.7c1.4,1.4,3.5-0.7,2.1-2.1
					c-1.2-1.3-3-2.1-4.6-2.7c-1.4-0.6-3.5-1.4-5-0.5c-4.2,2.4,2.9,9.9,4.3,12C342.8,84.3,345.4,82.8,344.3,81.2L344.3,81.2z"/>
			</g>
			<g>
				<path class="st2" d="M345.7,80.6c9.8,6.4,16.7,15.8,19.9,27.1c0.5,1.9,3.4,1.1,2.9-0.8c-3.4-12-10.9-22.1-21.3-28.9
					C345.6,76.9,344.1,79.5,345.7,80.6L345.7,80.6z"/>
			</g>
			<g>
				<path class="st2" d="M401.5,85.8c7.1,2.7,13.9,12.7,5.4,18.3c-1.6,1-0.1,3.6,1.5,2.6c4.2-2.7,6.2-7.5,5.1-12.4
					c-1.3-5.7-5.9-9.3-11.2-11.3C400.5,82.2,399.7,85.1,401.5,85.8L401.5,85.8z"/>
			</g>
			<g>
				<path class="st2" d="M399,113.6c2.7-0.7,5-2.3,6.6-4.6c1.1-1.6-1.5-3.1-2.6-1.5c-1.2,1.6-2.9,2.7-4.8,3.2
					C396.4,111.2,397.1,114.1,399,113.6L399,113.6z"/>
			</g>
			<g>
				<path class="st2" d="M388.3,105.6c1-3.8,2.5-7.5,4.5-10.9c1.8-3.1,4.7-8.2,8.5-9.1c1.9-0.5,1.1-3.4-0.8-2.9c-4,1-6.7,5-8.9,8.2
					c-2.9,4.2-4.9,8.9-6.2,13.9C384.9,106.7,387.8,107.5,388.3,105.6L388.3,105.6z"/>
			</g>
			<g>
				<path class="st2" d="M386.2,77.7c2.4-1,6.9-1.5,8.7,0.8c1.2,1.5,3.8,0,2.6-1.5c-3-3.9-8.7-3.7-12.8-1.9
					C383,75.9,384.5,78.5,386.2,77.7L386.2,77.7z"/>
			</g>
			<g>
				<path class="st2" d="M354.3,123.6c13.5-4.4,31.9-8.3,45.4-2.1c1.7,0.8,3.3-1.8,1.5-2.6c-14.3-6.6-33.3-2.9-47.7,1.8
					C351.7,121.3,352.5,124.2,354.3,123.6L354.3,123.6z"/>
			</g>
			<g>
				<path class="st2" d="M360.4,114.3c10.6-2.8,26.1-3.8,34.4,4.7c1.3,1.4,3.5-0.7,2.1-2.1c-9.1-9.5-25.5-8.6-37.3-5.5
					C357.7,111.9,358.5,114.8,360.4,114.3L360.4,114.3z"/>
			</g>
		</g>
	</g>
	<path class="st0" d="M497.6,241.7l-3.7-15c0,0-3.9-14.3-4.8-14.6c-0.9-0.2-5.5-15-5.5-15l-8-12.7l-9.6-10.4l-5.6-4.5L456,159
		l-5.6-10.6l-10.2-8.2l-10-5.8l-7.4-2.8l-6.7-1.6l0.1-0.4c-5-0.9-10.2-1.1-15.2-1.8c-6.6-1-13-1.7-19.6-1.8
		c-12.8-0.2-25.7-1.5-38.5,0.7c-0.7,0.1-1.2-0.2-1.5-0.7l-18.6,6.3l-12.7,8.2l-9.2,11l-5.1,12l-6.2,2.9l-12.4,12.1l-8.2,11.8
		l-8.6,17.8l-6.8,25.4l-4.1,34.8l-0.5,32.5l3.5,33.9l2,9.9l5.6-25.8l8.1-21.2l2.4-14.2l0.7-12.3l2.1-13l5.4-11.6l11.2-15.9
		l12.2-10.2l4.9,7.1l4.4,5l3.5-5.7l6.7,6.8l4.7-0.2c0,0,4-3,4.4-4.2c0.5-1.2,3.1,4.4,3.1,4.4l7.6-4.7l5.4,5.6l5.5,0.1l5.9-3l1.9,3.8
		l1.9,2.8l7.6-6.4l0.2,2l7.1-4.6l1.5,7.4l4.7,0l7.4-2.5l4.7-2.5l-0.1,4l5.5,0.4l4.3-2.1l12.2-3.2l14-6.1l9.1-6.2l7.7,6.5l10,12.5
		l8.2,10.4l5.9,13.2l1.4,14.8l0.4,13.3l4.2,15l5.1,15.9c0,0,2.8,12.2,2.3,13c-0.5,0.7,3,13,3,13l4.4-19.4l3-22.9l1.8-19.9l0.4-24.6
		L497.6,241.7z"/>
	<g>
		<polygon class="st1" points="268.1,289 261.1,281.7 249.7,263.6 249.2,274.4 248.8,300.6 250.5,324.8 254.3,344.5 256.8,329.8 
			263.2,308.2 		"/>
		<polygon class="st1" points="251.8,245.2 258,256.6 263.9,265.5 271.1,274.7 273.2,258.2 267.8,253.7 253.9,234.2 		"/>
		<polygon class="st1" points="260.3,207.9 264.7,215.7 271.7,227.8 279.5,238.2 283.3,239.7 285.8,235.4 282.1,228 276,211.7 
			273.4,197.9 271.9,185.8 264.3,195.9 		"/>
		<path class="st1" d="M282.5,172.3l1.4,12.8l2.4,16.3l6.5,14.7l5.2,6.3l4-3.1l-2.6-7.4c0,0-5-19.5-5.1-20.3
			c-0.1-0.8-0.9-17.8-0.9-17.8l0.4-9.7l-5.7,2L282.5,172.3z"/>
		<path class="st1" d="M319.4,148l-5.3,10.2l-5,16l-1.6,14.1l1.1,15.7l4,14.5l6.5,12l3.5,3.7l5.9-1.9l2.1-3l-6.8-15.7l-3.8-15.5
			c0,0-2.2-14.2-2.2-15s0.9-18.7,0.8-19.2c-0.1-0.5,3.3-14.8,3.3-14.8L319.4,148z"/>
		<path class="st1" d="M345.5,126.4c0,0-6.1,5.2-10.7,19.1c-1.7,5.2-3.2,21.5-3.2,21.5l0.1,15l2,17.5l10.1,32l7.5,3.2
			c-8.5-17.6-15.2-50.3-12.2-77.3C341.3,137.4,345.5,126.4,345.5,126.4z"/>
		<path class="st1" d="M382.5,128.9c-3.7-0.2-7.5-2.1-11.2-1.3l0.2,23.7l0.1,37.7l-1.8,44.8l8.7-4.9l4-17.1l3.7-40l-2.3-23.8
			L382.5,128.9z"/>
		<path class="st1" d="M362.2,126.6c0,0-4,25.7-3.8,56.7c0.2,26.1,3.5,52.6,3.5,52.6s-2.3,0.1-4.2-5.2c-1.9-5.3-6.4-21.2-7-26.1
			c-0.6-4.9-1.7-20.7-1.3-27.6s2.5-24.8,3.5-30s4.8-21,4.8-21L362.2,126.6z"/>
		<path class="st1" d="M383.6,235.1c0,0,10.3-20.9,12.3-43.9c3.3-38.7-1.8-63.5-1.8-63.5l8.7,1.5l4.3,15.4l2.9,23.6l-1.9,25.7
			l-5.1,20.8c0,0-5.8,14.4-9.1,16.9C390.5,234.2,383.6,235.1,383.6,235.1z"/>
		<path class="st1" d="M417,130l4,9.4l2.8,17.8l-0.6,16.2l-3.6,18l-5.3,19l-10.3,23l4.9,0.1l8.2-2.6l6.1-4.4l4.6-11.3l2.6-9.2
			l2.5-15.1l0.8-14.6c0,0-1.3-17.3-1.4-18c-0.1-0.7-3.9-15.4-3.9-15.4s-3.7-8.2-4.2-9c-0.5-0.8-4.2-3.8-4.2-3.8L417,130z"/>
		<path class="st1" d="M439.5,144.1c0.1,0.2,5.4,11.4,5.4,11.4l3.2,11.3l1.7,11.9l0.2,14.5l-2.2,14.4l-6.1,11.1l6.3,6.4l5.2-6.3
			c0,0,6.8-14.1,8.2-14.8c1.4-0.7,5.1-15.9,6.2-16.2c1.2-0.4,3.7-7.4,3.7-7.4l-11.3-11.8L456,159l-6.8-11.6l-9.6-6.2L439.5,144.1z"
			/>
		<polygon class="st1" points="458.1,234.9 462.3,228.3 468,216.9 472.3,204.6 477.5,191 477.3,204.3 472.9,223.1 463.9,244.3 		"/>
		<polygon class="st1" points="469.4,252.1 474.7,244.7 479.2,236.6 485.4,225.6 488,211 492.8,221.9 487.1,240.6 480.8,258.3 
			473.6,270.3 471.8,260.4 		"/>
		<polygon class="st1" points="475.1,283.6 479.3,278 484.7,270.1 495.8,245 498.1,255.6 496.9,287.3 487.7,302.9 479.9,311.6 
			476.9,299.9 		"/>
		<polygon class="st1" points="485,324.7 494.1,310.1 493.9,319.8 488.5,346.2 		"/>
	</g>
	<g>
		<g>
			<g>
				<path class="st2" d="M300.6,218.9c-8.4,7.8-17,15.9-23.2,25.6c-7,10.9-7.7,22.4-8.7,34.9c-1.1,14.3-7.8,26.7-11.4,40.4
					c-3.4,13-4.4,26.5-3,39.8c0.3,2.5,4.3,2.6,4,0c-1.3-13.3-0.4-26.7,3.1-39.6c3.3-12,9.3-23.2,10.8-35.7c1.6-12.8,0.9-25,7.8-36.5
					c6.1-10.1,14.9-18.2,23.4-26.2C305.3,220,302.5,217.2,300.6,218.9L300.6,218.9z"/>
			</g>
			<g>
				<path class="st2" d="M440.3,220c8.1,8,15.9,16.4,22.2,25.9c3.1,4.6,5.9,9.5,7.4,14.9c2,7.1,1.7,14.7,2.1,22
					c0.6,13.5,5.9,25.4,9.4,38.3c3.7,13.8,4.4,28.2,2.5,42.4c-0.3,2.5,3.7,2.5,4,0c1.9-14.2,1.1-28.7-2.4-42.6
					c-1.8-6.9-4.4-13.5-6.4-20.4c-2.3-7.7-2.9-15.3-3.2-23.3c-0.4-12.5-2.8-22.8-9.8-33.3c-6.5-9.8-14.6-18.4-22.9-26.7
					C441.3,215.4,438.5,218.2,440.3,220L440.3,220z"/>
			</g>
			<g>
				<path class="st2" d="M292.5,161.6c-23.7,16.3-35.5,43.5-40.9,70.9c-5.7,29.1-5.3,59.3-2.6,88.8c1.2,12.8,2.8,25.5,4.8,38.2
					c0.4,2.5,4.3,1.5,3.9-1.1c-3.8-23.9-6.3-48.1-6.5-72.3c-0.2-28.7,2.4-59,14.5-85.3c6.5-14.2,15.9-26.8,28.9-35.7
					C296.6,163.6,294.6,160.1,292.5,161.6L292.5,161.6z"/>
			</g>
			<g>
				<path class="st2" d="M459,170.7c22.8,16.7,32.4,44.6,35.5,71.7c3.2,27.8,0.7,56-3.5,83.5c-1.9,12.1-4.2,24.1-6.5,36.1
					c-0.5,2.5,3.4,3.6,3.9,1.1c4.7-24.7,9.1-49.4,10.8-74.4c1.9-28.6,0.8-59-10.5-85.8c-6-14.2-15.2-26.5-27.7-35.7
					C458.9,165.7,456.9,169.2,459,170.7L459,170.7z"/>
			</g>
			<g>
				<path class="st2" d="M415.2,131c11,19.9,6.9,45.9,1.2,66.8c-2.5,9.2-5.6,18.5-9.8,27.1c-1.2,2.4-2.4,5.5-4.3,7.5
					c-2,2-4.1,1.4-7.2,1.1c0.6,1,1.2,2,1.7,3c6.7-15.7,12-31.9,14.1-48.8c2.5-19.9,0.1-39.9-6.3-58.9c-0.8-2.4-4.7-1.4-3.9,1.1
					c6.1,18.2,8.5,37.2,6.3,56.3c-1.9,16.8-7.2,32.9-13.8,48.4c-0.6,1.5,0.1,2.8,1.7,3c3.1,0.3,6.6,0.9,9.1-1.2
					c2-1.7,3.3-4.4,4.5-6.7c4.8-8.9,8.2-18.7,10.9-28.4c6.4-22.5,11-50.6-1-72.1C417.4,126.7,414,128.7,415.2,131L415.2,131z"/>
			</g>
			<g>
				<path class="st2" d="M421.1,132.5c9,13.7,11,31.1,10.6,47.2c-0.4,16-3.3,32.7-10.8,47c-1.2,2.3,2.3,4.3,3.5,2
					c7.8-14.9,10.9-32.3,11.4-49c0.4-16.7-1.8-34.9-11.2-49.2C423.2,128.4,419.7,130.4,421.1,132.5L421.1,132.5z"/>
			</g>
			<g>
				<path class="st2" d="M428.7,135.7c10,6,14.6,18.9,17.1,29.7c3.4,14.9,3.1,30.7-0.9,45.5c-0.7,2.5,3.2,3.6,3.9,1.1
					c4.3-15.9,4.5-33,0.5-49c-2.8-11.4-8.1-24.3-18.6-30.7C428.5,130.9,426.5,134.4,428.7,135.7L428.7,135.7z"/>
			</g>
			<g>
				<path class="st2" d="M379.3,129.5c3.5,17.1,4,34.9,3.3,52.3c-0.8,18.1-3.1,36.1-7.6,53.6c-0.3,1,0.3,2.2,1.4,2.5
					c12.3,3.5,21.8-5.5,26.4-16.1c1-2.3-2.4-4.4-3.5-2c-3.9,8.9-11.3,17.3-21.9,14.3c0.5,0.8,0.9,1.6,1.4,2.5
					c9-34.4,11.5-73.1,4.4-108C382.6,126,378.8,127,379.3,129.5L379.3,129.5z"/>
			</g>
			<g>
				<path class="st2" d="M377.3,226.2c-2.7,2.5-5.4,5.2-8.6,7c1,0.6,2,1.2,3,1.7c1.5-17.3,1.9-34.6,2.1-51.9c0.2-18,0.2-36.1-1.2-54
					c-0.2-2.5-4.2-2.6-4,0c1.4,18,1.4,36,1.2,54c-0.2,17.3-0.6,34.7-2.1,51.9c-0.1,1.6,1.8,2.4,3,1.7c3.5-1.9,6.5-4.9,9.5-7.6
					C382,227.3,379.2,224.5,377.3,226.2L377.3,226.2z"/>
			</g>
			<g>
				<path class="st2" d="M355.3,127.1c-5.3,18.7-8.2,38.4-8.1,57.8c0.1,13.8,1.7,27.8,6.5,40.8c1.3,3.6,3.5,12.6,7.6,13.4
					c4.1,0.9,8.4-5,10.1-8c1.3-2.2-2.2-4.3-3.5-2c-0.9,1.6-4.4,6.4-6,5.6c-1.3-0.6-3.5-7.7-3.9-8.8c-2-5.3-3.5-10.8-4.6-16.3
					c-2.3-11.7-2.6-23.8-1.9-35.6c0.9-15.4,3.4-30.9,7.6-45.8C359.8,125.7,356,124.6,355.3,127.1L355.3,127.1z"/>
			</g>
			<g>
				<path class="st2" d="M339.8,127.2c-11.3,21.2-12,47.1-8.3,70.4c1.6,10.4,4.3,20.8,8.7,30.4c1.4,3.1,3,7.2,6.4,8.5
					c4.6,1.8,9.5-1,12.5-4.4c1.7-1.9-1.1-4.8-2.8-2.8c-1.9,2.2-5.4,4.9-8.4,3.2c-1.6-0.9-2.5-3.1-3.3-4.8c-1.7-3.4-3.1-7-4.3-10.6
					c-3-9.2-4.9-18.8-5.9-28.4c-2-20-0.6-41.6,8.9-59.6C344.4,126.9,341,124.9,339.8,127.2L339.8,127.2z"/>
			</g>
			<g>
				<path class="st2" d="M336.8,126.4c-18.1,10.7-21.6,34.5-20.8,53.8c0.8,18.1,4.5,40.4,16.3,54.8c1.6,2,4.4-0.9,2.8-2.8
					c-5-6.1-7.8-13.9-10-21.3c-2.9-9.6-4.6-19.6-5.1-29.5c-0.9-18,1.6-41.3,18.7-51.5C341,128.5,339,125.1,336.8,126.4L336.8,126.4z
					"/>
			</g>
			<g>
				<path class="st2" d="M325.1,136.4c-13.3,17.1-21,37.9-19.4,59.7c1,13.2,4.8,28.6,14.3,38.3c1.8,1.9,4.6-1,2.8-2.8
					c-8.7-9-12.2-23.4-13.1-35.5c-1.5-20.7,5.5-40.6,18.2-56.9C329.5,137.2,326.6,134.4,325.1,136.4L325.1,136.4z"/>
			</g>
			<g>
				<path class="st2" d="M405.6,235.9c28.4-5.8,55.4-24.9,56.8-56.1c1.1-25.4-19.5-46.1-43.3-51.4c-11.7-2.6-24.1-3-36.1-3.7
					c-14.6-0.8-29.9-1.9-44.4,0.3c-13.3,2-26.9,9.1-35.4,19.5c-7.5,9.1-11,20.5-11.6,32.2c-0.6,12.5,1.9,25.3,6.3,37
					c2.6,6.9,6.1,16.1,12.4,20.6c0.6,0.4,1.4,0.3,2,0c1-0.5,1.5-1.7,2.1-2.6c0.5-0.8,0.9-1.5,1.3-2.3c0.4-0.7,1.4-1.5,0.4-1.1
					c2.3-1,0.3-4.4-2-3.4c-2.1,0.9-2,5.1-3.8,6.1c0.7,0,1.3,0,2,0c-4.8-3-7.7-11-9.8-16.2c-3.7-9.1-6.2-19-6.9-28.8
					c-0.8-11,0.6-22.4,6.1-32.2c6.5-11.7,17.9-19.1,30.5-23c11.9-3.7,25-2.9,37.3-2.5c14.2,0.4,28.6,1.1,42.8,3.1
					c21.5,3.1,42.6,17.8,45.8,40.7c1.6,11.7-1.8,23.9-8.4,33.6c-10.3,15.2-27.7,22.9-45.1,26.5C402,232.6,403,236.5,405.6,235.9
					L405.6,235.9z"/>
			</g>
		</g>
		<g>
			<path class="st2" d="M468.2,178.5c-3.3,15.2-9.9,32.3-20.4,44c-1.7,1.9,1.1,4.7,2.8,2.8c11-12.2,18-29.9,21.4-45.8
				C472.6,177,468.7,175.9,468.2,178.5L468.2,178.5z"/>
		</g>
		<g>
			<path class="st2" d="M473.6,186.5c-1.6,17.1-7.5,33.2-17.2,47.3c-1.5,2.1,2,4.1,3.5,2c10.1-14.7,16.1-31.6,17.8-49.4
				C477.8,184,473.8,184,473.6,186.5L473.6,186.5z"/>
		</g>
		<g>
			<path class="st2" d="M474.9,187.1c2.1,10.3,0,21.2-2.7,31.2c-2.3,8.6-5.3,17.4-10,25c-1.4,2.2,2.1,4.2,3.5,2
				c5.1-8.3,8.4-18,10.8-27.3c2.7-10.3,4.4-21.4,2.3-32C478.2,183.5,474.4,184.6,474.9,187.1L474.9,187.1z"/>
		</g>
		<g>
			<path class="st2" d="M486.2,206.3c-2.1,15.6-8.2,32-18.2,44.3c-1.6,2,1.2,4.8,2.8,2.8c10.4-12.9,17-29.7,19.2-46.1
				C490.4,204.9,486.5,203.8,486.2,206.3L486.2,206.3z"/>
		</g>
		<g>
			<path class="st2" d="M490.3,218.9c-2.5,17.5-8.9,35.5-18.4,50.4c-1.4,2.2,2.1,4.2,3.5,2c9.6-15.2,16.2-33.6,18.8-51.4
				C494.5,217.4,490.6,216.3,490.3,218.9L490.3,218.9z"/>
		</g>
		<g>
			<path class="st2" d="M493.9,237.6c-2.1,15.7-9,34.2-21.5,44.5c-2,1.6,0.9,4.5,2.8,2.8c13.3-11,20.5-30.7,22.6-47.4
				C498.2,235.1,494.2,235.1,493.9,237.6L493.9,237.6z"/>
		</g>
		<g>
			<path class="st2" d="M495.3,261.1c-1.6,13.9-9.4,27-18.5,37.4c-1.7,1.9,1.1,4.8,2.8,2.8c9.8-11.2,18-25.2,19.7-40.2
				C499.6,258.6,495.6,258.6,495.3,261.1L495.3,261.1z"/>
		</g>
		<g>
			<path class="st2" d="M495.7,285.3c-4.7,8.7-9.6,17.2-15.9,24.9c-1.6,2,1.2,4.8,2.8,2.8c6.5-8,11.7-16.7,16.6-25.8
				C500.3,285,496.9,283,495.7,285.3L495.7,285.3z"/>
		</g>
		<g>
			<path class="st2" d="M492.3,309.1c-2.8,5-5.8,9.9-9.1,14.6c-1.5,2.1,2,4.1,3.5,2c3.3-4.7,6.3-9.6,9.1-14.6
				C497.1,308.9,493.6,306.9,492.3,309.1L492.3,309.1z"/>
		</g>
		<g>
			<path class="st2" d="M280.5,173.8c1.2,16.9,5.3,36.7,16.1,50.2c1.6,2,4.4-0.8,2.8-2.8c-10-12.5-13.9-31.7-14.9-47.3
				C284.3,171.2,280.3,171.2,280.5,173.8L280.5,173.8z"/>
		</g>
		<g>
			<path class="st2" d="M270.5,185c0.7,8.8,1.3,17.7,3.4,26.3c2.1,8.9,6.1,17,10.2,25.1c1.2,2.3,4.6,0.3,3.5-2
				c-4-7.8-7.8-15.6-9.8-24.2c-2-8.3-2.6-16.8-3.2-25.3C274.3,182.4,270.3,182.4,270.5,185L270.5,185z"/>
		</g>
		<g>
			<path class="st2" d="M259.7,208.5c4.3,12,11.4,22.6,20.8,31.2c1.9,1.7,4.7-1.1,2.8-2.8c-9-8.1-15.7-18-19.8-29.4
				C262.7,205,258.9,206,259.7,208.5L259.7,208.5z"/>
		</g>
		<g>
			<path class="st2" d="M254.5,223c5.7,9.1,13.2,17.5,22.3,23.3c2.2,1.4,4.2-2.1,2-3.5c-8.5-5.4-15.5-13.4-20.8-21.8
				C256.6,218.8,253.1,220.8,254.5,223L254.5,223z"/>
		</g>
		<g>
			<path class="st2" d="M252.2,235.2c4.7,9.8,11.1,18.2,20,24.5c2.1,1.5,4.1-2,2-3.5c-8.3-5.9-14.1-13.9-18.5-23
				C254.5,230.9,251,232.9,252.2,235.2L252.2,235.2z"/>
		</g>
		<g>
			<path class="st2" d="M250.1,246.2c5.1,10.8,11.9,20.8,19.6,30c1.7,2,4.5-0.9,2.8-2.8c-7.5-8.9-14-18.6-18.9-29.2
				C252.4,241.8,249,243.9,250.1,246.2L250.1,246.2z"/>
		</g>
		<g>
			<path class="st2" d="M248.6,265.7c4.3,9.4,10.4,17.7,18,24.7c1.9,1.7,4.7-1.1,2.8-2.8c-7.4-6.8-13.2-14.8-17.4-23.9
				C251,261.3,247.5,263.3,248.6,265.7L248.6,265.7z"/>
		</g>
		<g>
			<path class="st2" d="M248,284c4.9,5.6,10.3,11.1,16.6,15.2c2.2,1.4,4.2-2.1,2-3.5c-6-3.9-11.1-9.2-15.8-14.5
				C249.1,279.2,246.3,282,248,284L248,284z"/>
		</g>
		<g>
			<path class="st2" d="M250.3,300.7c4.2,2.7,7.2,7,12.4,8.1c2.5,0.5,3.6-3.3,1.1-3.9c-4.7-1-7.6-5.2-11.4-7.7
				C250.1,295.8,248.1,299.3,250.3,300.7L250.3,300.7z"/>
		</g>
		<g>
			<path class="st2" d="M249.7,316.2c3,2,6.2,3.5,9.7,4.4c2.5,0.7,3.6-3.2,1.1-3.9c-3.1-0.8-6-2.2-8.7-4
				C249.5,311.3,247.5,314.7,249.7,316.2L249.7,316.2z"/>
		</g>
		<g>
			<path class="st2" d="M335,235.6c1.3-0.4,2.6-1.2,3.8-1.9c1.6-1,3.3-2.2,4.3-3.8c1.3-2.2-2.1-4.2-3.5-2c-0.7,1.1-2,1.9-3.2,2.5
				c-0.6,0.4-1.2,0.7-1.8,1c-0.2,0.1-0.4,0.2-0.6,0.3c0.4-0.2,0,0-0.1,0C331.5,232.5,332.6,236.4,335,235.6L335,235.6z"/>
		</g>
		<g>
			<path class="st2" d="M321.5,235.6c3.9,0.5,8-0.3,10.1-4c1.3-2.2-2.2-4.2-3.5-2c-1.4,2.3-4.3,2.3-6.6,2
				C318.9,231.3,319,235.3,321.5,235.6L321.5,235.6z"/>
		</g>
	</g>
</g>
</svg>
