<?xml version="1.0" encoding="utf-8"?>
<!-- Generator: Adobe Illustrator 19.2.0, SVG Export Plug-In . SVG Version: 6.00 Build 0)  -->
<svg version="1.1" id="Layer_1" xmlns="http://www.w3.org/2000/svg" xmlns:xlink="http://www.w3.org/1999/xlink" x="0px" y="0px"
	 viewBox="0 0 739.6 909.9" style="enable-background:new 0 0 739.6 909.9;" xml:space="preserve">
<style type="text/css">
	.st0{fill:#C47546;}
	.st1{fill:#814927;}
	.st2{fill:#3A291D;}
</style>
<g>
	<path class="st0" d="M254.7,351.2c-4-9.9-5.8-20.9-7.1-30.4l-0.1-0.5l-0.1-0.1l0-0.1l0-0.5c-0.1-0.8-0.2-1.6-0.3-2.4
		c-1-8-1.7-16-2.1-23.8l0-0.3l-0.1-0.2l0.1-0.1l0-0.4c-0.7-17.1,0.2-33.4,2.7-48.3l0.1-0.7l-0.2-0.3c0-0.1,0.3-0.5,0.3-0.5l0.1-0.4
		c1-5.3,2.1-10.5,3.4-15.3c0.9-3.2,1.9-6.4,3-9.5l0.1-0.2l0,0l0,0l0.1-0.2c6.1-16.6,14.8-29.2,26-37.4l0.6-0.4l0-0.1l0.1,0l0.6-0.4
		c5.6-3.9,11.9-6.6,18.6-8.1l0.5-0.1l0.5-0.4c3.2-2.6,6.6-5,10.1-7.2l0.2-0.1l0.1-0.1l0.1,0l0.2-0.1c10.4-6.5,21.6-11.2,33.2-13.8
		c8-1.7,16.5-2.8,25.3-2.8h0.5l0.1,0.1l0.1,0.1l0.5,0c12.4,0.1,25.2,1.9,38.3,5.5l0.1,0c3.4,0.9,6.7,1.9,9.9,3c1.5,0.5,3,1,4.5,1.6
		l0.2,0.1l0.1,0l0.1,0l0.2,0.1c5.1,1.9,10,3.9,14.5,6.1l0.2,0.1l0,0l0,0l0.2,0.1c2,1,3.8,1.9,5.5,2.8c0.6,0.3,1.2,0.6,1.8,0.9
		c3.4,1.8,7.3,3.8,9.6,6.5l0.3,0.4l0.5,0.2c8.3,3.2,15.7,9.1,21.9,17.6c11.9,16.2,18.9,39.1,20.8,68.1c1.9,29-2.3,59.3-12.1,87.8
		c0.2-7.5-0.2-15-0.6-21.7c-1.5-25.5-4.6-47.5-9.6-67.3c-3.9-15.5-10.4-41.4-28.7-50c-4.7-2.8-10.2-4.3-16.9-4.4l-0.3,0l-0.5,0.1
		l-0.2-0.1l-0.6,0c-3.6,0-7.6,0.5-12.5,1.3l-0.5,0.1l-0.2,0.1l-0.2-0.1l-0.7,0.1c-2.1,0.4-4.3,0.8-6.3,1.2c-1.6,0.3-3.2,0.6-4.8,0.9
		l-0.3,0.1l-0.1,0l-0.1,0l-0.4,0.1c-7.4,1.3-14.7,2.6-21.9,3.2l-0.3,0l0,0l-0.1,0l-0.3,0c-2.3,0.2-4.5,0.2-6.6,0.2
		c-1.1,0-2.3,0-3.4-0.1l-0.2,0l-0.2,0l-0.2,0l-0.1,0c-2.2-0.1-4.2-0.3-6.1-0.6c-6.3-0.9-12.7-2.2-18.9-3.5
		c-5.6-1.2-11.5-2.4-17.3-3.3c-4.7-0.7-10.2-1.5-15.7-1.5c-7.7,0-13.7,1.5-18.6,4.6l-0.5,0.3l-0.2,0.4c-3.7,2.6-6.2,7.9-8.2,12.2
		c-0.5,1-0.9,2-1.4,2.8c-5.1,9.9-9.7,20.8-14.1,33.2C259.4,289,253.9,321.1,254.7,351.2z"/>
	<g>
		<path class="st1" d="M488.6,340.4c0-5.2-0.2-10.5-0.5-16.2l-0.1-2l1.7,1.1c1.7,1.1,3.2,2.5,4.3,4.2l0.3,0.4l-0.1,0.4
			c-1,4.1-2.2,8.3-3.5,12.4L488.6,340.4z"/>
		<path class="st1" d="M495.7,313.2c-2.2-2.5-5-4.9-8.9-7.5l-0.4-0.3l-0.1-0.5c-0.2-2.1-0.5-4.3-0.8-6.4l-0.2-1.7l1.6,0.6
			c3.8,1.5,7.5,3.9,11,7.2c0,0,0.1,0.1,0.1,0.1l0.6,0.3l-0.1,0.7c-0.3,2.2-0.7,4.4-1.1,6.9l-0.4,2L495.7,313.2z"/>
		<path class="st1" d="M246.6,313.4c-0.7-6.4-1.2-13-1.5-19.7l0-0.6l0.5-0.3c3.5-2.2,6.5-5.3,9.5-8.2l0.7-0.7
			c2.5-2.5,4.7-4.9,6.8-7.2l1.7,0.9c-1.5,5.4-2.8,10.9-4,16.4l-0.1,0.4l-0.3,0.2c-5.7,4.4-9,12.5-11.4,19L246.6,313.4z"/>
		<path class="st1" d="M498.8,287.5c-4.4-6.7-10.3-12.2-16.5-15.5c0,0-0.1,0-0.1,0l-0.6-0.2l-0.1-0.6c-0.5-2.8-1.1-5.7-1.7-8.4
			l-0.4-1.7l1.7,0.6c6.2,2,13.3,4.7,19.7,8.9l0.4,0.3l0,0.5c0,5.1-0.2,10.4-0.5,15.7l-0.2,2.9L498.8,287.5z"/>
		<path class="st1" d="M245,273.2c0.1-5.1,0.4-10.1,0.8-14.8l0-0.5l0.4-0.3c6.1-3.8,12.2-8.1,18-12.2c4-2.8,8-5.7,12.1-8.4l2.8-1.9
			l-1.3,3.1c-2,4.6-3.9,9.6-5.8,14.6l-0.2,0.5l-0.5,0.1c-0.1,0-0.1,0-0.2,0.1c-11.3,6.6-19.3,13.2-24.5,20.2l-1.9,2.5L245,273.2z"/>
		<path class="st1" d="M498.5,253c-6.4-5.7-14.9-10.3-25.2-13.8c0,0-0.1,0-0.1,0l-0.6-0.1l-0.2-0.5c-1-2.6-2.2-5.2-3.3-7.7l-1-2
			l2.2,0.7c11.4,3.5,21.2,8.3,28.3,13.9c0,0,0.1,0.1,0.1,0.1l0.4,0.2l0.1,0.5c0.4,2.5,0.7,5.1,1,8l0.3,2.5L498.5,253z"/>
		<path class="st1" d="M248.9,236.2c1.3-6.5,3-12.6,5-18.3l0.1-0.4l0.4-0.2c13.4-6.7,27.8-8.9,37.5-9.6l2.4-0.2l-1.6,1.8
			c-2.2,2.5-3.9,6-5.4,9l-0.7,1.4l-0.8-0.3c-0.1,0-0.1,0-0.2,0c0,0-0.1,0-0.1,0c-16.1,3.2-27.5,8.9-34.9,17.6L248.9,236.2z"/>
		<path class="st1" d="M492,220.8c-4.3-3.5-9.9-5.5-15.3-7.5c-10.1-3.7-19.3-5.4-27.5-5.4H449l-0.3-0.2c-3-1.7-6.4-2.8-10.2-3.3
			l-3-0.5l2.7-1.5c3.9-2.1,7.6-5.1,10.7-8.7l0.9-1l0.8-1c4-5.2,6.6-11.1,7.4-16.7l0.2-1.3l1.2,0.5c9.8,4.1,18.1,12,24.8,23.5
			l-1.4,1.4c-6.7-4.1-14.7-6.2-23.8-6.2c-2.4,0-5,0.2-7.5,0.5l-1,0.1l0.2,0.7c0,0.2,0.1,0.2,0.2,0.2c2.8-0.3,5.6-0.5,8.2-0.5
			c10.8,0,19.9,2.9,26.9,8.6c0.1,0.1,0.2,0.1,0.3,0.1l0.6,0.1l0.2,0.5c2.5,5,4.7,10.6,6.6,16.6l1,3.2L492,220.8z"/>
		<path class="st1" d="M341.6,205.7c-5.4-1.1-9.7-1.8-13.7-2.4l-1-0.1l0.1-1c0,0,0-0.1-0.1-0.3c-11.3-9.8-20.1-21.1-24.5-31.7
			l-0.3-0.7l0.6-0.5c2.6-2,5.4-4,8.2-5.7l0.7-0.4l0.6,0.6c10.4,10.5,20.7,24.2,30.6,40.7l1.2,1.9L341.6,205.7z"/>
		<path class="st1" d="M422.5,202.8c4.6-4.4,8.9-10.2,12.6-17.4c3-5.7,6.3-13.2,5.8-20.5l-0.1-1.8l1.6,0.8c0,0,0.7,0.3,0.8,0.4
			c0.7,0.4,1.5,0.7,2.2,1.1c4,2,8.5,4.2,11.5,7.4l0.3,0.3l0,0.4c-1.2,13-12.5,26.6-25,30.2l-0.1,0l-0.1,0c-2.6,0-5.4,0.2-8.6,0.6
			l-3,0.4L422.5,202.8z"/>
		<path class="st1" d="M323.5,202.8c-1.9-0.2-3.6-0.4-5.3-0.5l-1-0.1l0.1-1c0,0,0-0.1-0.1-0.3c-3.2-5.3-8.8-9.5-13.8-13.1
			c-6.6-4.8-12.7-7.7-18.6-9.1l-2.4-0.6l2.1-1.3c4.9-2.9,10.3-5,15.9-6.3l0.8-0.2l0.3,0.8c4.4,10.1,12.5,20.7,22.7,29.9l2.3,2.1
			L323.5,202.8z"/>
		<polygon class="st1" points="319.5,202.1 311.5,202.7 304.3,203.1 301.6,201.2 291,198.8 278.2,197.2 268.1,197.3 263.7,197.9 
			267.3,191.5 279.9,179.2 285.4,177.2 300.1,181.9 314,192.7 		"/>
	</g>
	<g>
		<g>
			<path class="st2" d="M255.9,351.5c-3.7-9-5.5-18.9-7-28.5c-2.1-13.8-3-27.8-3-41.7c0.1-28.7,3.6-60.7,20-85.1
				c8.6-12.8,21-21.8,36.1-24.9c1.9-0.4,1.1-3.3-0.8-2.9c-28.7,5.9-44.4,31.4-51.7,57.9c-8,29.3-8.2,61.1-4.4,91.1
				c1.5,11.7,3.4,23.9,7.9,34.9C253.7,354,256.6,353.3,255.9,351.5L255.9,351.5z"/>
		</g>
		<g>
			<path class="st2" d="M302.2,170.7c40.4-32.2,96.5-27.9,140.5-5.5c4.5,2.3,10.6,4.8,13.9,8.8c1.2,1.5,3.3-0.6,2.1-2.1
				c-2.9-3.6-8.2-5.9-12.1-8.1c-8.3-4.4-17-8.1-25.9-11c-24.2-8.1-50.7-11.4-75.8-5.9c-16.5,3.6-31.6,11.1-44.8,21.6
				C298.6,169.8,300.7,171.9,302.2,170.7L302.2,170.7z"/>
		</g>
		<g>
			<path class="st2" d="M457.3,174.4c19.3,7.1,29.8,27.7,35.5,46.2c7.8,25.3,8.7,52.6,5.6,78.7c-2,17-6,33.8-11.8,49.9
				c-0.6,1.8,2.2,2.6,2.9,0.8c10.3-29,15-60.2,13-90.9c-1.5-23.8-6.8-49.6-21.2-69.2c-6-8.2-13.7-14.9-23.3-18.4
				C456.3,170.9,455.5,173.8,457.3,174.4L457.3,174.4z"/>
		</g>
		<g>
			<path class="st2" d="M285.4,218.5c-15.6,3.1-31.4,9.4-39.6,23.8c-1,1.7,1.6,3.2,2.6,1.5c7.8-13.8,23-19.5,37.8-22.4
				C288,221,287.2,218.1,285.4,218.5L285.4,218.5z"/>
		</g>
		<g>
			<path class="st2" d="M278.1,233.6c-11.2,7.3-21.8,15.5-33.2,22.6c-1.6,1-0.1,3.6,1.5,2.6c11.4-7.1,22-15.3,33.2-22.6
				C281.2,235.2,279.7,232.6,278.1,233.6L278.1,233.6z"/>
		</g>
		<g>
			<path class="st2" d="M270.8,252.8c-10.3,6.1-21.4,14.1-27.6,24.6c-1,1.7,1.6,3.2,2.6,1.5c5.9-10.1,16.6-17.7,26.5-23.5
				C273.9,254.4,272.4,251.8,270.8,252.8L270.8,252.8z"/>
		</g>
		<g>
			<path class="st2" d="M264.9,270.9c-3.1,3.7-6.4,7.3-9.8,10.8c-3.5,3.6-7.1,7.6-11.5,10c-1.7,0.9-0.2,3.5,1.5,2.6
				c4.3-2.4,7.9-6.2,11.3-9.7c3.7-3.7,7.2-7.5,10.5-11.5C268.2,271.5,266.1,269.4,264.9,270.9L264.9,270.9z"/>
		</g>
		<g>
			<path class="st2" d="M259.7,293.5c-7.7,5.7-11.4,17.7-14.2,26.4c-0.6,1.8,2.3,2.6,2.9,0.8c1.6-5,3.6-10,6-14.7
				c1.7-3.4,3.7-7.5,6.9-9.9C262.7,294.9,261.2,292.3,259.7,293.5L259.7,293.5z"/>
		</g>
		<g>
			<path class="st2" d="M370.1,146.7c6.9,7.9,8.6,20,9.2,30c0.7,11.5-0.3,23.3-3.5,34.4c-0.5,1.9,2.4,2.7,2.9,0.8
				c3.5-12.2,4.5-25.3,3.4-38c-0.9-10.1-2.9-21.5-9.8-29.3C370.9,143.1,368.8,145.3,370.1,146.7L370.1,146.7z"/>
		</g>
		<g>
			<path class="st2" d="M392.2,148c3.1,10.5,2.2,22.4,0.4,33.1c-1.6,9.7-4,21.3-10.6,29c-1.2,1.5,0.9,3.6,2.1,2.1
				c7-8.2,9.6-20,11.3-30.3c1.9-11.2,2.9-23.6-0.4-34.7C394.5,145.4,391.6,146.2,392.2,148L392.2,148z"/>
		</g>
		<g>
			<path class="st2" d="M408.7,151.6c2.4,10.1,1.1,21-1.6,30.8c-2.6,9.6-6.8,19.7-14.4,26.5c-1.4,1.3,0.7,3.4,2.1,2.1
				c8-7.1,12.5-17.7,15.2-27.8c2.8-10.4,4.2-21.8,1.6-32.4C411.1,148.9,408.2,149.7,408.7,151.6L408.7,151.6z"/>
		</g>
		<g>
			<path class="st2" d="M423.5,156.3c1.7,8.4-0.9,17.9-3.5,25.9c-2.9,8.8-7.2,18.8-14.8,24.5c-1.5,1.2,0,3.8,1.5,2.6
				c8-6,12.5-15.8,15.8-25.1c3.1-8.8,5.8-19.3,3.9-28.7C426,153.6,423.1,154.4,423.5,156.3L423.5,156.3z"/>
		</g>
		<g>
			<path class="st2" d="M438.6,162.6c1.7,7.7-2.2,16.3-5.8,22.9c-3.9,7.1-8.8,14.2-15.4,19c-1.5,1.1-0.1,3.7,1.5,2.6
				c7.4-5.3,13-13.3,17.1-21.2c3.7-7.1,7.3-15.8,5.5-24C441.1,159.9,438.2,160.7,438.6,162.6L438.6,162.6z"/>
		</g>
		<g>
			<path class="st2" d="M456.2,173c-0.9,12.9-12.4,26.6-24.7,30c-1.9,0.5-1.1,3.4,0.8,2.9c13.7-3.8,25.9-18.7,26.9-32.9
				C459.4,171.1,456.4,171.1,456.2,173L456.2,173z"/>
		</g>
		<g>
			<path class="st2" d="M300.1,170.2c5.2,12.6,15.1,24.4,25.3,33.2c1.5,1.3,3.6-0.9,2.1-2.1c-9.8-8.5-19.5-19.7-24.5-31.8
				C302.3,167.6,299.4,168.4,300.1,170.2L300.1,170.2z"/>
		</g>
		<g>
			<path class="st2" d="M310.4,163.3c12.6,12.6,23.5,28.2,32.6,43.5c1,1.7,3.6,0.2,2.6-1.5c-9.2-15.4-20.4-31.4-33.1-44.1
				C311.2,159.8,309,161.9,310.4,163.3L310.4,163.3z"/>
		</g>
		<g>
			<path class="st2" d="M328.2,155.6c8.9,6.4,15.6,15.7,21.2,25c5.5,9.1,10.1,19,12.7,29.3c0.5,1.9,3.4,1.1,2.9-0.8
				c-2.7-11.1-7.8-21.7-13.8-31.4c-5.7-9.3-12.6-18.3-21.5-24.7C328.2,151.9,326.7,154.5,328.2,155.6L328.2,155.6z"/>
		</g>
		<g>
			<path class="st2" d="M356.1,148.6c6.5,9,9.6,20.2,11.9,30.9c2.2,10.4,3.8,21.3,3,32c-0.1,1.9,2.9,1.9,3,0
				c0.8-10.9-0.8-22.1-3.1-32.8c-2.3-10.9-5.6-22.5-12.2-31.6C357.6,145.6,355,147.1,356.1,148.6L356.1,148.6z"/>
		</g>
		<g>
			<path class="st2" d="M280.8,180c8,0.9,15.3,5,21.7,9.6c4.6,3.3,9.9,7.4,13,12.3c1,1.6,3.6,0.1,2.6-1.5c-3.3-5.4-9-9.7-14-13.4
				c-6.9-5-14.7-9.1-23.2-10C278.9,176.8,278.9,179.8,280.8,180L280.8,180z"/>
		</g>
		<g>
			<path class="st2" d="M264.1,199.4c12.5-2.5,27.4-0.1,39.3,4.2c1.8,0.7,2.6-2.2,0.8-2.9c-12.4-4.5-27.8-6.9-40.8-4.2
				C261.4,196.8,262.2,199.7,264.1,199.4L264.1,199.4z"/>
		</g>
		<g>
			<path class="st2" d="M254.8,218.3c12.3-6.1,27-9.2,40.6-9.7c1.9-0.1,1.9-3.1,0-3c-14.2,0.6-29.3,3.8-42.1,10.2
				C251.6,216.5,253.1,219.1,254.8,218.3L254.8,218.3z"/>
		</g>
		<g>
			<path class="st2" d="M451.1,195.3c12-1.5,24.6,0,34.3,7.9c1.5,1.2,3.6-0.9,2.1-2.1c-10.3-8.3-23.5-10.3-36.4-8.7
				C449.2,192.6,449.1,195.6,451.1,195.3L451.1,195.3z"/>
		</g>
		<g>
			<path class="st2" d="M449.1,209.7c8.4,0,16.8,1.9,24.7,4.6c6.7,2.2,15.7,5.2,20.1,11.2c1.1,1.5,3.7,0,2.6-1.5
				c-4.4-6.1-12.5-9.2-19.3-11.7c-8.9-3.2-18.5-5.6-28-5.6C447.1,206.7,447.1,209.7,449.1,209.7L449.1,209.7z"/>
		</g>
		<g>
			<path class="st2" d="M294.5,206.5c-4.3,2.9-6.9,9.5-9.3,13.9c-5.5,10.5-10.1,21.5-14.2,32.6c-11.5,31.6-18.4,65.3-17.4,99
				c0.1,1.9,3.1,1.9,3,0c-1-32.5,5.5-65,16.3-95.5c4-11.3,8.5-22.3,14-33c2.2-4.2,4.9-11.6,9-14.4
				C297.6,208,296.1,205.4,294.5,206.5L294.5,206.5z"/>
		</g>
		<g>
			<path class="st2" d="M448.7,209.9c17.1,8,23.5,32.1,27.7,48.7c5.5,21.9,8.2,44.5,9.5,66.9c0.5,8.1,0.8,16.3,0.4,24.4
				c-0.1,1.9,2.9,1.9,3,0c0.9-18.3-1-37-3.3-55.1c-2.9-22.6-7-46.4-17.3-66.9c-4.2-8.2-9.9-16.6-18.5-20.6
				C448.5,206.5,447,209.1,448.7,209.9L448.7,209.9z"/>
		</g>
		<g>
			<path class="st2" d="M295.2,209.4c9.5-7.2,23.3-5.5,34.3-3.8c12.2,1.8,24.1,5.1,36.2,6.8c13.5,1.9,27.1-0.5,40.4-2.9
				c13.4-2.4,30.1-7.1,42.6,0.5c1.7,1,3.2-1.6,1.5-2.6c-11.5-7-26-4.2-38.4-1.9c-15.7,2.8-31.5,6.2-47.5,3.7
				c-12.8-2-25.4-5.4-38.3-7c-10.6-1.3-23.2-2.1-32.3,4.7C292.2,207.9,293.7,210.5,295.2,209.4L295.2,209.4z"/>
		</g>
		<g>
			<path class="st2" d="M467.4,229.6c10.5,3,21.9,7.7,30.5,14.5c1.5,1.2,3.6-0.9,2.1-2.1c-9-7.2-20.8-12.2-31.9-15.3
				C466.3,226.2,465.5,229.1,467.4,229.6L467.4,229.6z"/>
		</g>
		<g>
			<path class="st2" d="M472.8,241.1c9.8,3.3,19.7,8.4,27,15.9c1.3,1.4,3.5-0.7,2.1-2.1c-7.6-7.9-18-13.2-28.3-16.7
				C471.8,237.6,471,240.5,472.8,241.1L472.8,241.1z"/>
		</g>
		<g>
			<path class="st2" d="M478.4,261.8c7.8,2.5,15.6,5.3,22.4,10c1.6,1.1,3.1-1.5,1.5-2.6c-7-4.8-15.1-7.7-23.1-10.3
				C477.3,258.3,476.6,261.2,478.4,261.8L478.4,261.8z"/>
		</g>
		<g>
			<path class="st2" d="M481.2,273.7c7.2,3.9,13.5,10.6,17.6,17.7c1,1.7,3.6,0.2,2.6-1.5c-4.3-7.5-11-14.6-18.7-18.8
				C481,270.2,479.5,272.8,481.2,273.7L481.2,273.7z"/>
		</g>
		<g>
			<path class="st2" d="M485.7,298.2c4.3,1.5,8.3,4.2,11.6,7.3c1.4,1.3,3.5-0.8,2.1-2.1c-3.7-3.5-8.1-6.4-12.9-8.1
				C484.7,294.6,483.9,297.5,485.7,298.2L485.7,298.2z"/>
		</g>
		<g>
			<path class="st2" d="M485.4,307.2c3.9,2.6,7.8,5.5,10.5,9.4c1.1,1.6,3.7,0.1,2.6-1.5c-3-4.3-7.2-7.6-11.5-10.4
				C485.3,303.5,483.8,306.1,485.4,307.2L485.4,307.2z"/>
		</g>
		<g>
			<path class="st2" d="M487,322.9c2.6,1.2,4.7,3,6.3,5.3c1.1,1.6,3.7,0.1,2.6-1.5c-1.9-2.8-4.4-5-7.4-6.4
				C486.8,319.5,485.2,322.1,487,322.9L487,322.9z"/>
		</g>
	</g>
</g>
</svg>
