<?xml version="1.0" encoding="utf-8"?>
<!-- Generator: Adobe Illustrator 19.2.0, SVG Export Plug-In . SVG Version: 6.00 Build 0)  -->
<svg version="1.1" id="Layer_1" xmlns="http://www.w3.org/2000/svg" xmlns:xlink="http://www.w3.org/1999/xlink" x="0px" y="0px"
	 viewBox="0 0 739.6 909.9" style="enable-background:new 0 0 739.6 909.9;" xml:space="preserve">
<style type="text/css">
	.st0{fill-rule:evenodd;clip-rule:evenodd;fill:#C47546;}
	.st1{fill-rule:evenodd;clip-rule:evenodd;fill:#814927;}
	.st2{fill-rule:evenodd;clip-rule:evenodd;fill:#8F522E;}
	.st3{fill:#3A291D;}
</style>
<g>
	<g>
		<path class="st0" d="M256.3,360.2l1.2-2.7l2.4-22.4l1.2-20l2.4-15.3v-16.5l-6-27.1l1.2-9.4l10.7-24.8l7.2-11.8l4.8,3.5l24.5,10.2
			l10.1,2.4l9.5,5.1l7.2,4.7l6-14.1l13.1,18.9l39.4-36.5L378,228.9l7.2-2.4l7.2-1.2l9.5-5.9l16.7-14.1l3.8,5.5l28.4-26.8l-4.8,15.3
			l-6,10.6l10.7-9.4h7.2l11.9,13l14.3,28.3l1.2,10.6c0,0-0.6,21.2-1.2,22.4c-0.6,1.2-2.4,15.3-2.4,15.3l-2.4,9.4l2.4,15.3l4.8,37.7
			l-1.5,6.7c0.7,0.1,1.4,0.3,2.1,0.5l2.9-9.5l6-18.9l7.2-17.7l4.8-17.7l7.2-53.1l-1.2-18.9l-3.6-16.5l-6-13l-6-10.6l-8.4-13l6-8.3
			l6-16.5l1.2-15.3l-3.6-16.5l-3.6,2.4L494.9,91l-4.8,5.9l-7.2,13l-8.4,20.6l-2.3-21.8l-3.6-20l-6-9.4l2.4,13l-3.6,15.3l-13.8-29.2
			l-8.9-13.3l-6-4.7l-8.4-10.6l-1.2,8.3l-2.4,17.7l-6,21.2l-2.4-13V55.6l-6,8.3V47.4l-14.3,13l-27.8,16.6l-5.6,4.7l-13.1,3.5
			l-8.4,3.5L313.6,104l2.4-10.6l-8.4,6.7l-21.1,21.6l-4-3.5l-25.3,30.4l-5.7,26.2l-4.8,5.9l-19.1,50.7V249l3.6,27.1L256.3,360.2z"/>
	</g>
	<path class="st1" d="M428.1,53.5l6.6,13.9V91l-2.4,5.9l-7.2,14.1l-7.2,16.5l-9.5,15.3l-11.9,16.5l8.4-23.6l3.6-14.1l4.8-20l2.1-6.4
		l0.3,1.7l6-21.2l4.5-24.7L428.1,53.5z M390.9,61.3l-7.6,10.8l-15.5,21.2l-10.7,20l-11.9,25.9l-4.8,25.9L338,190v20l2.2,13.3l-1-1.5
		l0,0.1c-1.8-3.4-5-9.6-4.7-10.7c0.3-1.5-3.6-15.3-3.6-15.3l1.2-27.1l4.8-24.8l6-25.9l8.4-21.2l8.4-15.3l6-4.7L390.9,61.3z
		 M496.7,331.5l-6,18.9l-3.1,10.2l-0.5,0.5c0,0-0.4-1.2-1.1-3.2l1.1-5.1l-4.8-37.7l-2.4-15.3l2.4-9.4c0,0,1.8-14.1,2.4-15.3
		c0.6-1.2,1.2-22.4,1.2-22.4l-1.2-10.6l-6-11.8l-8.4-16.5l-11.9-13h-1.2l13.1-8.3l14.3-13l6.9-6.8l7.4,11.5l6,10.6l6,13l3.6,16.5
		c0,0,1.5,14.2,1.2,18.9C514.1,265.6,496.7,331.5,496.7,331.5z M412,175.9l8.4-14.1l6-16.5l4.8-16.5l4.2-11.5l-0.6,18.6l-2.4,29.5
		c0,0-7.2,28.6-7.2,30.7c0,2.1-4.8,8.3-4.8,8.3l-4,3.5l-10.1,8.6l-9.8,6.8l-4.1,2.4l-6.6,1.1l-6.7,1.9l1.8-3.9l4.3-8.1l10.1-12.3
		l9.5-15.3L412,175.9z M276.5,211.3l-6.4,10.6l-10.7,24.8l-1.2,9.4l6,27.1v16.5l-2.4,15.3l-1.2,20l-2.1,20.1l-2.8,3.2l-13.1-38.6
		l-6-23.6l-8.2-47.2v-17.7l3.6-21.2l15.5-29.5l3.7-4.5l2.3,4.5l10.7,15.3L276.5,211.3z M309.5,98.4l8.3-4.5l-6,13.7l-9.5,15.3
		l-9.5,14.1c0,0-6.6,15-7.2,16.5s-4.5,15.3-4.8,16.5c-0.3,1.2-1.2,16.5-1.2,16.5l2.4,17.7v9.4l0,0l-9.5-8.3l-4.8-14.1l-1.2-17.7
		L270,157l3.6-14.1l9.5-15.3l8.4-10.6l11.9-14.1l0,0L309.5,98.4z M484.7,154.7l-9.5,18.9c0,0-15.8,20.3-16.7,21.2
		c-0.4,0.4-3.8,3.2-7.1,5.9h-0.1l-0.9,0.8c-3.2,2.6-6.2,5.1-6.2,5.1l2.4-7.1l0,0l0,0l1.2-3.5l8.4-22.4l2.8-5.9l-1.6-2.3
		c0,0,3.3-19.5,3.6-20c0.3-0.6,1.2-14.1,1.2-14.1v-17.7c0,0,0.4-6.3,0.7-13.2l0.8,4l1-12l-0.7-9.1c1.4,2.9,4.4,9.2,6.8,14.2l2,11.5
		l1.2,6.5v8.8l0.2,2.9l2.1-1.7l4.8-10.6l8.4-14.1l4.8-5.9v18.9v13l-2.4,10.6L484.7,154.7z"/>
	<g>
		<path class="st2" d="M383.8,188.9l8.4-21.2l8.4-23.6l6-20l3.6-20l3.2-33L412,59.2c0,0-12.4,40.5-31.8,89.6
			c-18.8,47.6-28.6,90.8-28.6,90.8l6-7.1l15.5-24.8L383.8,188.9z M371.8,137l16.7-37.7l15.5-35.4l4.4-14c-0.2,0-36.8,46.6-55.7,97.7
			c-18.4,49.8-6,90.8-6,90.8h3.6l2-30.7l5.1-31.8L371.8,137z M346.8,108.7c0,0,14.5-25.5,15-27.1c0.2-0.8-35.4,30.8-42.4,70.7
			c-6.8,38.9,11.9,86.1,11.9,86.1l7-18.2l-5.8-13.6c0,0-2.3-18.2-2.6-18.9c-0.2-0.7,0.4-25.7,0.2-27.1c-0.2-1.4,6-24.8,6-24.8
			L346.8,108.7z M433.9,119.4V97c0,0-7.5,29.1-22.7,57.8c-18.5,35-45.3,70.7-45.3,70.7l11.9-9.4c0,0,21-18.2,21.5-18.9
			c0.5-0.7,15.5-29.5,15.5-29.5s12.6-29.7,13.1-30.7C428.4,136.1,433.9,119.4,433.9,119.4z M458.9,111.1l-4.8-16.5l-8.4-17.7
			l-11.9-13c0-0.1,13.2,30.6,11.2,76.4c-1.5,33.4-24.3,72.1-24.3,72.1l10.7-9.4l13.1-13l7.2-10.6c0,0,4.3-10.6,4.8-11.8
			c0.5-1.2,2.4-21.2,2.4-21.2l1.2-21.2L458.9,111.1z"/>
	</g>
	<g>
		<g>
			<g>
				<path class="st3" d="M321.5,226c-12.4-2.7-24.4-7.5-35.8-13c-0.5-0.2-1.5-0.5-1.8-0.9c-1-1.1,1.2,1.3,0.1-0.7
					c-1.8-3.2-1.7-9.6-2-13.1c-0.7-7.9-0.5-15.9,0.6-23.7c2.2-16.1,8.2-30.8,16.7-44.6c8.1-13.2,17.5-25.7,23.6-40
					c1-2.3-2.5-4.4-3.5-2c-6.6,15.7-17.2,29.1-25.8,43.7c-8.5,14.5-13.9,30.3-15.5,47c-0.8,8.4-0.6,16.8,0.5,25.1
					c0.6,4.2,0.2,10.2,4.3,12.3c11.7,6.1,24.7,11,37.6,13.8C323,230.4,324,226.6,321.5,226L321.5,226z"/>
			</g>
		</g>
		<g>
			<g>
				<path class="st3" d="M319.6,87.2c-19.6,18-39.8,36.9-49.6,62.2c-8.7,22.2-7.4,48.2,10.3,65.6c1.8,1.8,4.7-1,2.8-2.8
					c-17.9-17.6-17.4-44.1-7.6-65.8c10.3-22.6,28.9-39.8,46.9-56.4C324.3,88.3,321.5,85.5,319.6,87.2L319.6,87.2z"/>
			</g>
		</g>
		<g>
			<g>
				<path class="st3" d="M281.5,135c2.9-7.8,8.3-16,9.6-24.3c0.3-2.2-2.4-3.6-3.7-1.5c-4.5,7-11,12.8-16.5,19
					c-6.7,7.6-13,15.7-17,25c-4,9.4-5,19.8-1.4,29.5c5.1,14.1,17,24.4,28.9,32.7c2.1,1.5,4.1-2,2-3.5c-11.8-8.2-24.2-18.9-28-33.4
					c-2.6-9.8-0.2-19.7,4.5-28.5c4.5-8.3,10.7-15.6,17-22.6c4.8-5.2,10.2-10.3,14-16.3c-1.2-0.5-2.4-1-3.7-1.5
					c-1.3,8.3-6.7,16.4-9.6,24.3C276.8,136.3,280.7,137.4,281.5,135L281.5,135z"/>
			</g>
		</g>
		<g>
			<g>
				<path class="st3" d="M352.7,240.5c-37.7-48.7-15.4-116,14.4-162.6c1-1.6-1.1-3.9-2.7-2.7c-14.2,10.1-29,19.4-39,34
					c-1.5,2.1,2,4.1,3.5,2c9.6-14,23.9-22.9,37.5-32.6c-0.9-0.9-1.8-1.8-2.7-2.7c-31,48.4-52.7,117.2-13.8,167.4
					C351.5,245.4,354.3,242.5,352.7,240.5L352.7,240.5z"/>
			</g>
		</g>
		<g>
			<g>
				<path class="st3" d="M366.5,78.6c9.7-7.3,20.4-13.6,31.4-19c-0.8-1-1.6-2.1-2.4-3.1c-10.2,12.7-21.2,24.3-30.2,37.9
					c-14.8,22.5-25.2,47.8-28.7,74.6c-2.5,18.9-1.4,38,2.6,56.7c0.5,2.5,4.4,1.5,3.9-1.1c-6.5-31.1-4.3-63,7.2-92.7
					c8.1-20.9,20.3-40,34.7-57.1c4.4-5.2,9.1-10.2,13.4-15.5c1.4-1.8-0.3-4.2-2.4-3.1c-10.9,5.4-21.7,11.7-31.4,19
					C362.4,76.7,364.4,80.2,366.5,78.6L366.5,78.6z"/>
			</g>
		</g>
		<g>
			<g>
				<path class="st3" d="M398.2,59.3c3.7-3.4,7.7-6.5,11.5-9.8c-1.1-0.5-2.3-0.9-3.4-1.4c-2.3,20.9-13.9,40.8-22.7,59.5
					c-12,25.5-23,51.5-29.1,79.1c-4,18.1-5.7,36.7-5.1,55.2c0.1,2.6,4.1,2.6,4,0c-1-32.4,5.6-64.1,17.1-94.3
					c9-23.8,21.2-46.1,31-69.6c4-9.6,7.6-19.5,8.8-29.9c0.2-1.9-2.2-2.4-3.4-1.4c-3.8,3.3-7.8,6.3-11.5,9.8
					C393.5,58.3,396.3,61.1,398.2,59.3L398.2,59.3z"/>
			</g>
		</g>
		<g>
			<g>
				<path class="st3" d="M386.7,110.3c9.9-17.6,17.3-36.6,27.5-54.1c-1.2-0.3-2.5-0.7-3.7-1c5,47.3-9.7,97.1-31.2,138.7
					c-8.5,16.5-18.5,32.2-29.7,47c-1.6,2.1,1.9,4,3.5,2c34-45,57.5-99.4,61.7-156c0.8-10.6,0.8-21.2-0.3-31.8
					c-0.2-1.9-2.6-2.9-3.7-1c-10.2,17.4-17.6,36.5-27.5,54.1C382,110.5,385.4,112.5,386.7,110.3L386.7,110.3z"/>
			</g>
		</g>
		<g>
			<g>
				<path class="st3" d="M418.8,217.6c36.1-28.5,69.2-77.1,52.7-125.2c-1.9-5.6-4.6-11.8-9.3-15.7c-1.5-1.3-3.9-0.1-3.3,1.9
					c3.2,12.2,3.4,27.1-0.1,39.3c-0.7,2.5,3.1,3.5,3.9,1.1c3.8-12.9,3.5-28.5,0.1-41.4c-1.1,0.6-2.2,1.3-3.3,1.9
					c9.1,7.8,11.5,23.3,12,34.5c1,21.9-6.5,43.4-18.4,61.5c-9.9,15.2-22.9,28-37.1,39.2C413.9,216.4,416.8,219.2,418.8,217.6
					L418.8,217.6z"/>
			</g>
		</g>
		<g>
			<g>
				<path class="st3" d="M440.5,213.1c34.5-22.9,54.4-65.3,56.5-106c0.3-5.4,0.6-11.7-1.4-16.9c-0.5-1.4-2.9-2.2-3.7-0.5
					c-6.8,15-13.5,30.4-21.9,44.6c-1.3,2.2,2.1,4.2,3.5,2c8.5-14.2,15.2-29.5,21.9-44.6c-1.2-0.2-2.4-0.3-3.7-0.5
					c1.6,4.1,1.4,8.9,1.3,13.2c-0.2,7.6-1.2,15.1-2.8,22.5c-4.1,19.6-11.8,38.7-23.4,55c-7.7,10.9-17.3,20.3-28.4,27.6
					C436.4,211,438.4,214.5,440.5,213.1L440.5,213.1z"/>
			</g>
		</g>
		<g>
			<g>
				<path class="st3" d="M419.3,216.7c18.1-43.1,23-93.4,17.5-139.6c-0.6-5.5-1.2-11.4-3.1-16.7c-1.1,0.6-2.2,1.3-3.3,1.9
					c36.3,28.6,33.5,83.4,19.3,122.8c-3.3,9.1-7.4,18.1-13.1,26c-1.5,2.1,2,4.1,3.5,2c11.4-15.8,17.5-35.8,20.8-54.8
					c3.9-22.6,3.8-47.1-5-68.6c-4.9-11.9-12.5-22.3-22.7-30.3c-1.4-1.1-4.1-0.1-3.3,1.9c2.3,6.2,2.8,13.2,3.4,19.7
					c1.2,12.4,1.6,25,1.2,37.5c-0.8,33-6.2,66.4-19.1,97C414.4,218,418.3,219,419.3,216.7L419.3,216.7z"/>
			</g>
		</g>
		<g>
			<g>
				<path class="st3" d="M412.6,109.8c7.2-19,12.8-39.9,14-60.2c-1.1,0.5-2.3,0.9-3.4,1.4c3,2.5,5.3,6.9,6.7,10.5
					c0.9,2.4,4.8,1.3,3.9-1.1c-1.7-4.2-4.1-9.4-7.7-12.3c-1.4-1.1-3.3-0.4-3.4,1.4c-1.2,20-6.9,40.5-13.9,59.2
					C407.8,111.1,411.7,112.2,412.6,109.8L412.6,109.8z"/>
			</g>
		</g>
		<g>
			<g>
				<path class="st3" d="M482.5,163.1c5.1-7.2,8.4-15.9,11.4-24.2c2.8-7.9,5.5-16.1,6.6-24.4c-1.1,0.5-2.3,0.9-3.4,1.4
					c1.4,1.7,2.5,7.2,3,10.2c1.2,7.2,1,14.8-0.5,21.9c-5.5,25.8-26.8,43.3-49.5,54.5c-2.3,1.1-0.3,4.6,2,3.5
					c19.9-9.8,38.7-24.2,47.6-45.1c5.1-12,6.5-25.5,3.8-38.2c-0.7-3.2-1.5-7-3.6-9.6c-1.2-1.5-3.2-0.1-3.4,1.4
					c-1,7.9-3.8,15.8-6.5,23.3c-2.9,8-6,16.3-11,23.2C477.5,163.2,481,165.2,482.5,163.1L482.5,163.1z"/>
			</g>
		</g>
		<g>
			<g>
				<path class="st3" d="M276.5,209.6c-7.5,11.3-13.9,23.5-18.6,36.2c-1.1,3-2.8,6.9-2.5,10.3c0.3,3.3,2.5,6.8,3.4,10.1
					c3.1,11.3,5.2,24.2,3.3,35.9c-1.7,10.3-3.2,20.6-4.4,30.9c-1,8.8-2.3,17.8-2.5,26.7c1.1-0.5,2.3-0.9,3.4-1.4
					c-0.5-0.4-1.5-3.2-1.9-4.4c-1.3-3.5-2.5-7-3.6-10.5c-3.5-11-6.7-22-9.6-33.2c-3.5-13.1-6.6-26.4-9.1-39.8
					c-2.1-11.1-4-22.5-3.7-33.8c0.5-22.6,12.8-42.6,23.2-61.9c1.2-2.3-2.2-4.3-3.5-2c-9.5,17.5-20.2,35.3-23,55.3
					c-1.7,12-0.1,24.2,1.9,36c4.3,26.3,11.2,52.5,19.2,77.9c1.4,4.5,2.9,9,4.6,13.4c0.6,1.6,1.3,4.5,2.8,5.7c1.3,1,3.4,0.5,3.4-1.4
					c0.2-7,1.2-14.1,1.9-21c1.2-10.8,2.3-21.5,4.2-32.2c1.9-10.5,1.4-20.8-0.5-31.3c-0.9-5.3-2.1-10.6-3.9-15.6
					c-1.3-3.4-1.7-4.5-0.7-8.2c4-14.1,11.6-27.6,19.6-39.7C281.3,209.5,277.9,207.5,276.5,209.6L276.5,209.6z"/>
			</g>
		</g>
		<g>
			<g>
				<path class="st3" d="M455.8,203.1c11.3,7.8,18.5,20.8,23.3,33.3c2.4,6.3,6.4,15.4,4.9,21.9c-2.6,11-4.4,22.3-5.6,33.5
					c-1.2,11.1,1.1,21.9,2.4,33c1.4,11.5,3.6,23.3,3.9,34.9c0.1,2.2,3.3,2.7,3.9,0.5c9.4-32.9,22-65.5,27-99.5
					c2.1-14.3,2.7-28.7-1.1-42.7c-4.4-16.1-13-30.7-20.9-45.3c-1.2-2.3-4.7-0.2-3.5,2c7.7,14.3,16.2,28.5,20.5,44.3
					c4.1,14.8,3,30.3,0.4,45.3c-5.5,32.3-17.2,63.4-26.2,94.8c1.3,0.2,2.6,0.4,3.9,0.5c-0.3-10.3-2.2-20.8-3.4-31.1
					c-1.4-11.6-4.2-23.5-3.1-35.2c1.1-11.8,3.5-23.5,5.8-35.1c1.4-7.2-2.6-16.3-5.2-22.9c-5.3-13.6-12.9-27.2-25.2-35.7
					C455.7,198.2,453.7,201.6,455.8,203.1L455.8,203.1z"/>
			</g>
		</g>
		<g>
			<g>
				<path class="st3" d="M426.2,183.2c-6.3,22.2-24.8,42.8-49.2,44.4c0.6,1,1.2,2,1.7,3c29.3-42.2,63.2-89.6,58.8-143.7
					c-0.2-2.1-3.4-2.9-3.9-0.5c-2.8,11.9-8.9,23.1-14.7,33.8c-8.2,15.1-17.2,29.7-26.3,44.4c-1.4,2.2,2.1,4.2,3.5,2
					c9.3-15.1,18.6-30.2,27-45.8c5.7-10.5,11.6-21.6,14.3-33.3c-1.3-0.2-2.6-0.4-3.9-0.5c4.3,53.3-29.3,100.1-58.2,141.7
					c-0.8,1.2,0.3,3.1,1.7,3c26.2-1.6,46.2-23.3,53-47.3C430.7,181.8,426.9,180.7,426.2,183.2L426.2,183.2z"/>
			</g>
		</g>
		<g>
			<g>
				<path class="st3" d="M354,242.8c12.8-13.2,26.3-26.2,40.9-37.4c2-1.5,0-5-2-3.5c-14.9,11.4-28.6,24.6-41.7,38
					C349.4,241.8,352.2,244.6,354,242.8L354,242.8z"/>
			</g>
		</g>
		<g>
			<g>
				<path class="st3" d="M340.3,222.4c0-0.1,0.1-0.1,0.1-0.2c0.5-0.7,0.3-1.9-0.3-2.4c-0.1-0.1-0.1-0.1-0.2-0.2
					c-0.9-0.7-2.5-0.9-3.1,0.4c-2.8,5.7-3.5,12.6-5.8,18.6c1.1-0.3,2.2-0.6,3.3-0.9c-11.7-10-21.6-22.2-26.4-37
					c-4-12.1-4.5-25-2.2-37.5c4.1-22.9,16.2-44.1,30.8-61.9c5.3-6.5,11.1-13.1,17.9-18.1c1.6-1.2,0.7-4.6-1.5-3.7
					c-17.4,7.3-33.7,18.8-46.6,32.6c-1.8,1.9,1.1,4.7,2.8,2.8c12.4-13.2,28.1-24.5,44.8-31.6c-0.5-1.2-1-2.4-1.5-3.7
					c-15.1,11.3-27.2,28.1-36.3,44.4c-12.4,22.3-20,48.8-13.1,74.1c4.6,16.9,15.4,31.1,28.6,42.4c1.2,1,2.8,0.6,3.3-0.9
					c0.7-1.7,1.3-3.5,1.9-5.2c1.3-3.9,1.8-8.8,3.6-12.4c-1,0.1-2.1,0.3-3.1,0.4c0.1,0.1,0.1,0.1,0.2,0.2c-0.1-0.8-0.2-1.6-0.3-2.4
					c0,0.1-0.1,0.1-0.1,0.2C335.4,222.5,338.9,224.5,340.3,222.4L340.3,222.4z"/>
			</g>
		</g>
		<g>
			<g>
				<path class="st3" d="M463.2,206.1c12.6-4.1,23.9-10.9,33.6-20c1.9-1.8-1-4.6-2.8-2.8c-9.1,8.6-19.9,15-31.8,18.9
					C459.7,203,460.7,206.9,463.2,206.1L463.2,206.1z"/>
			</g>
		</g>
		<g>
			<g>
				<path class="st3" d="M467.4,212.3c13-4.7,23.9-13.1,31.9-24.4c1.5-2.1-2-4.1-3.5-2c-7.3,10.4-17.5,18.2-29.5,22.6
					C464,209.3,465,213.2,467.4,212.3L467.4,212.3z"/>
			</g>
		</g>
		<g>
			<g>
				<path class="st3" d="M474.3,218.8c11.2-4.5,22-9.8,32.4-16.2c2.2-1.3,0.2-4.8-2-3.5c-10,6.2-20.5,11.4-31.4,15.8
					C470.9,215.9,471.9,219.8,474.3,218.8L474.3,218.8z"/>
			</g>
		</g>
		<g>
			<g>
				<path class="st3" d="M481.2,235.5c2.6,0,2.6-4,0-4C478.6,231.5,478.6,235.5,481.2,235.5L481.2,235.5z"/>
			</g>
		</g>
		<g>
			<g>
				<path class="st3" d="M481.7,235.4c11.1-3.3,21.8-7.5,32.1-12.6c2.3-1.2,0.3-4.6-2-3.5c-10,5-20.4,9.1-31.1,12.2
					C478.2,232.3,479.2,236.1,481.7,235.4L481.7,235.4z"/>
			</g>
		</g>
		<g>
			<g>
				<path class="st3" d="M486.1,243.7c8.7-7.4,18.2-13.7,28.3-19c2.3-1.2,0.3-4.6-2-3.5c-10.4,5.4-20.1,12-29.1,19.6
					C481.3,242.6,484.2,245.4,486.1,243.7L486.1,243.7z"/>
			</g>
		</g>
		<g>
			<g>
				<path class="st3" d="M487,261.6c8.9-1.2,17.5-0.8,26.1,1.8c2.5,0.8,3.5-3.1,1.1-3.9c-8.9-2.8-17.9-3.2-27.2-2
					C484.4,257.9,484.4,261.9,487,261.6L487,261.6z"/>
			</g>
		</g>
		<g>
			<g>
				<path class="st3" d="M483.1,283.3c7.7-0.7,15.6-0.8,23.2,1.2c2.5,0.6,3.6-3.2,1.1-3.9c-7.9-2.1-16.1-2-24.2-1.4
					C480.6,279.5,480.5,283.6,483.1,283.3L483.1,283.3z"/>
			</g>
		</g>
		<g>
			<g>
				<path class="st3" d="M487,254.2c8.5-0.3,16.8,0.2,25.2,1.5c2.5,0.4,3.6-3.4,1.1-3.9c-8.7-1.4-17.4-2-26.3-1.7
					C484.5,250.3,484.5,254.3,487,254.2L487,254.2z"/>
			</g>
		</g>
		<g>
			<g>
				<path class="st3" d="M479.8,289.6c3,3.5,7.6,5.5,11.7,7.4c3.9,1.7,8.1,3.5,12.4,4.3c2.5,0.5,3.6-3.4,1.1-3.9
					c-7.2-1.3-17.4-5-22.3-10.6C481,284.8,478.1,287.6,479.8,289.6L479.8,289.6z"/>
			</g>
		</g>
		<g>
			<g>
				<path class="st3" d="M480.7,303c6.6,2.3,13.2,5.3,20.2,6c2.6,0.3,2.5-3.7,0-4c-6.7-0.7-12.9-3.7-19.2-5.9
					C479.4,298.2,478.3,302.1,480.7,303L480.7,303z"/>
			</g>
		</g>
		<g>
			<g>
				<path class="st3" d="M482.6,317.1c3.1,1.3,6.4,2.2,9.6,3c2,0.5,4.7,1.5,6.8,1c2.5-0.6,1.4-4.4-1.1-3.9c-0.8,0.2-4.6-1-6.1-1.4
					c-2.8-0.7-5.6-1.5-8.2-2.6C481.3,312.2,480.3,316.1,482.6,317.1L482.6,317.1z"/>
			</g>
		</g>
		<g>
			<g>
				<path class="st3" d="M484.9,326c3.9,0.4,7.8,2.2,11.6,2.2c2.6,0,2.6-4,0-4c-1.1,0-3.5-0.7-5-1c-2.2-0.5-4.4-1-6.7-1.2
					C482.3,321.7,482.3,325.7,484.9,326L484.9,326z"/>
			</g>
		</g>
		<g>
			<g>
				<path class="st3" d="M244,186.7c3.7,6.3,7.5,12.5,12.4,17.9c4.9,5.5,10.7,9.9,16.6,14.2c2.1,1.5,4.1-2,2-3.5
					c-11.8-8.6-20.1-18.2-27.5-30.7C246.2,182.5,242.7,184.5,244,186.7L244,186.7z"/>
			</g>
		</g>
		<g>
			<g>
				<path class="st3" d="M240.3,194.4c8.8,9.9,18.9,17.6,30.7,23.5c2.3,1.1,4.3-2.3,2-3.5c-11.5-5.8-21.3-13.3-29.9-22.9
					C241.5,189.6,238.6,192.5,240.3,194.4L240.3,194.4z"/>
			</g>
		</g>
		<g>
			<g>
				<path class="st3" d="M234.6,205.5c7.7,11.5,18.2,20.5,30,27.6c2.2,1.3,4.2-2.1,2-3.5c-11.3-6.7-21.2-15.2-28.6-26.1
					C236.6,201.3,233.2,203.3,234.6,205.5L234.6,205.5z"/>
			</g>
		</g>
		<g>
			<g>
				<path class="st3" d="M231.9,213.6c8.2,9.3,16.9,17.9,26.2,26c1.9,1.7,4.8-1.1,2.8-2.8c-9.3-8.1-18-16.7-26.2-26
					C233,208.8,230.2,211.7,231.9,213.6L231.9,213.6z"/>
			</g>
		</g>
		<g>
			<g>
				<path class="st3" d="M227.5,238.1c3.7,4.4,7.7,8.7,12.6,11.7c5,3,10.7,4.6,16.3,6c2.5,0.6,3.6-3.2,1.1-3.9
					c-5.3-1.3-10.7-2.7-15.4-5.6c-4.7-2.8-8.4-6.9-11.8-11.1C228.7,233.3,225.9,236.1,227.5,238.1L227.5,238.1z"/>
			</g>
		</g>
		<g>
			<g>
				<path class="st3" d="M228.2,250.5c9.4,5.1,19,9.2,29.3,12.2c2.5,0.7,3.5-3.1,1.1-3.9c-10-2.9-19.3-6.9-28.4-11.8
					C227.9,245.8,225.9,249.3,228.2,250.5L228.2,250.5z"/>
			</g>
		</g>
		<g>
			<g>
				<path class="st3" d="M233.4,275.8c10.1,1.5,21.9,5.3,29.5,12.4c1.9,1.8,4.7-1.1,2.8-2.8c-8.1-7.5-20.5-11.8-31.3-13.4
					C232,271.5,230.9,275.4,233.4,275.8L233.4,275.8z"/>
			</g>
		</g>
		<g>
			<g>
				<path class="st3" d="M234.8,284.1c4.1,0.7,8.2,2,12.2,3.3c5.2,1.8,11.4,3.8,15.1,8.1c1.7,1.9,4.5-0.9,2.8-2.8
					c-3.7-4.2-9.5-6.4-14.6-8.3c-4.7-1.7-9.6-3.3-14.5-4.1C233.4,279.8,232.3,283.6,234.8,284.1L234.8,284.1z"/>
			</g>
		</g>
		<g>
			<g>
				<path class="st3" d="M240.4,306.4c6.2,3.4,12.6,5.8,19.5,7.1c2.5,0.5,3.6-3.4,1.1-3.9c-6.6-1.3-12.7-3.4-18.6-6.7
					C240.2,301.7,238.2,305.1,240.4,306.4L240.4,306.4z"/>
			</g>
		</g>
		<g>
			<g>
				<path class="st3" d="M242.8,314.1c5.2,2.3,10.4,4.1,16,5.1c2.5,0.5,3.6-3.4,1.1-3.9c-5.2-1-10.2-2.5-15-4.7
					C242.5,309.6,240.4,313,242.8,314.1L242.8,314.1z"/>
			</g>
		</g>
		<g>
			<g>
				<path class="st3" d="M515.2,235.6c-5.2,0.5-9.9,2.5-14.7,4.4c-2.4,0.9-1.3,4.8,1.1,3.9c4.4-1.8,8.9-3.8,13.7-4.2
					C517.7,239.3,517.8,235.3,515.2,235.6L515.2,235.6z"/>
			</g>
		</g>
		<g>
			<g>
				<path class="st3" d="M478.5,228c4.1-1.3,8.1-3,12.2-4.3c2.4-0.8,1.4-4.6-1.1-3.9c-4.1,1.3-8.1,3-12.2,4.3
					C474.9,225,476,228.8,478.5,228L478.5,228z"/>
			</g>
		</g>
		<g>
			<g>
				<path class="st3" d="M229.1,223.6c4.4,6.1,9.7,10.6,15.7,15.1c2.1,1.5,4.1-1.9,2-3.5c-5.4-4-10.3-8.1-14.2-13.6
					C231,219.5,227.6,221.5,229.1,223.6L229.1,223.6z"/>
			</g>
		</g>
		<g>
			<g>
				<path class="st3" d="M261.5,271.3c-4.4-2.9-10-4-15-5.2c-2.5-0.6-3.6,3.3-1.1,3.9c4.7,1.1,10,2.1,14.1,4.8
					C261.6,276.1,263.6,272.7,261.5,271.3L261.5,271.3z"/>
			</g>
		</g>
		<g>
			<g>
				<path class="st3" d="M237.9,293.6c2.3,0.5,4.8,1.7,6.6,3.3c1.9,1.7,4.7-1.1,2.8-2.8c-2.3-2-5.4-3.7-8.4-4.3
					C236.5,289.2,235.4,293.1,237.9,293.6L237.9,293.6z"/>
			</g>
		</g>
		<g>
			<g>
				<path class="st3" d="M254.7,302.9c2,1.1,4,2.1,6,3.2c2.3,1.2,4.3-2.3,2-3.5c-2-1.1-4-2.1-6-3.2
					C254.4,298.3,252.4,301.7,254.7,302.9L254.7,302.9z"/>
			</g>
		</g>
		<g>
			<g>
				<path class="st3" d="M257,219c3.5,2.6,7.1,4.9,10.9,7c2.3,1.2,4.3-2.2,2-3.5c-3.8-2.1-7.4-4.4-10.9-7C257,214,255,217.4,257,219
					L257,219z"/>
			</g>
		</g>
		<g>
			<g>
				<path class="st3" d="M500.3,292c1.8,0.4,3.6,0.7,5.4,1.1c1.1,0.2,2.2-0.3,2.5-1.4c0.3-1-0.3-2.2-1.4-2.5
					c-1.8-0.4-3.6-0.7-5.4-1.1c-1.1-0.2-2.2,0.3-2.5,1.4C498.6,290.5,499.2,291.7,500.3,292L500.3,292z"/>
			</g>
		</g>
		<g>
			<g>
				<path class="st3" d="M485.7,338.9c2.1,0.3,3.8,0.8,5.6,1.8c2.3,1.2,4.3-2.2,2-3.5c-2.1-1.2-4.2-1.9-6.6-2.2
					c-1.1-0.2-2.1,0.3-2.5,1.4C484.1,337.4,484.6,338.8,485.7,338.9L485.7,338.9z"/>
			</g>
		</g>
		<g>
			<g>
				<path class="st3" d="M502,217.4c3.1-1.5,6.2-3,9.3-4.5c2.3-1.1,0.3-4.6-2-3.5c-3.1,1.5-6.2,3-9.3,4.5
					C497.7,215,499.7,218.5,502,217.4L502,217.4z"/>
			</g>
		</g>
		<g>
			<g>
				<path class="st3" d="M250.1,341.4c1.6-0.1,3.3,0.6,4.8,1.2c1.5,0.6,2.8,1.2,4.1-0.1c1.9-1.7-0.9-4.6-2.8-2.8
					c1.1-0.2,1.3-0.5,0.5-0.7c-0.3-0.1-0.6-0.3-1-0.4c-0.6-0.2-1.1-0.4-1.7-0.6c-1.3-0.4-2.6-0.7-3.9-0.6
					C247.6,337.6,247.5,341.6,250.1,341.4L250.1,341.4z"/>
			</g>
		</g>
		<g>
			<g>
				<path class="st3" d="M321.7,114.8c-9.8,19.5-15.6,40.7-13.5,62.6c2.1,22.2,11.6,42.4,23.2,61.2c1.4,2.2,4.8,0.2,3.5-2
					c-11.2-18.1-20.6-37.7-22.7-59.2c-2.1-21.2,3.4-41.7,12.9-60.6C326.3,114.5,322.8,112.5,321.7,114.8L321.7,114.8z"/>
			</g>
		</g>
		<g>
			<g>
				<path class="st3" d="M310,108.3c-9.9,14.1-15.2,31.9-17.4,48.8c-3.1,23.4,0.7,47.1,12.3,67.8c1.3,2.2,4.7,0.2,3.5-2
					c-11.5-20.4-15-44-11.5-67.1c2.4-15.8,7.4-32.2,16.7-45.4C314.9,108.2,311.4,106.2,310,108.3L310,108.3z"/>
			</g>
		</g>
		<g>
			<g>
				<path class="st3" d="M485.2,265.4c7.4,5.7,15.6,9.4,24.8,11.3c2.5,0.5,3.6-3.3,1.1-3.9c-8.9-1.8-16.6-5.4-23.8-10.9
					C485.1,260.4,483.2,263.9,485.2,265.4L485.2,265.4z"/>
			</g>
		</g>
		<g>
			<g>
				<path class="st3" d="M243.4,321.2c4.5,3.9,10.5,5.7,16,7.8c2.4,0.9,3.5-3,1.1-3.9c-4.8-1.8-10.3-3.3-14.2-6.7
					C244.3,316.7,241.4,319.5,243.4,321.2L243.4,321.2z"/>
			</g>
		</g>
		<g>
			<g>
				<path class="st3" d="M246.3,330.3c4,2.3,8.2,3.8,12.7,4.7c2.5,0.5,3.6-3.4,1.1-3.9c-4.2-0.8-8-2.2-11.7-4.3
					C246.1,325.6,244.1,329.1,246.3,330.3L246.3,330.3z"/>
			</g>
		</g>
	</g>
</g>
</svg>
