<?xml version="1.0" encoding="utf-8"?>
<!-- Generator: Adobe Illustrator 19.2.0, SVG Export Plug-In . SVG Version: 6.00 Build 0)  -->
<svg version="1.1" id="Layer_1" xmlns="http://www.w3.org/2000/svg" xmlns:xlink="http://www.w3.org/1999/xlink" x="0px" y="0px"
	 viewBox="0 0 739.6 909.9" style="enable-background:new 0 0 739.6 909.9;" xml:space="preserve">
<style type="text/css">
	.st0{fill-rule:evenodd;clip-rule:evenodd;fill:#D6AA89;}
	.st1{fill-rule:evenodd;clip-rule:evenodd;fill:#FFFFFF;}
	.st2{fill-rule:evenodd;clip-rule:evenodd;fill:#85AA5E;}
	.st3{fill:#627F40;}
	.st4{fill:#3A291D;}
	.st5{fill:#EFEFEF;}
	.st6{fill:#7A7B7B;}
</style>
<g>
	<g>
		<path class="st0" d="M453.6,322c-1.2-7.2-5.9-9.4-5.9-9.4l-7.1-2.4l-8.3-1.2l-9.4-1.2l-7.1,1.2l-10.6,2.4c0,0-5.8,2.9-10.6,10.6
			c-4.6,7.5-7.5,8.5-4.9,11.8c2.7,3.2,6.2-0.2,9.5-0.8c3.3-0.6,16.6-6.3,16.6-6.3h10.7l11.9,3.5l5.9,5.9c0,0,5,3.7,7.1,0
			C456.4,327.9,454,324.1,453.6,322z"/>
	</g>
	<g>
		<g>
			<polygon class="st1" points="439.5,329.1 431.2,327.9 413.5,327.9 412.4,338.5 414.7,340.9 423,342.1 432.4,340.9 438.3,338.5 
				441.8,332.6 			"/>
		</g>
		<g>
			<polygon class="st2" points="432.4,326.7 421.8,327.9 415.9,327.9 417.1,335 423,338.5 428.9,337.3 433.6,331.5 			"/>
		</g>
		<g>
			<g>
				<path class="st3" d="M415.3,329.4c0.2,5.2,3.2,9.4,8.8,9.3c4.6-0.1,9.4-3,10.4-7.7c0.3-1.3-1.6-1.8-1.9-0.5
					c-0.8,3.6-4.3,5.9-7.9,6.2c-4.6,0.4-7.2-2.9-7.3-7.3C417.3,328.1,415.3,328.1,415.3,329.4L415.3,329.4z"/>
			</g>
			<g>
				<path class="st4" d="M401.4,333.6c6.9-3.5,14.5-5,22.1-4.7c5.6,0.2,12.6,1.1,16.6,5.5c1.7,1.9,4.6-0.9,2.8-2.8
					c-4.5-4.9-11.8-6.2-18.1-6.6c-8.8-0.5-17.7,1.2-25.5,5.2C397,331.3,399.1,334.7,401.4,333.6L401.4,333.6z"/>
			</g>
			<g>
				<path class="st4" d="M412.8,340c-0.9-3.4-0.5-7,1.8-9.8c1.7-2-1.2-4.8-2.8-2.8c-3.3,3.9-4.2,8.8-2.9,13.6
					C409.6,343.5,413.4,342.5,412.8,340L412.8,340z"/>
			</g>
			<g>
				<path class="st4" d="M411.2,343.2c9.9,1.1,26.5,1,32.1-9.2c1.2-2.3-2.2-4.3-3.5-2c-4.8,8.7-20.3,8.1-28.6,7.2
					C408.6,338.9,408.7,342.9,411.2,343.2L411.2,343.2z"/>
			</g>
			<g>
				<path class="st4" d="M409.8,341.5c2.9,8,8.7,13.9,16.5,17.3c1.8,0.8,3.3-1.8,1.5-2.6c-7-3.1-12.5-8.3-15.1-15.5
					C412,338.9,409.1,339.7,409.8,341.5L409.8,341.5z"/>
			</g>
		</g>
		<g>
			<path class="st4" d="M401.7,323.3c12.1-2.7,29.1-3.1,40.2,3c1.7,0.9,3.2-1.6,1.5-2.6c-11.9-6.6-29.5-6.2-42.5-3.4
				C399,320.8,399.8,323.7,401.7,323.3L401.7,323.3z"/>
		</g>
	</g>
	<g>
		<path class="st0" d="M361.5,329.8c-0.4-2.5-2.3-5.2-4.5-8.2c-5.5-7.2-17.9-10.2-17.9-10.2l-10.6-2.4l-7.1-1.2L312,309l-8.3,1.2
			l-7.1,2.4c0,0-10.4,10.9-3.9,23.6c1.9,3.8,7.1,0,7.1,0l5.9-5.9l11.9-3.5h10.7c0,0,1.4,0.8,3.4,1.9h0c0,0,2.7,9.2,1.2,13.7
			c-4.4,12.7-19.9,15.4-16.5,16.5c12.5,3.9,26.5-10.6,29.5-9.4C348.8,350.5,363.4,334.9,361.5,329.8z"/>
	</g>
	<g>
		<g>
			<polygon class="st1" points="330.8,327.9 313.1,327.9 304.9,329.1 302.5,332.6 306.1,338.5 312,340.9 321.4,342.1 329.6,340.9 
				332,338.5 			"/>
		</g>
		<g>
			<polygon class="st2" points="322.6,327.9 312,326.7 310.8,331.5 315.5,337.3 321.4,338.5 327.3,335 328.5,327.9 			"/>
		</g>
		<g>
			<g>
				<path class="st3" d="M328,329.4c-0.1,4.7-3.3,7.7-8.1,7.3c-3.4-0.3-7.9-2.6-7.2-6.7c0.2-1.3-1.7-1.8-1.9-0.5
					c-0.9,5.2,3.9,8.6,8.6,9.1c6.1,0.7,10.4-3.2,10.6-9.2C330.1,328.1,328.1,328.1,328,329.4L328,329.4z"/>
			</g>
			<g>
				<path class="st4" d="M345,330.1c-7.9-4-16.7-5.7-25.5-5.2c-6.3,0.4-13.6,1.7-18.1,6.6c-1.7,1.9,1.1,4.7,2.8,2.8
					c4-4.4,11-5.3,16.6-5.5c7.7-0.2,15.3,1.3,22.1,4.7C345.3,334.7,347.3,331.3,345,330.1L345,330.1z"/>
			</g>
			<g>
				<path class="st4" d="M335.5,341c1.3-4.9,0.4-9.8-2.9-13.6c-1.7-2-4.5,0.9-2.8,2.8c2.3,2.8,2.8,6.3,1.8,9.8
					C330.9,342.5,334.8,343.5,335.5,341L335.5,341z"/>
			</g>
			<g>
				<path class="st4" d="M333.2,339.2c-8.3,0.9-23.8,1.5-28.6-7.2c-1.2-2.3-4.7-0.2-3.5,2c5.6,10.2,22.2,10.3,32.1,9.2
					C335.7,342.9,335.7,338.9,333.2,339.2L333.2,339.2z"/>
			</g>
			<g>
				<path class="st4" d="M331.7,340.8c-2.6,7.3-8.1,12.5-15.1,15.5c-1.8,0.8-0.2,3.4,1.5,2.6c7.7-3.4,13.6-9.3,16.5-17.3
					C335.3,339.7,332.4,338.9,331.7,340.8L331.7,340.8z"/>
			</g>
		</g>
		<g>
			<path class="st4" d="M343.5,320.4c-13-2.9-30.6-3.3-42.5,3.4c-1.7,0.9-0.2,3.5,1.5,2.6c11.1-6.2,28.1-5.7,40.2-3
				C344.5,323.7,345.3,320.8,343.5,320.4L343.5,320.4z"/>
		</g>
	</g>
	<g>
		<path class="st5" d="M456.3,316.9c-8.1-5-18.4-7.5-30.8-7.5c-8.7,0-18.5,1.3-28.2,3.8c-2.5-2.2-5-8-4.2-11
			c0.7-2.8,5.2-4.3,8.2-5.3c4.8-1.6,10-2.6,15.4-3l0.2,0c1.2-0.1,2.3-0.2,3.2-0.2c0.6,0,1.1,0,1.6,0c3.6,0,4.3,0.4,4.9,3.2l0.4,1.7
			l1.8-0.1c0.8-0.1,1.7-0.1,2.5-0.1c5.7,0,12.4,1.5,17.8,4c-0.1,0.1-0.1,0.1-0.2,0.2l-0.6,0.5l-0.1,0.8c0,0-0.3,1.3-0.3,1.3l0.9,0.8
			C452.3,308.6,455.8,312.1,456.3,316.9z"/>
		<g>
			<g>
				<path class="st6" d="M398.3,312.7c-2.2-1.9-5.4-8.1-4-10.9c1.4-2.7,6.8-3.9,9.5-4.6c4-1.1,8.2-1.9,12.3-2.3
					c1.9-0.2,3.7-0.3,5.6-0.3c3,0,3.7-0.1,4.1,3.4c0.1,0.7,0.6,1.6,1.5,1.5c7-0.8,15.4,0.8,21.8,3.8c-0.2-0.6-0.5-1.1-0.7-1.7
					c0.3-1.2-1.4,1.1-1.8,1.5c-0.7,0.8-0.5,1.8,0.3,2.4c4.1,3.1,8.4,6.9,8.5,12.4c0.8-0.4,1.5-0.9,2.3-1.3
					c-17.1-11.1-42-9.1-60.8-4.2c-1.9,0.5-1.1,3.4,0.8,2.9c18.1-4.6,42.1-6.7,58.5,3.9c1,0.6,2.3-0.2,2.3-1.3c-0.1-6.7-5-11.2-10-15
					c0.1,0.8,0.2,1.6,0.3,2.4c0.7-0.7,2.3-1.7,2.5-2.8c0.1-0.6-0.1-1.4-0.7-1.7c-6.8-3.2-15.7-5.1-23.3-4.2c0.5,0.5,1,1,1.5,1.5
					c-0.8-6.1-2.9-6.5-8.7-6.4c-6.5,0.2-13.2,1.3-19.3,3.3c-3.4,1.1-8.6,2.8-9.6,6.7c-1,4,2,10.5,5,13.1
					C397.6,316.1,399.7,314,398.3,312.7z"/>
			</g>
			<g>
				<path class="st6" d="M403,311.7c-1-4.5-1.5-12,2.7-15.3c1.5-1.2-0.6-3.3-2.1-2.1c-5,3.9-4.7,12.7-3.4,18.2
					C400.5,314.4,403.4,313.6,403,311.7L403,311.7z"/>
			</g>
			<g>
				<path class="st6" d="M409.2,310.9c-0.3-6,3.2-13.1,8.3-16.3c1.6-1,0.1-3.6-1.5-2.6c-6,3.7-10.2,11.8-9.8,18.8
					C406.3,312.8,409.3,312.8,409.2,310.9L409.2,310.9z"/>
			</g>
			<g>
				<path class="st6" d="M417.6,309.9c1.5-4.5,5.8-9.4,10.5-10.5c1.9-0.4,1.1-3.3-0.8-2.9c-5.7,1.3-10.8,7.2-12.6,12.6
					C414.1,310.9,417,311.7,417.6,309.9L417.6,309.9z"/>
			</g>
			<g>
				<path class="st6" d="M430.9,311c5.9-3.3,10.9-5.7,17.9-5.6c-0.5-0.5-1-1-1.5-1.5c0.2-0.3,0.3-0.6,0.5-0.9
					c-1.6,1-0.1,3.6,1.5,2.6c0.7-0.4,0.9-0.9,1-1.7c0.1-0.8-0.7-1.5-1.5-1.5c-7.4-0.1-13.1,2.5-19.4,6
					C427.7,309.3,429.2,311.9,430.9,311L430.9,311z"/>
			</g>
		</g>
	</g>
	<g>
		<path class="st5" d="M289.1,316.9c8.1-5,18.4-7.5,30.8-7.5c8.7,0,18.5,1.3,28.2,3.8c2.5-2.2,5-8,4.2-11c-0.7-2.8-5.2-4.3-8.2-5.3
			c-4.8-1.6-10-2.6-15.4-3l-0.2,0c-1.2-0.1-2.3-0.2-3.2-0.2c-0.6,0-1.1,0-1.6,0c-3.6,0-4.3,0.4-4.9,3.2l-0.4,1.7l-1.8-0.1
			c-0.8-0.1-1.7-0.1-2.5-0.1c-5.7,0-12.4,1.5-17.8,4c0.1,0.1,0.1,0.1,0.2,0.2l0.6,0.5l0.1,0.8c0,0,0.3,1.3,0.3,1.3l-0.9,0.8
			C293.1,308.6,289.6,312.1,289.1,316.9z"/>
		<g>
			<g>
				<path class="st6" d="M349.3,314.8c2.9-2.5,5.7-8.8,5-12.7c-0.7-4.2-6.1-6-9.6-7.1c-6-2-12.5-3-18.8-3.3c-6-0.2-8.5,0-9.3,6.4
					c0.5-0.5,1-1,1.5-1.5c-7.6-0.9-16.5,1-23.3,4.2c-0.6,0.3-0.8,1.1-0.7,1.7c0.3,1.1,1.8,2,2.5,2.8c0.1-0.8,0.2-1.6,0.3-2.4
					c-5,3.8-9.9,8.3-10,15c0,1.1,1.3,1.9,2.3,1.3c16.4-10.7,40.4-8.6,58.5-3.9c1.9,0.5,2.7-2.4,0.8-2.9c-18.9-4.8-43.7-6.9-60.8,4.2
					c0.8,0.4,1.5,0.9,2.3,1.3c0.1-5.5,4.4-9.3,8.5-12.4c0.8-0.6,1-1.6,0.3-2.4c-0.4-0.4-2-2.6-1.8-1.5c-0.2,0.6-0.5,1.1-0.7,1.7
					c6.4-3,14.7-4.7,21.8-3.8c0.9,0.1,1.4-0.8,1.5-1.5c0.4-3.2,0.8-3.3,3.6-3.4c1.8,0,3.7,0.1,5.5,0.2c4.3,0.4,8.7,1.2,12.9,2.3
					c2.7,0.8,7.5,1.8,9.2,4.3c1.8,2.8-1.4,9.2-3.7,11.2C345.7,314,347.8,316.1,349.3,314.8z"/>
			</g>
			<g>
				<path class="st6" d="M345.3,312.5c1.3-5.5,1.6-14.3-3.4-18.2c-1.5-1.2-3.6,0.9-2.1,2.1c4.1,3.2,3.7,10.7,2.7,15.3
					C342,313.6,344.9,314.4,345.3,312.5L345.3,312.5z"/>
			</g>
			<g>
				<path class="st6" d="M339.3,310.9c0.3-7-3.8-15.2-9.8-18.8c-1.7-1-3.2,1.6-1.5,2.6c5.1,3.1,8.6,10.3,8.3,16.3
					C336.2,312.8,339.2,312.8,339.3,310.9L339.3,310.9z"/>
			</g>
			<g>
				<path class="st6" d="M330.8,309.1c-1.8-5.4-6.9-11.2-12.6-12.6c-1.9-0.4-2.7,2.5-0.8,2.9c4.7,1.1,9,6,10.5,10.5
					C328.5,311.7,331.4,310.9,330.8,309.1L330.8,309.1z"/>
			</g>
			<g>
				<path class="st6" d="M316.1,308.4c-6.3-3.5-12-6.2-19.4-6c-0.8,0-1.6,0.7-1.5,1.5c0.1,0.8,0.3,1.2,1,1.7c1.6,1,3.1-1.6,1.5-2.6
					c0.2,0.3,0.3,0.6,0.5,0.9c-0.5,0.5-1,1-1.5,1.5c6.9-0.1,12,2.3,17.9,5.6C316.3,311.9,317.8,309.3,316.1,308.4L316.1,308.4z"/>
			</g>
		</g>
	</g>
</g>
</svg>
