<?xml version="1.0" encoding="utf-8"?>
<!-- Generator: Adobe Illustrator 19.2.0, SVG Export Plug-In . SVG Version: 6.00 Build 0)  -->
<svg version="1.1" id="Layer_1" xmlns="http://www.w3.org/2000/svg" xmlns:xlink="http://www.w3.org/1999/xlink" x="0px" y="0px"
	 viewBox="0 0 620 400" style="enable-background:new 0 0 620 400;" xml:space="preserve">
<style type="text/css">
	.st0{fill:#995239;}
	.st1{opacity:0.75;}
	.st2{fill:#773c2a;}
	.st3{fill:#4a292a;}
</style>
<g>
	<g>
		<g>
			<g>
				<path class="st0" d="M557.4,222.2c-14.9-14.4-84-60-113.9-70c-1.8-0.6-4.5-2.1-6.5-4.9c-10-14.5-31.7-48.5-44.8-61.8
					c8,12.4-3.9,48.9-6.3,78.5c-0.6,7-9,42.9-10.5,49.5c-2.9,21.5-8,37.5-14.3,63.8c-3,12.7-4.7,21.1-7.9,34.6l-4.2,18.5l-7.3,32.1
					c82.7-4.3,182.2-40.4,209.6-61.6C579.4,279.4,581.7,245.7,557.4,222.2z"/>
			</g>
		</g>
		<path class="st0" d="M62.5,222.2c14.9-14.4,84-60,113.9-70c1.8-0.6,4.5-2.1,6.5-4.9c10-14.5,31.7-48.5,44.8-61.8
			c-8,12.4,3.9,48.9,6.3,78.5c0.6,7,9,42.9,10.5,49.5c2.9,21.5,8,37.5,14.3,63.8c3,12.7,4.7,21.1,7.9,34.6l4.2,18.5l7.3,32.1
			c-82.8-4.3-182.2-40.4-209.7-61.6C40.6,279.4,38.2,245.7,62.5,222.2z"/>
	</g>
	<g class="st1">
		<path class="st2" d="M388.1,356.2l56.7-157.4l1.4-5.3c0,0,2.8-0.2,3.2,5.3c0.4,5.4-50,156-50,156l-12,2.4L388.1,356.2z"/>
		<path class="st2" d="M437.1,184.1l11.1-13.3c0,0,1.9,0.9,1.7,2.8s-8.9,15.6-8.9,15.6l-2.9-2.9L437.1,184.1z"/>
		<path class="st2" d="M231.2,356.2l-56.7-157.4l-1.4-5.3c0,0-2.8-0.2-3.2,5.3c-0.4,5.4,50,157,50,157l12,2.4L231.2,356.2z"/>
		<path class="st2" d="M182.2,184.1l-11.1-13.3c0,0-1.9,0.9-1.7,2.8s8.9,15.6,8.9,15.6l2.9-2.9L182.2,184.1z"/>
		<path class="st2" d="M421.9,303.7l32.6,0.9l36.3,3.5c0,0-12.7-9.2-35.1-10.4C433.4,296.3,421.9,303.7,421.9,303.7z"/>
		<path class="st2" d="M427.7,313.8c-3.1,2.2-0.4,7,3,8.4s19.6-1.3,27.2-0.8c7.6,0.4,10,1.7,13.2,1.2s8.1-6.9,6.9-8.8
			S432.4,310.6,427.7,313.8z"/>
	</g>
	<g>
		<g>
			<path class="st3" d="M389.1,85.4c4.2,9.7,3.5,21.5,2.6,31.8c-1,12.1-3.3,24-5.6,35.9c-2.8,14.3-5.7,28.6-8.8,42.9
				c-8.5,39.4-17.5,78.7-26.5,118c-3.6,16-7.3,32-10.9,48.1c-0.6,2.5,3.3,3.6,3.9,1.1c7.7-34.3,15.6-68.6,23.4-103
				c7.8-34.7,15.6-69.3,22.5-104.2c2.5-12.6,4.9-25.2,6.1-38c1-11.4,1.5-23.8-3.1-34.5C391.5,81,388.1,83,389.1,85.4L389.1,85.4z"/>
		</g>
		<g>
			<path class="st3" d="M389.7,85.8c8,7.3,14.5,16.3,20.7,25.1c7.1,10.1,13.7,20.5,20.1,31c4.7,7.7,9.2,15.4,13.6,23.3
				c0.6,1,1.1,2.1,1.7,3.1c0.9,1.4-0.1,0.9,0.3,0.2c-2.5,4.8-6.4,9.1-9.8,13.3c-1.6,2,1.2,4.8,2.8,2.8c2.7-3.5,5.5-6.9,8-10.5
				c1.4-2,3.4-4,2.7-6.6c-1.2-4-4.4-8-6.5-11.6c-9.9-17.2-20.4-34.2-32-50.4c-5.7-7.9-11.7-15.9-18.9-22.5
				C390.6,81.3,387.7,84.1,389.7,85.8L389.7,85.8z"/>
		</g>
		<g>
			<path class="st3" d="M388.2,149c11.7,5.7,22,14.6,31.7,23.2c8.2,7.2,16.3,14.6,23.7,22.7c1.7,1.9,4.6-0.9,2.8-2.8
				c-7.7-8.4-16.2-16.1-24.7-23.6c-9.7-8.4-19.9-17.2-31.5-22.9C387.9,144.5,385.9,147.9,388.2,149L388.2,149z"/>
		</g>
		<g>
			<path class="st3" d="M443,193.8c-6.5,22.8-15,45.2-23.1,67.5c-11.5,31.8-23.3,63.5-34.6,95.3c-0.9,2.4,3,3.5,3.9,1.1
				c11.3-31.9,23-63.6,34.6-95.3c8.1-22.3,16.6-44.6,23.1-67.5C447.6,192.4,443.7,191.3,443,193.8L443,193.8z"/>
		</g>
		<g>
			<path class="st3" d="M402.3,192.6c5.8,6.3,13.6,11.7,21.3,15.4c2.3,1.1,4.3-2.3,2-3.5c-7.4-3.6-14.9-8.7-20.5-14.8
				C403.3,187.9,400.5,190.7,402.3,192.6L402.3,192.6z"/>
		</g>
		<g>
			<path class="st3" d="M418.1,306c11.5-1.1,23.4-0.1,34.9,0.5c12.1,0.7,24.4,1.2,36.3,3.4c2.5,0.5,3.6-3.4,1.1-3.9
				c-11.9-2.2-24.1-2.8-36.1-3.5c-11.9-0.7-24.2-1.7-36.2-0.6C415.6,302.2,415.6,306.2,418.1,306L418.1,306z"/>
		</g>
		<g>
			<path class="st3" d="M437.7,151.6c42.2,20,87.6,40.7,120.5,74.8c1.8,1.9,4.6-1,2.8-2.8c-33.1-34.4-78.7-55.3-121.3-75.4
				C437.4,147.1,435.4,150.5,437.7,151.6L437.7,151.6z"/>
		</g>
		<g>
			<path class="st3" d="M439.5,315.2c0,0,14,0,21,0c3,0,3-4,0-4c-7,0-14,0-21,0C437.5,311.2,437.5,315.2,439.5,315.2
				C439.5,315.2,437.5,315.2,439.5,315.2z"/>
		</g>
		<g>
			<path class="st3" d="M447.2,323.5c5-0.5,10-0.4,15,0.2c2.5,0.3,2.5-3.7,0-4c-5-0.6-10-0.7-15-0.2
				C444.7,319.7,444.6,323.7,447.2,323.5L447.2,323.5z"/>
		</g>
		<g>
			<path class="st3" d="M227.4,83.4c-4,9.2-4.1,19.7-3.5,29.6c0.7,11.7,2.7,23.3,4.8,34.9c2.9,15.3,6,30.5,9.3,45.7
				c8.7,40.2,17.8,80.3,27,120.4c3.7,16.4,7.5,32.8,11.2,49.2c0.6,2.5,4.4,1.4,3.9-1.1c-7.5-33.3-15.2-66.6-22.7-99.9
				c-7.6-33.8-15.4-67.7-22.1-101.7c-2.5-12.7-5.1-25.4-6.6-38.2c-1.3-11.8-2.7-25.6,2.1-36.8C231.9,83,228.4,81,227.4,83.4
				L227.4,83.4z"/>
		</g>
		<g>
			<path class="st3" d="M227.5,83c-13.9,12.6-24.3,29.6-34.3,45.3c-5.1,8-10,16.2-14.9,24.4c-2.6,4.5-6,9.2-8,14.1
				c-0.9,2.3-0.1,3.4,1.2,5.5c2.8,4.2,6,8.2,9.2,12.2c1.6,2,4.4-0.8,2.8-2.8c-3.3-4.2-7.2-8.5-9.8-13.3c0.4,0.7-0.6,1.2,0.3-0.2
				c0.6-1,1.1-2.1,1.7-3.1c4.4-7.9,8.9-15.6,13.6-23.3c6.4-10.5,13-20.9,20.1-31c6.2-8.8,12.7-17.8,20.7-25.1
				C232.2,84.1,229.4,81.2,227.5,83L227.5,83z"/>
		</g>
		<g>
			<path class="st3" d="M229.7,145.6c-11.6,5.7-21.8,14.5-31.5,22.9c-8.6,7.5-17.1,15.2-24.7,23.6c-1.7,1.9,1.1,4.7,2.8,2.8
				c7.4-8.1,15.5-15.5,23.7-22.7c9.7-8.5,20-17.5,31.7-23.2C234,147.9,232,144.5,229.7,145.6L229.7,145.6z"/>
		</g>
		<g>
			<path class="st3" d="M173.1,194.9c6.5,22.8,15,45.2,23.1,67.5c11.5,31.8,23.3,63.5,34.6,95.3c0.9,2.4,4.7,1.4,3.9-1.1
				c-11.3-31.9-23-63.6-34.6-95.3c-8.1-22.3-16.6-44.6-23.1-67.5C176.2,191.3,172.4,192.4,173.1,194.9L173.1,194.9z"/>
		</g>
		<g>
			<path class="st3" d="M180.2,148.2c-42.5,20.1-88.1,41-121.3,75.4c-1.8,1.9,1,4.7,2.8,2.8c32.9-34.1,78.2-54.8,120.5-74.8
				C184.6,150.5,182.6,147.1,180.2,148.2L180.2,148.2z"/>
		</g>
	</g>
</g>
</svg>
