<?xml version="1.0" encoding="utf-8"?>
<!-- Generator: Adobe Illustrator 19.2.0, SVG Export Plug-In . SVG Version: 6.00 Build 0)  -->
<svg version="1.1" id="Layer_1" xmlns="http://www.w3.org/2000/svg" xmlns:xlink="http://www.w3.org/1999/xlink" x="0px" y="0px"
	 viewBox="0 0 739.6 909.9" style="enable-background:new 0 0 739.6 909.9;" xml:space="preserve">
<style type="text/css">
	.st0{fill:#F58C5A;}
	.st1{fill:#BC5B34;}
	.st2{fill:#6D3924;}
</style>
<g>
	<path class="st0" d="M598.3,627.4c-4.2-3.1-30.7-23.8-60.2-38.3c-8.2,19.8-166.2,85.5-307.3-9.7c-24.1,11.1-59.2,28-95.8,58.9
		c-21.4,18.1-31.4,46.3-2.6,67.7c86.4,64.3,338.2,90.1,463.3,8.9C625.1,695.9,632.6,652.7,598.3,627.4z"/>
	<path class="st1" d="M222.7,590c5.9,3.3,9.7,9.3,14,13s16.1,11,20,13.3c3.8,2.3,11.5,4.1,13.6,8.5c2.1,4.4,1,5.9-2.8,5.9
		c-3.8,0-24-10.6-30.9-16.4c-6.8-5.8-17.8-16.7-18-18.8C218,591.7,221.1,589.1,222.7,590z"/>
	<path class="st1" d="M420.5,643c-2.1,0-5.5,0.1-8.3,0.1c-2.2,0-3.9,2-3.6,4.1l0.4,2.5c0.5,3.3,3.6,5.6,7,5.1c0,0,17.7-1.4,29-3.8
		c0.2,0,0.4-0.1,0.5-0.1l26.2-7c0,0,0.1,0,0.1,0l20.6-8.7c1.9-0.8,2.8-3,1.9-4.9l0,0c-0.8-1.7-2.8-2.5-4.6-1.9l-22.6,7.7
		c0,0,0,0-0.1,0l-23.5,5.9c-0.1,0-0.1,0-0.2,0L420.5,643z"/>
	<path class="st1" d="M447.6,717.2l3.8,44.5c0,0,37.8-6.1,50.1-8.8c27.4-5.9,45.3-14.3,45.3-14.3l-2.9-34.7L497,714.4L447.6,717.2z"
		/>
	<g>
		<g>
			<path class="st2" d="M537,589.1c20.1,12.1,40.8,24.4,58.6,39.7c1.9,1.7,4.8-1.1,2.8-2.8c-18.1-15.6-39.1-28-59.4-40.3
				C536.8,584.3,534.8,587.8,537,589.1L537,589.1z"/>
		</g>
		<g>
			<path class="st2" d="M136.4,639.8c13.7-12.8,30.4-22.7,46.4-32.3c15.9-9.5,32.2-18.5,49-26.4c2.3-1.1,0.3-4.5-2-3.5
				c-17.2,8-33.9,17.3-50.2,27.1c-15.9,9.5-32.4,19.4-46,32.2C131.6,638.7,134.5,641.5,136.4,639.8L136.4,639.8z"/>
		</g>
		<g>
			<path class="st2" d="M230,580.7c45.6,34.3,102.4,49.2,158.9,49.8c42.4,0.5,87.9-5.5,126.9-23.2c6-2.7,12.1-5.8,17.2-10
				c2.9-2.4,6.2-5.5,6.3-9.5c0.1-1.9-2.9-1.9-3,0c-0.1,3-3.3,5.6-5.4,7.4c-4.4,3.6-9.6,6.3-14.7,8.7c-16,7.6-33.3,12.4-50.5,16.1
				c-48.7,10.4-100.5,10.8-148.9-1.5c-30.8-7.8-59.9-21.2-85.3-40.3C230,577,228.5,579.6,230,580.7L230,580.7z"/>
		</g>
		<g>
			<path class="st2" d="M420.5,645c17.1,0.8,33.9-1.7,50-7.6c2.4-0.9,1.4-4.7-1.1-3.9c-15.7,5.8-32.2,8.3-48.9,7.5
				C418,640.9,418,644.9,420.5,645L420.5,645z"/>
		</g>
		<g>
			<path class="st2" d="M443.5,653c13.3-1.4,26-5.2,37.9-11.4c2.3-1.2,0.3-4.6-2-3.5c-11.2,5.8-23.3,9.5-35.8,10.8
				C440.9,649.3,440.9,653.3,443.5,653L443.5,653z"/>
		</g>
		<g>
			<path class="st2" d="M231.3,600.5c6.9,7.5,15,13.4,24.3,17.6c2.3,1.1,4.4-2.4,2-3.5c-8.9-4.1-16.8-9.7-23.5-17
				C232.4,595.7,229.6,598.6,231.3,600.5L231.3,600.5z"/>
		</g>
		<g>
			<path class="st2" d="M221.3,601.1c4.7,5.9,10.1,10.9,16.2,15.3c2.1,1.5,4.1-2,2-3.5c-5.8-4.2-10.9-9.1-15.4-14.7
				C222.5,596.3,219.7,599.1,221.3,601.1L221.3,601.1z"/>
		</g>
		<g>
			<path class="st2" d="M445.7,717.9c0.5,14.4,1.7,28.9,3.8,43.2c0.4,2.5,4.2,1.5,3.9-1.1c-2-13.9-3.1-28-3.6-42.1
				C449.6,715.3,445.6,715.3,445.7,717.9L445.7,717.9z"/>
		</g>
		<g>
			<path class="st2" d="M447.6,719.2c32.7-0.8,66-1.9,97-13.4c-0.8-0.6-1.7-1.3-2.5-1.9c0.9,11.6,2.3,23.1,2.9,34.7
				c0.1,2.6,4.1,2.6,4,0c-0.6-11.6-1.9-23.1-2.9-34.7c-0.1-1.2-1.2-2.4-2.5-1.9c-30.7,11.4-63.6,12.5-95.9,13.3
				C445,715.3,445,719.3,447.6,719.2L447.6,719.2z"/>
		</g>
		<g>
			<path class="st2" d="M450.2,742.8c17.3,0.9,34.9-1.4,52-3.7c14.6-2,30-3.8,44-8.6c2.4-0.8,1.4-4.7-1.1-3.9
				c-13.6,4.7-28.6,6.4-42.7,8.4c-17.2,2.4-34.9,4.7-52.3,3.8C447.7,738.6,447.7,742.6,450.2,742.8L450.2,742.8z"/>
		</g>
	</g>
</g>
</svg>
