<?xml version="1.0" encoding="utf-8"?>
<!-- Generator: Adobe Illustrator 19.2.0, SVG Export Plug-In . SVG Version: 6.00 Build 0)  -->
<svg version="1.1" id="Layer_1" xmlns="http://www.w3.org/2000/svg" xmlns:xlink="http://www.w3.org/1999/xlink" x="0px" y="0px"
	 viewBox="0 0 739.6 909.9" style="enable-background:new 0 0 739.6 909.9;" xml:space="preserve">
<style type="text/css">
	.st0{fill:#F58C5A;}
	.st1{fill:#C4623A;}
	.st2{opacity:0.35;}
	.st3{fill:#874E3E;}
	.st4{fill:#6D3924;}
</style>
<g>
	<path class="st0" d="M594.4,619.9c-9.6-7.3-87.1-51.1-95.8-56.5c-2.4-1.5-13.4-5.6-23.3-12.2c-0.9-0.6,0.5-4.8-0.4-5.4
		c-3.7-2.7-7.1-4.9-9.2-7.8c-4,8.8-32.2,61.7-75.5,65.8c-9.1,0.9-14,0.9-23.2,0.8c-30.8-0.6-75.8-46.2-92.7-66
		c-0.7-0.4-8.7,9.7-10,14.7c-0.5,1.8,1.5,2.3,1.5,2.3l-30.8,21c0,0-57.4,27.7-92.9,58.3c-20.8,17.9-30.4,45.8-2.5,67
		c83.8,63.6,328,89.2,449.3,8.8C617.3,691.7,627.7,645,594.4,619.9z"/>
	<path class="st1" d="M300.7,589c8.4-6.5-23.5-37.8-23.5-37.8l-13,1.8c0,0,0,0.1,0,0.1c-0.5,1.8,1.5,4.3,1.5,4.3
		s-88.2,36.7-123.7,67.3c-20.8,17.9-30.4,55.8-2.5,77c15.2,11.5,35.7,21.8,59.7,30.5C199.3,732.2,220.1,651.5,300.7,589z"/>
	<path class="st1" d="M594.4,619.9c-9.6-7.3-87.1-51.1-95.8-56.5c-2.4-1.5-13.4-5.6-23.3-12.2c-0.9-0.6,0.5-4.8-0.4-5.4
		c-2.9-2.1-5.7-4-7.8-6.1c0,0-29.8,42.9-21.5,50.8c60.8,58,85.8,147.8,85.8,147.8c21.1-7.3,40.5-16.5,57.5-27.7
		C617.3,691.7,627.7,645,594.4,619.9z"/>
	<g class="st2">
		<path class="st3" d="M369.9,604.5c-19.2-8.4-42.5-5.6-58-19.7c-20.2-18.4-29.4-48.1-23.1-74.7c-13.1,2.1-24.2,13.3-26.2,26.4
			c-0.3,1.7-0.4,3.5-1.2,5.1c-0.8,1.5-2.1,2.7-3.1,4.1c-3.8,4.8-4.5,11.3-4.5,17.4c0,40,43,80.6,58.1,91.7c1.3,1,2.8,2,4.4,2.3
			c3,0.5,5.7-1.6,8.1-3.6C338.5,641.4,369.9,604.5,369.9,604.5z"/>
	</g>
	<path class="st1" d="M366.5,605.6c-14,11.9-28.1,25.8-42.1,37.7c-2.3,2-5.1,4.1-8.1,3.6c-1.7-0.3-3.1-1.3-4.4-2.3
		c-15.1-11.1-58.1-51.7-58.1-91.7c0-6.1,0.7-12.6,4.5-17.4c1.1-1.3,2.4-2.5,3.1-4.1c0.8-1.6,0.9-3.3,1.2-5.1
		c2-13.1,13.1-24.3,26.2-26.4c-6.2,26.6,3,56.3,23.1,74.7c15.5,14.1,35.8,21.3,55,29.7"/>
	<g class="st2">
		<path class="st3" d="M383.5,604.9c9.9-2,63.8-14.6,73.7-46.5c4.5-14.6,3.7-30.2,1.9-45.4c18.9,11.9,29.3,54.6,27,68.6
			c-6.5,39.4-43.3,81.4-51.2,78.5C431.1,658.8,383.5,604.9,383.5,604.9z"/>
	</g>
	<path class="st1" d="M384.9,605c17.6,12.5,35.7,27,50,43.1c18.5-14.8,48.9-53.8,51.2-74.5c1.6-14.1-8.1-56.8-27-68.6
		c1.8,15.2,2.7,30.8-1.9,45.4c-9.9,32-61.6,52.6-71.5,54.6"/>
	<g>
		<g class="st2">
			<path class="st3" d="M257,538.6c4.4,6.6,7.4,14.2,8.7,22.1c1.2,7.1,7.6,24.1,13.8,21.7c5-1.9,2-8.9,0.5-15
				c-1-4.1-13.9-37.2-16.6-40.4c-1.4,3.7-3.1,7.2-5,10.6"/>
		</g>
		<g class="st2">
			<path class="st3" d="M462.8,574c-6.6,11.5-14.7,18.6-14.3,19.4c0.7,1.7,3.3,1.3,5,0.4c11.1-5.6,25-28.4,23.6-37.2
				C475,543.5,469.6,562.2,462.8,574z"/>
		</g>
	</g>
	<g>
		<g>
			<path class="st4" d="M484.2,557.9c21.9,10.6,43.3,22.4,64.1,35.1c20.7,12.7,41.1,26.3,59.5,42.3c1.9,1.7,4.8-1.1,2.8-2.8
				c-18.2-15.8-38.4-29.4-58.9-42c-21.2-13.1-43-25.2-65.5-36C483.9,553.3,481.9,556.8,484.2,557.9L484.2,557.9z"/>
		</g>
		<g>
			<path class="st4" d="M144.5,626.2c13.9-13.2,32.3-22.7,49-31.8c19.7-10.8,40-21.1,61.2-28.9c2.4-0.9,1.4-4.8-1.1-3.9
				c-21.5,7.9-42.1,18.4-62.1,29.3c-17,9.3-35.6,18.9-49.8,32.4C139.8,625.1,142.6,627.9,144.5,626.2L144.5,626.2z"/>
		</g>
		<g>
			<path class="st4" d="M151.9,621.4c26.8,27.5,40.4,69.1,42.1,106.9c0.1,1.9,3.1,1.9,3,0c-1.7-38.6-15.6-80.9-43-109
				C152.6,617.9,150.5,620,151.9,621.4L151.9,621.4z"/>
		</g>
		<g>
			<path class="st4" d="M580,616.6c-36.6,27.7-46.8,74.3-52.6,117.3c-0.3,1.9,2.6,2.7,2.9,0.8c5.7-42.1,15.3-88.4,51.3-115.5
				C583.1,618,581.6,615.4,580,616.6L580,616.6z"/>
		</g>
		<g>
			<path class="st4" d="M365.1,603.2c-7.7,6.5-15,13.3-22.4,20.2c-3.3,3-6.5,6-9.8,9c-3.6,3.3-8,8.6-12.5,10.6
				c-5.7,2.5-12-4.5-15.9-8c-4.6-4.1-9-8.4-13.2-12.8c-10-10.7-19.1-22.4-25.8-35.4c-6.7-12.9-13.2-31-8.3-45.6
				c1.3-4,4.6-6.4,6.2-10.1c2-4.5,1.7-9.4,4-13.9c4.4-8.5,12.5-14.4,21.9-16.1c-0.8-0.8-1.6-1.6-2.5-2.5
				c-5.2,23.1,0.2,47.9,14.6,66.8c16,20.9,41.1,29.8,64.4,39.9c2.3,1,4.4-2.4,2-3.5c-21.8-9.5-45.7-17.7-61.4-36.5
				c-15-18-20.9-42.8-15.8-65.6c0.3-1.6-0.9-2.7-2.5-2.5c-8.1,1.5-15.3,5.8-20.5,12.2c-2.3,2.9-4.1,6-5.4,9.4c-0.8,2-1.3,4-1.6,6.1
				c-0.6,3.3-1.7,5.6-3.8,8.3c-10,12.7-4.4,34,1.2,47.4c6.4,15.2,16.3,28.8,27.2,41.1c4.9,5.4,10,10.6,15.5,15.5
				c3.8,3.4,8.2,8,12.9,10.1c3.9,1.7,7.4,0.1,10.7-2.3c4.9-3.7,9.5-8.1,14-12.3c9.8-8.9,19.4-18,29.5-26.6
				C369.9,604.4,367,601.5,365.1,603.2L365.1,603.2z"/>
		</g>
		<g>
			<path class="st4" d="M383.8,605.8c17.8,12.7,35,26.4,49.6,42.8c0.8,0.9,2,0.6,2.8,0c9.3-7.6,17.5-16.7,24.9-26.1
				c8-10.1,15.5-20.8,21.1-32.4c4.1-8.4,6.4-16.6,5.6-26c-1-11.1-3.8-22.1-7.7-32.5c-4.2-11-10.1-22.7-20.2-29.3
				c-1.2-0.8-3.2,0.2-3,1.7c1.8,16.1,3.4,34.3-3.6,49.5c-4.7,10.3-13.2,18.6-22.2,25.3c-8.5,6.4-17.8,11.7-27.5,16.2
				c-6,2.8-12.3,5.6-18.7,7c-2.5,0.5-1.5,4.4,1.1,3.9c7.1-1.5,14.1-4.8,20.6-7.9c10.2-4.8,20-10.6,28.9-17.6
				c8.9-7,17.2-15.5,21.7-26c6.8-15.7,5.6-34,3.7-50.5c-1,0.6-2,1.2-3,1.7c9,5.9,14.3,16.6,18.1,26.3c3.8,9.9,6.6,20.5,7.7,31.1
				c2.1,20.7-12.5,40-24.6,55.5c-7.7,9.8-16.1,19.3-25.8,27.3c0.9,0,1.9,0,2.8,0c-14.9-17-32.3-30.6-50.4-43.5
				C383.8,600.9,381.8,604.3,383.8,605.8L383.8,605.8z"/>
		</g>
		<g>
			<path class="st4" d="M368.1,606.8c5.6,0.3,11.4,0,16.9-1c2.5-0.5,1.5-4.4-1.1-3.9c-5.2,1-10.6,1.2-15.8,0.9
				C365.5,602.7,365.6,606.7,368.1,606.8L368.1,606.8z"/>
		</g>
		<g>
			<path class="st4" d="M354.2,614.8c1.2,39.5,3.5,78.8,1.6,118.3c-0.1,2.6,3.9,2.6,4,0c1.8-39.5-0.4-78.8-1.6-118.3
				C358.1,612.3,354.1,612.3,354.2,614.8L354.2,614.8z"/>
		</g>
		<g>
			<path class="st4" d="M369.3,624.8c-0.7,2.6-0.2,5.9,1.6,8c2.2,2.6,6,2.1,8.1-0.4c1.8-2.2,2.4-6,1-8.6c-1.7-3.1-6.7-3.8-8.9-0.9
				c-1.6,2,1.2,4.9,2.8,2.8c0.8-1.1,2.5-0.8,2.8,0.6c0.3,1.2,0,3-1,3.9c-2.2,2-2.8-3-2.4-4.2C373.9,623.4,370.1,622.4,369.3,624.8
				L369.3,624.8z"/>
		</g>
		<g>
			<path class="st4" d="M369.3,664.8c-0.7,2.6-0.2,5.9,1.6,8c2.2,2.6,6,2.1,8.1-0.4c1.8-2.2,2.4-6,1-8.6c-1.7-3.1-6.7-3.8-8.9-0.9
				c-1.6,2,1.2,4.9,2.8,2.8c0.8-1.1,2.5-0.8,2.8,0.6c0.3,1.2,0,3-1,3.9c-2.2,2-2.8-3-2.4-4.2C373.9,663.4,370.1,662.4,369.3,664.8
				L369.3,664.8z"/>
		</g>
		<g>
			<path class="st4" d="M369.3,704.8c-0.7,2.6-0.2,5.9,1.6,8c2.2,2.6,6,2.1,8.1-0.4c1.8-2.2,2.4-6,1-8.6c-1.7-3.1-6.7-3.8-8.9-0.9
				c-1.6,2,1.2,4.9,2.8,2.8c0.8-1.1,2.5-0.8,2.8,0.6c0.3,1.2,0,3-1,3.9c-2.2,2-2.8-3-2.4-4.2C373.9,703.4,370.1,702.4,369.3,704.8
				L369.3,704.8z"/>
		</g>
		<g>
			<path class="st4" d="M380.5,732.9c-7.2-0.1-15.1,0.7-22.1-0.6c-2.5-0.5-3.6,3.4-1.1,3.9c7.4,1.3,15.6,0.6,23.2,0.7
				C383.1,736.9,383.1,732.9,380.5,732.9L380.5,732.9z"/>
		</g>
		<g>
			<path class="st4" d="M264.5,538.6c1.9,8.7,4.5,17.1,7.9,25.4c1,2.3,4.8,1.3,3.9-1.1c-3.4-8.2-6.1-16.7-7.9-25.4
				C267.8,535,264,536.1,264.5,538.6L264.5,538.6z"/>
		</g>
		<g>
			<path class="st4" d="M259.4,548.5c2,4,3.5,8.1,4.5,12.5c0.6,2.5,4.5,1.4,3.9-1.1c-1.1-4.7-2.8-9.1-4.9-13.4
				C261.7,544.2,258.3,546.2,259.4,548.5L259.4,548.5z"/>
		</g>
		<g>
			<path class="st4" d="M468.1,558c-2.6,7.3-6.5,13.9-11.5,19.8c-1.7,1.9,1.2,4.8,2.8,2.8c5.5-6.4,9.7-13.6,12.6-21.6
				C472.8,556.6,469,555.6,468.1,558L468.1,558z"/>
		</g>
		<g>
			<path class="st4" d="M472.9,566.3c-2.1,5.2-5.3,9.7-9.4,13.5c-1.9,1.8,1,4.6,2.8,2.8c4.6-4.3,8-9.5,10.4-15.3
				C477.7,564.9,473.9,563.9,472.9,566.3L472.9,566.3z"/>
		</g>
	</g>
</g>
</svg>
