<?xml version="1.0" encoding="utf-8"?>
<!-- Generator: Adobe Illustrator 19.2.0, SVG Export Plug-In . SVG Version: 6.00 Build 0)  -->
<svg version="1.1" id="Layer_1" xmlns="http://www.w3.org/2000/svg" xmlns:xlink="http://www.w3.org/1999/xlink" x="0px" y="0px"
	 viewBox="0 0 520 330" style="enable-background:new 0 0 520 330;" xml:space="preserve">
<style type="text/css">
	.st0{fill:#EFEFEF;}
	.st1{fill:#BBBBBC;}
	.st2{fill:#7A7B7B;}
</style>
<g>
	<path class="st0" d="M486.3,173.9c-9.6-7.3-69.1-46.1-89.9-55.7c-3.7-1.7-38.4-17.7-38.4-17.7l-4.1-11.1c0,0,4.9-6.7,4.3-10.6
		c-0.8-5-8.4-9.7-9.2-17c-1-8.6,4.8-19.8,2.9-26.2c-2.2-7.5-7.6-9.7-7.6-9.7s-6.9,36.2-89,36.3c-52.1,0.1-84.5-30-84.5-30
		s-6.4,1-8.6,7.8c-1.6,5.1,1.6,12,1.1,18c-0.6,7.3-4.6,13.4-4.8,14.1c-3,11.7,6.2,18.6,6.2,18.6l-0.9,10.6L142.6,112
		c0,0-74.7,30.8-109.8,61.4c-20.6,17.9-21.9,57.1,5.8,78.3c83,63.6,325,89.2,445.3,8.8C512.1,241.7,519.3,199,486.3,173.9z"/>
	<g>
		<path class="st1" d="M355,85.3c-22,25.6-131,44-191,2.5v8c60,41.5,169,23.1,191-2.5V85.3z"/>
		<path class="st1" d="M176.8,58.4c5.4,6.5,21.7,15.1,40.7,19.8c0.8,0.2,1.5,1.1,1.7,1.9c0.3,1.6-1.6,2.6-3.1,3
			c-12.2,3.5-48.1-14.3-48-17.2C168.2,63.7,175.5,56.8,176.8,58.4z"/>
		<path class="st1" d="M342.1,61.2c-8,6.5-27.3,11.4-29,12.3c-1,0.5-2.1,1.5-1.6,2.6c0.2,0.5,3.1,4.6,10.9,2.4
			c1.4-0.4,18.5-6.3,20.4-8.1C344.6,68.6,343.9,59.8,342.1,61.2z"/>
	</g>
	<g>
		<g>
			<path class="st2" d="M356.7,101.4c15.6,6.6,30.6,15.1,45.5,23.2c19.8,10.9,39.3,22.2,58.2,34.6c8,5.3,16.1,10.7,23.4,17.1
				c1.9,1.7,4.8-1.1,2.8-2.8c-14.3-12.7-31.3-22.6-47.7-32.4c-19.4-11.6-39.1-22.6-59.2-33c-7.2-3.7-14.5-7.4-22-10.6
				C355.4,96.6,354.3,100.4,356.7,101.4L356.7,101.4z"/>
		</g>
		<g>
			<path class="st2" d="M37,172.5c20.9-15.5,44.3-27.8,67.4-39.8c19.7-10.2,39.6-19.8,59.6-29.4c2.3-1.1,0.3-4.6-2-3.5
				c-20,9.5-39.9,19.2-59.6,29.4C79.3,141.2,56,153.5,35,169C33,170.5,35,174,37,172.5L37,172.5z"/>
		</g>
		<g>
			<path class="st2" d="M169.3,33.6c20,20.8,50.4,28.6,78.4,30.3c26.2,1.5,55.8-1.5,79-14.8c8.7-5,17.2-12.4,19.2-22.7
				c-1,0.4-2,0.8-2.9,1.2c10.6,5.6,6,19.5,4.4,28.8c-0.6,3.6-0.9,6.6,0.6,9.9c2,4.5,6.4,9.3,7,14.3c0.7,5.4-8.8,10.6-12.7,12.8
				c-7.8,4.4-16.4,7.5-25,9.9c-22,6.2-45.2,8.6-68.1,7.8c-24.8-0.8-50.2-5.4-72.5-16.9c-5.5-2.8-13.5-6.1-15.7-12.2
				c-1.2-3.4-1.3-7.3-0.6-10.8c0.6-3.1,2.2-4.9,3.5-7.5c2.3-4.6,1.4-11,0.4-15.9c-0.5-2.1-1.7-4.1-1.1-6c0.9-2.8,5.3-6.7,7.9-7.7
				c2.4-1,1.3-4.8-1.1-3.9c-4.5,1.8-9.2,6.4-10.9,10.9c-0.9,2.3,0.1,3.3,0.8,5.6c0.9,3.2,1.3,6.6,1.3,9.9c-0.1,5.7-4.1,9.6-4.9,15.2
				c-0.7,5.4,0,11.7,3.5,16.1c3.6,4.6,10.5,7.5,15.6,10.1c6,3.1,12.3,5.6,18.7,7.8c13,4.4,26.5,7,40.1,8.3c26.1,2.6,53,0.9,78.5-5.4
				c9.9-2.5,19.7-5.6,28.8-10.3c6-3.1,12.7-7.2,16.4-13.1c2.7-4.4,0-9.1-2.2-13.2c-1.5-2.8-3.8-5.8-4.6-9c-0.6-2.3,0-4.8,0.4-7.2
				c2-10.9,5.6-25.6-6.5-31.9c-1.1-0.6-2.7-0.1-2.9,1.2c-3.9,20-31.8,27.8-48.6,31.4c-27,5.6-56.5,4.9-82.9-3.4
				c-14.3-4.5-28-11.6-38.5-22.5C170.4,28.9,167.5,31.7,169.3,33.6L169.3,33.6z"/>
		</g>
		<g>
			<path class="st2" d="M165.7,101.3c0-3.5,0.6-7.1,0.9-10.6c0.3-2.6-3.7-2.5-4,0c-0.4,3.5-0.9,7-0.9,10.6
				C161.6,103.8,165.6,103.8,165.7,101.3L165.7,101.3z"/>
		</g>
		<g>
			<path class="st2" d="M352,88.8c1.6,4.4,2.8,9.1,3.7,13.8c0.5,2.5,4.3,1.5,3.9-1.1c-0.9-4.6-2.1-9.3-3.7-13.8
				C355,85.3,351.1,86.3,352,88.8L352,88.8z"/>
		</g>
		<g>
			<path class="st2" d="M168.3,106.8c8.8,7.6,21.9,10.8,32.9,13.6c14.2,3.6,28.8,6.1,43.8,6.1c2,0,2-4,0-4c-14,0-27.9-2.3-41.4-5.6
				c-10.7-2.6-23.9-5.6-32.5-12.9C169.2,102.3,166.3,105.1,168.3,106.8L168.3,106.8z"/>
		</g>
		<g>
			<path class="st2" d="M259.6,126.1c2.7-0.2,5.5-0.2,8.2-0.1c2.6,0.1,2.6-3.9,0-4c-2.8-0.1-5.5-0.1-8.2,0.1
				C257.1,122.2,257.1,126.2,259.6,126.1L259.6,126.1z"/>
		</g>
		<g>
			<path class="st2" d="M291.6,125.7c4.7,0,9.6-1.2,14.2-2c5.5-1,11.4-1.9,16.5-4c2.4-1,1.3-4.8-1.1-3.9c-4.8,2-10.3,2.8-15.4,3.8
				c-4.6,0.9-9.6,2.1-14.3,2.1C289.1,121.6,289.1,125.6,291.6,125.7L291.6,125.7z"/>
		</g>
		<g>
			<path class="st2" d="M335.4,116.1c4.4-0.9,8.7-2.9,12.8-4.7c3.9-1.7,9.9-3.9,12.4-7.7c1.4-2.2-2-4.2-3.5-2
				c-2.1,3.2-9.1,5.4-12.4,6.9c-3.3,1.4-6.9,3-10.4,3.7C331.8,112.8,332.9,116.6,335.4,116.1L335.4,116.1z"/>
		</g>
		<g>
			<path class="st2" d="M170.3,68.5c8.6,6.3,19.5,11.7,30,13.7c1.9,0.4,2.7-2.5,0.8-2.9c-10.3-1.9-20.9-7.2-29.3-13.4
				C170.3,64.8,168.8,67.4,170.3,68.5L170.3,68.5z"/>
		</g>
		<g>
			<path class="st2" d="M182.3,67.2c7,4.8,16.3,8.9,24.7,10.4c1.9,0.3,2.7-2.6,0.8-2.9c-8.2-1.4-17.1-5.3-24-10.1
				C182.2,63.5,180.7,66.1,182.3,67.2L182.3,67.2z"/>
		</g>
		<g>
			<path class="st2" d="M338.3,62.4c-4.5,4.8-10.3,7.7-16.9,8.2c-1.9,0.2-1.9,3.2,0,3c7.3-0.6,13.9-3.7,19-9.1
				C341.7,63.1,339.6,60.9,338.3,62.4L338.3,62.4z"/>
		</g>
		<g>
			<path class="st2" d="M337.8,70.2c-3.9,3.1-8.5,5-13.5,5.6c-1.9,0.2-1.9,3.2,0,3c5.8-0.6,11-2.7,15.6-6.4
				C341.5,71.1,339.3,69,337.8,70.2L337.8,70.2z"/>
		</g>
	</g>
</g>
</svg>
