<?xml version="1.0" encoding="utf-8"?>
<!-- Generator: Adobe Illustrator 19.2.0, SVG Export Plug-In . SVG Version: 6.00 Build 0)  -->
<svg version="1.1" id="Layer_1" xmlns="http://www.w3.org/2000/svg" xmlns:xlink="http://www.w3.org/1999/xlink" x="0px" y="0px"
	 viewBox="0 0 500 500" style="enable-background:new 0 0 500 500;" xml:space="preserve">
<style type="text/css">
	.st0{fill:#955239;}
	.st1{fill:#773c2a;}
	.st2{fill:#5e2b1f;}
	.st3{fill:#4a292a;}
</style>
<g>
	<path class="st0" d="M258.1,342c-32.2,0-65.7-7.4-97-21c-24.7-10.8-46.7-24.7-65.5-41.3c-5.8-5.1-10.5-9.6-14.4-14.7
		c-1.1-1.5-2.2-2.9-2.3-4.4c-0.1-2,0.9-3.7,1.8-4.7c1.8-2,4.8-3.5,7.3-3.6l0.9,2l2-1.3c0.1,0,0.1-0.1,0.2-0.1
		c1.6,2.4,4.7,3.9,7.1,5.2c0.4,0.2,0.8,0.4,1.1,0.6c3.7,1.9,7.8,3.7,12.7,5.5c8,3,17.3,6.2,26.7,6.5l1.9,0.1l0.1-1.9
		c1-15.2,1.4-31.3,1.1-50.8c-0.5-34.9-2.6-69.8-6.5-103.9c-1.3-11.9-3.1-26-5.8-40c-0.2-1-0.4-2.1-0.6-3.3c-1.1-6-2.3-12.8-5.9-17.6
		l0.2-0.7l-0.5-0.7c14.5-7.2,31.2-9.9,47-12c23.1-3.1,47.5-4.6,74.7-4.6c15.5,0,31.8,0.5,49.7,1.5c21.8,1.2,41.1,3.1,59,5.8
		c13.7,2,28.2,4.5,41.8,9.6c0.1,0,0.1,0.1,0.2,0.1c-3.6,11.9-5.5,24.4-7.3,36.4l-0.2,1.5c-4.6,31.3-8,64.9-10.8,105.9l-0.4,5.5
		c-1.6,24.4-3.3,49.6-2,74.3l0.1,2.6l2.4-0.8c2.8-0.8,5.5-1.7,8.3-2.5c11-3.3,22.5-6.7,33-11.8l1.5,1.3l1.5-1.6h0.1l9.5,9.2
		c-2.9,7.1-10.6,12.8-16.7,17.4l-0.9,0.7c-11.5,8.7-25.1,16.6-41.4,24.2c-36,16.9-72.2,26.1-107.5,27.2
		C262.4,341.8,260.2,342,258.1,342L258.1,342z"/>
	<path class="st1" d="M287,295.9c-34.1,1.1-68.9-0.2-102.4-6.9c-14.3-2.9-29-6.7-41.7-14.2c0.1-0.2,0.2-0.5,0.3-0.9
		c0.8-9.7,1.2-19.4,1.4-29.1c12.8,5,26.5,7.6,40,9.7c17.1,2.7,34.4,4.2,51.6,5.2c34.1,2,68.7,2.1,102.8-1.1c11.3-1,23.3-2,34.2-5.7
		c-0.2,10.3-0.1,20.7,0.7,31C346.3,293.1,315.9,295,287,295.9z"/>
	<g>
		<path class="st2" d="M223.8,257.4c-7.5,5.1-3,36.6,6.2,38.5c19.4,4,24.9,8.6,24.9,8.6l-66-6.6l-49.2-20.2l1.9-34.2l32.9-0.9
			L223.8,257.4z"/>
		<path class="st2" d="M337.2,256.1c12.7,3.9,8.6,35.2-4.4,38.5c-14,3.5,3.9,6.6,3.9,6.6l32.4-3.4l6.4-10.3l-1.1-17.3l-0.8-23.3
			l-17.9,5L337.2,256.1z"/>
		<path class="st2" d="M262.3,332.3c-30.5,0-61.1-6.4-88.4-18.4c-25-11-48.4-27-69.5-47.5l-0.6-0.6l1.9-3l1.4,0.5
			c0.9,0.3,1.8,0.7,2.6,1c8.6,3.4,18.8,6.9,28.6,7.3l2.1,0.1l-0.2,3l0.7,0.9l-0.6,1.1c11.9,7.2,25.6,10.9,36.2,13.3
			c14.1,3.2,29.8,5.6,48,7c14.9,1.2,29.8,1.8,44.2,1.8c20.6,0,41.3-1.2,61.5-3.7c13.4-1.6,29.1-3.9,43.8-8.8l0.6-0.2l0.6,0.2
			c-0.2-1.9-0.3-3.7-0.4-5.6l-0.1-1.6l1.5-0.5c3-0.9,5.9-1.8,8.9-2.7c9.7-2.9,19.7-5.9,29.1-10l0.8-0.3l2.1,3l-0.6,0.6
			c-26.3,27.4-63,47.7-103.3,57.1C296.6,330.3,279.5,332.3,262.3,332.3L262.3,332.3z"/>
		<path class="st1" d="M226,35.4c0,0-37.8,3.1-41.4,40c-2.9,30,1.2,124,16.4,153.6c13.2,25.8,29,28.2,29,28.2l-39.6-4.7l-23.6-2.8
			l-24.8-6.2V212v-30l-3.5-35.8l-3.1-32.2L132,88l-4.2-23.2l-5-12.9l14.3-5.6l28.4-5.8l37.1-3.9L226,35.4z"/>
		<path class="st1" d="M353.2,42.5C366,48.7,369.1,53.3,370,84c0.7,22.7-19.3,165.2-30.4,170.9c-11.2,5.8,14.4-0.3,14.4-0.3
			l19.3-4.3l1.8-19.2l3.9-62.4l3-32.8l4.1-34.4l4.8-25.5l4.3-23.9l-10.6-3.4L371,45.5L353.2,42.5z"/>
	</g>
	<g>
		<path class="st3" d="M139.8,240.4c1.4,0.5,2.8,1,4.1,1.5c0.5-24.3-0.4-48.7-1.9-72.9c-1.8-30.9-4.3-62.2-10-92.7
			c-1.4-7.5-2.4-17.7-7.1-24c-1.5-2-5,0-3.5,2c4,5.4,4.9,13.8,6.1,20.2c2.6,13.2,4.3,26.5,5.8,39.8c3.9,34.4,6,69.1,6.4,103.7
			C139.9,225.5,139.9,232.9,139.8,240.4z"/>
	</g>
	<g>
		<path class="st3" d="M395.7,50.1c-13.5-5-28-7.5-42.2-9.7c-19.6-2.9-39.4-4.7-59.2-5.8c-41.4-2.3-83.6-2.4-124.8,3.1
			c-16.1,2.2-33.1,5-47.8,12.3c-2.3,1.1-0.3,4.6,2,3.5c12.6-6.3,27.1-8.9,41-11c19.3-2.9,38.8-4.2,58.3-4.8
			c41.2-1.3,82.9,0.3,123.7,5.8c15.4,2.1,31.3,4.6,46,9.8c-2.9,10.1-4.6,20.7-6.2,31c-2.5,16.2-4.5,32.4-6.2,48.7
			c-3.8,35.9-6.6,72-7.6,108.1c-0.1,3-0.2,6-0.2,9c1.2-0.6,2.4-1.1,3.7-1.5c0.3-17.6,1.6-35.3,2.7-52.7
			c2.3-35.3,5.6-70.7,10.7-105.7c1.9-12.6,3.7-25.5,7.4-37.7C397.4,51.5,396.7,50.5,395.7,50.1z"/>
	</g>
	<g>
		<path class="st3" d="M139.2,268.6c-9.1-0.2-18.2-3.3-26.6-6.4c-4.2-1.6-8.4-3.3-12.4-5.4c-2.4-1.2-5.9-2.7-7.5-5
			c-1.4-2.1-4.9-0.1-3.5,2c4,5.9,13.6,8.9,19.9,11.4c9.5,3.7,19.8,7.2,30.1,7.4C141.8,272.7,141.8,268.7,139.2,268.6L139.2,268.6z"
			/>
	</g>
	<path class="st3" d="M376.5,279.9c14.5-4.5,29.4-8.3,43.1-15c2.3-1.1,0.3-4.6-2-3.5c-13.4,6.5-28,10.1-42.2,14.6
		C373,276.8,374,280.6,376.5,279.9L376.5,279.9z"/>
	<g>
		<path class="st3" d="M88,250.2c-5.2,0.2-11.6,4.7-11.2,10.4c0.2,2.1,1.5,3.8,2.7,5.5c4.2,5.5,9.4,10.4,14.6,15
			c19.6,17.2,42.2,31.1,66.1,41.5c32.7,14.3,68.5,22,104.2,20.9c37.4-1.1,74.5-11.3,108.3-27.2c14.6-6.8,28.8-14.8,41.8-24.4
			c6.7-5,15.2-11.1,18.4-19.2c0.3-0.6,0-1.5-0.5-1.9c-3.2-3.1-6.4-6.2-9.6-9.3c-0.7-0.7-2.1-0.8-2.8,0
			c-27.8,31.6-66.6,52.5-107.3,61.9c-45.9,10.7-94.8,6.6-138-12.4c-27.8-12.2-52.5-30.2-73.7-51.9c-1.8-1.8-4.6,1-2.8,2.8
			c36.6,37.6,84.1,63.1,136.4,69.7c45.2,5.6,92.2-3.1,132.5-24.3c20.9-11,40.1-25.4,55.7-43.4c-0.9,0-1.9,0-2.8,0
			c3.2,3,6.4,6.4,9.6,9.5c-0.2-0.6-0.3-1.2-0.5-1.8c-2.5,6.3-9.6,11.4-14.7,15.4c-9.9,7.7-20.9,14.3-32,20.1
			c-30.1,15.8-63.2,26.7-97,30.8c-61.8,7.4-125-11.7-174.6-48.6c-7.9-5.9-15.6-12.3-22.5-19.4c-2-2-3.9-4.1-5.6-6.3
			c-3.1-4.1-0.5-9.2,5.4-9.4C90.6,254.1,90.6,250.1,88,250.2L88,250.2z"/>
	</g>
	<g>
		<g>
			<path class="st3" d="M139.3,277.5c11.2,6.8,24.1,10.7,36.8,13.6c15.9,3.6,32.1,5.7,48.3,7.1c35.2,2.9,71,2.4,106.1-1.9
				c15-1.8,30.1-4.2,44.4-8.9c2.4-0.8,1.4-4.7-1.1-3.9c-27.9,9.3-58.6,11.2-87.7,12.1c-34.1,1.1-68.9-0.2-102.4-6.9
				c-14.6-2.9-29.6-6.8-42.5-14.6C139.2,272.7,137.1,276.2,139.3,277.5L139.3,277.5z"/>
		</g>
		<g>
			<path class="st3" d="M143.7,244.5c12.8,5,26.6,7.7,40.1,9.8c17.1,2.7,34.4,4.2,51.6,5.2c34.1,2,68.7,2.1,102.8-1.1
				c11.8-1.1,24.4-2.1,35.6-6.2c2.4-0.9,1.4-4.7-1.1-3.9c-9.7,3.5-20.5,4.6-30.7,5.7c-15.3,1.6-30.6,2.3-45.9,2.6
				c-35.4,0.7-71.1-0.5-106.2-5.5c-15.2-2.2-30.8-4.9-45.2-10.5C142.3,239.7,141.3,243.5,143.7,244.5L143.7,244.5z"/>
		</g>
		<path class="st3" d="M376.2,249.8c0-2.1-0.7-2.1-1.8-1.9c-1.2,0.2-2,2.2-1.9,3.5c-0.2,11.4-0.2,22.9,0.9,34.2c0.2,2.5,4.2,2.6,4,0
			C376.2,273.7,376,261.8,376.2,249.8z"/>
		<path class="st3" d="M139.8,240.4c-0.2,10.7-0.6,22.5-1.4,33.2c-0.2,2.6,3.8,2.6,4,0c0.8-10.2,1.3-21.5,1.5-31.7
			c0-1.4-1-2.6-1.7-2.9C141.5,238.8,139.8,239.4,139.8,240.4z"/>
	</g>
</g>
</svg>
