<?xml version="1.0" encoding="utf-8"?>
<!-- Generator: Adobe Illustrator 19.2.0, SVG Export Plug-In . SVG Version: 6.00 Build 0)  -->
<svg version="1.1" id="Layer_1" xmlns="http://www.w3.org/2000/svg" xmlns:xlink="http://www.w3.org/1999/xlink" x="0px" y="0px"
	 viewBox="0 0 26 26" enable-background="new 0 0 26 26" xml:space="preserve">
<path fill="#B1AFB0" d="M24.877,6.129c-0.873,0.362-1.811,0.604-2.796,0.714c1.005-0.562,1.777-1.451,2.141-2.51
	C23.28,4.852,22.239,5.23,21.13,5.434C20.242,4.551,18.977,4,17.576,4c-2.688,0-4.869,2.032-4.869,4.538
	c0,0.356,0.043,0.703,0.126,1.034C8.788,9.383,5.201,7.576,2.799,4.831C2.381,5.502,2.141,6.28,2.141,7.113
	c0,1.574,0.86,2.964,2.166,3.777c-0.798-0.024-1.549-0.228-2.206-0.568c0,0.02,0,0.038,0,0.058c0,2.2,1.678,4.033,3.905,4.45
	c-0.408,0.104-0.839,0.157-1.282,0.157c-0.314,0-0.619-0.027-0.917-0.078c0.619,1.801,2.418,3.114,4.548,3.151
	c-1.666,1.216-3.766,1.942-6.047,1.942c-0.393,0-0.78-0.022-1.161-0.063c2.154,1.286,4.714,2.039,7.462,2.039
	c8.955,0,13.852-6.917,13.852-12.914c0-0.197-0.005-0.392-0.014-0.588C23.399,7.836,24.224,7.038,24.877,6.129z"/>
<path fill="#EF4964" d="M24.877,6.129c-0.873,0.362-1.811,0.604-2.796,0.714c1.005-0.562,1.777-1.451,2.141-2.51
	C23.28,4.852,22.239,5.23,21.13,5.434C20.242,4.551,18.977,4,17.576,4c-2.688,0-4.869,2.032-4.869,4.538
	c0,0.356,0.043,0.703,0.126,1.034C8.788,9.383,5.201,7.576,2.799,4.831C2.381,5.502,2.141,6.28,2.141,7.113
	c0,1.574,0.86,2.964,2.166,3.777c-0.798-0.024-1.549-0.228-2.206-0.568c0,0.02,0,0.038,0,0.058c0,2.2,1.678,4.033,3.905,4.45
	c-0.408,0.104-0.839,0.157-1.282,0.157c-0.314,0-0.619-0.027-0.917-0.078c0.619,1.801,2.418,3.114,4.548,3.151
	c-1.666,1.216-3.766,1.942-6.047,1.942c-0.393,0-0.78-0.022-1.161-0.063c2.154,1.286,4.714,2.039,7.462,2.039
	c8.955,0,13.852-6.917,13.852-12.914c0-0.197-0.005-0.392-0.014-0.588C23.399,7.836,24.224,7.038,24.877,6.129z"/>
<g display="none">
	<g display="inline">
		<path fill="#B1AFB0" d="M24.973,6.748c0.017-0.133,0-0.265-0.05-0.391c-0.181-0.877-0.784-1.329-1.81-1.329H3.619
			c-0.906,0-1.881,0.351-2.345,1.036C1.242,6.09,1.205,6.107,1.177,6.14C1.022,6.325,0.978,6.562,1.018,6.785
			C1.012,6.845,0.994,6.898,0.994,6.96v12.374c0,1.282,1.382,2.707,2.624,2.707h19.494c1.242,0,1.874-1.425,1.874-2.707V6.96
			C24.986,6.885,24.977,6.819,24.973,6.748z M3.619,6.574h19.119h0.375c0.005,0,0.006,0,0.01,0L12.99,14.903L2.899,6.608
			C3.129,6.564,3.411,6.574,3.619,6.574z M23.112,20.494H3.619c-0.413,0-1.125-0.733-1.125-1.16V8.255L12.5,16.511
			c0.141,0.126,0.316,0.189,0.491,0.189s0.35-0.063,0.491-0.189l10.006-8.256v11.079C23.487,19.761,23.526,20.494,23.112,20.494z"/>
	</g>
</g>
<g display="none">
	<g display="inline">
		<path fill="#F04D64" d="M24.973,6.748c0.017-0.133,0-0.265-0.05-0.391c-0.181-0.877-0.784-1.329-1.81-1.329H3.619
			c-0.906,0-1.881,0.351-2.345,1.036C1.242,6.09,1.205,6.107,1.177,6.14C1.022,6.325,0.978,6.562,1.018,6.786
			C1.012,6.845,0.994,6.898,0.994,6.96v12.374c0,1.282,1.382,2.707,2.624,2.707h19.494c1.243,0,1.874-1.425,1.874-2.707V6.96
			C24.986,6.885,24.977,6.819,24.973,6.748z M3.619,6.574h19.119h0.375c0.005,0,0.006,0,0.01,0L12.99,14.903L2.899,6.608
			C3.129,6.564,3.411,6.574,3.619,6.574z M23.112,20.494H3.619c-0.413,0-1.125-0.733-1.125-1.16V8.255L12.5,16.511
			c0.141,0.126,0.316,0.189,0.491,0.189s0.35-0.063,0.491-0.189l10.006-8.256v11.079C23.487,19.761,23.526,20.494,23.112,20.494z"/>
	</g>
</g>
<path display="none" fill="#B1AFB0" d="M15.527,23.967H10.85V13.239H8.512V9.542h2.338v-2.22c0-3.016,1.32-4.81,5.068-4.81h3.122
	v3.697h-1.95c-1.46,0-1.557,0.517-1.557,1.482l-0.006,1.851h3.535l-0.414,3.697h-3.121V23.967z"/>
<path display="none" fill="#EF4964" d="M15.527,23.967H10.85V13.239H8.512V9.542h2.338v-2.22c0-3.016,1.32-4.81,5.068-4.81h3.122
	v3.697h-1.95c-1.46,0-1.557,0.517-1.557,1.482l-0.006,1.851h3.535l-0.414,3.697h-3.121V23.967z"/>
<g display="none">
	<g display="inline">
		<path fill="#B1AFB0" d="M13.891,2C7.324,2,2,7.184,2,13.578s5.324,11.578,11.891,11.578s11.891-5.184,11.891-11.578
			S20.458,2,13.891,2z M21.742,7.341c1.413,1.683,2.268,3.827,2.29,6.161c-0.334-0.069-3.687-0.732-7.061-0.318
			c-0.071-0.169-0.144-0.339-0.219-0.51c-0.21-0.482-0.437-0.961-0.673-1.433C19.829,9.748,21.528,7.623,21.742,7.341z
			 M13.892,3.706c2.577,0,4.932,0.943,6.722,2.492C20.432,6.451,18.906,8.452,15.3,9.77c-1.662-2.977-3.504-5.423-3.784-5.789
			C12.278,3.802,13.074,3.706,13.892,3.706z M9.581,4.646c0.267,0.357,2.08,2.806,3.76,5.719c-4.744,1.228-8.922,1.21-9.376,1.204
			C4.623,8.501,6.743,5.951,9.581,4.646z M3.751,13.595c0-0.101,0.002-0.202,0.005-0.302c0.444,0.009,5.358,0.07,10.422-1.408
			c0.29,0.554,0.568,1.117,0.822,1.679c-0.134,0.037-0.267,0.076-0.4,0.117c-5.23,1.649-8.013,6.143-8.243,6.526
			C4.738,18.454,3.751,16.135,3.751,13.595z M13.892,23.484c-2.344,0-4.505-0.78-6.225-2.088c0.183-0.364,2.236-4.232,7.956-6.176
			c0.022-0.008,0.045-0.015,0.067-0.022c1.424,3.608,2.012,6.631,2.163,7.499C16.636,23.204,15.297,23.484,13.892,23.484z
			 M19.558,21.793c-0.104-0.601-0.644-3.497-1.97-7.051c3.178-0.496,5.97,0.316,6.317,0.423
			C23.453,17.916,21.833,20.292,19.558,21.793z"/>
	</g>
</g>
<g display="none">
	<g display="inline">
		<path fill="#EF4B64" d="M13.891,2C7.324,2,2,7.184,2,13.578s5.324,11.578,11.891,11.578s11.891-5.184,11.891-11.578
			S20.458,2,13.891,2z M21.742,7.341c1.413,1.683,2.268,3.827,2.29,6.161c-0.334-0.069-3.687-0.732-7.061-0.318
			c-0.071-0.169-0.144-0.339-0.219-0.51c-0.21-0.482-0.437-0.961-0.673-1.433C19.829,9.748,21.528,7.623,21.742,7.341z
			 M13.892,3.706c2.577,0,4.932,0.943,6.722,2.492C20.432,6.451,18.906,8.452,15.3,9.77c-1.662-2.977-3.504-5.423-3.784-5.789
			C12.278,3.802,13.074,3.706,13.892,3.706z M9.581,4.646c0.267,0.357,2.08,2.806,3.76,5.719c-4.744,1.228-8.922,1.21-9.376,1.204
			C4.623,8.501,6.743,5.951,9.581,4.646z M3.751,13.595c0-0.101,0.002-0.202,0.005-0.302c0.444,0.009,5.358,0.07,10.422-1.408
			c0.29,0.554,0.568,1.117,0.822,1.679c-0.134,0.037-0.267,0.076-0.4,0.117c-5.23,1.649-8.013,6.143-8.243,6.526
			C4.738,18.454,3.751,16.135,3.751,13.595z M13.892,23.484c-2.344,0-4.505-0.78-6.225-2.088c0.183-0.364,2.236-4.232,7.956-6.176
			c0.022-0.008,0.045-0.015,0.067-0.022c1.424,3.608,2.012,6.631,2.163,7.499C16.636,23.204,15.297,23.484,13.892,23.484z
			 M19.558,21.793c-0.104-0.601-0.644-3.497-1.97-7.051c3.178-0.496,5.97,0.316,6.317,0.423
			C23.453,17.916,21.833,20.292,19.558,21.793z"/>
	</g>
</g>
<path display="none" fill="#B1AFB0" d="M26,10.354c0-0.918-0.395-6.373-0.395-6.373c0-0.865-0.321-1.444-0.723-1.839
	c-0.394-0.401-0.973-0.723-1.838-0.723c0,0-5.456-0.395-6.375-0.395c-1.318,0-2.198-0.038-3.85,1.616
	c-0.803,0.802-9.708,9.708-10.084,10.083c-0.375,0.375-1.642,1.853,0.52,4.014l3.42,3.42l0.193,0.193l3.42,3.421
	c2.163,2.163,3.641,0.893,4.015,0.518c0.375-0.375,9.281-9.281,10.083-10.083C26.039,12.552,26,11.674,26,10.354z M16.483,13.296
	l3.051,1.449l-1.122,2.008L15.59,14.91c-0.065-0.043-0.14-0.065-0.214-0.065c-0.065,0-0.131,0.016-0.19,0.05
	c-0.126,0.073-0.199,0.211-0.189,0.357l0.233,3.338h-2.259c0,0-0.006,0-0.01,0c0.009-0.028,0.186-3.34,0.186-3.34
	c0.01-0.146-0.062-0.284-0.189-0.357c-0.128-0.073-0.284-0.067-0.404,0.015L9.81,16.772l-1.225-1.948l3.078-1.528
	c0.132-0.062,0.217-0.196,0.217-0.343s-0.085-0.281-0.217-0.343L8.61,11.16l1.122-2.008l2.821,1.844
	c0.12,0.08,0.276,0.089,0.404,0.015c0.126-0.073,0.199-0.211,0.189-0.357l-0.232-3.338h2.26l-0.178,3.338
	c-0.01,0.146,0.062,0.284,0.189,0.357c0.128,0.074,0.285,0.065,0.404-0.015l2.744-1.864l1.225,1.949l-3.075,1.528
	c-0.132,0.062-0.217,0.196-0.217,0.343C16.266,13.1,16.35,13.234,16.483,13.296z M21.702,6.894c-0.799,0-1.444-0.647-1.444-1.444
	c0-0.798,0.645-1.443,1.444-1.443c0.794,0,1.44,0.645,1.44,1.443S22.497,6.894,21.702,6.894z"/>
<path display="none" fill="#EF445E" d="M26,10.354c0-0.918-0.395-6.373-0.395-6.373c0-0.865-0.321-1.444-0.723-1.839
	c-0.394-0.401-0.973-0.723-1.838-0.723c0,0-5.456-0.395-6.375-0.395c-1.318,0-2.198-0.038-3.85,1.616
	c-0.803,0.802-9.708,9.708-10.084,10.083c-0.375,0.375-1.642,1.853,0.52,4.014l3.42,3.42l0.193,0.193l3.42,3.421
	c2.163,2.163,3.641,0.893,4.015,0.518c0.375-0.375,9.281-9.281,10.083-10.083C26.039,12.552,26,11.674,26,10.354z M16.483,13.296
	l3.051,1.449l-1.122,2.008L15.59,14.91c-0.065-0.043-0.14-0.065-0.214-0.065c-0.065,0-0.131,0.016-0.19,0.05
	c-0.126,0.073-0.199,0.211-0.189,0.357l0.233,3.338h-2.259c0,0-0.006,0-0.01,0c0.009-0.028,0.186-3.34,0.186-3.34
	c0.01-0.146-0.062-0.284-0.189-0.357c-0.128-0.073-0.284-0.067-0.404,0.015L9.81,16.772l-1.225-1.948l3.078-1.528
	c0.132-0.062,0.217-0.196,0.217-0.343s-0.085-0.281-0.217-0.343L8.61,11.16l1.122-2.008l2.821,1.844
	c0.12,0.08,0.276,0.089,0.404,0.015c0.126-0.073,0.199-0.211,0.189-0.357l-0.232-3.338h2.26l-0.178,3.338
	c-0.01,0.146,0.062,0.284,0.189,0.357c0.128,0.074,0.285,0.065,0.404-0.015l2.744-1.864l1.225,1.949l-3.075,1.528
	c-0.132,0.062-0.217,0.196-0.217,0.343C16.266,13.1,16.35,13.234,16.483,13.296z M21.702,6.894c-0.799,0-1.444-0.647-1.444-1.444
	c0-0.798,0.645-1.443,1.444-1.443c0.794,0,1.44,0.645,1.44,1.443S22.497,6.894,21.702,6.894z"/>
<g display="none">
	<path id="Behance" display="inline" fill="#B1AFB0" d="M22.671,8.116h-6.022V6.62h6.022V8.116L22.671,8.116z M12.64,14.25
		c0.389,0.602,0.583,1.333,0.583,2.19c0,0.887-0.219,1.683-0.664,2.386c-0.283,0.465-0.635,0.858-1.058,1.175
		c-0.476,0.366-1.04,0.617-1.688,0.751c-0.65,0.134-1.353,0.202-2.111,0.202H0.968V6H8.19c1.82,0.03,3.111,0.557,3.873,1.593
		c0.457,0.635,0.684,1.397,0.684,2.283c0,0.914-0.229,1.646-0.691,2.201c-0.257,0.312-0.636,0.595-1.139,0.851
		C11.677,13.207,12.254,13.646,12.64,14.25z M4.416,11.895H7.58c0.65,0,1.176-0.124,1.581-0.371
		c0.405-0.246,0.607-0.684,0.607-1.314c0-0.696-0.267-1.157-0.803-1.379C8.504,8.677,7.915,8.597,7.2,8.597H4.416V11.895z
		 M10.072,16.226c0-0.777-0.317-1.314-0.951-1.602c-0.354-0.163-0.854-0.247-1.495-0.253h-3.21v3.985h3.16
		c0.649,0,1.152-0.085,1.514-0.262C9.744,17.768,10.072,17.147,10.072,16.226z M24.905,13.794c0.073,0.489,0.106,1.199,0.092,2.127
		h-7.799c0.043,1.076,0.415,1.829,1.119,2.26c0.425,0.27,0.94,0.402,1.544,0.402c0.636,0,1.155-0.161,1.554-0.492
		c0.218-0.175,0.409-0.423,0.575-0.735h2.858c-0.075,0.636-0.419,1.281-1.038,1.936c-0.958,1.042-2.302,1.564-4.028,1.564
		c-1.426,0-2.683-0.44-3.773-1.318c-1.087-0.881-1.633-2.309-1.633-4.291c0-1.858,0.49-3.28,1.474-4.27
		c0.987-0.992,2.261-1.485,3.832-1.485c0.931,0,1.77,0.166,2.519,0.501c0.746,0.335,1.363,0.862,1.849,1.586
		C24.49,12.216,24.773,12.954,24.905,13.794z M22.091,14.073c-0.052-0.744-0.301-1.308-0.748-1.693
		c-0.444-0.386-0.998-0.58-1.66-0.58c-0.72,0-1.276,0.207-1.671,0.614c-0.398,0.406-0.645,0.959-0.747,1.658L22.091,14.073
		L22.091,14.073z"/>
</g>
<g display="none">
	<path id="Behance_1_" display="inline" fill="#EF4A64" d="M22.671,8.116h-6.022V6.62h6.022V8.116L22.671,8.116z M12.64,14.25
		c0.389,0.602,0.583,1.333,0.583,2.19c0,0.887-0.219,1.683-0.664,2.386c-0.283,0.465-0.635,0.858-1.058,1.175
		c-0.476,0.366-1.04,0.617-1.688,0.751c-0.65,0.134-1.353,0.202-2.111,0.202H0.968V6H8.19c1.82,0.03,3.111,0.557,3.873,1.593
		c0.457,0.635,0.684,1.397,0.684,2.283c0,0.914-0.229,1.646-0.691,2.201c-0.257,0.312-0.636,0.595-1.139,0.851
		C11.677,13.207,12.254,13.646,12.64,14.25z M4.416,11.895H7.58c0.65,0,1.176-0.124,1.581-0.371
		c0.405-0.246,0.607-0.684,0.607-1.314c0-0.696-0.267-1.157-0.803-1.379C8.504,8.677,7.915,8.597,7.2,8.597H4.416V11.895z
		 M10.072,16.226c0-0.777-0.317-1.314-0.951-1.602c-0.354-0.163-0.854-0.247-1.495-0.253h-3.21v3.985h3.16
		c0.649,0,1.152-0.085,1.514-0.262C9.744,17.768,10.072,17.147,10.072,16.226z M24.905,13.794c0.073,0.489,0.106,1.199,0.092,2.127
		h-7.799c0.043,1.076,0.415,1.829,1.119,2.26c0.425,0.27,0.94,0.402,1.544,0.402c0.636,0,1.155-0.161,1.554-0.492
		c0.218-0.175,0.409-0.423,0.575-0.735h2.858c-0.075,0.636-0.419,1.281-1.038,1.936c-0.958,1.042-2.302,1.564-4.028,1.564
		c-1.426,0-2.683-0.44-3.773-1.318c-1.087-0.881-1.633-2.309-1.633-4.291c0-1.858,0.49-3.28,1.474-4.27
		c0.987-0.992,2.261-1.485,3.832-1.485c0.931,0,1.77,0.166,2.519,0.501c0.746,0.335,1.363,0.862,1.849,1.586
		C24.49,12.216,24.773,12.954,24.905,13.794z M22.091,14.073c-0.052-0.744-0.301-1.308-0.748-1.693
		c-0.444-0.386-0.998-0.58-1.66-0.58c-0.72,0-1.276,0.207-1.671,0.614c-0.398,0.406-0.645,0.959-0.747,1.658L22.091,14.073
		L22.091,14.073z"/>
</g>
</svg>
