<?xml version="1.0" encoding="utf-8"?>
<!-- Generator: Adobe Illustrator 19.2.0, SVG Export Plug-In . SVG Version: 6.00 Build 0)  -->
<svg version="1.1" id="Layer_1" xmlns="http://www.w3.org/2000/svg" xmlns:xlink="http://www.w3.org/1999/xlink" x="0px" y="0px"
	 viewBox="0 0 530 300" style="enable-background:new 0 0 530 300;" xml:space="preserve">
<style type="text/css">
	.st0{fill:#E1EBF3;}
	.st1{fill:#A1BED3;}
	.st2{fill:#758B9E;}
</style>
<g>
	<path class="st0" d="M485,153.3c-9.6-7.3-69.1-46.1-89.9-55.7c-3.7-1.7-20.1-10-20.1-10s-7.9-18.3-12.7-29.5
		c-7.1-16.5-14.1-27.6-14.1-27.6s-4.2,10.8-21.7,25.3c-23.2,20.1-57.1,41.2-60.3,40.1c-5.8-2-9.9-1.5-14.1-3.8
		c-6.8-3.8-27.1-17.1-35-22.8c-37-28.8-41.9-40.1-41.9-40.1l-18.8,53l-15.2,9.2c0,0-72.7,35.8-107.8,66.4
		c-20.6,17.9-23.9,52.1,3.8,73.3c75.6,57.9,332.5,84.2,445.3,8.8C510.7,221.1,518,178.4,485,153.3z"/>
	<g>
		<g>
			<path class="st1" d="M365.7,67.6c-2.6-5.5-5.5-10.9-6.9-16.9c-0.4-1.8-0.7-3.6-1.1-5.4c-1.2-0.3-2.3-4.8-3.3-5.6l0,0
				c0.5,0.5,0.9,0.7,1.2,0.9c0.5,0,0.7,0.5,0,0l0,0c-0.3,0-0.7-0.1-1-0.1c0.2,1.1,0.5,6.3,0.7,7.4c1.3,6.3-4.7,17.5-8.7,24.1
				c-1.9,3.2-3.7,6.4-5.1,9.8c-0.8,1.9-2.5,5.5-1.9,7.6c0.2,0.7,0.8,1,1.4,1.1c2.8,0.4,7.6-5.1,9.3-6.6
				C355.1,79.5,365.6,67.6,365.7,67.6z"/>
			<path class="st1" d="M185.1,81.4c-5.2-10.5-14.5-25.2-12.1-37.3c0.5-1,0.6-3.8,0.3-4.3S160.7,68.5,160.8,69
				c0.7-1.5,1.5-3,2.2-4.5c1.1,1.8,1.9,4.1,2.6,5.5c1.9,3.8,3.8,7.6,5.9,11.3c2.2,3.9,6.7,13.4,12.4,12.7
				C191.2,93.1,186.8,84.9,185.1,81.4z"/>
		</g>
		<path class="st1" d="M374.3,92.7c-1.8,10.9-6.7,36.4-11.3,46.9c-28.3-15.9-89.7-45.3-92.2-44.2c0,0,56.3,33.7,89.9,56.3
			c5.9-13.4,14.5-56.2,14.3-57.2C375,94.4,374.7,93.7,374.3,92.7z"/>
		<path class="st1" d="M167.1,139.5c-1.5-12.2-6.4-42.3-7.9-54.3c-0.3,1.1-0.4,2-0.4,2.5c0,4.8,7.4,48.5,9.2,63
			c15.3-4.9,85.6-56,85.6-56C250.3,93.5,180.5,135.2,167.1,139.5z"/>
	</g>
	<g>
		<g>
			<g>
				<path class="st2" d="M374.1,89c19.2,9.3,37.7,19.9,56,30.9c18,10.8,36.6,21.8,52.3,35.8c1.9,1.7,4.8-1.1,2.8-2.8
					c-15.7-13.9-34.1-24.9-51.9-35.7c-18.6-11.3-37.6-22.1-57.2-31.7C373.8,84.4,371.8,87.9,374.1,89L374.1,89z"/>
			</g>
			<g>
				<path class="st2" d="M37.7,156.9c20.5-15.2,42.3-28.7,64.2-41.7c18.4-11,37.1-22.1,56.5-31.3c2.3-1.1,0.3-4.6-2-3.5
					c-19.4,9.3-38,20.3-56.5,31.3c-21.9,13.1-43.7,26.5-64.2,41.7C33.7,154.9,35.7,158.4,37.7,156.9L37.7,156.9z"/>
			</g>
		</g>
		<g>
			<path class="st2" d="M270.9,95.6c20.6-9.4,39.7-22.9,56.2-38.3c6.1-5.7,12.1-11.8,16.9-18.6c2.2-3.1,5.7-8,4.2-12
				c-0.9,0.4-1.8,0.8-2.7,1.2c6.5,11.7,12.2,23.8,17.7,36c2.3,5,4.5,10.1,6.6,15.2c1.1,2.6,3,5.8,3.5,8.7c0.2,1-0.5,4.2-0.8,5.8
				c-0.8,4.7-1.6,9.3-2.6,13.9c-2.1,10.5-4.1,21.6-8.4,31.5c0.7-0.2,1.4-0.4,2.1-0.5c-30-16.8-61.3-31.4-92.8-45.3
				c-1.8-0.8-3.3,1.8-1.5,2.6c31.4,13.9,62.8,28.5,92.8,45.3c0.6,0.4,1.7,0.2,2.1-0.5c4.4-10.2,6.5-21.4,8.7-32.2
				c1-4.9,1.9-9.8,2.7-14.7c0.3-2,1-4.3,0.7-6.3c-0.4-2.5-2.1-5.3-3.1-7.6c-2.1-5-4.2-9.9-6.4-14.8C361,52,355,39,348,26.6
				c-0.8-1.4-3.3-0.5-2.7,1.2c1.5,4-4,10-6.2,12.8c-5.1,6.5-11.1,12.3-17.2,17.7c-15.7,14-33.4,26.4-52.6,35.1
				C267.7,93.8,269.2,96.4,270.9,95.6z"/>
		</g>
		<g>
			<path class="st2" d="M257.2,92.5c-19.2-7.3-36.3-20.6-51.6-34c-6.6-5.8-13.1-11.9-19-18.5c-2.9-3.2-7.6-7.4-8.8-11.8
				c-0.4-1.5-2.4-1.3-2.9,0c-3.7,10.5-7.6,20.9-11.3,31.4c-2.3,6.6-6.5,14.7-6.4,21.9c0.2,8.4,2.3,17.1,3.5,25.4
				c1.6,10.9,3.4,21.7,4.8,32.6c0.1,0.9,0.9,1.8,1.9,1.4c6.4-2.1,12.4-5.8,18.3-9.1c9.1-5.2,18.2-10.6,27.2-15.9
				c14.1-8.2,28.1-17.2,44.2-20.6c1.9-0.4,1.1-3.3-0.8-2.9c-15.6,3.3-29.2,11.8-42.8,19.7c-9,5.2-18,10.6-27,15.8
				c-6.3,3.6-12.9,7.8-19.8,10.1c0.6,0.5,1.3,1,1.9,1.4c-1.3-10.1-2.9-20.3-4.4-30.4c-1.4-8.9-3.5-18.2-3.9-27.3
				c-0.2-7,4-14.8,6.2-21.3c3.7-10.5,7.6-21.3,11.3-31.3c-1,0-1.9,0-2.9,0c1.2,4,5.4,8.3,8.3,11.6c6.3,7.1,13.2,13.5,20.3,19.8
				c15.7,13.8,33.2,27.3,52.9,34.7C258.2,96.1,259,93.1,257.2,92.5z"/>
		</g>
		<g>
			<path class="st2" d="M270.1,92.9c-4.2,1.9-10,1.1-14.2-0.3c-1.8-0.6-2.6,2.3-0.8,2.9c5.1,1.7,11.5,2.3,16.5,0
				C273.3,94.7,271.8,92.1,270.1,92.9L270.1,92.9z"/>
		</g>
		<g>
			<path class="st2" d="M255.4,93.1c-5.4-0.4-10.7,4.3-12.8,8.9s-1.2,10.2-1.1,15.2c0.2,12.6,0.1,25.1,0,37.7
				c-0.2,31.3-0.7,62.7-1.2,94c-0.2,12.1-0.4,24.2-0.6,36.3c0,1.9,3,1.9,3,0c0.8-52.3,2.1-104.5,1.9-156.8c0-5.2-0.1-10.3-0.2-15.5
				c-0.1-3-0.4-6.1,0.6-9c1.4-3.9,5.9-8.2,10.3-7.8C257.3,96.3,257.3,93.3,255.4,93.1L255.4,93.1z"/>
		</g>
		<g>
			<path class="st2" d="M275.8,286.4c-0.6-54.9,0.2-109.8,0.5-164.7c0.1-8.2,0-16.4,0.2-24.5c0.1-1.9-2.9-1.9-3,0
				c-0.7,20.5-0.3,41.1-0.4,61.7c-0.2,32.3-0.3,64.7-0.3,97c0,10.2-0.1,20.4,0,30.5C272.9,288.3,275.9,288.3,275.8,286.4
				L275.8,286.4z"/>
		</g>
		<g>
			<path class="st2" d="M256.2,108.8c1.5-1.1,3.9-1.3,5.3,0c1.8,1.6,0.5,3.9-1.5,4.4c-1.4,0.4-4.1,0.2-4.1-1.7
				c0-0.8,0.2-1.5,0.4-2.3c0.1-0.3,0.2-0.6,0.3-0.9c0.2-0.5-0.1,0.2,0-0.1c0.8-1.7-1.8-3.3-2.6-1.5c-0.9,2-1.8,4.8-0.8,6.9
				c1.5,3,6.3,3.3,8.9,1.9c3.1-1.6,4.1-5.7,1.8-8.4c-2.2-2.6-6.7-2.8-9.4-0.9C253.1,107.3,254.6,109.9,256.2,108.8z"/>
		</g>
		<g>
			<path class="st2" d="M256.2,148.8c1.5-1.1,3.9-1.3,5.3,0c1.8,1.6,0.5,3.9-1.5,4.4c-1.4,0.4-4.1,0.2-4.1-1.7
				c0-0.8,0.2-1.5,0.4-2.3c0.1-0.3,0.2-0.6,0.3-0.9c0.2-0.5-0.1,0.2,0-0.1c0.8-1.7-1.8-3.3-2.6-1.5c-0.9,2-1.8,4.8-0.8,6.9
				c1.5,3,6.3,3.3,8.9,1.9c3.1-1.6,4.1-5.7,1.8-8.4c-2.2-2.6-6.7-2.8-9.4-0.9C253.1,147.3,254.6,149.9,256.2,148.8z"/>
		</g>
		<g>
			<path class="st2" d="M256.2,188.8c1.5-1.1,3.9-1.3,5.3,0c1.8,1.6,0.5,3.9-1.5,4.4c-1.4,0.4-4.1,0.2-4.1-1.7
				c0-0.8,0.2-1.5,0.4-2.3c0.1-0.3,0.2-0.6,0.3-0.9c0.2-0.5-0.1,0.2,0-0.1c0.8-1.7-1.8-3.3-2.6-1.5c-0.9,2-1.8,4.8-0.8,6.9
				c1.5,3,6.3,3.3,8.9,1.9c3.1-1.6,4.1-5.7,1.8-8.4c-2.2-2.6-6.7-2.8-9.4-0.9C253.1,187.3,254.6,189.9,256.2,188.8z"/>
		</g>
		<g>
			<path class="st2" d="M256.2,228.8c1.5-1.1,3.9-1.3,5.3,0c1.8,1.6,0.5,3.9-1.5,4.4c-1.4,0.4-4.1,0.2-4.1-1.7
				c0-0.8,0.2-1.5,0.4-2.3c0.1-0.3,0.2-0.6,0.3-0.9c0.2-0.5-0.1,0.2,0-0.1c0.8-1.7-1.8-3.3-2.6-1.5c-0.9,2-1.8,4.8-0.8,6.9
				c1.5,3,6.3,3.3,8.9,1.9c3.1-1.6,4.1-5.7,1.8-8.4c-2.2-2.6-6.7-2.8-9.4-0.9C253.1,227.3,254.6,229.9,256.2,228.8z"/>
		</g>
		<g>
			<path class="st2" d="M256.2,268.8c1.5-1.1,3.9-1.3,5.3,0c1.8,1.6,0.5,3.9-1.5,4.4c-1.4,0.4-4.1,0.2-4.1-1.7
				c0-0.8,0.2-1.5,0.4-2.3c0.1-0.3,0.2-0.6,0.3-0.9c0.2-0.5-0.1,0.2,0-0.1c0.8-1.7-1.8-3.3-2.6-1.5c-0.9,2-1.8,4.8-0.8,6.9
				c1.5,3,6.3,3.3,8.9,1.9c3.1-1.6,4.1-5.7,1.8-8.4c-2.2-2.6-6.7-2.8-9.4-0.9C253.1,267.3,254.6,269.9,256.2,268.8z"/>
		</g>
		<g>
			<path class="st2" d="M354.1,61.8c-5.1,11.3-11.4,21.9-19,31.7c-1.2,1.5,1.4,3,2.6,1.5c7.6-9.8,13.9-20.4,19-31.7
				C357.4,61.5,354.9,60,354.1,61.8L354.1,61.8z"/>
		</g>
		<g>
			<path class="st2" d="M357.1,69c-1.4,3.8-3.5,7.3-6,10.4c-1.2,1.5,0.9,3.6,2.1,2.1c2.9-3.5,5.2-7.4,6.8-11.7
				C360.7,68,357.8,67.2,357.1,69L357.1,69z"/>
		</g>
		<g>
			<path class="st2" d="M172.3,64.6c3.5,6.5,7.4,12.8,11.6,18.9c1.1,1.6,3.7,0.1,2.6-1.5c-4.2-6.1-8.1-12.4-11.6-18.9
				C174,61.4,171.4,62.9,172.3,64.6L172.3,64.6z"/>
		</g>
		<g>
			<path class="st2" d="M168,72.3c2.7,5.6,5.8,10.8,9.3,15.8c1.1,1.6,3.7,0.1,2.6-1.5c-3.6-5-6.7-10.3-9.3-15.8
				C169.8,69,167.2,70.6,168,72.3L168,72.3z"/>
		</g>
	</g>
</g>
</svg>
