<?xml version="1.0" encoding="utf-8"?>
<!-- Generator: Adobe Illustrator 19.2.0, SVG Export Plug-In . SVG Version: 6.00 Build 0)  -->
<svg version="1.1" id="Layer_1" xmlns="http://www.w3.org/2000/svg" xmlns:xlink="http://www.w3.org/1999/xlink" x="0px" y="0px"
	 viewBox="0 0 620 400" style="enable-background:new 0 0 620 400;" xml:space="preserve">
<style type="text/css">
	.st0{fill:#433947;}
	.st1{fill:#FFC20E;}
	.st2{opacity:0.75;fill:#231E26;}
	.st3{fill:#D89016;}
	.st4{fill:#995B05;}
	.st5{fill:#0F0814;}
</style>
<g>
	<g>
		<path class="st0" d="M281.5,248.2c-2.3-20.7-11.5-40.2-20.3-58.8c-5-10.5-10.1-21-14.4-31.8c-4.3-10.7-7.5-21.8-11.3-32.6
			c-5-14.1-9.8-30.6-8.5-45.9c-0.1-0.2-0.2-0.4-0.3-0.6c-1.2-10.5-1.2-10.5-2.6-15.8c-4.1,4.8-1.1,5.4-13.5,35.7l-11.3,14.3l-3,10.1
			c0,0-35.9,19.3-41.7,23.1c-0.1,1.2-6.5,2.5-6.5,3.7c-28.9,13.6-51.1,28.1-77.8,45.7c-1.6,1.1-4.3,2.9-6,4.3l-0.1-0.1l-0.1,0.3
			c-0.1,0.1-0.3,0.2-0.4,0.4c-0.7,0.1-2.9,6.2-2.9,6.9c-3.5,3.6-1.5,6.9-4,12.1c-3.5,7.3-5.1,14.8-6.6,22.4
			c-4.2,16.1-10.3,41.5-8.5,44.6c1.3,2.4,3.1,1.7,5.2,4c2,3,5,6.8,10.8,10.8c5.1,3.5,11.8,9.2,19.7,12.8
			c24.1,11.8,50.7,18.9,50.7,18.9l0,0c42,13.3,95.6,24.7,142.6,29.3c-1.2-15.7,3.7-32.3,5.3-47.5C278.4,292.5,284,270.5,281.5,248.2
			z"/>
		<path class="st0" d="M578.7,266.5l-7.2-32.2l-0.2-0.7c-0.6-2.9-1.3-6-2.2-9.5c-1.8-7.3-3.2-16.6-5.8-23.1
			c-0.1-0.6-2.9-6.8-3.6-6.9c-1.6-1.4-6-4.3-7.8-5.6c-11.8-7.7-15.6-10-27.9-16.7c-13.7-7.4-85.8-47.7-88.3-47.4
			c-0.6-0.2-1.3-0.3-1.8-0.3l0.2-0.5c0,0-4.1-8-3.8-8.5c0.2-0.5-10-15.9-10-15.9l-10.5-23.6l-10.6-13.9l-3.5-3.9l-0.3,1.4
			c-0.2-0.2-0.5-0.4-0.8-0.5c-0.6,3-1.1,8.1-1.8,13l-2.1,10.7c-0.1,0.2-0.1,0.4-0.2,0.6c0,0.4-0.1,0.7-0.1,1l-11.5,40.6l0,0
			c-0.7,1.4-1.4,2.9-2.1,4.3c-1.9,4.2-2.8,8.8-3.9,13.3l-13.6,40l-8.7,26.6c-0.2,0.5-0.4,1.1-0.6,1.6c-0.3,0.9-0.6,1.7-0.8,2.5
			l-1.3,4l-0.1,3.3c-0.2,1.8-0.2,3.5-0.1,5.3v2.1l0.8,4.2l0,0c0.2,1.2,0.5,2.3,0.7,3.6c2,8.6,3.7,17.2,5.6,25.8
			c4.2,18.7,12.9,85.1,16.1,99.9c48.4-6.1,100.3-18,140.5-31.1c0,0.1,0,0.1,0.1,0.1c0,0,59.5-15.3,71.5-34.7
			C584.9,292.4,578.7,266.5,578.7,266.5z"/>
	</g>
	<g>
		<polygon class="st1" points="225.2,61.7 228.1,87.1 241.5,141.9 261.9,194.5 272.7,214.7 280.4,232 274.7,232 256.4,223.9 
			233.4,204.9 214.7,181 202.9,155.8 197.7,133.5 199.1,115.5 211.7,97.1 219.2,74.5 		"/>
		<path class="st1" d="M347.7,227.6l0.2-10.7l11.4-34.7l19.6-57.5L390.4,84l5.2-26.2l3.5,3.9l10.6,13.9l10.5,23.6
			c0,0,10.2,15.4,10,15.9s3.8,8.5,3.8,8.5l-14.6,27.1l-21.1,35.6L381,209.1l-17.4,14.4l-15.2,8.1L347.7,227.6z"/>
		<path class="st1" d="M64.2,199.4l8.6,7.6l12.6,18.2l14.7,29.7l11.4,25.2L123,307l4.9,25.7c0,0-70.9-19-86.3-46.5
			c-2.6-4.6,12-57.8,12-57.8L64.2,199.4z"/>
		<path class="st1" d="M511.5,330.1c-1-0.6,5-16.4,5-16.4l20.6-57.9l16.4-42.7l7.6-16.8l2.2,4.6l8.2,33.4l7.2,32.2
			c0,0,6.2,25.9,4.3,28.9C571,314.8,511.5,330.1,511.5,330.1z"/>
		<path class="st2" d="M173.8,172.6c-2.8,38.4-17.5,87.3-23.7,97.4c-7,11.4,7.7,11.2,12.1,2.3c13.3-27,27.2-74.3,20.6-94
			C179.4,168.5,174,169.9,173.8,172.6z"/>
		<path class="st2" d="M495.7,217.9c14.2,33.4,20.2,98.4,19.7,104.3s11.6-17.3,11.3-22.6c-0.3-5.2-11.8-85.6-17.6-92.3
			C503.2,200.5,492.4,210.1,495.7,217.9z"/>
	</g>
	<g>
		<path class="st3" d="M60.7,207.1c34.1,32,52.7,122.8,58,122.7s9.2,2.9,9.2,2.9l-3.6-19L109,274l-18-37.3l-15.9-26.2l-9.7-12
			C65.5,198.4,58.9,205.4,60.7,207.1z"/>
		<path class="st3" d="M561.1,196.3l-4.6,9.5L542.4,240l-17.1,48.5l-13.9,40.9c0,0,6.4,1,8.7-2.4s34.3-94.7,45.7-120.5
			C568,201.7,561.1,196.3,561.1,196.3z"/>
		<path class="st3" d="M215.1,92.1c0,0,2.7,43.4,15.5,67.7c7.2,13.7,16.4,29.6,12.2,30.6c-21.3,5.2-36.9-75.4-35.8-81.9
			C208.1,102,215.1,92.1,215.1,92.1z"/>
		<path class="st3" d="M412.1,80.5C408,117.7,384.2,173,375,188.4c-9.2,15.3-13.8,23.3-9.2,21.9c4.6-1.3,58.8-99.6,57.9-104.9
			s-5.2-11.7-5.2-11.7S412.5,76.9,412.1,80.5z"/>
	</g>
	<g>
		<g>
			<g>
				<path class="st4" d="M276.7,231.2c1.3-0.4,2.7-0.5,4-0.6c-2.3-7-5.3-13.7-8.5-20.3c-4.2-8.6-9.4-16.9-13-25.8
					c-0.8-2-0.9-4.1-1.6-6.1c-0.7-2.2-1.9-4.5-2.8-6.6c-1.9-4.4-3.6-8.9-5.4-13.4c-3.6-9.6-7-19.3-9.8-29.1
					c-6.4-22-10.6-44.6-11.6-67.4c-0.1-2.6-4.1-2.6-4,0c1.8,39.2,12.7,77.2,27.9,113.2c1.6,3.8,2.1,7.8,3.9,11.6
					c2.1,4.5,4.4,8.9,6.7,13.3c4.6,8.9,9.2,17.7,12.7,27.1C275.7,228.3,276.2,229.8,276.7,231.2z"/>
			</g>
			<g>
				<g>
					<path class="st5" d="M282.2,235.6c-0.3-1.1-0.6-2.2-1-3.3c-1.4,0.1-2.7,0.2-4,0.6c0.7,2.3,1.4,4.7,2,7.1
						c1.3,5.4,1.3,10.3,0.7,15.8c-1.2,11.1-2.5,22.3-3.8,33.4c-2.8,24.3-5.6,48.6-7.8,73c-0.2,2.6,3.8,2.5,4,0
						c1.9-21.8,4.4-43.5,6.9-65.2c1.2-10.8,2.5-21.6,3.7-32.5c0.6-5.2,1.6-10.5,1.7-15.7C284.7,244.6,283.4,239.9,282.2,235.6z"/>
					<g>
						<path class="st5" d="M497.5,218.3c9.4,28.7,14.9,58.5,16.4,88.7c0.1,1.9,3.1,1.9,3,0c-1.6-30.4-7.1-60.5-16.5-89.5
							C499.8,215.7,496.9,216.4,497.5,218.3L497.5,218.3z"/>
					</g>
					<g>
						<path class="st5" d="M512.5,239.3c4.8,17.9,7.8,36.3,8.8,54.8c0.1,1.9,3.1,1.9,3,0c-1-18.8-4-37.4-8.9-55.6
							C514.9,236.6,512,237.4,512.5,239.3L512.5,239.3z"/>
					</g>
					<g>
						<path class="st5" d="M173.3,182.2c-1,28.3-7.8,56.1-20,81.6c-0.8,1.7,1.8,3.3,2.6,1.5c12.4-26.1,19.4-54.3,20.4-83.1
							C176.4,180.3,173.4,180.3,173.3,182.2L173.3,182.2z"/>
					</g>
					<g>
						<path class="st5" d="M175.7,218.7c-1.2,13.6-5.4,26.5-12.2,38.3c-1,1.7,1.6,3.2,2.6,1.5c7.1-12.3,11.3-25.7,12.6-39.8
							C178.9,216.8,175.9,216.8,175.7,218.7L175.7,218.7z"/>
					</g>
					<path class="st5" d="M358.7,273.2c-2.5-14-5.6-27.8-8.3-41.7c-1.3,0.4-2.7,0.6-4,0.9c0.8,3.6,1.8,7.1,2.5,10.4
						c1.6,7.9,3.1,15.8,4.6,23.8c3.3,18,6.5,36.1,9.6,54.1c2.4,14,4.6,28.1,7.6,42c0.5,2.5,4.4,1.5,3.9-1.1
						C368.1,332.4,364,302.6,358.7,273.2z"/>
				</g>
				<path class="st5" d="M563.6,193.5c-3.2-4.5-10.1-7.1-14.5-9.8c-7.4-4.5-14.8-8.9-22.2-13.2c-13.9-8.1-27.9-16-42.1-23.6
					c-16.3-8.7-32.9-17-49.5-25c-2.3-1.1-4.3,2.3-2,3.5c28,13.4,55.5,27.8,82.4,43.2c14.1,8.1,28.9,15.8,42.2,25.1
					c1.4,0.9,2.3,2.1,3,3.3C561.8,196.1,562.6,194.7,563.6,193.5z"/>
				<g>
					<path class="st5" d="M65.6,200.9c3.5-3.3,9.9-6.5,14.5-9.2c10.1-6.1,20.3-12.1,30.5-18.1c22.4-13.1,44.9-26.1,67.6-38.8
						c5.8-3.2,13.2-8,18.7-10.1c2.4-0.9,1.3-4.8-1.1-3.9c-5.3,2-10.3,5.3-15.2,8c-10.5,5.8-20.9,11.8-31.4,17.7
						c-23,13.2-46,26.4-68.7,40.1c-5.8,3.5-12.8,6.7-17.8,11.3C60.9,199.8,63.7,202.6,65.6,200.9L65.6,200.9z"/>
				</g>
			</g>
			<g>
				<path class="st4" d="M223,60.3c-4.1,5.9-5.9,14-8,20.8c-2.3,7.3-4.5,13.8-8.6,20.3c-3.3,5.4-8.8,11.2-9.9,17.6
					c-1.3,7.6-1,15.3,0.4,22.9c5.9,31.7,29.4,61.2,54.5,80.4c6.7,5.2,19.3,15.2,28.6,11.2c2.4-1,0.3-4.5-2-3.5
					c-2.8,1.2-6.8-0.6-9.3-1.7c-4.9-2.2-9.4-5.2-13.7-8.4c-12.2-9.1-22.9-20.4-32-32.6c-9.5-12.8-17.6-27.1-21.3-42.7
					c-1.8-7.4-2.5-15.1-1.5-22.7c0.9-6.6,5.6-11.9,9.1-17.5c3.8-6.1,6.3-12,8.5-18.9c2.4-7.5,4.1-16.7,8.7-23.2
					C228,60.2,224.5,58.2,223,60.3L223,60.3z"/>
			</g>
			<g>
				<path class="st5" d="M65.2,201.2c4.8,4.6,8.4,10.4,11.9,15.9c5.3,8.4,10.1,17,14.7,25.8c10.3,19.8,19.7,40.3,26.9,61.4
					c3.1,9.2,6.1,18.7,7.1,28.4c0.3,2.5,4.3,2.6,4,0c-1.9-19.1-9.8-37.8-17.3-55.2c-8.8-20.6-18.7-40.8-30.5-59.9
					c-4.1-6.7-8.4-13.7-14.1-19.2C66.2,196.6,63.4,199.4,65.2,201.2L65.2,201.2z"/>
			</g>
			<g>
				<path class="st4" d="M392.7,58.7c-1.1,14.3-4.6,28.8-8.4,42.6c-3.8,13.7-8.4,27.3-12.8,40.8c-4.4,13.4-9,26.8-13.4,40.2
					c-2.3,6.8-4.5,13.5-6.7,20.3c-2,6.1-5.2,12.8-5.9,19.2c-0.3,2.8,0,5.8,0.6,8.8c1.4-0.3,2.7-0.5,4.1-0.9
					c-1.4-7.4,1.1-13.5,3.3-20.4c2.2-6.8,4.5-13.6,6.7-20.4c4.5-13.4,9-26.8,13.5-40.2c5.1-15.3,10.3-30.7,14.6-46.3
					c3.9-14.2,7.5-29,8.5-43.7C396.8,56.2,392.8,56.2,392.7,58.7z"/>
			</g>
			<g>
				<path class="st4" d="M61.9,199.1c-12,27.5-17.1,57.2-22.3,86.6c-0.4,2.5,3.4,3.6,3.9,1.1c5.1-29,10-58.5,21.8-85.6
					C66.4,198.8,62.9,196.8,61.9,199.1L61.9,199.1z"/>
			</g>
			<g>
				<path class="st4" d="M394.1,59.1c2.3,0.5,4.2,3,5.6,4.7c3,3.6,5.5,7.6,7.8,11.6c5.3,9.3,8,19.8,13.5,29c3,5,10.2,12,10.2,18.2
					c0,0.8-1.4,4-2,5.5c-9.9,24.2-23.8,47.7-40.2,68c-10.4,12.8-26.7,26.7-42.2,33.2c-2.3,1-1.3,4.8,1.1,3.9
					c14.3-6,30-17.9,40.1-29.5c10.8-12.5,20-26.3,28.2-40.6c6.2-10.7,12-21.8,16.7-33.3c0.9-2.1,2.2-4.6,2.3-7
					c0.2-6.1-5.6-12.4-8.7-17.1c-7.1-10.6-10.2-23.2-16.7-34.2c-3.1-5.2-8.1-14.7-14.6-16.2C392.7,54.7,391.6,58.6,394.1,59.1
					L394.1,59.1z"/>
			</g>
			<g>
				<path class="st4" d="M586,294.9c-3.2-17-6.1-34.1-9.4-51.1c-1.6-8.3-3.4-16.6-5.4-24.8c-1.9-7.7-3.2-16.7-6.6-23.9
					c-0.1-0.2-0.2-0.4-0.3-0.6c-1,1.2-1.8,2.6-3,3.6c0.8,1.7,1.2,3.7,1.8,5.7c1.2,4.2,2.3,8.4,3.4,12.6c2,7.9,3.7,15.9,5.4,23.8
					c3.8,18.5,6.9,37.2,10.4,55.8C582.6,298.5,586.4,297.4,586,294.9z"/>
			</g>
			<g>
				<path class="st5" d="M561.4,193.3c-5.7,9.2-11.1,22.3-15,32.3c-4.5,11.6-8.9,23.2-13.2,34.8c-8.5,23.2-16.8,46.4-24.3,70
					c-0.8,2.5,3.1,3.5,3.9,1.1c7.2-22.9,15.3-45.6,23.6-68.1c4.1-11.1,8.2-22.1,12.5-33.2c4.2-10.8,9.8-25,15.9-34.9
					C566.2,193.2,562.8,191.1,561.4,193.3L561.4,193.3z"/>
			</g>
			<g>
				<path class="st4" d="M352,207.9c1.1-0.1,4.9,6.4,5.7,7.5c1.8,2.6,3.6,5.3,5.3,8c1.4,2.2,4.8,0.2,3.5-2c-2.4-3.9-5-7.7-7.7-11.4
					c-1.6-2.1-3.6-6.3-6.7-6.1C349.5,204.1,349.4,208.1,352,207.9L352,207.9z"/>
			</g>
			<g>
				<path class="st4" d="M356.4,195c5.6,6.5,11.2,13,16.8,19.5c1.7,2,4.5-0.9,2.8-2.8c-5.6-6.5-11.2-13-16.8-19.5
					C357.5,190.3,354.7,193.1,356.4,195L356.4,195z"/>
			</g>
			<g>
				<path class="st4" d="M361.9,176.1c2.3,5.1,3.9,11.6,7.9,15.7c3.8,3.9,10.1,5.6,13.1,10.6c0-0.7,0-1.3,0-2c0,0.1,0,0.2-0.1,0.3
					c0.8-0.3,1.6-0.6,2.3-0.9c-0.1,0-0.2,0-0.3-0.1c-2.5-0.4-3.6,3.5-1,3.9c0.1,0,0.3,0,0.4,0.1c1,0.1,1.7-0.1,2.3-0.9
					c0.1-0.1,0.2-0.2,0.2-0.3c0.4-0.6,0.3-1.4,0-2c-2.2-3.9-7.3-6.7-10.9-9.1c-5.8-3.9-7.7-11-10.5-17.1
					C364.3,171.7,360.9,173.7,361.9,176.1L361.9,176.1z"/>
			</g>
			<g>
				<path class="st4" d="M367.8,159.2c2.2,6.4,4.5,14.3,8.9,19.7c2.2,2.8,5.1,3.9,8.2,5.5c3.1,1.5,5,4,7.8,5.9c2.1,1.5,4.1-2,2-3.5
					c-2-1.4-3.4-3.5-5.6-4.8c-2.9-1.7-6.3-2.4-8.7-4.9c-4.5-4.7-6.6-13-8.7-19C370.8,155.7,366.9,156.8,367.8,159.2L367.8,159.2z"/>
			</g>
			<g>
				<path class="st4" d="M373,146.5c5.3,3.8,6.9,10.7,11.2,15.4c2.2,2.4,4.7,3.6,7.6,4.9c4.2,2,7.5,4.5,10.1,8.4
					c1.4,2.1,4.9,0.1,3.5-2c-2-3-4.3-5.6-7.3-7.6c-3.6-2.4-8-3.2-11-6.5c-4.6-5.1-6.2-11.8-12-16C372.9,141.6,370.9,145,373,146.5
					L373,146.5z"/>
			</g>
			<g>
				<path class="st4" d="M378.8,131.9c5.7,4.2,8.8,10.9,14.4,15.2c2.5,1.9,5.3,2.9,8.2,4c4.9,1.8,8.3,4.4,10.7,9.1
					c1.2,2.3,4.6,0.3,3.5-2c-1.5-3-3.6-5.7-6.4-7.7c-3.7-2.6-8.2-3.2-12.1-5.5c-6.7-4-10.1-11.9-16.4-16.5
					C378.8,127,376.8,130.4,378.8,131.9L378.8,131.9z"/>
			</g>
			<g>
				<path class="st4" d="M382.7,111.7c3.8,3.8,7.2,7.9,10.1,12.5c1.9,3,3.8,6.2,6.7,8.4c3.2,2.4,7.1,2.3,10.5,4.2
					c4.1,2.2,7.2,6.5,9.5,10.4c1.3,2.2,4.8,0.2,3.5-2c-4-6.9-8.9-11.6-16.6-13.8c-5.6-1.6-8-6-11.1-10.6c-2.9-4.3-6.2-8.2-9.9-11.9
					C383.7,107,380.9,109.9,382.7,111.7L382.7,111.7z"/>
			</g>
			<g>
				<path class="st4" d="M268.3,207.4c-2.7-1-5.1,2.7-6.6,4.4c-2.2,2.7-4,5.6-5.3,8.8c-1,2.3,2.4,4.4,3.5,2c0.9-2.1,2-4.2,3.3-6.1
					c0.7-1,1.4-1.9,2.2-2.8c0.2-0.2,2.2-2.3,1.9-2.5C269.6,212.2,270.7,208.3,268.3,207.4L268.3,207.4z"/>
			</g>
			<g>
				<path class="st4" d="M259,193.1c-3.6,1.8-6,5.4-8.1,8.8c-1.1,1.8-2,3.6-2.8,5.5s-1.2,4.9-2.3,6.5c1-0.1,2.1-0.3,3.1-0.4
					c-0.1-0.1-0.1-0.1-0.2-0.2c0.1,0.8,0.2,1.6,0.3,2.4c0-0.1,0.1-0.1,0.1-0.2c1.4-2.2-2-4.2-3.5-2c0,0.1-0.1,0.1-0.1,0.2
					c-0.5,0.7-0.3,1.9,0.3,2.4c0.1,0.1,0.1,0.1,0.2,0.2c1,0.9,2.4,0.7,3.1-0.4c1.9-2.6,2.3-6.8,3.8-9.7c1.9-3.6,4.3-7.8,7.9-9.7
					C263.3,195.4,261.3,191.9,259,193.1L259,193.1z"/>
			</g>
			<g>
				<path class="st4" d="M254.4,178c-8.8,7.6-15.4,17-19.8,27.7c-1,2.4,2.9,3.4,3.9,1.1c4.1-10.1,10.5-18.8,18.7-25.9
					C259.2,179.2,256.4,176.4,254.4,178L254.4,178z"/>
			</g>
			<g>
				<path class="st4" d="M248.7,167.3c-5.2,3.1-8.4,7.9-11.4,13c-1.8,3.1-3.7,4.6-6.4,6.7c-2.4,1.9-4.1,4.6-5.7,7.2
					c-1.3,2.2,2.1,4.2,3.5,2c2-3.2,4-5.4,7-7.6c1.6-1.1,2.5-2.2,3.6-3.9c3.3-5.2,5.9-10.8,11.5-14.1C253,169.4,251,166,248.7,167.3
					L248.7,167.3z"/>
			</g>
			<g>
				<path class="st4" d="M243.4,149.3c-5.4,5.9-9,11.6-12.3,18.8c-1.8,4-4.2,6.9-7.4,9.7c-2.5,2.2-4.7,4.4-6.3,7.5
					c-1.1,2.3,2.3,4.3,3.5,2c3-6.1,9.6-9,12.7-15.2c1.6-3.2,2.7-6.7,4.5-9.8c2.2-3.8,5.1-7,8.1-10.2
					C248,150.3,245.2,147.4,243.4,149.3L243.4,149.3z"/>
			</g>
			<g>
				<path class="st4" d="M236.1,132.1c-5.3,4.6-9.5,10.2-12.1,16.8c-1.4,3.5-1.8,7.7-3.9,10.9c-2.7,4.3-7.4,7.8-10.9,11.4
					c-1.8,1.8,1,4.7,2.8,2.8c5.7-5.7,11.6-10.4,14-18.2c2.5-8.3,6.2-15.1,12.9-20.8C240.9,133.2,238,130.4,236.1,132.1L236.1,132.1z
					"/>
			</g>
			<g>
				<path class="st4" d="M232.7,117.5c-8,4.7-11.2,12.4-15.8,20c-2.5,4.2-7.2,5-10.8,8c-2.7,2.4-4.2,5.2-4.7,8.8
					c-0.3,2.5,3.7,2.5,4,0c0.6-4.9,4.7-6.9,8.5-8.9c2.8-1.5,4.7-3.1,6.3-5.9c4.1-7,7-14.3,14.3-18.5
					C236.9,119.7,234.9,116.2,232.7,117.5L232.7,117.5z"/>
			</g>
			<g>
				<path class="st4" d="M228.8,99.6c-6.4,5.2-10.9,11.3-14.8,18.5c-2.2,4.1-5.5,7.2-8.3,10.9c-2.9,3.8-5.5,7.8-8,11.8
					c-1.4,2.2,2.1,4.2,3.5,2c2.8-4.4,5.6-8.8,8.8-12.8c2.3-2.9,5.1-5.3,6.9-8.5c4.1-7.4,8.1-13.7,14.8-19.1
					C233.6,100.8,230.8,98,228.8,99.6L228.8,99.6z"/>
			</g>
			<g>
				<path class="st4" d="M227.1,86.4c-6.5,0.7-9.7,8.3-12.2,13.4c-4.7,9.3-9,19-17.2,25.8c-2,1.6,0.9,4.5,2.8,2.8
					c6.8-5.7,11.2-13.5,15.2-21.3c2.1-4.1,5.9-16.1,11.4-16.7C229.6,90.1,229.7,86.1,227.1,86.4L227.1,86.4z"/>
			</g>
			<g>
				<path class="st4" d="M389.3,91.5c4,3.7,7.4,7.9,10.1,12.7c2,3.7,3.4,7.7,5.9,11c5.6,7.6,17.7,7.6,21.6,16.5c1,2.4,4.5,0.3,3.5-2
					c-4.1-9.3-15.3-9.1-21.4-16.2c-3.1-3.7-4.6-8.7-7-12.8c-2.7-4.5-6-8.5-9.9-12C390.3,86.9,387.5,89.8,389.3,91.5L389.3,91.5z"/>
			</g>
			<g>
				<path class="st4" d="M392.8,70.9c5.9,6.3,9.9,14.7,15.2,21.6c5.6,7.2,11.8,13.8,18.6,19.9c1.9,1.7,4.7-1.1,2.8-2.8
					c-7-6.4-13.5-13.3-19.3-20.9C405,82,401.3,74.1,395.6,68C393.9,66.2,391.1,69,392.8,70.9L392.8,70.9z"/>
			</g>
		</g>
	</g>
</g>
</svg>
