<?xml version="1.0" encoding="utf-8"?>
<!-- Generator: Adobe Illustrator 19.2.0, SVG Export Plug-In . SVG Version: 6.00 Build 0)  -->
<svg version="1.1" id="Layer_1" xmlns="http://www.w3.org/2000/svg" xmlns:xlink="http://www.w3.org/1999/xlink" x="0px" y="0px"
	 viewBox="0 0 620 400" style="enable-background:new 0 0 620 400;" xml:space="preserve">
<style type="text/css">
	.st0{fill:#EFEFEF;}
	.st1{fill:#C6C6C6;}
	.st2{fill:#7A7B7B;}
</style>
<g>
	<g>
		<path class="st0" d="M290.7,325.6c0.3-14.9-6-23.9-7.8-38.7c-2.5-20.6-5.1-45.9-12.5-60.6c-4.8-9.6-8-12.1-17.2-20.1
			c-1.4-1.2-16.2-26.5-20.4-40.9c-1.1-3.7-10.6-51.6-8.8-93.4c0.1-3.4-21.4,6.1-36.5,53.9l-7.6,14.8l-8.3,8.3
			c0,0-43.2,22.4-100.3,53.9c-27,14.9-50.4,68.7-7.5,98.1c38.3,26.4,143.3,55.9,239.2,62.1C302.7,358.5,290.7,330,290.7,325.6z"/>
		<path class="st0" d="M566.3,222c-15.5-14.4-78.5-54.2-101-64.2c-1.8-0.8-4.5-1-5.8-4.2c-6.6-16.5-46-86.3-65-83
			c1.4,41.1,7.3,57.7-1.6,86.6c-2.1,6.7-15,37.6-17.5,40.2c-14.3,26.9-25.8,51.3-32.4,77.6c-3.3,13.3-5.9,31.3-8,46.1
			c-1.3,9-14.8,32.8-14.7,41.7c91,2.1,204-35.7,239.7-62.1C589.2,279.2,591.7,245.5,566.3,222z"/>
		<polygon class="st0" points="136.5,169.7 139.1,156.7 132.6,161 113.7,169.6 111.6,167.2 94.7,176.5 93.9,180 74.3,190.8 
			81.3,199.9 		"/>
		<path class="st0" d="M478.9,167.6c-0.1-0.4-1.2-13.1-1.2-13.1l30.1,17.3l3-1.2l11.2,3l4.5,8.8l8,4.1l21.6,14.1v2.4l-10.7,7.5
			L478.9,167.6z"/>
	</g>
	<g>
		<path class="st1" d="M351,250.9c0,0,14.2-16.8,25.3-21.8c12.6-5.7,21.4-10.2,30.8-17.2c11.9-8.8,16.8-17,27.4-23.9
			c14.9-9.8,32-6.7,28.6-12.4s-12.5-20-12.5-20l-22.4,9.6l-10.3,10.3L399,197.2l-18.3,13.3L368,221.3l-8.5,11.4L351,250.9z"/>
		<path class="st1" d="M262.4,214.2l-10.8-6.8l-11.1-3.7l-8.4-6.9l-8.9-9.8l-3.9-3.4l-4,9.1l-7.2,15.8l-9.6,16.9l4.2,5.5l-9.8,13.9
			c0,0,11.9,6.8,14.3,6.2c2.4-0.6,8.7-9.4,8.7-13.5s-8.7-11-8.7-11s6.4-9,8.3-12.1c1.6-2.7,5.7-11.2,5.7-11.2s8.9,4.4,16.3,6.4
			C243.7,211.2,262.4,214.2,262.4,214.2z"/>
		<path class="st1" d="M191.1,188.6c-0.8-0.2-20.9-11.1-21.9-13s6.4-16.6,6.4-16.6l23.8,12.4L191.1,188.6z"/>
		<path class="st1" d="M425.8,165.3c-2.5-12.3-23.1-43.4-26.3-38.6c-1.1,1.6-5.3,23.4-5.3,23.4s16,8.7,20.7,27.2
			C415.4,179,426.3,167.6,425.8,165.3z"/>
		<polygon class="st1" points="225.6,189.2 233.4,171.4 239.4,186.1 247.6,199.9 253.3,206.2 244,208.5 229.1,203 		"/>
		<polygon class="st1" points="379.3,190.9 388.2,206.8 362.3,229 364.5,217.3 372.2,203 		"/>
		<path class="st1" d="M409,96.5c-1.7,2.6-0.7,7,1.1,8.6c1.8,1.7,12.2,20.4,12.3,23.2c0.1,2.8,0.5,7,3.4,6.5c2.8-0.5,5.3-5,4.4-8.7
			S413.4,90,409,96.5z"/>
		<path class="st1" d="M215.4,110c1-2.2-2.1-7.5-4.7-6.2c-2.6,1.2-11.3,30.6-11.2,37.9s4.5,9.2,4.9,6
			C205.3,141.7,210.6,120.5,215.4,110z"/>
		<path class="st1" d="M350.1,291.7c0.3,8.7-3.9,34.3-6,40c-1.4,3.9-3.4,7.1-2.8,12.7c0.5,4.4,5.2,1.1,6.3-1.6
			c1.1-2.6,9.5-28.6,8.4-45.1C355.6,292.5,350,289.6,350.1,291.7z"/>
		<path class="st1" d="M266.9,254.2c4,2.4,2.1,26.3,4.1,40c1.7,11.5,3.3,19.3,5.6,25.9c1.3,3.9-6.9,2.2-7.8,0.8
			c-3.2-4.8-16.2-43-8.2-62.8C262,254.4,265.3,253.2,266.9,254.2z"/>
		<path class="st1" d="M412.2,273c0,0-5,56.3-1.9,58s93.5-2.5,93.5-2.5l11.4-4.5l-5.7-1.6l-31.1-3.7l-34.4-1.6l-25.4,1.2l-2.4-4.7
			l-1.8-32.2L412.2,273z"/>
		<path class="st1" d="M209,282v39l-9.3,2.5l-36.5,6.3l-20.7,4.2l13.4,3.7c0,0,57.3-5.9,58.5-7.6s-3.1-48.2-3.1-48.2H209V282z"/>
	</g>
	<g>
		<g>
			<path class="st2" d="M223.5,69.6c-6.7,1.1-11.8,6.6-15.8,11.7c-5.3,6.8-9.4,14.5-13,22.2c-2.4,5.1-4.5,10.3-6.6,15.6
				c-5,12.7-12.6,24.2-18.2,36.6c-0.4,1-0.3,2.1,0.7,2.7c16.5,9.9,35.2,16.8,50.1,29.1c6.9,5.7,11.1,15,19.8,18.4
				c5.8,2.3,11.6,3.4,16.8,7c12,8.4,13.5,22.7,16.1,35.9c3.5,17.6,6.6,35.2,10,52.7c1.8,9.1,3.6,18.1,5.7,27.1
				c2.8,12,7.1,23.3,11.9,34.7c1,2.3,4.9,1.3,3.9-1.1c-4.5-10.6-8.6-21.2-11.3-32.4c-1.9-8-3.6-16-5.2-24
				c-3.7-18.3-6.9-36.7-10.5-55c-2.4-12.1-3.6-25.8-12-35.5c-5-5.8-11.9-9.5-19.2-11.7c-2.3-0.7-4.6-1.2-6.8-2.4
				c-5.4-3.1-8.6-8.6-12.7-13c-7.2-7.6-17.1-12.9-26.2-17.9c-9.5-5.2-19.2-9.8-28.5-15.3c0.2,0.9,0.5,1.8,0.7,2.7
				c5-11.1,11.6-21.3,16.5-32.5c2.5-5.6,4.4-11.3,6.9-16.9c3.3-7.2,6.9-14.4,11.3-21c3.9-5.7,9.1-12.8,16.3-14
				C227.1,73,226.1,69.1,223.5,69.6L223.5,69.6z"/>
		</g>
		<g>
			<path class="st2" d="M396,72.6c8.4-1.3,13.7,5.8,18.3,11.6c5.5,7.1,10.7,14.4,15.7,21.8c5.8,8.5,11.3,17.1,16.5,25.9
				c4.1,7.1,8.4,14.4,11,22.2c0.5-0.8,0.9-1.6,1.4-2.5c-6.5,1.1-12.9,2.7-19.1,4.8c-5.5,1.8-11.6,3.9-16,7.9
				c-6.3,5.7-9.9,14.4-15.3,21c-5.9,7.1-13.4,12.5-20.9,17.8c-6.7,4.7-13.5,9.3-19.4,15.1c-6.3,6.1-10.9,13.5-14.6,21.4
				c-3.9,8.4-7.5,17.2-10.3,26c-3,9.2-3.7,18.8-4.8,28.4c-2.6,24-12.8,45.6-20.1,68.3c-0.8,2.5,3.1,3.5,3.9,1.1
				c6-18.7,14.5-36.8,18.4-56.2c1.9-9.5,2.2-19.3,3.8-28.9c1.6-9.4,5-18.2,8.6-27.1c3.6-9,7.6-18.1,13.8-25.7
				c5.3-6.5,12.1-11.5,18.9-16.3c6.5-4.6,13.1-9,19-14.3c6.4-5.7,11-12.7,15.7-19.7c2.4-3.6,4.7-7.4,8.4-9.7c3.3-2,7-3.5,10.6-4.7
				c6.6-2.3,13.4-4.1,20.3-5.2c1-0.2,1.7-1.5,1.4-2.5c-2.8-8.5-7.4-16.5-11.9-24.2c-5.8-9.8-12.1-19.4-18.6-28.8
				c-5.1-7.4-10.3-14.7-16-21.6c-5.2-6.3-11.2-11.1-19.9-9.8C392.4,69.1,393.5,73,396,72.6L396,72.6z"/>
		</g>
		<g>
			<path class="st2" d="M392.8,71.3c2.4,30.6,3.3,63-4.3,93c-3.1,12.2-9.4,22.4-15.5,33.3c-8.5,15-17,30.3-21.4,47
				c-0.7,2.5,3.2,3.6,3.9,1.1c4.6-17.6,13.9-33.5,22.8-49.2c6-10.5,11.5-20.3,14.4-32.2c7.3-30.1,6.6-62.4,4.2-93
				C396.6,68.7,392.6,68.7,392.8,71.3L392.8,71.3z"/>
		</g>
		<g>
			<path class="st2" d="M222.1,71.9c0.1,19.9,0.5,39.8,2.7,59.6c2.4,20.9,6.3,42.4,16.3,61.1c4.9,9.2,11.5,17.5,20.3,23.3
				c2.1,1.4,4.1-2,2-3.5c-16.2-10.9-24.1-30.4-28.8-48.6c-5.3-20.5-7.2-41.8-8-63c-0.4-9.7-0.5-19.4-0.5-29.1
				C226.1,69.3,222.1,69.3,222.1,71.9L222.1,71.9z"/>
		</g>
		<g>
			<path class="st2" d="M197.2,170.4c-6.4,14.8-13.5,29.2-21.2,43.3c-0.3,0.6-0.4,1.4,0,2c5.1,7.1,11.7,12.1,19.9,15.2
				c0.8,0.3,1.8-0.2,2.3-0.9c8.6-14.7,16.2-29.8,22.9-45.4c1-2.3-2.4-4.4-3.5-2c-6.7,15.6-14.3,30.7-22.9,45.4
				c0.8-0.3,1.3-0.6,2-0.9c-7.1-2.7-12.7-7.2-17.7-13.4c0,0.7,0,1.3,0,2c8-14.1,15.1-28.5,21.5-43.3
				C201.5,170,198.2,168,197.2,170.4L197.2,170.4z"/>
		</g>
		<g>
			<path class="st2" d="M178.8,211.4c-2.4-1.1-5.3-5.1-8.1-4.9c-2.4,0.2-4.4,4.4-5.6,6.1c-1.8,2.7-5.7,7.2-5.7,10.7
				c0,2,1.6,3.5,3,4.7c5.8,5.5,13,9.9,20,13.7c4,2.2,10.3,6.8,14,2.5c2.8-3.2,5.5-7,7.5-10.8c2.3-4.4-1.6-6.4-5.1-8.7
				c-2.1-1.4-4.1,2-2,3.5c0.4,0.3,3.8,2.2,3.9,2.7c0.1,0.3-1,1.7-1.1,1.9c-1,1.6-2,3.1-3.1,4.6c-1,1.4-2.3,2.8-3.2,4.3
				c-0.7,1.1,0.5,0.8-0.8,0.4c-6.3-2-12.3-6-17.8-9.7c-2.9-2-5.8-4-8.5-6.3c-2.3-2-3.2-2.2-1.8-4.8c1.8-3.5,4.6-6.5,6.4-9.9
				c1-1.9,0.9-0.3-0.4-0.9c0.7,0.3,1.5,1,2.1,1.5c1.4,1,2.7,2.1,4.3,2.9C179.1,215.9,181.1,212.5,178.8,211.4L178.8,211.4z"/>
		</g>
		<g>
			<path class="st2" d="M456,155.8c24.5,12.9,49.1,25.5,72.6,40.1c10.6,6.5,21,13.4,30.5,21.4c6.7,5.6,14.2,12.3,17.4,20.7
				c0.9,2.4,4.8,1.4,3.9-1.1c-3-8.1-9.4-14.5-15.8-20.2c-9.3-8.2-19.7-15.3-30.2-21.9c-24.6-15.6-50.6-28.9-76.3-42.4
				C455.7,151.2,453.7,154.6,456,155.8L456,155.8z"/>
		</g>
		<g>
			<path class="st2" d="M176.6,143.4c-23.7,12.4-47.6,24.3-71.3,36.9c-9.1,4.8-18.2,9.7-27,14.9c-4.4,2.6-9.9,5.4-13.2,9.4
				c-1.6,2,1.2,4.8,2.8,2.8c3.4-4.2,9.1-6.9,13.6-9.5c8.9-5.2,17.9-10.1,27-14.9c23.2-12.3,46.7-24.1,70-36.2
				C180.9,145.7,178.9,142.2,176.6,143.4L176.6,143.4z"/>
		</g>
		<g>
			<path class="st2" d="M69.9,202.5c-3.9,17.2-3.2,35.7-1.7,53.1c1.6,19.1,4.6,38.7,12.4,56.4c1,2.4,4.5,0.3,3.5-2
				c-7.6-17.4-10.4-37-11.9-55.8c-1.3-16.6-2.1-34.3,1.7-50.7C74.3,201,70.5,199.9,69.9,202.5L69.9,202.5z"/>
		</g>
		<g>
			<path class="st2" d="M565.4,226.7c-1.4,25.1-7.7,49.5-18.5,72.2c-1.1,2.3,2.3,4.3,3.5,2c11.1-23.3,17.6-48.4,19-74.2
				C569.5,224.2,565.5,224.2,565.4,226.7L565.4,226.7z"/>
		</g>
		<g>
			<path class="st2" d="M527.3,321.7c1.7-11.5,3-23.1,3.9-34.8c0.1-0.8-0.7-1.8-1.5-1.9c-38.3-6.6-77.1-10.3-115.7-14.8
				c-2.6-0.3-2.5,3.7,0,4c38.3,4.4,76.7,8.1,114.6,14.7c-0.5-0.6-1-1.3-1.5-1.9c-0.9,11.3-2.2,22.5-3.8,33.7
				C523.1,323.2,526.9,324.3,527.3,321.7L527.3,321.7z"/>
		</g>
		<g>
			<path class="st2" d="M412.1,272.2c0.1,15.7,1.4,31.2,3.9,46.7c0.1,0.8,1.1,1.6,1.9,1.5c33-3.6,66,0.7,98.6,5.6
				c2.5,0.4,3.6-3.5,1.1-3.9c-33-5-66.3-9.3-99.7-5.7c0.6,0.5,1.3,1,1.9,1.5c-2.4-15.1-3.7-30.3-3.7-45.7
				C416.1,269.6,412.1,269.6,412.1,272.2L412.1,272.2z"/>
		</g>
		<g>
			<path class="st2" d="M412.4,298.6c0.1,18.8-3.4,38-5.9,56.6c-0.3,2.5,3.5,3.6,3.9,1.1c2.6-18.9,6.1-38.5,6-57.6
				C416.4,296,412.4,296,412.4,298.6L412.4,298.6z"/>
		</g>
		<g>
			<path class="st2" d="M141.5,334.9c13.6-1.9,27.2-3.9,40.7-6.2c9.3-1.6,19-2.9,27.9-5.8c0.9-0.3,1.4-1,1.5-1.9
				c0.4-13.8,0.4-27.5-0.1-41.3c0-1-0.9-2.1-2-2c-26.6,3.5-53.2,7.1-79.9,9.4c-6.1,0.5-12.2,1-18.3,1.3c-2.8,0.1-8.5-0.9-10.5,1.6
				c-2.1,2.6-1.2,7.9-0.9,10.9c0.6,6.9,1.7,13.8,3,20.6c0.5,2.5,4.3,1.5,3.9-1.1c-1.2-6.5-2.3-13-2.9-19.5c-0.2-2.1-0.6-4.7-0.2-6.8
				c0.4-2.2,0.9-1.3,3.4-1.4c10.8-0.4,21.5-1.3,32.2-2.4c23.5-2.3,46.9-5.4,70.3-8.5c-0.7-0.7-1.3-1.3-2-2
				c0.5,13.8,0.5,27.5,0.1,41.3c0.5-0.6,1-1.3,1.5-1.9c-9,3-18.6,4.3-27.9,5.8c-13.5,2.3-27.1,4.3-40.7,6.2
				C137.9,331.4,139,335.3,141.5,334.9L141.5,334.9z"/>
		</g>
		<g>
			<path class="st2" d="M205.2,321.7c0.5,9.5,1.1,19,1.8,28.5c0.2,2.6,4.2,2.6,4,0c-0.7-9.5-1.2-19-1.8-28.5
				C209.1,319.1,205.1,319.1,205.2,321.7L205.2,321.7z"/>
		</g>
		<g>
			<path class="st2" d="M484.2,166.3c-5-3.2-5.1-9.1-3.8-14.3c-1.3-0.4-2.6-0.7-3.9-1.1c-1.2,6.3,8.2,11,12.5,13.5
				c3.8,2.3,7.8,4.3,11.8,6.2c3.6,1.7,8.2,2.1,4.1,7.1c-1.6,2,1.2,4.8,2.8,2.8c2.4-2.9,4.4-7.7,0.8-10.5c-2.1-1.7-5.3-2.6-7.7-3.7
				c-4.2-2.1-8.5-4.3-12.5-6.8c-1.7-1.1-8.6-4.8-8.1-7.4c0.5-2.5-3.2-3.6-3.9-1.1c-1.8,7.1-1,14.6,5.6,18.8
				C484.3,171.2,486.3,167.7,484.2,166.3L484.2,166.3z"/>
		</g>
		<g>
			<path class="st2" d="M508.4,172.4c4.3,0.4,9,0.9,12.5,3.8c3.4,2.9,4.8,7.9,1.6,11.6c-1.7,1.9,1.1,4.8,2.8,2.8
				c3.9-4.5,3.9-10.6,0.3-15.3c-4.2-5.3-10.8-6.3-17.2-6.9C505.8,168.1,505.8,172.1,508.4,172.4L508.4,172.4z"/>
		</g>
		<g>
			<path class="st2" d="M525.4,183.1c7.1,4.3,14.2,8.5,21.2,12.8c2.6,1.6,5.7,3.2,8,5.3c1.7,1.5,1.7,0.6,0.1,1.4
				c-2.1,1.1-4.4,1.5-6.7,2.2c-2.4,0.8-1.4,4.6,1.1,3.9c3-1,10.9-2.2,10.9-6.9c0-2.2-2.8-3.7-4.3-4.7c-9-6.4-18.8-11.7-28.3-17.4
				C525.2,178.3,523.2,181.8,525.4,183.1L525.4,183.1z"/>
		</g>
		<g>
			<path class="st2" d="M116.8,174.1c-1.3-2.2-1.6-4.4-1.9-6.9c-0.1-1.1-0.8-2-2-2c-3.4-0.1-6.1,1.5-8.8,3.3
				c-2.7,1.8-5.9,2.9-8.5,4.8c-4.4,3.2-2.7,7.9-0.4,11.9c1.3,2.2,4.7,0.2,3.5-2c-0.8-1.4-2.4-3.6-1.9-5.4c0.5-1.5,2.9-2.3,4.2-2.9
				c3.8-1.8,7.6-5.9,11.9-5.8c-0.7-0.7-1.3-1.3-2-2c0.3,3.2,0.7,6.1,2.4,8.9C114.6,178.3,118.1,176.3,116.8,174.1L116.8,174.1z"/>
		</g>
		<g>
			<path class="st2" d="M132.9,170.3c5.3-3.5,8.3-8.2,10.4-14.1c0.6-1.8-1.5-2.9-2.9-2.3c-9.4,4.1-17.7,10.7-27.5,13.8
				c-2.4,0.8-1.4,4.6,1.1,3.9c10.2-3.3,18.8-10,28.5-14.3c-1-0.8-2-1.5-2.9-2.3c-1.7,4.9-4.1,8.9-8.5,11.8
				C128.7,168.3,130.7,171.8,132.9,170.3L132.9,170.3z"/>
		</g>
		<g>
			<path class="st2" d="M92.9,178.7c-4.9,3.6-10.9,5.6-16.4,8c-5.9,2.5-4.6,8.4,0.8,10.8c2.3,1,4.4-2.4,2-3.5
				c-1.3-0.6-3.7-1.4-2.1-3.3c0.3-0.3,1.2-0.5,1.6-0.7c1.6-0.7,3.1-1.3,4.7-2c3.9-1.7,8-3.4,11.4-5.9C97,180.7,95,177.2,92.9,178.7
				L92.9,178.7z"/>
		</g>
		<g>
			<path class="st2" d="M404.6,146.1c3.7,5.6,6.6,11.5,8.6,17.9c0.6,1.8,3.5,1.1,2.9-0.8c-2.1-6.6-5-12.9-8.9-18.6
				C406.1,143,403.5,144.5,404.6,146.1L404.6,146.1z"/>
		</g>
		<g>
			<path class="st2" d="M407.7,142.4c2.7,3.5,4.6,7.4,5.7,11.6c0.5,1.9,3.4,1.1,2.9-0.8c-1.2-4.5-3.2-8.6-6-12.4
				C409.2,139.4,406.6,140.9,407.7,142.4L407.7,142.4z"/>
		</g>
		<g>
			<path class="st2" d="M206.2,110c-2.7,9.1-5,18.3-7,27.7c-0.4,1.9,2.5,2.7,2.9,0.8c2-9.3,4.3-18.5,7-27.7
				C209.6,108.9,206.7,108.1,206.2,110L206.2,110z"/>
		</g>
		<g>
			<path class="st2" d="M209.2,121.9c-1.8,5.8-3.4,11.7-4.8,17.7c-0.4,1.9,2.5,2.7,2.9,0.8c1.4-6,3-11.8,4.8-17.7
				C212.7,120.9,209.8,120.1,209.2,121.9L209.2,121.9z"/>
		</g>
		<g>
			<path class="st2" d="M408.9,104.5c4.6,8.5,9.7,15.7,12.4,25.2c0.5,1.9,3.4,1.1,2.9-0.8c-1.3-4.5-2.9-8.8-5-12.9
				c-2.3-4.5-5.4-8.5-7.8-12.9C410.5,101.3,407.9,102.8,408.9,104.5L408.9,104.5z"/>
		</g>
		<g>
			<path class="st2" d="M413.4,101c2.1,2.9,3.9,6,5.3,9.4c0.7,1.8,3.6,1,2.9-0.8c-1.4-3.6-3.3-7-5.6-10.1
				C414.9,98,412.3,99.5,413.4,101L413.4,101z"/>
		</g>
		<g>
			<path class="st2" d="M265.4,264.7c0,9.5,0.7,18.9,1.9,28.3c0.2,1.9,3.2,1.9,3,0c-1.2-9.4-1.8-18.8-1.9-28.3
				C268.3,262.7,265.3,262.7,265.4,264.7L265.4,264.7z"/>
		</g>
		<g>
			<path class="st2" d="M260.5,282.7c0.3,10.5,2.5,20.7,6.5,30.4c0.7,1.8,3.6,1,2.9-0.8c-4-9.5-6.1-19.3-6.4-29.6
				C263.4,280.7,260.4,280.7,260.5,282.7L260.5,282.7z"/>
		</g>
		<g>
			<path class="st2" d="M348.6,300.3c-0.3,10.5-2,20.8-4.9,30.9c-0.5,1.9,2.4,2.7,2.9,0.8c3-10.4,4.6-21,5-31.7
				C351.6,298.4,348.6,298.4,348.6,300.3L348.6,300.3z"/>
		</g>
		<g>
			<path class="st2" d="M354.3,297c0.8,15.6-1.9,31-8.1,45.3c-0.8,1.8,1.8,3.3,2.6,1.5c6.4-14.9,9.4-30.7,8.5-46.8
				C357.2,295.1,354.2,295.1,354.3,297L354.3,297z"/>
		</g>
	</g>
</g>
</svg>
