<?xml version="1.0" encoding="utf-8"?>
<!-- Generator: Adobe Illustrator 19.2.0, SVG Export Plug-In . SVG Version: 6.00 Build 0)  -->
<svg version="1.1" id="Layer_1" xmlns="http://www.w3.org/2000/svg" xmlns:xlink="http://www.w3.org/1999/xlink" x="0px" y="0px"
	 viewBox="0 0 530 300" style="enable-background:new 0 0 530 300;" xml:space="preserve">
<style type="text/css">
	.st0{fill:#FFD42B;}
	.st1{fill:#E39C16;}
	.st2{fill:#CA7C00;}
</style>
<g>
	<path class="st0" d="M486.9,148.9c-9.6-7.3-95.8-56.5-95.8-56.5c-64.5,66.9-189.7,69.5-263.6,13.1c-10.4,0.7-57.4,18.7-92.9,49.3
		c-20.8,17.9-30.4,54.8-2.5,76c83.8,63.6,328,89.2,449.3,8.8C509.8,220.7,520.2,174,486.9,148.9z"/>
	<path class="st1" d="M136.8,93.5l-11,10l5.5,4.9l16.3,9.4l20,10.7l18,6.6l26.2,6.9l18.5,3l22.7,1.8l27.8-2.5l13.4-2.3l18.5-4.7
		L338,128l20.1-9.7l20-12.7l11.7-11l-4.1-5.1l-4.8-3.6l-5.9,4.5L357.9,102l-19.8,10.9l-25.2,9.8l-28.5,6.3c0,0-25.7,1.5-26.5,1.9
		c-0.7,0.4-19.7-0.6-19.7-0.6l-30.2-5l-22-6.2l-26-10.7l-14.3-8L136.8,93.5z"/>
	<path class="st1" d="M239.2,171.1c7.8-0.3,12.8,1.2,24.3-1c15-2.9,33.1-10.6,33.1-10.6c1.4-0.5,2.9,0.6,2.9,2.1l0,0
		c0,0.7-0.4,1.4-1,1.9l-12,8.1c0,0-11.7,7-21.6,8.5c-6.3,1-25.4,2.3-25.4,2.3c-2.8,0.2-5.1-2.1-4.9-4.9l0.2-2.3
		C235.2,172.9,237,171.2,239.2,171.1z"/>
	<g>
		<g>
			<g>
				<path class="st2" d="M35,155.2c3.5-3.3,7.9-5.9,11.9-8.4c6.5-4.1,13.1-8,19.7-11.8c14.5-8.3,29.3-16.3,44.6-23
					c4-1.7,9.5-4.8,14-4.8c3.1,0,6.5,3.5,9.5,5.3c6.4,4,12.9,7.7,19.6,11.1c23.1,11.8,47.9,19.9,73.6,23.1
					c39.9,5,80.7-2.3,116.8-19.7c12.7-6.1,24.9-13.4,36-22c2-1.6,4-3.2,5.9-4.8c1.3-1.1,3-3.6,4.6-4.3c-1.6,0.7,1.1,0.8,2.1,1.2
					c2.4,0.9,4.7,2,7,3.1c17.2,8.4,33.6,18.4,49.7,28.6c17.2,10.9,34.7,22.1,50.2,35.4c1.9,1.7,4.8-1.1,2.8-2.8
					c-13.5-11.7-28.6-21.7-43.6-31.4c-16-10.3-32.3-20.2-49.1-29.2c-5.1-2.7-10.2-5.5-15.6-7.5c-3.4-1.3-5.1-1.5-7.8,1
					c-8.8,8.4-19.1,15.3-29.6,21.4c-34.3,19.8-74.1,30.1-113.7,28.2c-26.9-1.3-53.3-8.1-77.8-19.3c-6.6-3-13.1-6.3-19.4-9.9
					c-3.3-1.9-6.6-3.8-9.8-5.8c-2.7-1.7-5.8-4.6-8.9-5.6c-3.3-1.1-7.4,0.7-10.5,1.8c-16.7,6-32.6,15-48.1,23.6
					c-8,4.5-15.9,9.1-23.7,13.9c-4.6,2.9-9.5,5.8-13.5,9.5C30.3,154.1,33.1,156.9,35,155.2L35,155.2z"/>
			</g>
			<g>
				<path class="st2" d="M35.4,153.4c26.2,26.9,41.4,65.6,43.1,102.9c0.1,1.9,3.1,1.9,3,0c-1.7-38.1-17.2-77.5-44-105
					C36.1,149.9,34,152,35.4,153.4L35.4,153.4z"/>
			</g>
			<g>
				<path class="st2" d="M498.5,159.6c-15.5,8.9-26.4,25.7-34.8,41c-9.9,18-17.5,37.9-20,58.4c-0.2,1.9,2.8,1.9,3,0
					c2.4-20,10-39.4,19.6-56.9c8.2-14.9,18.7-31.2,33.7-39.9C501.7,161.2,500.2,158.6,498.5,159.6L498.5,159.6z"/>
			</g>
			<g>
				<path class="st2" d="M248.2,172.7c1.9,0,1.9-3,0-3C246.2,169.7,246.2,172.7,248.2,172.7L248.2,172.7z"/>
			</g>
			<g>
				<path class="st2" d="M248.2,172.5c9.6,0.4,18.8-1,27.9-4.1c1.8-0.6,1-3.5-0.8-2.9c-8.8,3-17.8,4.4-27.1,4
					C246.3,169.5,246.3,172.5,248.2,172.5L248.2,172.5z"/>
			</g>
			<g>
				<path class="st2" d="M253.5,181.6c13.1-0.1,25.6-3.7,36.7-10.5c1.6-1,0.1-3.6-1.5-2.6c-10.7,6.6-22.7,10-35.2,10.1
					C251.6,178.7,251.6,181.7,253.5,181.6L253.5,181.6z"/>
			</g>
		</g>
		<g>
			<path class="st2" d="M125.6,105.7c4.1-3.6,8.5-7,12.3-11.1c-0.8-0.1-1.6-0.2-2.4-0.3c4.4,5.8,12.4,9.6,18.6,12.9
				c13,6.9,26.8,12.2,40.9,16.3c39.7,11.5,82.6,12.5,122-0.6c13.1-4.3,25.8-10.1,37.7-17.2c6.4-3.8,12.6-8,18.5-12.5
				c2.7-2,6.2-6.4,9.6-4.4c2.6,1.5,4.8,4.3,7.2,6c1.6,1.1,3.1-1.5,1.5-2.6c-2.7-1.9-6.7-7.5-10.3-7.8c-1-0.1-1.6,0.2-2.5,0.7
				c-3.5,2-6.6,5.3-9.9,7.7c-10.5,7.7-21.8,14.4-33.7,19.8c-21.6,10-45.2,15.6-69,16.7c-35.7,1.7-72.2-6-104.4-21.5
				c-5.4-2.6-10.7-5.4-15.7-8.7c-2.7-1.7-6-3.7-8-6.3c-0.5-0.7-1.6-1.1-2.4-0.3c-3.7,4.1-8.1,7.4-12.3,11.1
				C122.1,104.8,124.2,106.9,125.6,105.7L125.6,105.7z"/>
		</g>
	</g>
</g>
</svg>
