<?xml version="1.0" encoding="utf-8"?>
<!-- Generator: Adobe Illustrator 19.2.0, SVG Export Plug-In . SVG Version: 6.00 Build 0)  -->
<svg version="1.1" id="Layer_1" xmlns="http://www.w3.org/2000/svg" xmlns:xlink="http://www.w3.org/1999/xlink" x="0px" y="0px"
	 viewBox="0 0 358 342.5" style="enable-background:new 0 0 358 342.5;" xml:space="preserve">
<style type="text/css">
	.st0{fill:#C47546;}
	.st1{fill:#814927;}
	.st2{fill:#3A291D;}
</style>
<g>
	<path class="st0" d="M60.3,312.2c-4.8-26-8.7-52.1-11.7-77.8c-0.3-2.5-0.6-4.9-0.9-7.4c-1.2-9.9-2.5-20.1-2.6-30.1
		c-0.1-10.6,2.2-18.2,7.1-24l0.6-0.7l-0.2-0.9c-0.4-1.9-0.3-3.6,0-5.4l0.4-2l-1.6-0.3c-0.5-3.1,0.9-7.3,4.3-12.5
		c3.1-4.7,7-8.3,11.4-10.3l5.3-2.4l-5.6-1.3c-2.4-0.6-4.9-1-7.2-1.2c9-5.4,19.3-8.8,30-9.8l6.2-0.6l-5.4-3.1
		c-4.5-2.6-9.3-3.9-14.3-3.9c-2.2,0-4.4,0.3-6.6,0.8c4.2-4.7,10.6-9.8,18.4-9.8c0.2,0,0.5,0,0.7,0l6.5,0.3l-5.3-3.9
		c-2.9-2.1-5.6-3.9-8.2-5.3l-0.6-0.3c-1.8-1-4.3-2.3-6.7-2.3c-0.1,0-0.2,0-0.2,0c4.2-4.2,11.3-6.8,16.7-7.6h0.3l0.3-0.1
		c11.1-5.3,22.8-8,34.6-8c1.4,0,2.9,0,4.4,0.1c2.3,0.1,4.6,0.4,7.3,0.7l0.6,0.1l0.5-0.2c10.1-0.8,19.4-1.2,28.4-1.2
		c13.5,0,25.8,0.9,37.7,2.7c27.6,4.2,47.4,12.3,60.3,24.7l3.1,2.9l0.3-4.2c0.3-4.2,0.2-10.1-3.6-14.6c10,4.1,14.3,15.8,15.1,25.8
		l3.8,0.7c0.6-1.3,1-2.7,1.1-4.1c1.9,4.2,1.1,10.6-1,14.9l-0.9,1.9l1.9,0.8c10.9,4.8,19.8,15.8,22.3,27.4c2.2,10.3,2.2,21.2,2,31.5
		c-0.2,12.9-1.1,26.4-2.9,42.6c-2.6,23.8-5.9,49-12.7,72.9c-0.2-10-2.4-19.9-4.5-29.5c-1.9-8.7-4-17.7-4.4-26.6
		c-1-22-2.3-49.3-24.1-62.3l-1.3-0.8l-1.1,1c-5,4.5-11.8,7.4-18.6,7.9c-0.9,0.1-1.9,0.1-2.8,0.1c-5.3,0-10.4-1-15.6-3.1l-0.6-0.2
		l-0.6,0.1c-4.9,1.1-9.7,1.7-14.2,1.7c-9.2,0-17.3-2.3-24-6.8l-0.7-0.5l-0.8,0.2c-7.4,1.7-14.5,2.5-21.2,2.5
		c-11.8,0-22.2-2.6-30.7-7.9l-0.9-0.6l-1,0.5c-5,2.4-10.1,3.6-15.1,3.6c-3.4,0-6.9-0.6-10.4-1.7l-0.7-0.2l-0.7,0.2l0,0l0,0
		c-22.6,5-25.4,32.4-25.6,43.9c0,2.3,0,4.6,0.1,6.8c0.1,3.8,0.3,7.6-0.2,11.4c-0.4,3.8-1.2,7.6-2,11.8c-1.7,8.2-3.6,16.5-5.5,24.5
		c-0.6,2.6-1.2,5.3-1.9,7.9c-0.4,1.8-0.9,3.6-1.4,5.5C61.9,301.8,60.5,307.1,60.3,312.2z"/>
	<g>
		<path class="st1" d="M294.9,288.6c-1,0-1.9-0.1-2.9-0.2l-0.7-0.1l-0.4-2.1c-0.1-0.3-0.6-3.1-0.6-3.1l1.3,0.2c1,0.1,2,0.2,2.8,0.2
			h0.3c0.8,0,1.6-0.1,2.4-0.2c0.2,0,0.3-0.1,0.5-0.1l1.7-0.4l-0.3,1.5c-0.2,1.1-0.4,2.2-0.7,3.4l-0.1,0.7l-0.7,0.1
			C296.7,288.6,295.8,288.6,294.9,288.6z"/>
		<path class="st1" d="M293.1,270.9c-1.6,0-3.2-0.2-4.7-0.5l-0.6-0.2l-0.1-0.6c-0.5-2.6-1-5.2-1.5-7.7l-0.3-1.5l1.5,0.3
			c2.3,0.5,4.4,0.7,6.4,0.7c2.9,0,5.5-0.5,7.9-1.4l1.6-0.7L303,261c-0.4,2.6-0.8,5.2-1.2,7.8l-0.1,0.6l-0.6,0.2
			C298.6,270.5,295.8,270.9,293.1,270.9z"/>
		<path class="st1" d="M295.3,245.2c-3,0-6.3-0.3-10.2-1l-0.9-0.1l-0.1-0.9c-0.2-2.9-0.3-5.5-0.5-8.1l-0.1-1.3l1.3,0.2
			c2.9,0.5,5.8,0.8,8.6,0.8c4,0,8-0.5,11.9-1.6l1.4-0.4l-0.2,1.5c-0.3,2.8-0.6,5.6-1,8.8l-0.1,0.7l-0.6,0.2
			C301.8,244.8,298.7,245.2,295.3,245.2z"/>
		<path class="st1" d="M293.3,233.9c-3,0-6-0.3-9-0.9l-0.9-0.1l-0.1-0.8c-0.1-1-0.2-2-0.4-3c-0.3-1.9-0.5-3.7-0.8-5.4l-0.2-1l1-0.2
			c8.7-1.3,16.7-4.5,23.9-9.5l1.7-1.2l-0.1,2.1c-0.4,5.5-0.9,11.3-1.5,17.2l-0.1,0.7l-0.6,0.2C301.9,233.3,297.6,233.9,293.3,233.9z
			"/>
		<path class="st1" d="M282.7,130.9c-0.5-0.2-0.9-0.3-1.4-0.4l-0.9-0.3l0.2-0.9c0.3-1.8,0.5-3.7,0.6-5.6v-0.4l0.3-0.3l0.1-0.1
			c1.1-1.2,1.9-2.6,2.5-4l1.9,0.3c0.4,3.6-0.5,8-2.1,11.2l-0.4,0.8L282.7,130.9z"/>
		<path class="st1" d="M278.1,126.9c-1.4-4.8-3.8-9.3-7.2-13.5c-0.7-0.8-1.4-1.6-2.3-2.6l-0.3-0.3l0.1-0.5c0.7-6,0.3-10.5-1.4-14
			l-1.5-3.3l3,2c9.7,6.5,12.8,21.1,11.6,32L278.1,126.9z"/>
		<path class="st1" d="M294.4,138.9l-0.5-0.4c-4.1-3.4-8.7-5.9-13.5-7.2l-1.4-0.4l0.2,1.5c0.8,7.6-1.1,15-5.7,21.5l-0.3,0.4l0.1,0.4
			c1.2,5.2,1.1,9.8-0.4,13.8c0,0.1-0.1,0.1-0.1,0.2l-0.1,0.2l-0.1,0.2l0,0c-0.4,2.8-2.7,5-4.9,6.7c-0.1,0.1-0.2,0.1-0.3,0.1
			c-0.9,4.3-3,8.4-6.1,11.8l-0.8,0.9l1,0.6c1.6,1,3.2,2.1,4.6,3.2l0.7,0.6l0.6-0.6c0,0,0,0,0.1-0.1c7-5.1,11.6-14.4,15.3-21.9
			l0.6-1.2c5.7-11.4,9.1-20.8,10.8-29.6l-1-0.3l1,0.2L294.4,138.9z"/>
		<polygon class="st1" points="262.6,188.3 259.7,185.1 255.6,175.7 244.9,158.9 234,146 224.8,134.9 213.5,122.1 205.9,116 
			194.6,106.7 183.5,97.8 191.8,97.8 210.1,104.2 221.3,107 234.6,113.4 247.6,121.5 257.1,129.1 265.5,138.9 271.4,147.5 
			276.1,156.5 276.1,171.2 267.7,184.7 		"/>
		<path class="st1" d="M105.9,125.3c-3.2-0.5-6.5-0.7-9.8-0.7c-0.7,0-1.3,0-2,0h-0.6l-0.3-0.6c0-0.1-0.1-0.1-0.2-0.2
			c-5-3.7-10.8-5.6-16.9-5.6c-1.2,0-2.4,0.1-3.6,0.2l-3,0.4l2.2-2.1c5.2-5,10.7-7.6,16.2-7.6c1.6,0,3.3,0.2,4.9,0.7
			c0.1,0,0.1,0,0.1,0H93l0.5-0.2l0.4,0.3c4.8,3.8,10.2,8.4,12.9,13.8l0.9,1.7L105.9,125.3z"/>
		<path class="st1" d="M93.5,184.8c-8.1-0.9-15.8-3.1-22.8-6.5c-1.6-0.8-3.2-1.8-4.8-2.7c-3.5-2.1-7.1-4.3-11-4.3
			c-0.4,0-0.9,0-1.3,0.1l-0.9,0.1l-0.2-0.9c-0.3-1.8-0.2-3.7,0.4-5.5c0,0,0-0.1,0-0.2l-0.4-1l1-0.4c1.8-0.6,3.6-1,5.5-1
			c8.3,0,15.8,6.2,22.5,11.7c1.9,1.6,3.8,3.1,5.5,4.4c2.3,1.7,4.7,3.2,7,4.4L93.5,184.8z"/>
		<path class="st1" d="M67.9,271.8c-1.8-1-4.2-1.4-6.4-1.7h-0.2c-1.5-0.2-3.3-0.4-5-0.4c-0.7,0-1.4,0-2,0.1l-1,0.1l-0.1-1
			c-0.4-2.8-0.8-5.5-1.2-8.3l-0.2-1.2H53c5.7,0.1,11.9,2.6,16.9,6.9l0.5,0.4l-0.1,0.6c-0.2,1.1-0.5,2.2-0.8,3.3l-0.4,1.7L67.9,271.8
			z"/>
		<path class="st1" d="M62.8,295.1c-0.4-0.1-0.8-0.1-1.1-0.1h-0.4c-1-0.1-2.1-0.1-3.2-0.1h-0.8l-0.2-1c-0.3-1.9-0.6-3.7-0.9-5.6
			l-0.2-1.2h1.2c1.9,0,4.8,0.3,7.3,1.4l0.8,0.3c0,0-0.9,4-1.2,5.3l-0.2,0.9L62.8,295.1z"/>
		<path class="st1" d="M48.9,237.3l0.3-0.3c2-2.1,5.9-3.5,11.9-4.1c1.2-0.1,2.4-0.2,3.7-0.2c2.5,0,5.2,0.2,8.7,0.7l0.8,0.1v0.9
			c0,2,0,4.2,0,6.4v1.3l-1.3-0.4c-2.8-0.8-5.7-1.2-8.8-1.2c-4.6,0-9.2,0.9-13.7,1.7l-1,0.2L48.9,237.3z"/>
		<path class="st1" d="M59.2,305.9c-0.5-3-1.1-5.9-1.6-8.9l-0.2-1.2h1.2c0.7,0,1.3,0,2,0.1h0.1c0.5,0,1,0.1,1.4,0.1
			c0.1,0,0.2,0,0.3,0.1l1,0.2l-0.2,1l-0.4,1.6c-0.6,2.3-1.2,4.7-1.7,7L59.2,305.9z"/>
		<path class="st1" d="M46.4,215.3c-0.2-1.7-0.3-3.4-0.5-5.1v-0.5l0.3-0.3c6.3-6.2,14.6-9.5,23.4-9.5c3,0,6,0.4,9,1.2l1.2,0.3
			l-0.5,1.1c-0.5,1.1-1,2.1-1.4,3.1c-1,2.5-1.7,5.1-2.2,8l-0.2,1l-1-0.2c-3.2-0.5-6.5-0.8-9.6-0.8c-5.8,0-11.5,0.9-17.1,2.5
			l-1.2,0.3L46.4,215.3z"/>
		<path class="st1" d="M84.6,193.1c-9.1-5-18.9-7.8-27.6-7.8c-3.4,0-6.6,0.4-9.6,1.2l-1.6,0.4l0.4-1.6c1.1-5,3.1-9.1,6.1-12.6
			l0.2-0.2l0.3-0.1c0.7-0.2,1.5-0.3,2.2-0.3c3.5,0,6.4,1.9,9.3,3.7c0.9,0.6,1.8,1.1,2.7,1.6c3,1.6,6.2,3.1,9.5,4.3
			c4.9,1.8,10.3,3.1,15.9,3.8l3.1,0.4l-2.7,1.5c-2.5,1.4-4.9,3.2-7,5.4l-0.5,0.6L84.6,193.1z"/>
		<path class="st1" d="M205,195.6c-7.8,0-14.7-1.7-20.5-5.2c-7.9-4.6-12.4-11.6-17.1-19.1c-0.8-1.2-1.6-2.5-2.4-3.7
			c-5.7-8.6-13.5-19.5-24.3-26.7c-7.3-4.9-16.5-8.1-28.7-9.9l-0.1-2c5.9-1.3,12-2,18.2-2c10,0,19.8,1.7,29.3,4.9l0.3,0.1l0.2,0.2
			c2.5,2.9,4.9,5.7,7.3,8.5c1,1.2,2,2.4,3,3.6c3.2,3.7,6.3,7.8,9.7,12.1c10.4,13.3,22.2,28.4,36.7,36.1l2.6,1.4l-2.9,0.5
			C212.3,195.3,208.5,195.6,205,195.6z"/>
		<path class="st1" d="M278.7,210.6c-0.9-2.6-2-4.9-3.2-7.1c-0.5-1-1.2-2-2-3.1l-0.7-1l1.2-0.5c6.5-2.7,12.3-7.5,18.3-12.5
			c5.8-4.9,11.2-9.8,14.8-15.7l1.6-2.6l0.3,3c0.7,7.6,0.6,15.3,0.4,21.9c0,0.6-0.1,2.6-0.1,2.6v0.7l-0.7,0.2c-0.1,0-0.1,0.1-0.2,0.1
			c-8.1,7.4-17.7,12.3-28.5,14.6l-0.8,0.2L278.7,210.6z"/>
		<path class="st1" d="M293.3,301.4c-0.4-3.7-1-7.4-1.6-10.7l-0.2-1.3l1.3,0.1c0.7,0.1,1.3,0.1,2,0.1c0.6,0,1.2,0,1.9-0.1l1.3-0.1
			l-0.3,1.3c-0.8,3.9-1.6,7.4-2.5,10.8L293.3,301.4z"/>
		<path class="st1" d="M59.6,135.6l6,1.4l9.1,2.4l8.4,4.3l9.2,6l7.7,7l10.9,10.5l12.3,12.7l8.9,6l12.7,4.1l23.8,1l9.7-2.8
			c0,0-22.5,0.1-49.3-25.3C92.6,128.5,59.6,135.6,59.6,135.6z"/>
		<path class="st1" d="M50.9,162.5l44.6,22.3l8.2,1.2l11.6,0.4c0,0,12-2,9.6-2.6c-19.2-4.6-30.8-21.8-47.5-26.3
			C57.1,152,50.9,162.5,50.9,162.5z"/>
	</g>
	<g>
		<g>
			<path class="st2" d="M265.6,174.2c-2.6,15.2-18.3,23.3-32.8,21.4c-16-2-28.6-13.2-38.7-25c-19.8-23.1-37.5-49-62-67.6
				c-12-9.1-25.8-15.6-41.1-15.1c0.3,0.9,0.5,1.9,0.8,2.8c28.4-13.7,59.5-7.7,86,7.3c17,9.6,34.4,22.7,46.4,38.4
				c1.2,1.5,3.8,0,2.6-1.5c-9.1-12-21.3-22.1-33.5-30.6c-18.4-13-39.9-23-62.7-24.3c-14-0.8-27.7,2.1-40.3,8.2
				c-1.4,0.7-0.7,2.8,0.8,2.8c33.4-1,58.8,31.1,78.3,54.1c18.1,21.3,37.9,56,70.5,53.8c13.4-0.9,26.2-10.2,28.6-23.9
				C268.9,173.1,266,172.3,265.6,174.2L265.6,174.2z"/>
		</g>
		<g>
			<path class="st2" d="M220.9,192.6c-12,2.8-25,3.4-35.9-3c-9-5.3-13.6-14-19.1-22.4c-6.7-10.2-14.3-20.1-24.6-27
				c-10.9-7.3-24.1-9.7-36.9-11c0.1,1,0.3,2,0.4,2.9c17.5-5.7,37-5,54.4,0.9c1.8,0.6,2.6-2.3,0.8-2.9c-17.8-6.1-38-6.8-56-0.9
				c-1.7,0.5-1.3,2.8,0.4,2.9c15.2,1.5,29.8,5,41.5,15.3c10.2,9.1,16.5,20.8,24.2,31.9c12.1,17.5,31.9,20.8,51.6,16.1
				C223.5,195,222.7,192.1,220.9,192.6L220.9,192.6z"/>
		</g>
		<g>
			<path class="st2" d="M180.6,187.3c-12.9,3-26.9,3.8-39.8,0.3c-12-3.3-20.1-11.6-28.2-20.6c-14.4-16.2-32-30.8-54.5-32.5
				c0.3,0.9,0.5,1.9,0.8,2.8c16.4-10.3,37.6-13.7,56.2-8c1.8,0.6,2.6-2.3,0.8-2.9c-19.3-6-41.5-2.4-58.5,8.3
				c-1.3,0.8-0.7,2.7,0.8,2.8c12.4,0.9,23.8,6.3,33.7,13.7c10,7.5,17.5,17.3,26.3,26.1c16.9,16.8,41.1,18,63.3,12.9
				C183.2,189.8,182.4,186.9,180.6,187.3L180.6,187.3z"/>
		</g>
		<g>
			<path class="st2" d="M109.9,125.8c-2.8-8.1-11.2-14.6-17.7-19.6c-4.4-3.4-13.5-11.3-19.8-9.2c0.5,0.8,1,1.7,1.5,2.5
				c4-4.7,11.6-7.6,17.6-8.5c1.9-0.3,1.1-3.2-0.8-2.9c-6.5,0.9-14.6,4.2-18.9,9.3c-0.9,1-0.1,3,1.5,2.5c2.3-0.8,5.6,1.2,7.5,2.2
				c3.8,2.1,7.5,4.6,10.9,7.3c5.5,4.4,13,10.2,15.4,17.1C107.6,128.4,110.5,127.6,109.9,125.8L109.9,125.8z"/>
		</g>
		<g>
			<path class="st2" d="M126.5,181.9c-8.2,4.1-17.1,5.3-25.8,2.1c-7.1-2.6-13.1-7.4-19-12c-9.1-7.1-19.5-15.5-31.4-9.3
				c0.7,0.3,1.5,0.6,2.2,0.9c-0.9-3.9,2.2-9.1,4.2-12.1c3.6-5.6,8.7-9.8,15.2-11.3c1.9-0.4,1.1-3.3-0.8-2.9c-7.3,1.6-13,6.5-17,12.7
				c-2.5,3.9-5.6,9.7-4.5,14.5c0.2,1,1.4,1.3,2.2,0.9c12.9-6.7,25,7.2,34.6,14.1c13,9.4,26.8,12.5,41.6,5.1
				C129.8,183.6,128.3,181,126.5,181.9L126.5,181.9z"/>
		</g>
		<g>
			<path class="st2" d="M99.5,183.9c-10.9,2.5-18.6,11.2-22.6,21.3c-5,12.7-3,26-3.6,39.3c-0.3,7.4-2.4,14.9-4,22.1
				c-2,9.1-4.2,18.3-6.3,27.4c-1.4,6.2-3.9,13.4-3.7,19.9c0.1,1.9,3.1,1.9,3,0c-0.3-7.2,2.7-15.2,4.3-22.2
				c2.5-10.8,5.2-21.6,7.4-32.5c0.8-4,1.6-8,2.1-12c0.7-6.1,0-12.3,0.1-18.4c0.3-16.7,5.2-37.6,24.1-42
				C102.2,186.4,101.4,183.5,99.5,183.9L99.5,183.9z"/>
		</g>
		<g>
			<path class="st2" d="M50.9,171.3c-6.3,7.2-7.9,16.3-7.8,25.6c0.1,12.6,2,25.2,3.5,37.7c3.1,26.6,7.2,53.2,12.1,79.5
				c0.4,1.9,3.2,1.1,2.9-0.8c-4.6-24.8-8.5-49.8-11.5-74.9c-1.4-11.6-2.8-23.2-3.6-34.8c-0.8-10.5-0.6-22,6.7-30.3
				C54.3,172,52.2,169.9,50.9,171.3L50.9,171.3z"/>
		</g>
		<g>
			<path class="st2" d="M138.6,83.6c32.9-2.7,68-2.1,99.3,10c16.3,6.3,35.6,18,39.3,36.6c1.6,8.1-0.8,16.1-5.5,22.7
				c-1.1,1.6,1.5,3.1,2.6,1.5c9.5-13.3,7.6-29.5-2.5-41.8c-15.7-19.2-42.9-27-66.4-30.6c-22-3.4-44.5-3.3-66.7-1.5
				C136.7,80.8,136.6,83.8,138.6,83.6L138.6,83.6z"/>
		</g>
		<g>
			<path class="st2" d="M181.8,99.8c23.3,3.6,47.4,10,66.6,24.1c10.5,7.6,20,18.3,22.9,31.2c0.9,4.2,1.1,8.7-0.4,12.8
				c-0.7,1.8,2.2,2.6,2.9,0.8c3.3-8.8-0.2-19.3-4.7-27c-8.9-15.2-24.6-25.5-40.5-32.3c-14.7-6.3-30.3-10-46.1-12.5
				C180.7,96.7,179.8,99.6,181.8,99.8L181.8,99.8z"/>
		</g>
		<g>
			<path class="st2" d="M240.9,132c14.1,5.3,26.9,22.7,29.7,37.3c0.4,1.9,3.2,1.1,2.9-0.8c-1.6-8.5-6.5-16.5-11.7-23.2
				c-5.3-6.8-11.9-13.2-20.1-16.2C239.9,128.4,239.1,131.3,240.9,132L240.9,132z"/>
		</g>
		<g>
			<path class="st2" d="M269.4,110.2c0.9-7,0.6-14.7-5.1-19.6c-0.5,0.8-1,1.7-1.5,2.5c14.6,4.3,18.5,24.6,15.6,37.2
				c-0.4,1.9,2.5,2.7,2.9,0.8c3.2-14.3-1.4-36.2-17.7-40.9c-1.4-0.4-2.6,1.5-1.5,2.5c5.1,4.4,5,11.3,4.2,17.5
				C266.1,112.1,269.1,112.1,269.4,110.2L269.4,110.2z"/>
		</g>
		<g>
			<path class="st2" d="M279.5,132c13.4,3.3,24.4,16,27.1,29.3c2.1,10.3,2,21.1,1.8,31.6c-0.6,27.5-3.9,55.1-8.7,82.1
				c-2.1,12.1-4.5,24.3-8.1,36.1c-0.6,1.9,2.3,2.6,2.9,0.8c7.6-25,11.1-51.5,14-77.4c1.6-14.2,2.7-28.5,2.9-42.8
				c0.2-10.6,0.1-21.6-2.1-32c-3-14-15-27.3-29-30.7C278.4,128.6,277.6,131.5,279.5,132L279.5,132z"/>
		</g>
		<g>
			<path class="st2" d="M259.6,190.4c21,12.4,22.2,38.9,23.3,60.8c1,20.3,9.8,40.1,8.9,60.6c-0.1,1.9,2.9,1.9,3,0
				c0.4-8.6-1.4-17.4-2.8-25.8c-1.6-9-3.5-17.9-5.2-26.9c-1.9-9.9-1.4-20.2-2.8-30.1c-1.2-8.9-3.1-18-7.5-26
				c-3.6-6.5-9-11.4-15.3-15.1C259.5,186.8,258,189.4,259.6,190.4L259.6,190.4z"/>
		</g>
		<g>
			<path class="st2" d="M51,164.5c-0.7,2.8-0.7,5.1,0,7.9c0.2,0.8,1.1,1.3,1.8,1c5.3-1.4,9.5,2.5,13.8,4.9c3.1,1.7,6.4,3.2,9.7,4.4
				c7.1,2.6,14.5,4,22.1,4.4c1.9,0.1,1.9-2.9,0-3c-9.4-0.5-18.7-2.7-27.2-6.8c-6.1-3-11.9-8.7-19.1-6.8c0.6,0.3,1.2,0.7,1.8,1
				c-0.7-2.1-0.7-4.2,0-6.3C54.3,163.5,51.4,162.7,51,164.5L51,164.5z"/>
		</g>
		<g>
			<path class="st2" d="M93.3,107.9c-10.6-2.8-19.7,3.1-26.3,10.9c-0.9,1.1-0.1,2.9,1.5,2.5c8.3-2.4,16.6-0.8,23.6,4.3
				c1.6,1.1,3.1-1.5,1.5-2.6c-7.6-5.6-16.9-7.2-25.9-4.6c0.5,0.8,1,1.7,1.5,2.5c5.9-7,13.8-12.7,23.3-10.2
				C94.4,111.3,95.2,108.4,93.3,107.9L93.3,107.9z"/>
		</g>
		<g>
			<path class="st2" d="M232.2,146.4c6,5.3,10.8,12.1,15.2,18.7c4.5,6.7,9.2,14,11.2,21.8c0.5,1.9,3.4,1.1,2.9-0.8
				c-2.1-8.1-6.9-15.6-11.5-22.5c-4.5-6.8-9.5-13.8-15.6-19.3C232.9,143,230.8,145.1,232.2,146.4L232.2,146.4z"/>
		</g>
		<g>
			<path class="st2" d="M293.2,139.4c-2,10.2-6.1,20.1-10.7,29.4c-3.8,7.7-8.4,17.5-15.6,22.7c-1.5,1.1,0,3.7,1.5,2.6
				c7.3-5.3,12.1-14.7,16.1-22.6c5-9.9,9.6-20.4,11.6-31.3C296.4,138.3,293.5,137.5,293.2,139.4L293.2,139.4z"/>
		</g>
		<g>
			<path class="st2" d="M273,200.3c7.4-2.7,14-8.2,19.9-13.2c6.3-5.4,13.5-11.7,16.9-19.4c0.8-1.7-1.8-3.3-2.6-1.5
				c-3.2,7.1-9.7,12.9-15.5,18c-5.7,5-12.3,10.6-19.5,13.3C270.4,198,271.2,200.9,273,200.3L273,200.3z"/>
		</g>
		<g>
			<path class="st2" d="M279.6,213.3c11.4-2.2,21.7-7.5,30.3-15.3c1.4-1.3-0.7-3.4-2.1-2.1c-8.2,7.5-18.1,12.4-29,14.6
				C276.9,210.8,277.7,213.7,279.6,213.3L279.6,213.3z"/>
		</g>
		<g>
			<path class="st2" d="M282.2,223.6c9.9-1.4,18.9-5.1,26.9-11c1.5-1.1,0-3.7-1.5-2.6c-7.8,5.8-16.6,9.4-26.2,10.7
				C279.5,221,280.4,223.9,282.2,223.6L282.2,223.6z"/>
		</g>
		<g>
			<path class="st2" d="M283.8,234.9c8,1.7,15.9,1.3,23.7-1.2c1.8-0.6,1-3.5-0.8-2.9c-7.3,2.3-14.6,2.8-22.1,1.2
				C282.7,231.6,281.9,234.5,283.8,234.9L283.8,234.9z"/>
		</g>
		<g>
			<path class="st2" d="M284.5,246.1c7.3,1.3,14.4,1.8,21.6-0.4c1.8-0.6,1.1-3.5-0.8-2.9c-6.7,2-13.2,1.6-20,0.4
				C283.4,242.9,282.6,245.8,284.5,246.1L284.5,246.1z"/>
		</g>
		<g>
			<path class="st2" d="M285.9,261.4c6.2,1.4,12.4,1.6,18.1-1.5c1.7-0.9,0.2-3.5-1.5-2.6c-5,2.7-10.4,2.4-15.8,1.2
				C284.9,258.1,284.1,261,285.9,261.4L285.9,261.4z"/>
		</g>
		<g>
			<path class="st2" d="M287.4,272.2c4.7,1.3,10.1,0.8,14.6-0.8c1.8-0.7,1-3.6-0.8-2.9c-4,1.5-8.8,2-13,0.8
				C286.4,268.8,285.6,271.7,287.4,272.2L287.4,272.2z"/>
		</g>
		<g>
			<path class="st2" d="M290.9,290.2c2.5,0.5,4.9,0.5,7.5,0.1c1.9-0.3,1.1-3.2-0.8-2.9c-1.9,0.3-3.9,0.3-5.9-0.1
				C289.8,287,289,289.9,290.9,290.2L290.9,290.2z"/>
		</g>
		<g>
			<path class="st2" d="M85.7,192.5c-11.4-6.5-26.9-10.8-39.8-6.6c-1.8,0.6-1,3.5,0.8,2.9c12.2-4,26.8,0.2,37.5,6.3
				C85.9,196.1,87.4,193.5,85.7,192.5L85.7,192.5z"/>
		</g>
		<g>
			<path class="st2" d="M79.8,199.3c-12.5-3.7-26-0.3-35.2,8.9c-1.4,1.4,0.8,3.5,2.1,2.1c8.5-8.5,20.8-11.5,32.3-8.1
				C80.9,202.8,81.7,199.9,79.8,199.3L79.8,199.3z"/>
		</g>
		<g>
			<path class="st2" d="M47.2,218.4c8.9-2.8,17.9-3.6,27.1-2c1.9,0.3,2.7-2.6,0.8-2.9c-9.7-1.6-19.3-1-28.7,2
				C44.5,216,45.3,218.9,47.2,218.4L47.2,218.4z"/>
		</g>
		<g>
			<path class="st2" d="M74.9,231.6c-5.2-0.8-10.5-1.3-15.7-0.5c-3.5,0.6-9.4,1.8-11.7,4.8c-1.2,1.5,0.9,3.6,2.1,2.1
				c2.3-2.9,8.2-3.8,11.7-4.2c4.3-0.4,8.6,0,12.8,0.6C76,234.8,76.8,231.9,74.9,231.6L74.9,231.6z"/>
		</g>
		<g>
			<path class="st2" d="M50.1,244.4c8.2-1.5,15.6-3.1,23.7-0.3c1.8,0.6,2.6-2.3,0.8-2.9c-8.7-3-16.5-1.3-25.3,0.3
				C47.4,241.8,48.2,244.7,50.1,244.4L50.1,244.4z"/>
		</g>
		<g>
			<path class="st2" d="M71.5,265.1c-5.5-4.7-12.8-8.2-20.2-7.6c-1.9,0.1-1.9,3.1,0,3c6.6-0.5,13.2,2.5,18.1,6.8
				C70.8,268.5,72.9,266.4,71.5,265.1L71.5,265.1z"/>
		</g>
		<g>
			<path class="st2" d="M54.1,271.7c2.3-0.4,4.9,0,7.3,0.3c2,0.3,4.5,0.6,6.2,1.8c1.6,1.1,3.1-1.5,1.5-2.6c-2.1-1.5-5.1-1.9-7.6-2.2
				c-2.7-0.4-5.5-0.7-8.2-0.2C51.4,269.2,52.2,272.1,54.1,271.7L54.1,271.7z"/>
		</g>
		<g>
			<path class="st2" d="M66.4,287.3c-3-1.6-7-2.2-10.4-2.1c-1.9,0-1.9,3,0,3c2.9-0.1,6.3,0.4,8.9,1.7
				C66.6,290.8,68.1,288.2,66.4,287.3L66.4,287.3z"/>
		</g>
		<g>
			<path class="st2" d="M57.5,296.7c1,0,2,0,3.1,0.1c0.5,0,1,0.1,1.5,0.1c0.2,0,0.3,0.1,0.5,0.1c0.4,0,0.2,0.1,0-0.1
				c1.3,1.4,3.4-0.7,2.1-2.1c-0.7-0.8-2.2-0.8-3.2-0.9c-1.3-0.1-2.6-0.2-3.9-0.2C55.6,293.8,55.6,296.8,57.5,296.7L57.5,296.7z"/>
		</g>
		<g>
			<path class="st2" d="M290,284c1.6,0.2,3.2,0.4,4.8,0.4c0.8,0,1.7-0.1,2.5-0.2c0.5-0.1,1.1-0.3,1.6-0.3c1.9,0.1,1.9-2.9,0-3
				c-1.1-0.1-2.3,0.4-3.4,0.4c-1.5,0.1-3.1,0-4.6-0.3C288.9,280.8,288.1,283.7,290,284L290,284z"/>
		</g>
		<g>
			<path class="st2" d="M128.8,104.1c7.8-0.2,15,4.2,21.7,7.9c5.8,3.2,11.5,6.7,16.9,10.6c11.3,8,21.3,17.5,30.9,27.5
				c9.3,9.7,18.2,19.7,28.2,28.7c8,7.2,17.6,15.9,29.2,13.6c1.9-0.4,1.1-3.3-0.8-2.9c-8.3,1.7-15.6-3.8-21.6-8.8
				c-4.9-4.1-9.6-8.5-14.1-13.1c-9.2-9.3-17.9-19.2-27.3-28.4c-8.8-8.6-18.3-16.4-28.6-23.1c-9.7-6.3-22.3-15.2-34.3-14.9
				C126.9,101.1,126.9,104.1,128.8,104.1L128.8,104.1z"/>
		</g>
		<g>
			<path class="st2" d="M282.3,123.6c2.6-2.9,3.8-6.2,3.8-10.1c-0.9,0.3-1.9,0.5-2.8,0.8c2.9,4.1,1.9,11.5-0.3,15.7
				c-0.9,1.7,1.7,3.2,2.6,1.5c2.7-5.1,3.9-13.7,0.3-18.7c-0.8-1.2-2.8-0.8-2.8,0.8c0,3.1-0.9,5.7-3,8
				C279,123,281.1,125.1,282.3,123.6L282.3,123.6z"/>
		</g>
	</g>
</g>
</svg>
