<?xml version="1.0" encoding="utf-8"?>
<!-- Generator: Adobe Illustrator 19.2.0, SVG Export Plug-In . SVG Version: 6.00 Build 0)  -->
<svg version="1.1" id="Layer_1" xmlns="http://www.w3.org/2000/svg" xmlns:xlink="http://www.w3.org/1999/xlink" x="0px" y="0px"
	 viewBox="0 0 130 59" style="enable-background:new 0 0 130 59;" xml:space="preserve">
<style type="text/css">
	.st0{fill-rule:evenodd;clip-rule:evenodd;fill:#7a502b;}
	.st1{fill:#3A291D;}
</style>
<g>
	<g>
		<path class="st0" d="M75.6,39.8L66.1,41h-8.3c0,0-6.8-2.7-8.3-1.2s-3.9,5.7-3.5,9.4c0.3,3.2,32.3,5.9,33-2.4
			C79.4,43.4,75.6,39.8,75.6,39.8z M116.8,13.9c-2.7-4.4-4.7-2.1-5.9-1.2c-1.2,0.9-1.4,2.6-1.2,3.5c1.2,4.9,2.2,7,1.2,14.1
			c-0.4,2.7,6.7,2.8,8.8-1.2C121.7,25.5,119.5,18.3,116.8,13.9z"/>
	</g>
	<g>
		<g>
			<path class="st1" d="M19.9,24.6c28.3,6,58.6,4.5,86.8-1.6c2.5-0.6,1.4-4.4-1.1-3.9c-27.4,6-57.1,7.5-84.7,1.6
				C18.5,20.2,17.4,24,19.9,24.6L19.9,24.6z"/>
		</g>
		<g>
			<path class="st1" d="M104.4,17.5c3.7,2.2,3.9,6.8,2.3,10.4c-1,2.3,2.5,4.4,3.5,2c2.4-5.7,2-12.5-3.8-15.9
				C104.2,12.7,102.1,16.2,104.4,17.5L104.4,17.5z"/>
		</g>
		<g>
			<path class="st1" d="M17.5,15.3c-2.1,2-2.6,5.4-2.9,8.2c-0.3,2.5-0.8,5.5,0.3,7.9c1.1,2.3,4.5,0.3,3.5-2c-0.4-0.9,0-4,0.2-5.3
				c0.2-1.8,0.4-4.6,1.9-5.9C22.2,16.4,19.4,13.6,17.5,15.3L17.5,15.3z"/>
		</g>
		<g>
			<path class="st1" d="M44.9,40.6c4.4,2.5,10.4,2.5,15.4,2.5c6.3,0,12.8-0.4,18.9-2.1c2.5-0.7,1.4-4.5-1.1-3.9
				c-5.4,1.5-11,1.9-16.5,1.9c-4.6,0-10.5,0.3-14.6-2C44.7,35.9,42.7,39.4,44.9,40.6L44.9,40.6z"/>
		</g>
	</g>
</g>
</svg>
