<?xml version="1.0" encoding="utf-8"?>
<!-- Generator: Adobe Illustrator 19.2.0, SVG Export Plug-In . SVG Version: 6.00 Build 0)  -->
<svg version="1.1" id="Layer_1" xmlns="http://www.w3.org/2000/svg" xmlns:xlink="http://www.w3.org/1999/xlink" x="0px" y="0px"
	 viewBox="0 0 500 500" style="enable-background:new 0 0 500 500;" xml:space="preserve">
<style type="text/css">
	.st0{fill:#36447f;}
	.st1{fill:#273366;}
	.st2{fill:#1a1d31;}
	.st3{opacity:0.75;fill:#273366;enable-background:new    ;}
</style>
<g>
	<path class="st0" d="M402.2,363.5c-3.3-5.4-9-10.1-13.9-14.2c-0.6-0.5-1.2-1-1.8-1.5c-9.5-7.9-19.7-15.2-30.3-21.7
		c-8-4.9-16.7-9.8-26-12.4c-6.8-1.9-13.9-3.4-20.8-4.9l-1.2-0.3c-25.3-5.5-46.6-9.5-68.3-11c-3.7-0.3-6.8-0.4-9.6-0.4
		c-5.6,0-10.4,0.5-14.8,1.6c-9.6,2.3-18.9,5.9-29.2,10c-17.3,6.8-35.4,14.8-58.9,25.9l-0.2,0.1H127c-0.1,0-0.1,0-0.2,0.1
		c-2.5,1.3-5.4,2.9-8.1,4.8c-0.7,0.5-1.4,1-2,1.5l-2.2,1.8l0.6-2.8c0.3-1.3,0.7-2.7,1.1-4.1c1.3-4,3.2-7.9,5-11.6
		c1-2.1,2.1-4.3,3.1-6.5c1.8-4.1,2.4-8,3.1-12.1c1.6-9.6,6.3-19.2,10.5-27.6c6.6-13.5,14.2-27.4,24.4-37.4
		c7.8-7.6,17.3-13.7,25.6-18.8c10.8-6.7,22.1-12.7,33.4-17.9c9-4.1,19.5-8.7,30.3-10.8c4.3-0.8,8.7-1.2,13.3-1.2
		c25.5,0,49.4,12.6,65,23.1c10.4,7,19.7,14.9,28.3,22.4c1.8,1.5,3.6,3.1,5.4,4.6c7.5,6.3,15.2,12.8,21.1,20.9
		c12.2,16.6,18.1,38.1,17.4,63.9c-0.2,8.3,0.1,14.9,1,22c0.5,4.1,1.2,9.3,0.8,14.2l-0.3,3L402.2,363.5z"/>
	<path class="st0" d="M389.5,461.5c-6.1-23.3-15.8-46.9-28-68.3c-4.1-7.1-8.3-13.8-15.1-18c-9-5.5-19.3-9.2-29.9-12.9
		c-18-6.1-39.4-12.4-61.6-12.4c-5.3,0-10.5,0.4-15.5,1.1c-14.9,2.1-29.8,6.4-44.2,12.8c-8.4,3.7-18,8.3-24.6,16
		c-8.5,9.9-15.6,21.3-22.7,33.1c-9.2,15.4-16,28.3-21.3,40.7L126,455l-1-1.2c-1.9-2.2-2.8-5.4-3.5-8l-0.3-1
		c-1.5-5.3-2.5-10.6-3.2-15.2c-1.6-9.5-2.6-19.2-3.2-28.9c-0.3-5.3,1.8-9.4,4-13.8l1-2c1.9-3.7,4.1-8,3.2-11.8c-0.7-3-2.3-6-3.7-8.9
		c-1.1-2.2-2.3-4.4-3.1-6.7c-1.3-3.6-1.8-7.6-1.6-11.7v-0.5l0.4-0.3c0,0,0.1-0.1,0.1-0.2c1-2.2,3.3-3.8,5.2-5l0.3-0.2
		c1.7-1.1,3.5-2.2,5.8-3.4l0.1-0.1h0.1h0.1c19.4-9.2,35.5-16.4,50.8-22.7c1.6-0.7,3.3-1.4,5-2.1c15.5-6.5,31.5-13.2,48.3-13.2
		c0.3,0,0.7,0,1,0c22.8,0.4,46.4,5.2,67.2,9.5c1.4,0.3,2.8,0.6,4.3,0.9c14.7,3,29.9,6,43.5,13.3c11.4,6.1,23.1,13.9,34.8,23.2
		c0.9,0.7,1.8,1.4,2.7,2.2c7,5.4,14.9,11.6,18.5,19.3c0.1,0.1,0.1,0.2,0.1,0.2l0.7,0.4l-0.2,0.7c-0.7,2.6-1.7,4.8-3.1,6.8
		c-3.9,5.7-4.8,9.5-3.6,15.7c0.5,2.7,1.4,5.4,2.3,8.1s1.8,5.5,2.3,8.3c0.8,4.6,0.6,9.3,0.3,14.2c-0.8,12.5-3,23.7-6.3,33.1
		c-0.1,0.2-0.2,0.5-0.3,0.8c-0.7,2.2-1.9,5.5-3.7,7.2l-1.2,1.2L389.5,461.5z"/>
	<g>
		<path class="st1" d="M381,285.8l7.2,10.1l8.7,16.1l3.6,8.8c0,0,1.2,7.7,1.2,9.2l0.8-14c0,0-0.9-10.4-1.8-16.5
			c-1-6-20.8-37.5-32.5-34.8c-5.6,1.3-2,5.4-2,5.4L381,285.8z"/>
		<path class="st1" d="M234.4,232.4c13.7,2.5,15.6,0.3,15.2-3.5c-0.5-4.4-6.1-9.9-14.3-11.2c-24-3.9-49.3,4.2-55.5,9
			C176.9,228.8,162,240,162,240l-10.8,13.5l-9.7,16.7C141.5,270.3,196,225.2,234.4,232.4z"/>
		<path class="st1" d="M403.6,352.3C364,303.6,261.7,289,226.8,290c-28.6,0.8-76.1,32.9-84.8,21.4c-3.2-6.4-6.2-13.4-6.1-16.9
			c0.1-7.5,3.5-21.1,3.5-21.1l-6.9,16l-6.2,13.1l-1.1,12.4l-4.2,11l-6.6,16.2c4.7-3.5,9.7-5.9,15-8.6c6.2-3.2,12.6-6.8,19.4-8.6
			c0.3-0.1,0.6,0,0.7,0.2c4.7-1.5,11.1-4.3,11.1-4.3l16.6-8.1l26.8-11l16-3.7h23.7l21.3,2.9c0,0,25.9,5.7,34.7,6.3
			c25,1.7,46.3,13.2,62.8,26.2l-3.3-4.5l10.8,5.6l10.2,7.9l11.9,9.8l7.3,8.4l4.5,5.3C405.2,361,406,355.2,403.6,352.3z"/>
	</g>
	<g>
		<path class="st2" d="M117.4,336.2c2-6.3,5.4-11.9,8-18c1.8-4.1,2.4-8,3.2-12.3c1.6-9.4,6.2-18.9,10.4-27.4
			c6.3-12.8,13.9-27,24.2-37.1c7.5-7.3,16.5-13.1,25.4-18.6c10.7-6.6,21.9-12.6,33.3-17.9c9.6-4.4,19.6-8.7,30.1-10.7
			c27-5.1,55.6,6.9,77.6,21.7c10,6.7,19.2,14.4,28.2,22.3c9.2,8,19,15.4,26.3,25.3c13.5,18.3,17.8,40.9,17.2,63.3
			c-0.2,7.6,0,14.5,1,22.1c0.7,5,1.3,10.2,0.7,15.2c0.4,1.2,1.5,2,2.2,3.1c0.1,0.2,0.2,0.4,0.3,0.5c2.4-10.1-1.6-21.3-1.5-31.7
			c0-7.6,0.6-15.1,0.1-22.7c-0.7-11.5-3-22.9-7.5-33.6c-9.7-23.4-30.7-39.3-49.9-54.8c-21.4-17.2-45.9-31.5-73.8-34.2
			c-11.8-1.1-22.7,0.1-33.9,3.9c-11.8,4.1-23.1,9.5-34.1,15.3c-11.2,5.9-22.2,12.5-32.5,20c-9.3,6.8-16.2,14.2-22.7,23.9
			c-8.5,12.6-15.6,26.2-20.8,40.5c-3.1,8.5-3.7,17.4-7.6,25.5c-3.7,7.7-7.9,16-8.9,24.6c1.1-1,2.3-2,3.5-2.9
			C116.3,339.8,116.8,338,117.4,336.2z"/>
		<g>
			<path class="st2" d="M366.6,271.3c15.5,16.4,32.7,37.4,33.9,61.1c0.1,1.9,3.1,1.9,3,0c-1.3-24.6-18.6-46.1-34.8-63.2
				C367.3,267.8,365.2,269.9,366.6,271.3L366.6,271.3z"/>
		</g>
		<g>
			<path class="st2" d="M172.4,246.3c18.5-11.8,40-18.1,61.9-16.1c1.9,0.2,1.9-2.8,0-3c-22.4-2.1-44.6,4.5-63.4,16.5
				C169.3,244.7,170.8,247.3,172.4,246.3L172.4,246.3z"/>
		</g>
		<g>
			<path class="st2" d="M210.3,222.4c9.1-2.1,18.1-1.7,27,1c1.9,0.6,2.6-2.3,0.8-2.9c-9.4-2.9-19-3.2-28.6-1
				C207.6,219.9,208.4,222.8,210.3,222.4L210.3,222.4z"/>
		</g>
	</g>
	<g>
		<path class="st1" d="M401.8,330.1v0.3C401.8,330.3,401.8,330.2,401.8,330.1z"/>
		<path class="st1" d="M162,368.1c-3.2-3.9,0.7-13.7-1.3-15.3c-2-1.6-12.6,4.3-11.7,0.9c0.9-3.4,3.7-3.9,3.7-7.4
			c0-2.1-13.7,2.9-14.7-7.1c-0.4-4.1,5.6-9.5,9.1-12.3c-5.9,1.9-11.5,5.1-17,7.9c-5.6,2.8-10.9,5.4-15.8,9.2l-0.2,8.8l4.1,11.1
			l4,8.6l-1.5,9.4l-5.5,11.5l-0.3,15l5.5,37.7l6,8.8l22.2-41.7l8.4-13.4l11.6-16.5l13.2-12.1C181.6,371.1,165.2,372,162,368.1z"/>
		<path class="st1" d="M401.1,373.7l2-2.4l0.8-5.3l-0.1-0.1C402.9,369.2,401.8,372.1,401.1,373.7z"/>
		<path class="st1" d="M400.6,375c0,0,0.2-0.5,0.5-1.3l-0.7,0.9C400.5,374.9,400.6,375,400.6,375z"/>
		<path class="st1" d="M362.5,333.5l7.9,10.7l10.2,12.1l4.1,7.2c-0.3,0.3-0.2,1,0.6,2.3c7.9,13.5-8.5,28.9-22.2,31.3l6.6,15.3
			l16.6,39l4.4,11.6l6.2-12.3l5-26.4l-1.3-19.9l-1.9-10l-2.1-9.4l1.5-7.4l2.3-2.8C398.6,371.8,385,351.2,362.5,333.5z"/>
		<path class="st3" d="M247.7,330.5c6.2,3,17.4,0.2,28,1.3c8.1,0.9,11.9,2.2,19.9,1.5c4.1-0.3,4.3-6.2,0-8.7
			c-3.5-2-38.5-13-46.1-8.6C242,320.5,244.5,328.9,247.7,330.5z"/>
	</g>
	<g>
		<g>
			<path class="st2" d="M400.9,398.6c-1.2-3.7-2.4-7.5-2.8-11.3c-0.5-4.9,1.2-7.9,3.9-11.8c1.2-1.8,2.1-3.6,2.7-5.5
				c-0.3-0.9-0.6-1.7-1.2-2.5c-0.3-0.4-0.7-0.8-1-1.2c-0.6,2.7-1.5,5.3-3.2,7.7c-3.9,5.6-5.1,9.7-3.8,16.5c1,5.6,3.6,10.8,4.6,16.4
				c0.8,4.5,0.6,9.4,0.3,13.9c-0.7,11-2.6,22.4-6.2,32.9c-0.7,1.9-1.8,5.8-3.7,7.7c-6.2-23.6-16.1-47.4-28.1-68.6
				c-4-7.1-8.3-14-15.4-18.4c-9.3-5.7-19.9-9.5-30.1-13c-25-8.5-51.1-15.2-77.6-11.4c-15.3,2.2-30.3,6.6-44.5,12.9
				c-9.1,4-18.4,8.7-25,16.3c-8.7,10.1-15.9,21.8-22.8,33.2c-7.9,13.1-15.3,26.7-21.4,40.8c-2-2.3-2.8-6.1-3.6-8.6
				c-1.4-4.9-2.4-10-3.2-15.1c-1.6-9.5-2.6-19.2-3.2-28.8c-0.3-5.3,2-9.5,4.3-14.1c2-4,4.9-9,3.8-13.7c-1.3-5.4-5-10.5-6.9-15.7
				c-1.6-4.4-1.9-8.9-1.3-13.4c-0.8,0.6-1.6,1.3-2.4,2c-0.3,0.3-0.6,0.6-0.9,0.9c-0.2,3.3,0.2,6.7,1.3,10c1,2.9,2.2,5.7,3.5,8.4
				c1.2,2.6,3.3,5.7,3.8,8.5c1.1,6.1-4.7,13.1-6.9,18.5c-3.1,7.8-0.6,18,0.3,26c1.3,10.6,2.5,21.8,6.4,31.8c1,2.6,2.3,5.5,4.7,7.1
				c0.3,0.2,0.6,0.3,0.9,0.2c0.5,0,0.9-0.2,1.2-0.8c10-23.7,23.4-46.7,38.5-67.5c5.7-7.8,11.3-13.5,19.8-18.2
				c12.4-6.9,26.2-11.7,40-15c13.9-3.3,28.4-5,42.6-3.2c12.5,1.6,24.7,4.7,36.7,8.3c11.6,3.5,23.2,7.5,34,12.8
				c7.6,3.7,12.7,8,17.3,15.2c7.5,11.7,13.3,24.6,18.5,37.5c5.1,12.3,9.8,24.9,13.1,37.8c0.2,0.8,1.1,1.3,1.8,1
				c6.4-2.1,8.4-14,9.7-19.4c2.6-10.9,4.5-22.6,4-33.9C403.5,407,402.3,403,400.9,398.6z"/>
		</g>
		<g>
			<path class="st2" d="M352.1,325.7c19.1,16.9,33,38.1,43.5,61.2c0.8,1.8,3.4,0.2,2.6-1.5c-10.6-23.3-24.7-44.8-44-61.8
				C352.8,322.3,350.7,324.4,352.1,325.7L352.1,325.7z"/>
		</g>
		<g>
			<path class="st2" d="M132.2,375.9c8.1-9.3,17.8-16.7,29-21.9c1.7-0.8,0.2-3.4-1.5-2.6c-11.4,5.3-21.4,12.9-29.6,22.4
				C128.9,375.2,131,377.3,132.2,375.9L132.2,375.9z"/>
		</g>
		<g>
			<path class="st2" d="M132.3,362.6c7.1-5,14.1-10,21.2-15c1.6-1.1,0.1-3.7-1.5-2.6c-7.1,5-14.1,10-21.2,15
				C129.2,361.2,130.7,363.8,132.3,362.6L132.3,362.6z"/>
		</g>
		<g>
			<path class="st2" d="M255.7,331.1c9.6-1.7,19.2-1.5,28.7,0.8c1.9,0.4,2.7-2.4,0.8-2.9c-10-2.4-20.1-2.6-30.3-0.8
				C253,328.6,253.8,331.5,255.7,331.1L255.7,331.1z"/>
		</g>
		<g>
			<path class="st2" d="M258.3,320.4c8.4-0.2,16.4,1.2,24.2,4.4c1.8,0.7,2.6-2.2,0.8-2.9c-8-3.3-16.3-4.8-25-4.5
				C256.3,317.4,256.3,320.4,258.3,320.4L258.3,320.4z"/>
		</g>
		<path class="st2" d="M406.4,368.3c-3.5-7.3-13.2-16.2-19.2-21.3c-9.6-8-19.8-15.3-30.4-21.8c-8.2-5-16.9-9.9-26.2-12.5
			c-7.3-2-14.7-3.6-22-5.2c-22.5-4.9-45.4-9.4-68.4-11.1c-8.3-0.6-16.5-0.8-24.7,1.2c-10,2.4-19.8,6.2-29.3,10
			c-20,7.9-39.5,16.8-58.9,25.9c-0.2,0-0.4,0.1-0.6,0.2c-2.8,1.5-5.6,3-8.2,4.9c-1.9,1.3-6,3.9-7,6c-0.8,1.7,1.8,3.3,2.6,1.5
			c0.9-2.1,5.3-4.5,7.1-5.8c1.8-1.2,3.8-2.3,5.7-3.4c0.1,0,0.2-0.1,0.3-0.1c16.7-7.9,33.6-15.6,50.7-22.7c17-7,35.1-15.5,53.9-15.2
			c22.5,0.4,45.1,5,67,9.4c16.3,3.3,32.7,6.2,47.5,14.1c12.2,6.5,23.8,14.5,34.7,23.1c7.2,5.7,18.9,15.6,23,24.1
			C404.6,371.6,407.2,370,406.4,368.3z"/>
	</g>
</g>
</svg>
