<?xml version="1.0" encoding="utf-8"?>
<!-- Generator: Adobe Illustrator 19.2.0, SVG Export Plug-In . SVG Version: 6.00 Build 0)  -->
<svg version="1.1" id="Layer_1" xmlns="http://www.w3.org/2000/svg" xmlns:xlink="http://www.w3.org/1999/xlink" x="0px" y="0px"
	 viewBox="0 0 530 300" style="enable-background:new 0 0 530 300;" xml:space="preserve">
<style type="text/css">
	.st0{fill:#45C0E9;}
	.st1{fill:#EFEFEF;}
	.st2{fill:#00A1D3;}
	.st3{fill:#BBBBBC;}
	.st4{opacity:0.35;}
	.st5{fill:#0A8CBF;}
	.st6{fill:#7A7B7B;}
</style>
<g>
	<path class="st0" d="M420.5,259c0.1-0.5,0.1-0.9,0.1-1.2c-0.1-0.7-0.2-1.4-0.4-2c-0.8-3.5-1.6-7.1-1.8-10.8
		c-0.5-7.6,2.6-15.1,6.8-21.3c1-1.5,2.1-3,3.1-4.5c0.2-1.6,0.4-3.1,0.6-4.7c2.2-14.6,8.2-28.2,16.5-40.4c0.3-0.4,0.6-0.9,0.9-1.3
		c3.9-11.8,9.1-23,18.4-32.1c1-0.9,1.9-1.7,3-2.5c-25.7-15.4-73.9-42.7-80.6-46.9c-2.4-1.5-13.4-5.6-23.3-12.2
		c-0.9-0.6,0.5-4.8-0.4-5.4c-3.7-2.7-7.1-4.9-9.2-7.8c-4,8.8-32.2,61.7-75.5,65.8c-9.1,0.9-14,0.9-23.2,0.8
		c-30.8-0.6-75.8-46.2-92.7-66c-0.7-0.4-8.7,9.7-10,14.7c-0.5,1.8,1.5,2.3,1.5,2.3l-30.8,21c0,0-35.4,17.1-67.8,39.2
		c4.1,6.3,6.8,13.2,8.7,20.7c1.9,7.5,3,15.2,5.4,22.5c0.3,0.8,1.1,2.1,1,3c-0.4-1-0.8-1.9-1.2-2.9c0.7,1.7,1.4,3.4,2.2,5.1
		c1,2.4,1.8,4.9,2.6,7.4c1.7,5.1,3.1,10.2,4.4,15.4c1.9,7.3,3.8,14.7,6.2,21.8c0.8,1.8,1.5,3.7,2.1,5.7c0.2,0.6,0.4,1.1,0.6,1.7
		c-0.1,0-0.1,0-0.2,0c0.4,1.8,0.8,3.7,1,5.7c0.4,3.5-0.5,6.9-2.1,9.8c90.4,32.9,232.5,42.2,335,6.1
		C420.6,263.7,420.2,261.3,420.5,259z"/>
	<path class="st1" d="M189.2,117c8.4-6.5-23.5-37.8-23.5-37.8l-13,1.8v0.1c-0.5,1.8,1.5,4.3,1.5,4.3S66,122.2,30.6,152.7
		c-20.8,17.9-30.4,55.8-2.5,77c15.2,11.5,35.7,21.8,59.7,30.5C87.8,260.2,108.6,179.5,189.2,117z"/>
	<g>
		<path class="st2" d="M258.4,132.5c-19.2-8.4-42.5-5.6-58-19.7c-20.2-18.4-29.4-48.1-23.1-74.7c-13.1,2.1-24.2,13.3-26.2,26.4
			c-0.3,1.7-0.4,3.5-1.2,5.1c-0.8,1.5-2.1,2.7-3.1,4.1c-3.8,4.8-4.5,11.3-4.5,17.4c0,40,43,80.6,58.1,91.7c1.3,1,2.8,2,4.4,2.3
			c3,0.5,5.7-1.6,8.1-3.6C227,169.4,258.4,132.5,258.4,132.5z"/>
	</g>
	<path class="st1" d="M482.9,147.9c-9.6-7.3-87.1-51.1-95.8-56.5c-2.4-1.5-13.4-5.6-23.3-12.2c-0.9-0.6,0.5-4.8-0.4-5.4
		c-2.9-2.1-5.7-4-7.8-6.1c0,0-29.8,42.9-21.5,50.8c60.8,58,85.8,147.8,85.8,147.8c21.1-7.3,40.5-16.5,57.5-27.7
		C505.8,219.7,516.2,173,482.9,147.9z"/>
	<g>
		<path class="st2" d="M272,132.9c9.9-2,63.8-14.6,73.7-46.5c4.5-14.6,3.7-30.2,1.9-45.4c18.9,11.9,29.3,54.6,27,68.6
			c-6.5,39.4-43.3,81.4-51.2,78.5C319.6,186.8,272,132.9,272,132.9z"/>
	</g>
	<path class="st3" d="M142,80.3c2.5-1.7,5-3.6,7.5-5.7c0.8-0.7-1.1-4.7-0.3-5.4c2.6-2.4,5.2-4.6,7-7c0,0,4.5,5.1,10,12
		c0.6,1.8,1.3,3.6,2.1,5.3c2.7,5.9,6.9,11,12,15.2c3.7,6.7,5.6,12.5,3.3,15.3c-8.4,10.2-12.7,20.9-22.3,31.5
		c-8-11-15.2-22.9-18.9-35.5C140.8,100.8,140.6,91.1,142,80.3z"/>
	<path class="st1" d="M255,133.6c-14,11.9-28.1,25.8-42.1,37.7c-2.3,2-5.1,4.1-8.1,3.6c-1.7-0.3-3.1-1.3-4.4-2.3
		c-15.1-11.1-58.1-51.7-58.1-91.7c0-6.1,0.7-12.6,4.5-17.4c1.1-1.3,2.4-2.5,3.1-4.1c0.8-1.6,0.9-3.3,1.2-5.1
		c2-13.1,13.1-24.3,26.2-26.4c-6.2,26.6,3,56.3,23.1,74.7c15.5,14.1,35.8,21.3,55,29.7"/>
	<path class="st3" d="M371.8,84c-2.6-1.4-5.4-3-8.1-4.8c-0.9-0.6,0.5-4.8-0.4-5.4c-2.9-2.1-5.7-4-7.8-6.1c0,0-3.9,5.6-8.5,13.1
		c-0.4,1.9-0.9,3.7-1.5,5.6c-1.9,6.2-5.5,11.7-10.1,16.5c-2.9,7.1-4,13.1-1.4,15.6c9.6,9.1,18.3,19.1,26.1,29.3
		c6.6-11.9,12.1-25.2,14.3-38.2C375.4,104.2,374.4,94.5,371.8,84z"/>
	<path class="st1" d="M273.4,133c17.6,12.5,35.7,27,50,43.1c18.5-14.8,48.9-53.8,51.2-74.5c1.6-14.1-8.1-56.8-27-68.6
		c1.8,15.2,2.7,30.8-1.9,45.4c-9.9,32-61.6,52.6-71.5,54.6"/>
	<g>
		<g class="st4">
			<path class="st3" d="M145.5,66.6c4.4,6.6,7.4,14.2,8.7,22.1c1.2,7.1,7.6,24.1,13.8,21.7c5-1.9,2-8.9,0.5-15
				c-1-4.1-13.9-37.2-16.6-40.4c-1.4,3.7-3.1,7.2-5,10.6"/>
		</g>
		<g class="st4">
			<path class="st3" d="M351.3,102c-6.6,11.5-14.7,18.6-14.3,19.4c0.7,1.7,3.3,1.3,5,0.4c11.1-5.6,25-28.4,23.6-37.2
				C363.5,71.5,358.1,90.2,351.3,102z"/>
		</g>
	</g>
	<g>
		<g>
			<path class="st5" d="M242.7,142.8c1.2,39.5,3.5,78.8,1.6,118.3c-0.1,2.6,3.9,2.6,4,0c1.8-39.5-0.4-78.8-1.6-118.3
				C246.6,140.3,242.6,140.3,242.7,142.8L242.7,142.8z"/>
		</g>
		<g>
			<path class="st6" d="M372.7,85.9c21.9,10.6,43.3,22.4,64.1,35.1c20.7,12.7,41.1,26.3,59.5,42.3c1.9,1.7,4.8-1.1,2.8-2.8
				c-18.2-15.8-38.4-29.4-58.9-42c-21.2-13.1-43-25.2-65.5-36C372.4,81.3,370.4,84.8,372.7,85.9L372.7,85.9z"/>
		</g>
		<g>
			<path class="st6" d="M33,154.2c13.9-13.2,32.3-22.7,49-31.8c19.7-10.8,40-21.1,61.2-28.9c2.4-0.9,1.4-4.8-1.1-3.9
				C120.6,97.5,100,108,80,118.9c-17,9.3-35.6,18.9-49.8,32.4C28.3,153.1,31.1,155.9,33,154.2L33,154.2z"/>
		</g>
		<g>
			<path class="st6" d="M40.4,149.4c26.8,27.5,40.4,69.1,42.1,106.9c0.1,1.9,3.1,1.9,3,0c-1.7-38.6-15.6-80.9-43-109
				C41.1,145.9,39,148,40.4,149.4L40.4,149.4z"/>
		</g>
		<g>
			<path class="st6" d="M468.5,144.6c-36.6,27.7-46.8,74.3-52.6,117.3c-0.3,1.9,2.6,2.7,2.9,0.8c5.7-42.1,15.3-88.4,51.3-115.5
				C471.6,146,470.1,143.4,468.5,144.6L468.5,144.6z"/>
		</g>
		<g>
			<path class="st6" d="M253.6,131.2c-7.7,6.5-15,13.3-22.4,20.2c-3.3,3-6.5,6-9.8,9c-3.6,3.3-8,8.6-12.5,10.6
				c-5.7,2.5-12-4.5-15.9-8c-4.6-4.1-9-8.4-13.2-12.8c-10-10.7-19.1-22.4-25.8-35.4c-6.7-12.9-13.2-31-8.3-45.6
				c1.3-4,4.6-6.4,6.2-10.1c2-4.5,1.7-9.4,4-13.9c4.4-8.5,12.5-14.4,21.9-16.1c-0.8-0.8-1.6-1.6-2.5-2.5
				c-5.2,23.1,0.2,47.9,14.6,66.8c16,20.9,41.1,29.8,64.4,39.9c2.3,1,4.4-2.4,2-3.5c-21.8-9.5-45.7-17.7-61.4-36.5
				c-15-18-20.9-42.8-15.8-65.6c0.3-1.6-0.9-2.7-2.5-2.5c-8.1,1.5-15.3,5.8-20.5,12.2c-2.3,2.9-4.1,6-5.4,9.4c-0.8,2-1.3,4-1.6,6.1
				c-0.6,3.3-1.7,5.6-3.8,8.3c-10,12.7-4.4,34,1.2,47.4c6.4,15.2,16.3,28.8,27.2,41.1c4.9,5.4,10,10.6,15.5,15.5
				c3.8,3.4,8.2,8,12.9,10.1c3.9,1.7,7.4,0.1,10.7-2.3c4.9-3.7,9.5-8.1,14-12.3c9.8-8.9,19.4-18,29.5-26.6
				C258.4,132.4,255.5,129.5,253.6,131.2L253.6,131.2z"/>
		</g>
		<g>
			<path class="st6" d="M272.3,133.8c17.8,12.7,35,26.4,49.6,42.8c0.8,0.9,2,0.6,2.8,0c9.3-7.6,17.5-16.7,24.9-26.1
				c8-10.1,15.5-20.8,21.1-32.4c4.1-8.4,6.4-16.6,5.6-26c-1-11.1-3.8-22.1-7.7-32.5c-4.2-11-10.1-22.7-20.2-29.3
				c-1.2-0.8-3.2,0.2-3,1.7c1.8,16.1,3.4,34.3-3.6,49.5c-4.7,10.3-13.2,18.6-22.2,25.3c-8.5,6.4-17.8,11.7-27.5,16.2
				c-6,2.8-12.3,5.6-18.7,7c-2.5,0.5-1.5,4.4,1.1,3.9c7.1-1.5,14.1-4.8,20.6-7.9c10.2-4.8,20-10.6,28.9-17.6s17.2-15.5,21.7-26
				c6.8-15.7,5.6-34,3.7-50.5c-1,0.6-2,1.2-3,1.7c9,5.9,14.3,16.6,18.1,26.3c3.8,9.9,6.6,20.5,7.7,31.1
				c2.1,20.7-12.5,40.1-24.6,55.5c-7.6,10-15.9,19.5-25.6,27.5c0.9,0,1.9,0,2.8,0c-14.9-17-32.3-30.7-50.4-43.5
				C272.3,129,270.3,132.3,272.3,133.8L272.3,133.8z"/>
		</g>
		<g>
			<path class="st6" d="M256.6,134.8c5.6,0.3,11.4,0,16.9-1c2.5-0.5,1.5-4.4-1.1-3.9c-5.2,1-10.6,1.2-15.8,0.9
				C254,130.7,254.1,134.7,256.6,134.8L256.6,134.8z"/>
		</g>
		<g>
			<path class="st5" d="M257.8,152.8c-0.7,2.6-0.2,5.9,1.6,8c2.2,2.6,6,2.1,8.1-0.4c1.8-2.2,2.4-6,1-8.6c-1.7-3.1-6.7-3.8-8.9-0.9
				c-1.6,2,1.2,4.9,2.8,2.8c0.8-1.1,2.5-0.8,2.8,0.6c0.3,1.2,0,3-1,3.9c-2.2,2-2.8-3-2.4-4.2C262.4,151.4,258.6,150.4,257.8,152.8
				L257.8,152.8z"/>
		</g>
		<g>
			<path class="st5" d="M257.8,192.8c-0.7,2.6-0.2,5.9,1.6,8c2.2,2.6,6,2.1,8.1-0.4c1.8-2.2,2.4-6,1-8.6c-1.7-3.1-6.7-3.8-8.9-0.9
				c-1.6,2,1.2,4.9,2.8,2.8c0.8-1.1,2.5-0.8,2.8,0.6c0.3,1.2,0,3-1,3.9c-2.2,2-2.8-3-2.4-4.2C262.4,191.4,258.6,190.4,257.8,192.8
				L257.8,192.8z"/>
		</g>
		<g>
			<path class="st5" d="M257.8,232.8c-0.7,2.6-0.2,5.9,1.6,8c2.2,2.6,6,2.1,8.1-0.4c1.8-2.2,2.4-6,1-8.6c-1.7-3.1-6.7-3.8-8.9-0.9
				c-1.6,2,1.2,4.9,2.8,2.8c0.8-1.1,2.5-0.8,2.8,0.6c0.3,1.2,0,3-1,3.9c-2.2,2-2.8-3-2.4-4.2C262.4,231.4,258.6,230.4,257.8,232.8
				L257.8,232.8z"/>
		</g>
		<g>
			<path class="st5" d="M269,260.9c-7.2-0.1-15.1,0.7-22.1-0.6c-2.5-0.5-3.6,3.4-1.1,3.9c7.4,1.3,15.6,0.6,23.2,0.7
				C271.6,264.9,271.6,260.9,269,260.9L269,260.9z"/>
		</g>
		<g>
			<path class="st6" d="M153,66.6c1.9,8.7,4.5,17.1,7.9,25.4c1,2.3,4.8,1.3,3.9-1.1c-3.4-8.2-6.1-16.7-7.9-25.4
				C156.3,63,152.5,64.1,153,66.6L153,66.6z"/>
		</g>
		<g>
			<path class="st6" d="M147.9,76.5c2,4,3.5,8.1,4.5,12.5c0.6,2.5,4.5,1.4,3.9-1.1c-1.1-4.7-2.8-9.1-4.9-13.4
				C150.2,72.2,146.8,74.2,147.9,76.5L147.9,76.5z"/>
		</g>
		<g>
			<path class="st6" d="M356.6,86c-2.6,7.3-6.5,13.9-11.5,19.8c-1.7,1.9,1.2,4.8,2.8,2.8c5.5-6.4,9.7-13.6,12.6-21.6
				C361.3,84.6,357.5,83.6,356.6,86L356.6,86z"/>
		</g>
		<g>
			<path class="st6" d="M361.4,94.3c-2.1,5.2-5.3,9.7-9.4,13.5c-1.9,1.8,1,4.6,2.8,2.8c4.6-4.3,8-9.5,10.4-15.3
				C366.2,92.9,362.4,91.9,361.4,94.3L361.4,94.3z"/>
		</g>
	</g>
</g>
</svg>
