<?xml version="1.0" encoding="utf-8"?>
<!-- Generator: Adobe Illustrator 19.2.0, SVG Export Plug-In . SVG Version: 6.00 Build 0)  -->
<svg version="1.1" id="Layer_1" xmlns="http://www.w3.org/2000/svg" xmlns:xlink="http://www.w3.org/1999/xlink" x="0px" y="0px"
	 viewBox="0 0 620 400" style="enable-background:new 0 0 620 400;" xml:space="preserve">
<style type="text/css">
	.st0{fill:#7FB539;}
	.st1{fill:#5A9230;}
	.st2{fill:#3C6C1F;}
</style>
<g>
	<path class="st0" d="M248.7,336.9c0.3-15.6,3.8-31.3,6.2-46.6c4.2-26.8,8.1-55.2,2.5-86.5c-0.3-1.8,3.5-0.5,3.2-2.3
		c-4.2-8-5.6-36.9-10.1-42.6c-2.5-3.2-19.7-2.1-25.2-8.3c-9.2-10.3-3.7-62.9,0-75.7s-23.5,22.3-34,47c-2.3,5.4-8.7,21.7-8.7,21.7
		s-49.9,23.8-107,56.7c-27,15.6-51.6,73.4-7.5,102.4c37.4,24.6,108.8,47.5,179.3,57.3C246.7,355.1,248.6,341.5,248.7,336.9z"/>
	<path class="st0" d="M570.5,220.2c-15.5-15-78.5-56.5-101.1-66.9c-1.8-0.8-30.4-12.9-31.9-16.1c-5.4-11.4-17.3-70.5-41-70.5
		c0,0,2.2,38-14,64.4c-8.9,14.5-22,32-42.2,38.5c-7,2.3,2.5,30.4,4.4,37.3c1,3.5,29-5.6,26.5-2.9c6,26.5,8.5,53.6,11.1,80.5
		c1.3,14.1,2.7,28.3,4.6,42.4c1.3,9.4,2.3,26,2.5,35.3c65.8-5.3,128.6-29.1,174.9-60C594.9,281.8,595.9,244.7,570.5,220.2z"/>
</g>
<g>
	<path class="st1" d="M435.6,143.8c3.7,29.4-47.9,81.6-54.8,84.7s-9.5-24.5-9.5-24.5l16.2-7l11.8-6.8l10-8.9
		c0,0,12.9-12.8,20.4-24.1C434.8,149.6,435.3,141.2,435.6,143.8z"/>
	<path class="st1" d="M200.9,169.9c0,0,7.5,26,26.8,38.2c9.5,6,33.2,15.4,33.2,15.4l-4.6-22.1c0,0-17.6-1.4-25.7-4.7
		c-8.1-3.4-19-15.5-19-15.5L200.9,169.9z"/>
	<path class="st1" d="M427.2,128.4c-2.7-1.2-8,10.2-10.2,13.1c-2.2,2.9-12.7,14.5-17.9,16.6c-5.2,2.1-10.7,6.3-5,9.4
		c5.7,3.1,15.1-8.5,18.7-11.9s16-15.8,16.5-19.4C429.8,132.6,429.1,129.2,427.2,128.4z"/>
	<path class="st1" d="M228.6,151.9c0,0-1.7,13.1-1.7,18s1.7,26.8,1.7,26.8l-11.9-10.3c0,0-2.4-8.5-1.2-18.3
		c1.6-12.4,7-25.3,8.9-23.8S228.6,151.9,228.6,151.9z"/>
	<path class="st1" d="M418.3,297.3c-2-0.8,13.7-6.3,35-6.8c20.5-0.5,32.8,5.4,30.1,5.3c-2.7-0.1-20.9,0.3-20.9,0.3L418.3,297.3z"/>
	<polygon class="st1" points="203.8,95 207.6,115.9 216.1,136.5 227.7,149.5 224.1,133.5 224.6,108.8 224.8,88.8 225.2,74.7 
		220.8,75.3 210.8,84.3 	"/>
	<polygon class="st1" points="372.6,147.3 384.6,128.3 393,104.4 394.6,84.6 394.9,66.5 400.9,68 409.8,73.6 413.8,78.5 414.7,87.7 
		408,106.4 397.6,124.7 382.8,142.6 370,151.2 	"/>
	<path class="st1" d="M78.6,218.2c1.3-1.4,49.5-19.7,52.7-19.8c3.2-0.2,3.7-13.2,6.3-14.5c2.7-1.4,5.1-2,5.1-2l-7.9,19.6l-4.9,1.9
		l-42.5,15.3l-10.2,4.9L78.6,218.2z"/>
	<path class="st1" d="M77.2,236.5c12.5-6.3,49.7-16.9,49.7-16.9s1-9.8,2.9-12.6c0.8-1.2,4.9-3.7,4.9-3.7l-4.9,20.4l-4.4,0.8
		l-37.4,11l-11.2,4.7L77.2,236.5z"/>
	<path class="st1" d="M78.1,254.9c0,0,16.3-9.2,43.9-10.6c2-0.1,1.9-14.5,3.5-16.2s3.6-3.3,3.6-3.3l-1.7,9.3l-2,13.7L121,248
		l-23.7,5.3l-16.1,4.1l-4.3,2.2L78.1,254.9z"/>
	<path class="st1" d="M79.1,270c11-6.4,39.8-9.8,39.8-9.8s1.3-9.4,3.1-10c1.8-0.7,3.5-2.4,3.5-2.4l-1.5,15.8l-4.9,0.4l-32.4,6.1
		l-8.1,2.4L79.1,270z"/>
	<path class="st1" d="M81.3,285.7c12.5-7.2,38.3-11.1,38.3-11.1s0.4-5.5,2.4-8.3s2.5-0.2,2.5-0.2l-1,11.9h-3.8l-22.5,6l-16.4,5.5
		C80.8,289.5,80.3,286.3,81.3,285.7z"/>
	<path class="st1" d="M84,299.9c9-6.4,36.3-8.9,36.3-8.9s-0.4-6.7-0.2-8c0.2-1.3,2.4-4.5,2.4-4.5l1.4,16.2c0,0-4,0-4.5,0.2
		s-28.1,6.5-28.1,6.5l-7.4,2.5L84,299.9L84,299.9z"/>
	<path class="st1" d="M87.5,313.6c6.2-4.8,32.2-9.7,32.2-9.7s0.3-3.9,1.5-6.1s2.5-2.3,2.5-2.3l-0.2,12.1l-8.4,2.2l-23,6.1
		L87.5,313.6z"/>
	<path class="st1" d="M109.9,323.8l-4.6-2l15.8-4.8c0,0-0.7-4.2,0.9-6.8c1.6-2.6,2.5-2.6,2.5-2.6l1,10.3l-6.2,3.1L109.9,323.8z"/>
	<path class="st1" d="M122.2,328.9c0,0-0.2-4.7,1.7-7.1c1.9-2.4,2,0.2,2,0.2v7.9L122.2,328.9z"/>
	<path class="st1" d="M79.6,202.7c0,0,32.8-16.8,61.3-26.3c1.4-0.5,10.1-15.3,14.5-17.2c4.3-2,4.4,0,4.4,0l-14.7,21.3l-7.6,3.3
		l-20.3,5.7L93,200.4l-13.9,7.7L79.6,202.7z"/>
	<path class="st1" d="M549.9,218.2c-1.3-1.4-49.5-19.7-52.7-19.8c-3.2-0.2-3.7-13.2-6.3-14.5c-2.7-1.4-5.1-2-5.1-2l7.9,19.6l4.9,1.9
		l42.5,15.3l10.2,4.9L549.9,218.2z"/>
	<path class="st1" d="M551.3,236.5c-12.5-6.3-49.7-16.9-49.7-16.9s-1-9.8-2.9-12.6c-0.8-1.2-4.9-3.7-4.9-3.7l4.9,20.4l4.4,0.8
		l37.4,11l11.2,4.7L551.3,236.5z"/>
	<path class="st1" d="M550.4,254.9c0,0-16.3-9.2-43.9-10.6c-2-0.1-1.9-14.5-3.5-16.2s-3.6-3.3-3.6-3.3l1.7,9.3l2,13.7l4.4,0.2
		l23.7,5.3l16.1,4.1l4.3,2.2L550.4,254.9z"/>
	<path class="st1" d="M549.4,270c-11-6.4-39.8-9.8-39.8-9.8s-1.3-9.4-3.1-10c-1.8-0.7-3.5-2.4-3.5-2.4l1.5,15.8l4.9,0.4l32.4,6.1
		l8.1,2.4L549.4,270z"/>
	<path class="st1" d="M547.2,285.7c-12.5-7.2-38.3-11.1-38.3-11.1s-0.4-5.5-2.4-8.3s-2.5-0.2-2.5-0.2l1,11.9h3.8l22.5,6l16.4,5.5
		C547.7,289.5,548.2,286.3,547.2,285.7z"/>
	<path class="st1" d="M545,299.9c-9-6.4-36.5-8.9-36.5-8.9s0.2-6.7,0.1-8s-2.5-4.5-2.5-4.5l-1.5,16.2c0,0,4,0,4.5,0.2
		s28.3,6.5,28.3,6.5l7.6,2.5V299.9z"/>
	<path class="st1" d="M544,315.6c-6.2-4.8-35.2-11.7-35.2-11.7s-0.3-3.9-1.5-6.1s-2.5-2.3-2.5-2.3l0.2,12.1l8.4,2.2l26,8.1
		L544,315.6z"/>
	<path class="st1" d="M522.6,325.8l4.6-2l-19.8-6.8c0,0,0.7-4.2-0.9-6.8c-1.6-2.6-2.5-2.6-2.5-2.6l-1,10.3l6.2,3.1L522.6,325.8z"/>
	<path class="st1" d="M505.4,333.9c0,0,1.3-9.7-0.7-12.1c-1.9-2.4-2,0.2-2,0.2l-1,12.9L505.4,333.9z"/>
	<path class="st1" d="M548.9,202.7c0,0-32.8-16.8-61.3-26.3c-1.4-0.5-10.1-15.3-14.5-17.2c-4.3-2-4.4,0-4.4,0l14.7,21.3l7.6,3.3
		l20.3,5.7l24.2,10.9l13.9,7.7L548.9,202.7z"/>
</g>
<g>
	<g>
		<path class="st2" d="M338.7,166.4c-4.7,1.9-1.6,12.9-1.1,16.4c1.3,8.2,2.6,16.7,5.3,24.6c0.3,0.9,1,1.4,1.9,1.5
			c36.1,2.3,70.9-22.8,87.9-53.5c2.6-4.8,5.1-10,5.7-15.5c0.3-2.9-0.4-5.6-1-8.5c-2.9-12.7-6.9-25.3-12.4-37.2
			c-5.7-12.5-14.9-28.5-30.2-29.8c-1-0.1-2.1,1-2,2c2.7,24.5-2,49.3-15.8,70C368.4,149.6,354.8,163.3,338.7,166.4
			c-2.5,0.5-1.5,4.3,1.1,3.9c16.8-3.2,30.8-17.2,40.1-30.8c14.6-21.3,19.8-47.5,17-73c-0.7,0.7-1.3,1.3-2,2
			c12.6,1.1,20.5,15,25.4,25.1c5.6,11.5,9.6,23.9,12.7,36.3c0.6,2.3,1.6,6.2,1.7,7.9c0.2,4.4-2,9.1-3.9,12.9
			c-6.6,13.3-17,25-28.6,34.2c-16.2,13.1-36.2,21.3-57.3,20c0.6,0.5,1.3,1,1.9,1.5c-2-6-3.1-12.5-4.3-18.7
			c-0.7-3.9-1.4-7.8-1.8-11.7c-0.1-1.3-0.3-2.6-0.3-3.9c0-0.6,0.1-1.2,0-1.8c-0.1-1,0.8-0.7-0.7-0.1
			C342.1,169.3,341.1,165.4,338.7,166.4z"/>
	</g>
	<g>
		<path class="st2" d="M223.2,74.2c0.6,18-1.6,36.1-0.9,54.2c0.3,7.4,0,17,3.7,23.8c1.8,3.4,5.2,4,8.8,4.6c3.9,0.6,12.1,0,14.3,3.8
			c1.1,1.9,1.4,4.9,1.9,7c0.8,3.5,1.5,6.9,2.3,10.4c1.7,8,3.3,16,5.4,23.9c0.6-0.8,1.3-1.7,1.9-2.5c-9.7,0-21-0.9-30-4.9
			c-4.9-2.2-9.1-6.2-12.9-10c-9.6-9.5-18-20.4-25.7-31.5c-2.4-3.5-4.3-7.8-7-11c-0.9-1.1-0.2-1.9-0.7-0.2c0.3-0.8,0.8-1.7,1.1-2.5
			c4.5-10.3,9.1-20.6,14.3-30.5c3.6-6.7,7.4-13.3,11.9-19.5c3.6-5,8.2-10.8,14.1-13.2c2.4-0.9,1.3-4.8-1.1-3.9
			c-11.7,4.7-19.2,18.2-25.1,28.6c-6.4,11.3-11.8,23.2-17,35.1c-0.8,1.8-2.3,4-2,6c0.6,3.2,3.8,6.9,5.5,9.5
			c7.8,11.7,16.4,23.1,26.1,33.3c4.6,4.8,9.7,9.9,15.7,12.9c9.5,4.8,22.1,5.8,32.6,5.8c1.3,0,2.3-1.3,1.9-2.5
			c-3.4-12.6-5.2-25.6-8.6-38.2c-0.9-3.3-1.7-6-5.1-7.4c-4.8-2.1-10.5-1.6-15.6-2.8c-4-1-4.5-3.5-5.3-7.2c-0.9-4.5-1.3-9.2-1.5-13.8
			c-0.6-10.8-0.4-21.6,0-32.4c0.2-8.2,1.1-16.6,0.8-24.9C227.1,71.7,223.1,71.7,223.2,74.2L223.2,74.2z"/>
	</g>
	<g>
		<path class="st2" d="M254.5,201.9c8.1,24.8,4.3,52.9,0.7,78.1c-3.7,26.5-9.3,52.9-10.7,79.6c-0.1,2.6,3.9,2.6,4,0
			c1.5-27.8,7.4-55.1,11.1-82.6c3.3-24.7,6.6-51.9-1.3-76.1C257.5,198.4,253.7,199.5,254.5,201.9L254.5,201.9z"/>
	</g>
	<g>
		<path class="st2" d="M370.6,203.9c9,52.3,14,105.4,16.5,158.4c0.1,2.6,4.1,2.6,4,0c-2.5-53.4-7.6-106.8-16.6-159.4
			C374,200.3,370.2,201.4,370.6,203.9L370.6,203.9z"/>
	</g>
	<g>
		<path class="st2" d="M352.9,181.9c-1.9,2.9-1.9,7.2,1.1,9.3c2.6,1.9,6.6,1.4,8.2-1.6c1.5-2.9,0.9-7.2-1.7-9.4
			c-2.4-2-6.5-1.6-7.9,1.4c-0.8,1.7,1.7,3.3,2.6,1.5c0.7-1.5,2.6-1.5,3.7-0.4c1.2,1.3,1.5,3.7,0.7,5.3c-0.7,1.5-2.7,1.6-3.9,0.7
			c-1.7-1.3-1.2-3.8-0.2-5.3C356.6,181.8,354,180.3,352.9,181.9L352.9,181.9z"/>
	</g>
	<g>
		<path class="st2" d="M367.6,176.8c-0.5,3.2-1.5,7.7,1.4,10.1c3,2.5,7.2,0.1,8.5-3.1c1.3-3,0.4-7.1-2.8-8.5
			c-2.9-1.2-6.4,0.1-7.5,3.1c-0.7,1.8,2.2,2.6,2.9,0.8c0.5-1.4,2.6-1.7,3.8-1c1.6,1,1.5,3.4,0.6,4.9c-1,1.8-3.6,2.6-4.3,0.2
			c-0.5-1.8,0-3.9,0.3-5.7C370.8,175.7,367.9,174.9,367.6,176.8L367.6,176.8z"/>
	</g>
	<g>
		<path class="st2" d="M239.9,168.7c-3.5,1.5-3.8,6.1-3.2,9.3c0.5,2.4,2.1,7.2,5.5,6.2c5.7-1.7,4-17.2-1.9-15.7
			c-1.9,0.5-1.1,3.4,0.8,2.9c0.5-0.1,1.4,4.1,1.5,4.8c0.1,0.9,0.1,5.2-1.1,5.2c-0.9,0-1.7-3.7-1.9-4.7c-0.2-1.9-0.2-4.5,1.9-5.4
			C243.2,170.5,241.6,167.9,239.9,168.7z"/>
	</g>
	<g>
		<path class="st2" d="M413.4,297.3c0,4.8,0.7,8.7,2.4,13.2c0.4,1.1,1.3,1.6,2.5,1.4c11.1-1.5,22.3-3.1,33.5-3.7
			c11.1-0.5,22.2-0.2,33.2,0c1.1,0,2-0.9,2-2c0.1-3.7,0.1-7.4,0.2-11.1c0-1.1-0.9-1.9-2-2c-13.3-1.1-26.9,0.1-40.1,0.7
			c-9.9,0.4-19.7,1-29.6,1.6c-2.6,0.2-2.6,4.2,0,4c9.9-0.6,19.7-1.1,29.6-1.6c13.3-0.6,26.9-1.7,40.1-0.7c-0.7-0.7-1.3-1.3-2-2
			c-0.1,3.7-0.1,7.4-0.2,11.1c0.7-0.7,1.3-1.3,2-2c-11.4-0.2-22.9-0.6-34.3,0.1c-11.2,0.6-22.4,2.3-33.5,3.8
			c0.8,0.5,1.6,0.9,2.5,1.4c-1.6-4.1-2.2-7.8-2.3-12.1C417.4,294.7,413.4,294.7,413.4,297.3z"/>
	</g>
	<g>
		<path class="st2" d="M171.6,146.9c-20.6,12.6-31.8,36.3-38.6,58.5c-8.2,26.8-11.3,55.3-11.2,83.2c0,14.2,1,28.3,3.4,42.3
			c0.4,2.5,4.3,1.5,3.9-1.1c-4.2-24.9-4.1-50.8-1.5-75.8c2.7-26,8.4-53,21.2-76.1c6.1-11,14.1-21,24.9-27.6
			C175.8,149.1,173.8,145.6,171.6,146.9L171.6,146.9z"/>
	</g>
	<g>
		<path class="st2" d="M69.3,208.4c5-6,12-10.4,18.7-14.4c9.6-5.7,19.5-10.8,29.5-15.7c21.7-10.7,43.9-20.7,64.9-32.7
			c2.2-1.3,0.2-4.7-2-3.5c-21.4,12.3-44.1,22.4-66.2,33.4c-9.9,4.9-19.8,9.9-29.2,15.7c-6.6,4-13.5,8.4-18.5,14.4
			C64.9,207.6,67.7,210.4,69.3,208.4L69.3,208.4z"/>
	</g>
	<g>
		<path class="st2" d="M79.2,196.3c-5.3,16.7-4.8,36.1-4.4,53.4c0.5,20.5,1.9,42.5,9.2,61.9c0.9,2.4,4.8,1.4,3.9-1.1
			c-7.1-19.1-8.6-40.6-9-60.8c-0.4-16.9-1-36,4.3-52.3C83.8,194.9,80,193.8,79.2,196.3L79.2,196.3z"/>
	</g>
	<g>
		<path class="st2" d="M226.7,153.5c-1.6,9.9-2.3,19.9-1.3,29.9c0.2,2.5,4.3,2.6,4,0c-1-9.7-0.5-19.3,1.1-28.9
			C231,152,227.1,151,226.7,153.5L226.7,153.5z"/>
	</g>
	<g>
		<path class="st2" d="M417.6,136.6c-3.9,7.4-10.5,12.6-17,17.7c-2,1.6,0.8,4.4,2.8,2.8c6.8-5.3,13.5-10.8,17.6-18.5
			C422.3,136.3,418.8,134.3,417.6,136.6L417.6,136.6z"/>
	</g>
	<g>
		<path class="st2" d="M420.1,143.3c-2.5,4.5-5.3,8.2-9.4,11.5c-2,1.6,0.8,4.4,2.8,2.8c4.3-3.5,7.3-7.5,10-12.3
			C424.8,143,421.4,141,420.1,143.3L420.1,143.3z"/>
	</g>
	<g>
		<path class="st2" d="M79.9,209.4c19.8-11.7,41-20.7,63.2-26.8c1.9-0.5,1.1-3.4-0.8-2.9c-22.4,6.2-43.9,15.3-63.9,27.1
			C76.7,207.8,78.2,210.4,79.9,209.4L79.9,209.4z"/>
	</g>
	<g>
		<path class="st2" d="M77.7,225.5c8.8-5.5,18.6-9.3,28.3-12.9c9.8-3.6,19.7-6.9,29.9-9.3c1.9-0.4,1.1-3.3-0.8-2.9
			c-10.6,2.4-21,5.9-31.2,9.8c-9.4,3.5-19.1,7.3-27.7,12.7C74.6,223.9,76.1,226.5,77.7,225.5L77.7,225.5z"/>
	</g>
	<g>
		<path class="st2" d="M76.8,242.1c16.6-8.1,35.2-13.8,53.4-16.9c1.9-0.3,1.1-3.2-0.8-2.9c-18.5,3.2-37.3,8.9-54.1,17.2
			C73.6,240.3,75.1,242.9,76.8,242.1L76.8,242.1z"/>
	</g>
	<g>
		<path class="st2" d="M78.8,260c7.1-3.4,14.9-5.4,22.5-7.2c7.9-1.8,16-3.5,24.1-3.6c1.9,0,1.9-3,0-3c-8.4,0.1-16.8,1.8-24.9,3.7
			c-7.9,1.8-15.9,4-23.3,7.5C75.6,258.3,77.1,260.9,78.8,260L78.8,260z"/>
	</g>
	<g>
		<path class="st2" d="M79,274c14.1-5.3,30.1-7.1,44.9-9c1.9-0.2,1.9-3.2,0-3c-15.2,1.8-31.4,3.7-45.7,9.1
			C76.4,271.8,77.2,274.7,79,274L79,274z"/>
	</g>
	<g>
		<path class="st2" d="M81.6,290.8c12.8-5.5,27-8.7,40.8-10.9c1.9-0.3,1.1-3.2-0.8-2.9c-14,2.2-28.4,5.6-41.5,11.2
			C78.3,289,79.8,291.6,81.6,290.8L81.6,290.8z"/>
	</g>
	<g>
		<path class="st2" d="M83.6,304c6.8-1.8,13.8-3.2,20.7-4.7c5.8-1.2,12.1-3.2,18.1-3.2c1.9,0,1.9-3,0-3c-5.8,0-12,1.9-17.7,3.1
			c-7.3,1.5-14.6,3-21.9,4.9C81,301.6,81.8,304.5,83.6,304L83.6,304z"/>
	</g>
	<g>
		<path class="st2" d="M91.4,317.7c10.4-4,21.8-5.7,32.6-8.7c1.9-0.5,1.1-3.4-0.8-2.9c-10.7,3-22.1,4.7-32.6,8.7
			C88.8,315.5,89.6,318.4,91.4,317.7L91.4,317.7z"/>
	</g>
	<g>
		<path class="st2" d="M108.7,326.4c5.2-1.9,10.4-3.8,15.6-5.8c1.8-0.7,1-3.6-0.8-2.9c-5.2,1.9-10.4,3.8-15.6,5.8
			C106.1,324.2,106.9,327.1,108.7,326.4L108.7,326.4z"/>
	</g>
	<g>
		<path class="st2" d="M455.8,150.4c20.6,12.5,30.9,37.3,37.1,59.5c7.4,26.5,10.2,54.5,9.9,81.9c-0.1,13.8-1,27.6-3.4,41.1
			c-0.4,2.5,3.4,3.6,3.9,1.1c4.5-26.2,4.5-53.4,1.8-79.8c-2.8-27.2-8.4-55.6-22-79.7c-6.2-11-14.4-21-25.2-27.6
			C455.6,145.6,453.6,149.1,455.8,150.4L455.8,150.4z"/>
	</g>
	<g>
		<path class="st2" d="M578.4,226c-11.7-14.6-28.8-25.4-44.2-35.6c-20.7-13.6-42.1-26.1-63.8-38c-10.4-5.6-20.8-11.1-31.4-16.3
			c-2.3-1.1-4.3,2.3-2,3.5c19.7,9.7,39.1,20.3,58.1,31.4c20.3,11.8,40.4,24.2,59.2,38.4c7.7,5.8,15.4,12,21.4,19.5
			C577.2,230.9,580,228,578.4,226L578.4,226z"/>
	</g>
	<g>
		<path class="st2" d="M546.8,204.7c5.1,15.9,4.5,34.3,3.9,50.7c-0.6,19.8-2.4,40.5-9.4,59.2c-0.9,2.4,3,3.5,3.9,1.1
			c7.1-19,8.9-40.2,9.5-60.3c0.5-16.8,1.1-35.6-4.1-51.8C549.9,201.2,546,202.2,546.8,204.7L546.8,204.7z"/>
	</g>
	<g>
		<path class="st2" d="M551.1,206.8c-20-11.8-41.5-20.9-63.9-27.1c-1.9-0.5-2.7,2.4-0.8,2.9c22.2,6.1,43.4,15.1,63.2,26.8
			C551.2,210.4,552.7,207.8,551.1,206.8L551.1,206.8z"/>
	</g>
	<g>
		<path class="st2" d="M553.2,222.9c-8.6-5.4-18.2-9.1-27.7-12.7c-10.2-3.8-20.6-7.3-31.2-9.8c-1.9-0.4-2.7,2.5-0.8,2.9
			c10.2,2.3,20.1,5.7,29.9,9.3c9.7,3.6,19.5,7.4,28.3,12.9C553.3,226.5,554.8,223.9,553.2,222.9L553.2,222.9z"/>
	</g>
	<g>
		<path class="st2" d="M554.1,239.5c-16.9-8.3-35.6-14-54.1-17.2c-1.9-0.3-2.7,2.6-0.8,2.9c18.2,3.1,36.8,8.8,53.4,16.9
			C554.3,242.9,555.8,240.3,554.1,239.5L554.1,239.5z"/>
	</g>
	<g>
		<path class="st2" d="M552.1,257.4c-7.3-3.5-15.4-5.6-23.3-7.5c-8.1-1.9-16.5-3.6-24.9-3.7c-1.9,0-1.9,3,0,3
			c8.1,0.1,16.2,1.7,24.1,3.6c7.6,1.8,15.5,3.8,22.5,7.2C552.3,260.9,553.8,258.3,552.1,257.4L552.1,257.4z"/>
	</g>
	<g>
		<path class="st2" d="M551.2,271.1c-14.4-5.4-30.6-7.2-45.7-9.1c-1.9-0.2-1.9,2.8,0,3c14.8,1.8,30.8,3.7,44.9,9
			C552.2,274.7,553,271.8,551.2,271.1L551.2,271.1z"/>
	</g>
	<g>
		<path class="st2" d="M549.3,288.2c-13.1-5.6-27.5-9-41.5-11.2c-1.9-0.3-2.7,2.6-0.8,2.9c13.7,2.2,28,5.4,40.8,10.9
			C549.6,291.6,551.1,289,549.3,288.2L549.3,288.2z"/>
	</g>
	<g>
		<path class="st2" d="M546.5,301.1c-7.2-1.9-14.6-3.4-21.9-4.9c-5.7-1.2-11.9-3-17.7-3.1c-1.9,0-1.9,3,0,3c5.9,0,12.3,2,18.1,3.2
			c6.9,1.4,13.9,2.9,20.7,4.7C547.6,304.5,548.4,301.6,546.5,301.1L546.5,301.1z"/>
	</g>
	<g>
		<path class="st2" d="M538.8,314.8c-10.4-4-21.8-5.7-32.6-8.7c-1.9-0.5-2.7,2.4-0.8,2.9c10.7,3,22.1,4.7,32.6,8.7
			C539.8,318.4,540.6,315.5,538.8,314.8L538.8,314.8z"/>
	</g>
	<g>
		<path class="st2" d="M521.5,323.5c-5.2-1.9-10.4-3.8-15.6-5.8c-1.8-0.7-2.6,2.2-0.8,2.9c5.2,1.9,10.4,3.8,15.6,5.8
			C522.5,327.1,523.3,324.2,521.5,323.5L521.5,323.5z"/>
	</g>
	<g>
		<path class="st2" d="M412.2,80.3c1.5,3.6-0.2,8.8-1.2,12.3c-2.1,7.7-5.5,15-9.4,21.9c-10.7,18.8-26.4,34.6-45.8,44.2
			c-2.3,1.1-0.3,4.6,2,3.5c20.4-10.1,36.8-26.8,47.8-46.6c4-7.1,7.4-14.7,9.5-22.6c1.1-4,2.7-9.6,1-13.7
			C415.1,76.9,411.3,77.9,412.2,80.3L412.2,80.3z"/>
	</g>
	<g>
		<path class="st2" d="M203.6,94.2c-1,22.3,7.6,43.1,22.9,59.2c1.8,1.9,4.6-1,2.8-2.8c-14.7-15.4-22.7-35-21.8-56.3
			C207.8,91.7,203.8,91.7,203.6,94.2L203.6,94.2z"/>
	</g>
</g>
</svg>
