<?xml version="1.0" encoding="utf-8"?>
<!-- Generator: Adobe Illustrator 19.2.0, SVG Export Plug-In . SVG Version: 6.00 Build 0)  -->
<svg version="1.1" id="Layer_1" xmlns="http://www.w3.org/2000/svg" xmlns:xlink="http://www.w3.org/1999/xlink" x="0px" y="0px"
	 viewBox="0 0 323 353" style="enable-background:new 0 0 323 353;" xml:space="preserve">
<style type="text/css">
	.st0{fill:#EFEFEF;}
	.st1{fill:#BBBBBC;}
	.st2{fill:#7A7B7B;}
</style>
<g>
	<path class="st0" d="M180.5,334.6c-5-1.8-9.4-5.3-12.3-9.7l-3.1-4.7l-0.5,5.6c-0.3,2.8-1.4,5-3.6,6.8c1.7-6.8-4.7-11-9.1-13.9
		c-1-0.7-1.9-1.3-2.7-1.9c-1.3-1-2.4-2.2-3.4-3.7l-3.1-4.9l-0.5,5.8c-0.4,4.6-2,8.6-4.4,11.4c-0.6-7.4-4.9-12.9-9.1-18.3
		c-1.4-1.8-2.8-3.6-4-5.4l-2.2-3.3l-1.3,3.8c-1.3,3.7-4.6,6.9-7.8,8.8c0.3-1.2,0.2-2.8,0.1-4.6c0-0.3,0-0.6-0.1-0.8
		c-0.1-2.5-0.2-5.2-0.6-8.5l-0.1-1.3c-0.3-3.2-0.7-6.8-1.4-10.1l-3.9,0.1c-0.6,3.4-1.7,6.7-3.1,9.7c-0.1-4.8-2.5-8.9-4.9-12.8
		l-0.7-1.2l-2.2-3.7l-1.4,4.1c-0.5,1.4-1.1,2.6-2,3.9c0.2-3.9-2.4-7.2-4.8-10.3c-1.7-2.2-3.4-4.4-3.9-6.4c-0.4-1.9-0.6-3.9-0.7-6.6
		v-3.7l-3.1,2.1c-1.6,1.1-4.1,1.7-6.7,1.7c-1.1,0-2.2-0.1-3.2-0.3c3.3-3.1,2.1-8.8,1.3-12.3l-0.2-0.9c-0.5-2.4-1.1-4.8-1.6-7.2
		c-0.6-2.6-1.3-5.2-1.8-7.9c-0.8-3.9-1.3-7.4-1.5-10.6l-3.8-0.6c-1.4,3.2-2.1,7-2.6,10.7c-4.5-6.5-8.8-14.2-8.5-22.9v-0.8l-0.5-0.6
		c-7.3-8.1-8.8-17.3-4.6-28.2c0.6-1.5,1.2-3.1,2-4.8l2.6-5.9l-5.5,3.3c-1.4,0.9-2.5,1.6-3.4,2.5c-1.6,1.5-2.8,3.3-3.9,5
		c-0.6-4.4-0.5-9.3,0.4-13.8l0.3-1.6l-1.4-0.5c-2.3-3.9-4-7.5-3-11.5l0.3-1.3l-1-0.7c-3.2-8.8-3.3-19.6-0.2-28.1l0.7-1.9l-1.4-0.5
		c0-0.8,0.1-1.7,0.1-2.5c0.1-4.5,0.3-8.8,1.7-12.7l0.4-1.1l-0.6-0.7c0.1-2.5-0.3-4.9-0.7-7.3c-0.5-3-1-5.9-0.4-8.7
		c0.4-2,1.1-3.9,2.4-5.9l0.9-1.4L36.1,80c-0.7-4.1-1-8.4,0.6-12c1.5-3.4,4.2-5.9,7.1-8.6c1.8-1.7,3.7-3.4,5.3-5.5
		c3,4.9,0.7,10.2-0.9,12.9l-1,1.6l1.6,1.1c2,1.4,3.3,4.9,3.7,7.8l0.1,0.5l0.3,0.4c1.1,1.6,1.8,4.4,2,7.9l0.1,2.1l1.8-0.1
		c1.6,4.5,2.4,9.3,2.5,14.4l0.1,6.4l3.6-5.4c0.3-0.5,0.6-1,1-1.5l0,0c3.3,4.6,5.2,9.6,5.6,14.5l0.4,4.6l3.6-4l0.2-0.1
		c1.5,2.2,2.5,4.3,2.9,6.3l0.9,4.2l2.7-3.4c0.8-1,1.6-2,2.5-2.9l0.4,0.2l0.2-0.1c0.9,5.2,1.4,10.5,1.5,15.7v6l3.6-4.8
		c0.6-0.8,1.2-1.5,1.7-2.1c2.7,2.8,5,6.2,7,10.6l2.4,5.3l1.4-5.7c1.3-5.4,2-10.3,2.1-14.9c0-0.7,0-1.5,0-2.2c0-4,0.1-8.2,2-11.5
		c1.6-2.9,4.3-4,7.7-5.5l0.2-0.1c2.1-0.9,4.3-1.9,7.1-3.2l0.2-0.1l0.2-0.1c0.3-0.3,0.6-0.5,0.9-0.7l0.4,0.1l4.8-2.4
		c1.3-0.6,2.6-1.3,3.9-1.9c7.6-3.8,15.4-7.7,23.5-9.9c1.6-0.4,4-1,6.3-1c1.4,0,2.6,0.2,3.5,0.7h0.1h0.1c0.5,0.3,1,0.7,1.3,1.2
		l1.2,1.7l1.7-1.3c1.1-0.9,3.5-1.9,9-1.9c1.7,0,3.3,0.1,4.5,0.2c10.3,0.8,19.6,5.4,26.2,13.1c1.3,1.5,2.5,3.1,3.5,4.9l1.4,2.3
		l1.6-1.8c6.6,1.3,12,5.5,15.2,11.9c2.6,5.1,3.4,9.2,2.3,11.2l-2,0.9l1,1.4c0.6,0.8,1.1,1.6,1.7,2.5l1.9,2.9l1.6-3.1
		c0.5-1,1.1-2.1,1.9-3.5l0.3-0.6c0.9-1.6,1.9-3.2,3.1-4.3c0.1,0.1,2.9,2.7,2.9,2.7l0.8-3.3c0.4-1.5,1-2.9,1.9-4.5
		c1.1,1,2.1,2.1,3.3,3.4l2.7,3.1l0.7-4.1c0.3-1.7,0.8-3.4,1.6-5.1l0.2-0.4c0.4-0.8,0.8-1.9,1.3-2.5c0.3,0.2,0.8,0.6,1.4,1.4l2.6,3.3
		l0.9-4.1c0.3-1.5,0.8-3.2,1.4-4.9l2.4,6.1l1.4-6.5c0.4-1.7,0.9-3.5,1.7-5.6l0.3-0.9c0.6-1.8,1.4-4,2.6-5.1l1.2-0.5v-4.3v-0.6
		c0-1,0-1.8,0.3-2.5l0.8-0.5v-1.1c0-7.5,1-13.1,3.1-17.7l0.2-0.5L277,76c-0.9-7.9-0.8-15.3,0.4-22.3c4.8,7,6.4,15.7,7.4,23.4
		c0.2,1.4,0.3,3.1,0.5,4.9c0.5,6.5,1.1,14.5,5.5,19.1c-0.3,0.1-0.7,0.1-1.1,0.1c-1.9,0-3.7-1.1-4.9-2.1l-5.1-4.1l2,6.3
		c1.7,5.3,3.7,11,6.4,17.8l-0.2,0.4l0.3,0.8c2.4,7.5,3.8,18.4-3,28.4l-0.4,0.5v0.6c-0.3,6.3,0,13.3,5.7,18c-1.2,0.4-2.5,0.7-3.6,0.7
		c-1.2,0-2.3-0.3-3.3-0.8l-3.2-1.8l0.2,3.7c0.4,5.8-0.5,11.5-2.4,16.3l-0.9,0.6l0.1,1.2c0.2,2.8,0.1,5.7-0.4,8.5
		c-1-1-1.9-1.8-2.9-2.5l-5.4-3.9l2.3,6.2c0.5,1.4,0.9,2.7,1.1,3.9c0.9,6-1.3,11.5-5.8,14.7l-0.8,0.4l-0.2,0.8l-0.1,0.5
		c-0.3,1-0.6,2.1-1,3.1c-1.3,4-2.7,8.1-1.5,12.7c-1.2-1.2-2.2-2.8-2.9-4.6l-2.2-5.8l-1.6,6c-0.5,1.8-1.1,3.7-1.6,5.4l-0.4,1.2
		c-0.2,0.5-0.4,1.1-0.6,1.7c-1,3-2.4,6.8-1.4,9.9c-0.6-0.5-1.1-1-1.6-1.5l-4.8-5.2l1.3,7c0.8,4,0.1,7.8-2,11.9
		c-0.6,1.3-1.4,2.5-2.2,3.8c-2.5,4-5.4,8.5-4.2,14.1c-2.2-0.2-5-1-6.7-2.4l-2.3-1.9l-0.9,2.8c-0.9,2.8-1.5,5.6-1.7,8.7
		c-0.3-0.1-0.6-0.4-0.9-0.9l-2.2-3.3l-1.3,3.8c-0.2,0.6-0.4,1-0.6,1.5c-1.1,2.4-2.5,4.5-3.9,6.8c-1.8,2.9-3.8,5.8-5,9.3l-0.1,0.1
		v0.1c-1,3.1-4,6.1-7,6.9l-1.1,0.3l-0.3,1.1c-0.3,1.2-0.8,2.6-1.6,4.3c-0.6,1.3-1.3,2.7-2,4c-0.5,1.1-1.1,2.2-1.6,3.3
		c-0.1,0.3-0.3,0.6-0.5,1c-0.8,1.5-1.8,3.5-2,5.3c-2.3-2.5-3.8-5.4-4.3-8.7l-0.8-4.5l-2.8,3.6c-3.3,4.2-6.5,7.1-10,8.7l-1.4,0.7
		l0.3,1.5C178.3,330.6,179.2,332.7,180.5,334.6z M174.8,144.3c2.1,3,3.7,6.5,5.1,10.6l1.6,4.6l2.1-4.4c1.7-3.4,3.6-5.4,6.2-6.2
		l0.5,0.2l0.4-0.1c0.7,1.1,1.4,2.3,2,3.6l1.4,3l2-2.7c1.6-2.2,3.5-3.7,5.5-4.4l0.5,0.6l0.5-0.2l0.8,2l2-1.2c1.3-0.8,2.2-2,2.9-3.1
		l0.3-0.4l1.3-0.8l-0.4-1.4c-1.7-6.1-5-10-9.8-11.4c-2.3-0.7-4.7-0.7-7-0.8c-1.5,0-2.9-0.1-4.2-0.3c-3.6-0.5-6.7-1.4-9.5-2.6
		c-5.4-2.3-9.7-6.3-11.7-11l-2.3-5.4l-1.4,5.7c-0.4,1.5-0.8,2.8-1.3,4c-1.5,3.6-5.6,6.6-12.1,9.2c-4.9,1.9-10.1,2.9-15.3,3.9
		c-1.1,0.2-2.2,0.4-3.3,0.6c-0.3,0.1-2.8,0.5-2.8,0.5l0.3,2c0.2,1.3,0.7,2.5,1.4,3.5l1.5,2.1l1.7-2c0.1-0.1,0.2-0.3,0.4-0.4
		c1.9,2.1,3.3,4.4,4.3,7l1,2.5l2.1-1.7c2.5-2,5.1-3.5,7.9-4.7c0.1,0.3,0.2,0.6,0.3,0.9l0.7,2.7l3.6-2.5h0.2l0,0
		c0.3,0.4,0.6,0.9,0.8,1.4l1.2,2.5l2-2c1.2-1.2,2.6-2.4,4-3.5h0.5c1.3,0.8,2.7,1.7,3.7,2.8c0.6,0.7,1.1,1.5,1.7,2.6l1.9,3.7l1.7-3.8
		c0.9-2.1,1.9-3.9,2.9-5.5h0.2L174.8,144.3z"/>
	<g>
		<path class="st1" d="M195.5,326c-2.2-3-3.3-6.5-3.2-10.5v-0.3l0.4-0.6c3.7-5.7,6.5-12.2,8.2-19.4h1.9c0.2,0.7,0.3,1.4,0.5,2.2
			c0.1,0.5,0.2,0.9,0.4,1.4c0.9,3.5,2,7.5,0.9,11.2c-0.7,2.3-1.8,4.4-2.9,6.5c-0.3,0.5-0.6,1.1-0.8,1.6c-0.3,0.6-0.7,1.3-1.1,2
			c-1,1.8-2.1,3.8-2.6,5.7l-0.6,1.9L195.5,326z"/>
		<path class="st1" d="M137.3,323.6c-1.3-6.2-5-11.2-8.9-16.6c-3.5-4.8-7.2-9.8-8.9-15.7c-2.7-9.3-1-18.6,0.6-27.6
			c0.2-1.2,0.4-2.4,0.6-3.5l2,0.1c0.1,3.8,1,7.4,2.5,10.7c2.2,4.7,5.1,9.1,8,13.4l0.5,0.8c0.5,0.8,1.2,1.7,1.8,2.6
			c1.9,2.6,4.1,5.6,4.8,8.6c0,0.1,0,0.1,0.1,0.2l0.2,0.3v0.3c0.1,3.3,0.5,6.4,1.2,9.3l0.1,0.3l-0.1,0.3c0,0.1,0,0.2,0,0.3
			c1.2,5.7,0.2,12.3-2.6,16.7l-1.3,2.2L137.3,323.6z"/>
		<path class="st1" d="M161.6,309.1c-2.8-9.2-5.1-19.1-2.9-30l0.6-3.2l1.3,3c2.5,6.1,4.8,12.7,4.4,19.7c-0.1,2.3-0.5,4.5-0.8,6.7
			c-0.2,1.2-0.4,2.5-0.6,3.7L161.6,309.1z"/>
		<path class="st1" d="M206,306.8c0.1-1.3-0.1-2.7-0.3-4.2c-0.3-1.9-0.8-3.8-1.3-5.6c-0.5-1.8-1-3.7-1.3-5.5
			c-1-5.2,0.1-9.7,1.3-13.3l2,0.3c0,1.4,0.1,2.7,0.3,4c0.6,3.4,2.1,6.2,3.8,9.1l0.6,1.1c1.5,2.6,3,5.3,1.9,8.7l0,0v0.1
			c-0.8,2.3-3,4.8-5.4,6.2l-1.6,0.9V306.8z"/>
		<path class="st1" d="M139,291.5c-0.5-0.8-1.1-1.6-1.6-2.4c-0.4-0.6-0.9-1.2-1.3-1.8l-1.3-1.9c-2.7-4-5.4-8.1-7.7-12.4
			c-7.8-14.6-0.7-29.5,5.6-42.6l0.9-1.9c4.2-8.9,6.5-18.9,8.7-28.6l0.1-0.3c0.4-2,0.9-4,1.3-5.9l2,0.2v0.6c0,2.1,0,4.3,0,6.4
			c0.1,6.4,0.2,12.9-1.4,19.1c-1.4,5.3-3.6,10.4-5.7,15.3c-2,4.6-4.1,9.3-5.4,14.2c-3.1,11.4-0.6,22.1,7.5,31.8l0.2,0.3v0.4
			c0,0.1,0,0.1,0,0.2c0.8,2.5,0.4,5.3,0,8l-0.5,3.7L139,291.5z"/>
		<path class="st1" d="M237.1,276.8c-1.8-0.3-5.1-1.2-6.2-3.3l-0.2-0.4l0.2-0.5c0.2-0.4,0.4-0.9,0.6-1.3c0.3-0.7,0.7-1.4,1.1-2
			c1-1.8,2-3.5,2.3-5.5c0.7-4.1-1.1-7.7-3.1-11.6c-0.8-1.6-1.7-3.3-2.3-5c-1.7-4.6-1.9-9-0.7-13.3c0.3-1.1,0.7-2.2,1.1-3.2
			c0.7-1.9,1.4-3.8,1.7-5.7c0.7-4.7-0.3-9.7-3-16c-1-2.2-2-4.4-2.9-6.6c-2.4-5.3-4.9-10.8-6.9-16.6c-3.1-8.9-6.1-17.7-7.8-26.8
			l-0.1-0.7l0.7-0.4h0.1c1.3-0.7,2-2.8,2.6-4.4l0.2-0.6l1.9,0.2c1.4,11.7,4.6,21.1,9.8,28.6c1.7,2.5,3.9,4.8,6,7
			c2.8,2.9,5.6,6,7.6,9.6c3.5,6.4,3.1,13.7,2.7,20.7c-0.1,1-0.1,1.9-0.1,2.9c-0.2,3.6-0.3,7.4,0.3,11.2c0.4,2.8,1.4,5.4,2.4,8
			c0.3,0.9,0.7,1.8,1,2.7c3,8.6-0.8,14.9-4.4,20.9c-2,3.3-3.7,6.9-3.3,11l0.1,1.3L237.1,276.8z"/>
		<path class="st1" d="M206.1,269.9c0-0.4,0-0.7-0.1-1.1c-0.1-0.6-0.2-1.2-0.4-1.8c-0.1-0.4-0.2-0.9-0.3-1.4
			c-0.6-3.1-0.1-5.7,0.4-8.3c1.4-7.1,0.2-13.2-2.3-20.8c-2.1-6.3-1.6-12.2-1.2-18.4c0.1-1.8,0.3-3.7,0.3-5.5
			c0.4-10.8-0.9-21.7-2.2-31l-0.1-1c-1.1-7.9-2.4-16.9-5.4-24.7l-0.2-0.5l0.4-0.5c0.8-1.3,2.9-4.6,6.3-5.8l0.9-0.3l0.4,0.9
			c4.7,11,6.6,23.4,8.2,36.2c0.9,7.2,1.4,13.1,1.5,18.6c0.1,4.3-0.5,8.2-1.2,12.2c-0.3,1.7-0.5,3.4-0.8,5.1
			c-0.7,5.9,1.5,10.8,4,15.9c0.4,1,0.9,1.9,1.3,2.9c1.8,4.2,3.6,9.7,0.8,15.6c-1.1,2.2-2.5,4.2-3.9,6.1c-0.6,0.8-1.1,1.5-1.7,2.3
			c-1.2,1.8-2.3,3.7-3,5.5L206.1,269.9z"/>
		<path class="st1" d="M73.9,263c-0.5,0-1.1,0-1.6-0.1l-1.6-0.1l0.8-1.4c2.2-3.6,0.8-9.4-0.2-13.6c-0.1-0.5-0.8-3.4-1-4.5
			c-2.7-11.5-5.5-23.5-2.5-35.4c0.6-2.3,1.3-4.7,1.9-6.9c1.3-4.3,2.6-8.8,3.1-13.4c0.7-6.6-0.3-13.4-1.4-19.9l-0.2-1.3
			c-3-19,0.2-33.1,10-44.1l1.4-1.6l0.3,2.1c1.1,6.4,1.5,13,1.2,19.5v0.3l-0.1,0.3c-3.2,7.5-3.1,16.2-3.1,24.6v0.4
			c0,6.1-0.5,12-1.8,18.2v0.2l-0.1,0.1c-0.1,0.1-0.1,0.2-0.1,0.3v0.2v0.2c-0.3,1.6-0.7,3-1,4.3c-1.7,6.5-3.4,13.1-3.3,20
			c0.1,7.7,2.1,15.2,4,22.5c1.4,5.5,2.9,11.2,3.6,17c0.3,2.5,0.3,5,0.3,7.6v0.2l-0.1,0.2C81.1,262.6,76,263,73.9,263z"/>
		<path class="st1" d="M101,249.9c-2-4.8-2.9-9.7-2.6-14.8c0.3-4.4,1.9-8.2,3.4-11.8c0.9-2.1,1.9-4.3,2.5-6.6
			c0.8-2.7,1.1-5.6,1.4-8.4c0.3-3,0.6-6.2,1.6-9.2c1.2-3.8,3.4-6.7,5.6-9.5c1.2-1.5,2.4-3.1,3.4-4.7c3-4.9,4.8-10.7,6.7-16.3
			c0.5-1.5,1-3,1.5-4.5c0.5-1.3,0.9-2.8,1.4-4.3c1.7-5.6,3.7-11.9,7.3-16.4l0.8-1l0.8,0.9c1.7,2.1,3.1,4.5,3.9,7.1l0.2,0.6l-0.5,0.4
			c-9.1,8.6-15.5,22.9-19.1,42.5c-0.3,1.8-0.5,3.6-0.8,5.3c-0.2,1.9-0.5,4-0.9,5.9c-1.4,7-4,13.8-6.6,20.3c-0.5,1.2-1,2.4-1.4,3.6
			c-2.7,6.7-5.5,13.7-6.6,20.6l-0.5,3.5L101,249.9z"/>
		<path class="st1" d="M122,249c0.1-1.6,0-3.1,0-4.5c-0.1-2.1-0.4-4.2-0.7-6.3c-0.8-6.5-1.7-13.2,1.6-19.4c1.2-2.2,2.8-4.2,4.4-6.1
			c2.1-2.5,4.1-4.9,5.1-7.8c2.1-5.9,2.5-12.7,3-19.2c0.1-2.2,0.3-4.4,0.5-6.6c0.1-0.9,0.2-1.7,0.2-2.6c0.4-4.4,0.8-8.9,2-13.2
			c2.1-7.3,9.2-12.1,14.9-16l1.2-0.8l0.5,1c0.3,0.5,0.5,1.1,0.7,1.6v0.1l0.3,0.6l-0.4,0.5c-4.7,5.5-7.6,12-8.5,18.9v0.3l-0.2,0.2
			c-0.1,0.1-0.1,0.2-0.1,0.3c-0.5,10.4-2.8,20.6-5.4,31.8c-2.8,12-6.5,22.4-11.4,32.6c-2.7,5.5-4.5,10.4-5.6,14.8L122,249z"/>
		<path class="st1" d="M260.3,230c-1.1-2.2-1.7-5-1.7-7.7c0-0.2-0.1-0.2-0.1-0.3l-0.3-0.3v-0.4c0.2-4.1-0.4-7.9-1.9-11.7
			c-1.7-4.5-4.2-8.9-6.5-13.2c-0.9-1.6-1.8-3.2-2.6-4.8c-2.1-4-2.8-7.6-2.3-12.4c0.2-2.4,0.3-4.7,0.1-6.8
			c-0.8-9.7-4.2-19.8-9.8-29.3l-0.3-0.4l0.2-0.5c0.7-1.8,1.7-3.5,2.7-5.1l0.4-0.7c0.7-1.2,1.4-2.4,2.3-3.5l0.7-0.8l0.8,0.7
			c7.1,6.9,11.7,16.2,12.2,25c0.1,2.6,0.1,5.2,0.1,7.7c0,6.4,0,12.4,2.3,18.6c1,2.6,2.3,5.3,3.5,7.8c2.5,5.2,5.1,10.5,5.7,16.4
			c0.5,4.2-0.7,8.2-1.9,12.1c-0.9,3.2-1.8,6.1-1.9,9.2L260.3,230z"/>
		<path class="st1" d="M49.3,207.3c-8.2-11-4.5-22.6,0.1-32.6c0.5-1.1,1.1-2.3,1.6-3.4c2.1-4.3,4.2-8.8,5.9-13.3l1.9,0.3
			c0.1,1.1,0.1,2.2,0.2,3.3c0.3,4.6,0.6,9.5,0.3,14.2c-0.4,6.3-2.4,12.2-4.4,17.8c-1.5,4.3-3.1,8.7-3.9,13.2l-0.4,2.3L49.3,207.3z"
			/>
		<path class="st1" d="M275.5,196c-1.8-1.6-3.4-2.6-5.1-3.2l-0.4-0.1l-0.2-0.3c-0.5-0.9-0.9-1.7-1.4-2.5c-2.5-4.5-5.1-9.2-4.9-15.2
			c0-1.4,0.1-2.8,0.2-4.1c0.4-7.9,0.7-14.8-2-22.5c-1.9-5.5-4.7-10.6-8.3-15.2l-0.4-0.6l0.4-0.6c0.1-0.1,0.1-0.2,0.1-0.3
			c0.2-2.4,0.8-4.8,1.9-7.1c0.2-0.5,0.5-0.9,0.7-1.4l0.7-1.2l1,1c0.3,0.4,0.7,0.8,1,1.3l0.1,0.2v0.2c0,0.1,0,0.1,0.1,0.2
			c4,5.6,6.7,11.6,8,17.8c0.8,4,0.8,8,0.9,11.8c0,2.7,0,5.5,0.3,8.2c0.5,4.5,2.3,7.9,4.3,11.7c0.3,0.6,0.6,1.2,0.9,1.8
			c3.1,6,4.4,12.8,3.6,19.6l-0.2,1.9L275.5,196z"/>
		<path class="st1" d="M81,182.1c0.2-1.4,0.4-2.6,0.5-3.7c0.4-3.8,0.4-7.8,0.3-12c-0.1-10.3-0.2-21,6.9-29.3l0.7-0.9l0.8,0.8
			c2.9,3.3,5.4,7.4,7.4,12.6c0,0.1,0.1,0.2,0.1,0.2l0.4,0.4l-0.2,0.6c-2.2,7.6-5,14.7-8.4,21.2c-1.8,3.5-4.1,7.6-6.9,10.8l-2.4,2.7
			L81,182.1z"/>
		<path class="st1" d="M286.7,169.6c-2.7,0-4.7-1.4-5.8-3.9v-0.1l-0.1-0.1v-0.1c-0.7-3-1.8-5.7-2.9-8.6c-0.6-1.6-1.3-3.2-1.8-4.9
			c-1.3-3.7-1.4-7.6-1.5-11.3c-0.1-3.2-0.1-6.3-0.9-9.3c-0.8-3.1-2.8-5.3-4.8-7.7c-0.7-0.8-1.4-1.7-2.1-2.5l-0.2-0.3v-0.4
			c0.2-3,1.1-6,2-8.7c0.1-0.3,0.2-0.6,0.3-0.9c0.4-1.2,0.9-2.7,1.6-3.9l1-1.8l8.4,19c3.2,7.2,5.9,13.4,5.6,21.4
			c0,0.8-0.1,1.7-0.1,2.5l-0.1,1.8l-0.4,0.2c-0.1,0.1,0,0.2,0,0.2l0.1,0.2v0.2c-0.2,6-0.1,12.3,4.2,17l1.2,1.3l-1.7,0.4
			C288,169.5,287.3,169.6,286.7,169.6z"/>
		<path class="st1" d="M33.4,150c-0.2-0.7-0.4-1.4-0.5-2.1l-0.1-0.5l0.4-0.4c0.1-0.1,0.1-0.2,0.1-0.3c0.5-4.2,1.7-8.1,3.5-11.6
			c1.5-2.9,4-7.7,8-9.1c0.4-0.1,0.4-0.5,0.3-0.6c0,0-0.1-0.4-0.3-0.4c0,0-0.1,0-0.2,0c-6.3,2.2-9.5,10.2-10.8,14.8l-2-0.3
			c-0.1-3.1,0.1-6.2,0.7-9.2c0.8-4.4,1.8-9.3,4.7-12.7c0.9-1.1,2-1.9,3-2.8c1.1-0.9,2-1.7,2.8-2.7c1.4-1.8,2-3.8,2.5-6.3
			c1.6-7.3,4.7-12.7,9.7-17l1.2-1l0.5,1.5c1.6,5,2.2,10.4,2.1,16c0,0.2,0.1,0.3,0.1,0.3l0.8,0.5l-0.7,0.9c-2.6,4.8-4.4,9.8-5.3,15
			l-0.1,0.5v0.1c-1.4,6-3.8,10.8-7.2,14.9c-1.4,1.6-2.9,3.1-4.4,4.5c-1.2,1.2-2.5,2.4-3.6,3.7c-1.4,1.6-2.5,3-3.3,4.5l-1.2,2.1
			L33.4,150z"/>
		<path class="st1" d="M101.1,142.4c0.3-1.5,0.5-2.7,0.6-3.9c0.3-2.1,0.3-4.3,0.3-6.8c0-5,0-10.1,2.5-14.2c1.9-3,5.7-4.7,9-6
			l2.9-1.2l-1.6,2.7c-2.3,3.6-3.9,8-5.3,11.9l-0.3,1c-0.7,1.9-1.3,3.8-2,5.7c-0.8,2.3-1.6,4.7-2.5,7c-0.1,0.4-0.3,0.8-0.5,1.2
			c-0.3,1-0.7,2-1.2,3.1L101.1,142.4z"/>
		<path class="st1" d="M119.7,138.3c0.8-2.9,1.2-6.1,1.6-9.1c0.2-1.3,0.3-2.6,0.5-3.8c0.1-0.7,0.2-1.5,0.3-2.3
			c0.9-6.4,2-14.4,7.2-18.7l0.1-0.1l0.1-0.2l0.2-0.1c1.6-0.8,3.2-1.6,4.8-2.3l2.8-1.3l-1.5,2.7c-3.2,5.7-4.7,12.6-5.6,18
			c-0.1,0.7-0.3,1.5-0.4,2.3c-0.7,3.7-1.8,8.9-0.9,12.5l0.2,1l-1,0.2c-2.9,0.6-5.2,1.4-7,2.4l-2,1.1L119.7,138.3z"/>
		<path class="st1" d="M229.7,134.9c-4.1-5.3-8.8-10-13.9-13.8l-0.3-0.2l-0.1-0.3c-0.7-2.3-1.6-4.6-2.7-6.7l-1-1.9l2.1,0.5
			c6.3,1.4,11.3,5.2,14.5,11.1c1.5,2.7,3.8,7.8,3,10.9l-0.5,1.9L229.7,134.9z"/>
		<path class="st1" d="M203.8,135.5c-1.1-0.8-2.3-1.5-3.8-1.9l-1.3-0.4l0.7-1.1c2.1-3.4,1.3-10.3,0.9-13.7v-0.1
			c-0.9-7.8-3.7-14.6-8.1-19.8l1.2-1.6c2.8,1.2,5.4,2.7,7.8,4.6l0.2,0.2l0.1,0.3c0,0.1,0,0.1,0.1,0.1c7.3,9.6,8.7,22.2,3.7,33
			l-0.5,1.1L203.8,135.5z"/>
		<path class="st1" d="M146.7,131.3c4-3.7,7.2-8.9,10-16.4c1.5-4.1,2.7-8.4,3.9-12.5c0.2-0.5,0.3-1.2,0.4-1.8
			c0.4-1.8,0.9-3.9,1.8-5.5l0.8-1.4l0.9,1.3c0.2,0.3,0.3,0.6,0.5,0.9c0,0,0,0.1,0.1,0.2l0.4,0.5l-0.3,0.6c0,0.1,0,0.1,0,0.2V98
			c-0.1,4.6-0.3,9.3-0.8,14l-0.1,1.1c-0.5,4.8-1.2,10.2-5,13.7c-2.9,2.6-6.6,4.7-11.5,6.2L146.7,131.3z"/>
		<path class="st1" d="M180.9,130.2c-9.2-3.3-14.5-9.3-14.9-16.9c0-0.1,0-0.2-0.1-0.3l-0.3-0.3v-0.5c0.4-3.6,0.4-7.3,0.5-10.9
			c0-1.4,0-2.8,0.1-4.1v-0.1l-0.1-0.8l0.7-0.3c0.1,0,0.2-0.1,0.2-0.2c0.4-0.5,0.9-0.9,1.7-1.2l0.7-0.3l0.5,0.6L170,95
			c5.6,4,8.1,11.6,9.9,18.4l0.2,0.6c1.2,4.6,2.8,10.3,2.2,15.3l-0.1,1.3L180.9,130.2z"/>
		<path class="st1" d="M280.2,104.1c-1.9-2.6-4-5-6.1-7.2l-0.3-0.3v-0.4c0-3.3,0.1-8.2,1.2-12.8l2,0.1c1.1,6.2,2.7,12.7,5,19.8
			L280.2,104.1z"/>
		<path class="st1" d="M34.5,100.9c-0.1-1.1-0.3-2.3-0.4-3.4c-0.7-4.5-1.3-9.2,1.2-14c1.8-3.4,4.6-6.2,7.2-8.8
			c1.3-1.3,2.7-2.7,3.9-4.1c0.2-0.2,0.4-0.5,0.6-0.8l0.5-0.7l0.8,0.5l0,0c1.6,1,2.3,3.2,2.8,4.7v0.1c0.2,0.6,0.4,1.2,0.6,1.8
			l0.1,0.3l-0.1,0.3v0.1c-1.1,7.6-5.9,13-10.5,18.3c-1.6,1.8-3.2,3.7-4.7,5.6c-0.1,0.1-0.2,0.2-0.2,0.3l-1.7,2.4L34.5,100.9z"/>
	</g>
	<g>
		<g>
			<path class="st2" d="M47.5,51.8c-4,5.2-10.2,8.7-13,14.9c-1.9,4.2-1.4,8.9-0.7,13.3c0.3,1.9,3.2,1.1,2.9-0.8
				c-1-6-0.5-11.2,3.8-16c3.1-3.5,6.8-6.3,9.7-10C51.2,51.8,48.6,50.3,47.5,51.8L47.5,51.8z"/>
		</g>
		<g>
			<path class="st2" d="M47.5,53.3c6.5,9.2-5.2,17.5-10.4,23.6c-2.6,3.1-4.8,6.5-5.5,10.6c-1,5.6,1.3,10.9,1.1,16.5
				c-0.1,1.9,2.9,1.9,3,0c0.2-7.1-3.2-13.8,0.5-20.6c2.7-5,7.4-8.5,11-12.7c4.4-5.1,7.2-12.7,2.9-18.8C49,50.2,46.4,51.7,47.5,53.3
				L47.5,53.3z"/>
		</g>
		<g>
			<path class="st2" d="M50.8,76.2c-1.4,9.9-9.2,15.9-14.9,23.4c-5,6.6-4.5,13.7-4.8,21.6c-0.1,1.9,2.9,1.9,3,0
				c0.2-4.5-0.3-9.8,1-14.1s4.8-7.7,7.8-11.1c4.9-5.6,9.7-11.3,10.8-19C54,75.1,51.1,74.3,50.8,76.2L50.8,76.2z"/>
		</g>
		<g>
			<path class="st2" d="M54.9,85.8c-5.2,4-9,9.4-10.7,15.7c-1.3,4.7-1.8,8-5.7,11.5c-1.6,1.4-3.1,2.7-4.2,4.6
				c-5.7,9.9-5.9,24.2-2,34.7c0.7,1.8,3.6,1,2.9-0.8c-2.5-6.9-3-14.3-1.7-21.5c0.7-4.1,1.8-9,4.4-12.3c1.7-2.1,4.2-3.4,5.8-5.5
				c1.6-2,2.1-4.2,2.7-6.7c1.6-7.2,4.8-13,10.7-17.6C58.6,86.7,56.4,84.6,54.9,85.8L54.9,85.8z"/>
		</g>
		<g>
			<path class="st2" d="M52.8,121.7c-1.3,5.4-3.4,10.3-7,14.5c-2.5,2.9-5.5,5.4-8,8.2c-2.1,2.3-3.9,4.9-4.8,7.9
				c-1.6,5.1,0.6,9.4,3.1,13.8c1,1.7,3.6,0.2,2.6-1.5c-3.2-5.5-4.4-10.4-0.6-15.8c1.8-2.6,4.3-4.8,6.6-7c5.5-5.5,9.2-11.6,11-19.2
				C56.1,120.6,53.2,119.8,52.8,121.7L52.8,121.7z"/>
		</g>
		<g>
			<path class="st2" d="M41.5,154.8c-5,7.4-6.3,18.8-4.8,27.4c0.3,1.9,3.2,1.1,2.9-0.8c-1.4-7.9,0-18.4,4.5-25.1
				C45.2,154.7,42.6,153.2,41.5,154.8L41.5,154.8z"/>
		</g>
		<g>
			<path class="st2" d="M62,100c-4.5,6.3-7.7,13.4-9.1,21.1c-1.6,9,0.5,17.8-5.3,25.8c-1.1,1.6,1.5,3.1,2.6,1.5
				c5.1-7,4.4-13.6,5-21.9c0.7-9.1,4.1-17.6,9.4-25C65.7,100,63.1,98.5,62,100L62,100z"/>
		</g>
		<g>
			<path class="st2" d="M71.6,115.2c-6.8,7.3-11.5,16.2-13.2,26.1c-1.9,11.3,0.7,22.5,0,33.8c-0.6,11.3-6.9,21-8.5,32.1
				c-1.5,10.6,3.3,19.6,9.3,28.1c1.1,1.6,3.7,0.1,2.6-1.5c-6.4-9-10.9-18.1-8.3-29.4c2.2-9.3,6.9-17.7,7.8-27.4
				c0.9-10.4-1.4-20.8-0.5-31.2c1-10.7,5.6-20.6,12.9-28.5C75,115.9,72.9,113.8,71.6,115.2L71.6,115.2z"/>
		</g>
		<g>
			<path class="st2" d="M58.6,142c-1,13.9-9,25.3-13.9,38c-4.3,11.2-3.1,21.4,5.1,30.5c1.3,1.4,3.4-0.7,2.1-2.1
				c-9.7-10.6-7.2-21.9-1.6-33.8c4.9-10.5,10.4-20.7,11.2-32.6C61.7,140,58.7,140,58.6,142L58.6,142z"/>
		</g>
		<g>
			<path class="st2" d="M80.9,119.1c-8.3,8.8-13.2,20.2-13.2,32.3c0,7.5,1.7,14.8,2.6,22.2c1.1,8.5,0.3,16.4-2.1,24.6
				c-1.7,6-3.5,11.7-3.8,17.9c-0.2,6,0.6,12.1,1.8,17.9c1,5.1,2.4,10,3.4,15.1c0.7,3.3,2.4,9.4-1,11.8c-1.1,0.7-0.9,2.4,0.4,2.7
				c5.5,1.7,15,0.3,15.7-6.6c0.2-1.9-2.8-1.9-3,0c-0.5,4.7-8.6,4.7-11.9,3.7c0.1,0.9,0.2,1.8,0.4,2.7c5.7-3.9,3.1-12.5,1.8-18
				c-2.8-12.4-6.4-25.3-3.2-38c1.7-6.8,4.3-13.4,5.1-20.4c0.8-7.2-0.5-14.3-1.6-21.4c-2.6-16.5-1.2-31.8,10.9-44.5
				C84.4,119.9,82.2,117.7,80.9,119.1L80.9,119.1z"/>
		</g>
		<g>
			<path class="st2" d="M88.3,134.1c-8.7,9.1-8.5,21.6-8.4,33.4c0.1,8-1,15.4-3,23.1c-1.8,6.7-3.5,13.3-3.4,20.3
				c0.3,13.6,6,26.3,7.7,39.6c0.8,6.2-0.5,12.8,0.9,18.9c1.4,6,10.2,11.3,8.4,17.6c-0.4,1.4,1.5,2.6,2.5,1.5
				c2.7-2.9,4.2-6.2,4.5-10.1c0.2-1.9-2.8-1.9-3,0c-0.3,3.1-1.5,5.7-3.6,8c0.8,0.5,1.7,1,2.5,1.5c1.4-4.7-1-8.2-3.9-11.7
				c-2.6-3.1-4.3-5.6-4.7-9.6c-0.4-3.1,0-6.2-0.1-9.4c-0.1-13.1-5.3-25.4-7.4-38.2c-1.2-7.6-0.7-14.9,1.1-22.3
				c1.5-6.2,3.4-12.3,4.1-18.6c1.5-13.9-2.9-30.5,7.9-41.7C91.8,134.8,89.7,132.7,88.3,134.1L88.3,134.1z"/>
		</g>
		<g>
			<path class="st2" d="M152.8,92c-1.7,1.4-2.6,4-3.4,6c-1.7,3.8-3.1,7.7-4.6,11.6c-3.2,8.2-5.9,17.5-11.3,24.6
				c-1.2,1.5,1.4,3,2.6,1.5c4.8-6.4,7.4-14.6,10.3-22c1.6-4.2,3.2-8.4,4.9-12.5c0.9-2.1,1.8-5.6,3.7-7.1
				C156.5,92.9,154.3,90.8,152.8,92L152.8,92z"/>
		</g>
		<g>
			<path class="st2" d="M138.3,97.3c-5.4,6.3-7.5,15.1-9,23c-0.8,4.7-3,12.8-0.6,17.3c0.9,1.7,3.5,0.2,2.6-1.5
				c-0.8-1.4-0.3-3.9-0.3-5.5c0.2-3.6,0.7-7.2,1.4-10.7c1.3-7,3.2-15,8-20.5C141.6,97.9,139.5,95.8,138.3,97.3L138.3,97.3z"/>
		</g>
		<g>
			<path class="st2" d="M127.9,102.4c-5.1,4.2-6.3,11.9-7.4,18c-1.2,6.9-1.1,15.4-4.6,21.6c-1,1.7,1.6,3.2,2.6,1.5
				c3.2-5.5,3.4-12.6,4.4-18.7c1-6.6,1.7-15.8,7.2-20.3C131.5,103.3,129.4,101.2,127.9,102.4L127.9,102.4z"/>
		</g>
		<g>
			<path class="st2" d="M119.7,105.9c-6.4,4-9.1,12.3-11.6,19.1c-1.5,4.2-2.9,8.5-4.5,12.7c-1.2,3.2-2.5,7.8-5.5,9.9
				c-1.6,1.1-0.1,3.7,1.5,2.6c5.3-3.7,7.1-12.2,9-17.9c2.6-7.6,5.2-19.2,12.5-23.8C122.9,107.4,121.4,104.9,119.7,105.9L119.7,105.9
				z"/>
		</g>
		<g>
			<path class="st2" d="M162.4,91.8c-1.5,1.4-2,3.8-2.6,5.7c-1.2,3.8-2.1,7.6-3.3,11.4c-3,9.3-7.2,19.5-16.5,24.1
				c-1.7,0.9-0.2,3.4,1.5,2.6c8.3-4.1,12.9-12.5,16.1-20.9c1.6-4.1,2.7-8.3,3.9-12.6c0.7-2.4,1.1-6.4,3-8.2
				C165.9,92.6,163.8,90.4,162.4,91.8L162.4,91.8z"/>
		</g>
		<g>
			<path class="st2" d="M169.4,95.2c5.5,3.9,7.8,11.7,9.5,17.9c1.3,4.9,3.1,11,2.3,16.1c-0.3,1.9,2.6,2.7,2.9,0.8
				c0.9-6.1-0.9-13.1-2.6-18.8c-1.9-6.7-4.7-14.3-10.6-18.5C169.3,91.5,167.8,94.1,169.4,95.2L169.4,95.2z"/>
		</g>
		<g>
			<path class="st2" d="M164,112.7c0.4,8.4,6.8,14.9,14.2,18.1c3.2,1.4,6.6,2.2,10,2.7c3.5,0.5,7.5,0,11,1
				c8.8,2.6,9.8,14.3,9.7,21.8c0,1.9,3,1.9,3,0c0.1-7-0.6-14.8-5.3-20.4c-4.2-4.8-9.1-4.5-15-5.1c-10.2-0.9-23.9-6.1-24.5-18.2
				C166.9,110.7,163.9,110.7,164,112.7L164,112.7z"/>
		</g>
		<g>
			<path class="st2" d="M177.5,94.2c10.3,8.2,15.9,24.3,11.9,36.9c-0.6,1.8,2.3,2.6,2.9,0.8c4.2-13.5-1.7-31-12.7-39.8
				C178.1,90.9,176,93,177.5,94.2L177.5,94.2z"/>
		</g>
		<g>
			<path class="st2" d="M188.1,96.5c6,5.4,9.2,12.8,10.2,20.7c0.4,3.1,1.6,11.4-1,13.8c-1.4,1.3,0.7,3.4,2.1,2.1
				c3.4-3.1,2.4-11.7,2-15.6c-1-8.8-4.5-17.2-11.2-23.2C188.8,93.1,186.7,95.2,188.1,96.5L188.1,96.5z"/>
		</g>
		<g>
			<path class="st2" d="M200.8,102.1c7.4,9.7,8.6,22.7,2.8,33.6c-0.9,1.7,1.7,3.2,2.6,1.5c6.2-11.7,5.2-26-2.8-36.6
				C202.2,99.1,199.6,100.5,200.8,102.1L200.8,102.1z"/>
		</g>
		<g>
			<path class="st2" d="M201.6,149.1c4.9,11.2,6.8,24.3,8.3,36.3c0.8,6.1,1.4,12.3,1.5,18.5c0.1,6-1.2,11.3-1.9,17.2
				c-0.9,7.3,2.5,13,5.4,19.4c2.2,4.9,3.2,9.7,0.8,14.8c-1.4,3-3.6,5.6-5.5,8.3c-3.7,5.5-5.8,11.6-4.6,18.4
				c0.7,3.8,2.5,6.8,4.3,10.2c1.4,2.6,3,5.1,2,8.3c-0.8,2.6-4,5.8-6.6,6.4c-1.9,0.5-1.1,3.4,0.8,2.9c4.2-1.1,8.3-5.5,9-9.8
				c1-6.1-4.6-10.9-6.1-16.5c-2.3-8.2,1.3-14.8,5.9-21.3c3.3-4.8,6-9.7,5.1-15.7s-4.6-11-6.6-16.6c-2.3-6.6,0.4-12.8,0.9-19.5
				c0.7-10.2-0.7-20.6-2.2-30.7c-1.6-10.8-3.6-22.1-7.9-32.2C203.5,145.8,200.9,147.3,201.6,149.1L201.6,149.1z"/>
		</g>
		<g>
			<path class="st2" d="M208.7,157.3c1.5,9.5,4.7,18.8,7.8,27.8c2.3,6.7,4.8,13.2,8,19.5c3.7,7.2,6.8,14.9,4.2,23.1
				c-1.8,5.5-3.6,10-2.2,15.9c1.8,8,9.2,14.7,4.9,23.1c-2.9,5.8-5.1,10.9-5.5,17.5c0.6-0.5,1.3-1,1.9-1.4c-2.3-0.5-2.4-7-2.3-8.5
				c0-1.9-3-1.9-3,0c-0.1,3.1,0.4,10.5,4.6,11.4c1,0.2,1.8-0.4,1.9-1.4c0.3-4.7,1.3-8.9,3.4-13.1c1.3-2.6,3-4.9,3.5-7.8
				c1.1-6.3-3.4-11.6-5.4-17.1c-1.6-4.2-1.9-8.4-0.6-12.7c0.9-3.1,2.3-5.9,2.8-9.1c0.8-5.7-0.8-11.3-3.1-16.5
				c-3.4-7.8-7-15.1-9.9-23.1c-3.2-9.2-6.5-18.7-8-28.4C211.3,154.6,208.4,155.4,208.7,157.3L208.7,157.3z"/>
		</g>
		<g>
			<path class="st2" d="M221.6,267.3c1.5,7,1.7,13.4-2.2,19.7c-2.8,4.5-5.7,8.6-7.5,13.6c-0.7,1.8,2.2,2.6,2.9,0.8
				c2.1-5.9,6.3-10.4,8.9-16c2.8-6,2.1-12.5,0.7-18.8C224.1,264.6,221.2,265.4,221.6,267.3L221.6,267.3z"/>
		</g>
		<g>
			<path class="st2" d="M173.6,144.3c6.3,9.1,8.3,21,9.5,31.8c1.1,10.4,0.7,19.9-0.7,30.2c-1.9,14.3,6.8,27.5,5.1,41.8
				c-0.9,7.5-3.5,14.5-3.6,22.1c-0.1,8.4,0.5,16.7-0.8,25.1c-2,12.9-12.5,29.7-2.2,41.4c0.5-0.8,1-1.7,1.5-2.5
				c-13.3-3.9-18.5-16.4-16.4-29.2c1.9-11.8-0.8-21.1-5.5-31.9c-0.8-1.8-3.4-0.2-2.6,1.5c3.2,7.4,6.5,15.2,6.1,23.4
				c-0.4,6.3-2.6,12.2-1.3,18.6c1.9,9.8,9.4,17.7,18.9,20.5c1.5,0.4,2.4-1.4,1.5-2.5c-6-6.8-3-16-0.6-23.7
				c2.1-6.7,3.7-13.6,4.3-20.6c0.7-7.7-0.2-15.3,0.3-22.9s3.7-14.9,3.8-22.6c0.1-6.6-1.8-13.1-3.4-19.4c-2.1-8.5-2.4-15.6-1.1-24.2
				c1.3-8.7,0.7-17.7-0.4-26.4c-1.3-10.9-3.4-22.8-9.8-32C175.1,141.2,172.5,142.7,173.6,144.3L173.6,144.3z"/>
		</g>
		<g>
			<path class="st2" d="M172.9,143c-4.4,6.5-6.5,15.2-8.3,22.7c-3,12.1-4.7,25-2.9,37.4c1,6.8,5.1,14.4,3.1,21.2
				c-1.2,4.3-3.4,8.5-4.9,12.7c-4.1,11.9-6.3,24.9-2.2,37.1c0.6,1.8,3.5,1,2.9-0.8c-4.3-12.8-1.3-26.2,3.3-38.5
				c1.4-3.7,3.5-7.5,4.2-11.4c1.2-6.1-1.9-12.1-3-18c-2.4-12.4-0.8-25.5,2.1-37.7c1.8-7.7,3.9-16.6,8.4-23.3
				C176.6,142.9,174,141.4,172.9,143L172.9,143z"/>
		</g>
		<g>
			<path class="st2" d="M161.4,142.5c-8.6,6.4-14.6,15.9-15.7,26.7c-0.9,8.1-0.7,16.4-0.9,24.6c-0.2,8.3,0.7,17.2-1.4,25.2
				c-2.6,10.2-8.4,19.3-11.2,29.5c-3.4,12.3-0.3,23.2,7.8,32.8c1.2,1.4,3-0.4,2.4-1.8c-2.4-5.4-0.3-12.3,1.2-17.6
				c2.2-7.7,5.2-15.1,8.1-22.5c5.2-13.3,12.5-28.1,11.9-42.7c-0.1-1.9-3.1-1.9-3,0c0.6,15.9-8,32.2-13.6,46.7
				c-2.8,7.3-5.7,14.6-7.4,22.3c-1.1,5.1-1.9,10.6,0.2,15.5c0.8-0.6,1.6-1.2,2.4-1.8c-5.3-6.3-8.8-13.5-8.4-21.8
				c0.3-6.1,2.5-11.9,4.8-17.5c4.3-10.4,9.1-20.1,9.1-31.6c0-10,0.2-19.9,0.6-29.9c0.5-13.2,3.5-24.9,14.7-33.3
				C164.4,143.9,162.9,141.3,161.4,142.5L161.4,142.5z"/>
		</g>
		<g>
			<path class="st2" d="M140.1,281.7c1,3.3-0.3,7.6-0.4,10.9c-0.3,5,0.1,10.1,1.5,14.9c1.3,4.3,3.1,8.1,6.8,10.8
				c4.8,3.6,13.8,7.4,10.6,15.1c-0.5,1.2,1.2,2.4,2.2,1.7c7.7-5.1,6.5-12.8,3.9-20.6c-4.5-13.4-8.2-25.8-4-39.9
				c0.6-1.9-2.3-2.6-2.9-0.8c-3.5,11.8-2.1,23.3,1.7,34.7c2.5,7.6,8.4,18.3-0.2,24c0.7,0.6,1.5,1.1,2.2,1.7
				c4.9-11.8-11.9-15.5-15.8-23.5c-2.9-6-3.4-12.9-2.9-19.5c0.2-3.3,1.3-7.1,0.2-10.4C142.4,279.1,139.5,279.9,140.1,281.7
				L140.1,281.7z"/>
		</g>
		<g>
			<path class="st2" d="M152.9,144.3c-5.5,3.7-11.2,7.6-14.8,13.3c-2,3.2-2.6,6.9-3.1,10.6c-1.5,10.2-1.6,20.5-3.4,30.7
				c-1,5.7-3.6,9-7.2,13.6c-4.5,5.8-6.3,11.5-5.8,18.8c0.6,9.2,1.9,17.3,0.4,26.5c-1.3,7.8-3.3,15.6-3,23.6c0.3,7.5,2.6,15,6.8,21.3
				c5.1,7.6,12.7,14.1,13,24c0,1.3,1.6,2,2.6,1.1c5.4-5.3,6.8-14.6,5.3-21.6c-0.4-1.9-3.3-1.1-2.9,0.8c1.3,6,0.1,14.2-4.6,18.7
				c0.9,0.4,1.7,0.7,2.6,1.1c-0.5-14.4-14.5-22.9-18.3-36.1c-4.6-15.7,3.5-31,2.5-46.7c-0.5-8.4-3.4-17.2,0.8-25.1
				c2.7-5,7.6-8.7,9.6-14.1c2.8-8.1,2.7-17.6,3.5-26c0.5-5.2,0.8-10.6,2.2-15.6c2.1-7.3,9.5-12,15.4-16
				C156,145.8,154.5,143.2,152.9,144.3L152.9,144.3z"/>
		</g>
		<g>
			<path class="st2" d="M145.4,169.3c-0.5,10.6-3,21.3-5.4,31.7c-2.7,11.5-6.2,21.9-11.3,32.4c-5.5,11.4-10.2,25.3-4.4,37.5
				c2.4,5,5.5,9.7,8.6,14.3c2.1,3.2,5.5,7,6.5,10.8c0.5,1.9,3.4,1.1,2.9-0.8c-0.9-3.3-3.4-6.4-5.2-9.2c-3.1-4.7-6.3-9.3-8.9-14.3
				c-7.9-14.8,0-29.9,6.6-43.6c4.3-9.1,6.6-19.3,8.9-29.1c2.2-9.8,4.4-19.8,4.9-29.9C148.5,167.3,145.5,167.3,145.4,169.3
				L145.4,169.3z"/>
		</g>
		<g>
			<path class="st2" d="M107.3,280.4c2.4,5,2.8,11.4,3.4,16.8c0.3,2.8,0.5,5.5,0.6,8.3c0,1,0.6,4.8-0.3,5.6c-1.3,1.2,0.3,3,1.8,2.3
				c5-2.4,10.8-8.1,10.8-14.1c0-2-3-2-3,0c0,5-5.3,9.6-9.3,11.5c0.6,0.8,1.2,1.6,1.8,2.4c2.9-2.8,1.1-11.5,0.7-14.9
				c-0.6-6.4-1.1-13.5-3.9-19.4C109,277.1,106.5,278.7,107.3,280.4L107.3,280.4z"/>
		</g>
		<g>
			<path class="st2" d="M189.6,149.1c5.5,8.4,7.1,19.7,8.6,29.4c1.7,10.9,2.9,22.1,2.6,33.2c-0.2,6.7-1.7,13.4-0.4,20.1
				c0.7,3.7,2.4,7.2,3.3,10.9c1.3,5.1,1,9.8,0,15c-0.5,2.6-0.8,4.8-0.2,7.4c1.1,5,0.2,8.4-1.4,13.1c-2.1,6.5-1.2,12.3,0.5,18.8
				c1,3.8,2.5,8.2,1.3,12.1c-0.8,2.8-2.3,5.4-3.6,7.9c-1.6,3.2-4.9,8-4.1,11.8c0.8-0.5,1.7-1,2.5-1.5c-3.6-3.5-5.4-7.6-5.3-12.6
				c0-1.9-3-1.9-3,0c-0.1,5.8,2,10.8,6.1,14.7c1.1,1.1,2.8,0,2.5-1.5c-0.4-1.9,1.5-4.8,2.2-6.4c1.2-2.4,2.4-4.8,3.6-7.3
				c2.1-4.4,2.8-7.7,1.9-12.5c-0.7-3.8-2-7.4-2.7-11.2c-0.9-4.7-0.1-8.7,1.4-13.1c1-3.1,2-6.1,1.7-9.3c-0.1-1.1-0.5-2.1-0.7-3.2
				c-0.5-2.8-0.2-5.2,0.4-8c1.5-7.6,0-14.1-2.3-21.3c-2.6-8-1.1-15.4-0.8-23.6c0.4-10.4-0.7-20.9-2.2-31.1
				c-1.6-11-3.2-23.8-9.4-33.4C191.1,146,188.5,147.5,189.6,149.1L189.6,149.1z"/>
		</g>
		<g>
			<path class="st2" d="M200.9,282.1c-0.8,10.6-3.7,20.9-9.3,29.9c-3.1,5-7.5,11-13.2,13.3c-1.8,0.7-1,3.6,0.8,2.9
				c6.1-2.6,10.8-8.3,14.4-13.7c6.3-9.7,9.5-21,10.3-32.4C204,280.1,201,280.1,200.9,282.1L200.9,282.1z"/>
		</g>
		<g>
			<path class="st2" d="M149.2,142.7c-19.5,7.4-27.5,31.6-30.9,50.3c-0.7,3.7-0.9,7.5-1.6,11.3c-1.3,6.9-4,13.6-6.6,20.1
				c-5.3,13.2-12,27.2-6.6,41.6c0.7,1.8,3.6,1,2.9-0.8c-5.4-14,1.7-27.7,6.8-40.6c2.4-6.1,4.8-12.4,6.2-18.9
				c0.7-3.4,0.9-6.9,1.5-10.4c3-17.9,10.3-42.7,29.1-49.8C151.8,144.9,151,142,149.2,142.7L149.2,142.7z"/>
		</g>
		<g>
			<path class="st2" d="M132.8,140c-5,5.3-7.2,13.7-9.5,20.4c-2.8,8.3-4.9,18-10.4,25c-3.8,4.9-7,9.4-8.2,15.6
				c-0.6,3.1-0.8,6.2-1.2,9.3c-0.6,4.4-2,7.8-3.8,11.9c-4.9,10.7-4,22.9,2.1,32.9c1,1.6,3.6,0.1,2.6-1.5c-3.6-5.8-5.3-12.2-4.9-19
				s4.1-11.9,5.9-18.3c1.7-5.8,1.2-11.9,3-17.7c1.7-5.6,5.9-9.2,8.8-14c3.9-6.4,5.8-14,8.2-21c2.4-6.9,4.3-16,9.5-21.5
				C136.2,140.7,134.1,138.6,132.8,140L132.8,140z"/>
		</g>
		<g>
			<path class="st2" d="M214.9,148.3c0.9,11.8,3.6,23.5,10.4,33.3c4,5.8,10.1,10.3,13.5,16.5c3.8,7,2.8,15.4,2.5,23.1
				c-0.2,3.8-0.3,7.6,0.3,11.4c0.6,3.9,2.1,7.3,3.4,11c2.8,7.8-0.4,13.5-4.3,20.1c-2.6,4.4-4.4,8.6-3,13.7c0.5-0.6,1-1.3,1.4-1.9
				c-2.2-0.1-6.9-1.1-7.6-3.5c-0.5-1.8-3.4-1.1-2.9,0.8c1.2,4,6.8,5.5,10.5,5.7c1,0.1,1.7-1,1.4-1.9c-1.8-6.6,3.3-11.7,6.1-17.1
				c2.8-5.5,3.3-10.8,1.2-16.7c-1.4-4-3.1-7.6-3.5-11.9c-0.4-3.7-0.2-7.5,0-11.2c0.3-6.9,0.8-14.1-1.9-20.7
				c-2.5-6.2-8-10.4-12.1-15.5c-8.2-10-11.5-22.3-12.5-35.1C217.7,146.4,214.7,146.4,214.9,148.3L214.9,148.3z"/>
		</g>
		<g>
			<path class="st2" d="M214.9,122.2c17.2,13,30.2,36.5,27.8,58.4c-0.6,5.7,2,9.7,4.6,14.6c3.2,6.1,7.3,12.3,8.7,19.2
				c1.5,7.5-1.4,14.8-3.5,22c-1.3,4.3-3.2,9,0,12.8c0.6-0.8,1.2-1.6,1.8-2.4c-9.3-5.9-6.9-16.5-4.2-25.8c0.5-1.9-2.4-2.7-2.9-0.8
				c-3.1,10.8-5.1,22.5,5.6,29.2c1.5,1,2.8-1.1,1.8-2.4c-2.3-2.8,0.4-8.6,1.4-11.7c1.1-3.5,2.2-6.9,2.9-10.5
				c1.1-5.6,0.7-11-1.4-16.4c-2.4-6.3-6-12.1-9.1-18.1c-2.1-4-2.6-7.4-2.2-11.8c0.2-2.3,0.3-4.6,0.1-7c-1.6-19.9-13.9-40-29.6-52
				C214.9,118.5,213.4,121.1,214.9,122.2L214.9,122.2z"/>
		</g>
		<g>
			<path class="st2" d="M240.4,132c7,6.2,12.3,15.8,12.8,25.2c0.5,9.2-0.9,17.7,2.5,26.6c3,7.9,8.2,15.4,9.2,24
				c1,9.2-6.4,17.6-2.7,26.7c0.7-0.6,1.5-1.1,2.2-1.7c-3.5-2.4-4.9-7-4.8-11.1c0-1.9-3-1.9-3,0c-0.1,5.2,1.9,10.6,6.3,13.7
				c1,0.7,2.7-0.5,2.2-1.7c-2.3-5.7,0.4-10.8,1.9-16.3c1.1-3.8,1.4-7.7,0.7-11.6c-1.6-9.1-7.4-16.8-10.1-25.6
				c-3-9.6,0.1-19.5-2.2-29.2c-1.8-7.8-6.9-15.7-12.9-21C241.1,128.6,239,130.7,240.4,132L240.4,132z"/>
		</g>
		<g>
			<path class="st2" d="M245.9,126.8c6.3,5.7,11.1,12.9,13.9,21c2.9,8.4,2.5,15.9,1.9,24.5c-0.6,8,2.2,13.6,6,20.3
				c3.9,6.9,5.7,16.1-1.8,21.5c-1.6,1.1-0.1,3.7,1.5,2.6c5.3-3.8,7.5-10.2,6.6-16.6c-1.4-9.5-9.7-15.8-9.4-26.1
				c0.3-9.5,1.3-17.8-1.9-27c-3-8.5-8-16.2-14.6-22.3C246.6,123.3,244.5,125.5,245.9,126.8L245.9,126.8z"/>
		</g>
		<g>
			<path class="st2" d="M258.3,124.3c3.8,5.2,6.5,11.1,7.8,17.4c1.4,6.6,0.4,13.3,1.2,20c0.6,5.4,2.9,9.2,5.4,13.9
				c3.5,6.7,4.5,14.2,3.1,21.7c0.8-0.2,1.7-0.4,2.5-0.7c-2.5-2.5-5.1-4.8-8.6-5.7c-1.9-0.5-2.7,2.4-0.8,2.9c3,0.8,5.2,2.8,7.3,5
				c0.8,0.7,2.3,0.5,2.5-0.7c1.2-6.1,1-12.3-0.9-18.2c-2.3-7-7.1-12.2-7.6-19.8c-0.4-6.4,0.2-12.7-1.1-19.1
				c-1.4-6.6-4.2-12.7-8.2-18.1C259.8,121.2,257.2,122.7,258.3,124.3L258.3,124.3z"/>
		</g>
		<g>
			<path class="st2" d="M261.8,115.5c1.7,5.8,7.4,8.7,9.4,14.2c2.2,6,0.6,12.8,1.9,19c1.3,6.1,5,11.3,6,17.6
				c1.1,6.7,0.5,13.8-2.1,20.1c-0.7,1.8,2.2,2.6,2.9,0.8c2.3-5.7,3-12,2.5-18.2c-0.6-6.7-3.4-11.9-5.5-18.1
				c-2.3-6.6-0.6-13.8-2.3-20.5c-1.7-6.4-8.1-9.6-9.9-15.7C264.1,112.8,261.2,113.6,261.8,115.5L261.8,115.5z"/>
		</g>
		<g>
			<path class="st2" d="M276,53.6c6.5,8.4,7.4,19.9,8.7,30c0.8,6.1,1,14.6,6,19c0.2-0.8,0.4-1.7,0.7-2.5c-3.6,1.5-7.4-2.3-9-5
				c-1-1.6-3.6-0.1-2.6,1.5c2.3,3.8,7.6,8.4,12.4,6.4c1-0.4,1.6-1.7,0.7-2.5c-5.6-5-5-16.7-5.9-23.5c-1.2-9-3-18.2-8.7-25.6
				C276.9,50,274.8,52.1,276,53.6L276,53.6z"/>
		</g>
		<g>
			<path class="st2" d="M275.7,52.4c-4.1,23.1,3.1,46.1,11.5,67.4c0.7,1.8,3.6,1,2.9-0.8c-8.2-20.7-15.4-43.3-11.5-65.8
				C278.9,51.3,276,50.5,275.7,52.4L275.7,52.4z"/>
		</g>
		<g>
			<path class="st2" d="M272.1,97c12.9,12.8,23.7,34.8,12.1,51.7c-1.1,1.6,1.5,3.1,2.6,1.5c12.4-18,1.3-41.6-12.5-55.4
				C272.8,93.6,270.7,95.7,272.1,97L272.1,97z"/>
		</g>
		<g>
			<path class="st2" d="M270.8,106.1c2.6,5.9,5.2,11.9,7.8,17.8c3.1,7,5.8,13.2,5.5,21c-0.3,8.9-1.6,18.7,6.4,24.8
				c0.1-0.9,0.2-1.8,0.4-2.7c-3.5,1.5-7.4,1.8-9.2-2.3c-0.8-1.8-3.4-0.2-2.6,1.5c2.3,5.2,7.8,5.7,12.6,3.7c1.2-0.5,1.4-1.9,0.4-2.7
				c-9.5-7.2-3.2-21.8-5.6-31.6c-1.2-4.8-3.6-9.4-5.6-14c-2.5-5.7-5-11.3-7.5-17C272.7,102.8,270.1,104.3,270.8,106.1L270.8,106.1z"
				/>
		</g>
		<g>
			<path class="st2" d="M212.9,112.7c6.5,1.2,11.5,5,14.7,10.8c1.2,2.3,4.2,8.2,2.6,11c-1,1.7,1.6,3.2,2.6,1.5
				c2.2-3.7-0.5-9.8-2.2-13.2c-3.4-6.8-9.4-11.6-16.9-13C211.8,109.5,211,112.4,212.9,112.7L212.9,112.7z"/>
		</g>
		<g>
			<path class="st2" d="M114.6,144.2c-6.9,12.1-11,24.8-13.6,38.4c-0.9,4.8-1.8,9.7-3.5,14.3c-2.2,5.9-6.4,10.8-8.9,16.7
				c-2.5,6.1-4,12.7-3.6,19.3c0.4,6.9,3,12.4,6.4,18.3c1,1.7,2,3.4,2.5,5.2c0.9,3.1,0,5.6-0.7,8.6c-0.7,2.9-0.8,5.9-0.2,8.8
				c1.6,8.4,10.2,14.7,9,23.6c-0.2,1.6,1.8,2.8,2.7,1.2c5.4-9.6,7.4-23.3,1.9-33.3c-0.9-1.7-3.5-0.2-2.6,1.5
				c4.9,9,2.9,21.6-1.9,30.3c0.9,0.4,1.8,0.8,2.7,1.2c1-7.1-2.8-12.1-6.1-18c-2.6-4.6-3.8-9.2-2.6-14.5c0.7-3,1.7-5.6,1.1-8.7
				c-1.2-6.7-6.6-11.8-8.3-18.4c-2.1-8.3-0.5-17.3,2.9-25c2.3-5.1,5.8-9.4,8-14.5c1.8-4.3,2.8-8.9,3.7-13.5
				c2.8-14.1,6.6-27.3,13.8-39.9C118.2,144,115.6,142.5,114.6,144.2L114.6,144.2z"/>
		</g>
		<g>
			<path class="st2" d="M62.1,234.5c0.6-4.5,1.5-10.8,4.6-14.5c1.2-1.5-0.9-3.6-2.1-2.1c-3.7,4.4-4.8,11.1-5.5,16.6
				C58.8,236.4,61.8,236.4,62.1,234.5L62.1,234.5z"/>
		</g>
		<g>
			<path class="st2" d="M39.7,182.6c1.2-1.9,2.4-3.8,4-5.3c1.8-1.7,4.1-2.8,6.2-4.1c1.7-1,0.1-3.6-1.5-2.6c-2.3,1.4-4.8,2.7-6.8,4.5
				c-1.8,1.7-3.2,3.8-4.5,5.9C36.1,182.7,38.7,184.2,39.7,182.6L39.7,182.6z"/>
		</g>
		<g>
			<path class="st2" d="M34.2,146.2c0.5-3.9,1.6-7.7,3.4-11.2c1.6-3.1,3.9-7.4,7.4-8.6c1.8-0.6,1-3.5-0.8-2.9
				c-8.2,2.8-12,15.1-13,22.7C31,148.1,34,148,34.2,146.2L34.2,146.2z"/>
		</g>
		<g>
			<path class="st2" d="M86.1,141.8c0.4-7.4-0.2-14.7-1.6-21.9c-0.4-1.9-3.3-1.1-2.9,0.8c1.3,7,1.8,14,1.5,21.1
				C83,143.7,86,143.7,86.1,141.8L86.1,141.8z"/>
		</g>
		<g>
			<path class="st2" d="M62.4,101.7c3.7,5.2,6.1,11.3,5.6,17.8c-0.1,1.9,2.9,1.9,3,0c0.5-6.9-2.1-13.7-6.1-19.3
				C63.9,98.7,61.3,100.2,62.4,101.7L62.4,101.7z"/>
		</g>
		<g>
			<path class="st2" d="M71.9,116.6c2,2.8,3.5,5.8,3.3,9.4c-0.1,1.9,2.9,1.9,3,0c0.2-4-1.4-7.7-3.7-10.9
				C73.4,113.5,70.8,115,71.9,116.6L71.9,116.6z"/>
		</g>
		<g>
			<path class="st2" d="M55.2,87.3c2,5.6,2.8,11.5,2.6,17.4c-0.1,1.9,2.9,1.9,3,0c0.2-6.2-0.6-12.4-2.7-18.2
				C57.4,84.7,54.5,85.5,55.2,87.3L55.2,87.3z"/>
		</g>
		<g>
			<path class="st2" d="M51.6,78c0.8,1,1.1,2.8,1.3,4c0.3,1.5,0.5,3,0.6,4.5c0,1.9,3,1.9,3,0c-0.1-3.3-0.6-8-2.8-10.6
				C52.4,74.4,50.3,76.5,51.6,78L51.6,78z"/>
		</g>
		<g>
			<path class="st2" d="M47.8,69.8c1.4,0.9,2,2.9,2.5,4.4c0.4,1.3,0.9,2.7,1,4.1c0.1,1.9,3.1,1.9,3,0c-0.1-3.6-1.8-9-4.9-11
				C47.7,66.2,46.2,68.8,47.8,69.8L47.8,69.8z"/>
		</g>
		<g>
			<path class="st2" d="M88.4,136c3.8,3.8,6.4,8.5,8.3,13.5c0.7,1.8,3.6,1,2.9-0.8c-2.1-5.5-4.9-10.7-9.1-14.8
				C89.1,132.6,87,134.7,88.4,136L88.4,136z"/>
		</g>
		<g>
			<path class="st2" d="M236,142.2c0.7-1.9,1.8-3.7,2.8-5.4s2.1-3.7,3.7-5c1.5-1.2-0.6-3.3-2.1-2.1c-1.7,1.4-3,3.7-4.1,5.6
				c-1.2,1.9-2.3,4-3.1,6.1C232.4,143.2,235.3,144,236,142.2L236,142.2z"/>
		</g>
		<g>
			<path class="st2" d="M245.7,132.9c0.2-2.4,1.1-4.4,2.4-6.5c1-1.6-1.6-3.1-2.6-1.5c-1.6,2.5-2.6,5-2.8,8
				C242.6,134.8,245.6,134.8,245.7,132.9L245.7,132.9z"/>
		</g>
		<g>
			<path class="st2" d="M254.5,130.7c0.2-2.4,0.8-4.6,1.8-6.8c0.3-0.7,0.6-1.3,1-1.9c0.1-0.2,0.6-0.8,0.4-0.7
				c-0.6,0.1-1.2,0.2-1.8,0.2c0.6,0.3,2.4,2.6,2.9,3.6c0.8,1.7,3.4,0.2,2.6-1.5c-0.7-1.5-2.5-4-4-4.7c-0.6-0.3-1.3-0.3-1.8,0.2
				c-1,0.9-1.6,2.5-2.2,3.7c-1.1,2.5-1.8,5.1-2,7.8C251.4,132.6,254.4,132.6,254.5,130.7L254.5,130.7z"/>
		</g>
		<g>
			<path class="st2" d="M262.3,124.7c0.2-2.9,1.2-6.4,2.3-9.2c0.7-1.8-2.2-2.6-2.9-0.8c-1.2,3.1-2.3,6.7-2.4,10
				C259.2,126.6,262.2,126.6,262.3,124.7L262.3,124.7z"/>
		</g>
		<g>
			<path class="st2" d="M267.4,119.9c0.1-2.9,1-5.8,1.9-8.5c0.7-2,1.4-4.9,3.1-6.3c1.5-1.3-0.7-3.4-2.1-2.1
				c-1.9,1.6-2.7,4.6-3.6,6.9c-1.2,3.2-2.2,6.7-2.3,10.1C264.3,121.8,267.3,121.8,267.4,119.9L267.4,119.9z"/>
		</g>
		<g>
			<path class="st2" d="M273.8,105.2c0-1.4,0-2.8,0-4.2c0-1-0.3-2.9,0.2-3.9c0.9-1.7-1.7-3.2-2.6-1.5c-0.7,1.3-0.6,2.6-0.6,4.1
				c0,1.8,0,3.7,0,5.5C270.8,107.1,273.8,107.1,273.8,105.2L273.8,105.2z"/>
		</g>
		<g>
			<path class="st2" d="M274.8,96.8c-0.1-6.5,0.3-13.5,3.2-19.4c0.9-1.7-1.7-3.2-2.6-1.5c-3.2,6.4-3.7,13.9-3.6,20.9
				C271.8,98.7,274.8,98.7,274.8,96.8L274.8,96.8z"/>
		</g>
		<g>
			<path class="st2" d="M117.7,144.8c2.1-5,9.5-5.9,14.2-6.8c6.4-1.3,12.8-2.2,18.9-4.6c4.9-2,10.9-5.1,13.2-10.3
				c3.4-7.7,2.9-18.2,3.2-26.4c0.1-1.9-2.9-1.9-3,0c-0.1,4.8-0.3,9.7-0.9,14.5c-0.6,5-1,10.7-4.9,14.3c-5.1,4.7-12.2,6.6-18.8,8
				c-7.9,1.7-21.1,1.8-24.8,10.5C114.1,145.7,117,146.5,117.7,144.8L117.7,144.8z"/>
		</g>
		<g>
			<path class="st2" d="M166.9,94.9c-2.4-5.8-9.3-4.6-14.3-3.3c-9.7,2.6-18.8,7.6-27.7,12c-4.4,2.2-8.9,4.4-13.4,6.4
				c-3.6,1.5-6.9,2.9-9,6.4c-2.5,4.5-2.1,9.8-2.2,14.7c-0.2,6.4-1.4,12.7-3.2,18.8c-2.1,7.3-4.8,14.5-8.3,21.2
				c-2.6,5-5.7,10.5-10.3,13.9c-1.5,1.1,0,3.7,1.5,2.6c8.8-6.5,13.7-18.7,17.3-28.6c2.5-6.7,4.4-13.7,5.4-20.9
				c0.9-6.4-0.9-14.8,2.7-20.5c2.6-4.2,9.5-5.7,13.8-7.8c5.5-2.6,11-5.4,16.5-8.1c4-1.9,25.2-13.5,28.3-6
				C164.8,97.4,167.7,96.6,166.9,94.9L166.9,94.9z"/>
		</g>
		<g>
			<path class="st2" d="M167.8,95.8c1.9-2.5,11.3-1.8,14.2-1.5c9.5,1,18.3,5.6,24.5,12.9c7.1,8.3,9.6,19.3,8.9,30
				c-0.3,4.1-1,8.2-2.2,12.2c-0.5,1.5-1.2,5.3-2.7,6.2c-1.7,1-0.2,3.6,1.5,2.6c1.8-1.1,2.6-3.7,3.3-5.6c1.6-4.3,2.5-9,2.9-13.5
				c1.2-12.1-1.6-24.6-9.7-34c-7-8.2-16.9-13.1-27.6-13.8c-4.1-0.3-12.9-0.8-15.8,3.1C164,95.9,166.6,97.4,167.8,95.8L167.8,95.8z"
				/>
		</g>
		<g>
			<path class="st2" d="M183.7,157.3c1.3-3.2,3.1-6.4,6.5-7.5c1.8-0.5,1.1-3.4-0.8-2.9c-4.6,1.3-7,5.4-8.6,9.6
				C180.1,158.3,183,159.1,183.7,157.3L183.7,157.3z"/>
		</g>
		<g>
			<path class="st2" d="M196,154.9c1.3-2.3,3.5-4.7,6.1-5.5c1.8-0.6,1.1-3.5-0.8-2.9c-3.4,1-6.2,3.9-7.9,6.9
				C192.4,155.1,195,156.6,196,154.9L196,154.9z"/>
		</g>
		<g>
			<path class="st2" d="M162.1,145.3c1.3,0.8,2.6,1.6,3.6,2.8c0.9,1.1,1.6,2.5,2.2,3.8c0.8,1.7,3.4,0.2,2.6-1.5
				c-0.7-1.6-1.5-3.1-2.7-4.4c-1.2-1.4-2.7-2.4-4.2-3.3C161.9,141.7,160.4,144.3,162.1,145.3L162.1,145.3z"/>
		</g>
		<g>
			<path class="st2" d="M153.3,146.4c0.5,0.7,0.9,1.5,1.2,2.3c0.2,0.8,1,1.3,1.8,1c0.8-0.2,1.3-1.1,1-1.8c-0.4-1.3-1.1-2.5-1.9-3.6
				c-0.5-0.6-1.6-0.5-2.1,0C152.6,144.9,152.8,145.8,153.3,146.4L153.3,146.4z"/>
		</g>
		<g>
			<path class="st2" d="M148.2,144.9c0.3,0.9,0.5,1.7,0.7,2.6c0.1,0.8,1.1,1.2,1.8,1c0.9-0.2,1.2-1,1-1.8c-0.1-0.9-0.4-1.8-0.7-2.6
				s-1-1.3-1.8-1C148.6,143.2,148,144.1,148.2,144.9L148.2,144.9z"/>
		</g>
		<g>
			<path class="st2" d="M133.1,142.3c2.2,2.4,3.8,5.1,4.7,8.2c0.6,1.8,3.5,1.1,2.9-0.8c-1.1-3.6-3-6.7-5.5-9.5
				C133.9,138.7,131.8,140.8,133.1,142.3L133.1,142.3z"/>
		</g>
		<g>
			<path class="st2" d="M128.1,138.9c0.3,1.6,1,3.1,2.1,4.3c0.5,0.6,1.6,0.5,2.1,0c0.6-0.6,0.5-1.5,0-2.1c-0.7-0.9-1.1-1.9-1.3-3
				c-0.1-0.8-1.1-1.2-1.8-1C128.3,137.3,127.9,138.1,128.1,138.9L128.1,138.9z"/>
		</g>
		<g>
			<path class="st2" d="M205.4,150.9c1.9-0.8,3.1-2.7,4.2-4.3c0.5-0.7,0.1-1.7-0.5-2.1c-0.8-0.4-1.6-0.1-2.1,0.5
				c-0.9,1.2-1.7,2.6-3.2,3.2c-0.7,0.3-0.9,1.4-0.5,2.1C203.8,151.1,204.6,151.2,205.4,150.9L205.4,150.9z"/>
		</g>
	</g>
</g>
</svg>
