<?xml version="1.0" encoding="utf-8"?>
<!-- Generator: Adobe Illustrator 19.2.0, SVG Export Plug-In . SVG Version: 6.00 Build 0)  -->
<svg version="1.1" id="Layer_1" xmlns="http://www.w3.org/2000/svg" xmlns:xlink="http://www.w3.org/1999/xlink" x="0px" y="0px"
	 viewBox="0 0 130 240" style="enable-background:new 0 0 130 240;" xml:space="preserve">
<style type="text/css">
	.st0{fill:#EFEFEF;}
	.st1{fill:#7A7B7B;}
</style>
<g>
	<path class="st0" d="M41.8,217c0.1-6,0.2-12.5,0.2-18.6c0-2.3,0-4.7,0-7v-6.2c0.2-23.2,0.3-47.2,0.8-70.8c0-1.4,0.1-2.8,0.1-4.3
		c0.1-7.1,0.3-14.4,0.9-21.6c0.2-2.9,0.9-5.8,1.6-8.7l0.3-1.1c1.9-7.8,3.8-15.8,7-23.2l0.6-1l-0.7-1.1c-0.3-0.4-0.5-0.9-0.8-1.4
		c-0.2-0.3-0.3-0.6-0.5-0.9c-3-5.5-5.9-11.2-8.7-16.7l-0.5-1c3.6-4.6,10.3-5.7,15.8-6.1c1.8-0.1,3.6-0.2,5.3-0.2
		c6.1,0,11.4,0.8,15.9,2.5c2.7,1,3.5,1.9,3.7,2.5c0.1,0.2,0.2,0.6-0.3,1.6c-1.5,2.9-3.3,5.5-5.2,8.4c-2.6,3.9-5.4,7.9-7.1,12.5
		l-0.1,0.2l-0.4,1l0.6,0.9c1.1,1.7,1.9,3.9,2.6,6l0.3,0.9c1.5,4.3,2.9,9,4.3,14.3c2.4,9.5,2.4,19.1,2.5,29.2c0,1.9,0,3.8,0.1,5.7
		c0.4,23.9,0.4,48.3,0.4,71.8c0,10.8,0,21.5,0,32.5L41.8,217L41.8,217z"/>
	<g>
		<g>
			<path class="st1" d="M42.9,34.1c3.6-4.9,11.4-5.7,17-5.9c6.1-0.3,12.7,0.1,18.5,2.2c0.9,0.3,3.6,1.1,3.8,2.2
				c0.1,1.1-2.9,4.4-3.4,5.3c-3.4,5.3-7.3,10.8-9.5,16.8c0.6-0.3,1.2-0.7,1.8-1c-4.8-0.8-9.7-1-14.6-0.8c-0.7,0-2.3,0.5-3,0.2
				c0.5,0.2,0.3,0.2-0.2-0.3c-0.9-0.9-1.6-2.9-2.2-4c-2.9-5.3-5.6-10.8-8.3-16.2c-0.9-1.7-3.5-0.2-2.6,1.5c3,6,6.1,12,9.3,18
				c0.9,1.6,1.5,3.5,3.3,4s5.6-0.4,7.5-0.4c3.3,0,6.7,0.2,10,0.7c0.9,0.1,1.5-0.2,1.8-1c2.8-7.6,8.6-13.6,12.2-20.8
				c1.9-3.7-1.2-5.6-4.6-6.9c-6.8-2.5-14.9-3-22-2.4c-6.3,0.5-13.6,1.9-17.6,7.3C39.2,34.2,41.8,35.7,42.9,34.1z"/>
		</g>
		<g>
			<path class="st1" d="M50.9,54.7c-3.3,7.6-5.3,15.9-7.2,23.9c-0.8,3.3-1.6,6.4-1.9,9.7c-0.7,8.6-0.8,17.3-1,26
				c-0.5,25.7-0.7,51.3-0.8,77c-0.1,8.6,0,17.2-0.2,25.9c0,1.9,3,1.9,3,0c0.9-41.6-0.5-83.4,1.8-125c0.7-12.1,4.1-25,8.9-36
				C54.3,54.5,51.7,53,50.9,54.7L50.9,54.7z"/>
		</g>
		<g>
			<path class="st1" d="M68.8,56c2.5,2.7,3.6,7.3,4.7,10.7c1.5,4.4,2.7,9,3.8,13.5c2.9,12.4,1.9,25.6,2,38.3
				c0.4,32.9,0.2,65.8,0.3,98.8c0,1.9,3,1.9,3,0c-0.1-34.9,0.1-69.8-0.4-104.7c-0.2-11.9,0.3-23.7-2.6-35.3
				c-1.2-4.9-2.6-9.8-4.3-14.5c-1.1-3-2.2-6.5-4.4-8.9C69.7,52.4,67.5,54.6,68.8,56L68.8,56z"/>
		</g>
		<g>
			<path class="st1" d="M59.8,55.8c-0.1,5.3-1,10.5-2.6,15.6c-1.1,3.4-2.5,8.9-5.7,11.1c-1.6,1.1-0.1,3.7,1.5,2.6
				c3.3-2.2,4.9-6.6,6.2-10.2c2.2-6.1,3.5-12.6,3.6-19C62.8,53.9,59.8,53.9,59.8,55.8L59.8,55.8z"/>
		</g>
		<g>
			<path class="st1" d="M53.8,83.4C53,76,55,69.5,60.7,64.6c1.5-1.3-0.7-3.4-2.1-2.1c-6.3,5.4-8.7,12.8-7.8,20.9
				C51,85.3,54,85.3,53.8,83.4L53.8,83.4z"/>
		</g>
	</g>
</g>
</svg>
