<?xml version="1.0" encoding="utf-8"?>
<!-- Generator: Adobe Illustrator 19.2.0, SVG Export Plug-In . SVG Version: 6.00 Build 0)  -->
<svg version="1.1" id="Layer_1" xmlns="http://www.w3.org/2000/svg" xmlns:xlink="http://www.w3.org/1999/xlink" x="0px" y="0px"
	 viewBox="0 0 130 240" style="enable-background:new 0 0 130 240;" xml:space="preserve">
<style type="text/css">
	.st0{fill:#EFEFEF;}
	.st1{opacity:0.75;fill:#BBBBBC;enable-background:new    ;}
	.st2{fill:#7A7B7B;}
	.st3{opacity:0.75;enable-background:new    ;}
	.st4{fill:#BBBBBC;}
	.st5{fill:#433947;}
	.st6{fill:#0F0814;}
</style>
<g>
	<path class="st0" d="M75.7,59.9C75.8,59.9,75.8,59.9,75.7,59.9c0.3-10,3.1-21,8.2-29.6c-3.5-8.2-35.4-9-42.5-0.9
		c0,0,5.7,18.6,8.5,31c0.1,0,0.2,0,0.2,0C45.8,75.7,32.7,156.6,31.7,215c0,0,12.8,1.9,29.4,1.9c14.3,0,29.4-1.1,29.4-1.1
		C90.8,176.4,83.3,87.8,75.7,59.9z"/>
	<g>
		<path class="st1" d="M46.6,28.2c0,0,5.6,26.4,7.3,26.7c1.7,0.3,21.2-0.6,21.6,0.9s0,4.2,0,4.2l-10.1-0.9l-9.1,0.4L50,60.4
			l-5.6-21.3L41,28.8l4.4-2.2L46.6,28.2z"/>
		<polygon class="st1" points="59.1,59 57.8,66.7 53.3,83.7 45.8,110.3 40,124.8 40,117 41.4,102.5 45.8,81.3 48.6,65 51.4,60 		"/>
		<path class="st1" d="M66.8,60c0.1,1,1.7,11.5,1.7,11.5l1.9,13.7l3,13.3L78,109l7,13.8l-1-8.5l-1.5-14.8l-2.1-15.8l-2.6-15L75.5,60
			H66.8z"/>
	</g>
	<g>
		<g>
			<path class="st2" d="M50.3,61.8c8.3-1.4,16.7-1.6,25-0.5c1,0.1,1.9-0.4,1.9-1.4c0.2-5.9,1.2-11.7,2.9-17.3c0.9-2.7,1.9-5.4,3.2-8
				c0.6-1.2,2.2-3,2.1-4.5c-0.4-4-7.4-5.9-10.5-6.6c-9.8-2.3-26.9-3.2-34.6,4.9c-0.4,0.4-0.5,0.9-0.4,1.5c3.2,10.2,6.1,20.5,8.5,31
				c0.4,1.9,3.3,1.1,2.9-0.8c-2.1-9.5-4.8-18.9-7.6-28.3c-0.2-0.6-0.9-2-0.8-2.7c-0.3,1.6,0.4,0.3,1.1,0.1c0.8-0.2,1.5-0.9,2.3-1.2
				c3.8-1.7,8.1-2.3,12.1-2.6c4.2-0.3,8.5-0.2,12.7,0.5c3,0.5,8.3,1.1,10.3,3.7c1.3,1.6-0.5,2.9-1.5,5c-1.1,2.4-2,4.8-2.8,7.3
				c-1.8,5.9-2.8,12-3,18.1c0.6-0.5,1.3-1,1.9-1.4c-8.9-1.2-17.8-1.1-26.6,0.5C47.6,59.3,48.5,62.2,50.3,61.8z"/>
		</g>
		<g>
			<path class="st2" d="M48.8,60.6c-5.6,19.7-7.9,40.9-10.6,61.2c-4.2,30.9-7.4,62-8,93.2c0,1.9,3,1.9,3,0
				c0.6-31.4,3.9-62.8,8.1-93.8c2.7-19.8,4.9-40.5,10.4-59.8C52.2,59.6,49.3,58.8,48.8,60.6L48.8,60.6z"/>
		</g>
		<g>
			<path class="st2" d="M74,60.4c4.8,17.4,6.5,35.9,8.5,53.8c2.5,23.3,4.4,46.7,5.6,70.2c0.5,10.8,1,21.7,0.9,32.5c0,1.9,3,1.9,3,0
				c0.1-21.2-1.3-42.3-2.9-63.4c-1.7-22.5-3.9-45.1-7.2-67.4c-1.3-8.8-2.7-17.8-5.1-26.4C76.4,57.7,73.5,58.5,74,60.4L74,60.4z"/>
		</g>
		<g>
			<path class="st2" d="M57.7,59.8C54.4,74,50.6,88,47.2,102.2c-0.5,1.9,2.4,2.7,2.9,0.8c3.4-14.1,7.2-28.2,10.5-42.4
				C61,58.7,58.2,57.9,57.7,59.8L57.7,59.8z"/>
		</g>
		<g>
			<path class="st2" d="M65.3,60c3.1,23,8,46,18.9,66.7c0.9,1.7,3.5,0.2,2.6-1.5C76.2,105.1,71.3,82.4,68.3,60
				C68,58.1,65,58.1,65.3,60L65.3,60z"/>
		</g>
		<g>
			<path class="st2" d="M45.2,107.8c-1.5,5.5-3.7,11.1-6.1,16.3c-0.8,1.7,1.8,3.3,2.6,1.5c2.6-5.4,4.9-11.2,6.4-17
				C48.6,106.7,45.7,105.9,45.2,107.8L45.2,107.8z"/>
		</g>
	</g>
	<g class="st3">
		<circle class="st4" cx="61.9" cy="183.6" r="3.8"/>
	</g>
	<g>
		<circle class="st5" cx="61.9" cy="180.6" r="4.3"/>
		<path class="st6" d="M61.9,176.7c2.1,0,3.8,1.7,3.8,3.8s-1.7,3.8-3.8,3.8c-2.1,0-3.8-1.7-3.8-3.8S59.8,176.7,61.9,176.7
			 M61.9,175.7c-2.7,0-4.8,2.2-4.8,4.8c0,2.7,2.2,4.8,4.8,4.8c2.7,0,4.8-2.2,4.8-4.8C66.8,177.9,64.6,175.7,61.9,175.7L61.9,175.7z"
			/>
	</g>
</g>
</svg>
