<?xml version="1.0" encoding="utf-8"?>
<!-- Generator: Adobe Illustrator 19.2.0, SVG Export Plug-In . SVG Version: 6.00 Build 0)  -->
<svg version="1.1" id="Layer_1" xmlns="http://www.w3.org/2000/svg" xmlns:xlink="http://www.w3.org/1999/xlink" x="0px" y="0px"
	 viewBox="0 0 530 300" style="enable-background:new 0 0 530 300;" xml:space="preserve">
<style type="text/css">
	.st0{fill:#45C0E9;}
	.st1{fill:#EFEFEF;}
	.st2{opacity:0.7;fill:#0A8CBF;enable-background:new    ;}
	.st3{fill:#7A7B7B;}
	.st4{fill:#028FB5;}
</style>
<g>
	<path class="st0" d="M484.9,149.9c-9.6-7.3-87.1-51.1-95.8-56.5c-2.4-1.5-13.4-5.6-23.3-12.2c-0.9-0.6,0.5-4.8-0.4-5.4
		c-3.7-2.7-7.1-4.9-9.2-7.8c-7.7,17-145.5,54.2-191.4,0.5c-0.7-0.4-8.7,9.7-10,14.7c-0.5,1.8,1.5,2.3,1.5,2.3l-30.8,21
		c0,0-57.4,27.7-92.9,58.3c-20.8,17.9-30.4,45.8-2.5,67c83.8,63.6,328,89.2,449.3,8.8C507.9,221.7,518.2,175,484.9,149.9z"/>
	<path class="st1" d="M165.5,69.2c-2.3-3.4-11.2,14.6-10.7,15.2c46.7,54.5,204.4,32.6,211.6-7.1c1.3,2.6-9.9-10.2-10.3-9.4
		C341.8,96.4,194.5,113.1,165.5,69.2z"/>
	<path class="st1" d="M203.4,104.5c8.7-6.1-35.6-23.3-35.6-23.3l-13,1.8v0.1c-0.5,1.8,1.5,2.3,1.5,2.3l-30,15.1
		c0,0-58.2,23.6-93.7,54.2c-20.8,17.9-30.4,55.8-2.5,77c15.2,11.5,35.7,21.8,59.7,30.5C89.8,262.2,126.2,158.5,203.4,104.5z"/>
	<path class="st1" d="M484.9,149.9c-9.6-7.3-87.1-51.1-95.8-56.5c-2.4-1.5-13.4-5.6-23.3-12.2c-0.9-0.6,0.5-4.8-0.4-5.4
		c-2.9-2.1-5.7-4-7.8-6.1c0,0-41,24.7-32.7,32.6c60.8,58,97,165.9,97,165.9c21.1-7.3,40.5-16.5,57.5-27.7
		C507.9,221.7,518.2,175,484.9,149.9z"/>
	<path class="st2" d="M237.3,142.1c7.8-0.3,12.8,1.2,24.3-1c15-2.9,33.1-10.6,33.1-10.6c1.4-0.5,2.9,0.6,2.9,2.1l0,0
		c0,0.7-0.4,1.4-1,1.9l-12,8.1c0,0-11.7,7-21.6,8.5c-6.3,1-25.4,2.3-25.4,2.3c-2.8,0.2-5.1-2.1-4.9-4.9l0.2-2.3
		C233.2,143.9,235,142.2,237.3,142.1z"/>
	<g>
		<g>
			<path class="st3" d="M366.7,82.9c23.4,11.2,46,24,68.1,37.6c22,13.5,43.9,27.8,63.5,44.8c1.9,1.7,4.8-1.1,2.8-2.8
				c-19.4-16.8-41.1-31.1-63-44.6c-22.5-13.9-45.6-27-69.4-38.5C366.4,78.3,364.4,81.8,366.7,82.9L366.7,82.9z"/>
		</g>
		<g>
			<path class="st3" d="M35,155.2c17.3-14.9,38.9-25.7,59-36.3c20.2-10.6,40.8-21.3,62.2-29.1c2.4-0.9,1.4-4.7-1.1-3.9
				c-21.8,7.9-42.7,18.7-63.2,29.5c-20.4,10.8-42.2,21.8-59.9,37C30.2,154,33.1,156.8,35,155.2L35,155.2z"/>
		</g>
		<g>
			<path class="st3" d="M166.5,68.1c-4.1-4.6-10.4,9.3-11.5,11.5c-1,2.2-2.3,4-1,6.2c2,3.4,6.3,6.4,9.4,8.8
				c14.9,11.6,33.7,17.7,52.1,21.1c21.2,3.9,43,4.4,64.4,2.4c19.2-1.8,38.5-5.5,56.4-12.9c12.3-5.1,28-13.3,31.5-27.4
				c-0.9,0.1-1.8,0.2-2.7,0.4c0-0.1-0.1-0.3-0.1-0.4c0.5-0.5,1-1,1.5-1.5c1,0.1-1.2-1.6-1.7-2.1c-1.2-1.2-2.4-2.5-3.7-3.7
				c-1.1-1.1-3.4-4.3-5.3-3.9c-1.3,0.3-2.2,2.7-3,3.7c-1.5,1.7-3.3,3.2-5.2,4.4c-10.9,7.5-24.6,11-37.4,13.8
				c-33.4,7.4-70.5,9.4-104.1,1.7c-14.4-3.3-30.7-8.9-39.4-21.7c-1.1-1.6-3.7-0.1-2.6,1.5c7.4,10.9,19.8,16.9,32.1,20.7
				c16.4,5.1,33.8,6.7,50.9,7c18.1,0.3,36.3-1.2,54.1-4.3c14.4-2.6,29.3-6,42.4-12.8c4.6-2.4,9.3-5.3,12.4-9.5
				c0.3-0.4,0.7-0.8,0.9-1.3c0.3-1-0.8-0.4-0.6,0.2c0.4,1.2,3,2.9,3.9,3.9c1.5,1.6,3.9,5.1,6.3,5.4c0.8,0.1,1.5-0.8,1.5-1.5
				c0-0.4-0.1-0.7-0.3-1.1c-0.5-1.2-2.4-0.8-2.7,0.4c-2.8,11.2-14.3,18.2-24,22.9c-14.9,7.3-31.5,11.2-47.9,13.7
				c-36,5.4-77,4.6-110.6-10.9C174.3,99,166.6,94.3,160,88c-0.7-0.7-1.5-1.4-2.2-2.2c-0.2-0.2-1.8-2.2-1.7-1.1
				c-0.2-1.1,1.5-3.5,1.9-4.4c0.6-1.3,6.1-9.9,6.2-9.8C165.7,71.7,167.8,69.6,166.5,68.1z"/>
		</g>
		<g>
			<path class="st3" d="M42.4,150.4c26.9,27.7,40.4,69.9,42.1,107.9c0.1,1.9,3.1,1.9,3,0c-1.7-38.7-15.5-81.7-43-110
				C43.2,146.9,41,149,42.4,150.4L42.4,150.4z"/>
		</g>
		<g>
			<path class="st3" d="M470.5,146.6c-36.6,27.7-46.8,74.3-52.6,117.3c-0.3,1.9,2.6,2.7,2.9,0.8c5.7-42.1,15.3-88.4,51.3-115.5
				C473.6,148,472.1,145.4,470.5,146.6L470.5,146.6z"/>
		</g>
		<g>
			<path class="st4" d="M246.2,143.7c1.9,0,1.9-3,0-3S244.3,143.7,246.2,143.7L246.2,143.7z"/>
		</g>
		<g>
			<path class="st4" d="M246.2,143.5c9.6,0.4,18.8-1,27.9-4.1c1.8-0.6,1-3.5-0.8-2.9c-8.8,3-17.8,4.4-27.1,4
				C244.3,140.5,244.3,143.5,246.2,143.5L246.2,143.5z"/>
		</g>
		<g>
			<path class="st4" d="M251.5,152.6c13.1-0.1,25.6-3.7,36.7-10.5c1.6-1,0.1-3.6-1.5-2.6c-10.7,6.6-22.7,10-35.2,10.1
				C249.6,149.7,249.6,152.7,251.5,152.6L251.5,152.6z"/>
		</g>
	</g>
</g>
</svg>
