<?xml version="1.0" encoding="utf-8"?>
<!-- Generator: Adobe Illustrator 19.2.0, SVG Export Plug-In . SVG Version: 6.00 Build 0)  -->
<svg version="1.1" id="Layer_1" xmlns="http://www.w3.org/2000/svg" xmlns:xlink="http://www.w3.org/1999/xlink" x="0px" y="0px"
	 viewBox="0 0 130 240" style="enable-background:new 0 0 130 240;" xml:space="preserve">
<style type="text/css">
	.st0{fill:#DDD9D4;}
	.st1{fill:#C49E53;}
	.st2{fill:#775318;}
	.st3{opacity:0.35;}
	.st4{fill:#0D0B0F;}
	.st5{fill:#636363;}
</style>
<g>
	<path class="st0" d="M60.4,72.3c24.5,0,24.9-51.5,2.9-51.5C35.4,20.8,39.4,72.3,60.4,72.3z"/>
	<g>
		<path class="st1" d="M67.2,215.3l-0.7-8.7L66,183.8l-0.6-31.2l-0.1-32.5c0,0-1.1-25.8-1.1-26.3s-0.5-22.1-0.5-22.1l3.2-1L68.2,86
			l2,40.8L72,166v26l1.1,23.7L67.2,215.3z"/>
		<path class="st1" d="M43.5,212.9l2-12.4l2.4-27.8l2.7-38.5l2.3-31.6l1.4-21.8l0.4-10l4.2,1.6l-0.2,12c0,0-0.4,28.2-1.2,28.5
			c-0.8,0.3-1.7,30.5-1.7,30.5L53,181.9l-1.9,26.9l-1.7,8.3l-5.2-2.1L43.5,212.9z"/>
	</g>
	<g>
		<g>
			<path class="st2" d="M53.2,72.4c-0.1,17.1-2.1,34.3-3.3,51.4c-1.7,23.9-3.6,47.8-5.5,71.7c-0.5,6.4-0.9,12.9-1.6,19.3
				c-0.2,1.9,2.8,1.9,3,0c4.2-39.9,6.5-80.2,9.2-120.3c0.5-7.3,1.2-14.7,1.2-22.1C56.2,70.4,53.2,70.4,53.2,72.4L53.2,72.4z"/>
		</g>
		<g>
			<path class="st2" d="M57.4,73.3c0.7,13.8-0.7,27.9-1.4,41.6c-1.2,23.2-2.6,46.4-4.6,69.5c-0.9,11-2,22-3.5,32.9
				c-0.3,1.9,2.6,2.7,2.9,0.8c6.1-41.9,7.7-84.9,9.3-127.2c0.2-5.8,0.6-11.8,0.3-17.6C60.3,71.4,57.3,71.4,57.4,73.3L57.4,73.3z"/>
		</g>
		<g>
			<path class="st2" d="M62.2,73.3c1.1,42.8,1.6,85.7,2.7,128.5c0.1,4.6-0.1,9.5,0.5,14.1c0.3,1.9,3.2,1.1,2.9-0.8
				c-0.4-2.7-0.3-8-0.4-11.4c-0.2-8.8-0.4-17.6-0.6-26.5c-0.5-23.3-0.9-46.6-1.4-69.8c-0.2-11.3-0.5-22.7-0.8-34
				C65.2,71.4,62.2,71.4,62.2,73.3L62.2,73.3z"/>
		</g>
		<g>
			<path class="st2" d="M65.8,71.7c2.9,47.9,5.4,95.9,5.7,144c0,1.9,3,1.9,3,0c-0.3-48-2.7-96-5.7-144
				C68.7,69.8,65.7,69.8,65.8,71.7L65.8,71.7z"/>
		</g>
	</g>
	<g class="st3">
		<path class="st4" d="M60.4,79.7c0-2.1,0-4.3-0.1-6.4c-0.1-1.2-1.3-1.7-2.1-1.4l-3.6-1.3v0.2c-0.7,0-1.5,0.5-1.5,1.4
			c0,1.3,0,2.7-0.1,4C55.2,78.3,57.6,79.4,60.4,79.7z"/>
		<path class="st4" d="M69.2,77.6c-0.1-2-0.2-3.9-0.4-5.9c-0.1-1.6-2.3-1.9-2.9-0.7l-2.3,0.7c0,0,0,0.1,0,0.2
			c-0.8,0-1.5,0.5-1.5,1.4c0.1,2.2,0.1,4.4,0.2,6.6C65,79.9,67.2,78.9,69.2,77.6z"/>
	</g>
	<g>
		<g>
			<path class="st5" d="M60.4,73.8C82.3,73.3,85.9,39.2,75,25.3c-6-7.6-17.1-7.6-24.3-1.6c-7.8,6.6-9.6,18.4-8.3,28.1
				C43.7,61.5,49.1,73.5,60.4,73.8c1.9,0.1,1.9-2.9,0-3C52,70.6,47.6,62,46,54.8c-1.9-8.3-1.4-18.4,3.7-25.5
				c4.8-6.8,15.4-9.9,21.8-3.5c6.1,6,7.1,16.4,6.1,24.4c-1.1,9.5-6.2,20.4-17.1,20.7C58.5,70.9,58.4,73.9,60.4,73.8z"/>
		</g>
		<g>
			<path class="st5" d="M60.6,67C77,66.5,79.9,40.9,71.4,30.4C67,24.9,59,24.9,53.6,29.2c-6.1,4.9-7.5,14-6.4,21.4
				C48.2,57.9,52.2,66.7,60.6,67c1.3,0,1.3-2,0-2C52,64.7,49,54,48.9,47c-0.2-8.2,3.4-18.4,13-18.9c17.3-0.9,16,36.3-1.2,36.9
				C59.3,65.1,59.3,67.1,60.6,67z"/>
		</g>
		<g>
			<path class="st5" d="M58.2,39.7c-2,3-2.5,6.8-1.2,10.2c0.9,2.4,3.6,6,6.4,3.7c2.6-2.2,2.1-7.6,1.5-10.5c-0.4-1.9-2.7-6.8-5.2-4
				c-1.3,1.5,0.9,3.6,2.1,2.1c0.1-0.1,0.2-0.2,0.3-0.3c-0.5,0.1-1,0.3-1.5,0.4c1.7,0.3,1.7,4.5,1.7,5.6s0.1,4.8-1.6,3.5
				c-1.1-0.9-1.4-3.3-1.5-4.6c0-1.8,0.6-3.3,1.5-4.7C61.9,39.6,59.3,38.1,58.2,39.7L58.2,39.7z"/>
		</g>
	</g>
</g>
</svg>
