<?xml version="1.0" encoding="utf-8"?>
<!-- Generator: Adobe Illustrator 19.2.0, SVG Export Plug-In . SVG Version: 6.00 Build 0)  -->
<svg version="1.1" id="Layer_1" xmlns="http://www.w3.org/2000/svg" xmlns:xlink="http://www.w3.org/1999/xlink" x="0px" y="0px"
	 viewBox="0 0 620 400" style="enable-background:new 0 0 620 400;" xml:space="preserve">
<style type="text/css">
	.st0{fill:#433947;}
	.st1{opacity:0.75;fill:#231E26;}
	.st2{fill:#0F0814;}
</style>
<g>
	<g>
		<path class="st0" d="M291.9,353.9l-15.8-33.6L253.4,251l-17.3-64.4l-8.6-38.6l-3.8-20.1l-5.2-33.2l-7.2,11.1
			c0,0-13.7,17.4-14.1,17.9c-0.4,0.5-20.7,18.2-20.7,18.2l-20.7,19.4l-36.4,25.8L97,199l3.2,18.6l2,35.8L104,291l-0.2,12.2
			c0,0-1.9,5.4-0.7,6.5C141.1,346.8,260.8,357,291.9,353.9z"/>
	</g>
	<g>
		<path class="st0" d="M323,353.9l15-35.6l23.5-67.4l19.6-62.3l11.3-37.7l4.5-23.1l4.6-33.2l6.2,10.1c0,0,12.7,15.4,13.1,15.9
			c0.4,0.5,17.7,16.2,17.7,16.2l20.7,18.4l36.4,25.8l22.3,13.8l-3.2,22.6l-2,35.8l-1.8,37.6l0.2,12.2c0,0,1.9,5.4,0.7,6.5
			C473.9,346.8,358,356.5,323,353.9z"/>
	</g>
	<g>
		<path class="st1" d="M248.2,352.8l-78.3-114.9c0,0-9.2,5.9-8.5,8.1c0.7,2.2,78,106.7,80.2,106.8
			C243.7,353,248.2,352.8,248.2,352.8z"/>
		<path class="st1" d="M174.4,200.5c0.2,0.5-1.9,7.7-0.6,9c1.3,1.3,16.5,4.1,18.7,3.7s4.3-2.5,4.3-2.5L174.4,200.5z"/>
		<path class="st1" d="M445.8,211.9c0,0,2.9,6.8,1.8,8.4c-1.2,1.7-20.7,11.6-23.6,9.8c-2.9-1.8-3-4.1-3-4.1L445.8,211.9z"/>
		<path class="st1" d="M448.7,257.7c0,0,6.6,4.9,6.6,7.6c0,2.7-69.8,85.9-72.4,86.2c-2.7,0.3-10.5,1-10.5,1L448.7,257.7z"/>
		<path class="st1" d="M193.2,127.4c0,0,1.4,40.9,8.6,44.6c2.6,1.3,6.3-1.3,7.3-4c1-2.7-7.9-47.7-2.8-55
			C208.9,109.2,193.2,127.4,193.2,127.4z"/>
		<path class="st1" d="M413.9,113.7c0,0,2.2,44.7-4.5,56.8c-5.2,9.3,6.7,10.4,9,6.9c5.1-7.7,10.7-46.1,7.5-50.5
			C422.6,122.5,413.9,113.7,413.9,113.7z"/>
	</g>
	<g>
		<g>
			<path class="st2" d="M398.7,95.1c1.3,11.6-2,24.1-4.4,35.3c-4.1,19-9.3,37.8-14.7,56.4c-12,41.3-25.5,82.2-40.3,122.6
				c-5.3,14.3-10.4,28.9-17.3,42.6c-1.1,2.3,2.3,4.3,3.5,2c5.8-11.7,10.3-24,14.9-36.2c7.1-18.9,13.8-37.9,20.2-57.1
				c13.6-40.7,26.8-81.8,36.4-123.7c3-13.2,7.4-28.3,5.8-41.9C402.4,92.5,398.4,92.5,398.7,95.1L398.7,95.1z"/>
		</g>
		<g>
			<path class="st2" d="M400.3,97.9c17.5,28,43.5,48.3,69.8,67.6c13.6,10,27.6,19.5,41.9,28.4c2.7,1.7,4.2,2.7,4.5,6.1
				c0.1,2.2-0.5,4.7-0.7,6.9c-0.5,4.9-0.9,9.8-1.4,14.8c-0.8,9.1-1.5,18.3-2.1,27.5c-1.4,21.3-2,42.6-1.4,63.9c0.1,2.6,4.1,2.6,4,0
				c-0.5-19-0.1-38.1,1-57.1c0.6-9.8,1.3-19.6,2.1-29.4c0.8-9.4,2.8-19.2,2.7-28.6c0-1.8-0.3-3.3-1.7-4.6c-3.1-2.7-7.7-4.7-11.2-6.9
				c-7.4-4.7-14.7-9.5-21.8-14.5c-14.8-10.4-29-21.4-42.9-32.9c-15.4-12.7-28.7-26.2-39.3-43.2C402.4,93.7,398.9,95.7,400.3,97.9
				L400.3,97.9z"/>
		</g>
		<g>
			<path class="st2" d="M438.7,141.4c-0.1,19.5,2.5,39,4.7,58.4c0.3,3,0.7,6,1,9.1c0.1,0.6,0.3,1.4,0.2,2.1c-0.1,0.7,0.8-1.2,0-0.5
				c-0.5,0.4-1.1,0.7-1.6,1.1c-7.4,4.9-15.4,9-23,13.6c-2.2,1.3-0.2,4.8,2,3.5c8-4.8,16.6-8.9,24.2-14.4c3.8-2.7,2.1-6.7,1.7-10.9
				c-2.3-20.5-5.3-41.2-5.1-61.9C442.7,138.8,438.7,138.8,438.7,141.4L438.7,141.4z"/>
		</g>
		<g>
			<path class="st2" d="M381.3,184.5c8.8,13.5,19.4,25.6,30.8,36.9c5.7,5.6,11.5,11.1,17.3,16.6c3,2.8,5.9,5.6,8.9,8.5
				c2.8,2.7,7.8,6.1,8.5,10c0.2-0.6,0.3-1.3,0.5-1.9c-24.8,30.6-48.3,62.2-73.6,92.4c-1.6,2,1.2,4.8,2.8,2.8
				c12.6-14.9,24.7-30.2,36.7-45.6c6.2-8,12.4-15.9,18.7-23.9c3.2-4.1,6.4-8.1,9.6-12.1c1.6-2,3.3-4.1,4.9-6.1
				c1.1-1.4,3.2-3.2,3.9-4.8c2.3-5.1-6.9-11.3-9.8-14.1c-6.5-6.2-13-12.3-19.5-18.5c-13.4-12.9-26.1-26.4-36.3-42.1
				C383.3,180.4,379.9,182.4,381.3,184.5L381.3,184.5z"/>
		</g>
		<g>
			<path class="st2" d="M216.7,93.8c-10.6,20.8-29.4,37.5-47,52.3c-18,15.2-37.1,29-56.7,41.9c-5.6,3.7-11.2,7.4-17,10.7
				c-0.7,0.4-1.2,1.4-0.9,2.3c1.9,6.1,2.2,12.8,2.8,19c1,10.3,1.7,20.6,2.3,31c1.1,19,2.4,38.2,1.6,57.3c-0.1,2.6,3.9,2.6,4,0
				c0.8-19.4-0.5-39.1-1.7-58.5c-0.6-10.4-1.4-20.8-2.4-31.2c-0.6-6.1-1-12.7-2.8-18.7c-0.3,0.8-0.6,1.5-0.9,2.3
				c14.2-8.1,27.7-17.6,41-27.2c20.8-15,41.3-31.1,59-49.7c8.5-8.9,16.6-18.5,22.2-29.5C221.4,93.5,217.9,91.5,216.7,93.8
				L216.7,93.8z"/>
		</g>
		<g>
			<path class="st2" d="M217.1,94.9c3.5,37.7,12.4,75,21.9,111.5c9.7,37.6,20.6,75.1,34.1,111.6c4.5,12.2,9,24.9,15.8,36
				c1.3,2.2,4.8,0.2,3.5-2c-5.9-9.8-10-20.7-14-31.4c-6.1-16.1-11.5-32.5-16.6-49c-12.2-39.2-22.9-78.9-31.3-119
				c-4-19.1-7.5-38.3-9.3-57.7C220.9,92.3,216.9,92.3,217.1,94.9L217.1,94.9z"/>
		</g>
		<g>
			<path class="st2" d="M182,137.2c-2.7,16.7-5.4,33.5-7.6,50.3c-0.5,3.5-2.4,9.6-1.1,13.1c0.8,2.3,4.2,3.6,6.2,4.6
				c5.5,2.8,11.2,5.2,17,7.5c2.4,1,3.4-2.9,1.1-3.9c-5.6-2.3-11.2-4.6-16.6-7.4c-1.2-0.6-2.8-1.2-3.7-2.2c-0.2-0.2,0.1,1,0-0.3
				c-0.1-5.1,1.1-10.5,1.8-15.5c2.1-15,4.5-30,6.9-45C186.3,135.7,182.4,134.6,182,137.2L182,137.2z"/>
		</g>
		<g>
			<path class="st2" d="M228.3,170.4c0.2,5.1-5.5,10.9-8.5,14.4c-5.8,6.8-12.1,13-18.6,19.1c-10.6,10.1-22.2,19.2-32.7,29.4
				c-2.2,2.1-1.7,3.4-0.2,5.9c2.9,4.8,6.1,9.4,9.1,14.1c11,16.5,22.1,32.9,33.4,49.2c12,17.4,24,34.9,36.8,51.8c1.5,2,5,0,3.5-2
				c-23.4-30.7-44.8-63-66.2-95.1c-3.7-5.6-7.5-11.2-11.1-16.9c-0.8-1.3-1.6-3.4-2.7-4.4c-0.1-0.1-0.2-0.6-0.3-0.6
				c-0.4-0.1-0.4,1.9-0.4,1.9c0.1,0,1-1,1.1-1c4.5-2.9,8.6-7.5,12.6-11.1c6.7-5.9,13.3-11.8,19.7-18c7.1-6.7,14.1-13.6,20.3-21.1
				c3.4-4.1,8.6-9.9,8.3-15.6C232.2,167.9,228.2,167.8,228.3,170.4L228.3,170.4z"/>
		</g>
		<g>
			<path class="st2" d="M414.6,131c0.1,10.7-0.9,21.2-3.3,31.6c-0.4,1.9,2.5,2.7,2.9,0.8c2.4-10.7,3.6-21.5,3.4-32.4
				C417.6,129.1,414.6,129.1,414.6,131L414.6,131z"/>
		</g>
		<g>
			<path class="st2" d="M421.9,135.7c0.1,8.5-0.8,16.9-2.7,25.3c-0.4,1.9,2.5,2.7,2.9,0.8c2-8.6,2.9-17.2,2.8-26.1
				C424.9,133.7,421.9,133.7,421.9,135.7L421.9,135.7z"/>
		</g>
		<g>
			<path class="st2" d="M201.9,125.3c-0.3,7.8,0.4,15.4,2,23.1c0.4,1.9,3.3,1.1,2.9-0.8c-1.6-7.4-2.2-14.7-1.9-22.3
				C205,123.4,202,123.4,201.9,125.3L201.9,125.3z"/>
		</g>
		<g>
			<path class="st2" d="M195.5,133c0.2,6.5,1.1,12.8,2.8,19c0.5,1.9,3.4,1.1,2.9-0.8c-1.6-6-2.5-12-2.7-18.3
				C198.5,131.1,195.5,131.1,195.5,133L195.5,133z"/>
		</g>
	</g>
</g>
</svg>
