<?xml version="1.0" encoding="utf-8"?>
<!-- Generator: Adobe Illustrator 19.2.0, SVG Export Plug-In . SVG Version: 6.00 Build 0)  -->
<svg version="1.1" id="Layer_1" xmlns="http://www.w3.org/2000/svg" xmlns:xlink="http://www.w3.org/1999/xlink" x="0px" y="0px"
	 viewBox="0 0 739.6 909.9" style="enable-background:new 0 0 739.6 909.9;" xml:space="preserve">
<style type="text/css">
	.st0{fill:#C47546;}
	.st1{fill:#814927;}
	.st2{fill:#3A291D;}
</style>
<g>
	<path class="st0" d="M362.3,529.8l-0.2-0.1l0-0.1l-0.1-0.1l0-0.1l-0.1-0.4c-1.9-7.1-9.4-8.2-15.4-9.1l-1.1-0.2
		c-3.9-0.6-7.6-2.1-11.2-4.5l-0.8-0.5l-0.5,0.2c-0.4-0.4-0.7-0.7-1.1-1.1c-1.7-1.8-3.6-3.8-6.2-4.7c-1.2-0.4-2.4-0.7-3.5-1
		c-1.4-0.3-2.6-0.7-3.8-1.2c-0.9-0.4-1.7-0.8-2.6-1.4l-0.3-0.2l-0.2,0l-0.1-0.1l-0.3-0.3c-2.3-1.8-4.1-4-5.7-6.2l0-0.2l-0.1-0.4
		c0,0,0,0,0,0c0-1.3-0.2-2.7-0.1-4.2l0.1-1.3l-1.1-0.4l-0.1-0.3l-0.5-0.3c-2.2-1.5-3.9-3.4-5-5.7l-0.5-1l-1,0
		c-1.6-1.3-2.9-2.7-3.9-4.3c-0.4-0.6-0.8-1.3-1.2-2c-0.7-1.3-1.5-2.6-2.5-3.8l0.2-0.6l-0.3-0.5c2.9-5.3,5-11.1,7-16.7
		c0.6-1.7,1.3-3.5,1.9-5.2l0.6-1.5c2.9-7.7,6-15.7,9.6-23.3c3.6-6.4,10.8-11.1,17.1-15.3l0.7-0.4c1.5-1,3-1.2,4.8-1.4
		c1.6-0.2,3.2-0.4,4.9-1.1c1.4-0.6,2.8-1.4,4.1-2.1c2.1-1.2,4-2.3,6.2-2.7c4.9-0.9,9-1.3,13-1.3c0.7,0,1.4,0,2.2,0l0.4,0l0.1,0
		l0.1,0l0.3,0c1.8,0.1,3.7,0.3,5.6,0.6c1.5,0.2,3.1,0.3,4.8,0.3c1.9,0,3.7-0.1,5.5-0.3c1.8-0.1,3.6-0.3,5.5-0.3l0.4,0l0.4,0.3
		l0.7-0.1c3.2,0.2,5.7,1.2,8.6,2.6c2.3,1.1,4.8,1.7,7.1,2.2c1.7,0.4,3.3,0.7,4.8,1.3c1.6,0.6,3.2,1.4,4.8,2.2
		c1.8,0.9,3.6,1.9,5.6,2.5c1,0.3,1.9,0.6,2.8,0.8c2,0.5,3.7,1,5.3,2.2c1.8,1.3,3.1,3,3.9,4.9c0.3,0.7,0.4,1.5,0.6,2.3
		c0.1,0.5,0.2,1,0.3,1.5c0.6,2.6,1.5,3.8,2.5,5.3c0.2,0.3,0.5,0.7,0.7,1c1.2,1.8,2,3.9,2.8,6.1c0.2,0.6,0.4,1.2,0.6,1.7
		c1.7,4.4,3.6,8.7,6,13.3l-1,1.4l1.7,0.9l0.3,0.5l0.6,0.1c2.4,2,3.6,5.3,4.4,8.3c0.7,2.6,1.4,5.3,1,7.5l-0.1,0.5l0.1,0.3
		c0,0.6-0.1,1.2-0.2,1.8l0,0.3l0,0.2l-0.1,0.1l-0.1,0.4c-1,4.3-3.9,8.4-6.8,12.2l-0.3,0l-0.1,0.1l-0.8-0.6l-1.1,0.7
		c-2.3,1.4-4.3,2.6-6.7,2.6l-1-0.2l-0.7,0.7c-0.6,0.6-1.5,1.1-2.4,1.6l-0.3,0.1c-0.6,0.3-1.3,0.6-1.9,0.7l-1.6,0.2l0,1.5
		c0,4.5-1.4,8.5-3.9,11.7l-0.4-0.1l-0.4,0.2l-2.5,0.2l0.4,0.7c-0.3,0.1-0.6,0.2-0.9,0.3c-0.8,0.3-1.8,0.5-2.8,0.7l-1.2,0.2l-0.3,1.2
		c-0.2,0.4-1.2,0.7-2,1c-0.3,0.1-0.5,0.2-0.8,0.3c-1.5,0.6-3,0.9-4.4,0.9c-0.2,0-0.4,0-0.6,0l-1.4-0.3l-0.6,1.2
		c-1.1,2.1-2.5,4-3.9,5.8l-1.1,0.1l-0.4,1.1c-0.6,1.7-1.2,3.4-2,5l-0.8,0c-3.6,0-7.1-0.4-10.6-1l-1.3-0.2l-0.7,1.1
		c-0.2,0.3-0.4,0.6-0.5,0.9l-0.2,0c-0.7,0.1-1.4,0.1-2.1,0.1c-0.8,0-1.6-0.1-2.4-0.2l-1.6-0.3l-0.7,1.9l-0.2,0.6l0.1,0.2l-1.9,0.2
		c-4.6,0.5-9.3,1.1-13.9,1.3L362.3,529.8z M396.4,477.3l1.2-0.4c1.4,0.2,2.6,0.3,3.8,0.3c3.1,0,5.5-0.8,7.9-2.7
		c0.2-0.1,0.3-0.3,0.5-0.4l0.4-0.3l0.1-0.1l0.1-0.1l0.5-0.4c1-0.8,1.9-1.6,2.9-2.2l0.4-0.2l0.2-0.3l0.2,0l0.4-0.2
		c1.6-0.9,3.2-1.8,4.8-2.7c2.6-1.4,5.4-2.9,8-4.6l1.1-0.7l-0.4-1.2c-0.7-2-2.1-3.7-3.5-5.3c-1.2-1.4-2.4-2.8-3-4.3
		c-0.5-1.5-0.9-3.2-1-5.4c0-0.3,0-0.9,0-1.5c0.1-2.2,0.1-3.6-0.8-4.5c-1.3-1.5-4-2.2-7.4-2.9c-0.7-0.2-1.4-0.3-1.8-0.5
		c-2.8-0.8-5.9-1.7-9.9-2.8c-2.3-0.6-4.6-1.2-6.9-1.7c-3-0.7-6-1.5-9-2.3c-1.5-0.4-3-1-4.5-1.7c-2-0.8-4.1-1.7-6.5-2.2
		c-1.2-0.2-2.4-0.4-3.7-0.4c-4.4,0-9.4,1.4-13.8,4l-0.3,0c-0.2,0-0.4,0-0.6,0c-1.3,0-2.6,0.1-3.8,0.1c-1.2,0.1-2.4,0.1-3.6,0.1
		c-0.2,0-0.5,0-0.7,0l-0.8,0c-0.8,0-1.5,0-2.3,0c-1.6,0-3.7,0.1-5.9,0.8l-0.5,0.2l-0.2,0.3c-2.8,0.8-5.5,1.9-8,3.2l-0.6,0.3
		l-0.3,0.5c-0.6,1.2-1.5,2.3-2.6,3.2l-1.2,1l1,1.4l0.2,0.2c-0.5,0.8-1,1.7-1.5,2.5c-0.9,1.6-1.7,3.1-2.8,4.3l-1.2,1.3l1.1,0.9
		l-0.1,0.3l0.3,0.5l-3.3,3.8l2.2,0.9c0.7,0.3,1.3,0.6,1.9,0.9l0,0.4l0.5,0.5c3.1,6.3,8.2,9.1,12.8,11.1l0.2,0.1l0.1,0l0.1,0l0.2,0.1
		c0.6,0.3,1.3,0.5,1.9,0.8l0.1,0.1c1.2,0.4,2.3,0.9,3.4,1.3l1,0.3l0.3-0.2l0.1,0.3l1.1,0.3c3.8,1.2,6.9,1.7,10.1,1.7
		c0.4,0,0.8,0,1.2,0l2.4,0.5l-0.1-2.3c-0.3-8.4,0.2-15.2,1.7-21.5c4-1.5,8.7-1.7,13.1-1.7l1,0c0.5,0,1.1,0,1.7,0c0.7,0,1.4,0,2.2,0
		c0.9,0,3.7,0,5,0.7c1.2,0.7,2,4.1,2.3,5.9c0.1,0.7,0.3,1.4,0.4,1.9c1.6,5.7,2.9,11.7,3.9,17.8l0.3,2.1l2.3-0.7
		c0.8-0.3,2.4-0.5,2.4-0.8v0.2l0.5,0.5L396.4,477.3z"/>
	<g>
		<path class="st1" d="M436.9,489c1.6-3.1,1.5-6.6-0.2-10c-1.8-3.6-5-5.8-8.3-8c-1.8-1.2-3.6-2.5-5.3-4l-0.9-0.8l1.1-0.6
			c1.5-0.8,3.4-1.9,5.2-3.2l0.5-0.3l0.5,0.2c5,2.1,8.9,5.2,11.6,9.1c2.4,3.4,5.5,10.3,4.2,15l-0.2,0.6l-0.6,0.1
			c-0.1,0-0.1,0-0.2,0.1c-0.4,0.2-0.8,0.5-1.1,0.7c-1.6,1-3.3,2-5.3,2.4l-1.8,0.3L436.9,489z"/>
		<path class="st1" d="M333.3,500.1c1-10.4,4.5-20.2,10.2-28.3l0.4-0.6l0.7,0.2c2,0.6,3.8,1.1,5.5,1.4l1.8,0.3l-1.3,1.2
			c-7.1,6.5-12.5,15.5-15.4,26L333.3,500.1z"/>
		<path class="st1" d="M319.6,450.2c-2.5-1.5-5.9-2.3-9.2-2.3c-1.9,0-3.7,0.3-5.3,0.8l-1.8,0.6l0.6-1.7c2-5.6,3.9-10.7,6.1-15.8
			l1.8,0.3c0.5,6.3,3.6,12,9,16.8L319.6,450.2z"/>
		<path class="st1" d="M325.1,438.7c-6.6-6-5.9-13.2-4.1-20.2c0-0.2,0-0.2,0-0.3l-0.4-0.6l0.6-0.5c1.7-1.3,3.6-2.7,6.2-4.3l2.5-1.6
			l-1.1,2.6c-1,2.4-1.5,5.1-1.8,7l0,0.3c-0.7,4.2-1.7,10.5,1.8,13.6l0.5,0.5l-0.3,0.6c-0.7,1.1-1.5,2.1-2.6,3l-0.7,0.5L325.1,438.7z
			"/>
		<path class="st1" d="M389.8,431c-1.6-0.4-3.3-1-5.4-1.7l-0.8-0.3l0.2-0.8c1.7-5.5,2.4-10.9,2.1-16.1l0-0.7
			c-0.1-2.3-0.3-5.2-1.6-7.1l-0.8-1.2l1.5-0.1c0.7-0.1,1.5-0.1,2.2-0.1l0.6,0l0.3,0.5c0,0,0,0.1,0.1,0.1c3.6,4.6,5.2,10.3,5,16.9
			c-0.1,3-0.3,7.4-2.3,10.2l-0.4,0.5L389.8,431z"/>
		<path class="st1" d="M451.2,469.8c-3.9-5.1-11.9-9-18.1-9c-0.2,0-0.5,0-0.7,0l-2.4,0.1l1.7-1.6c1.5-1.4,3.1-2.8,4.9-3.7
			c1.2-0.6,2.7-0.9,4.4-0.9c1.6,0,3.4,0.3,5.6,0.9l0.3,0.1l0.3,0.2c3,2.4,5.6,8.4,5.8,13.4l0.1,2.9L451.2,469.8z"/>
		<path class="st1" d="M428,459.9c-0.2-0.4-0.6-0.9-1-1.4l-0.5-0.6l0.6-0.5c4.5-3.7,10.2-9.4,11.8-15.2l0.7-2.8l1.4,3.5
			c1.4,3.4,2.8,6.8,4.4,10.1l0.8,1.6l-1.9-0.4c-1.4-0.3-2.7-0.4-3.9-0.4c-1.3,0-2.5,0.2-3.5,0.5c-2.3,0.7-4.4,2.8-6.3,4.7
			c-0.4,0.4-0.8,0.8-1.2,1.1l-0.9,0.8L428,459.9z"/>
		<path class="st1" d="M425.3,456.4c-0.4-0.5-0.9-1-1.3-1.6c-0.4-0.6-0.8-1.2-1.2-1.9l-0.3-0.6l0.5-0.4c3.1-2.8,5.8-6.3,8.1-10.5
			l0.2-0.3c1.4-2.6,2.9-5.2,3.6-8l0.5-2.1l1.2,1.8c0.4,0.6,0.7,1.1,0.9,1.5c0.5,0.9,0.9,1.9,1.3,2.8l0.3,0.6l-0.6,0.4
			c0,0-0.1,0.1-0.1,0.3c0.3,5.3-3.6,11.3-11.7,18l-0.7,0.6L425.3,456.4z"/>
		<path class="st1" d="M419.5,439.5c-0.6-0.3-1.2-0.6-1.8-0.8l-1.2-0.5l0.9-0.9c5.6-5.8,7.7-13.5,5.9-21l-0.4-1.6l1.6,0.6
			c1.6,0.6,3.7,1.4,5.4,3.3c0.4,0.4,0.7,0.9,1.1,1.4l0.1,0.2l0,0.2c0.2,7.3-3.3,14-9.5,18.3l-0.1,0l-0.1,0c0,0-0.1,0-0.1,0l-1.3,0.9
			L419.5,439.5z"/>
		<path class="st1" d="M408.7,435.6c-2-0.6-4.2-1.1-6.7-1.7l-1.2-0.3l0.6-1c3.9-6.6,4.1-16.8,0.5-23.7l-0.8-1.6l1.8,0.3
			c0.5,0.1,0.9,0.2,1.4,0.2c1.6,0.3,3.2,0.5,4.7,1c0.9,0.3,1.8,0.7,2.8,1.2l0.2,0.1l0.1,0.2c2.1,3.2,2.2,7.5,2.1,11.7
			c-0.1,4.8-0.8,10.1-4.5,13.1c0,0-0.1,0.1-0.1,0.1l-0.4,0.6L408.7,435.6z"/>
		<path class="st1" d="M356.4,429c-2.6-3.1-3.7-7.8-3-13.2c0.6-4.9,2.5-9.6,5.1-12.6c0.1-0.1,0.1-0.1,0.1-0.2l0.1-0.6l0.7-0.1
			c1.2-0.1,2.3-0.2,3.4-0.2c0.3,0,0.7,0,1,0l1.3,0l-0.5,1.1c-1.7,4-2.5,8.2-2.5,13.2c0,1.9,0,6.4,1.8,8.8l0.7,1l-1.2,0.4
			c-1.9,0.6-3.9,1.4-5.8,2.5l-0.7,0.4L356.4,429z"/>
		<path class="st1" d="M338.3,430.8c-0.4,0-1-0.2-1.6-0.8c-2.1-2.3-1.4-10.2-1.4-10.3l0-0.3c0.3-3.4,0.8-8.1,4-10.4
			c0,0,0.1,0,0.1-0.1l0.1-0.1l0.2-0.1c0.3-0.1,0.6-0.3,0.9-0.5c2.2-1.4,4.2-2.4,6.3-3.2l3.2-1.2l-2.1,2.6c-2.9,3.6-4.8,7.6-5.5,12
			c-0.6,3.8-0.9,7.6,1.1,10.1l1.1,1.3l-1.7,0.1c-1.6,0.1-2.9,0.4-4.2,0.8l-0.2,0.1L338.3,430.8z"/>
		<path class="st1" d="M298.1,462.6c1.6-3.9,3.1-7.9,4.5-11.7l0.1-0.3l0.3-0.2c2-1.1,4.7-1.8,7.4-1.8c3.9,0,7.6,1.2,10,3.2l0.7,0.6
			l-0.8,0.9l-0.4,0.6l-0.7-0.2c0,0-0.1,0-0.1,0c-6.7,0.8-13.8,4.3-19.5,9.7L298.1,462.6z"/>
		<path class="st1" d="M306.7,491.1c-2.2-1.6-3.9-3.7-4.8-6.2l-0.1-0.3l0.1-0.3c0-0.1,0-0.1,0-0.1c1.3-10.5,11-22.5,21.2-26.2
			l0.8-0.3l0.4,0.7c0.4,0.8,0.9,1.5,1.4,2.2l0.5,0.6l-0.6,0.5c-9.2,7.4-15.9,18.5-17.3,28.8l-0.2,1.5L306.7,491.1z"/>
		<path class="st1" d="M324.6,508.7c-3.7-1-6.5-2.1-8.9-3.7l-0.4-0.3l0-0.4c-0.3-14.1,5-27.7,14.8-38.3l0.6-0.6l0.7,0.4
			c1.2,0.7,2.4,1.4,3.8,2l1.1,0.5l-0.8,0.9c-9.5,10.7-13.5,26.5-9.7,38.4l0.5,1.5L324.6,508.7z"/>
		<path class="st1" d="M357.6,523c-0.8-0.5-1.9-1-3.1-1.5c-0.9-0.3-1.8-0.6-2.8-0.8l-0.4-0.1l-0.2-0.3c-8.1-13.8-0.6-31.5,4.9-44.5
			l1.8,0.3c0.3,4.2,0.7,8.1,1.2,12.9c0.2,1.9,0.5,3.9,0.7,6c1.2,9,2.6,19.2-0.8,27.6l-0.4,1L357.6,523z"/>
		<path class="st1" d="M398.6,525.3c-3.4,0-6.7-0.3-10-0.9l-1.2-0.2l0.5-1c7-13.3,5.7-30.3,3.5-45.2c0-0.2-0.2-0.9-0.2-0.9l-0.1-0.7
			l0.7-0.2c0.7-0.2,1.5-0.5,2.2-0.8l0.7-0.3l0.4,0.6c10.3,14.8,11.7,31.8,4.2,49.1l-0.2,0.5L398.6,525.3z"/>
		<path class="st1" d="M409.2,512.3l-0.7-0.4l0.3-0.7c5-11,4.5-23.9-1.4-34.4l-0.4-0.7l0.7-0.4c0.5-0.3,1.1-0.7,1.7-1.1l0.6-0.5
			l0.6,0.4c3.7,2.7,6.4,7.5,8.2,14.1c2.2,7.9,1.3,15.5-2.6,21.7c0,0,0,0.1,0,0.1l-0.1,0.3l-0.3,0.2c-1.9,1-3.9,1.6-6,1.6l-0.3,0
			L409.2,512.3z"/>
		<path class="st1" d="M418.7,507.3c2.4-5.7,2.8-12.3,0.9-19c-1.2-4.4-3.6-10.5-8.2-14.2l-0.8-0.7l0.8-0.7c0.7-0.6,1.5-1.2,2.3-1.7
			l0.5-0.3l0.5,0.3c6.4,3.6,11.4,10.5,13.2,18.1c1.5,6.5,0.4,12.7-3,17.4l-0.3,0.4l-0.6-0.1c-0.4,0-0.9,0.3-1.4,0.5
			c-0.3,0.2-0.6,0.3-0.9,0.4c-0.6,0.2-1.2,0.4-1.9,0.6L418,509L418.7,507.3z"/>
	</g>
	<g>
		<g>
			<g>
				<path class="st2" d="M371.2,403.4c-2.1,6.3-4.6,15.2-2.5,21.8c0.6,1.8,3.5,1.1,2.9-0.8c-1.9-6.1,0.6-14.3,2.5-20.2
					C374.7,402.4,371.8,401.6,371.2,403.4L371.2,403.4z"/>
			</g>
		</g>
		<g>
			<g>
				<path class="st2" d="M364.5,401.2c-2.6,5.3-3.5,10.8-3.3,16.7c0.1,3,0.6,8.2,3.8,9.6c1,0.4,1.8,0.1,2.2-0.9
					c0-0.1,0.1-0.1,0.1-0.2c0.2-0.6-0.2-1.4-0.7-1.7c-0.1,0-0.1-0.1-0.2-0.1c-1.7-0.9-3.2,1.6-1.5,2.6c0.1,0,0.1,0.1,0.2,0.1
					c-0.2-0.6-0.5-1.1-0.7-1.7c0,0.1-0.1,0.1-0.1,0.2c0.7-0.3,1.5-0.6,2.2-0.9c-2.9-1.3-2.4-7.5-2.3-10c0.1-4.4,1-8.3,2.9-12.3
					C367.9,401,365.4,399.5,364.5,401.2L364.5,401.2z"/>
			</g>
		</g>
		<g>
			<g>
				<path class="st2" d="M357.2,401.8c-6.2,7.2-8.7,22-1.5,29.3c1.4,1.4,3.5-0.7,2.1-2.1c-5.9-6.1-3.6-19.2,1.5-25.1
					C360.6,402.5,358.4,400.4,357.2,401.8L357.2,401.8z"/>
			</g>
		</g>
		<g>
			<g>
				<path class="st2" d="M350.1,402.7c-4.6,4.3-7.7,9.5-8.7,15.7c-0.7,4.5-1.1,9.7,3.2,12.4c1.6,1,3.1-1.6,1.5-2.6
					c-3.8-2.4-2-9.8-0.8-13.2c1.3-4,3.8-7.3,6.9-10.2C353.6,403.5,351.5,401.3,350.1,402.7L350.1,402.7z"/>
			</g>
		</g>
		<g>
			<g>
				<path class="st2" d="M338.2,407.6c-4.3,3.1-4.9,9.5-5,14.4c-0.1,3.3,0.6,11.2,5.4,10.8c1.9-0.2,1.9-3.2,0-3
					c-2.6,0.2-2.4-7.5-2.3-9.2c0.2-3.1,0.7-8.4,3.4-10.4C341.2,409,339.7,406.4,338.2,407.6L338.2,407.6z"/>
			</g>
		</g>
		<g>
			<g>
				<path class="st2" d="M332.8,408.5c-4.7,0.1-6.4,9.4-6.9,12.9c-0.7,5-1.5,11.3,2.9,14.7c1.5,1.2,3-1.4,1.5-2.6
					c-3-2.3-1.9-8.3-1.5-11.5c0.2-1.7,1.7-10.4,3.9-10.5C334.7,411.5,334.7,408.5,332.8,408.5L332.8,408.5z"/>
			</g>
		</g>
		<g>
			<g>
				<path class="st2" d="M319.1,418c-1.3,5-2.5,10.2-0.6,15.2c1.5,3.9,4.5,6.7,7.8,9c1.6,1.1,3.1-1.5,1.5-2.6
					c-3.1-2.2-5.8-4.8-6.9-8.5c-1.2-4,0-8.3,1-12.3C322.5,416.9,319.6,416.1,319.1,418L319.1,418z"/>
			</g>
		</g>
		<g>
			<g>
				<path class="st2" d="M310.9,426c-1.5,10.3,2.9,18.8,10.9,25.1c1.5,1.2,3.6-0.9,2.1-2.1c-7.1-5.6-11.5-12.9-10.1-22.2
					C314.1,424.9,311.2,424.1,310.9,426L310.9,426z"/>
			</g>
		</g>
		<g>
			<g>
				<path class="st2" d="M323.6,455.8c-11.4,3.6-22.1,16.6-23.6,28.5c-0.2,1.9,2.8,1.9,3,0c1.3-10.5,11.4-22.4,21.4-25.6
					C326.2,458.1,325.4,455.2,323.6,455.8L323.6,455.8z"/>
			</g>
		</g>
		<g>
			<g>
				<path class="st2" d="M325.3,460.6c-10.7,8.5-19.8,23.5-18.2,37.6c0.2,1.9,3.2,1.9,3,0c-1.5-13.4,7.1-27.4,17.3-35.5
					C328.9,461.5,326.8,459.4,325.3,460.6L325.3,460.6z"/>
			</g>
		</g>
		<g>
			<g>
				<path class="st2" d="M329.1,464.3c-10.6,11.2-16.4,25.8-15.7,41.3c0.1,1.9,3.1,1.9,3,0c-0.6-14.7,4.8-28.5,14.9-39.2
					C332.5,465,330.4,462.9,329.1,464.3L329.1,464.3z"/>
			</g>
		</g>
		<g>
			<g>
				<path class="st2" d="M336.1,467.1c-10.3,10.6-16.3,29.1-10.4,43.2c0.7,1.8,3.6,1,2.9-0.8c-5.5-13.2,0-30.4,9.6-40.3
					C339.5,467.9,337.4,465.7,336.1,467.1L336.1,467.1z"/>
			</g>
		</g>
		<g>
			<g>
				<path class="st2" d="M342.8,469.3c-9.6,12.7-13.2,29.4-11.3,45.1c0.2,1.9,3.2,1.9,3,0c-1.9-15.3,1.5-31.2,10.9-43.6
					C346.6,469.3,344,467.8,342.8,469.3L342.8,469.3z"/>
			</g>
		</g>
		<g>
			<g>
				<path class="st2" d="M351.5,472.1c-12.1,10-18.7,26.3-19.8,41.7c-0.1,1.9,2.9,1.9,3,0c1.1-14.7,7.4-30.1,18.9-39.6
					C355.1,473,353,470.9,351.5,472.1L351.5,472.1z"/>
			</g>
		</g>
		<g>
			<g>
				<path class="st2" d="M355.2,472.7c-6,14.4-14.5,33.7-5.6,48.7c1,1.7,3.6,0.1,2.6-1.5c-8.4-14.1,0.2-32.8,5.9-46.3
					C358.8,471.8,355.9,471,355.2,472.7L355.2,472.7z"/>
			</g>
		</g>
		<g>
			<g>
				<path class="st2" d="M358.5,449.3c-3.1,12.7-1.9,25.9-0.5,38.8c1.1,10.6,4.4,24.3,0,34.5c-0.8,1.8,1.8,3.3,2.6,1.5
					c4.1-9.7,2-21.5,0.9-31.6c-1.5-14-3.4-28.5-0.1-42.3C361.8,448.2,358.9,447.4,358.5,449.3L358.5,449.3z"/>
			</g>
		</g>
		<g>
			<g>
				<path class="st2" d="M360.3,451.1c4.7-1.8,10.1-1.9,15.2-1.8c2,0,4,0.3,5.9,0.3c0.3,0,1.5,0.1,1.9,0.3c-0.4-0.3-0.6-0.5-0.4-0.2
					c1.2,1.4,1.5,4.7,2,6.4c1,3.6,1.9,7.2,2.7,10.9c3.8,18.1,7.6,42.3-3.4,58.6c-1.1,1.6,1.5,3.1,2.6,1.5c12-17.7,7.6-43.9,3.2-63.4
					c-0.9-3.9-1.9-7.7-3-11.5c-0.4-1.3-0.7-3.6-1.8-4.6c-2-1.8-7.3-1.3-9.6-1.3c-5.3-0.1-11,0-16,1.9
					C357.7,448.9,358.5,451.8,360.3,451.1L360.3,451.1z"/>
			</g>
		</g>
		<g>
			<g>
				<path class="st2" d="M373.6,448.3c-1.4,11.6,2.5,23.3,4.7,34.5c3.1,15.3,4.3,30.7-1.4,45.5c-0.7,1.8,2.2,2.6,2.9,0.8
					c5.3-13.7,4.9-28.2,2.3-42.5c-2.2-12.5-7-25.6-5.5-38.4C376.8,446.4,373.8,446.4,373.6,448.3L373.6,448.3z"/>
			</g>
		</g>
		<g>
			<g>
				<path class="st2" d="M368.2,448.8c-3.9,13.5-1.5,28-0.3,41.8c1.1,12.4,3.2,29-7.4,38c-1.5,1.3,0.7,3.4,2.1,2.1
					c9.9-8.5,9.6-22.8,8.7-34.7c-1.1-15.2-4.5-31.4-0.2-46.4C371.6,447.7,368.7,446.9,368.2,448.8L368.2,448.8z"/>
			</g>
		</g>
		<g>
			<g>
				<path class="st2" d="M394.4,476.2c10.6,15.3,11.2,32.6,3.6,49.3c-0.8,1.7,1.8,3.3,2.6,1.5c8.1-17.6,7.7-36-3.6-52.3
					C395.9,473.1,393.3,474.6,394.4,476.2L394.4,476.2z"/>
			</g>
		</g>
		<g>
			<g>
				<path class="st2" d="M405.2,476.9c7.8,13.2,6.5,29.8-3.3,41.7c-1.2,1.5,0.9,3.6,2.1,2.1c10.6-12.9,12.3-30.9,3.8-45.3
					C406.8,473.7,404.2,475.2,405.2,476.9L405.2,476.9z"/>
			</g>
		</g>
		<g>
			<g>
				<path class="st2" d="M409.1,474.7c10.7,6.9,12.3,25,6.2,35c-1,1.7,1.6,3.2,2.6,1.5c7-11.5,4.8-31.4-7.3-39.1
					C409,471.1,407.5,473.7,409.1,474.7L409.1,474.7z"/>
			</g>
		</g>
		<g>
			<g>
				<path class="st2" d="M413.3,471.4c11.4,5.7,19.5,23.8,10.5,34.9c-1.2,1.5,0.9,3.6,2.1,2.1c10.1-12.5,2.2-32.9-11.1-39.6
					C413.1,467.9,411.6,470.5,413.3,471.4L413.3,471.4z"/>
			</g>
		</g>
		<g>
			<g>
				<path class="st2" d="M421.6,468.3c5.5,5.1,20.8,12,12.3,21.6c-1.3,1.4,0.8,3.6,2.1,2.1c3.3-3.7,3.9-8.6,1.8-13.1
					c-3-6.4-9.3-8.4-14.1-12.8C422.3,464.9,420.2,467,421.6,468.3L421.6,468.3z"/>
			</g>
		</g>
		<g>
			<g>
				<path class="st2" d="M429.1,463.4c4.6,1.9,8.7,5,11.5,9.2c2.2,3.4,5.4,10.9,3.2,14.9c-0.9,1.7,1.6,3.2,2.6,1.5
					c2.6-4.6,0-12.3-2.3-16.6c-3.1-5.6-8.2-9.5-14.1-11.9C428.1,459.7,427.4,462.6,429.1,463.4L429.1,463.4z"/>
			</g>
		</g>
		<g>
			<g>
				<path class="st2" d="M376.1,404.2c-0.3,7.3-0.7,14.6-1.1,21.9c-0.1,1.9,2.9,1.9,3,0c0.5-7.3,0.8-14.6,1.1-21.9
					C379.2,402.3,376.2,402.3,376.1,404.2L376.1,404.2z"/>
			</g>
		</g>
		<g>
			<g>
				<path class="st2" d="M381.9,404.7c2.6,2.2,2.1,8.3,2,11.2c-0.1,4.4-1,8.6-2.4,12.8c-0.6,1.8,2.3,2.6,2.9,0.8
					c1.8-5.6,2.7-11.3,2.4-17.1c-0.2-3.2-0.2-7.5-2.9-9.8C382.6,401.3,380.5,403.4,381.9,404.7L381.9,404.7z"/>
			</g>
		</g>
		<g>
			<g>
				<path class="st2" d="M387.5,404.4c3.6,4.6,4.8,10.3,4.5,16c-0.1,2.7-0.3,7.4-2.1,9.6c-1.2,1.5,0.9,3.6,2.1,2.1
					c2.4-3,2.8-8.1,3-11.8c0.3-6.6-1.4-12.9-5.4-18.1C388.5,400.8,386.4,402.9,387.5,404.4L387.5,404.4z"/>
			</g>
		</g>
		<g>
			<g>
				<path class="st2" d="M398.8,407.7c4.8,6.8,4.7,18.7,0,25.3c-1.1,1.6,1.5,3.1,2.6,1.5c5.3-7.4,5.4-20.7,0-28.3
					C400.3,404.6,397.7,406.1,398.8,407.7L398.8,407.7z"/>
			</g>
		</g>
		<g>
			<g>
				<path class="st2" d="M411.3,410.9c3.7,5.5,3.1,19.1-2.2,23.5c-1.5,1.2,0.6,3.3,2.1,2.1c6.4-5.2,7.1-20.5,2.6-27.1
					C412.8,407.8,410.2,409.3,411.3,410.9L411.3,410.9z"/>
			</g>
		</g>
		<g>
			<g>
				<path class="st2" d="M420.8,415.1c2.6,7.9,0.4,16-5.7,21.7c-1.4,1.3,0.7,3.5,2.1,2.1c6.7-6.4,9.4-15.7,6.4-24.6
					C423.1,412.4,420.2,413.2,420.8,415.1L420.8,415.1z"/>
			</g>
		</g>
		<g>
			<g>
				<path class="st2" d="M430,420.3c0.3,7.7-3.7,14.4-10.2,18.3c0.5,0.9,1,1.7,1.5,2.6c0.3-0.2,0.6-0.4,0.9-0.6
					c1.6-1.1,0.1-3.7-1.5-2.6c-0.3,0.2-0.6,0.4-0.9,0.6c-1.6,1.1-0.2,3.6,1.5,2.6c7.4-4.5,12-12.2,11.7-20.9
					C432.9,418.4,429.9,418.3,430,420.3L430,420.3z"/>
			</g>
		</g>
		<g>
			<g>
				<path class="st2" d="M433.2,429.3c0.5,7.4-6.8,17-12,21.6c-1.4,1.3,0.7,3.4,2.1,2.1c3.6-3.2,6.4-7,8.7-11.1
					c2.1-3.9,4.5-8,4.2-12.6C436.1,427.4,433.1,427.3,433.2,429.3L433.2,429.3z"/>
			</g>
		</g>
		<g>
			<g>
				<path class="st2" d="M437.3,438.6c0.4,6.8-7.2,13.8-11.9,17.7c-1.5,1.2,0.6,3.3,2.1,2.1c5.3-4.3,13.3-12.1,12.8-19.8
					C440.2,436.6,437.2,436.6,437.3,438.6L437.3,438.6z"/>
			</g>
		</g>
		<g>
			<g>
				<path class="st2" d="M319,452.8c-11.1,1.3-22.5,9.9-27.5,20c-0.9,1.7,1.7,3.2,2.6,1.5c4.5-9.1,14.9-17.3,25-18.5
					C320.9,455.6,320.9,452.6,319,452.8L319,452.8z"/>
			</g>
		</g>
		<g>
			<g>
				<path class="st2" d="M310.3,426c-7.2,15.2-11.2,32-19.2,46.8c-0.9,1.7,1.7,3.2,2.6,1.5c8-14.8,12-31.6,19.2-46.8
					C313.8,425.8,311.2,424.3,310.3,426L310.3,426z"/>
			</g>
		</g>
		<g>
			<g>
				<path class="st2" d="M446.3,456.7c2.4,1.9,3.5,5.2,4.3,8c0.6,2.3,1.6,5.3,0.9,7.7c-0.5,1.9,2.4,2.7,2.9,0.8
					c1.5-5.4-1.7-15.1-6-18.6C447,453.3,444.8,455.4,446.3,456.7L446.3,456.7z"/>
			</g>
		</g>
		<g>
			<g>
				<path class="st2" d="M322.9,458c2.7,5.6,7.1,9,12.8,11.3c6.6,2.6,13.3,5.4,20.5,5c1.9-0.1,1.9-3.1,0-3
					c-5.9,0.3-11.1-1.7-16.5-3.7c-6.2-2.3-11.1-4.9-14.2-11.1C324.7,454.8,322.1,456.3,322.9,458L322.9,458z"/>
			</g>
		</g>
		<g>
			<g>
				<path class="st2" d="M299.9,485.2c1.3,3.6,3.7,6.4,7,8.4c-0.2-0.7-0.4-1.4-0.5-2.1c-0.1,0.1-0.1,0.2-0.2,0.2
					c-1.1,1.6,1.5,3.1,2.6,1.5c0.1-0.1,0.1-0.2,0.2-0.2c0.5-0.7,0.1-1.7-0.5-2.1c-2.6-1.5-4.6-3.8-5.6-6.6
					C302.1,482.6,299.2,483.4,299.9,485.2L299.9,485.2z"/>
			</g>
		</g>
		<g>
			<g>
				<path class="st2" d="M307.3,499.4c2.8,3.9,5.6,7.2,10.1,9.1c2.4,1,5,1.4,7.4,2.2c2.7,1,4.7,3.6,6.8,5.6c1.4,1.4,3.5-0.8,2.1-2.1
					c-2.9-2.8-4.9-5.5-8.9-6.5c-6.7-1.8-11-4.1-15-9.8C308.8,496.3,306.2,497.8,307.3,499.4L307.3,499.4z"/>
			</g>
		</g>
		<g>
			<g>
				<path class="st2" d="M332.3,516.3c3.9,2.8,8.1,4.6,12.9,5.3c6.2,0.9,13.5,1.4,15,8.7c0.4,1.9,3.3,1.1,2.9-0.8
					c-1.1-5.4-3.9-7.4-8.9-9.3c-2.9-1-5.7-1.1-8.7-1.6c-4.3-0.7-8.1-2.3-11.7-4.9C332.3,512.6,330.8,515.2,332.3,516.3L332.3,516.3z
					"/>
			</g>
		</g>
		<g>
			<g>
				<path class="st2" d="M362.1,531.8c5.6-0.2,11.1-0.9,16.7-1.5c1.9-0.2,1.9-3.2,0-3c-5.5,0.6-11.1,1.4-16.7,1.5
					C360.2,528.9,360.1,531.9,362.1,531.8L362.1,531.8z"/>
			</g>
		</g>
		<g>
			<g>
				<path class="st2" d="M379.7,527.8c2,0.4,4,0.4,6.1,0.1c0.8-0.1,1.2-1.1,1-1.8c-0.2-0.9-1-1.2-1.8-1c-1.5,0.2-3,0.2-4.5-0.1
					C378.6,524.5,377.8,527.4,379.7,527.8L379.7,527.8z"/>
			</g>
		</g>
		<g>
			<g>
				<path class="st2" d="M387.1,526.2c4.1,0.8,8.2,1.1,12.4,1.1c1.9,0,1.9-3,0-3c-3.9,0-7.8-0.3-11.6-1
					C386.1,522.9,385.3,525.8,387.1,526.2L387.1,526.2z"/>
			</g>
		</g>
		<g>
			<g>
				<path class="st2" d="M408.9,511.4c-0.1,0-0.2,0-0.3,0c-1.9,0-1.9,2.9,0,3c2,0.1,4-0.3,5.9-1c1.5-0.6,3.4-1,3.9-2.6
					c0.7-1.8-2.2-2.6-2.9-0.8c0,0.1-0.1,0.2-0.1,0.3c0.2-0.3,0.5-0.6,0.7-0.9c-2.1,1.3-5,2.1-7.5,2c0,1,0,2,0,3c0.1,0,0.2,0,0.3,0
					C410.8,514.4,410.8,511.4,408.9,511.4L408.9,511.4z"/>
			</g>
		</g>
		<g>
			<g>
				<path class="st2" d="M418.2,510.8c1.2-0.2,2.3-0.4,3.4-0.8c0.5-0.2,1.1-0.4,1.6-0.6c0.3-0.1,0.5-0.2,0.8-0.4
					c0.6-0.2,0.5-0.3-0.2-0.3c-0.3-0.7-0.6-1.5-0.9-2.2c0,0,0,0,0,0c0.7-0.2,1.4-0.4,2.1-0.5c0,0,0,0,0,0c-1.6-1.1-3.1,1.5-1.5,2.6
					c0,0,0,0,0,0c0.7,0.5,1.6,0.1,2.1-0.5c0,0,0,0,0,0c0.6-0.8,0-1.9-0.9-2.2c-1.1-0.3-2.2,0.6-3.1,1c-1.3,0.5-2.6,0.8-4,1
					C415.5,508.2,416.3,511.1,418.2,510.8L418.2,510.8z"/>
			</g>
		</g>
		<g>
			<g>
				<path class="st2" d="M429.4,495.2c1.4,0.3,2.7-0.4,4-1c1.2-0.6,2.4-1.3,3.3-2.3c1.3-1.4-0.8-3.5-2.1-2.1
					c-0.6,0.7-1.4,1.1-2.2,1.5c-0.5,0.2-1.8,1-2.2,0.9C428.3,491.8,427.5,494.7,429.4,495.2L429.4,495.2z"/>
			</g>
		</g>
		<g>
			<g>
				<path class="st2" d="M436.6,492.3c3.3,0,5.9-1.8,8.7-3.5c1.7-1,0.2-3.6-1.5-2.6c-2.2,1.3-4.5,3-7.2,3
					C434.7,489.3,434.7,492.3,436.6,492.3L436.6,492.3z"/>
			</g>
		</g>
		<g>
			<g>
				<path class="st2" d="M392.2,477.2c1.2-0.4,2.3-0.8,3.5-1.3c0.8-0.3,1.3-1,1-1.8c-0.2-0.7-1.1-1.3-1.8-1
					c-1.1,0.5-2.3,0.9-3.5,1.3C389.5,474.9,390.3,477.8,392.2,477.2L392.2,477.2z"/>
			</g>
		</g>
		<g>
			<g>
				<path class="st2" d="M397.8,478c5.7,0.7,9-0.1,13.4-3.7c5.4-4.5,12.3-7,18-11c1.6-1.1,0.1-3.7-1.5-2.6c-4.8,3.4-10,5.6-14.9,8.6
					c-1.9,1.2-3.3,2.7-5.1,4c-3.1,2.3-6.2,2.1-9.9,1.7C395.9,474.8,395.9,477.8,397.8,478L397.8,478z"/>
			</g>
		</g>
		<g>
			<g>
				<path class="st2" d="M291.5,475.7c1.5,1.7,2.4,3.8,3.7,5.8c1.2,1.8,2.7,3.4,4.4,4.8c1.5,1.2,3.6-0.9,2.1-2.1
					c-3.6-2.9-5.1-7.1-8.1-10.6C292.3,472.1,290.2,474.2,291.5,475.7L291.5,475.7z"/>
			</g>
		</g>
		<g>
			<g>
				<path class="st2" d="M321.7,454.8c0.8-0.9,1.6-1.8,2.4-2.8c0.5-0.6,0.6-1.5,0-2.1c-0.5-0.5-1.6-0.6-2.1,0
					c-0.8,0.9-1.6,1.8-2.4,2.8c-0.5,0.6-0.6,1.5,0,2.1C320.1,455.4,321.1,455.4,321.7,454.8L321.7,454.8z"/>
			</g>
		</g>
		<g>
			<g>
				<path class="st2" d="M323.2,450c2.4-2.3,3.6-5.5,5.5-8.3c1.1-1.6-1.5-3.1-2.6-1.5c-1.7,2.5-2.8,5.5-5,7.6
					C319.7,449.2,321.8,451.3,323.2,450L323.2,450z"/>
			</g>
		</g>
		<g>
			<g>
				<path class="st2" d="M327.1,440.6c1.6-1.2,3-2.7,3.9-4.6c0.3-0.7,0.2-1.6-0.5-2.1c-0.7-0.4-1.7-0.2-2.1,0.5
					c-0.7,1.4-1.6,2.6-2.8,3.5c-0.6,0.5-1,1.3-0.5,2.1C325.4,440.7,326.5,441.1,327.1,440.6L327.1,440.6z"/>
			</g>
		</g>
		<g>
			<g>
				<path class="st2" d="M331,436.1c2.5-1.3,5.1-2.4,7.8-3.1c1.9-0.5,1.1-3.4-0.8-2.9c-3,0.8-5.8,2-8.5,3.4
					C327.8,434.5,329.3,437,331,436.1L331,436.1z"/>
			</g>
		</g>
		<g>
			<g>
				<path class="st2" d="M339.1,432.7c2.9-1.1,5.7-0.9,8.7-0.8c3,0.1,5.9-0.3,8.8-0.3c1.9,0,1.9-3,0-3c-3.4-0.1-6.7,0.3-10.1,0.2
					c-2.9-0.1-5.5-0.1-8.3,0.9C336.5,430.5,337.3,433.4,339.1,432.7L339.1,432.7z"/>
			</g>
		</g>
		<g>
			<g>
				<path class="st2" d="M357.8,431.4c4.7-2.7,11.1-4.6,16.5-3.3c3.7,0.8,6.9,2.7,10.5,3.7c5.2,1.5,10.5,2.6,15.8,4
					c3.2,0.8,6.3,1.7,9.5,2.6c2.3,0.7,6.2,1.2,8.1,2.7c0.9,0.7,0.5,0.3,0.7,0.9c0.3,0.8,0,2.3,0,3.1c0.1,1.9,0.3,3.9,0.8,5.7
					c1.3,4.5,5.8,7,7,11.3c0.5,1.9,3.4,1.1,2.9-0.8c-0.9-3.1-3.1-4.7-4.9-7.1c-3-4-2.9-8.9-2.8-13.7c0-0.5-0.3-1.1-0.7-1.3
					c-9.2-4.6-20.3-6.5-30.2-9c-4.9-1.2-9.3-3.1-14.1-4.6c-7.2-2.2-14.2-0.6-20.7,3.1C354.6,429.8,356.1,432.4,357.8,431.4
					L357.8,431.4z"/>
			</g>
		</g>
		<g>
			<g>
				<path class="st2" d="M388,401c-5.2-0.1-9.8,1.1-15,0.4c-8.2-1.2-15.7-1.3-23.8,0.6c-4,1-7.1,4.1-10.8,5.3c-3.1,1-6.1,0.2-9.1,2
					c-6.9,4.1-14.9,9.5-18.9,16.8c-0.9,1.7,1.7,3.2,2.6,1.5c2.1-3.8,5.4-6.4,8.7-9.3c1.7-1.5,3.2-2.7,5.2-3.8c2-1.2,4.3-3.2,6.5-3.8
					c1.8-0.4,3.8,0.2,5.6-0.3c1.3-0.4,2.1-1.2,3.2-2c3.9-2.4,8-3.7,12.5-4.5c7.2-1.4,13.6-0.1,20.7,0.7c4.2,0.5,8.4-0.8,12.6-0.7
					C389.9,404,389.9,401,388,401L388,401z"/>
			</g>
		</g>
		<g>
			<g>
				<path class="st2" d="M389.1,404.2c4,0.3,6.4,2,9.9,3.5c2.5,1,5.5,1,8.1,1.8c3.5,1,6.5,2.7,9.7,4.3c2.9,1.4,6,1.7,8.8,3
					c4.3,2.1,5.5,5.3,6.4,9.6c0.5,2.7,2,4.2,3.4,6.4c4,6.4,6,14.5,9.6,21.2c0.9,1.7,3.5,0.2,2.6-1.5c-2.2-4.3-4.3-8.6-6-13.1
					c-1.2-3-2.1-6-3.9-8.7c-4-5.7-3.1-12.6-10-16.4c-3.1-1.7-6.8-2-10-3.6c-3-1.5-5.8-3-9-4c-3.8-1.2-7.3-1.5-10.8-3.2
					c-2.9-1.4-5.6-2.2-8.8-2.4C387.1,401.1,387.1,404.1,389.1,404.2L389.1,404.2z"/>
			</g>
		</g>
		<g>
			<g>
				<path class="st2" d="M430,462.3c2.2-1.9,4.5-4.5,7-5.8c2.8-1.4,6.3-0.7,9.2,0.1c1.9,0.5,2.7-2.4,0.8-2.9
					c-3.2-0.9-7.1-1.5-10.3-0.4c-3.3,1.1-6.2,4.7-8.8,6.9C426.4,461.4,428.5,463.5,430,462.3L430,462.3z"/>
			</g>
		</g>
		<g>
			<g>
				<path class="st2" d="M319.4,456c1.2,0.4,2.4,1,3.6,1.6c1.7,0.9,3.2-1.7,1.5-2.6c-1.4-0.7-2.9-1.3-4.3-1.9
					c-0.8-0.3-1.6,0.3-1.8,1C318.1,455,318.7,455.7,319.4,456L319.4,456z"/>
			</g>
		</g>
		<g>
			<g>
				<path class="st2" d="M447.1,489c3.5-4.8,7.5-10.1,7.6-16.3c0.1-1.9-2.9-1.9-3,0c-0.2,5.5-4.1,10.5-7.2,14.8
					C443.4,489,446,490.5,447.1,489L447.1,489z"/>
			</g>
		</g>
		<g>
			<g>
				<path class="st2" d="M431.2,462.9c6.7-1.3,19.4,5.5,20.4,12.5c0.3,1.9,3.2,1.1,2.9-0.8c-1.3-9-15.8-16.2-24-14.6
					C428.6,460.3,429.4,463.2,431.2,462.9L431.2,462.9z"/>
			</g>
		</g>
		<g>
			<g>
				<path class="st2" d="M322.6,451.3c-5-5-15.5-6-21.4-2c-1.6,1.1-0.1,3.7,1.5,2.6c4.8-3.3,13.7-2.6,17.7,1.5
					C321.9,454.7,324,452.6,322.6,451.3L322.6,451.3z"/>
			</g>
		</g>
	</g>
</g>
</svg>
