<?xml version="1.0" encoding="utf-8"?>
<!-- Generator: Adobe Illustrator 19.2.0, SVG Export Plug-In . SVG Version: 6.00 Build 0)  -->
<svg version="1.1" id="Layer_1" xmlns="http://www.w3.org/2000/svg" xmlns:xlink="http://www.w3.org/1999/xlink" x="0px" y="0px"
	 viewBox="0 0 530 300" style="enable-background:new 0 0 530 300;" xml:space="preserve">
<style type="text/css">
	.st0{fill:#F63E5B;}
	.st1{fill:#CE2041;}
	.st2{fill:#36516E;}
	.st3{fill:#9B072A;}
	.st4{fill:#132433;}
</style>
<g>
	<path class="st0" d="M485.8,154.4c-4.2-3.1-30.7-23.8-60.2-38.3c-8.2,19.8-166.2,85.5-307.3-9.7c-24.1,11.1-59.2,28-95.8,58.9
		C1,183.5-9,211.6,19.8,233.1c86.4,64.3,338.2,90.1,463.3,8.9C512.5,222.9,520.1,179.7,485.8,154.4z"/>
	<g>
		<path class="st1" d="M110.1,117c5.9,3.3,9.7,9.3,14,13c4.3,3.7,16.1,11,20,13.3c3.8,2.3,11.5,4.1,13.6,8.5s1,5.9-2.8,5.9
			s-24-10.6-30.9-16.4c-6.8-5.8-17.8-16.7-18-18.8C105.4,118.7,108.6,116.1,110.1,117z"/>
		<path class="st1" d="M308,170c-2.1,0-5.5,0.1-8.3,0.1c-2.2,0-3.9,2-3.6,4.1l0.4,2.5c0.5,3.3,3.6,5.6,7,5.1c0,0,17.7-1.4,29-3.8
			c0.2,0,0.4-0.1,0.5-0.1l26.2-7h0.1l20.6-8.7c1.9-0.8,2.8-3,1.9-4.9l0,0c-0.8-1.7-2.8-2.5-4.6-1.9l-22.6,7.7c0,0,0,0-0.1,0L331,169
			c-0.1,0-0.1,0-0.2,0L308,170z"/>
	</g>
	<path class="st2" d="M335.1,244.2l3.8,44.5c0,0,37.8-6.1,50.1-8.8c27.4-5.9,45.3-14.3,45.3-14.3l-2.9-34.7l-47.1,10.5L335.1,244.2z
		"/>
	<g>
		<g>
			<path class="st3" d="M424.5,116.1c20.1,12.1,40.8,24.4,58.6,39.7c1.9,1.7,4.8-1.1,2.8-2.8c-18.1-15.6-39.1-28-59.4-40.3
				C424.3,111.3,422.3,114.8,424.5,116.1L424.5,116.1z"/>
		</g>
		<g>
			<path class="st3" d="M23.8,166.8c13.7-12.8,30.4-22.7,46.4-32.3c15.9-9.5,32.2-18.5,49-26.4c2.3-1.1,0.3-4.5-2-3.5
				c-17.2,8-33.9,17.3-50.2,27.1c-15.9,9.5-32.4,19.4-46,32.2C19.1,165.7,21.9,168.5,23.8,166.8L23.8,166.8z"/>
		</g>
		<g>
			<path class="st3" d="M117.5,107.7c45.6,34.3,102.4,49.2,158.9,49.8c42.4,0.5,87.9-5.5,126.9-23.2c6-2.7,12.1-5.8,17.2-10
				c2.9-2.4,6.2-5.5,6.3-9.5c0.1-1.9-2.9-1.9-3,0c-0.1,3-3.3,5.6-5.4,7.4c-4.4,3.6-9.6,6.3-14.7,8.7c-16,7.6-33.3,12.4-50.5,16.1
				c-48.7,10.4-100.5,10.8-148.9-1.5c-30.8-7.8-59.9-21.2-85.3-40.3C117.4,104,115.9,106.6,117.5,107.7L117.5,107.7z"/>
		</g>
		<g>
			<path class="st3" d="M308,172c17.1,0.8,33.9-1.7,50-7.6c2.4-0.9,1.4-4.7-1.1-3.9c-15.7,5.8-32.2,8.3-48.9,7.5
				C305.4,167.9,305.4,171.9,308,172L308,172z"/>
		</g>
		<g>
			<path class="st3" d="M330.9,180c13.3-1.4,26-5.2,37.9-11.4c2.3-1.2,0.3-4.6-2-3.5c-11.2,5.8-23.3,9.5-35.8,10.8
				C328.4,176.3,328.4,180.3,330.9,180L330.9,180z"/>
		</g>
		<g>
			<path class="st3" d="M118.8,127.5c6.9,7.5,15,13.4,24.3,17.6c2.3,1.1,4.4-2.4,2-3.5c-8.9-4.1-16.8-9.7-23.5-17
				C119.9,122.7,117.1,125.6,118.8,127.5L118.8,127.5z"/>
		</g>
		<g>
			<path class="st3" d="M108.7,128.1c4.7,5.9,10.1,10.9,16.2,15.3c2.1,1.5,4.1-2,2-3.5c-5.8-4.2-10.9-9.1-15.4-14.7
				C110,123.3,107.1,126.1,108.7,128.1L108.7,128.1z"/>
		</g>
		<g>
			<path class="st4" d="M333.1,244.9c0.5,14.4,1.7,28.9,3.8,43.2c0.4,2.5,4.2,1.5,3.9-1.1c-2-13.9-3.1-28-3.6-42.1
				C337,242.3,333,242.3,333.1,244.9L333.1,244.9z"/>
		</g>
		<g>
			<path class="st4" d="M335.1,246.2c32.7-0.8,66-1.9,97-13.4c-0.8-0.6-1.7-1.3-2.5-1.9c0.9,11.6,2.3,23.1,2.9,34.7
				c0.1,2.6,4.1,2.6,4,0c-0.6-11.6-1.9-23.1-2.9-34.7c-0.1-1.2-1.2-2.4-2.5-1.9c-30.7,11.4-63.6,12.5-95.9,13.3
				C332.5,242.3,332.5,246.3,335.1,246.2L335.1,246.2z"/>
		</g>
		<g>
			<path class="st4" d="M337.7,269.8c17.3,0.9,34.9-1.4,52-3.7c14.6-2,30-3.8,44-8.6c2.4-0.8,1.4-4.7-1.1-3.9
				c-13.6,4.7-28.6,6.4-42.7,8.4c-17.2,2.4-34.9,4.7-52.3,3.8C335.1,265.6,335.1,269.6,337.7,269.8L337.7,269.8z"/>
		</g>
	</g>
</g>
</svg>
