<?xml version="1.0" encoding="utf-8"?>
<!-- Generator: Adobe Illustrator 19.2.0, SVG Export Plug-In . SVG Version: 6.00 Build 0)  -->
<svg version="1.1" id="Layer_1" xmlns="http://www.w3.org/2000/svg" xmlns:xlink="http://www.w3.org/1999/xlink" x="0px" y="0px"
	 viewBox="0 0 530 300" style="enable-background:new 0 0 530 300;" xml:space="preserve">
<style type="text/css">
	.st0{fill:#433947;}
	.st1{opacity:0.75;}
	.st2{fill:#231E26;}
	.st3{fill:#0F0814;}
</style>
<g>
	<path class="st0" d="M485.4,155.1c-9.6-7.3-69.1-46.1-89.9-55.7c-3.7-1.7-27.4-13.7-27.4-13.7s-9.1-15.5-10.9-25.8
		c-3-17.7-8.7-27.6-8.7-27.6s-4.3,13.8-21.7,28.3c-23.2,20.1-57,38.3-60.2,37.1c-5.8-2-10.9-0.5-15.1-2.8
		c-6.8-3.8-26.1-18.1-34-23.8c-37-28.8-41.9-40.1-41.9-40.1s-17.1,32.2-18,34c-4.3,9-0.8,19-0.8,19l-15.2,9.2
		c0,0-72.7,35.8-107.8,66.4c-20.6,17.9-23.9,52.1,3.8,73.3c75.6,57.9,332.5,84.2,445.3,8.8C511.2,222.9,518.4,180.2,485.4,155.1z"/>
	<g class="st1">
		<path class="st2" d="M323.4,166.3c-0.3-0.2-0.6-0.4-0.8-0.6c-0.2,0.4-0.4,0.8-0.6,1.3c-14.1-9.5-20.4-24-25.3-39.5
			c-1.6-5-2.7-10.4-4.9-15.2c-3.3-7.3-9.7-12.9-17.2-15.4c2.2-1.1,4.5-2.1,6.7-3.3c-1.2-0.5-2.3-1-3.5-1.6c-2.8,1.4-5.7,2.7-8.5,4
			c-0.7,0.3-0.9,0.9-0.7,1.5c0,2.8,4.3,4.4,5.5,5.1c5.4,3.2,7.9,9.9,9.9,15.5c2.7,7.7,4.6,15.6,7,23.4c4,13.6,9.1,25.8,22.3,33.3
			c0.5,0.3,1.4,0.3,1.8-0.2c1.6-1.8,3.3-3.7,4.9-5.5c0.6,0.4,1.2,0.8,1.8,1.2c0.6,0.4,1.7,0.2,2.1-0.5c0.4-0.9,0.9-1.8,1.3-2.7
			C324.6,167,324.1,166.7,323.4,166.3z"/>
		<path class="st2" d="M250,93.8c-12-7.3-20.5,18.5-23.4,25.6c-3.8,9.3-7.2,18.9-11.5,28.1c-3.6,7.7-8.6,15.1-16.8,18.4
			c-0.2-0.3-0.4-0.7-0.6-1c-0.6,0.7-1.4,1.3-2.4,1.8c0.3,0.6,0.7,1.2,1,1.8s1.1,0.9,1.7,0.7c0.5-0.2,0.9-0.3,1.3-0.5
			c0.1,0.7,0.5,1.4,1.4,1.4c15.2-0.1,24-19.4,29.4-30.9c3.8-8.1,7.1-16.4,10.5-24.6c2.4-5.7,4.1-19.5,9.2-17.5
			c0.4,0.1,0.4-0.6,0.4-0.9C250.8,95.4,250.9,94.3,250,93.8z"/>
		<g>
			<path class="st2" d="M362.8,75.8c-0.1-1.2,0.2-2.5,0.9-3.5c0,0.1,0,0.1-0.1,0.1c0.1-0.3,0.3-0.7,0.4-1l0,0
				c-2.6-5.5-5.5-10.9-6.9-16.9c-0.4-1.8-0.7-3.6-1.1-5.4c-1.2-0.3-2.3-4.8-3.3-5.6l0,0c0.5,0.5,0.9,0.7,1.2,0.9c0.5,0,0.7,0.5,0,0
				l0,0c-0.3,0-0.7-0.1-1-0.1c0.2,1.1,0.5,6.3,0.7,7.4c1.3,6.3-4.7,17.5-8.7,24.1c-1.9,3.2-3.7,6.4-5.1,9.8
				c-0.8,1.9-2.5,5.5-1.9,7.6c0.2,0.7,0.8,1,1.4,1.1c2.8,0.4,7.6-5.1,9.3-6.6c4.8-4.4,9.6-9.4,12.6-15.3
				C361.8,73.6,362.3,74.7,362.8,75.8z"/>
			<path class="st2" d="M183.5,79.2C178.3,68.7,169,54,171.4,41.9c0.5-1,1-1.9,1.4-2.9c-0.4-0.4-0.8-0.9-1.2-1.4
				c-0.3-0.5-12.9,26.8-12.7,27.8c0.1,0.5,0.1,0.9,0.2,1.4c0.7-1.5,1.5-3,2.2-4.5c1.1,1.8,1.9,4.1,2.6,5.5c1.9,3.8,3.8,7.6,5.9,11.3
				c2.2,3.9,6.7,13.4,12.4,12.7C189.6,90.9,185.2,82.7,183.5,79.2z"/>
		</g>
	</g>
	<g>
		<g>
			<g>
				<path class="st3" d="M367,87.3c19.7,8.3,38.5,19.6,56.9,30.4c20.2,11.9,41.3,24.1,58.9,39.7c1.9,1.7,4.8-1.1,2.8-2.8
					c-17.9-15.9-39.2-28.3-59.7-40.4c-18.7-11-37.8-22.4-57.8-30.8C365.7,82.5,364.7,86.3,367,87.3L367,87.3z"/>
			</g>
			<g>
				<path class="st3" d="M38.2,158.7c20.2-15,41.7-28.3,63.2-41.2c18.1-10.8,36.4-21.7,55.5-30.8c2.3-1.1,0.3-4.6-2-3.5
					c-19.1,9.1-37.4,20-55.5,30.8c-21.6,12.9-43,26.3-63.2,41.2C34.1,156.7,36.1,160.2,38.2,158.7L38.2,158.7z"/>
			</g>
		</g>
		<g>
			<path class="st3" d="M269.8,98.9c18.4,2.9,20.9,20.3,26.2,34.6c5.2,14.1,12.5,28.9,25.8,37c0.7,0.4,1.7,0.2,2.1-0.5
				c12.1-25.2,38-44.2,44-72.4c1.2-5.9,1.3-12-0.4-17.8c-1.9-6.6-5.6-12.6-8.2-18.9c-3.6-9-1.7-22.6-9.9-29.2
				c-0.7-0.6-1.8-0.6-2.4,0.3c-16.5,29.5-47.7,50.3-77.7,64.3c-1.7,0.8-0.2,3.4,1.5,2.6c30.4-14.2,62-35.4,78.7-65.4
				c-0.8,0.1-1.6,0.2-2.4,0.3c4.2,3.4,5,9.1,5.8,14.1s1.5,9.6,3.5,14.3c2.6,6.2,6.2,11.9,8,18.4c2,7,1.3,14.2-0.9,21
				c-8.3,25.5-31,43.1-42.4,66.9c0.7-0.2,1.4-0.4,2.1-0.5c-14.7-8.9-21.7-26.6-26.9-42.2c-1.5-4.5-2.7-9.4-4.7-13.7
				c-4-8.4-11.9-14.6-21.1-16C268.7,95.7,267.9,98.6,269.8,98.9L269.8,98.9z"/>
		</g>
		<g>
			<path class="st3" d="M269.5,96.1c-5.8,0-12.1-0.5-17.5-2.6c-1.8-0.7-2.6,2.2-0.8,2.9c5.7,2.1,12.3,2.7,18.3,2.7
				C271.4,99.1,271.5,96.1,269.5,96.1L269.5,96.1z"/>
		</g>
		<g>
			<path class="st3" d="M250,93.8c-12-7.3-20.5,18.5-23.4,25.6c-3.8,9.3-7.2,18.9-11.5,28.1c-3.8,8-9.1,15.8-17.9,18.8
				c0.6,0.2,1.1,0.5,1.7,0.7c-9.1-16.6-17.8-33.5-26-50.6c-4.4-9.3-8.8-18.7-12.4-28.3c-1.3-3.6-5.9-12.6-3.7-16.5
				c1-1.7-1.6-3.2-2.6-1.5c-2.4,4.2,0.9,11.6,2.3,15.6c3.3,9.6,7.6,18.9,11.9,28.1c8.7,18.6,18.1,36.8,27.9,54.8
				c0.3,0.6,1.1,0.9,1.7,0.7c15.7-5.3,21.1-22.8,26.6-36.7c2.3-5.7,13.4-42.3,23.8-36C250.1,97.4,251.6,94.8,250,93.8L250,93.8z"/>
		</g>
		<g>
			<path class="st3" d="M156.8,71.5c6.7-13.7,13.5-27.3,20.2-41c-0.9-0.1-1.8-0.2-2.7-0.4c1,7.1,7.6,11.8,12.5,16.4
				c6.7,6.1,13.4,12.2,20.3,18c13.4,11.4,27.5,22.2,42.8,31c1.7,1,3.2-1.6,1.5-2.6c-14.5-8.4-28-18.6-40.8-29.4
				c-6.1-5.1-12-10.4-17.9-15.7c-5.4-4.9-14.5-10.8-15.6-18.5c-0.2-1.3-2.2-1.4-2.7-0.4c-6.7,13.7-13.5,27.3-20.2,41
				C153.4,71.7,156,73.2,156.8,71.5L156.8,71.5z"/>
		</g>
		<g>
			<path class="st3" d="M250.8,93.9c-11.2-0.1-9.2,17.4-9.3,24.6c-0.2,13.2-0.3,26.3-0.4,39.5c-0.2,31.4-0.4,62.8-0.7,94.2
				c-0.1,11.6-0.2,23.3-0.3,34.9c0,1.9,3,1.9,3,0c0.7-52,0.7-104,1.2-156c0.1-5.8,0.1-11.6,0.2-17.4c0.1-4.8-1.1-16.8,6.2-16.7
				C252.8,96.9,252.8,93.9,250.8,93.9L250.8,93.9z"/>
		</g>
		<g>
			<path class="st3" d="M276.3,288.2c-0.6-54.9,0.2-109.8,0.5-164.7c0.1-8.2,0-16.4,0.2-24.5c0.1-1.9-2.9-1.9-3,0
				c-0.7,20.5-0.3,41.1-0.4,61.7c-0.2,32.3-0.3,64.7-0.3,97c0,10.2-0.1,20.4,0,30.5C273.3,290.1,276.3,290.1,276.3,288.2
				L276.3,288.2z"/>
		</g>
		<g>
			<path class="st3" d="M256.6,110.6c1.5-1.1,3.9-1.3,5.3,0c1.8,1.6,0.5,3.9-1.5,4.4c-1.4,0.4-4.1,0.2-4.1-1.7
				c0-0.8,0.2-1.5,0.4-2.3c0.1-0.3,0.2-0.6,0.3-0.9c0.2-0.5-0.1,0.2,0-0.1c0.8-1.7-1.8-3.3-2.6-1.5c-0.9,2-1.8,4.8-0.8,6.9
				c1.5,3,6.3,3.3,8.9,1.9c3.1-1.6,4.1-5.7,1.8-8.4c-2.2-2.6-6.7-2.8-9.4-0.9C253.5,109.1,255,111.7,256.6,110.6z"/>
		</g>
		<g>
			<path class="st3" d="M317,148c-1.1,2-1,4.6,0.4,6.4c1.6,2,4.2,1.8,6.1,0.3c1.7-1.4,3.6-3.9,3-6.3c-0.4-1.8-2.1-2.7-3.8-2.9
				c-2-0.2-4.2,0.6-5.6,2.2c-1.2,1.5,0.9,3.6,2.1,2.1c0.8-0.9,1.9-1.4,3.1-1.3c0.4,0,0.4,0,0.8,0.1c0.1,0,0.3,0.2,0.3,0.1
				c0.3,0.2,0.2,0.1,0.2,0.3c0,0.1,0,0.2,0,0.4c-0.2,1.1-2,3.8-3.4,3.4c-1.2-0.4-1.1-2.5-0.6-3.4C320.4,147.8,317.8,146.3,317,148
				L317,148z"/>
		</g>
		<g>
			<path class="st3" d="M195.3,148.6c-0.4,3.1,0.6,6.8,4.3,6.9c2.9,0.1,5.2-2.5,5.3-5.3c0.2-2.7-1.6-5.3-4.4-5.5
				c-2.3-0.1-5.5,1.4-4.9,4.1c0.4,1.9,3.3,1.1,2.9-0.8c0.1,0.2-0.2,0.4,0.1,0.2c0.2-0.2,0.5-0.3,0.7-0.3c0.4-0.1,1-0.2,1.4-0.1
				c1.1,0.4,1.3,1.8,1.1,2.7c-0.2,1-1.1,2.1-2.3,2c-1.8-0.3-1.5-2.6-1.3-3.9C198.5,146.7,195.5,146.7,195.3,148.6L195.3,148.6z"/>
		</g>
		<g>
			<path class="st3" d="M350.5,65.6c-5.1,11.3-11.4,21.9-19,31.7c-1.2,1.5,1.4,3,2.6,1.5c7.6-9.8,13.9-20.4,19-31.7
				C353.9,65.3,351.3,63.8,350.5,65.6L350.5,65.6z"/>
		</g>
		<g>
			<path class="st3" d="M353.5,72.8c-1.4,3.8-3.5,7.3-6,10.4c-1.2,1.5,0.9,3.6,2.1,2.1c2.9-3.5,5.2-7.4,6.8-11.7
				C357.1,71.8,354.2,71,353.5,72.8L353.5,72.8z"/>
		</g>
		<g>
			<path class="st3" d="M168.7,59.4c3.5,6.5,7.4,12.8,11.6,18.9c1.1,1.6,3.7,0.1,2.6-1.5c-4.2-6.1-8.1-12.4-11.6-18.9
				C170.4,56.2,167.8,57.7,168.7,59.4L168.7,59.4z"/>
		</g>
		<g>
			<path class="st3" d="M164.4,67.1c2.7,5.6,5.8,10.8,9.3,15.8c1.1,1.6,3.7,0.1,2.6-1.5c-3.6-5-6.7-10.3-9.3-15.8
				C166.2,63.8,163.6,65.4,164.4,67.1L164.4,67.1z"/>
		</g>
	</g>
</g>
</svg>
