<?xml version="1.0" encoding="utf-8"?>
<!-- Generator: Adobe Illustrator 19.2.0, SVG Export Plug-In . SVG Version: 6.00 Build 0)  -->
<svg version="1.1" id="Layer_1" xmlns="http://www.w3.org/2000/svg" xmlns:xlink="http://www.w3.org/1999/xlink" x="0px" y="0px"
	 viewBox="0 0 358 342.5" style="enable-background:new 0 0 358 342.5;" xml:space="preserve">
<style type="text/css">
	.st0{fill:#EFEFEF;}
	.st1{fill:#BBBBBC;}
	.st2{fill:#7A7B7B;}
</style>
<g>
	<path class="st0" d="M59.6,277.3c-5.6-21.7-11.2-44-13-66.4l3,0.5l0,0l0,0.1h0c0.1,0,0.1-0.6,0.1-0.9l-3.1-0.1l-0.1-0.1
		c-0.4-5-0.6-9.9-0.5-14.9c0.2-23.8,7.7-40.2,22.4-48.6l1.3-0.7l-0.3-1.4c-1.4-6.9-1.7-13.5-0.8-19.6c1.4-9.2,7.7-26,34.4-34.8
		l0.7-0.1l0.4-0.5c6.2-6.2,12.4-9.4,18.6-9.4c1.1,0,2.2,0.1,3.3,0.3l0.9,0.2l0.7-0.6c4.5-3.7,9.2-5.6,13.7-5.6c2,0,4,0.4,6,1.1
		l0.9,0.3l0.8-0.4c0.7-0.3,1.3-0.6,1.9-0.9c2.1-0.9,4.2-1.3,5.9-1.3c3.6,0,4.4,1.9,4.7,2.5l0.8,1.9l1.9-0.9c3.8-1.9,7.9-3.3,12.1-4
		l0.5-0.1c1.7-0.3,3.6-0.7,5.4-0.7c1,0,1.8,0.1,2.5,0.3l0.8,0.4l0.8-0.3c3.3-1.3,7.1-2,11.2-2c5.7,0,12.1,1.2,20.1,3.8l0.4,0.1
		l0.5-0.1c1.7-0.2,3.4-0.4,5.2-0.4c4.6,0,9.7,0.8,15.3,2.3l0.7,0.4l0.7-0.2c1.2-0.3,2.4-0.5,3.6-0.5c0.5,0,0.9,0,1.4,0
		c11.4,0,22.6,9.8,24.3,21.4l0.1,0.8l0.7,0.5c5.2,3.9,9.5,9.8,12.4,17l0.2,0.5l0.4,0.3c5.5,4.4,8.9,12.7,10.2,16.5l-1.1,0.9l1.1,1.6
		c7.5,10.3,10.5,25.7,7.3,37.4l-0.3,1.1l0.8,0.8c3,3.1,6.2,8.3,5.1,15.2l-2.3,0.3l1.3,2.5c3.9,7.9,3.8,17.5,3.1,26l-3,0.1
		c-0.2,10.2-2.6,20.5-4.6,28.4l-0.1,0.2l-0.1,0.4c-1.6,7.7-4.7,15.3-7.6,22.6c-0.7,1.8-1.4,3.6-2.2,5.4c1.5-14.1,0.7-28.2-0.4-40.4
		c-1-11.3-2.5-24.6-6-37.4l0-0.3l-0.1-0.2c-1.9-4.6-3.2-8.8-3.9-12.7l-0.1-0.6l-0.4-0.4c-8.7-8.8-16.6-18.8-23.4-29.6l0.3-4.6
		l-3,2.7l-2.8-2.3c-1.7,1.6-3.5,2.3-5.4,2.3c-0.3,0-0.6,0-0.9-0.1l-1.2-0.2l-0.7,1c-1.3,2-2.9,4.1-4.7,5.8
		c-3.5,3.2-8.7,7.3-13.7,8.3h-0.6l-0.7,0.1c-1,0.7-1.8,1.1-2.6,1.6l-0.2-0.1l-0.3,0.1c-0.8,0.3-1.7,0.4-2.6,0.4
		c-0.5,0-1.1-0.1-1.7-0.1c-0.6-0.1-1.9-0.3-2.6-0.7l-1.8-1.1l-1.1,1.8c-1.1,1.9-2.4,3.7-3.7,5.4l-0.1,0l-0.4,0.3
		c-0.9,0.5-1.9,0.8-3,0.8c-1.7,0-3.5-0.6-5.1-1.6l-2-1.3l-1,2.1c-0.3,0.6-0.5,1.1-0.8,1.7l-0.3,0.2l0,0c-1.4,0.2-2.8,0.3-4.2,0.3
		c-1.3,0-2.7-0.1-4-0.3l-1.2-0.2l-0.6,1c-1.2,0.8-3.1,1-4.9,1.2c-0.4,0-0.8,0.1-1.2,0.1c-2.2,0.2-4.6,0.4-7,0.4c-1,0-2.1,0.1-3.1,0
		l0,0.1h-1.4l-0.6,0.9c-0.3,0.5-0.6,0.9-0.9,1.3l-0.5-0.3l-0.8,0.4l-0.4-0.1l-0.4,0.1c-2.2,0.4-4.5,0.6-6.7,0.6
		c-3.7,0-7.4-0.6-11-1.8l-1.6-0.5l-0.6,1l0,0l-0.4,0.2l0,0c-6.8-1.6-13.9-3.3-19.5-7.4l-0.9-0.7l-0.9,0.4l-0.2-0.1l-0.5,0
		c-6.9-0.2-15.9-2.8-20.3-9.6l-0.3-0.5l-0.5-0.2c-4.4-1.9-7.9-4.7-10.5-8.4l-3.9-5.5l0.2,6.7c0.2,6.9-0.8,14.3-3.1,21.4l-0.4,0.1
		l-0.3,0.4c-7.3,1.5-10.3,10.9-12,16.6l-0.1,0.4c-3.2,10.3-4.8,21-6,31.1C61.2,242.1,60.3,258.3,59.6,277.3z"/>
	<g>
		<path class="st1" d="M291.6,269.6c0.6-9.6,0.3-20.3-0.9-33.6c-0.9-10-1.9-17.7-3.1-24.7l1.9-0.6l0.6,1.2
			c6.5,13.3,9.9,24.2,11,35.4l0,0.1l0,0.1c-1.6,8.1-4.9,16.1-7.4,22.5L291.6,269.6z"/>
		<path class="st1" d="M54.1,254.9c-0.6-2.4-1.1-4.8-1.6-7.2l-0.2-0.9l0.9-0.3c2.3-0.7,4.6-1.3,6.8-1.7l1.3-0.3l-0.1,1.3
			c-0.2,2.3-0.3,4.6-0.5,6.9l0,0.8l-0.8,0.1c-1.3,0.2-2.8,0.8-4.3,1.8l-1.2,0.7L54.1,254.9z"/>
		<path class="st1" d="M51.8,244.8c-0.5-2.3-1-4.7-1.4-7.3l-0.3-1.3l1.4,0.2c3.2,0.4,6.4,0.7,9.4,0.9l1,0.1l-0.1,1
			c-0.1,1.5-0.2,3-0.4,4.5l-0.1,0.8l-0.8,0.1c-2.5,0.5-5.1,1.1-7.5,1.8l-1,0.3L51.8,244.8z"/>
		<path class="st1" d="M63,218.3c-4.2-1-7.9-1.4-11.2-1.4c-1.2,0-2.5,0.1-3.6,0.2l-1,0.1l-0.1-1c-0.2-1.5-0.3-3-0.4-4.6l-0.1-1.4
			l0.8,0.2l1.3,0c0,0.1,0,0.1,0,0.2c0,0,0.1,0,0.1,0c0.2,0,0.4,0,0.5,0c1.6,0,3.2,0.1,4.8,0.1c4.1,0.2,7.1,0.5,10,1.1l1,0.2l-0.2,1
			c-0.2,1.4-0.4,2.7-0.7,4.1l-0.2,1.5L63,218.3z"/>
		<path class="st1" d="M307.4,210.4c-3.1-5.9-8.9-10.6-14.5-15.1c-2.2-1.7-4.4-3.5-6.4-5.3c-6.6-6-12.8-12.7-18.5-19.8l1.3-1.5
			c3.9,2.4,8.3,4.4,12.5,6.3c3.3,1.5,6.7,3.1,9.9,4.8c5.5,3,11.5,7,14.6,13.6c2.1,4.4,3,9.7,3,16.5L307.4,210.4z"/>
		<path class="st1" d="M67.2,196.8c-7.4-1.6-14.2-4.6-20.4-8.9l-0.5-0.3l0.1-0.6c0.2-2.2,0.5-4.2,0.8-6.2l0.3-2l1.4,1.4
			c5.6,5.7,12.3,9.9,19.6,11.9l1,0.3l-0.3,1c-0.3,0.9-0.5,1.8-0.8,2.7l-0.2,0.9L67.2,196.8z"/>
		<path class="st1" d="M304.9,189.8c-1.9-2.9-4.4-5.4-7.4-7.6c-4.6-3.2-9.9-5.7-15.1-8c-7.3-3.3-14.8-6.7-20.6-12.6
			c0,0-0.1-0.1-0.1-0.1l-0.2-0.1l-0.1-0.2c-0.7-1-1.4-2-2-3l-2-3.1l3.3,1.6c6.6,3.2,13.5,5.8,21.7,8.2c17.5,5,25.9,13.4,24.5,24.4
			l-0.4,2.7L304.9,189.8z"/>
		<path class="st1" d="M68.9,191.2c-7.8-2.1-14.9-6.7-20.7-13.2l-0.3-0.4l0.1-0.5c1-4.4,2.4-8.6,4.1-12.2l0.8-1.7l0.9,1.7
			c4.5,7.9,10.4,14.7,17.7,20.3l0.1,0l0.6,0.6l-0.3,0.6c-0.6,1.3-1.2,2.7-1.7,4.1l-0.3,0.9L68.9,191.2z"/>
		<path class="st1" d="M156,182.4c-3.6,0-7.3-0.6-10.9-1.8l-1-0.3l0.3-1c2.9-8.2,2.2-17.9,1.8-25.6c-0.2-3.9-0.6-7.9-0.9-11.7
			c-0.3-3-0.5-6-0.7-9l2-0.4c1.8,5.9,4.2,11.8,6.6,17.5c4,9.8,8.1,19.8,9.6,30.6l0.1,1l-0.9,0.2C159.9,182.2,157.9,182.4,156,182.4z
			"/>
		<path class="st1" d="M75.9,179.3c-6.4-8.9-10.8-18.2-13-27.6l-0.2-0.7l0.5-0.4c1.4-1.1,2.9-2.2,4.5-3.1l1.2-0.7l0.3,1.3
			c1.4,5.6,3.5,11.5,6.4,17.6c1.4,3.1,3.4,7.1,5.8,10.8l0.8,1.2l-1.4,0.3c-1.2,0.3-2.4,0.8-3.4,1.6l-0.8,0.6L75.9,179.3z"/>
		<path class="st1" d="M189.9,177.2c-1.2,0-2.3-0.1-3.5-0.2l-1-0.1l0.1-1c0.9-8.1,0.8-16.6,0.7-24.7c-0.1-6.9-0.1-14.1,0.4-21.1
			c0.7-9.1,1.7-19.7,4.8-29.1l1.9,0.4c-1,10.7,0.7,21.3,2.7,31.3c3.3,16.4,5.3,30-1.6,43.8l-0.2,0.5l-0.5,0.1
			C192.5,177.1,191.2,177.2,189.9,177.2z"/>
		<path class="st1" d="M81.1,174.2c-6.2-9.8-10.6-21.6-12.3-33.3c-1.6-10.7-0.2-20.4,4-28.2C77.5,103.9,86,97,98.2,92.2l3.5-1.4
			l-2.4,2.9c-1.9,2.3-3.7,4.9-5.3,7.6c-4.5,7.3-14.5,26.3-10.3,44.5l0,0.1l0,0.1c0,0.1,0,0.1,0,0.2c2,8.4,1.6,18-0.9,27.7l-0.6,2.2
			L81.1,174.2z"/>
		<path class="st1" d="M119.5,173.4c-15.3-0.8-21.5-9.9-22.1-17.5c-0.7-8.2,1-16.6,2.7-23.6c5.4-22.1,13.8-38.8,25-49.6
			c5.3-5.2,11-7.9,16.5-7.9c1,0,1.9,0.1,2.9,0.2l2.6,0.4l-2.2,1.4c-6.3,4-12.5,10.4-17.8,18.5c-8.4,12.8-12.3,26.6-11.2,40.1
			c0.4,5.3,1.4,10.5,2.3,15.6c1.2,6.9,2.5,14,2.5,21.2l0,1L119.5,173.4z"/>
		<path class="st1" d="M280.6,110.9c-5.9-11-15.3-17.3-25.7-17.3c-2.3,0-4.6,0.3-7,0.9l-0.2,0.1l-0.5,0.1l-0.2,0.4
			c0,0.1-0.1,0.1-0.1,0.2c-4.7,5.2-5.8,12.7-6.5,19.3c-0.4,3.5-0.6,7.1-0.8,10.6c-0.2,3.6-0.4,7.3-0.8,11
			c-1.3,12.5-4.5,21.2-9.9,27.4l1.2,1.5c3.5-1.9,6.9-5,9.2-7.3c3.7-3.7,6.1-8,7.2-12.8c0-0.1-0.1-0.2,0-0.4c0.4-1.8,0.8-3.6,1-5.5
			c0-0.3,0.2-0.4,0.3-0.5c3.5-10,8.1-17.2,14.3-22.6c2.8-2.4,8-4.8,12.5-4.8c1.8,0,3.3,0.4,4.6,1.1l3.1,1.7L280.6,110.9z"/>
		<path class="st1" d="M300.2,158.7c-3-4.5-8.4-8.7-14.5-11.2c-3.9-1.6-7.9-2.5-12-2.5c-5.3,0-10.4,1.4-15.2,4.2l-1.3-1.4
			c6-9.1,12.6-14.7,20.1-17.2c1.4-0.5,4.1-1.2,7.3-1.2c1.4,0,2.6,0.1,3.8,0.4l0.4,0.1l0.2,0.4c0,0.1,0.1,0.1,0.1,0.1
			c6.9,6.2,11.7,16.5,12.9,27.5L300.2,158.7z"/>
		<path class="st1" d="M217.7,116.1c0.5-6.3,1.6-12,3.4-17.3c3.8-11.1,9.7-18.5,17.2-21.3c2.2-0.8,4.6-1.3,7-1.3
			c4.2,0,8.5,1.3,12.3,3.7c5.6,3.5,9.7,8.7,11.5,14.9l0.7,2.3l-2.1-1.2c-3.9-2.1-8.2-3.2-12.7-3.2c-1.8,0-3.7,0.2-5.6,0.5
			c-12.2,2.3-23.3,11.1-29.9,23.4L217.7,116.1z"/>
		<path class="st1" d="M168.8,179c15.9-8.5-1.3-101,39-108c1.7-0.3,6.5,2,6.5,2l-2.3,2.7l-10.2,6.6l-6.8,9.4l-7,18l-3.1,29.8V163
			l-0.4,14.9l-4.3,1.1C180.3,179,167.8,179.5,168.8,179z"/>
		<path class="st1" d="M161.4,76.1c0,0-19,5.1-27.6,28.9c-6.1,17,0,36.5-1,55c-0.4,8-3.4,18-3.4,18l12.9,3.2l3.2-8.7l-1.4-43.1
			L143,120l1.1-12.9l2.3-10.7l5.4-10.2l6.6-6.2L161.4,76.1z"/>
	</g>
	<g>
		<g>
			<path class="st2" d="M144.3,182.4c4.1-8.9,3.5-19.2,2.9-28.7c-0.8-12.4-2.4-24.7-2.2-37.1c0.2-12.1,2.3-24.9,11.9-33.3
				c4.8-4.2,10.7-7,16.9-8.6c3-0.7,7.6-2,10.8-1c1.8,0.6,2.6-2.3,0.8-2.9c-2.9-0.9-6.5-0.1-9.4,0.4c-5.4,1-10.8,2.9-15.5,5.7
				c-10.6,6.4-16,16.9-17.7,28.9c-1.8,13.1-0.3,26.5,0.8,39.6c0.9,11.2,3,24.8-1.8,35.5C140.9,182.6,143.5,184.1,144.3,182.4
				L144.3,182.4z"/>
		</g>
		<g>
			<path class="st2" d="M165.9,183.4c4.1-4.2,3.8-12,3.8-17.4c0-10.2-1-20.3-1.4-30.5c-0.5-10.9-0.8-22,0.7-32.9
				c1.3-9.1,4-19.1,11.2-25.2c10.3-8.8,25.5-5.7,37.2-1.9c1.8,0.6,2.6-2.3,0.8-2.9c-10.8-3.5-23.7-6.2-34.5-1
				c-8.2,3.9-13,12-15.5,20.5c-6.2,21-2.7,44-1.7,65.5c0.2,4.9,0.4,9.8,0,14.7c-0.2,2.9-0.5,6.8-2.7,9.1
				C162.5,182.7,164.6,184.8,165.9,183.4L165.9,183.4z"/>
		</g>
		<g>
			<path class="st2" d="M186.4,177.4c1.9-15.6,0.1-31.6,1.2-47.3c1.2-16.8,3.9-39.3,18.9-49.8c9.5-6.7,21.6-5.7,32.3-2.7
				c1.9,0.5,2.7-2.4,0.8-2.9c-9.8-2.7-20.7-3.9-30.2,0.5c-7.8,3.6-13.3,10.5-16.8,18.2c-8.3,18-8.6,39.2-8.7,58.6
				c0,8.5,0.5,17.1-0.5,25.5C183.2,179.3,186.2,179.3,186.4,177.4L186.4,177.4z"/>
		</g>
		<g>
			<path class="st2" d="M196.2,177.7c6.3-12.4,5.8-25.4,3.3-38.7c-3-15.8-6.7-31.1-2.3-47.1c0.5-1.9-2.4-2.7-2.9-0.8
				c-3.8,14-1.9,27.8,0.9,41.7c3,14.8,5.6,29.3-1.6,43.4C192.7,177.9,195.3,179.4,196.2,177.7L196.2,177.7z"/>
		</g>
		<g>
			<path class="st2" d="M208.2,176.1c8.9-10.8,11.1-23.2,10.6-36.9c-0.6-13.8-1.3-26.7,3.3-40.1c2.8-8.4,7.9-17.4,16.6-20.7
				c6.2-2.3,13-1.1,18.5,2.3c6.2,3.8,10.6,10.2,11.7,17.4c0.3,1.9,3.2,1.1,2.9-0.8c-2-13-14.5-24-27.9-23.1
				c-20.8,1.4-28.2,28.5-28.8,45.4c-0.3,8.5,0.9,17,0.8,25.5c-0.1,10.7-2.9,20.5-9.8,28.9C204.8,175.5,207,177.6,208.2,176.1
				L208.2,176.1z"/>
		</g>
		<g>
			<path class="st2" d="M285,115.7c-6-15.2-18.5-26.8-35.8-23.5c-15.5,2.9-28.1,15.7-33.3,30.1c-0.7,1.8,2.2,2.6,2.9,0.8
				c4.7-13,15.8-24.3,29.4-27.6c16.2-4,28.3,6.6,33.9,21C282.8,118.3,285.7,117.5,285,115.7L285,115.7z"/>
		</g>
		<g>
			<path class="st2" d="M245.6,93.9c-8.1,8.9-7.4,23.3-8.1,34.5c-1,15.1-3,31.8-17.5,39.9c-1.7,0.9-0.2,3.5,1.5,2.6
				c12.8-7.2,16.9-20.8,18.3-34.6c0.8-7.2,0.9-14.4,1.6-21.6c0.7-6.5,1.7-13.7,6.3-18.7C249,94.6,246.9,92.4,245.6,93.9L245.6,93.9z
				"/>
		</g>
		<g>
			<path class="st2" d="M254,155c5.3-9.6,12.7-19.8,23.6-23.4c4.6-1.5,12.4-2.3,15.4,2.6c0.9,1.4,3.3,0.5,2.7-1.2
				c-2.3-6.9-6.8-15.8-13.4-19.5c-5.4-3-10.8,0.2-14.3,4.5c-4.6,5.6-7.3,12.7-10.4,19.2c-2.1,4.4-6.1,15.3-12.5,14.3
				c-1.9-0.3-2.7,2.6-0.8,2.9c11.3,1.8,16.4-17.1,20.1-24.5c2.5-5,5.9-12.9,12-14.4c8.1-1.9,14.5,12.2,16.5,18.3
				c0.9-0.4,1.8-0.8,2.7-1.2c-3.4-5.6-11.4-5.9-17.1-4.5c-12.5,3.2-21.2,14.6-27.1,25.3C250.5,155.2,253.1,156.7,254,155L254,155z"
				/>
		</g>
		<g>
			<path class="st2" d="M288.4,131.2c10.6,9.6,15.4,28.2,11.6,41.9c-0.5,1.9,2.4,2.7,2.9,0.8c4-14.6-1-34.5-12.4-44.8
				C289.1,127.8,287,129.9,288.4,131.2L288.4,131.2z"/>
		</g>
		<g>
			<path class="st2" d="M253.8,155.3c8.6-8.2,20-10.7,31.1-6c6.9,2.9,15.9,9.4,16.2,17.7c0.1,1.9,3.1,1.9,3,0
				c-0.3-9.6-9.9-17.1-18-20.5c-12.2-5.1-24.9-2.4-34.4,6.7C250.3,154.6,252.4,156.7,253.8,155.3L253.8,155.3z"/>
		</g>
		<g>
			<path class="st2" d="M255,155.3c7.1,11.4,15.5,21.9,25,31.4c4.9,4.8,10.1,9.2,15.4,13.5c6,5,11.9,10.7,12.3,19
				c0.1,1.9,2.9,1.9,3,0c1.1-14.6,0.2-28.7-12.6-37.8c-11.2-7.9-25.8-10.6-35.6-20.5c-1.4-1.4-3.5,0.7-2.1,2.1
				c8.5,8.5,20.4,11.9,30.7,17.6c5.8,3.2,11.3,7.3,14.2,13.4c3.7,7.8,3,17.4,2.4,25.4c1,0,2,0,3,0c-0.7-14-14.2-21.5-23.6-30
				c-11.5-10.4-21.4-22.5-29.6-35.6C256.5,152.3,253.9,153.7,255,155.3L255,155.3z"/>
		</g>
		<g>
			<path class="st2" d="M255.9,155.6c8.6,4.6,16.7,7.8,26.1,10.4c11.1,3.2,26.3,10,23.6,24.3c-0.4,1.9,2.5,2.7,2.9,0.8
				c2.1-11.3-5.9-20-15.6-24.4c-6.2-2.8-12.9-4.1-19.3-6.1c-5.7-1.8-11-4.7-16.2-7.5C255.7,152.1,254.2,154.7,255.9,155.6
				L255.9,155.6z"/>
		</g>
		<g>
			<path class="st2" d="M278.7,185.1c1.7,9.7,6.1,18.4,10.4,27.2c5.6,11.3,9.8,22.8,10.9,35.4c0.1,1.6,2.5,2.1,2.9,0.4
				c3.3-12.4,6-26.1,4.2-38.9c-0.3-1.9-3.2-1.1-2.9,0.8c1.7,12.3-1.1,25.5-4.2,37.3c1,0.1,2,0.3,2.9,0.4
				c-1.1-11.8-4.6-22.8-9.7-33.5c-4.6-9.7-9.9-19.1-11.8-29.9C281.2,182.4,278.4,183.2,278.7,185.1L278.7,185.1z"/>
		</g>
		<g>
			<path class="st2" d="M282.8,198.9c3.2,12.1,4.8,24.7,5.9,37.1c1.3,14.5,2,29.5-0.1,44c-0.3,1.9,2.2,2.6,2.9,0.8
				c3.9-10.7,9.1-21.3,11.4-32.6c0.4-1.9-2.5-2.7-2.9-0.8c-2.3,11.3-7.5,21.9-11.4,32.6c1,0.3,1.9,0.5,2.9,0.8
				c2.1-14.8,1.5-29.9,0.2-44.8c-1.1-12.7-2.7-25.6-6-37.9C285.2,196.2,282.3,197,282.8,198.9L282.8,198.9z"/>
		</g>
		<g>
			<path class="st2" d="M122.5,174.2c0.4-10.4-2-20.3-3.7-30.5c-2.2-12.9-1.1-25.3,4.4-37.3c4.8-10.3,11.8-20,21.2-26.7
				c3.1-2.2,14.7-9.4,16.5-2.4c0.5,1.9,3.4,1.1,2.9-0.8c-1.6-6.4-8.9-5.5-13.6-3.5c-10,4.1-18.1,13-23.9,21.8
				c-7.9,12.1-12.5,26.2-11.4,40.7c1,13,5.2,25.4,4.8,38.5C119.4,176.1,122.4,176.1,122.5,174.2L122.5,174.2z"/>
		</g>
		<g>
			<path class="st2" d="M83.5,176.2c-7.1-10.2-12-23.2-13.8-35.4c-1.4-9.3-0.7-19.2,3.9-27.6c6.1-11.4,17.7-17.8,29.6-21.7
				c1.8-0.6,1-3.5-0.8-2.9c-17.5,5.7-32.8,17.2-35.7,36.4c-2.1,14,2,28.5,7.9,41.1c1.9,4,3.9,8,6.4,11.6
				C82,179.3,84.6,177.8,83.5,176.2L83.5,176.2z"/>
		</g>
		<g>
			<path class="st2" d="M99.4,162.2c-18.9-7.9-16-32-9.8-47.6c5.2-13.2,18.8-36.2,36.2-32.8c1.9,0.4,2.7-2.5,0.8-2.9
				C112,76.1,100,89.8,93.2,100.8c-8.2,13.4-14.5,31.6-9.9,47.3c2.3,7.9,7.7,13.8,15.3,17C100.4,165.8,101.2,162.9,99.4,162.2
				L99.4,162.2z"/>
		</g>
		<g>
			<path class="st2" d="M121.6,172.4c-10.7,0.2-22.3-5.1-23.2-16.6c-0.7-7.8,0.9-15.8,2.7-23.3c4.3-17.3,11.7-36.5,24.7-49.1
				c5.8-5.7,13.3-9.5,21.5-6.6c1.8,0.7,2.6-2.2,0.8-2.9c-17.6-6.4-31.3,13.6-38.2,26.7c-5.1,9.6-8.9,20-11.6,30.6
				c-2.1,8.4-3.9,17.5-2.8,26.2c1.6,12.4,14.6,18.1,26.1,18C123.6,175.4,123.6,172.4,121.6,172.4L121.6,172.4z"/>
		</g>
		<g>
			<path class="st2" d="M120,174.2c6.3,5.3,14.2,7.1,22,9c1.9,0.4,2.7-2.4,0.8-2.9c-7.2-1.7-14.9-3.3-20.7-8.2
				C120.7,170.8,118.6,173,120,174.2L120,174.2z"/>
		</g>
		<g>
			<path class="st2" d="M67.7,145.1c-18.3,10.3-23.5,30.7-23.7,50.4c-0.2,28.9,7.4,57.9,14.5,85.7c0.4,1.7,2.9,1.3,2.9-0.4
				c0.6-18.3,1.4-36.5,3.6-54.7c1.2-10.3,2.8-20.8,5.9-30.7c1.6-5.3,4.4-14.5,10.8-15.6c1.9-0.3,1.1-3.2-0.8-2.9
				c-11,2-14,20.7-15.8,29.2c-3.6,17.5-4.9,35.4-5.9,53.2c-0.4,7.2-0.6,14.3-0.9,21.5c1-0.1,2-0.3,2.9-0.4
				C54.7,254,47.6,226.9,47,199.5c-0.4-19.8,3.5-41.3,22.2-51.8C70.9,146.7,69.4,144.1,67.7,145.1L67.7,145.1z"/>
		</g>
		<g>
			<path class="st2" d="M245.7,144.2c-1.1,5-3.5,9.3-7.1,12.9c-3.4,3.4-9,8.3-14,8.8c-1.9,0.2-1.9,3.2,0,3c5.6-0.5,10.9-4.9,15-8.6
				c4.5-4.2,7.7-9.3,9-15.3C249,143.1,246.1,142.3,245.7,144.2L245.7,144.2z"/>
		</g>
		<g>
			<path class="st2" d="M249.5,139.8c2.2-6.4,5.1-13,9.7-18.1c1.9-2.1,4.1-4.5,6.6-6c3.3-2,10.7-4.1,13.8-0.7
				c1.3,1.4,3.4-0.7,2.1-2.1c-5-5.6-15.6-1.7-20.2,2.3c-7.4,6.4-11.8,14.7-14.9,23.8C246,140.9,248.9,141.7,249.5,139.8L249.5,139.8
				z"/>
		</g>
		<g>
			<path class="st2" d="M164.8,182.4c-1.1-10.5-4.2-20.2-8.3-29.9c-4.7-11.2-10-22.3-11.1-34.6c-0.2-1.9-3.2-1.9-3,0
				c2,22.8,16.9,41.7,19.4,64.5C162,184.3,165,184.3,164.8,182.4L164.8,182.4z"/>
		</g>
		<g>
			<path class="st2" d="M144.1,182.4c6.2,2.1,12.6,2.5,19.1,1.3c1.9-0.4,1.1-3.3-0.8-2.9c-6,1.2-11.8,0.7-17.5-1.3
				C143.1,178.9,142.3,181.8,144.1,182.4L144.1,182.4z"/>
		</g>
		<g>
			<path class="st2" d="M167.5,181.3c3.5,0.2,7.1,0.1,10.6-0.3c2.3-0.3,5.2-0.3,7.2-1.7c1.5-1.1,0-3.7-1.5-2.6
				c-2.1,1.5-5.7,1.3-8.2,1.5c-2.7,0.2-5.4,0.2-8.1,0.1C165.6,178.3,165.6,181.3,167.5,181.3L167.5,181.3z"/>
		</g>
		<g>
			<path class="st2" d="M185.2,178.8c3.2,0.4,6.3,0.4,9.5,0c1.9-0.3,1.1-3.2-0.8-2.9c-2.6,0.4-5.3,0.4-7.9,0
				C184.1,175.7,183.3,178.6,185.2,178.8L185.2,178.8z"/>
		</g>
		<g>
			<path class="st2" d="M196.4,175.3c3,2.3,7.6,3.4,11,1.3c1.6-1,0.1-3.6-1.5-2.6c-2.5,1.6-5.8,0.4-8-1.3
				C196.3,171.5,194.8,174.1,196.4,175.3L196.4,175.3z"/>
		</g>
		<g>
			<path class="st2" d="M211.6,169.8c0.9,1,2.7,1.3,4,1.5c2.1,0.3,4.1,0.2,6-0.7c1.8-0.8,0.2-3.4-1.5-2.6c-1.3,0.6-2.8,0.5-4.1,0.3
				c-0.6-0.1-2-0.5-2.2-0.7C212.5,166.3,210.3,168.4,211.6,169.8L211.6,169.8z"/>
		</g>
		<g>
			<path class="st2" d="M82.8,146.4c2.3,10.1,1.2,21.2-2,31c-0.6,1.8,2.3,2.6,2.9,0.8c3.3-10.3,4.4-22,2-32.6
				C85.2,143.8,82.3,144.6,82.8,146.4L82.8,146.4z"/>
		</g>
		<g>
			<path class="st2" d="M60.9,152.2c2.5,10.5,7.4,20.2,13.8,28.9c1.1,1.5,3.7,0,2.6-1.5c-6.2-8.5-11-17.9-13.5-28.2
				C63.4,149.5,60.5,150.3,60.9,152.2L60.9,152.2z"/>
		</g>
		<g>
			<path class="st2" d="M52.1,163.8c4.7,8.7,11,16.1,18.9,22.2c1.5,1.2,3-1.4,1.5-2.6c-7.4-5.7-13.4-12.8-17.8-21.1
				C53.8,160.6,51.2,162.1,52.1,163.8L52.1,163.8z"/>
		</g>
		<g>
			<path class="st2" d="M46.7,179.3c5.8,6.5,13.3,11.5,21.7,13.8c1.9,0.5,2.7-2.4,0.8-2.9c-7.9-2.2-14.9-6.9-20.4-13.1
				C47.5,175.8,45.4,177.9,46.7,179.3L46.7,179.3z"/>
		</g>
		<g>
			<path class="st2" d="M45.8,189.6c6.4,4.6,13.5,7.7,21.2,9.2c1.9,0.4,2.7-2.5,0.8-2.9c-7.5-1.5-14.3-4.5-20.5-8.9
				C45.7,185.9,44.2,188.5,45.8,189.6L45.8,189.6z"/>
		</g>
		<g>
			<path class="st2" d="M65.3,209.9c-3.9-0.8-7.8-1.1-11.7-1.3c-2.3-0.1-5.9-0.8-8.1,0.3c-0.5,0.2-0.7,0.8-0.7,1.3
				c0,0.1,0,0.1,0,0.2c0,1.9,3,1.9,3,0c0,1.4-1.4,0.7,0.2,1.2c0.4,0.1,1.1,0,1.5,0c1.6,0,3.1,0.1,4.7,0.1c3.5,0.2,7,0.4,10.4,1.1
				C66.4,213.2,67.2,210.3,65.3,209.9L65.3,209.9z"/>
		</g>
		<g>
			<path class="st2" d="M64.7,217.6c-5.8-1.4-12.3-2.4-18.2-1.4c-1.9,0.3-1.1,3.2,0.8,2.9c5.4-1,11.4,0.1,16.6,1.4
				C65.8,221,66.6,218.1,64.7,217.6L64.7,217.6z"/>
		</g>
		<g>
			<path class="st2" d="M49.8,237.1c3.9,0.5,7.8,0.9,11.7,1.1c1.9,0.1,1.9-2.9,0-3c-3.9-0.3-7.8-0.6-11.7-1.1
				C47.9,233.9,48,236.9,49.8,237.1L49.8,237.1z"/>
		</g>
		<g>
			<path class="st2" d="M52.4,247.8c3.2-1,6.4-1.8,9.7-2.4c1.9-0.3,1.1-3.2-0.8-2.9c-3.3,0.6-6.5,1.4-9.7,2.4
				C49.8,245.5,50.6,248.4,52.4,247.8L52.4,247.8z"/>
		</g>
		<g>
			<path class="st2" d="M55.1,258.2c1.4-1,3.4-2.4,5.2-2.6c1.9-0.2,1.9-3.2,0-3c-2.4,0.2-4.9,1.6-6.7,3
				C52.1,256.7,53.6,259.3,55.1,258.2L55.1,258.2z"/>
		</g>
	</g>
</g>
</svg>
