<?xml version="1.0" encoding="utf-8"?>
<!-- Generator: Adobe Illustrator 19.2.0, SVG Export Plug-In . SVG Version: 6.00 Build 0)  -->
<svg version="1.1" id="Layer_1" xmlns="http://www.w3.org/2000/svg" xmlns:xlink="http://www.w3.org/1999/xlink" x="0px" y="0px"
	 viewBox="0 0 358 342.5" style="enable-background:new 0 0 358 342.5;" xml:space="preserve">
<style type="text/css">
	.st0{fill:#F9BE72;}
	.st1{fill:#D88A3D;}
	.st2{fill:#9B581C;}
</style>
<g>
	<path class="st0" d="M292.8,311.6l-0.2,0.2c-1.2-8.2-1.4-16.7-1.6-25c0-2-0.1-4.1-0.1-6.1v-1.1c-0.3-11.6-0.7-23.6-1.8-35.3
		l-0.2-1.8c-0.8-8.8-1.9-19.7-7-27.4c-3.3-5-5.3-10.4-7.4-16.1c-0.5-1.4-1-2.8-1.6-4.2c-6-15.8-13.3-26.6-22.8-33.8l-1-0.8l-1.1,0.6
		c-2.7,1.5-6.5,3-9,3c-1.8,0-1.9-0.7-2-1.3l-0.5-3.6l-2.7,2.3l-0.9,0.8c-2,1.7-4.3,3.7-6.5,3.7c-0.1,0-0.2,0-0.3,0
		c-1.7-0.1-2-0.9-2.1-1.2l-1-2.7l-2.2,1.9c-1.8,1.5-3.4,2.3-4.6,2.3c-0.3,0-0.7-0.1-1-0.2l-1.6-0.7l-0.9,1.4c-1.3,2-3.4,3.6-4.9,3.6
		c-0.3,0-0.5-0.1-0.7-0.2L205,169l-0.7,2.2c-0.2,0.6-0.3,1-0.5,1.3c-0.7,1.5-1.9,2.2-3.6,2.2c-1.4,0-3.1-0.6-4.4-1.5l-1.6-1.1
		l-1.1,1.6c-0.1,0.2-0.2,0.3-0.2,0.3c-0.8,0.7-1.3,0.8-1.7,0.8c-0.8,0-1.9-0.5-3.1-1.6l-1.7-1.5l-1.3,1.9c-0.1,0.1-0.3,0.2-0.6,0.2
		c-0.1,0-0.3,0-0.4-0.1c-0.6-0.2-1.3-0.6-2.1-1.5l-1.4-1.5l-1.5,1.4c-0.6,0.6-2.1,1.1-3.3,1.3c-0.9,0.1-1.8,0.2-2.7,0.2
		c-2.3,0-4.7-0.4-7.2-1.2l-1.6-0.5l-0.8,1.5c-0.2,0.3-0.5,0.5-1,0.6c-0.1,0-0.1,0-0.2,0c-0.7,0-1.5-0.3-2.3-0.7l-1.3-0.8l-1.1,1
		c-0.3,0.3-1.9,0.7-3.6,0.7c-0.3,0-0.6,0-0.7,0c-2.2-0.3-4.2-1.3-6.6-2.5l-0.9-0.5l-0.9,0.5c-1.4,0.8-3.2,1.2-5.2,1.2
		c-3.3,0-6.8-1.1-9.3-3l-0.6-0.4h-0.7c-1.2,0.1-2.4,0.1-3.6,0.1c-3.8,0-7.7-0.3-11.6-1l-1.4-0.2l-0.7,1.2c-0.1,0.2-0.4,0.8-2,0.8
		c-2.5,0-6.6-1.6-11.3-4.3l-1.3-0.7l-1.1,1c-1.1,1-2.5,1.5-4.3,1.5c-1.2,0-2.5-0.2-4-0.6l-2.1-0.6l-0.4,2.1c-0.3,1.4-0.8,3-1.6,4.3
		l-1,1.8l1.5,0.8l-0.3,0.8l0.6,0.6c-0.2,2-0.4,4.1-0.4,6.3v1l0.3,0.2c-3.4,3.1-6.6,6.5-9.7,9.8l-2.5,2.7l2.8,1.1
		c1.5,0.6,2.9,1.4,4.1,2.5l0.1,0.2l0.1,0.1c-1,5.2-3.5,10.3-7.3,14.8l-0.4,0.5v0.6c-3.3,6.1-4.2,13.6-5.1,20.1l-0.1,0.5
		c-1.1,8.7-1.7,17.4-2.2,26.2c-0.2,3.9-0.4,7.9-0.6,11.8c-0.5,11.4-1,23.3-3.1,34.5l-0.1-0.1l-0.6,0.1c-0.2-12.4-2.1-24.9-4-37
		c-0.8-5.1-1.6-10.4-2.3-15.6c-1.4-10.5-2.4-19.2-2.9-28.3c0-0.6-0.1-1.2-0.1-1.8c-0.2-3.1-0.4-6.7,0.1-9.8l0.4-2.3h-1.9
		c-0.6-1.2-0.9-2.6-1-3.9l-0.5-6.3l-3.4,5.7c-2.4-7.4-1.3-14.5,3.2-21.2l0.5-0.7l-0.2-0.8c-1.3-6.5,1.5-14,4.3-18.5
		c3.7-5.8,9.2-8.9,16-8.9c0.3,0,0.5,0,0.8,0l5.5,0.2l-4.2-3.7c-3.2-2.8-6-6-8.3-9.3c-4.4-6.3-7.2-13.3-8.2-20.2
		c-0.5-3.4-0.8-7.6,0.9-10.5l0.6-1l-0.5-1c-4.1-8-5.3-14.3-3.5-18.8c1.3-3.3,4.3-5.6,9.1-7.2l1.3-0.4l0.1-1.3c0.1-1.5,0.4-3,0.9-4.2
		c1.9-4.9,5.9-5.9,8.9-5.9c2.2,0,4.5,0.5,6.8,1.5l2.7,1.2l0.1-3c0.1-4.7,0.7-9.2,1.8-13.4c2.2-8.3,6.7-14.8,12.8-18.3
		c4.1-2.3,8.9-3.5,14.4-3.5c2.9,0,6.1,0.3,9.4,1c-2.1,0.6-4.2,1.4-6.2,2.3l1.1,3.8c0.6-0.1,1.2-0.1,1.8-0.1c1.5,0,2.8,0.2,4,0.6
		l2.3,0.7l0.4-2.5c0.2-0.9,0.4-1.8,0.7-2.7l0.4-1.3l0.6-1.2c2.8-5.9,8-10.1,14.1-11.6c-1.1,1.2-1.8,2.9-2.1,5.1l-0.8,5.7l4.2-4
		c5.1-4.8,9.5-7.1,13.7-7.1c0.3,0,0.6,0,1,0c4.1,0.4,7.2,2.7,8.2,6.1c-0.8-0.4-1.7-0.6-2.7-0.6c-2.7,0-5.8,1.2-7,1.9
		c-0.3,0.1-0.5,0.3-0.8,0.4l-5.2,3.1l5.9,0.7c3,0.4,5.7,1.6,8.1,3.9c3.9,3.7,7,8.8,9.5,15.7l1.1,3.2l2.2-2.5c1.5-1.8,4-2.8,6.5-2.8
		c2.9,0,5.3,1.3,6.5,3.5l1.9,3.4l1.6-3.6c0.2-0.5,0.5-1,0.8-1.6c2-3.7,5.9-8.6,10.3-10.2c0.2-0.1,0.5-0.2,0.7-0.2l0.1,0.1
		c0.1,0.2,0.1,1,0.1,1.4s0,0.7,0,1c0.1,2.1,0.3,4.1,0.4,6l0.7,6.9l3.1-6.2c0.7-1.4,1.5-2.8,2.4-4l1,3.4l2.4-3.8
		c0.6-1,1.4-1.9,2.2-2.8c-1,6-0.4,12.3,1.6,19.2l3.9-0.4c0.2-3.7,1.7-7.3,3.5-10.6c0.8,7.5,4.1,14,6.9,18.8l3.6,6.2l0.1-7.2
		c0-1,0.1-2,0.3-3c0.6,10.9,9.3,18,17,24.3c3.2,2.6,6.3,5.1,8.8,7.8c2.8,3.1,4.9,6.5,6.2,10.2l3.9-0.5c0-0.3,0-0.7,0-1V116
		c0.1-1.7,0.2-3.8-0.5-5.7l0.4-0.3c6.6,4.1,7.2,17.3,5.5,28.3c-0.7,4.2-1.8,8.1-3.4,11.6l-2.4,5.3l5.1-2.7c3.7-1.9,8.8-3.4,13.7-3.9
		c0.8-0.1,1.6-0.1,2.4-0.1c7.3,0,12.3,4.2,13.8,11.6c-1.8-1.4-4-2.1-6.4-2.1c-1,0-2,0.1-3.1,0.3l-6.2,1.3l5.8,2.5
		c4.4,1.9,8.2,4.6,11.4,8.1c-2.1-0.6-4.4-0.9-6.8-0.9h-3.4l1.6,3c7.7,14.6,8.3,33.1,7.8,49.3c-0.9,30.4-6.4,60.1-12.4,90.4
		L292.8,311.6z"/>
	<g>
		<path class="st1" d="M292.2,308.4c-0.4-3.7-0.7-7.8-0.9-12.9l-0.1-2l1.6,1.2c0.9,0.6,1.8,1.2,2.8,1.6l0.8,0.3l-0.2,0.8
			c-0.7,3.7-1.4,7.4-2.2,11.1L292.2,308.4z"/>
		<path class="st1" d="M59.7,304c-0.5-8.1-1.6-16.4-2.8-24.1l-0.2-1.2h1.2c0.9-0.4,1.9-0.6,2.8-0.9c0.6-0.2,1.2-0.3,1.8-0.5l1.4-0.5
			l-0.1,1.5c-0.3,7.8-0.8,16.9-2.1,25.8L59.7,304z"/>
		<path class="st1" d="M295.5,295.1c-0.4-0.2-0.7-0.4-1-0.6l-2.6-1.7l-0.5-0.3l-0.1-0.6c0-1.3-0.1-2.5-0.1-3.8c0-2-0.1-4-0.1-6
			l-0.2-5.4l1.7,1.5c2.1,1.8,3.8,3.8,5.5,6.2l0.1,0.1l0.5,0.4l-0.1,0.6c-0.5,3-1.1,5.9-1.6,8.9l-0.2,1.3L295.5,295.1z"/>
		<path class="st1" d="M297.5,282c-1.9-2.3-3.9-4.4-6.3-6.2l-0.4-0.3V275c-0.1-3.2-0.2-6.3-0.3-9.5l-0.1-2.3l1.7,1.5
			c3.1,2.7,5.7,5.7,8.1,9.6l0.2,0.3l-0.1,0.4c-0.4,2.2-0.7,4.3-1.1,6.5l-0.4,2.2L297.5,282z"/>
		<path class="st1" d="M56.5,276.9l-0.6-3.8l1-0.1c0.1,0,0.1,0,0.2,0c1.2-0.5,2.6-1.2,4.2-2.1l0.4-0.2c0.3-0.2,0.6-0.3,0.9-0.5
			l1.6-0.9l-0.3,6.4l-0.8,0.2c-0.9,0.4-1.8,0.6-2.7,0.9s-1.7,0.5-2.5,0.8l-1.2,0.5L56.5,276.9z"/>
		<path class="st1" d="M53.2,253.9c-0.1-1.1-0.3-2.1-0.4-3.2l-0.2-1.8l0.9-0.2c0.1,0,0.2-0.1,0.2-0.1c3.1-3,6.6-6.2,11.1-9.9
			l1.9-1.6l-0.3,2.5c-0.3,2.1-0.5,4.4-0.7,6.7l-0.1,0.8l-0.8,0.1c0,0-0.1,0-0.2,0.1c-2.4,1.6-4.7,3.2-6.8,5c-0.3,0.3-0.7,0.5-1,0.8
			c-0.6,0.5-1.3,1-1.9,1.6l-1.4,1.3L53.2,253.9z"/>
		<path class="st1" d="M302.1,249.4c-2.5-4.5-6.4-8.5-10.2-12.4c-1.3-1.4-2.6-2.7-3.8-4l-0.3-0.2l-0.1-0.4
			c-0.7-4.2-1.6-7.7-2.7-10.8l-1-2.6l2.4,1.4c0.6,0.4,1.3,0.7,1.9,1.1c6.4,3.7,13,7.6,16,15.5c0,0.1,0.1,0.2,0.2,0.3l0.5,0.3v0.6
			c-0.3,3.6-0.6,7.3-1.1,11l-0.3,3.1L302.1,249.4z"/>
		<path class="st1" d="M303.6,233c-3.5-5.7-9-9-14.8-12.5c-1.6-1-3.3-2-5-3c0,0-0.1-0.1-0.2-0.1l-0.4-0.1l-0.4-0.7
			c-0.6-1.1-1.3-2.2-2-3.2c-1-1.5-2-3.1-2.8-4.9l-1.3-3l2.7,1.7c8.2,5.2,17.9,7,25.5,8.1l0.1,1l0.1-1h1v1c0,2.2-0.1,4.3-0.2,6.4
			c-0.1,3-0.3,6.2-0.5,9.8l-0.2,3.2L303.6,233z"/>
		<path class="st1" d="M50.6,227.7c-0.4-4.6-0.5-9.3,1-12.9l0.4-0.9l0.9,0.4H53c0.1,0,0.2,0,0.2-0.1c7.8-4.2,14-10.3,19.7-16.2
			l0.4-0.4l0.6,0.2c1.9,0.6,3.6,1.5,5.1,2.7l0.5,0.4l-0.1,0.6c-2.7,12.7-14.3,24.1-27.6,27.2l-1.1,0.3L50.6,227.7z"/>
		<path class="st1" d="M301.6,186.5c-6.9-4.9-15.6-5.9-24-6.8c-3.8-0.4-7.7-0.8-11.5-1.6H266h-0.1l-0.7,0.2l-0.4-0.6
			c-0.5-0.9-1.1-1.8-1.7-2.7l-1.6-2.4l2.7,0.9c1.7,0.5,3.6,0.8,5.9,0.8c2.5,0,5-0.3,7.3-0.5h0.1c2.9-0.3,5.9-1,8.8-1.6
			c3.3-0.7,6.7-1.4,10.1-1.7l0.6-0.1l0.3,0.6c2.5,4.4,4.4,9.3,5.8,14.6l0.7,2.7L301.6,186.5z"/>
		<path class="st1" d="M47.7,185.1c-0.2-6.1,2.6-11.8,3.8-14c3.7-6.8,9.7-10.5,16.9-10.5c1.5,0,3.1,0.2,4.6,0.5h0.1h0.1l0.4-0.1
			l0.4,0.3c2.7,2,5.6,3.7,8.4,5c0.9,0.4,1.8,0.8,2.7,1.2l0.7,0.3l-0.1,0.8c0,0.3-0.1,0.6-0.2,0.8l-0.2,0.8h-1.1
			c-12.4,0-26.7,6.4-34.9,15.7l-1.7,1.9L47.7,185.1z"/>
		<path class="st1" d="M199.6,174.9c-1.7,0-3.1-0.7-4.4-2l-0.4-0.4l0.2-0.6c0.2-0.7,0.4-1.5,0.6-2.2c0.2-0.6,0.3-1.2,0.5-1.7
			c1.1-3.6,2-7.6,2.6-11.7c1.1-7.9,1.2-16.4,0.4-25.1l2-0.4c1,3.3,1.7,6.3,2.4,9c1.3,6,2,11.6,2.1,17.1c0,3.2-0.1,6.3-0.5,9.3
			c0,0.1,0,0.3,0,0.5c-0.1,1.4-0.3,2.9-0.6,3.9c0,1.4-0.6,3.2-3.1,4.1h-0.1C200.6,174.9,200.1,174.9,199.6,174.9z"/>
		<path class="st1" d="M190.8,174.6c-1.4,0-2.7-1.2-4-2.5l-0.1-0.1l-0.4-0.3v-0.5c-1.6-25.9-3.5-55.3-8.6-83.6l-0.4-2.2
			c-1.1-6.4-2.4-13.6-4.5-20.5l-0.1-0.4l0.2-0.4l0,0c1.4-2.8,4.4-4.5,7.6-4.5c3.9,0,6.8,2.4,7.4,6.1c0,0.1,0,0.1,0.1,0.2l0.3,0.4
			l-0.1,0.5c-3.8,13.3,0.9,28.9,5.6,42.6c0.2,0.6,0.8,2.3,0.8,2.3v0.1v0.1c3,11.4,4.4,23.8,3.9,35.6c-0.2,6-1,11.8-2.4,17.1
			c-0.1,0.5-0.2,1-0.4,1.6c-0.5,2.3-1.2,5.2-2.5,7C192.6,174.1,191.7,174.6,190.8,174.6z"/>
		<path class="st1" d="M162.5,174c-0.4,0-0.7-0.1-1.2-0.2c-0.8-0.2-1.4-0.6-1.8-1l-0.2-0.2l-0.1-0.3c0-0.1-0.1-0.1-0.1-0.2
			c-21.3-26.6-35-53.7-40.6-80.5c-2.3-10.9-2.9-19.6-1.9-27.4c0.4-3.3,1.1-7.5,3.1-10.3l1.8,0.7c-0.3,2.7,0.1,5.7,0.5,8.4l0.2,1.3
			c0.8,6.9,2.3,14.4,4.6,23.7c5.4,21.6,12.4,41.3,20.9,58.6c5.3,10.7,10.3,18.7,16,25.3l0.4,0.4l-0.2,0.5c0,0.1,0,0.1,0,0.2h-1
			l0.3,0.9C163.1,174,162.9,174,162.5,174L162.5,174z"/>
		<path class="st1" d="M269.4,173.2c-3.4,0-5.8-0.6-7.5-1.8l0.7-1.8c1.2,0.2,2.5,0.3,3.7,0.3c4.3,0,9-1.2,14.3-3.7
			c1.3-0.6,2.7-1.4,4.2-2.2c2-1.1,4.2-2.3,6.4-3.3l0.5-0.2l0.4,0.3c0,0,0.1,0,0.1,0.1c4.5,1.4,8.5,3.7,12,6.9l2.4,2.2l-3.2-0.4
			c-1.2-0.2-2.5-0.2-3.8-0.2c-0.5,0-1.1,0-1.6,0h-0.4l-0.3-0.2c-0.1,0-0.1-0.1-0.2-0.1s-0.3,0.1-0.4,0.2l-0.2,0.2h-0.3
			c-2.9,0.3-5.8,0.9-8.3,1.4h-0.2c-4.4,1-9,1.9-13.7,2.2l-1,0.1C272,173.1,270.7,173.2,269.4,173.2z"/>
		<path class="st1" d="M110.3,170.5c-3.4,0-12.1-4.6-12.2-4.6l-0.2-0.1l-0.1-0.2c0-0.1-0.1-0.1-0.1-0.1
			c-15.2-14.2-50.1-49.1-46.6-66.9c0.8-4.2,3.7-7.2,8.4-9l1.3-0.5l0.1,1.4c0.1,2.5,0.6,5.2,1.5,8.2c3,10.3,8.8,19.7,13.5,26.8
			c11.4,17,25.3,31.9,36.1,42.9l0.4,0.4l-0.1,0.5C112.2,169.5,111.9,170.5,110.3,170.5z"/>
		<path class="st1" d="M125.6,169.8c-3.9,0-7.7-0.3-11.5-1l-0.3-0.1l-0.3-0.3v-0.1c-19.6-19.9-38-39.7-47.8-63.4
			c-3.4-8.3-7.7-22.7,2-27c1.2-0.5,2.6-0.8,4.1-0.8c3.1,0,6.1,1.2,8,2.3l0.6,0.3v0.6c0.6,19.3,9,38,16,50.3
			c7.9,13.8,18.1,26.5,30.4,37.5l1.9,1.7L125.6,169.8z"/>
		<path class="st1" d="M225.9,165.7c-0.8,0-1.3-0.3-1.5-0.6c-0.4-0.5-0.6-1.2-0.5-2.1c0-0.1,0-0.1,0-0.2l-0.1-0.5l0.4-0.4
			c1.7-1.9,2.8-3.7,3.3-4.3c5.3-8.4,8-19.7,7.8-32c-0.3-13-5-24.6-9.1-33.2l-0.9-1.9c-2-4.1-4-8.3-5.7-12.7l-0.4-1.1l1.2-0.2
			c0.2,0,0.3-0.1,0.4-0.3c0-0.1,0.1-0.2,0-0.4c-1.1-4.8,0.3-9,1.7-12.1l1.3-2.8l0.6,3.1c1.5,7.2,5.1,13.7,8.8,19.6l0.1,0.2
			c6,9.5,11.7,18.5,14.2,29.6c2.7,11.8,1.7,23.4-2.9,33.5c-2.2,4.8-5.2,9-8.8,12.6C235.5,159.6,229,165.7,225.9,165.7z"/>
		<path class="st1" d="M239.8,163.8c-1,0-1.7-0.3-2.2-0.8c-0.5-0.6-0.7-1.3-0.6-2.3c0-0.1,0-0.2,0-0.2l-0.3-0.6l0.5-0.5
			c6.4-6.7,10.7-15.7,12.1-25.4c1.7-11.9-0.8-25-7.1-37.1c-1.1-2-2.3-4.1-4-6.9l1.6-1.2c3,3.8,7.1,7.1,11,10.3
			c7.2,5.9,14.6,12,16.7,21.2c2.1,9-0.4,19.8-6.7,28.8c-3.1,4.4-7.1,8.2-11.6,11h-0.1H249c0,0-0.1,0-0.1,0.1l-0.1,0.1h-0.1
			C247.8,160.9,242.8,163.8,239.8,163.8z"/>
		<path class="st1" d="M120.8,48.3c-1.3-0.4-2.8-0.6-4.3-0.6c-0.6,0-1.2,0-1.9,0.1l-0.5-1.9c2.4-1.2,5-2.1,7.6-2.7l1.7-0.4l-0.6,1.7
			c-0.3,1-0.6,2-0.8,2.9l-0.2,1.3L120.8,48.3z"/>
	</g>
	<g>
		<g>
			<path class="st2" d="M98.2,164.7c-9.6-9-68.6-64.5-37.6-74.5c1.8-0.6,1-3.5-0.8-2.9C23.5,99,85.1,156.5,96.1,166.8
				C97.5,168.1,99.6,166,98.2,164.7L98.2,164.7z"/>
		</g>
		<g>
			<path class="st2" d="M114.1,167.7c-18.1-18.4-37.6-38.9-47.6-63.2C63.8,98,58.6,82.9,68,78.8c3.6-1.6,7.9-0.3,11.2,1.4
				c1.7,0.9,3.2-1.7,1.5-2.6c-7-3.7-16.6-3.7-19.9,4.8c-2,5.2-1,11.2,0.5,16.4c2.8,9.7,8,18.7,13.6,27c10.7,15.9,23.6,30.2,37,43.9
				C113.4,171.2,115.5,169.1,114.1,167.7L114.1,167.7z"/>
		</g>
		<g>
			<path class="st2" d="M130.9,169.1c-20.5-17.6-37-40.7-44.6-66.8c-4.8-16.3-7.8-40.7,6.5-53.5c8-7.1,19.2-7,29.2-4.7
				c0-1,0-1.9,0-2.9C99,46.1,86.6,70.5,95.7,92c0.8,1.8,3.2,0.2,2.5-1.5c-8.4-19.8,3.3-41.9,24.2-46.3c1.4-0.3,1.4-2.6,0-2.9
				c-9.1-2.1-19.2-2.5-27.5,2.3c-7.2,4.2-11.7,11.6-13.8,19.6c-5.9,22.7,3.1,48.3,14.3,68c8.7,15.2,20.1,28.8,33.4,40.2
				C130.2,172.5,132.3,170.4,130.9,169.1L130.9,169.1z"/>
		</g>
		<g>
			<path class="st2" d="M147.2,170.2c-9.5-10-17.2-21.9-24.7-33.4c-7.9-12.3-15.6-25-21.3-38.5c-0.7-1.8-3.3-0.2-2.6,1.5
				c5.9,13.9,13.9,27,22.1,39.7c7.4,11.4,15,23,24.4,32.8C146.4,173.8,148.5,171.6,147.2,170.2L147.2,170.2z"/>
		</g>
		<g>
			<path class="st2" d="M107.2,52.2c4.4-2.5,11.2-3.8,15.6-0.5c0.1-0.9,0.2-1.8,0.4-2.7c-5,1.3-7.1,7.1-8,11.6
				c-1.9,8.9-1,18.4,0.5,27.3c5.5,31.8,22.2,61.1,42.1,86c1.2,1.5,3.3-0.6,2.1-2.1c-18.7-23.4-34.2-50.5-40.4-80.1
				c-1.9-8.8-3-18.1-1.9-27.1c0.5-4,1.7-11.4,6.4-12.6c1.4-0.3,1.3-2,0.4-2.7c-5.2-3.9-13.3-2.5-18.6,0.5
				C104,50.5,105.5,53.1,107.2,52.2L107.2,52.2z"/>
		</g>
		<g>
			<path class="st2" d="M165.4,171c-16.2-18.5-25.1-43.8-32.2-66.9c-3.3-10.8-6.2-21.8-8.2-32.9c-1-5.6-3.2-14-1-19.5
				c0.7-1.8-2.2-2.6-2.9-0.8c-1.6,4-0.7,9.4-0.2,13.5c1,8,2.7,16,4.7,23.8c5,20.1,11.8,40.1,21,58.8c4.6,9.3,9.8,18.3,16.6,26.1
				C164.6,174.6,166.7,172.5,165.4,171L165.4,171z"/>
		</g>
		<g>
			<path class="st2" d="M181.7,170.9c-3.9-15.4-9.2-30.2-15.4-44.8c-5.7-13.6-12.2-27-16.7-41.1c-3.9-12.1-10.9-37.5,4.4-45.4
				c1.9-1,6.9-2.7,8.6-0.8c0.8,0.9,2.7,0.2,2.6-1.1c-0.7-5.4-5.1-8.8-10.4-9.3c-7.5-0.7-14.1,5.3-18.9,10.3c0.9,0.4,1.7,0.7,2.6,1.1
				c-0.2-2.9,0.1-6.9,2.8-8.7c1.5-1,0.5-3-1.2-2.7c-9.7,1.5-17.4,9.3-19.2,18.9c-0.4,1.9,2.5,2.7,2.9,0.8
				c1.6-8.7,8.3-15.4,17.1-16.8c-0.4-0.9-0.8-1.8-1.2-2.7c-3.7,2.4-4.6,7.1-4.3,11.3c0.1,1.2,1.6,2,2.6,1.1
				c3.4-3.6,7.3-7.3,12.1-8.8c4.6-1.5,11.3,0,12,5.7c0.9-0.4,1.7-0.7,2.6-1.1c-1.9-2.2-6-1.7-8.5-1.1c-4.8,1.2-8.7,4.6-11,8.9
				c-4.1,7.5-3.7,16.8-2.5,25c2.4,15.5,8.8,30,15,44.2c8.2,19,16,37.9,21.1,58C179.3,173.6,182.2,172.8,181.7,170.9L181.7,170.9z"/>
		</g>
		<g>
			<path class="st2" d="M149.5,43.1c15.9-2.4,21.3,22.4,23.8,33.3c7.3,31.4,8.9,64.3,11,96.3c0.1,1.9,3.1,1.9,3,0
				c-1.8-28.5-3.7-57.2-8.7-85.3c-2.5-13.8-5.3-32.7-16.1-42.9c-3.8-3.6-8.6-5.1-13.8-4.3C146.8,40.5,147.6,43.4,149.5,43.1
				L149.5,43.1z"/>
		</g>
		<g>
			<path class="st2" d="M173.7,64.5c2.8-5.6,12-5.6,13.2,1.3c0.3,1.9,3.2,1.1,2.9-0.8c-1.6-9.3-14.7-9.8-18.7-2
				C170.2,64.7,172.8,66.2,173.7,64.5L173.7,64.5z"/>
		</g>
		<g>
			<path class="st2" d="M206.2,63.4c1-2.8,2.3-5.2,4.1-7.5c-0.8-0.5-1.7-1-2.5-1.5c-0.6,3.6-0.5,7.1,0.2,10.7c0.3,1.7,3,1.3,2.9-0.4
				c-0.1-5,1.7-9,5.4-12.3c-0.8-0.5-1.7-1-2.5-1.5c-4.3,21.2,10.6,38.2,16.4,57.4c3.3,10.8,3.6,22.5,1,33.5c-1.2,4.8-2.8,9.7-5.4,14
				c-1,1.6-7.8,11.2-10.6,8.8c-1.5-1.2-3.6,0.9-2.1,2.1c5.2,4.3,12.6-5.1,14.9-8.8c5.9-9.4,8.2-21.5,7.9-32.5
				c-0.2-12-4.1-22.9-9.2-33.6c-6-12.6-12.9-25.8-9.9-40.1c0.3-1.5-1.4-2.5-2.5-1.5c-4.3,3.7-6.4,8.7-6.3,14.4c1-0.1,2-0.3,2.9-0.4
				c-0.6-3.1-0.7-6-0.2-9.1c0.2-1.3-1.5-2.8-2.5-1.5c-2.2,2.7-3.7,5.6-4.9,8.9C202.7,64.4,205.6,65.2,206.2,63.4L206.2,63.4z"/>
		</g>
		<g>
			<path class="st2" d="M237.1,85.9c-2.3-4.1-2.6-8.4-0.7-12.8c-0.9-0.3-1.9-0.5-2.8-0.8c-2.4,23.2,28.1,28.2,32.8,48.2
				c2.3,9.5-1.1,20.2-6.6,28c-3,4.3-7,8-11.5,10.8c-1.3,0.8-11,6.4-10.4,1.4c0.2-1.9-2.8-1.9-3,0c-1.1,9.6,12.2,2.9,15.6,0.8
				c8.9-5.6,15.5-14.7,18.2-24.9c3-11,0.9-21.7-6.9-30.1c-9.4-10.2-26.9-17.8-25.2-34.2c0.2-1.4-2.2-2.1-2.8-0.8
				c-2.3,5.3-2.2,10.7,0.7,15.8C235.4,89.1,238,87.6,237.1,85.9L237.1,85.9z"/>
		</g>
		<g>
			<path class="st2" d="M73.4,159.1c-9.3-1.9-17.7,1.2-22.9,9.3c-3.6,5.7-6.1,14-4.4,20.7c0.5,1.9,3.4,1.1,2.9-0.8
				c-1.4-5.4,0.6-12.1,3.2-16.8c4.2-7.9,11.7-11.3,20.4-9.5C74.5,162.4,75.3,159.5,73.4,159.1L73.4,159.1z"/>
		</g>
		<g>
			<path class="st2" d="M84.6,169.1c-21.1-0.2-50.3,18.2-42,42.7c0.6,1.8,3.5,1,2.9-0.8c-7.7-22.6,19.9-39.1,39.1-38.9
				C86.5,172.1,86.5,169.1,84.6,169.1L84.6,169.1z"/>
		</g>
		<g>
			<path class="st2" d="M84.7,174c-10.7,2.1-20.9,9.7-28.3,17.3c-6.2,6.4-13.2,16-8.8,25.1c0.8,1.7,3.4,0.2,2.6-1.5
				c-4.3-8.8,5-18.6,10.9-24c6.7-6.2,15.3-12.3,24.4-14C87.4,176.6,86.6,173.7,84.7,174L84.7,174z"/>
		</g>
		<g>
			<path class="st2" d="M50.1,213c-2.4,4.7-1.7,11.3-1.4,16.3c0.5,9.5,1.7,19,2.9,28.4c2.3,17.5,6.1,35.3,6.3,53c0,1.9,3,1.9,3,0
				c-0.2-16.9-3.8-34-6-50.6c-1.2-9.3-2.4-18.6-3-28c-0.3-5.1-1.6-12.8,0.8-17.6C53.6,212.8,51,211.2,50.1,213L50.1,213z"/>
		</g>
		<g>
			<path class="st2" d="M70.9,216.2c-2.9,5.4-4,11.8-4.9,17.8c-1.3,8.6-1.9,17.2-2.5,25.9c-1.1,16.9-0.8,34.3-4.1,50.9
				c-0.4,1.9,2.5,2.7,2.9,0.8c3.2-15.6,3.1-32,4-47.8c0.5-8.7,1.1-17.4,2.2-26.1c0.9-6.6,1.7-14,5-20
				C74.4,216.1,71.8,214.5,70.9,216.2L70.9,216.2z"/>
		</g>
		<g>
			<path class="st2" d="M248.2,162c11.3,8.2,17.9,20.6,22.8,33.4c2.8,7.3,4.8,14.3,9.2,20.8c5.2,7.9,6,19.2,6.9,28.3
				c1.2,12.1,1.5,24.2,1.8,36.3c0.3,10.8,0.2,21.9,2,32.6c0.3,1.9,3.2,1.1,2.9-0.8c-1.7-10-1.5-20.5-1.8-30.6
				c-0.4-12.7-0.7-25.4-1.9-38.1c-0.9-9.2-1.9-19.5-6.4-27.8c-1.6-2.9-3.7-5.2-5-8.4c-1.9-4.7-3.4-9.5-5.2-14.1
				c-5.1-13.2-12.1-25.6-23.7-34.1C248.2,158.3,246.7,160.9,248.2,162L248.2,162z"/>
		</g>
		<g>
			<path class="st2" d="M269.5,110.7c7.7,4.3,6.4,20,5.4,27.1c-1.7,11-7.2,23.9-19.7,25.4c-1.9,0.2-1.9,3.2,0,3
				c13.9-1.7,20.6-15,22.6-27.6c1.3-8.5,2.3-25.3-6.7-30.5C269.4,107.1,267.9,109.7,269.5,110.7L269.5,110.7z"/>
		</g>
		<g>
			<path class="st2" d="M295.8,170.1c9.3,15.4,9.6,35.2,9,52.6c-1,30.1-6.6,60-12.5,89.4c-0.4,1.9,2.5,2.7,2.9,0.8
				c6-30.1,11.7-60.7,12.6-91.5c0.5-17.6-0.1-37.3-9.5-52.9C297.4,167,294.8,168.5,295.8,170.1L295.8,170.1z"/>
		</g>
		<g>
			<path class="st2" d="M271.5,156.3c3.5-3.6,10.4-5.6,15.1-6.5c9.5-1.9,16.3,1.9,17.8,11.8c0.8-0.5,1.7-1,2.5-1.5
				c-5.6-5.6-12.6-3-18.9,0c-9.7,4.7-19.7,10.9-30.6,5.6c-1.7-0.8-3.3,1.7-1.5,2.6c8.5,4.1,16.8,2.4,25.1-1.4
				c6.6-3,17.1-11.4,23.8-4.8c1.2,1.1,2.7-0.1,2.5-1.5c-1.5-10.1-8.5-15.5-18.6-14.3c-6.1,0.7-14.9,3.1-19.3,7.7
				C268,155.6,270.1,157.8,271.5,156.3L271.5,156.3z"/>
		</g>
		<g>
			<path class="st2" d="M291.9,161.7c6.1,2,11.1,5.4,15.2,10.4c0.5-0.8,1-1.7,1.5-2.5c-6.9-2.5-13.8-1.4-20.8,0.1
				c-4.6,1-9.1,2-13.8,2.2c-4,0.2-10.1,1-13-2.7c-1.2-1.5-3.8,0-2.6,1.5c4.3,5.7,12.9,4.6,19.2,3.9c10.1-1.2,20.1-5.7,30.2-2.1
				c1.5,0.5,2.3-1.5,1.5-2.5c-4.4-5.3-9.9-9-16.5-11.1C290.8,158.3,290,161.2,291.9,161.7L291.9,161.7z"/>
		</g>
		<g>
			<path class="st2" d="M265.5,180c12.5,2.6,27.3,0.6,37.3,10c1.4,1.3,3.5-0.8,2.1-2.1c-10.5-9.9-25.4-8.1-38.6-10.8
				C264.4,176.7,263.6,179.6,265.5,180L265.5,180z"/>
		</g>
		<g>
			<path class="st2" d="M270.6,190.5c6.1,1.9,12.3,2.2,18.5,3.5c2.7,0.6,5.5,1.4,8,2.6c1.6,0.8,3.2,1.8,4.5,3
				c0.8,0.8,2.2,3.6,2.5,2.5c-0.5,1.9,2.4,2.7,2.9,0.8c1.1-4.1-7.2-8.4-10-9.6c-8.1-3.5-17.2-3.1-25.5-5.7
				C269.6,187.1,268.8,190,270.6,190.5L270.6,190.5z"/>
		</g>
		<g>
			<path class="st2" d="M276,206.2c8.4,6.4,18.5,8.8,28.7,10.2c1.9,0.3,2.7-2.6,0.8-2.9c-10-1.3-19.8-3.6-28-9.9
				C276,202.4,274.5,205,276,206.2L276,206.2z"/>
		</g>
		<g>
			<path class="st2" d="M282.7,219.3c8,5.2,17,8.4,20.6,18c0.7,1.8,3.6,1,2.9-0.8c-4-10.5-13.1-14.1-22-19.8
				C282.6,215.6,281.1,218.2,282.7,219.3L282.7,219.3z"/>
		</g>
		<g>
			<path class="st2" d="M286.6,234.5c5.4,6,13.2,12.3,15.5,20.3c0.5,1.9,3.4,1.1,2.9-0.8c-2.5-8.6-10.5-15.2-16.2-21.6
				C287.5,230.9,285.3,233,286.6,234.5L286.6,234.5z"/>
		</g>
		<g>
			<path class="st2" d="M289.6,264.1c4.1,3.1,7.1,6.7,9.8,11c1,1.6,3.6,0.1,2.6-1.5c-2.9-4.8-6.3-8.7-10.9-12.1
				C289.6,260.3,288.1,262.9,289.6,264.1L289.6,264.1z"/>
		</g>
		<g>
			<path class="st2" d="M289.5,277c3,2.2,5.5,4.8,7.6,7.9c1.1,1.6,3.7,0.1,2.6-1.5c-2.4-3.5-5.3-6.4-8.7-9
				C289.4,273.3,287.9,275.9,289.5,277L289.5,277z"/>
		</g>
		<g>
			<path class="st2" d="M290.8,294.4c1.9,1.2,3.8,3,6.1,3.1c1.9,0.1,1.9-2.9,0-3c-0.9,0-1.6-0.6-2.3-1.1c-0.8-0.5-1.6-1-2.3-1.6
				C290.7,290.8,289.2,293.4,290.8,294.4L290.8,294.4z"/>
		</g>
		<g>
			<path class="st2" d="M84.4,183.6c-10.7,9.7-19.3,21.9-32.3,29c-1.7,0.9-0.2,3.5,1.5,2.6c13.2-7.1,22-19.5,32.9-29.4
				C87.9,184.4,85.8,182.3,84.4,183.6L84.4,183.6z"/>
		</g>
		<g>
			<path class="st2" d="M78.5,200.3c-2.4,13.5-14.8,25.1-28.3,27.6c-1.9,0.4-1.1,3.2,0.8,2.9c14.4-2.7,27.8-15.3,30.4-29.7
				C81.7,199.3,78.8,198.4,78.5,200.3L78.5,200.3z"/>
		</g>
		<g>
			<path class="st2" d="M65.7,235.2c-4.7,3.8-9.3,7.8-13.6,12c-1.4,1.4,0.7,3.5,2.1,2.1c4.3-4.2,9-8.2,13.6-12
				C69.4,236.1,67.2,234,65.7,235.2L65.7,235.2z"/>
		</g>
		<g>
			<path class="st2" d="M63.9,246.3c-2.4,1.5-4.7,3.2-6.9,5c-1.7,1.4-4.7,3.3-5.1,5.5c-0.4,1.9,2.5,2.7,2.9,0.8
				c0.1-0.8,1.3-1.5,1.9-2.1c0.9-0.8,1.8-1.6,2.8-2.4c1.9-1.6,3.9-3,5.9-4.3C67.1,247.9,65.6,245.3,63.9,246.3L63.9,246.3z"/>
		</g>
		<g>
			<path class="st2" d="M57.4,273.9c1.5-0.6,2.9-1.4,4.3-2.1c1.1-0.6,2.4-1.2,3.4-2.1c1.4-1.3-0.7-3.4-2.1-2.1
				c-0.7,0.7-2.1,1.3-3.1,1.8c-1.3,0.7-2.6,1.4-4,2C54.1,272.1,55.6,274.6,57.4,273.9L57.4,273.9z"/>
		</g>
		<g>
			<path class="st2" d="M58.2,279.6c1.7-0.7,3.6-1,5.3-1.7c0.8-0.3,1.3-1,1-1.8c-0.2-0.7-1.1-1.4-1.8-1c-1.7,0.7-3.6,1-5.3,1.7
				c-0.8,0.3-1.3,1-1,1.8C56.6,279.3,57.5,279.9,58.2,279.6L58.2,279.6z"/>
		</g>
		<g>
			<path class="st2" d="M193.5,112.1c3,11.3,4.3,23.6,3.9,35.3c-0.2,5.7-1,11.3-2.4,16.9c-0.6,2.4-1.3,6.2-2.7,8.3s-3,0.8-4.9-1.2
				c-1.4-1.4-3.5,0.7-2.1,2.1c2.4,2.4,5.6,5.2,8.8,2.1c1.6-1.5,2.2-5.1,2.8-7.2c1.2-3.9,2.1-7.9,2.6-11.9
				c2.1-14.8,0.6-30.8-3.2-45.2C195.9,109.4,193,110.2,193.5,112.1L193.5,112.1z"/>
		</g>
		<g>
			<path class="st2" d="M45.5,212.9c1.1-1.8,2.2-3.6,3.3-5.4c1-1.6-1.6-3.1-2.6-1.5c-1.1,1.8-2.2,3.6-3.3,5.4
				C41.9,213,44.5,214.5,45.5,212.9L45.5,212.9z"/>
		</g>
		<g>
			<path class="st2" d="M83.8,177.1c-0.3,2.4-0.5,4.7-0.5,7.1c0,1.9,3,1.9,3,0c0-2.4,0.2-4.7,0.5-7.1
				C87.1,175.2,84.1,175.2,83.8,177.1L83.8,177.1z"/>
		</g>
		<g>
			<path class="st2" d="M73.4,198.7c1.9,0.5,3.6,1.4,5.1,2.7c1.5,1.2,3.6-0.9,2.1-2.1c-1.9-1.6-4-2.8-6.4-3.5
				C72.3,195.3,71.5,198.2,73.4,198.7L73.4,198.7z"/>
		</g>
		<g>
			<path class="st2" d="M85,175.4c1.5-2.2,2.7-5.5,2.8-8.1c0.1-1.9-2.9-1.9-3,0c-0.1,2.1-1.2,4.8-2.4,6.6
				C81.3,175.5,83.9,177,85,175.4L85,175.4z"/>
		</g>
		<g>
			<path class="st2" d="M96,165.4c-4,4.3-13.1-0.9-17.1-3.3C72,158,66,152.3,61.7,145.5c-3.2-5-5.6-10.7-6.7-16.5
				c-0.6-3.3-1.5-8.9,0.8-11.8c1.2-1.5-0.9-3.6-2.1-2.1c-2.8,3.5-2.5,8.7-1.9,12.9c1.1,7.5,4.2,14.8,8.5,21
				c5.4,7.8,12.9,14.2,21.5,18.2c4.7,2.2,12.1,4.9,16.3,0.4C99.4,166.1,97.3,164,96,165.4L96,165.4z"/>
		</g>
		<g>
			<path class="st2" d="M96.9,167.6c3.5,2.1,16.3,9.2,17.3,1.4c0.2-1.9-2.8-1.9-3,0c-0.3,2.3-11.8-3.4-12.8-4
				C96.7,164,95.2,166.6,96.9,167.6L96.9,167.6z"/>
		</g>
		<g>
			<path class="st2" d="M112.8,170.6c5.5,1,11,1.4,16.6,1.1c1.9-0.1,1.9-3.1,0-3c-5.3,0.3-10.6,0-15.8-1
				C111.7,167.3,110.9,170.2,112.8,170.6L112.8,170.6z"/>
		</g>
		<g>
			<path class="st2" d="M128.5,171c4.6,4.1,13.6,5.8,18.6,1.9c1.5-1.2,0-3.8-1.5-2.6c-3.9,3-11.4,1.7-15-1.4
				C129.1,167.6,127,169.7,128.5,171L128.5,171z"/>
		</g>
		<g>
			<path class="st2" d="M145.1,173.1c2.6,1.3,5.2,2.7,8.1,3.1c1.7,0.2,8.3-0.2,5.9-3.4c-1.2-1.5-3.8,0-2.6,1.5
				c0.3-0.9,0.2-1.3-0.3-1.1c-0.3,0.1-0.7,0.1-1,0.1c-0.4,0-0.8,0-1.2,0c-1.1-0.1-2.3-0.5-3.3-0.9c-1.4-0.5-2.7-1.3-4-1.9
				C144.9,169.7,143.4,172.2,145.1,173.1L145.1,173.1z"/>
		</g>
		<g>
			<path class="st2" d="M158.4,174.5c1.2,0.9,2.9,1.6,4.4,1.5c1.6-0.1,3-1.3,3-3c0-1.9-3-1.9-3,0c0-0.1,0,0-0.3,0s-0.6-0.1-0.9-0.2
				c-0.6-0.2-1.1-0.5-1.7-0.9c-0.6-0.5-1.7-0.1-2.1,0.5C157.4,173.2,157.7,174,158.4,174.5L158.4,174.5z"/>
		</g>
		<g>
			<path class="st2" d="M164,173.9c3.8,1.5,8.1,2.2,12.2,1.6c2-0.3,6.1-1.6,4.9-4.4c-0.8-1.8-3.2-0.2-2.4,1.5c0,0.1,0.3,0.1,0.3,0.2
				c0-0.5,0-1,0-1.5c-1,1.7-5.3,1.4-6.9,1.3c-2.5-0.2-4.9-0.8-7.2-1.6C163.1,170.3,162.2,173.2,164,173.9L164,173.9z"/>
		</g>
		<g>
			<path class="st2" d="M179.9,172.9c1,1.2,2.2,2.4,3.7,2.8c1.6,0.4,3.4-0.3,3.5-2.1c0.2-1.9-2.9-1.9-3,0c0,0.1,0,0.1,0,0.2
				c0.1-0.3,0.1-0.5,0.2-0.8c0.2-0.4,0.6,0,0-0.2c-0.3-0.1-0.5-0.2-0.7-0.4c-0.6-0.4-1.1-1.1-1.5-1.6
				C180.8,169.3,178.7,171.5,179.9,172.9L179.9,172.9z"/>
		</g>
		<g>
			<path class="st2" d="M204,169.9c3.1,5.1,8.7,1,10.7-2.8c4.8-9.1,6.6-19.6,6.5-29.8c-0.3-25.2-12-48.4-15.8-73
				c-0.6-3.7-0.9-7.3-1.1-11c-0.1-1.1,0.2-2.6-0.5-3.5c-1-1.2-1.7-1-3-0.5c-4.8,1.7-9.1,6.8-11.4,11.1c-8,14.9-1.9,34.4,3.2,49.2
				c3.5,10.1,7.3,20.1,9.6,30.5c1.2,5.6,2,11.2,2,16.9c0,3.1-0.1,6.1-0.5,9.2c-0.1,0.6-0.2,3.3-0.6,4.4c0.1,1.6-0.8,2.7-2.5,3.3
				c-2.1,0.5-3.9-0.2-5.3-2c-1.4-1.4-3.5,0.8-2.1,2.1c3.2,3.2,9.7,4.7,12.2-0.4c1.6-3.2,1.5-8.5,1.7-12.1c0.2-4.7,0-9.4-0.6-14.1
				c-2.1-16.3-9-31.3-13.7-47c-4.4-14.7-8.3-35.9,6-46.5c0.7-0.5,1.6-0.9,2.3-1.5c0.9-0.7,1.5-0.2,0.8-0.9s-0.3,6.2-0.2,7.4
				c0.3,2.7,0.6,5.3,1.1,8c1.9,11.3,5.4,22.3,8.6,33.3c3.5,12.3,6.8,24.9,6.8,37.8c0,6.3-0.7,12.6-2.5,18.6
				c-0.2,0.8-6,16.9-9.1,11.7C205.6,166.7,203,168.2,204,169.9L204,169.9z"/>
		</g>
		<g>
			<path class="st2" d="M221.7,163c-0.2,2.8,1.3,4.5,4.1,4.7c3.5,0.2,6.5-2.7,8.9-4.8c8.5-7.2,13.8-17.9,15.4-28.9
				c1.9-13-1.2-26.2-7.2-37.8c-6.3-12.1-16.8-22.8-17.5-37.1c-0.1-1.4-2.1-2.1-2.8-0.8c-3,5.7-5.6,11.5-4.1,18
				c0.4,1.9,3.3,1.1,2.9-0.8c-1.3-5.8,1.2-10.7,3.8-15.7c-0.9-0.3-1.9-0.5-2.8-0.8c0.5,9.3,4.7,17.3,9.6,25
				c5.9,9.4,11.7,18.5,14.2,29.5s1.9,22.6-2.9,32.8c-2.1,4.6-5,8.8-8.6,12.3c-0.7,0.7-10.5,9.4-10.1,4.2
				C224.9,161.1,221.9,161.1,221.7,163L221.7,163z"/>
		</g>
	</g>
</g>
</svg>
