<?xml version="1.0" encoding="utf-8"?>
<!-- Generator: Adobe Illustrator 19.2.0, SVG Export Plug-In . SVG Version: 6.00 Build 0)  -->
<svg version="1.1" id="Layer_1" xmlns="http://www.w3.org/2000/svg" xmlns:xlink="http://www.w3.org/1999/xlink" x="0px" y="0px"
	 viewBox="0 0 358 342.5" style="enable-background:new 0 0 358 342.5;" xml:space="preserve">
<style type="text/css">
	.st0{fill:#4F5559;}
	.st1{fill:#2E3438;}
	.st2{fill:#1A1E21;}
</style>
<g>
	<g>
		<path class="st0" d="M156.9,88.5c0.1-1.7,1.4-5.8,2-7l1-2.1l-2.2-0.6c-1.9-0.5-5.7-2.3-9-4.8c-3.4-2.5-5.6-5.1-5.7-6.9
			c0-0.4-0.1-1.7,2.7-3l1.8-0.8l-1-1.8c-1.2-2.2-1.4-3.9-0.7-5.2l0.6-1.1l-0.8-1c-4.1-4.9-9.8-11.7-7.9-18.6c0.8-3,2.9-3.7,4.6-3.7
			c2.8,0,5.9,1.8,7.4,4.4l1.1,1.9l1.7-1.3c0.7-0.6,1.6-1,2.6-1.1c0.4-0.1,0.8-0.1,1.1-0.1c0.9,0,1.7,0.2,2.6,0.5l0.9,0.3l0.8-0.5
			c2.8-1.7,5.4-2.6,7.8-2.6c2.8,0,5.4,1.2,7.8,3.7l1.2,1.2l1.3-1c1.5-1.2,3-1.8,4.3-1.8c1.6,0,3,0.9,4.1,2.8
			c0.3,0.4,0.5,0.9,0.8,1.5l0.7,1.5l1.6-0.6c1.5-0.6,3.1-0.9,4.6-0.9c1.4,0,3.4,0.3,4.9,1.7l1.4,1.3l1.3-1.4
			c5-5.3,10.9-8.5,17.4-9.5c1-0.1,2-0.2,3-0.2c4.6,0,8.5,1.6,11,4.5c2.8,3.1,3.9,7.5,3.3,13.1c-0.9-6.2-4.2-10.4-9.1-11.4
			c-0.8-0.2-1.7-0.3-2.5-0.3c-5.4,0-10.8,3.4-16.1,10.2l-1.3,1.6l1.7,1.1c3.2,2.1,5.3,4.7,6,8c0.2,0.8,0.3,1.6,0.3,2.3V62l1.1,0.5
			c3.4,1.6,5.6,3.8,6,5.7c0.2,1.3-0.4,2.7-1.8,4.1c-3.2,3.2-8.3,5.8-15.1,7.7l-1.8,0.5l0.5,1.8c0.1,0.5,0.2,8.4,0.3,8.8
			c0,0-38.3-2.7-46.9-1.9L156.9,88.5z M141.5,38.3c0.1,0.2,0.1,0.4,0.2,0.6c0.4,0.9,1,1.7,1.4,2.4l0.1,0.2c0.6,0.8,1.2,1.7,1.8,2.5
			l1.9,2.6l1.5-1.7c0.3-0.4,0.7-0.7,1.1-1l1.4-1.1l-0.9-1.2c0.1-0.4,0.1-0.8,0.3-1.2l0.3-1.1l-0.9-0.8c-2.1-1.9-5.2-2.6-6.4-2.9
			l-2.1,0.2l0.1,2.5C141.4,38.2,141.4,38.3,141.5,38.3z"/>
		<path class="st0" d="M301.6,205.7l-3.7-15c0,0-3.9-14.3-4.8-14.6c-0.9-0.2-5.5-15-5.5-15l-8-12.7L270,138l-5.6-4.5L260,123
			l-5.6-10.6l-10.2-8.2l-10-5.8l-7.4-2.8l-6.7-1.6l0.1-0.4c-5-0.9-10.2-1.1-15.2-1.8c-6.6-1-13-1.7-19.6-1.8
			c-12.8-0.2-25.7-1.5-38.5,0.7c-0.7,0.1-1.2-0.2-1.5-0.7l-18.6,6.3l-12.7,8.2l-9.2,11l-5.1,12l-6.2,2.9l-12.4,12.1L73,154.3
			l-8.6,17.8l-6.8,25.4l-4.1,34.8L53,264.8l3.5,33.9l2,9.9l5.6-25.8l8.1-21.2l2.4-14.2l0.7-12.3l2.1-13l5.4-11.6L94,194.6l12.2-10.2
			l4.9,7.1l4.4,5l3.5-5.7l6.7,6.8l4.7-0.2c0,0,4-3,4.4-4.2c0.5-1.2,3.1,4.4,3.1,4.4l7.6-4.7l5.4,5.6l5.5,0.1l5.9-3l1.9,3.8l1.9,2.8
			l7.6-6.4l0.2,2l7.1-4.6l1.5,7.4h4.7l7.4-2.5l4.7-2.5l-0.1,4l5.5,0.4l4.3-2.1l12.2-3.2l14-6.1l9.1-6.2l7.7,6.5l10,12.5l8.2,10.4
			l5.9,13.2l1.4,14.8l0.4,13.3l4.2,15l5.1,15.9c0,0,2.8,12.2,2.3,13c-0.5,0.7,3,13,3,13l4.4-19.4l3-22.9l1.8-19.9l0.4-24.6
			L301.6,205.7z"/>
	</g>
	<g>
		<g>
			<path class="st1" d="M157.8,84.4c0.2-1.9,1-3.5,2.2-4.9c0.7-0.8,1.5-1.5,2.6-2.3l0.6-0.5l0.6,0.5c0.1,0.1,0.2,0.1,0.2,0.1h0.1
				c3.5-0.9,9-2.1,15.1-2.1c6.7,0,12.3,1.4,16.6,4.1l-0.6,1.7c-2.5-0.4-5.3-0.6-8.2-0.6c-8.2,0-17.6,1.7-28,4.9l-1.4,0.4L157.8,84.4
				z"/>
			<path class="st1" d="M162.3,75.7c-4.2-2.1-19.3-13.1-16.4-19.2l0.1-0.2l0.2-0.1c0.1-0.1,0.2-0.2,0.3-0.4l0.1-0.3l1-1l0.6,0.9
				c4,6.8,12.3,13.7,16.7,17.4l1.2,1l-1.1,0.7c-0.5,0.3-1.1,0.7-1.6,1l-0.6,0.5L162.3,75.7z"/>
			<path class="st1" d="M174,68.6c-1.1-5.7-2.2-11.7-4.1-17.3c-1.3-3.7-2.7-6.7-4.4-9.2c-1.8-2.7-6.4-6.4-10.3-6.4
				c-1.6,0-4.5,0.7-5.1,5.7c0,0,0,0.1-0.1,0.2c0,0.1,0.1,0.1,0.1,0.2c0.1,0.3,0.1,0.7,0.1,1l0.4,0.1c0.1,0,0.1,0,0.1,0.1
				c10,6.5,17.2,16,20.6,27.5l0.3,0.9l0.9-0.3c0.2-0.1,0.5-0.2,0.7-0.2l1.1-0.3L174,68.6z"/>
			<path class="st1" d="M187.4,64.4c-1.1-6.5-3.6-18.5-9-25.9l-0.5-0.7l0.7-0.6c1.4-1.2,2.8-1.7,4.1-1.7c1.2,0,2.3,0.5,3.2,1.6
				c4.5,5.1,4,22.4,3.5,26.4v0.1v0.2l-0.2,0.6H187.4z"/>
			<path class="st1" d="M191,53.8c0.1-4.6-0.5-8.6-1.6-11.9l-0.3-0.8l0.8-0.3c1.4-0.6,3.1-0.9,4.6-0.9c2.2,0,4,0.7,5.1,1.9l0.5,0.6
				l-0.5,0.6c-2.6,3.2-5,7-6.9,11.2L191,53.8z"/>
		</g>
		<g>
			<polygon class="st1" points="72.1,253 65.1,245.7 53.7,227.6 53.2,238.4 52.8,264.6 54.5,288.8 58.3,308.5 60.8,293.8 
				67.2,272.2 			"/>
			<polygon class="st1" points="55.8,209.2 62,220.6 67.9,229.5 75.1,238.7 77.2,222.2 71.8,217.7 57.9,198.2 			"/>
			<polygon class="st1" points="64.3,171.9 68.7,179.7 75.7,191.8 83.5,202.2 87.3,203.7 89.8,199.4 86.1,192 80,175.7 77.4,161.9 
				75.9,149.8 68.3,159.9 			"/>
			<path class="st1" d="M86.5,136.3l1.4,12.8l2.4,16.3l6.5,14.7l5.2,6.3l4-3.1l-2.6-7.4c0,0-5-19.5-5.1-20.3s-0.9-17.8-0.9-17.8
				l0.4-9.7l-5.7,2L86.5,136.3z"/>
			<path class="st1" d="M123.4,112l-5.3,10.2l-5,16l-1.6,14.1l1.1,15.7l4,14.5l6.5,12l3.5,3.7l5.9-1.9l2.1-3l-6.8-15.7l-3.8-15.5
				c0,0-2.2-14.2-2.2-15c-0.1-0.8,0.9-18.7,0.8-19.2s3.3-14.8,3.3-14.8L123.4,112z"/>
			<path class="st1" d="M149.5,90.4c0,0-6.1,5.2-10.7,19.1c-1.7,5.2-3.2,21.5-3.2,21.5l0.1,15l2,17.5l10.1,32l7.5,3.2
				c-8.5-17.6-15.2-50.3-12.2-77.3C145.3,101.4,149.5,90.4,149.5,90.4z"/>
			<path class="st1" d="M186.5,92.9c-3.7-0.2-7.5-2.1-11.2-1.3l0.2,23.7l0.1,37.7l-1.8,44.8l8.7-4.9l4-17.1l3.7-40l-2.3-23.8
				L186.5,92.9z"/>
			<path class="st1" d="M166.2,90.6c0,0-4,25.7-3.8,56.7c0.2,26.1,3.5,52.6,3.5,52.6s-2.3,0.1-4.2-5.2s-6.4-21.2-7-26.1
				c-0.6-4.9-1.7-20.7-1.3-27.6s2.5-24.8,3.5-30c1-5.3,4.8-21,4.8-21L166.2,90.6z"/>
			<path class="st1" d="M187.6,199.1c0,0,10.3-20.9,12.3-43.9c3.3-38.7-1.8-63.5-1.8-63.5l8.7,1.5l4.3,15.4l2.9,23.6l-1.9,25.7
				l-5.1,20.8c0,0-5.8,14.4-9.1,16.9C194.5,198.2,187.6,199.1,187.6,199.1z"/>
			<path class="st1" d="M221,94l4,9.4l2.8,17.8l-0.6,16.2l-3.6,18l-5.3,19l-10.3,23l4.9,0.1l8.2-2.6l6.1-4.4l4.6-11.3l2.6-9.2
				l2.5-15.1l0.8-14.6c0,0-1.3-17.3-1.4-18c-0.1-0.7-3.9-15.4-3.9-15.4s-3.7-8.2-4.2-9s-4.2-3.8-4.2-3.8L221,94z"/>
			<path class="st1" d="M243.5,108.1c0.1,0.2,5.4,11.4,5.4,11.4l3.2,11.3l1.7,11.9l0.2,14.5l-2.2,14.4l-6.1,11.1l6.3,6.4l5.2-6.3
				c0,0,6.8-14.1,8.2-14.8c1.4-0.7,5.1-15.9,6.2-16.2c1.2-0.4,3.7-7.4,3.7-7.4L264,132.6l-4-9.6l-6.8-11.6l-9.6-6.2L243.5,108.1z"/>
			<polygon class="st1" points="262.1,198.9 266.3,192.3 272,180.9 276.3,168.6 281.5,155 281.3,168.3 276.9,187.1 267.9,208.3 			
				"/>
			<polygon class="st1" points="273.4,216.1 278.7,208.7 283.2,200.6 289.4,189.6 292,175 296.8,185.9 291.1,204.6 284.8,222.3 
				277.6,234.3 275.8,224.4 			"/>
			<polygon class="st1" points="279.1,247.6 283.3,242 288.7,234.1 299.8,209 302.1,219.6 300.9,251.3 291.7,266.9 283.9,275.6 
				280.9,263.9 			"/>
			<polygon class="st1" points="289,288.7 298.1,274.1 297.9,283.8 292.5,310.2 			"/>
		</g>
	</g>
	<g>
		<g>
			<g>
				<path class="st2" d="M104.9,183.3c-8.4,7.8-16.9,15.8-23.1,25.5c-6.9,10.8-7.6,22.2-8.6,34.7c-1.1,14.4-7.8,26.8-11.4,40.6
					c-3.4,12.9-4.3,26.4-3,39.7c0.2,1.9,3.2,1.9,3,0c-1.3-13.4-0.4-26.8,3.1-39.8c3.3-12,9.3-23.2,10.8-35.6
					c1.6-12.8,0.9-25.1,7.8-36.6c6.1-10.1,14.9-18.3,23.5-26.3C108.5,184.1,106.3,182,104.9,183.3L104.9,183.3z"/>
			</g>
			<g>
				<path class="st2" d="M244.7,183.6c8.1,8,16,16.4,22.3,26c3.1,4.6,5.9,9.6,7.5,15c2,7.2,1.7,14.8,2.1,22.1
					c0.6,13.5,5.9,25.3,9.3,38.1c3.7,13.9,4.4,28.3,2.5,42.5c-0.3,1.9,2.8,1.9,3,0c1.9-14.2,1.2-28.6-2.4-42.4
					c-1.8-6.9-4.4-13.5-6.4-20.4c-2.3-7.7-3-15.4-3.2-23.5c-0.4-12.4-2.8-22.6-9.8-33c-6.5-9.7-14.5-18.4-22.8-26.6
					C245.4,180.2,243.3,182.3,244.7,183.6L244.7,183.6z"/>
			</g>
			<g>
				<path class="st2" d="M96.8,126c-23.6,16.2-35.3,43.4-40.7,70.6c-5.7,29.1-5.3,59.2-2.6,88.6c1.2,12.7,2.8,25.4,4.8,38
					c0.3,1.9,3.2,1.1,2.9-0.8c-3.8-24-6.4-48.2-6.5-72.5c-0.2-28.8,2.4-59.1,14.6-85.6c6.5-14.2,16.1-26.9,29.1-35.8
					C99.8,127.5,98.4,124.9,96.8,126L96.8,126z"/>
			</g>
			<g>
				<path class="st2" d="M263.2,134.3c23,16.9,32.6,44.8,35.8,72.2c3.2,27.8,0.7,56.1-3.5,83.7c-1.9,12.1-4.2,24.1-6.5,36.1
					c-0.4,1.9,2.5,2.7,2.9,0.8c4.7-24.6,9.1-49.3,10.8-74.3c1.9-28.5,0.9-58.9-10.5-85.5c-6-14.1-15.1-26.4-27.5-35.5
					C263.2,130.6,261.7,133.2,263.2,134.3L263.2,134.3z"/>
			</g>
			<g>
				<path class="st2" d="M219.7,94.8c11.1,20,6.9,46.2,1.3,67.2c-2.5,9.3-5.6,18.5-9.9,27.2c-1.2,2.4-2.4,5.5-4.3,7.5
					c-2.1,2.2-4.5,1.6-7.6,1.3c0.4,0.8,0.9,1.5,1.3,2.3c6.6-15.6,12-31.7,14.1-48.6c2.5-19.9,0.1-39.8-6.3-58.8
					c-0.6-1.8-3.5-1-2.9,0.8c6.1,18.2,8.5,37.3,6.3,56.4c-1.9,16.9-7.2,33.1-13.8,48.6c-0.5,1.1,0.1,2.1,1.3,2.3
					c2.9,0.3,6.3,0.9,8.7-1.1c1.9-1.6,3.3-4.4,4.4-6.6c4.7-8.9,8.1-18.6,10.9-28.3c6.4-22.4,11-50.4-0.9-71.8
					C221.3,91.5,218.7,93.1,219.7,94.8L219.7,94.8z"/>
			</g>
			<g>
				<path class="st2" d="M225.6,96.3c9,13.8,11.1,31.3,10.7,47.4c-0.4,16-3.4,32.9-10.9,47.2c-0.9,1.7,1.7,3.2,2.6,1.5
					c7.8-14.8,10.9-32.1,11.3-48.7c0.4-16.6-1.8-34.7-11.1-48.9C227.1,93.1,224.5,94.6,225.6,96.3L225.6,96.3z"/>
			</g>
			<g>
				<path class="st2" d="M232.9,99.3c10.1,6.1,14.8,19.1,17.3,30c3.5,15,3.1,30.8-0.9,45.7c-0.5,1.9,2.4,2.7,2.9,0.8
					c4.2-15.9,4.5-32.8,0.5-48.7c-2.8-11.3-8-24.1-18.4-30.4C232.8,95.7,231.3,98.3,232.9,99.3L232.9,99.3z"/>
			</g>
			<g>
				<path class="st2" d="M183.8,93.4c3.5,17.2,4.1,34.9,3.3,52.4c-0.8,18.1-3.1,36.2-7.7,53.8c-0.2,0.8,0.3,1.6,1,1.8
					c12.1,3.4,21.3-5.5,25.8-15.9c0.8-1.8-1.8-3.3-2.6-1.5c-4,9.1-11.6,17.6-22.4,14.5c0.3,0.6,0.7,1.2,1,1.8
					c4.6-17.8,7-36.2,7.8-54.6c0.8-17.8,0.2-35.8-3.4-53.2C186.3,90.7,183.4,91.5,183.8,93.4L183.8,93.4z"/>
			</g>
			<g>
				<path class="st2" d="M181.6,190.6c-2.7,2.5-5.5,5.3-8.7,7.1c0.8,0.4,1.5,0.9,2.3,1.3c1.5-17.3,1.9-34.6,2.1-51.9
					c0.2-18,0.2-36.1-1.2-54c-0.1-1.9-3.2-1.9-3,0c1.4,18,1.4,36,1.2,54c-0.2,17.3-0.6,34.7-2.1,51.9c-0.1,1.2,1.3,1.8,2.3,1.3
					c3.5-1.9,6.4-4.9,9.3-7.5C185.2,191.4,183,189.3,181.6,190.6L181.6,190.6z"/>
			</g>
			<g>
				<path class="st2" d="M159.8,91.2c-5.3,18.6-8.1,38.3-8.1,57.7c0.1,13.7,1.7,27.7,6.4,40.7c1.2,3.4,3.4,12.3,7.3,13.1
					c3.8,0.8,8-5,9.6-7.7c1-1.7-1.6-3.2-2.6-1.5c-1.1,1.9-4.5,6.7-6.6,5.8c-1.6-0.7-3.8-7.8-4.2-9.1c-2-5.3-3.5-10.8-4.6-16.3
					c-2.3-11.8-2.6-23.9-1.9-35.8c0.9-15.5,3.4-31,7.7-46C163.2,90.2,160.3,89.4,159.8,91.2L159.8,91.2z"/>
			</g>
			<g>
				<path class="st2" d="M144.2,91.4c-11.2,21.1-11.9,46.9-8.3,70c1.6,10.4,4.2,20.8,8.7,30.3c1.4,3,2.8,7,6.1,8.3
					c4.4,1.8,9.1-1,12-4.2c1.3-1.4-0.8-3.6-2.1-2.1c-2.1,2.4-5.8,5.1-9,3.3c-1.7-1-2.6-3.2-3.5-4.9c-1.7-3.5-3.1-7.1-4.4-10.8
					c-3-9.2-4.9-18.9-5.9-28.5c-2-20.1-0.6-41.7,9-59.8C147.7,91.2,145.1,89.7,144.2,91.4L144.2,91.4z"/>
			</g>
			<g>
				<path class="st2" d="M141,90.8c-18,10.7-21.3,34.3-20.5,53.4c0.8,18,4.4,40.1,16.2,54.5c1.2,1.5,3.3-0.6,2.1-2.1
					c-5-6.1-7.9-14-10.1-21.5c-2.9-9.6-4.6-19.6-5.1-29.7c-0.9-18.2,1.6-41.6,19-51.9C144.2,92.4,142.7,89.8,141,90.8L141,90.8z"/>
			</g>
			<g>
				<path class="st2" d="M129.4,100.8c-13.3,17-20.8,37.7-19.2,59.4c0.9,13,4.7,28.3,14.1,38c1.3,1.4,3.5-0.7,2.1-2.1
					c-8.8-9.1-12.4-23.7-13.2-35.9c-1.5-20.9,5.6-40.9,18.3-57.3C132.7,101.4,130.6,99.2,129.4,100.8L129.4,100.8z"/>
			</g>
			<g>
				<path class="st2" d="M209.4,199.5c28.2-5.7,55-24.6,56.4-55.6c1.1-25.2-19.4-45.7-42.9-50.9c-11.7-2.6-24-3-35.9-3.6
					c-14.5-0.8-29.8-1.9-44.3,0.3c-13.2,2-26.7,9-35.2,19.4c-7.4,9-10.9,20.3-11.5,31.8c-0.6,12.5,1.9,25.2,6.3,36.8
					c2.6,6.8,6,15.9,12.2,20.3c0.4,0.3,1.1,0.2,1.5,0c0.9-0.5,1.4-1.6,1.9-2.5c0.5-0.8,0.9-1.5,1.3-2.3c0.2-0.4,1.2-1.5,0.6-1.3
					c1.8-0.8,0.2-3.4-1.5-2.6c-1.2,0.5-2.4,3.2-2.8,4.3c0,0-1.5,2.2-0.3,1.5c0.4-0.2,0.8,0.4,0.2-0.2c-0.4-0.4-0.8-0.8-1.2-1.2
					c-2.2-2.4-3.8-5.4-5.3-8.3c-4.4-8.6-7.3-18-8.9-27.6c-1.8-11-1.7-22.7,2.1-33.3c4.4-12.4,13.9-21.7,25.8-27.1
					c12.3-5.6,24.8-5.9,38.1-5.8c15.3,0.2,30.7,0.9,45.9,2.7c22.9,2.6,45.6,15.3,50.3,39.9c2.3,11.8-1,24.5-7.4,34.5
					c-10.3,16-28.1,24.3-46.2,27.9C206.7,197,207.5,199.8,209.4,199.5L209.4,199.5z"/>
			</g>
		</g>
		<g>
			<path class="st2" d="M272.7,142.6c-3.4,15.3-9.9,32.5-20.5,44.3c-1.3,1.4,0.8,3.6,2.1,2.1c10.9-12.1,17.9-29.8,21.3-45.6
				C276,141.5,273.1,140.7,272.7,142.6L272.7,142.6z"/>
		</g>
		<g>
			<path class="st2" d="M278.1,150.5c-1.6,17.2-7.6,33.4-17.3,47.6c-1.1,1.6,1.5,3.1,2.6,1.5c10.1-14.7,16.1-31.4,17.7-49.1
				C281.3,148.6,278.3,148.6,278.1,150.5L278.1,150.5z"/>
		</g>
		<g>
			<path class="st2" d="M279.4,151c2.1,10.4,0.1,21.4-2.7,31.5c-2.3,8.6-5.3,17.5-10.1,25.1c-1,1.6,1.6,3.2,2.6,1.5
				c5.1-8.2,8.3-17.9,10.7-27.2c2.6-10.2,4.4-21.2,2.3-31.7C281.9,148.3,279,149.1,279.4,151L279.4,151z"/>
		</g>
		<g>
			<path class="st2" d="M290.7,170.5c-2.2,15.7-8.2,32.1-18.3,44.5c-1.2,1.5,0.9,3.6,2.1,2.1c10.4-12.8,16.8-29.6,19.1-45.9
				C293.8,169.4,290.9,168.5,290.7,170.5L290.7,170.5z"/>
		</g>
		<g>
			<path class="st2" d="M294.7,183c-2.5,17.6-8.9,35.5-18.4,50.5c-1,1.6,1.6,3.1,2.6,1.5c9.6-15.2,16.2-33.5,18.7-51.2
				C297.9,181.9,295,181.1,294.7,183L294.7,183z"/>
		</g>
		<g>
			<path class="st2" d="M298.4,201.6c-2.1,15.8-9,34.5-21.6,44.9c-1.5,1.2,0.6,3.3,2.1,2.1c13.2-10.9,20.3-30.5,22.5-47
				C301.7,199.7,298.7,199.7,298.4,201.6L298.4,201.6z"/>
		</g>
		<g>
			<path class="st2" d="M299.8,225.1c-1.6,14-9.5,27.3-18.6,37.8c-1.3,1.4,0.8,3.6,2.1,2.1c9.7-11.1,17.8-25,19.5-39.9
				C303,223.2,300,223.2,299.8,225.1L299.8,225.1z"/>
		</g>
		<g>
			<path class="st2" d="M300.1,249.5c-4.8,8.8-9.7,17.3-16,25c-1.2,1.5,0.9,3.6,2.1,2.1c6.5-7.9,11.6-16.7,16.5-25.7
				C303.6,249.3,301,247.8,300.1,249.5L300.1,249.5z"/>
		</g>
		<g>
			<path class="st2" d="M296.8,273.4c-2.8,5-5.8,9.9-9.1,14.6c-1.1,1.6,1.5,3.1,2.6,1.5c3.3-4.7,6.3-9.6,9.1-14.6
				C300.3,273.2,297.7,271.7,296.8,273.4L296.8,273.4z"/>
		</g>
		<g>
			<path class="st2" d="M85,137.8c1.1,16.7,5.3,36.5,15.9,49.8c1.2,1.5,3.3-0.6,2.1-2.1c-10.1-12.6-14-31.9-15.1-47.7
				C87.9,135.9,84.9,135.8,85,137.8L85,137.8z"/>
		</g>
		<g>
			<path class="st2" d="M75,149c0.7,8.8,1.3,17.6,3.4,26.2c2.1,8.8,6,16.9,10.1,25c0.9,1.7,3.5,0.2,2.6-1.5
				c-4-7.8-7.8-15.7-9.8-24.3c-2-8.3-2.6-16.9-3.2-25.4C77.8,147.1,74.8,147,75,149L75,149z"/>
		</g>
		<g>
			<path class="st2" d="M64.2,172.3c4.3,11.9,11.3,22.4,20.7,30.9c1.4,1.3,3.6-0.8,2.1-2.1c-9-8.2-15.8-18.2-19.9-29.6
				C66.5,169.7,63.6,170.5,64.2,172.3L64.2,172.3z"/>
		</g>
		<g>
			<path class="st2" d="M58.9,186.7c5.6,9,13.1,17.4,22.1,23.1c1.6,1,3.1-1.6,1.5-2.6c-8.6-5.4-15.7-13.5-21-22
				C60.5,183.6,57.9,185.1,58.9,186.7L58.9,186.7z"/>
		</g>
		<g>
			<path class="st2" d="M56.6,199c4.7,9.7,11,18,19.8,24.3c1.6,1.1,3.1-1.5,1.5-2.6c-8.4-5.9-14.3-14-18.7-23.2
				C58.3,195.7,55.8,197.3,56.6,199L56.6,199z"/>
		</g>
		<g>
			<path class="st2" d="M54.5,209.9c5.1,10.8,11.8,20.7,19.5,29.9c1.2,1.5,3.4-0.7,2.1-2.1c-7.5-8.9-14-18.7-19-29.3
				C56.3,206.7,53.7,208.2,54.5,209.9L54.5,209.9z"/>
		</g>
		<g>
			<path class="st2" d="M53,229.4c4.3,9.4,10.4,17.6,18,24.6c1.4,1.3,3.5-0.8,2.1-2.1c-7.4-6.8-13.3-14.9-17.5-24
				C54.8,226.1,52.2,227.7,53,229.4L53,229.4z"/>
		</g>
		<g>
			<path class="st2" d="M52.3,247.6c4.9,5.6,10.3,11.1,16.5,15.1c1.6,1,3.1-1.6,1.5-2.6c-6.1-3.9-11.2-9.2-15.9-14.6
				C53.2,244,51,246.2,52.3,247.6L52.3,247.6z"/>
		</g>
		<g>
			<path class="st2" d="M54.5,264.3c4.2,2.7,7.2,7,12.3,8.1c1.9,0.4,2.7-2.5,0.8-2.9c-4.7-1-7.7-5.2-11.6-7.8
				C54.4,260.6,52.9,263.2,54.5,264.3L54.5,264.3z"/>
		</g>
		<g>
			<path class="st2" d="M53.9,279.7c2.9,2,6.1,3.4,9.5,4.3c1.9,0.5,2.7-2.4,0.8-2.9c-3.2-0.9-6.1-2.2-8.8-4
				C53.8,276.1,52.3,278.7,53.9,279.7L53.9,279.7z"/>
		</g>
		<g>
			<path class="st2" d="M138.9,199.1c1.3-0.4,2.5-1.1,3.6-1.8c1.6-0.9,3.2-2.1,4.1-3.6c1-1.7-1.6-3.2-2.6-1.5
				c-1.1,1.8-4.2,3.5-6,4.1C136.3,196.8,137.1,199.7,138.9,199.1L138.9,199.1z"/>
		</g>
		<g>
			<path class="st2" d="M125.5,199.1c3.7,0.4,7.7-0.2,9.7-3.7c1-1.7-1.6-3.2-2.6-1.5c-1.5,2.5-4.5,2.5-7.1,2.2
				C123.6,195.9,123.6,198.9,125.5,199.1L125.5,199.1z"/>
		</g>
		<g>
			<g>
				<path class="st2" d="M158.9,89.3c-0.3-3.2-0.6-6.2,1.6-8.8c1.2-1.4,2.9-2.6,4.5-3.7c4-2.7,8.5-4.5,13.2-5.3
					c11.6-2.1,29,3.4,25.4,18.3c-0.5,1.9,2.4,2.7,2.9,0.8c3.8-15.6-12.2-23.6-25.6-22.5c-6.8,0.6-13.4,3.1-18.9,7.2
					c-5.2,3.9-6.7,7.5-6.1,14.1C156.1,91.2,159.1,91.2,158.9,89.3L158.9,89.3z"/>
			</g>
			<g>
				<path class="st2" d="M158.2,77.9c-3.4-0.8-6.8-3-9.6-5c-2.6-1.9-7.5-5.9-2.5-7.9c1.8-0.7,1-3.6-0.8-2.9
					c-12.9,5.2,5.7,17.3,12,18.7C159.3,81.2,160.1,78.3,158.2,77.9L158.2,77.9z"/>
			</g>
			<g>
				<path class="st2" d="M163.3,75c-4-1.7-22.4-15.3-14.9-19.6c1.7-1,0.2-3.6-1.5-2.6c-11.3,6.5,8.9,22.2,14.9,24.8
					C163.5,78.3,165,75.7,163.3,75L163.3,75z"/>
			</g>
			<g>
				<path class="st2" d="M167.8,72.6c-4.6-3.9-26.6-21.4-17.8-28c1.5-1.1,0-3.8-1.5-2.6c-12.3,9.2,10.8,27.3,17.2,32.7
					C167.1,76,169.3,73.9,167.8,72.6L167.8,72.6z"/>
			</g>
			<g>
				<path class="st2" d="M151,41.8c1.2-8,8.8-4.9,12.1-1.1c2.6,3,4.3,6.9,5.6,10.6c2.1,6.1,3.3,12.6,4.5,19c0.4,1.9,3.3,1.1,2.9-0.8
					c-1.9-10.2-3.6-22-10.4-30.3c-5-6.1-16.1-8.4-17.6,1.8C147.9,42.9,150.7,43.7,151,41.8L151,41.8z"/>
			</g>
			<g>
				<path class="st2" d="M160.3,37.3c18.3-11.8,24.1,18.5,25.7,30.9c0.2,1.9,3.2,1.9,3,0c-1.8-14.6-9.2-47.1-30.2-33.5
					C157.2,35.7,158.7,38.3,160.3,37.3L160.3,37.3z"/>
			</g>
			<g>
				<path class="st2" d="M178.7,38.5c11-9.6,10.3,19.9,9.6,24.9c-0.3,1.9,2.8,1.9,3,0c1.1-8.1,1.7-18.8-2.9-26.2
					c-3.1-5-7.9-4.4-11.9-0.9C175.1,37.6,177.2,39.7,178.7,38.5L178.7,38.5z"/>
			</g>
			<g>
				<path class="st2" d="M216.1,63.4c2.1,1,6.1,2.6,5.9,5.5c-0.2,2.2-3,4-4.6,5.1c-3.8,2.5-8.2,4.3-12.6,5.4
					c-1.9,0.5-1.1,3.4,0.8,2.9c5.8-1.5,12.5-4.1,16.9-8.4c5.4-5.4,0.8-10.4-4.8-13C215.9,60,214.4,62.6,216.1,63.4L216.1,63.4z"/>
			</g>
			<g>
				<path class="st2" d="M190.1,69.9c2.5-15.1,11-32.1,27.1-36.3c4.9-1.3,10.7-1.1,14.6,2.5c4.8,4.4,4.6,11.5,3.4,17.3
					c1,0.1,2,0.3,2.9,0.4c0.2-7-2.4-15-10-16.8c-8.7-2-16.3,5.5-21,11.8c-1.2,1.6,1.5,3,2.6,1.5c3.8-5.2,10.1-11.8,17.3-10.5
					c6.6,1.2,8.2,8.2,8.1,13.9c0,1.7,2.6,2.1,2.9,0.4c1.4-6.4,1.5-13.9-3.1-19.1c-3.9-4.5-10-5.8-15.7-4.9
					c-18.7,2.7-29.3,22.1-32.1,39C186.9,71,189.8,71.8,190.1,69.9L190.1,69.9z"/>
			</g>
			<g>
				<path class="st2" d="M147.2,54.5c-3.1-3.7-6.4-7.3-8-11.9c-0.9-2.6-1.9-8.8,2-9.6c2.8-0.6,6.7,2.1,7.8,4.5
					c0.8,1.7,3.4,0.2,2.6-1.5c-3.1-6.3-13.6-9-15.8-0.8c-2.2,8.3,4.4,15.7,9.3,21.5C146.3,58.1,148.4,56,147.2,54.5L147.2,54.5z"/>
			</g>
			<g>
				<path class="st2" d="M148.3,45.2c-1.1-1.6-2.3-3.2-3.4-4.8c-0.5-0.7-1-1.5-1.4-2.3c-0.1-0.2-0.2-0.7-0.3-0.8c0-0.1,0-0.2,0-0.3
					c-0.5,0.3-0.6,0.4-0.3,0.4c0.2,0.2,1.2,0.2,1.5,0.3c0.6,0.2,1.2,0.5,1.8,0.8c0.9,0.4,1.9,0.9,2.6,1.7c1.4,1.4,3.5-0.7,2.1-2.1
					c-1.2-1.3-3-2.1-4.6-2.7c-1.4-0.6-3.5-1.4-5-0.5c-4.2,2.4,2.9,9.9,4.3,12C146.8,48.3,149.4,46.8,148.3,45.2L148.3,45.2z"/>
			</g>
			<g>
				<path class="st2" d="M149.7,44.6c9.8,6.4,16.7,15.8,19.9,27.1c0.5,1.9,3.4,1.1,2.9-0.8c-3.4-12-10.9-22.1-21.3-28.9
					C149.6,40.9,148.1,43.5,149.7,44.6L149.7,44.6z"/>
			</g>
			<g>
				<path class="st2" d="M205.5,49.8c7.1,2.7,13.9,12.7,5.4,18.3c-1.6,1-0.1,3.6,1.5,2.6c4.2-2.7,6.2-7.5,5.1-12.4
					c-1.3-5.7-5.9-9.3-11.2-11.3C204.5,46.2,203.7,49.1,205.5,49.8L205.5,49.8z"/>
			</g>
			<g>
				<path class="st2" d="M203,77.6c2.7-0.7,5-2.3,6.6-4.6c1.1-1.6-1.5-3.1-2.6-1.5c-1.2,1.6-2.9,2.7-4.8,3.2
					C200.4,75.2,201.1,78.1,203,77.6L203,77.6z"/>
			</g>
			<g>
				<path class="st2" d="M192.3,69.6c1-3.8,2.5-7.5,4.5-10.9c1.8-3.1,4.7-8.2,8.5-9.1c1.9-0.5,1.1-3.4-0.8-2.9c-4,1-6.7,5-8.9,8.2
					c-2.9,4.2-4.9,8.9-6.2,13.9C188.9,70.7,191.8,71.5,192.3,69.6L192.3,69.6z"/>
			</g>
			<g>
				<path class="st2" d="M190.2,41.7c2.4-1,6.9-1.5,8.7,0.8c1.2,1.5,3.8,0,2.6-1.5c-3-3.9-8.7-3.7-12.8-1.9
					C187,39.9,188.5,42.5,190.2,41.7L190.2,41.7z"/>
			</g>
			<g>
				<path class="st2" d="M158.3,87.6c13.5-4.4,31.9-8.3,45.4-2.1c1.7,0.8,3.3-1.8,1.5-2.6c-14.3-6.6-33.3-2.9-47.7,1.8
					C155.7,85.3,156.5,88.2,158.3,87.6L158.3,87.6z"/>
			</g>
			<g>
				<path class="st2" d="M164.4,78.3c10.6-2.8,26.1-3.8,34.4,4.7c1.3,1.4,3.5-0.7,2.1-2.1c-9.1-9.5-25.5-8.6-37.3-5.5
					C161.7,75.9,162.5,78.8,164.4,78.3L164.4,78.3z"/>
			</g>
		</g>
	</g>
</g>
</svg>
