<?xml version="1.0" encoding="utf-8"?>
<!-- Generator: Adobe Illustrator 19.2.0, SVG Export Plug-In . SVG Version: 6.00 Build 0)  -->
<svg version="1.1" id="Layer_1" xmlns="http://www.w3.org/2000/svg" xmlns:xlink="http://www.w3.org/1999/xlink" x="0px" y="0px"
	 viewBox="0 0 290 100" style="enable-background:new 0 0 290 100;" xml:space="preserve">
<style type="text/css">
	.st0{fill:#814927;}
	.st1{fill:#3A291D;}
</style>
<g>
	<path class="st0" d="M34,21.3c-5,4.2-10.3,9.4-13.9,14.8c0,0,0,2.6,3.9,1.8c1.2-0.3,8.6-4.8,11.4-6"/>
	<g>
		<path class="st1" d="M33.3,20.6c-4.4,3.7-8.6,7.8-12.1,12.3c-1.6,2.1-3.2,3.8-0.3,5.2c3,1.4,5.1,0.3,7.6-1.3
			c2.8-1.8,5.7-3.8,7.7-6.5c0.8-1-1-2-1.7-1c-1.5,2-3.7,3.6-5.8,4.9c-1.8,1.2-3.8,2.9-6,2.4c-0.3-0.1-1.6-0.3-1.7-0.7
			c0.1,0.3,1.2-1.1,1.2-1.1c1.4-1.6,2.7-3.4,4.2-5c2.6-2.8,5.4-5.3,8.2-7.8C35.7,21.2,34.2,19.8,33.3,20.6L33.3,20.6z"/>
	</g>
	<path class="st0" d="M253.4,21.3c5,4.2,10.3,9.4,13.9,14.8c0,0,0,2.6-3.9,1.8c-1.2-0.3-8.6-4.8-11.4-6"/>
	<g>
		<path class="st1" d="M252.7,22c2.9,2.4,5.7,5,8.2,7.8c1.3,1.4,2.5,2.8,3.6,4.2c1.3,1.6,2.6,2,0.1,2.6c-2.2,0.5-4.2-1.1-6-2.4
			c-2-1.4-4.3-3-5.8-4.9c-0.8-1-2.5,0-1.7,1c2,2.7,4.9,4.7,7.7,6.5c2.5,1.6,4.6,2.7,7.6,1.3c3-1.4,1.4-3.1-0.3-5.2
			c-3.5-4.6-7.7-8.6-12.1-12.3C253.1,19.8,251.7,21.2,252.7,22L252.7,22z"/>
	</g>
	<path class="st1" d="M253.3,21.3c-0.5-1.3-6.7-2.3-14.3-4.6c-11-3.4-25.8-6-36.5-5.8c-19.9,0.4-29.1,3-43,11.3
		c-2.5,1.5-16.3,1.1-16.3,1.1s-13.8,0.3-16.3-1.1c-13.9-8.3-23.1-10.9-43-11.3c-10.8-0.2-25.5,2.4-36.5,5.8
		C39.9,19,33.6,20,33.2,21.3c-1.1,3.2-1,7.6,0.3,9.5c1.3,1.9,5.7-0.6,7.9,3.5c1.6,3,3.4,36.2,25.4,46.4c2.9,1.4,27.7,9.4,44.6-2.5
		c6-4.3,20.2-12,20.9-47c0-2.5,21.8-2.5,21.8,0c0.7,35,17.1,44.6,23.7,48c18.9,9.7,38.9,3,41.8,1.6c21.9-10.2,23.8-43.4,25.4-46.4
		c2.2-4.1,6.6-1.6,7.9-3.5C254.3,28.9,254.5,24.5,253.3,21.3z M107.9,73.9c-11.2,6.5-24.5,7.5-36,2.7c-17.3-7.2-24.4-33.1-20-44
		c4.3-10.5,13.8-17,34.4-15.8c19,1,34.6,4.6,36.8,13.5C127.8,49.2,115.9,69.3,107.9,73.9z M163.5,30.3c2.2-9,17.8-12.5,36.8-13.5
		c20.7-1.1,30.1,5.4,34.4,15.8c4.5,10.9-2.6,36.9-20,44c-11.5,4.7-24.8,3.7-36-2.7C170.7,69.3,158.8,49.2,163.5,30.3z"/>
</g>
</svg>
