<?xml version="1.0" encoding="utf-8"?>
<!-- Generator: Adobe Illustrator 19.2.0, SVG Export Plug-In . SVG Version: 6.00 Build 0)  -->
<svg version="1.1" id="Layer_1" xmlns="http://www.w3.org/2000/svg" xmlns:xlink="http://www.w3.org/1999/xlink" x="0px" y="0px"
	 viewBox="0 0 630 410" style="enable-background:new 0 0 630 410;" xml:space="preserve">
<style type="text/css">
	.st0{fill:#A3A3A3;}
	.st1{fill:#433947;}
	.st2{fill:#7A7B7B;}
	.st3{fill:#636363;}
	.st4{fill:#302D33;}
</style>
<g>
	<g>
		<path class="st0" d="M30.7,309.2c0.2-1.9,6-20.7,6-20.7s11.6-38.2,11.8-39.4s4.2-17.3,4.9-18.9s5.8-13,5.8-13l8.3-5.9l15.4-9.5
			l11.4-6.2l26.5-17.8l18.8-8.8l35.1-21.1l8.7-8.9l16.4-9.8l11.5-22.7l6.2-24.8L219,69l14.3,20.5l12.9,9.5l26.5,12.7l28.7,5.9
			l13.8,0.7l11.1,0.7l10.5-2.1l40.1-12.2l19.3-17l13.4-22.4l5.5,19.3l11.5,30.6l3,11.6l3,8.5l4.8-1.7l27.3,17.9l9.8,6.9l9.2,8.3
			l14.8,9.9l27.7,11.9l17.8,9l25.8,12.7l2.3,5.6l-2.6,8.6c0,0,10.3,22.7,10.5,23.4c0.1,0.7,5.1,22.4,5.1,22.4l5.8,38.2
			c0,0-104.7,66.1-307.8,66.1C126.6,374.6,30.7,309.2,30.7,309.2z"/>
	</g>
	<g>
		<path class="st1" d="M293,150.6c-0.7,0-1.3-0.1-1.9-0.2c-2.1-0.5-4.2-2.4-5.4-4.7c-1-1.9-1.2-3.8-0.5-5.3l0.8-1l-0.4-1
			c1.5-3.5,5-5.9,8.7-5.9c0.8,0,1.5,0.1,2.3,0.3c4.7,1.3,6.6,6.3,5.7,10.5C301.4,147.3,297.2,150.6,293,150.6L293,150.6z"/>
		<path class="st1" d="M294.1,185.7c-0.6,0-1.3-0.1-1.9-0.2c-2.3-0.5-4.3-2.1-5.3-4.2c-1.1-2.2-1.1-4.8,0-7l0.2-0.3l0.1-0.3
			c1.6-3.8,4.5-5.9,8.1-5.9c0.7,0,1.3,0.1,2,0.2c4.5,0.9,7,4.5,6.4,9.1C303.1,181.9,298.9,185.7,294.1,185.7L294.1,185.7z"/>
		<path class="st1" d="M158.1,312.7c-0.6,0-1.3-0.1-1.9-0.2c-2.3-0.5-4.3-2.1-5.3-4.2c-1.1-2.2-1.1-4.8,0-7l0.2-0.3l0.1-0.3
			c1.6-3.8,4.5-5.9,8.1-5.9c0.7,0,1.3,0.1,2,0.2c4.5,0.9,7,4.5,6.4,9.1C167.1,308.9,162.9,312.7,158.1,312.7L158.1,312.7z"/>
		<path class="st1" d="M270.3,240c-0.8,0-1.7-0.2-2.5-0.4c-3-0.7-5.6-2.7-6.9-5.6c-1.4-2.9-1.4-6.3,0-9.1l0.2-0.3l0.2-0.5
			c2-4.9,5.8-7.7,10.5-7.7c0.8,0,1.7,0.1,2.6,0.3c5.8,1.2,9.1,6.1,8.4,12C281.9,235,276.5,240,270.3,240L270.3,240z"/>
		<path class="st1" d="M367.3,240c-0.8,0-1.7-0.2-2.5-0.4c-3-0.7-5.6-2.7-6.9-5.6c-1.4-2.9-1.4-6.3,0-9.1l0.2-0.3l0.2-0.5
			c2-4.9,5.8-7.7,10.5-7.7c0.8,0,1.7,0.1,2.6,0.3c5.8,1.2,9.1,6.1,8.4,12C378.9,235,373.4,240,367.3,240L367.3,240z"/>
		<path class="st1" d="M273.3,300c-0.8,0-1.7-0.2-2.5-0.4c-3-0.7-5.6-2.7-6.9-5.6c-1.4-2.9-1.4-6.3,0-9.1l0.2-0.3l0.2-0.5
			c2-4.9,5.8-7.7,10.5-7.7c0.8,0,1.7,0.1,2.6,0.3c5.8,1.2,9.1,6.1,8.4,12C284.9,295,279.5,300,273.3,300L273.3,300z"/>
		<path class="st1" d="M370.3,300c-0.8,0-1.7-0.2-2.5-0.4c-3-0.7-5.6-2.7-6.9-5.6c-1.4-2.9-1.4-6.3,0-9.1l0.2-0.3l0.2-0.5
			c2-4.9,5.8-7.7,10.5-7.7c0.8,0,1.7,0.1,2.6,0.3c5.8,1.2,9.1,6.1,8.4,12C381.9,295,376.4,300,370.3,300L370.3,300z"/>
		<path class="st1" d="M273.3,365c-0.8,0-1.7-0.2-2.5-0.4c-3-0.7-5.6-2.7-6.9-5.6c-1.4-2.9-1.4-6.3,0-9.1l0.2-0.3l0.2-0.5
			c2-4.9,5.8-7.7,10.5-7.7c0.8,0,1.7,0.1,2.6,0.3c5.8,1.2,9.1,6.1,8.4,12C284.9,360,279.5,365,273.3,365L273.3,365z"/>
		<path class="st1" d="M370.3,365c-0.8,0-1.7-0.2-2.5-0.4c-3-0.7-5.6-2.7-6.9-5.6c-1.4-2.9-1.4-6.3,0-9.1l0.2-0.3l0.2-0.5
			c2-4.9,5.8-7.7,10.5-7.7c0.8,0,1.7,0.1,2.6,0.3c5.8,1.2,9.1,6.1,8.4,12C381.9,360,376.4,365,370.3,365L370.3,365z"/>
	</g>
	<g>
		<path class="st2" d="M224.9,339.9c-44.7-4.1-83.4-2.2-87.2-3.1c-3.8-1-3-7.4-3-7.4l20.4-1.1l61.5,4.9l8.8,1.1
			C225.6,334.2,226.4,340,224.9,339.9z"/>
		<path class="st2" d="M262.7,193.5c0,0-6.8-61.1-3-72.5c1.8-5.5,16.6-8.1,16.6-8.1l8.6,2.2l-4.7,2.7l-13,4.2l0.2,11.5
			c0,0,2.9,63.5,2.4,63.7S262.7,193.5,262.7,193.5z"/>
		<path class="st2" d="M234.2,90.3c-2.8-0.2-13.5,11.4-11.6,17.7s22.6,19.1,23.1,23.9c0.5,4.8-1.8,12.2-5.8,11.6
			c-4-0.5-27.6-22.5-27.9-26.6c-0.3-4.2-8.1,14.1-0.9,32.3c1,2.6-3.1-2.8-3.1-2.8l-36,22.3l-54.5,33.1l-1.9-6.8l-1-12.3l59-32.1
			l2.2-4l15.2-13.1l8.6-2.7l1.2-6.3l13.6-31.3l4.1-21.9l4.7,5.6L234.2,90.3z"/>
		<polygon class="st2" points="82.9,201.7 88.6,217.7 82.9,220 66.5,230.8 59.2,215.9 73.9,207.1 		"/>
		<path class="st2" d="M392.2,92c0,0,21.4,16.2,15.3,27.2s-18.3,14.2-18.8,17.7c-0.5,3.6-0.6,10.6,3.2,9.5
			c3.9-1.1,22.9-12.2,24.3-16.9c1.8-5.7,11.7,8.8,9.8,21.5c-0.8,5.4,4.5-0.9,4.5-0.9l15.5,9.6l49.8,26.7l12.2,5.9l1.5-9.1l-13.2-9
			l-40.7-28.9l-13.3-8.8l-9.3-0.9l-3.2-8.6l-11.9-35l-8.3-26.6l-5,8.3L392.2,92z"/>
		<polygon class="st2" points="545.7,198.3 544.3,207.6 553.4,211.2 569.9,223.7 572.1,219.5 572.3,212.5 567.7,207.6 556.2,201.7 
					"/>
		<path class="st2" d="M409.7,171.8c-6.1,5.3-0.6,158.2,2.5,178.5c1.5,9.7,34.7,8.6,34.7,8.6s-39.2,9.6-43.7,7.5
			c-1.6-0.8,0.9-15.6,0.9-15.6L401,271v-31l-2.2-32.4l-3.8-25.7L409.7,171.8z"/>
		<path class="st2" d="M245.3,283.4V265l-1.2-55l-1.6-8.9c0,0-3.1-1.4-3.8-0.1c-0.4,0.6-1.7,40.4-0.9,81.9
			C240.2,282.1,243,283,245.3,283.4z"/>
		<path class="st2" d="M244.7,336.4c-1.9-0.1-6.7-0.3-8.5-0.7c0.4,21.2,0,36.2,0,36.2l9.5,2.2l-0.2-33.7v-4
			C245.2,336.4,245,336.4,244.7,336.4z"/>
		<polygon class="st2" points="241,337.8 225.5,334.2 224.8,339.9 241,341.5 		"/>
		<path class="st2" d="M223.2,333.4l0.2,4.5v19.7c0,0-1.6,5.5-2.4,7.5s-8.7,0-8.7,0l-34.2-8.7l-33.2-8.5l-27.2-2.8l-3.6,2.6
			c0,0,57.5,18,106.5,23.6c2.2,0.3,8.6,0.7,9.6-4.4c0.3-1.5,0.2-13.5,0-31.8C228.4,334.9,224.7,334,223.2,333.4z"/>
		<path class="st2" d="M260,191.3c-0.8-0.3-22-13.1-22-13.1s-6.1-5.9-7.9-5.2c-1.8,0.7-3.4,19.2-3.4,19.2l-3.2,38.5l-2.2,44l0.3,7.4
			c2.1-0.3,6.6-0.1,8.7,0.5c0.3-36.5,2.8-72.7,5.7-95.9c0,0,3.3,2.9,7.7,5.5c11.2,6.5,23.4,6.3,23.4,6.3l1.9,1.4v-7.8
			C268.7,192.2,260.8,191.7,260,191.3z"/>
		<path class="st2" d="M54.9,226.6C71.4,246,86.5,336.7,88.6,337.8c2.1,1.1,5.8,2,5.8,2l-1.7-10.1l-12-57.7l-10.1-28.1l-11.7-26.2
			L54.9,226.6z"/>
		<path class="st2" d="M574.2,232.8c-17,17.9-40.3,101.7-42.2,102.4s-8.8,3.1-8.8,3.1l8.8-32.6l16.7-46.4l13.2-26.6l6.8-12.7
			L574.2,232.8z"/>
	</g>
	<g>
		<g>
			<path class="st3" d="M201.6,127.7c8.7-19.1,18.9-37.9,18.6-59.5c-1.2,0.3-2.5,0.7-3.7,1c15.4,29.5,47,45.3,78.9,49.6
				c30.3,4.1,64.8-0.5,90.2-18.8c12.5-9,22-21.5,25.4-36.7c-1.3,0-2.6,0-3.9,0c3.2,14.7,9.1,29,13.9,43.2c2.5,7.4,5,14.7,7.3,22.1
				c0.5,1.7,1.5,3.7,1.6,5.4c0.1,2.5-2.2,8.2-3.5,11.3c-15,37.5-60.1,48.4-96.3,52c-20.2,2-40.5,1.9-60.7,1.1c0.7,0.7,1.3,1.3,2,2
				c-0.6-16.2-1-32.3-1.5-48.5c-0.2-7.7-0.4-15.4-0.7-23.1c-0.2-4.7,0.6-6.8,5.4-8.4c4.4-1.5,9.2-1.8,13.8-1.9c2.6-0.1,2.6-4.1,0-4
				c-6.7,0.2-17.5,0.4-21.9,6.5c-2,2.8-1.3,6.3-1.2,9.4c0.2,4.4,0.3,8.7,0.4,13.1c0.6,19,1,37.9,1.7,56.9c0,1.1,0.9,2,2,2
				c38.3,1.5,79.4,1.4,115.3-13.5c17.1-7.1,32.8-18.3,41.9-34.8c2.2-4.1,4-8.4,5.4-12.9c0.9-2.8,2-5.8,1.5-8.7
				c-1-5.8-3.6-11.7-5.5-17.4c-3.5-10.4-7-20.7-10.5-31.1c-2.4-7.2-5.1-14.4-6.7-21.8c-0.4-1.9-3.4-1.9-3.9,0
				c-6.2,28.2-33.5,44-59.8,50.3c-29.9,7.1-63.6,4.5-91-9.9c-15.4-8.1-28.3-20-36.4-35.5c-0.9-1.8-3.8-0.9-3.7,1
				c0.3,20.8-9.6,39-18.1,57.4C197.1,128,200.6,130.1,201.6,127.7L201.6,127.7z"/>
		</g>
		<g>
			<path class="st3" d="M197.9,126.7c0,5.8,3.7,11.6,6.6,16.3c5,8.1,11.1,15.5,17.6,22.5c12,12.9,28,27.8,46.4,30.1
				c2.5,0.3,2.5-3.7,0-4c-17.1-2.1-32.4-16.9-43.5-28.9c-6-6.5-11.7-13.4-16.5-20.8c-2.7-4.3-6.6-9.8-6.6-15.1
				C201.9,124.2,197.9,124.2,197.9,126.7L197.9,126.7z"/>
		</g>
		<g>
			<path class="st3" d="M269.8,198.1c-8.8-0.1-17.5-0.1-26.3-0.2c-1,0-2.1,0.9-2,2c2.1,28.8,1.8,57.8,1.9,86.7
				c0,29.2,0.1,58.4,0.3,87.6c0,2.6,4,2.6,4,0c-0.2-29.2-0.3-58.4-0.3-87.6c0-28.9,0.3-57.9-1.9-86.7c-0.7,0.7-1.3,1.3-2,2
				c8.8,0.1,17.5,0.1,26.3,0.2C272.4,202.1,272.4,198.1,269.8,198.1L269.8,198.1z"/>
		</g>
		<g>
			<path class="st3" d="M425.3,149.3c4.1,3.3,8.9,5.9,13.5,8.5c8,4.6,16.1,9.1,24.2,13.5c14.4,7.8,28.9,15.9,43.9,22.7
				c2.3,1,4.4-2.4,2-3.5c-14.6-6.6-28.8-14.5-42.9-22.1c-8-4.4-16-8.8-24-13.4c-4.6-2.7-9.7-5.2-13.9-8.6
				C426.2,144.8,423.3,147.7,425.3,149.3L425.3,149.3z"/>
		</g>
		<g>
			<path class="st3" d="M506.2,184c1.3,10.7-2.2,22-4.5,32.4c-0.2,0.9,0.1,1.8,0.9,2.3c10.8,6,22.7,9.7,33.5,15.7
				c1.1,0.6,2.6,0.1,2.9-1.2c3.3-11,8.5-23.2,8.6-34.9c0-0.7-0.4-1.4-1-1.7c-6.8-3.6-14-6.4-21.2-9.2c-5.5-2.2-11.7-5.4-17.7-6.1
				c-2.6-0.3-2.5,3.7,0,4c3.5,0.4,7.5,2.4,10.8,3.7c6.1,2.3,12.1,4.7,18.1,7.3c2.2,1,4.4,1.9,6.5,3c0.4,0.2,1,0.8,0.7,0.1
				c-0.4-0.9-0.3,1.1-0.4,1.3c-0.4,1.7-0.5,3.4-0.9,5c-1.9,8.9-4.8,17.6-7.4,26.4c1-0.4,2-0.8,2.9-1.2c-10.8-6-22.7-9.7-33.5-15.7
				c0.3,0.8,0.6,1.5,0.9,2.3c2.4-10.7,6-22.4,4.7-33.5C509.9,181.5,505.9,181.5,506.2,184L506.2,184z"/>
		</g>
		<g>
			<path class="st3" d="M545,209.3c7.7,3.8,16.5,7.1,21.8,14.2c6.3,8.4,9.8,19.5,13,29.4c6.5,19.9,9.6,40.7,9.6,61.6
				c0,2.6,4,2.6,4,0c0-22.5-3.6-44.9-10.9-66.2c-3.2-9.3-6.7-19.7-12.7-27.6c-5.7-7.4-14.7-11-22.8-15
				C544.7,204.7,542.7,208.2,545,209.3L545,209.3z"/>
		</g>
		<g>
			<path class="st3" d="M566,221.8c-22.6,36.5-35.3,77.6-45.5,119c-0.6,2.5,3.2,3.6,3.9,1.1c10.1-41.1,22.7-81.9,45.1-118.1
				C570.8,221.6,567.4,219.6,566,221.8L566,221.8z"/>
		</g>
		<g>
			<path class="st3" d="M432.6,138.8c-0.5-2.7,3.9-3.2,4.9-2.9c0.8,0.2,1.6,0.9,2.3,1.3c2.6,1.6,5.1,3.2,7.6,4.9
				c7.4,4.9,14.7,10,22,15.1c7.7,5.4,15.5,10.9,23.1,16.6c4.7,3.5,9.8,6.8,14,10.9c1.8,1.8,4.7-1,2.8-2.8
				c-9.3-9.1-21.1-16.3-31.7-23.8c-12-8.5-23.9-17.4-36.6-24.9c-5.1-3-13.6-0.5-12.3,6.5C429.2,142.4,433.1,141.3,432.6,138.8
				L432.6,138.8z"/>
		</g>
		<g>
			<path class="st3" d="M546.4,200.7c6.9,2.8,32,9.8,22.1,21.6c-1.6,2,1.2,4.8,2.8,2.8c4.9-5.8,3.5-14.5-2.7-18.7
				c-6.4-4.3-14.1-6.7-21.1-9.6C545.1,195.9,544,199.7,546.4,200.7L546.4,200.7z"/>
		</g>
		<g>
			<path class="st3" d="M60.6,218.5c5.5-4.5,11.8-8.2,17.9-11.9c9.8-6.1,19.8-12,29.7-17.9c19.5-11.4,39.1-22.7,58.9-33.4
				c8.5-4.6,18.5-10.7,27.5-2.7c1.9,1.7,4.8-1.1,2.8-2.8c-7.8-6.8-17.8-5.5-26.3-1.1c-8.2,4.2-16.2,8.7-24.3,13.2
				c-22.3,12.5-44.5,25.3-66.3,38.6c-7.7,4.7-15.8,9.4-22.8,15.2C55.8,217.3,58.6,220.1,60.6,218.5L60.6,218.5z"/>
		</g>
		<g>
			<path class="st3" d="M175.1,148c7.3-5.8,15.6-14.6,25.2-16.2c2.5-0.4,1.5-4.3-1.1-3.9c-10.2,1.7-19.1,11-26.9,17.2
				C170.2,146.8,173.1,149.6,175.1,148L175.1,148z"/>
		</g>
		<g>
			<path class="st3" d="M204.8,146.1c-28.9,18.9-59.2,35.3-88.3,54c-2.2,1.4-0.2,4.8,2,3.5c29-18.6,59.4-35.1,88.3-54
				C208.9,148.1,206.9,144.6,204.8,146.1L204.8,146.1z"/>
		</g>
		<g>
			<path class="st3" d="M112.7,182.1c-1.4,7.4,1.2,15,3.6,21.9c0.5,1.4,1,2.8,1.5,4.2c0.2,0.5,0.9,3,1.1,2.4s-1.5,0.7-2,1
				c-1.3,0.8-2.6,1.5-3.9,2.1c-3.2,1.7-6.5,3.2-9.9,4.6c-2.1,0.8-5.7,2.9-8,2.6c-3.5-0.5-5.5-6.5-6.6-9.3c-1.3-3.2-2.3-6.5-3.2-9.9
				c-0.7-2.5-4.5-1.4-3.9,1.1c1.8,6.5,4.2,18.1,10.9,21.4c5.3,2.7,14.2-3,18.9-5.2c3.5-1.7,12.2-4.2,11.5-9.2
				c-0.5-3.5-2.5-7-3.6-10.3c-1.7-5.2-3.5-11-2.5-16.5C117,180.7,113.2,179.6,112.7,182.1L112.7,182.1z"/>
		</g>
		<g>
			<path class="st3" d="M245.1,283.5c-27.4-6.1-55.5-8.8-83.5-8.5c-5.6,0.1-12.8-0.8-18.2,0.9c-4.8,1.5-5.9,6.7-7.1,11
				c-3.7,14.1-4.8,28.8-3.4,43.4c0.1,1,0.8,2.1,2,2c35.6-1.7,71.5,0.3,106.6,6.3c2.5,0.4,3.6-3.4,1.1-3.9
				c-35.5-6.1-71.7-8.2-107.6-6.5c0.7,0.7,1.3,1.3,2,2c-1.3-13.3-0.5-26.6,2.6-39.6c0.7-2.8,1.2-6.5,2.8-8.9c2-3,5.4-2.4,8.7-2.6
				c6.2-0.2,12.4-0.3,18.6-0.2c25,0.3,50,2.9,74.4,8.3C246.5,287.9,247.6,284.1,245.1,283.5L245.1,283.5z"/>
		</g>
		<g>
			<path class="st4" d="M283.3,139.6c-2,5,2.4,11.5,7.3,12.7c5.9,1.5,12.4-2.8,13.6-8.6c1.1-5.4-1.6-11.3-7.2-12.8
				s-11.3,1.7-13.4,6.8c-1,2.4,2.9,3.4,3.9,1.1c1.2-3,4.8-4.7,8-4.1c3.7,0.7,5.5,4.5,4.9,8c-0.6,3.6-4.3,6.3-8,5.9
				c-3.3-0.3-6.5-4.6-5.2-7.9C288.1,138.2,284.2,137.2,283.3,139.6L283.3,139.6z"/>
		</g>
		<g>
			<path class="st4" d="M285.1,173.3c-2.8,5.7,0.3,12.8,6.7,14.2c6.7,1.5,13.1-3.5,13.9-10.2c0.7-5.6-2.6-10.2-8-11.3
				c-5.6-1.2-10.3,1.8-12.4,7c-1,2.4,2.9,3.4,3.9,1.1c2.2-5.5,11.5-6,12.6,0.5c0.7,4.2-2.1,8.3-6.3,9c-4.7,0.8-9.1-3.7-6.8-8.3
				C289.7,173,286.2,171,285.1,173.3L285.1,173.3z"/>
		</g>
		<g>
			<path class="st4" d="M149.1,300.3c-2.8,5.7,0.3,12.8,6.7,14.2c6.7,1.5,13.1-3.5,13.9-10.2c0.7-5.6-2.6-10.2-8-11.3
				c-5.6-1.2-10.3,1.8-12.4,7c-1,2.4,2.9,3.4,3.9,1.1c2.2-5.5,11.5-6,12.6,0.5c0.7,4.2-2.1,8.3-6.3,9c-4.7,0.8-9.1-3.7-6.8-8.3
				C153.7,300,150.2,298,149.1,300.3L149.1,300.3z"/>
		</g>
		<g>
			<path class="st4" d="M259.1,223.9c-3.5,7.1,0.5,15.8,8.3,17.5c8.3,1.8,16.2-4.4,17.2-12.6c0.9-7-3.1-12.7-10-14.1
				c-7-1.4-12.7,2.2-15.3,8.6c-1,2.4,2.9,3.4,3.9,1.1c1.7-4.2,5.4-6.5,9.9-5.9c3.8,0.5,6.8,2.6,7.5,6.6c1,5.7-2.8,11.4-8.6,12.4
				c-6.6,1.2-12.6-5.2-9.5-11.6C263.7,223.7,260.3,221.6,259.1,223.9L259.1,223.9z"/>
		</g>
		<g>
			<path class="st4" d="M356.1,223.9c-3.5,7.1,0.5,15.8,8.3,17.5c8.3,1.8,16.2-4.4,17.2-12.6c0.9-7-3.1-12.7-10-14.1
				c-7-1.4-12.7,2.2-15.3,8.6c-1,2.4,2.9,3.4,3.9,1.1c1.7-4.2,5.4-6.5,9.9-5.9c3.8,0.5,6.8,2.6,7.5,6.6c1,5.7-2.8,11.4-8.6,12.4
				c-6.6,1.2-12.6-5.2-9.5-11.6C360.7,223.7,357.3,221.6,356.1,223.9L356.1,223.9z"/>
		</g>
		<g>
			<path class="st4" d="M261.1,283.9c-3.5,7.1,0.5,15.8,8.3,17.5c8.3,1.8,16.2-4.4,17.2-12.6c0.9-7-3.1-12.7-10-14.1
				c-7-1.4-12.7,2.2-15.3,8.6c-1,2.4,2.9,3.4,3.9,1.1c1.7-4.2,5.4-6.5,9.9-5.9c3.8,0.5,6.8,2.6,7.5,6.6c1,5.7-2.8,11.4-8.6,12.4
				c-6.6,1.2-12.6-5.2-9.5-11.6C265.7,283.7,262.3,281.6,261.1,283.9L261.1,283.9z"/>
		</g>
		<g>
			<path class="st4" d="M358.1,283.9c-3.5,7.1,0.5,15.8,8.3,17.5c8.3,1.8,16.2-4.4,17.2-12.6c0.9-7-3.1-12.7-10-14.1
				c-7-1.4-12.7,2.2-15.3,8.6c-1,2.4,2.9,3.4,3.9,1.1c1.7-4.2,5.4-6.5,9.9-5.9c3.8,0.5,6.8,2.6,7.5,6.6c1,5.7-2.8,11.4-8.6,12.4
				c-6.6,1.2-12.6-5.2-9.5-11.6C362.7,283.7,359.3,281.6,358.1,283.9L358.1,283.9z"/>
		</g>
		<g>
			<path class="st4" d="M262.1,347.9c-3.5,7.1,0.5,15.8,8.3,17.5c8.3,1.8,16.2-4.4,17.2-12.6c0.9-7-3.1-12.7-10-14.1
				c-7-1.4-12.7,2.2-15.3,8.6c-1,2.4,2.9,3.4,3.9,1.1c1.7-4.2,5.4-6.5,9.9-5.9c3.8,0.5,6.8,2.6,7.5,6.6c1,5.7-2.8,11.4-8.6,12.4
				c-6.6,1.2-12.6-5.2-9.5-11.6C266.7,347.7,263.3,345.6,262.1,347.9L262.1,347.9z"/>
		</g>
		<g>
			<path class="st4" d="M359.1,347.9c-3.5,7.1,0.5,15.8,8.3,17.5c8.3,1.8,16.2-4.4,17.2-12.6c0.9-7-3.1-12.7-10-14.1
				c-7-1.4-12.7,2.2-15.3,8.6c-1,2.4,2.9,3.4,3.9,1.1c1.7-4.2,5.4-6.5,9.9-5.9c3.8,0.5,6.8,2.6,7.5,6.6c1,5.7-2.8,11.4-8.6,12.4
				c-6.6,1.2-12.6-5.2-9.5-11.6C363.7,347.7,360.3,345.6,359.1,347.9L359.1,347.9z"/>
		</g>
		<g>
			<path class="st3" d="M393.7,183.7c1.8,6.8,2.1,14.2,2.7,21.2c1,12.2,1.7,24.4,2.2,36.6c1.4,29.1,2.3,58.3,2.6,87.4
				c0.1,12.5,0.2,25-0.1,37.5c-0.1,2.6,3.9,2.6,4,0c0.7-25.3,0-50.8-0.7-76.1c-0.8-27.6-1.7-55.3-3.9-82.8c-0.6-8.2-0.9-16.9-3-24.8
				C396.9,180.1,393.1,181.2,393.7,183.7L393.7,183.7z"/>
		</g>
		<g>
			<path class="st3" d="M223.1,280.2c1.3-35.6,3.1-71.3,8.8-106.6c0.4-2.5-3.4-3.6-3.9-1.1c-5.8,35.6-7.7,71.6-9,107.6
				C219,282.8,223,282.8,223.1,280.2L223.1,280.2z"/>
		</g>
		<g>
			<path class="st3" d="M221.3,335.1c0.1,4.7,0.1,9.3-0.1,14c-0.2,4.2,0.3,10.1-1.5,13.9c-0.5,1.1,0.8,0.3-0.5,0.6
				c-0.8,0.2-2-0.3-2.8-0.4c-3-0.5-6-1.3-9-2c-20-4.8-39.8-10.1-59.9-14c-11-2.1-22.2-4-33.4-4.4c-2.6-0.1-2.6,3.9,0,4
				c23.3,0.7,46.5,7,69,12.5c9.2,2.3,18.4,4.7,27.6,6.8c3.2,0.7,9.7,3.3,12.1-0.1c2.3-3.1,2.1-9,2.3-12.6c0.4-6.1,0.4-12.2,0.3-18.3
				C225.3,332.5,221.3,332.5,221.3,335.1L221.3,335.1z"/>
		</g>
		<g>
			<path class="st3" d="M56.8,217.2c-7.3,15.1-12.4,31.5-17.3,47.5c-4.4,14.2-9.8,29.5-10.8,44.4c-0.2,2.6,3.8,2.6,4,0
				c1-14.6,6.4-29.5,10.7-43.4c4.8-15.7,9.7-31.8,16.9-46.5C61.3,216.9,57.9,214.9,56.8,217.2L56.8,217.2z"/>
		</g>
		<g>
			<path class="st3" d="M57.9,218.7c18.6,37.7,27.9,80.5,34.6,121.7c0.4,2.5,4.3,1.5,3.9-1.1c-6.7-41.6-16.2-84.7-35-122.7
				C60.2,214.4,56.7,216.4,57.9,218.7L57.9,218.7z"/>
		</g>
		<g>
			<path class="st3" d="M67.5,232.5c6.6-4.8,14-9,21.6-12.2c2.3-1,1.3-4.9-1.1-3.9c-7.9,3.3-15.6,7.5-22.5,12.6
				C63.4,230.6,65.4,234,67.5,232.5L67.5,232.5z"/>
		</g>
		<g>
			<path class="st3" d="M212.9,116.1c3,6.8,7.7,12.5,13.8,16.7c2.1,1.5,4.1-2,2-3.5c-5.5-3.9-9.7-9.1-12.4-15.3
				C215.3,111.7,211.8,113.7,212.9,116.1L212.9,116.1z"/>
		</g>
		<g>
			<path class="st3" d="M218.5,110.1c2.7,6.7,7.2,12.1,13.2,16c2.2,1.4,4.2-2,2-3.5c-5.1-3.3-9.1-8-11.4-13.7
				C221.4,106.7,217.6,107.8,218.5,110.1L218.5,110.1z"/>
		</g>
		<g>
			<path class="st3" d="M410.4,113.2c-2.9,6.2-7.1,11.5-12.7,15.6c-2.1,1.5-0.1,5,2,3.5c6.1-4.4,11-10.1,14.1-17
				C414.9,112.9,411.5,110.8,410.4,113.2L410.4,113.2z"/>
		</g>
		<g>
			<path class="st3" d="M413,124.5c-2.3,3.1-5.4,5.5-8.8,7.2c-2.3,1.1-0.3,4.6,2,3.5c4.1-2,7.5-5,10.3-8.6
				C418,124.5,414.6,122.5,413,124.5L413,124.5z"/>
		</g>
	</g>
</g>
</svg>
