<?xml version="1.0" encoding="utf-8"?>
<!-- Generator: Adobe Illustrator 19.2.0, SVG Export Plug-In . SVG Version: 6.00 Build 0)  -->
<svg version="1.1" id="Layer_1" xmlns="http://www.w3.org/2000/svg" xmlns:xlink="http://www.w3.org/1999/xlink" x="0px" y="0px"
	 viewBox="0 0 520 330" style="enable-background:new 0 0 520 330;" xml:space="preserve">
<style type="text/css">
	.st0{fill:#EFEFEF;}
	.st1{fill:#BBBBBC;}
	.st2{fill:#7A7B7B;}
</style>
<g>
	<path class="st0" d="M483.5,172.9c-6.9-5.2-47.4-28.5-73.2-43.4c0.3,0,0.6,0.1,0.9,0.1c0.5,0,0.8-0.1,1.1-0.3c2.6-1.5,3.3-6.7,3-11
		c-0.2-4.2-1.6-9.8-6.7-13.1c-1.5-0.9-3-1.6-4.7-2.4c-1.6-0.7-3.3-1.5-4.8-2.5c-4.4-2.7-4.8-6.2-5.2-9.7c-0.1-0.8-0.2-1.7-0.4-2.5
		c-1.1-6.1-3.9-11.3-8-15.1c-3-2.8-6.8-4.9-11.3-6.4c-1.6-0.5-3.3-0.9-5.2-1.3c-0.2,0-0.6-0.1-1-0.1c-0.6,0-1.3-0.1-2-0.2l-2.7-0.6
		l1.3-2.3c0-0.2,0.1-0.7,0-2l0-0.2c-0.1-2-0.3-4-0.7-5.9c-0.9-4.2-2.6-8.2-5.1-11.6c-4.3-5.9-10.6-9.8-17.8-10.9l-0.1,0l-0.1,0
		c-0.1,0-0.1,0-0.1,0c0,0,0,0,0,0l0,0l0,0.1l0.1,0.2l0,0.2c1.2,5.7,1.1,11.4,0.5,16.8l-0.3-0.2c0,0,0.1,0.4,0.2,1
		c-0.8,6.1-2.3,11.6-3.7,16c-3.6,11.5-9,23.6-17.1,37.9c-0.8,1.5-1.7,2.9-2.5,4.4c-11.4,27.6-46.9,67.3-49.2,66.5
		c-9.6-3.4-39.7-33.4-48.9-43.2c-3.3-4-6.7-8.3-10.1-12.8c-13.8-18.5-28.9-40.5-35.2-64.5c-2-7.5-1.4-14.5-0.9-21.9
		c0.1-0.8,0.1-1.6,0.2-2.4c0,0-0.1,0-0.1,0c-0.4,0-0.8,0-1.2,0c-12,0-26.6,7.2-42.2,20.7c-5.1,4.4-10.6,9.8-13.1,16
		c-2,5,0.2,10.4,2.3,15.7c0.4,1,0.8,2,1.1,3c0.1,0.2,0.2,0.4,0.3,0.7c1.1,2.4,1.7,4,1.1,5.4l-1.9,1.2c0.4,0,0.7-0.1,0.7-0.1
		c-0.5,0.2-2.7,1.7-3.3,2.1c-2.2,2.2-3.6,5.2-4,8.5c-0.3,2.5,0,4.9,0.3,7.5l0.1,1.2c0,0.3,0,0.7,0,1.1c0,0.3,0,0.8,0,0.9
		c-0.1-0.5-0.1,1.9-0.1,1.9c-0.8,0.9-2.1,1.6-3.6,2.3c-0.9,0.5-2,1-2.4,1.4c-1.9,1.8-3.6,5.2-3.3,8.1c0,0.2,0.1,0.5,0.1,0.7
		c-21.2,10.9-54.5,29.5-77.1,49C7,195.3,3.7,229.5,31.7,250.7c83.8,63.6,328,89.2,449.3,8.8C509.4,240.7,516.8,198,483.5,172.9z"/>
	<g>
		<path class="st1" d="M118.2,63c0,0,8-2.1,26.2,8.8c33.8,20.4,63.2,67,63.2,67s29.4,22.9,55.4,40.5c3.5,2.4-1.6,2.1-1.6,2.1
			l-25.8-15.9l-31.9-22l-10.1-14.1l-11.4-11.9l-13-10.8l-13.5-7.1c0,0-11.5-4.5-12.1-4.7s-13.8-3.5-13.8-3.5l-7.7-1.8l-4.6-12.7
			L118.2,63z"/>
		<path class="st1" d="M115.4,114.9c-0.8,1.7,7.5-0.9,7.5-0.9h12.8l15.6,2.2l14.6,6.3l28.1,13.7c0,0,7.3,5.4,6,4.1
			C168.4,108.2,123.9,95.6,115.4,114.9z"/>
		<path class="st1" d="M121.4,132.3c-3.4-1.8,9.2,11.2,9.2,11.2l14.7,9.4l21.2,12.5l40.4,15.2l17.1,3c0,0,15,3,12.1,1.9
			C182.4,165.4,161.7,153.5,121.4,132.3z"/>
		<path class="st1" d="M212.3,145.5c-0.1,0.2-0.1,0.4-0.1,0.6c0.8,35.6-4.1,70.8-5.7,106.2c-0.4,7.7-0.5,15.4-0.2,23.1
			c0.2,4.6-0.7,12.8,2.5,16.7c0,0.2-0.1,0.3,0,0.5c0.3,2.2,0.3,4.5,0.3,6.8c0,1.5-0.1,2.9,1.7,3.2c1.1,0.2,3.3,0.6,4.4,0
			c1.2-0.7,0.9-2.7,1-3.8c0.2-1.9,0.4-3.7,0.6-5.6c0-0.1,0-0.1,0-0.2c0,0,0,0,0,0c1-1.4,0.6-3.7,0.7-5.3
			c1.2-37.5,9.3-125.9,0.3-144.2C216.8,141.7,213.1,142.3,212.3,145.5z"/>
		<path class="st1" d="M321.9,292.5c0-0.4-0.1-0.6-0.3-0.9c3.2-3.5,1.9-11.2,2-15.4c0.2-25.6,0.1-51.2-0.2-76.8
			c-0.1-13.6-0.3-27.2-0.7-40.8c-0.1-3.8,0.4-8.5-0.5-12.2c-1.1-4.6-3.9-5.3-4-5.2c-4.2,4.2-7.6,90.8-7.4,132.9
			c0,4.7-1.6,14.8,2.6,18.1c0.1,2.7,0.3,5.4,0.6,8c0.2,2.2,1.3,2.6,3.4,2.5c1.5-0.1,4.2-0.2,4.6-2c0.3-1.2,0-2.8,0-4
			C322,295.4,322,294,321.9,292.5z"/>
		<path class="st1" d="M269.7,185.5c46.4-27.5,79.5-87.8,91.5-138.7c0.9-4,3.3,16.1,3.3,16.1l-3.9,22.4l-9.5,24l-18.6,31.3l-21.2,24
			l-16.2,12.7l-14.9,7.2c0,0-5.5,1.7-6.5,2.1S268.9,186,269.7,185.5z"/>
		<path class="st1" d="M316.8,155.2c0.1-0.2,0.2-0.4,0.3-0.6c1.1-2.2,3.1-3.7,5.4-4.3c0.7-0.5,1.4-1,2.1-1.5c0.4-0.3,0.7-0.7,0.9-1
			c0.2-0.4,0.4-0.8,0.6-1.2c0.8-1.3,1.9-2.4,3.1-3.2c-0.1-1.6-0.2-3.1-0.2-4.3c-0.2-2.6-2.3-4.4-5.2-4.4c-2.1,0-4.2,0.9-5.6,2.2
			c-1,1-1.5,2.3-1.5,3.6c0,1.2-0.2,6.8-0.4,15.3C316.4,155.7,316.6,155.4,316.8,155.2z"/>
		<path class="st1" d="M319.7,140.7c-0.1-2.8,6.1-4.1,6.3-1.3c1.5,22.1,1.8,132.9,1.2,146.4c-0.2,4.7-9.4,4.9-9.6,0.2
			C316.1,258,319.7,140.7,319.7,140.7z"/>
		<path class="st1" d="M394.6,95.9c0,0-22.3,4.1-27.6,11.4c-3.3,4.4-0.7,9.7,2.2,7.5c11.8-8.7,27.5-14.1,27.5-14.1L394.6,95.9z"/>
		<path class="st1" d="M414.1,114.8c-40.1-8.6-94.2,48.5-126.7,68.3c-1.1,0.7-5,1.9-5,1.9l3.9,1.7l8.6-0.6l8.1-5.7l32.6-24.4
			l12.6-9.1l13-7.6l23.2-6.7l15.5-4.2l12.1,0.6l2.7-2.6C414.8,126.3,416.9,115.4,414.1,114.8z"/>
		<path class="st1" d="M392,130.9c-19.2,34.6-94.2,54.9-94.2,54.9l9.6-0.3l33.3-7.3l26.1-12.7l10.2-7.9l9.7-10.1l7.9-9.7
			C394.6,137.8,392.9,129.3,392,130.9z"/>
	</g>
	<path class="st1" d="M218.3,151.4c-0.5-8.7-1.4-14.5-2.9-17.1l-0.5-0.8l-0.9-0.4c-0.8-0.4-1.6-0.5-2.5-0.5c-1.7,0-3.5,0.7-4.7,2
		c-1.1,1.1-1.6,2.5-1.6,4c0,1.8,0.1,3.6,0.1,5.3C211.2,144.2,215.5,147.1,218.3,151.4z"/>
	<path class="st1" d="M208.3,138.3c-0.1-2,2.7-3.5,4.5-2.6c7.5,13.3-2.3,138-2.2,153.4c0,2.4-6.9,3.1-7.7-3.9
		C198.7,243.6,209.8,194.5,208.3,138.3z"/>
	<g>
		<g>
			<path class="st2" d="M261.4,187.7c13-13.2,24.3-28.5,35.2-43.5c16.7-23.1,32.8-48.1,42-75.3c4-12,6.7-25.2,4-37.7
				c-0.5-2.5-4.4-1.4-3.9,1.1c2.4,11,0.2,22.5-3.2,33.1c-4.1,13.1-10.2,25.6-16.9,37.5c-12.9,22.9-28.4,44.5-45,64.8
				c-4.8,5.9-9.6,11.8-14.9,17.2C256.8,186.7,259.6,189.5,261.4,187.7L261.4,187.7z"/>
		</g>
		<g>
			<path class="st2" d="M340,33.6c7.4,1.1,13.8,5.1,17.9,11.4c2.1,3.2,3.4,6.8,4.1,10.5c0.4,2.2,0.6,4.5,0.5,6.7
				c0,1-0.4,2.4,0.2,3.4c1,1.5,3.6,1.3,5.2,1.6c3.8,0.7,7.5,1.8,10.9,3.6c4.8,2.6,8.6,6.5,10.8,11.6c2.3,5.4,0.8,12.7,5,17.1
				c4.3,4.4,11.4,4.9,15.5,9.4c2.2,2.5,3,6,3.2,9.2c0.1,2.2,0.3,7-1.5,8.7c-1.4,1.3-4.7,0.1-6.8,0.2c-3.7,0-7.4,0.5-11.1,1.2
				c-11.1,1.9-22,5.2-32.6,8.8c-2.4,0.8-1.4,4.7,1.1,3.9c10.7-3.6,21.5-6.9,32.6-8.8c4-0.7,8.1-1.3,12.2-1c2.1,0.2,4.1,1.1,6.1,0
				c3.9-2.2,4.3-9,4-12.9c-0.3-5.9-2.5-11.4-7.7-14.7c-3-1.9-6.5-3-9.6-4.9c-4.4-2.7-3.8-6.3-4.7-10.8c-1.1-6.1-4-11.9-8.6-16.2
				c-3.4-3.2-7.6-5.4-12.1-6.8c-1.8-0.6-3.6-1-5.5-1.4c-1-0.2-2.9-0.1-3.8-0.6c-0.1,0-0.3,0-0.3-0.1c1.9,2.3,1.3-2.6,1.3-2.8
				c-0.1-2.1-0.4-4.2-0.8-6.2c-0.9-4.4-2.7-8.7-5.4-12.4c-4.6-6.4-11.5-10.5-19.2-11.7C338.6,29.3,337.5,33.2,340,33.6L340,33.6z"/>
		</g>
		<g>
			<path class="st2" d="M269.6,173c-23.4-13.1-42.4-34.3-58.4-55.5c-14.2-18.9-28.7-40.6-34.8-63.8c-2.1-8.1-1.2-15.6-0.6-23.8
				c0.1-1.1-1-2-2-2c-16.2-0.7-33.2,11.1-44.8,21.2c-5.3,4.6-11,10.1-13.6,16.7c-2.7,6.7,1.1,13.8,3.4,20.1c0.3,0.8,1.9,3.8,1.5,4.7
				c0.2-0.4-3.8,2.3-3.9,2.5c-2.7,2.7-4.2,6.1-4.6,9.8c-0.4,3.1,0.1,6.2,0.5,9.3c0.1,0.8-0.1,3.3,0.6,2.2c-0.9,1.3-4.6,2.5-6,3.8
				c-3.7,3.6-6.2,11.3-0.8,14.7c2.9,1.8,7.3,0.4,10.5,0.2c23.1-1.8,46.9,4.4,65.3,18.7c2,1.6,4.9-1.2,2.8-2.8
				c-15.5-12-34-18.6-53.5-19.9c-5.8-0.4-11.7-0.3-17.5,0.3c-1.1,0.1-2.4,0.5-3.5,0.5c-3.8-0.1-3.6-4.1-2.1-6.7
				c1.9-3.3,6.5-3.6,8.1-6.6c0.9-1.6,0.3-3.7,0-5.4c-0.4-3.4-0.9-6.8,0.1-10.1c0.6-2.2,1.8-4,3.5-5.5c1.2-1.1,3.5-1.8,4.3-3.3
				c0.9-1.8-0.2-4.3-0.8-6c-1.3-3.8-3-7.6-4-11.5c-1.9-7,2-12,6.6-17c6.6-7.1,14.5-12.9,22.9-17.7c7.5-4.3,16.3-8.5,25.2-8.2
				c-0.7-0.7-1.3-1.3-2-2c-0.5,7.2-1.5,14.2-0.1,21.3c2,10.2,6.5,20,11.3,29.2c12.9,25,30.1,48.3,49.8,68.4
				c10.4,10.5,21.8,20.4,34.7,27.6C269.8,177.7,271.8,174.2,269.6,173L269.6,173z"/>
		</g>
		<g>
			<path class="st2" d="M116.8,132.3c17.6,18.1,39.8,31.1,63.1,40.5c23,9.3,47.9,15.4,72.8,16.1c31.4,0.9,63.9,0.9,93.6-10.7
				c10.8-4.2,21-9.8,29.9-17.2c4.7-3.9,9-8.3,12.8-13c3.5-4.4,8.4-9.6,7.5-15.6c-0.4-2.5-4.3-1.5-3.9,1.1
				c0.8,5.1-7.1,12.7-10.2,16.1c-3.8,4.2-8,8-12.5,11.3c-8,6-17,10.6-26.3,14.1c-16.9,6.3-34.8,9-52.8,9.8c-11,0.5-22,0.1-33,0.1
				c-23.2,0.1-46.5-5-68.3-12.8c-25.7-9.2-50.6-23-69.7-42.7C117.8,127.6,115,130.5,116.8,132.3L116.8,132.3z"/>
		</g>
		<g>
			<path class="st2" d="M278.6,187.5c40.5-16.5,69.3-58.6,82.5-99c2.5-7.7,4.7-15.8,4.8-24c0-1.9-3-1.9-3,0
				c-0.1,15.8-7.2,32-14,45.9c-9.6,19.5-22.3,37.9-38.3,52.7c-9.6,8.9-20.6,16.5-32.8,21.4C276.1,185.4,276.9,188.3,278.6,187.5
				L278.6,187.5z"/>
		</g>
		<g>
			<path class="st2" d="M186.7,156c14.4,15.2,35.7,24.2,54.8,31.8c2.4,1,3.4-2.9,1.1-3.9c-18.4-7.4-39.2-16.2-53-30.8
				C187.7,151.3,184.9,154.2,186.7,156L186.7,156z"/>
		</g>
		<g>
			<path class="st2" d="M287.4,188.1c13.1-2.3,24.9-11.9,35.2-19.8c9.5-7.4,18.7-17,29.4-22.6c1.7-0.9,0.2-3.5-1.5-2.6
				c-10,5.3-18.5,14.1-27.3,21c-10.6,8.3-22.9,18.7-36.6,21.2C284.7,185.5,285.5,188.4,287.4,188.1L287.4,188.1z"/>
		</g>
		<g>
			<path class="st2" d="M122.1,92.9c33.5,0.3,63.3,24.2,80.3,51.4c1,1.6,3.6,0.1,2.6-1.5c-17.6-28.2-48.3-52.6-82.9-52.9
				C120.1,89.8,120.1,92.8,122.1,92.9L122.1,92.9z"/>
		</g>
		<g>
			<path class="st0" d="M319.7,140.7c-0.1-2.8,6.1-4.1,6.3-1.3c1.5,22.1,1.8,132.9,1.2,146.4c-0.2,4.7-9.4,4.9-9.6,0.2
				C316.1,258,319.7,140.7,319.7,140.7z"/>
			<g>
				<path class="st2" d="M321.1,141.1c0.5-2.9,2.9-1.5,3.4-0.4c0.2,0.5,0.1,1.7,0.1,2.2c0.1,1.7,0.1,3.4,0.2,5.1
					c0.2,4.5,0.3,9,0.4,13.4c0.2,11.8,0.4,23.6,0.5,35.4c0.2,23.9,0.3,47.9,0.2,71.8c0,3.8-0.1,7.5-0.1,11.3c0,3,0.8,7.9-3.5,8
					c-4.7,0.1-3.5-7.4-3.5-10.8c-0.1-4.6-0.1-9.2-0.1-13.8c0.1-24.3,0.6-48.7,1.2-73c0.4-16.5,0.8-33.1,1.3-49.6
					c0.1-1.9-2.9-1.9-3,0c-1.3,43.4-2.7,86.9-2.5,130.3c0,6.2-2.6,21.1,7.5,19.8c7.7-1,5.6-12.2,5.7-17.7
					c0.2-26.4,0.1-52.7-0.2-79.1c-0.1-14-0.3-28-0.7-42c-0.1-3.9,0.4-8.7-0.5-12.6c-1.1-4.7-8.5-3.5-9.2,0.9
					C317.9,142.2,320.8,143,321.1,141.1z"/>
			</g>
		</g>
		<g>
			<path class="st2" d="M263.4,180c-6.9-1.4-13.3-6.4-19-10.2c-9.4-6.3-18.5-13-27.8-19.4c-20.8-14.3-43-28.9-67.6-35.5
				c-11.7-3.1-24.1-4.1-35.7-0.3c-1.8,0.6-1,3.5,0.8,2.9c23-7.5,48,3.7,67.9,14.7c21.1,11.6,40.3,26.2,60.2,39.7
				c6.1,4.1,13,9.5,20.4,11C264.5,183.2,265.3,180.3,263.4,180L263.4,180z"/>
		</g>
		<g>
			<path class="st2" d="M123,71.4c7.2-0.1,13.8,1.9,19.8,5.9c1.6,1.1,3.1-1.5,1.5-2.6c-6.3-4.3-13.6-6.5-21.3-6.3
				C121.1,68.4,121,71.4,123,71.4L123,71.4z"/>
		</g>
		<g>
			<path class="st0" d="M208.3,138.3c-0.1-2,2.7-3.5,4.5-2.6c7.5,13.3-2.3,138-2.2,153.4c0,2.4-6.9,3.1-7.7-3.9
				C198.7,243.6,209.8,194.5,208.3,138.3z"/>
			<g>
				<path class="st2" d="M209.8,138.7c0.2-0.8,1.5-2.1,2.1-1.6c0.2,0.2,0.2,0.8,0.4,1.1c0.4,0.8,0.5,2,0.6,2.9
					c0.5,2.6,0.7,5.3,0.8,7.9c0.5,7.3,0.5,14.6,0.5,21.9c-0.1,19.1-1,38.2-1.9,57.2c-0.8,16.5-1.8,33-2.7,49.5
					c-0.1,2.4-0.2,4.8-0.3,7.2c-0.1,2,0.5,6-2.8,3.8c-2.8-1.9-2.3-7.7-2.5-10.8c-0.2-3.5-0.3-7-0.4-10.5c-0.1-7,0.1-14.1,0.5-21.1
					c1.8-36,6.6-71.8,5.8-107.9c0-1.9-3-1.9-3,0c0.8,36.9-4.2,73.5-5.9,110.3c-0.4,8-0.5,16-0.2,24c0.2,5-0.8,13.8,2.9,17.7
					c1.8,1.9,6,3,7.9,0.5c1.1-1.4,0.7-3.9,0.7-5.5c1.3-38.9,4.9-77.8,4.9-116.8c0-8.7,0-17.5-1.1-26.2c-0.3-2.1-0.4-4.9-1.6-6.7
					c-2.1-3.4-6.9-1.2-7.6,2.3C206.5,139.8,209.4,140.6,209.8,138.7z"/>
			</g>
		</g>
		<g>
			<path class="st2" d="M134.3,67c6.2,2.3,11.6,6,16,10.9c1.3,1.4,3.4-0.7,2.1-2.1c-4.8-5.3-10.6-9.2-17.3-11.7
				C133.3,63.5,132.5,66.4,134.3,67L134.3,67z"/>
		</g>
		<g>
			<path class="st2" d="M387.4,102.2c-4,1.1-7.7,2.9-11.2,5.2c-1.6,1.1-0.1,3.7,1.5,2.6c3.2-2.2,6.7-3.8,10.5-4.9
				C390,104.5,389.2,101.7,387.4,102.2L387.4,102.2z"/>
		</g>
		<g>
			<path class="st2" d="M387.2,97.4c-3.6,0.1-6.8,1.4-9.5,3.8c-1.5,1.3,0.7,3.4,2.1,2.1c2.1-1.8,4.6-2.8,7.4-2.9
				C389.2,100.4,389.2,97.4,387.2,97.4L387.2,97.4z"/>
		</g>
		<g>
			<path class="st2" d="M411.1,131.1c23.8,13.1,49.2,26.2,69.8,44.2c1.9,1.7,4.8-1.1,2.8-2.8c-20.8-18.2-46.4-31.6-70.6-44.8
				C410.8,126.4,408.8,129.9,411.1,131.1L411.1,131.1z"/>
		</g>
		<g>
			<path class="st2" d="M32.2,176.5c23.4-17.2,48.3-32.2,73.8-46c2.3-1.2,0.2-4.7-2-3.5c-25.5,13.8-50.4,28.9-73.8,46
				C28.1,174.5,30.1,178,32.2,176.5L32.2,176.5z"/>
		</g>
		<g>
			<path class="st2" d="M318.4,289.6c0.1,2.8,0.3,5.6,0.6,8.4c0.2,2.3,1.3,2.7,3.5,2.6c1.6-0.1,4.3-0.2,4.7-2.1c0.3-1.3,0-2.8,0-4.1
				c0-1.5-0.1-3-0.1-4.5c-0.1-1.9-3.1-1.9-3,0c0,1.4,0.1,2.7,0.1,4.1c0,1.3,0.3,2.8,0,4c0.2-0.3,0.5-0.6,0.7-0.9
				c-0.9,0.5-2.9,0.7-3.9,0.4c0.3,0.3,0.7,0.7,1,1c-0.5-1.3-0.4-3.1-0.5-4.5c-0.1-1.5-0.2-3-0.3-4.5
				C321.3,287.7,318.3,287.7,318.4,289.6L318.4,289.6z"/>
		</g>
		<g>
			<path class="st2" d="M203.3,290.5c0.3,2.3,0.3,4.7,0.3,7.1c0,1.5-0.1,3,1.7,3.3c1.2,0.2,3.5,0.7,4.6,0c1.2-0.7,0.9-2.8,1-3.9
				c0.2-1.9,0.4-3.9,0.6-5.8c0.2-1.9-2.8-1.9-3,0c-0.2,1.4-0.3,2.7-0.5,4.1c-0.1,1.2,0,2.7-0.3,3.9c0.3-0.3,0.7-0.7,1-1
				c0.5-0.1-0.4,0-0.6-0.1c-0.4,0-0.7,0-1.1-0.1c-0.4,0-0.7-0.1-1-0.1c-0.1,0-1.1-0.1-0.5,0c0.3,0.3,0.7,0.7,1,1
				c0.2,0.5,0-0.5,0-0.8c0-0.8,0-1.6,0-2.4c0-1.7-0.1-3.5-0.3-5.2C206,288.6,203,288.6,203.3,290.5L203.3,290.5z"/>
		</g>
	</g>
</g>
</svg>
