<?xml version="1.0" encoding="utf-8"?>
<!-- Generator: Adobe Illustrator 19.2.0, SVG Export Plug-In . SVG Version: 6.00 Build 0)  -->
<svg version="1.1" id="Layer_1" xmlns="http://www.w3.org/2000/svg" xmlns:xlink="http://www.w3.org/1999/xlink" x="0px" y="0px"
	 viewBox="0 0 26 26" style="enable-background:new 0 0 26 26;" xml:space="preserve">
<style type="text/css">
	.st0{fill:#AFAFAF;}
</style>
<g>
	<path class="st0" d="M13,0C5.8,0,0,5.8,0,13s5.8,13,13,13s13-5.8,13-13S20.2,0,13,0z M24,13c0,2.7-1,5.1-2.5,7L6,4.5
		C7.9,2.9,10.4,2,13,2C19.1,2,24,6.9,24,13z M2,13c0-2.7,1-5.1,2.5-7L20,21.4c-1.9,1.6-4.4,2.5-7,2.5C6.9,24,2,19.1,2,13z"/>
</g>
</svg>
