<?xml version="1.0" encoding="utf-8"?>
<!-- Generator: Adobe Illustrator 19.2.0, SVG Export Plug-In . SVG Version: 6.00 Build 0)  -->
<svg version="1.1" id="Layer_1" xmlns="http://www.w3.org/2000/svg" xmlns:xlink="http://www.w3.org/1999/xlink" x="0px" y="0px"
	 viewBox="0 0 194.931 51.319" enable-background="new 0 0 194.931 51.319" xml:space="preserve">
<g>
	<g>
		<path fill-rule="evenodd" clip-rule="evenodd" fill="#F63E5B" d="M40.076,0.09L22.042,26.522V0.09H0l9.017,13.488v34.969h13.025
			L55.105,0.09H40.076z M41.579,25.053l-7.514,11.013l8.516,12.482H57.61L41.579,25.053z"/>
	</g>
	<g>
		<path fill="#36516E" d="M85.734,8.12h-7.56l-6.68,7.12V0h-6v29.68h6v-6.2l1.96-2.04l5.48,8.24h7.12l-8.52-12.84L85.734,8.12z
			 M102.293,9.76c-1.654-1.306-3.787-1.96-6.4-1.96c-3.627,0-6.854,1.027-9.68,3.08l2.68,3.88c0.8-0.613,1.78-1.126,2.94-1.54
			c1.16-0.413,2.26-0.62,3.3-0.62c2.426,0,3.64,1.147,3.64,3.44v0.12h-4.48c-2.774,0-4.96,0.547-6.56,1.64
			c-1.6,1.094-2.4,2.74-2.4,4.94c0,2.2,0.773,3.96,2.32,5.28c1.546,1.32,3.46,1.98,5.74,1.98c2.28,0,4.193-0.973,5.74-2.92v2.6h5.64
			V15.96C104.773,13.134,103.946,11.067,102.293,9.76z M98.733,21.48c0,1.094-0.407,1.967-1.22,2.62
			c-0.814,0.654-1.754,0.98-2.82,0.98c-1.067,0-1.887-0.206-2.46-0.62c-0.574-0.413-0.86-1.006-0.86-1.78c0-1.493,1.2-2.24,3.6-2.24
			h3.76V21.48z M121.293,8.12l-5.36,13.56l-5.36-13.56h-6.24l8.52,21.56h6.16l8.52-21.56H121.293z M137.832,7.8
			c-3.267,0-5.98,1.074-8.14,3.22c-2.16,2.147-3.24,4.78-3.24,7.9c0,3.12,1.08,5.747,3.24,7.88c2.16,2.134,4.873,3.2,8.14,3.2
			c3.266,0,5.98-1.066,8.14-3.2c2.16-2.133,3.24-4.76,3.24-7.88c0-3.12-1.08-5.753-3.24-7.9C143.812,8.874,141.099,7.8,137.832,7.8z
			 M141.672,23.22c-1,1.107-2.28,1.66-3.84,1.66s-2.84-0.553-3.84-1.66c-1-1.106-1.5-2.54-1.5-4.3c0-1.76,0.5-3.2,1.5-4.32
			c1-1.12,2.28-1.68,3.84-1.68s2.84,0.56,3.84,1.68c1,1.12,1.5,2.56,1.5,4.32C143.172,20.68,142.672,22.114,141.672,23.22z
			 M161.392,7.8c-3.267,0-5.98,1.074-8.14,3.22c-2.16,2.147-3.24,4.78-3.24,7.9c0,3.12,1.08,5.747,3.24,7.88
			c2.16,2.134,4.873,3.2,8.14,3.2c3.266,0,5.98-1.066,8.14-3.2c2.16-2.133,3.24-4.76,3.24-7.88c0-3.12-1.08-5.753-3.24-7.9
			C167.372,8.874,164.658,7.8,161.392,7.8z M165.232,23.22c-1,1.107-2.28,1.66-3.84,1.66s-2.84-0.553-3.84-1.66
			c-1-1.106-1.5-2.54-1.5-4.3c0-1.76,0.5-3.2,1.5-4.32c1-1.12,2.28-1.68,3.84-1.68s2.84,0.56,3.84,1.68c1,1.12,1.5,2.56,1.5,4.32
			C166.732,20.68,166.232,22.114,165.232,23.22z M192.631,10.2c-1.534-1.6-3.434-2.4-5.7-2.4c-2.267,0-4.307,0.92-6.12,2.76v-2.4h-6
			v21.52h6v-12c0-1.68,0.446-2.953,1.34-3.82c0.893-0.866,1.94-1.3,3.14-1.3c2.426,0,3.64,1.654,3.64,4.96v12.16h6V16.6
			C194.931,13.934,194.164,11.8,192.631,10.2z"/>
	</g>
	<g>
		<path fill="#B9BFC1" d="M70.269,47.623c-0.596,0-1.098-0.204-1.506-0.612c-0.408-0.408-0.612-0.906-0.612-1.494
			s0.206-1.068,0.618-1.44s0.898-0.558,1.458-0.558c0.56,0,1.116,0.24,1.668,0.72l0.792-0.972c-0.664-0.664-1.476-0.996-2.436-0.996
			c-0.96,0-1.774,0.306-2.442,0.918c-0.668,0.612-1.002,1.406-1.002,2.382c0,0.976,0.32,1.766,0.96,2.37
			c0.64,0.604,1.404,0.906,2.292,0.906c1.016,0,1.912-0.392,2.688-1.176l-0.792-0.864C71.427,47.351,70.865,47.623,70.269,47.623z
			 M76.365,42.667c-0.372,0.256-0.666,0.584-0.882,0.984v-1.284h-1.344v6.384h1.344v-2.736c0-0.728,0.168-1.308,0.504-1.74
			s0.836-0.648,1.5-0.648h0.072l-0.012-1.356C77.13,42.279,76.736,42.411,76.365,42.667z M81.459,42.271
			c-0.984,0-1.864,0.308-2.64,0.924l0.6,0.84c0.64-0.432,1.256-0.648,1.848-0.648c0.944,0,1.416,0.424,1.416,1.272v0.24h-1.74
			c-0.792,0-1.42,0.156-1.884,0.468c-0.464,0.312-0.696,0.782-0.696,1.41c0,0.628,0.218,1.13,0.654,1.506
			c0.436,0.376,0.986,0.564,1.65,0.564c0.888,0,1.596-0.316,2.124-0.948v0.852h1.224v-4.116c0-0.816-0.238-1.414-0.714-1.794
			C82.824,42.461,82.21,42.271,81.459,42.271z M82.671,46.375c0,0.408-0.16,0.732-0.48,0.972c-0.32,0.24-0.694,0.36-1.122,0.36
			c-0.428,0-0.762-0.082-1.002-0.246c-0.24-0.164-0.36-0.402-0.36-0.714c0-0.608,0.484-0.912,1.452-0.912h1.512V46.375z
			 M86.756,40.273c-0.404,0.396-0.606,0.93-0.606,1.602v0.492h-0.804v1.08h0.804v5.304h1.344v-5.304h1.68v-1.08h-1.68v-0.528
			c0-0.304,0.08-0.546,0.24-0.726c0.16-0.18,0.384-0.27,0.672-0.27c0.288,0,0.564,0.14,0.828,0.42l0.552-0.948
			c-0.472-0.424-0.994-0.636-1.566-0.636C87.648,39.679,87.16,39.877,86.756,40.273z M93.038,47.683c-0.288,0-0.512-0.09-0.672-0.27
			c-0.16-0.18-0.24-0.422-0.24-0.726v-3.24h1.68v-1.08h-1.68v-2.004h-1.344v2.004h-0.804v1.08h0.804v3.204
			c0,0.672,0.202,1.206,0.606,1.602c0.404,0.396,0.892,0.594,1.464,0.594c0.572,0,1.094-0.212,1.566-0.636l-0.552-0.948
			C93.602,47.543,93.326,47.683,93.038,47.683z M103.55,43.351c-0.52-0.72-1.206-1.08-2.058-1.08s-1.586,0.296-2.202,0.888
			c-0.616,0.592-0.924,1.384-0.924,2.376c0,0.992,0.3,1.792,0.9,2.4c0.6,0.608,1.304,0.912,2.112,0.912
			c0.952,0,1.676-0.352,2.172-1.056v0.96h1.344v-8.904h-1.344V43.351z M103.022,47.077c-0.368,0.388-0.816,0.582-1.344,0.582
			c-0.528,0-0.988-0.192-1.38-0.576c-0.392-0.384-0.588-0.882-0.588-1.494s0.192-1.122,0.576-1.53
			c0.384-0.408,0.844-0.612,1.38-0.612c0.536,0,0.988,0.204,1.356,0.612c0.368,0.408,0.552,0.916,0.552,1.524
			C103.574,46.191,103.39,46.689,103.022,47.077z M109.652,42.271c-0.868,0-1.622,0.296-2.262,0.888
			c-0.64,0.592-0.96,1.39-0.96,2.394c0,1.004,0.314,1.804,0.942,2.4c0.628,0.596,1.39,0.894,2.286,0.894
			c1.104,0,2-0.356,2.688-1.068l-0.768-0.84c-0.416,0.504-1.024,0.756-1.824,0.756c-0.504,0-0.952-0.142-1.344-0.426
			c-0.392-0.284-0.604-0.658-0.636-1.122h5.004v-0.924c0-0.92-0.304-1.642-0.912-2.166C111.258,42.533,110.52,42.271,109.652,42.271
			z M107.774,45.091c0-0.512,0.196-0.918,0.588-1.218c0.392-0.3,0.834-0.45,1.326-0.45s0.906,0.144,1.242,0.432
			c0.336,0.288,0.504,0.7,0.504,1.236H107.774z M118.154,45.499c-0.216-0.144-0.418-0.256-0.606-0.336
			c-0.188-0.08-0.382-0.152-0.582-0.216c-0.2-0.064-0.43-0.128-0.69-0.192c-0.26-0.064-0.462-0.132-0.606-0.204
			c-0.208-0.096-0.312-0.248-0.312-0.456c0-0.232,0.1-0.406,0.3-0.522c0.2-0.116,0.46-0.174,0.78-0.174
			c0.608,0,1.172,0.172,1.692,0.516l0.504-0.996c-0.656-0.432-1.352-0.648-2.088-0.648c-0.736,0-1.334,0.178-1.794,0.534
			c-0.46,0.356-0.69,0.83-0.69,1.422c0,0.84,0.664,1.44,1.992,1.8c0.032,0.008,0.08,0.024,0.144,0.048
			c0.848,0.256,1.272,0.544,1.272,0.864c0,0.216-0.088,0.394-0.264,0.534c-0.176,0.14-0.416,0.21-0.72,0.21
			c-0.696,0-1.416-0.28-2.16-0.84l-0.648,1.044c0.384,0.304,0.826,0.54,1.326,0.708c0.5,0.168,0.982,0.252,1.446,0.252
			c0.688,0,1.252-0.182,1.692-0.546c0.44-0.364,0.66-0.85,0.66-1.458C118.802,46.235,118.586,45.787,118.154,45.499z M121.01,39.643
			c-0.232,0-0.432,0.084-0.6,0.252c-0.168,0.168-0.252,0.368-0.252,0.6c0,0.232,0.084,0.432,0.252,0.6
			c0.168,0.168,0.368,0.252,0.6,0.252c0.232,0,0.432-0.084,0.6-0.252c0.168-0.168,0.252-0.368,0.252-0.6
			c0-0.232-0.084-0.432-0.252-0.6C121.442,39.727,121.242,39.643,121.01,39.643z M120.326,48.751h1.344v-6.384h-1.344V48.751z
			 M128.174,43.315c-0.528-0.696-1.214-1.044-2.058-1.044c-0.844,0-1.538,0.296-2.082,0.888c-0.544,0.592-0.816,1.328-0.816,2.208
			c0,0.88,0.272,1.616,0.816,2.208c0.544,0.592,1.24,0.888,2.088,0.888c0.464,0,0.882-0.112,1.254-0.336
			c0.372-0.224,0.658-0.524,0.858-0.9v0.816c0,0.72-0.186,1.244-0.558,1.572c-0.372,0.328-0.876,0.492-1.512,0.492
			c-0.636,0-1.266-0.236-1.89-0.708l-0.636,1.02c0.776,0.6,1.644,0.9,2.604,0.9c0.96,0,1.746-0.282,2.358-0.846
			c0.612-0.564,0.918-1.41,0.918-2.538v-5.568h-1.344V43.315z M127.664,46.687c-0.34,0.368-0.784,0.552-1.332,0.552
			c-0.548,0-0.984-0.19-1.308-0.57c-0.324-0.38-0.486-0.832-0.486-1.356c0-0.524,0.162-0.982,0.486-1.374
			c0.324-0.392,0.758-0.588,1.302-0.588c0.544,0,0.988,0.19,1.332,0.57c0.344,0.38,0.516,0.844,0.516,1.392
			C128.174,45.861,128.004,46.319,127.664,46.687z M136.676,42.931c-0.444-0.44-1.026-0.66-1.746-0.66
			c-0.44,0-0.85,0.112-1.23,0.336c-0.38,0.224-0.678,0.532-0.894,0.924v-1.164h-1.344v6.384h1.344v-3.456
			c0-0.592,0.172-1.042,0.516-1.35c0.344-0.308,0.748-0.462,1.212-0.462c0.976,0,1.464,0.588,1.464,1.764v3.504h1.344v-3.912
			C137.342,44.007,137.12,43.371,136.676,42.931z"/>
	</g>
</g>
</svg>
