<?xml version="1.0" encoding="utf-8"?>
<!-- Generator: Adobe Illustrator 19.2.0, SVG Export Plug-In . SVG Version: 6.00 Build 0)  -->
<svg version="1.1" id="Layer_1" xmlns="http://www.w3.org/2000/svg" xmlns:xlink="http://www.w3.org/1999/xlink" x="0px" y="0px"
	 viewBox="0 0 114.1 50.2" style="enable-background:new 0 0 114.1 50.2;" xml:space="preserve">
<style type="text/css">
	.st0{fill-rule:evenodd;clip-rule:evenodd;fill:#F63E5B;}
	.st1{fill-rule:evenodd;clip-rule:evenodd;fill:#FFFFFF;}
	.st2{fill:#36516E;}
</style>
<g>
	<path class="st0" d="M4.4,0h39.8c2.4,0,4.4,2,4.4,4.4v39.8c0,2.4-2,4.4-4.4,4.4H4.4c-2.4,0-4.4-2-4.4-4.4V4.4C0,2,2,0,4.4,0z"/>
	<path class="st1" d="M28.7,15l-6.9,10.1V15h-8.5l3.5,5.2v13.4h5L34.4,15H28.7z M29.2,24.6l-2.9,4.2l3.3,4.8h5.8L29.2,24.6z"/>
	<g>
		<path class="st2" d="M60.8,9.3l0.7-0.8l2.1,3.1h2.7l-3.2-4.8l3.1-3.3h-2.8l-2.5,2.7V0.5h-2.3v11.2h2.3V9.3z M70.7,6.6
			c-1,0-1.9,0.2-2.5,0.6c-0.6,0.4-0.9,1-0.9,1.9c0,0.8,0.3,1.5,0.9,2c0.6,0.5,1.3,0.7,2.2,0.7c0.9,0,1.6-0.4,2.2-1.1v1h2.1V6.5
			c0-1.1-0.3-1.8-0.9-2.3c-0.6-0.5-1.4-0.7-2.4-0.7c-1.4,0-2.6,0.4-3.6,1.2l1,1.5c0.3-0.2,0.7-0.4,1.1-0.6c0.4-0.2,0.8-0.2,1.2-0.2
			c0.9,0,1.4,0.4,1.4,1.3v0H70.7z M72.4,8.6c0,0.4-0.2,0.7-0.5,1c-0.3,0.2-0.7,0.4-1.1,0.4c-0.4,0-0.7-0.1-0.9-0.2
			c-0.2-0.2-0.3-0.4-0.3-0.7c0-0.6,0.5-0.8,1.4-0.8h1.4V8.6z M81.5,11.6l3.2-8.1h-2.3l-2,5.1l-2-5.1H76l3.2,8.1H81.5z M90,11.8
			c1.2,0,2.2-0.4,3.1-1.2c0.8-0.8,1.2-1.8,1.2-3s-0.4-2.2-1.2-3c-0.8-0.8-1.8-1.2-3.1-1.2c-1.2,0-2.2,0.4-3.1,1.2
			c-0.8,0.8-1.2,1.8-1.2,3s0.4,2.2,1.2,3C87.7,11.4,88.7,11.8,90,11.8z M88.5,6c0.4-0.4,0.9-0.6,1.4-0.6S91,5.5,91.4,6
			c0.4,0.4,0.6,1,0.6,1.6s-0.2,1.2-0.6,1.6C91,9.6,90.5,9.8,90,9.8s-1.1-0.2-1.4-0.6c-0.4-0.4-0.6-1-0.6-1.6S88.1,6.4,88.5,6z
			 M104.4,7.6c0-1.2-0.4-2.2-1.2-3c-0.8-0.8-1.8-1.2-3.1-1.2c-1.2,0-2.2,0.4-3.1,1.2c-0.8,0.8-1.2,1.8-1.2,3s0.4,2.2,1.2,3
			c0.8,0.8,1.8,1.2,3.1,1.2c1.2,0,2.2-0.4,3.1-1.2C104,9.8,104.4,8.8,104.4,7.6z M101.6,9.2c-0.4,0.4-0.9,0.6-1.4,0.6
			c-0.6,0-1.1-0.2-1.4-0.6c-0.4-0.4-0.6-1-0.6-1.6s0.2-1.2,0.6-1.6c0.4-0.4,0.9-0.6,1.4-0.6c0.6,0,1.1,0.2,1.4,0.6
			c0.4,0.4,0.6,1,0.6,1.6S102,8.8,101.6,9.2z M113.3,4.3c-0.6-0.6-1.3-0.9-2.1-0.9c-0.9,0-1.6,0.3-2.3,1V3.5h-2.3v8.1h2.3V7.1
			c0-0.6,0.2-1.1,0.5-1.4c0.3-0.3,0.7-0.5,1.2-0.5c0.9,0,1.4,0.6,1.4,1.9v4.6h2.3V6.7C114.1,5.7,113.8,4.9,113.3,4.3z M62.4,29.5
			c1.2,0,2.3-0.5,3.4-1.6l-1.3-1.5c-0.6,0.8-1.3,1.1-2,1.1c-0.6,0-1.1-0.2-1.5-0.6c-0.4-0.4-0.6-0.9-0.6-1.6c0-0.7,0.2-1.2,0.6-1.6
			c0.4-0.4,0.9-0.6,1.5-0.6c0.4,0,0.7,0.1,1.1,0.3c0.4,0.2,0.7,0.4,1,0.7l1.2-1.5c-0.5-0.5-1-0.8-1.6-1.1c-0.6-0.2-1.2-0.4-1.8-0.4
			c-1.2,0-2.2,0.4-3,1.2c-0.8,0.8-1.3,1.8-1.3,3c0,1.2,0.4,2.2,1.3,3C60.2,29.1,61.2,29.5,62.4,29.5z M70,25.8
			c0-0.8,0.2-1.4,0.5-1.9c0.3-0.5,0.8-0.7,1.5-0.7h0.4l0-2.1c-0.5,0-0.9,0.1-1.3,0.4c-0.4,0.2-0.8,0.5-1.1,0.8v-1.1h-2.3v8.1H70
			V25.8z M79.1,28.4v1h2.1v-5.2c0-1.1-0.3-1.8-0.9-2.3c-0.6-0.5-1.4-0.7-2.4-0.7c-1.4,0-2.6,0.4-3.6,1.2l1,1.5
			c0.3-0.2,0.7-0.4,1.1-0.6c0.4-0.2,0.8-0.2,1.2-0.2c0.9,0,1.4,0.4,1.4,1.3v0h-1.7c-1,0-1.9,0.2-2.5,0.6c-0.6,0.4-0.9,1-0.9,1.9
			c0,0.8,0.3,1.5,0.9,2c0.6,0.5,1.3,0.7,2.2,0.7C77.8,29.5,78.5,29.1,79.1,28.4z M77.4,27.6c-0.4,0-0.7-0.1-0.9-0.2
			c-0.2-0.2-0.3-0.4-0.3-0.7c0-0.6,0.5-0.8,1.4-0.8h1.4v0.4c0,0.4-0.2,0.7-0.5,1C78.2,27.5,77.8,27.6,77.4,27.6z M88.3,21.3h-2v-0.5
			c0-0.3,0.1-0.6,0.2-0.7c0.2-0.2,0.3-0.2,0.6-0.2c0.4,0,0.8,0.2,1.1,0.6l0.8-1.5c-0.7-0.6-1.4-0.9-2.2-0.9c-0.8,0-1.5,0.3-2,0.8
			c-0.5,0.5-0.8,1.2-0.8,2.1v0.5h-0.9v1.6h0.9v6.4h2.3v-6.4h2V21.3z M95.6,28.5l-0.8-1.6c-0.3,0.4-0.6,0.6-1.1,0.6
			c-0.2,0-0.4-0.1-0.6-0.3c-0.2-0.2-0.2-0.4-0.2-0.7v-3.6h2v-1.6h-2v-2.4h-2.3v2.4h-0.9v1.6h0.9v3.7c0,0.9,0.3,1.6,0.8,2.1
			c0.5,0.5,1.2,0.8,2,0.8C94.1,29.5,94.9,29.1,95.6,28.5z M64.2,39.8c-0.6-0.7-1.4-1-2.4-1c-1,0-1.8,0.4-2.6,1.2
			c-0.7,0.8-1.1,1.8-1.1,3c0,1.2,0.4,2.2,1.1,3c0.8,0.8,1.6,1.2,2.6,1.2c1,0,1.8-0.4,2.4-1.2V47h2.3V35.9h-2.3V39.8z M63.7,44.6
			c-0.4,0.4-0.8,0.6-1.3,0.6c-0.5,0-1-0.2-1.4-0.6c-0.4-0.4-0.6-1-0.6-1.6c0-0.7,0.2-1.2,0.6-1.6c0.4-0.4,0.8-0.7,1.4-0.7
			c0.5,0,1,0.2,1.3,0.7c0.4,0.4,0.5,1,0.5,1.6C64.2,43.7,64.1,44.2,63.7,44.6z M72.7,38.8c-1.1,0-2.1,0.4-2.9,1.1
			c-0.8,0.8-1.2,1.8-1.2,3c0,1.3,0.4,2.3,1.2,3c0.8,0.8,1.8,1.1,3,1.1c1.2,0,2.3-0.4,3.2-1.3l-1.3-1.4c-0.5,0.5-1.2,0.8-2,0.8
			c-0.5,0-0.9-0.1-1.3-0.4c-0.4-0.3-0.6-0.6-0.7-1.1h5.9v-1.2c0-1.2-0.4-2.1-1.2-2.8C74.8,39.1,73.8,38.8,72.7,38.8z M70.9,42.2
			c0.1-0.5,0.3-0.8,0.6-1.1c0.4-0.3,0.8-0.4,1.2-0.4c0.4,0,0.8,0.1,1.1,0.4c0.3,0.3,0.5,0.6,0.5,1.1H70.9z M84,42.8
			c-0.3-0.2-0.6-0.3-0.8-0.4c-0.2-0.1-0.6-0.2-1.1-0.4c-0.5-0.2-0.9-0.3-1.1-0.4c-0.2-0.1-0.3-0.3-0.3-0.5c0-0.4,0.3-0.6,1-0.6
			c0.7,0,1.4,0.2,2.1,0.7l0.8-1.5c-1-0.6-1.9-1-2.9-1c-1,0-1.7,0.2-2.3,0.7c-0.6,0.5-0.9,1.1-0.9,1.8c0,0.7,0.3,1.3,0.9,1.7
			c0.3,0.2,0.6,0.3,0.8,0.4c0.2,0.1,0.6,0.2,1,0.4c0.4,0.1,0.8,0.3,1,0.5c0.2,0.2,0.4,0.3,0.4,0.5c0,0.2-0.1,0.3-0.3,0.5
			c-0.2,0.1-0.4,0.2-0.7,0.2c-1,0-1.9-0.3-2.7-1l-1,1.4c0.5,0.4,1.1,0.7,1.8,1c0.7,0.2,1.3,0.3,1.9,0.3c0.9,0,1.6-0.2,2.2-0.7
			c0.6-0.5,0.9-1.1,0.9-1.9C84.9,43.7,84.6,43.1,84,42.8z M88.2,35.6c-0.4,0-0.7,0.1-0.9,0.4c-0.3,0.3-0.4,0.6-0.4,0.9
			c0,0.4,0.1,0.7,0.4,0.9c0.3,0.3,0.6,0.4,0.9,0.4c0.4,0,0.7-0.1,0.9-0.4c0.3-0.3,0.4-0.6,0.4-0.9c0-0.4-0.1-0.7-0.4-0.9
			C88.9,35.8,88.6,35.6,88.2,35.6z M87.1,47h2.3v-8.1h-2.3V47z M97.6,40c-0.6-0.8-1.4-1.2-2.4-1.2c-1,0-1.8,0.4-2.6,1.2
			c-0.7,0.8-1.1,1.8-1.1,2.9c0,1.2,0.4,2.2,1.1,2.9c0.7,0.7,1.6,1.1,2.7,1.1c1.1,0,1.9-0.4,2.7-1.2c0,0.9-0.2,1.5-0.7,2
			c-0.5,0.4-1.1,0.6-2,0.6s-1.6-0.3-2.4-0.8L92,49.1c0.5,0.4,1,0.6,1.6,0.8c0.6,0.2,1.2,0.3,1.8,0.3c1.1,0,2.1-0.3,2.9-1
			c0.4-0.3,0.8-0.8,1-1.3c0.3-0.6,0.4-1.2,0.4-1.9v-7.1h-2.3V40z M97,44.4c-0.4,0.4-0.8,0.6-1.4,0.6c-0.5,0-1-0.2-1.4-0.6
			c-0.4-0.4-0.6-0.9-0.6-1.6c0-0.6,0.2-1.1,0.6-1.5c0.4-0.4,0.8-0.6,1.4-0.6c0.5,0,1,0.2,1.3,0.6c0.4,0.4,0.5,0.9,0.5,1.5
			C97.6,43.5,97.4,44,97,44.4z M107,38.8c-0.9,0-1.6,0.3-2.3,1v-0.9h-2.3V47h2.3v-4.5c0-0.6,0.2-1.1,0.5-1.4
			c0.3-0.3,0.7-0.5,1.2-0.5c0.9,0,1.4,0.6,1.4,1.9V47h2.3v-4.9c0-1-0.3-1.8-0.9-2.4C108.5,39.1,107.8,38.8,107,38.8z"/>
	</g>
</g>
</svg>
