<?xml version="1.0" encoding="utf-8"?>
<!-- Generator: Adobe Illustrator 19.2.0, SVG Export Plug-In . SVG Version: 6.00 Build 0)  -->
<svg version="1.1" id="Layer_1" xmlns="http://www.w3.org/2000/svg" xmlns:xlink="http://www.w3.org/1999/xlink" x="0px" y="0px"
	 viewBox="0 0 247.5 104.5" style="enable-background:new 0 0 247.5 104.5;" xml:space="preserve">
<style type="text/css">
	.st0{fill-rule:evenodd;clip-rule:evenodd;fill:#F63E5B;}
	.st1{fill:#36516E;}
	.st2{fill:#B9BFC1;}
</style>
<g>
	<g>
		<path class="st0" d="M68.6,28.2l-18,26.4V28.2h-22l9,13.5v35h13l33.1-48.5H68.6z M70.1,53.2l-7.5,11l8.5,12.5h15L70.1,53.2z"/>
	</g>
	<g>
		<path class="st1" d="M114.2,36.2h-7.6l-6.7,7.1V28.1h-6v29.7h6v-6.2l2-2l5.5,8.2h7.1L106,44.9L114.2,36.2z M130.8,37.9
			c-1.7-1.3-3.8-2-6.4-2c-3.6,0-6.9,1-9.7,3.1l2.7,3.9c0.8-0.6,1.8-1.1,2.9-1.5c1.2-0.4,2.3-0.6,3.3-0.6c2.4,0,3.6,1.1,3.6,3.4v0.1
			h-4.5c-2.8,0-5,0.5-6.6,1.6c-1.6,1.1-2.4,2.7-2.4,4.9c0,2.2,0.8,4,2.3,5.3c1.5,1.3,3.5,2,5.7,2c2.3,0,4.2-1,5.7-2.9v2.6h5.6V44.1
			C133.3,41.2,132.5,39.2,130.8,37.9z M127.2,49.6c0,1.1-0.4,2-1.2,2.6c-0.8,0.7-1.8,1-2.8,1c-1.1,0-1.9-0.2-2.5-0.6
			c-0.6-0.4-0.9-1-0.9-1.8c0-1.5,1.2-2.2,3.6-2.2h3.8V49.6z M149.8,36.2l-5.4,13.6l-5.4-13.6h-6.2l8.5,21.6h6.2l8.5-21.6H149.8z
			 M166.3,35.9c-3.3,0-6,1.1-8.1,3.2c-2.2,2.1-3.2,4.8-3.2,7.9c0,3.1,1.1,5.7,3.2,7.9c2.2,2.1,4.9,3.2,8.1,3.2c3.3,0,6-1.1,8.1-3.2
			c2.2-2.1,3.2-4.8,3.2-7.9c0-3.1-1.1-5.8-3.2-7.9C172.3,37,169.6,35.9,166.3,35.9z M170.2,51.3c-1,1.1-2.3,1.7-3.8,1.7
			s-2.8-0.6-3.8-1.7c-1-1.1-1.5-2.5-1.5-4.3c0-1.8,0.5-3.2,1.5-4.3c1-1.1,2.3-1.7,3.8-1.7s2.8,0.6,3.8,1.7c1,1.1,1.5,2.6,1.5,4.3
			C171.7,48.8,171.2,50.2,170.2,51.3z M189.9,35.9c-3.3,0-6,1.1-8.1,3.2c-2.2,2.1-3.2,4.8-3.2,7.9c0,3.1,1.1,5.7,3.2,7.9
			c2.2,2.1,4.9,3.2,8.1,3.2c3.3,0,6-1.1,8.1-3.2c2.2-2.1,3.2-4.8,3.2-7.9c0-3.1-1.1-5.8-3.2-7.9C195.9,37,193.2,35.9,189.9,35.9z
			 M193.7,51.3c-1,1.1-2.3,1.7-3.8,1.7s-2.8-0.6-3.8-1.7c-1-1.1-1.5-2.5-1.5-4.3c0-1.8,0.5-3.2,1.5-4.3c1-1.1,2.3-1.7,3.8-1.7
			s2.8,0.6,3.8,1.7c1,1.1,1.5,2.6,1.5,4.3C195.2,48.8,194.7,50.2,193.7,51.3z M221.1,38.3c-1.5-1.6-3.4-2.4-5.7-2.4
			c-2.3,0-4.3,0.9-6.1,2.8v-2.4h-6v21.5h6v-12c0-1.7,0.4-3,1.3-3.8c0.9-0.9,1.9-1.3,3.1-1.3c2.4,0,3.6,1.7,3.6,5v12.2h6V44.7
			C223.4,42,222.7,39.9,221.1,38.3z"/>
	</g>
	<g>
		<path class="st2" d="M98.8,75.7c-0.6,0-1.1-0.2-1.5-0.6c-0.4-0.4-0.6-0.9-0.6-1.5s0.2-1.1,0.6-1.4s0.9-0.6,1.5-0.6
			c0.6,0,1.1,0.2,1.7,0.7l0.8-1c-0.7-0.7-1.5-1-2.4-1c-1,0-1.8,0.3-2.4,0.9c-0.7,0.6-1,1.4-1,2.4c0,1,0.3,1.8,1,2.4
			c0.6,0.6,1.4,0.9,2.3,0.9c1,0,1.9-0.4,2.7-1.2l-0.8-0.9C99.9,75.4,99.4,75.7,98.8,75.7z M104.9,70.8c-0.4,0.3-0.7,0.6-0.9,1v-1.3
			h-1.3v6.4h1.3v-2.7c0-0.7,0.2-1.3,0.5-1.7s0.8-0.6,1.5-0.6h0.1l0-1.4C105.6,70.4,105.2,70.5,104.9,70.8z M110,70.4
			c-1,0-1.9,0.3-2.6,0.9l0.6,0.8c0.6-0.4,1.3-0.6,1.8-0.6c0.9,0,1.4,0.4,1.4,1.3V73h-1.7c-0.8,0-1.4,0.2-1.9,0.5
			c-0.5,0.3-0.7,0.8-0.7,1.4c0,0.6,0.2,1.1,0.7,1.5c0.4,0.4,1,0.6,1.7,0.6c0.9,0,1.6-0.3,2.1-0.9v0.9h1.2v-4.1
			c0-0.8-0.2-1.4-0.7-1.8C111.3,70.6,110.7,70.4,110,70.4z M111.2,74.5c0,0.4-0.2,0.7-0.5,1c-0.3,0.2-0.7,0.4-1.1,0.4
			c-0.4,0-0.8-0.1-1-0.2c-0.2-0.2-0.4-0.4-0.4-0.7c0-0.6,0.5-0.9,1.5-0.9h1.5V74.5z M115.3,68.4c-0.4,0.4-0.6,0.9-0.6,1.6v0.5h-0.8
			v1.1h0.8v5.3h1.3v-5.3h1.7v-1.1H116v-0.5c0-0.3,0.1-0.5,0.2-0.7c0.2-0.2,0.4-0.3,0.7-0.3c0.3,0,0.6,0.1,0.8,0.4l0.6-0.9
			c-0.5-0.4-1-0.6-1.6-0.6C116.2,67.8,115.7,68,115.3,68.4z M121.5,75.8c-0.3,0-0.5-0.1-0.7-0.3c-0.2-0.2-0.2-0.4-0.2-0.7v-3.2h1.7
			v-1.1h-1.7v-2h-1.3v2h-0.8v1.1h0.8v3.2c0,0.7,0.2,1.2,0.6,1.6c0.4,0.4,0.9,0.6,1.5,0.6c0.6,0,1.1-0.2,1.6-0.6l-0.6-0.9
			C122.1,75.6,121.8,75.8,121.5,75.8z M132.1,71.4c-0.5-0.7-1.2-1.1-2.1-1.1s-1.6,0.3-2.2,0.9c-0.6,0.6-0.9,1.4-0.9,2.4
			c0,1,0.3,1.8,0.9,2.4c0.6,0.6,1.3,0.9,2.1,0.9c1,0,1.7-0.4,2.2-1.1v1h1.3v-8.9h-1.3V71.4z M131.5,75.2c-0.4,0.4-0.8,0.6-1.3,0.6
			c-0.5,0-1-0.2-1.4-0.6c-0.4-0.4-0.6-0.9-0.6-1.5s0.2-1.1,0.6-1.5c0.4-0.4,0.8-0.6,1.4-0.6c0.5,0,1,0.2,1.4,0.6
			c0.4,0.4,0.6,0.9,0.6,1.5C132.1,74.3,131.9,74.8,131.5,75.2z M138.2,70.4c-0.9,0-1.6,0.3-2.3,0.9c-0.6,0.6-1,1.4-1,2.4
			c0,1,0.3,1.8,0.9,2.4c0.6,0.6,1.4,0.9,2.3,0.9c1.1,0,2-0.4,2.7-1.1l-0.8-0.8c-0.4,0.5-1,0.8-1.8,0.8c-0.5,0-1-0.1-1.3-0.4
			c-0.4-0.3-0.6-0.7-0.6-1.1h5v-0.9c0-0.9-0.3-1.6-0.9-2.2C139.8,70.6,139,70.4,138.2,70.4z M136.3,73.2c0-0.5,0.2-0.9,0.6-1.2
			c0.4-0.3,0.8-0.5,1.3-0.5s0.9,0.1,1.2,0.4c0.3,0.3,0.5,0.7,0.5,1.2H136.3z M146.7,73.6c-0.2-0.1-0.4-0.3-0.6-0.3
			c-0.2-0.1-0.4-0.2-0.6-0.2c-0.2-0.1-0.4-0.1-0.7-0.2c-0.3-0.1-0.5-0.1-0.6-0.2c-0.2-0.1-0.3-0.2-0.3-0.5c0-0.2,0.1-0.4,0.3-0.5
			c0.2-0.1,0.5-0.2,0.8-0.2c0.6,0,1.2,0.2,1.7,0.5l0.5-1c-0.7-0.4-1.4-0.6-2.1-0.6c-0.7,0-1.3,0.2-1.8,0.5c-0.5,0.4-0.7,0.8-0.7,1.4
			c0,0.8,0.7,1.4,2,1.8c0,0,0.1,0,0.1,0c0.8,0.3,1.3,0.5,1.3,0.9c0,0.2-0.1,0.4-0.3,0.5c-0.2,0.1-0.4,0.2-0.7,0.2
			c-0.7,0-1.4-0.3-2.2-0.8l-0.6,1c0.4,0.3,0.8,0.5,1.3,0.7c0.5,0.2,1,0.3,1.4,0.3c0.7,0,1.3-0.2,1.7-0.5c0.4-0.4,0.7-0.8,0.7-1.5
			C147.3,74.3,147.1,73.9,146.7,73.6z M149.5,67.7c-0.2,0-0.4,0.1-0.6,0.3c-0.2,0.2-0.3,0.4-0.3,0.6c0,0.2,0.1,0.4,0.3,0.6
			c0.2,0.2,0.4,0.3,0.6,0.3c0.2,0,0.4-0.1,0.6-0.3c0.2-0.2,0.3-0.4,0.3-0.6c0-0.2-0.1-0.4-0.3-0.6C150,67.8,149.8,67.7,149.5,67.7z
			 M148.8,76.8h1.3v-6.4h-1.3V76.8z M156.7,71.4c-0.5-0.7-1.2-1-2.1-1c-0.8,0-1.5,0.3-2.1,0.9c-0.5,0.6-0.8,1.3-0.8,2.2
			c0,0.9,0.3,1.6,0.8,2.2c0.5,0.6,1.2,0.9,2.1,0.9c0.5,0,0.9-0.1,1.3-0.3c0.4-0.2,0.7-0.5,0.9-0.9v0.8c0,0.7-0.2,1.2-0.6,1.6
			c-0.4,0.3-0.9,0.5-1.5,0.5c-0.6,0-1.3-0.2-1.9-0.7l-0.6,1c0.8,0.6,1.6,0.9,2.6,0.9c1,0,1.7-0.3,2.4-0.8c0.6-0.6,0.9-1.4,0.9-2.5
			v-5.6h-1.3V71.4z M156.2,74.8c-0.3,0.4-0.8,0.6-1.3,0.6c-0.5,0-1-0.2-1.3-0.6c-0.3-0.4-0.5-0.8-0.5-1.4c0-0.5,0.2-1,0.5-1.4
			c0.3-0.4,0.8-0.6,1.3-0.6c0.5,0,1,0.2,1.3,0.6c0.3,0.4,0.5,0.8,0.5,1.4C156.7,74,156.5,74.4,156.2,74.8z M165.2,71
			c-0.4-0.4-1-0.7-1.7-0.7c-0.4,0-0.9,0.1-1.2,0.3c-0.4,0.2-0.7,0.5-0.9,0.9v-1.2H160v6.4h1.3v-3.5c0-0.6,0.2-1,0.5-1.4
			c0.3-0.3,0.7-0.5,1.2-0.5c1,0,1.5,0.6,1.5,1.8v3.5h1.3v-3.9C165.9,72.1,165.6,71.5,165.2,71z"/>
	</g>
</g>
</svg>
