<?xml version="1.0" encoding="utf-8"?>
<!-- Generator: Adobe Illustrator 19.2.0, SVG Export Plug-In . SVG Version: 6.00 Build 0)  -->
<svg version="1.1" id="Layer_1" xmlns="http://www.w3.org/2000/svg" xmlns:xlink="http://www.w3.org/1999/xlink" x="0px" y="0px"
	 viewBox="0 0 29 29" style="enable-background:new 0 0 29 29;" xml:space="preserve">
<style type="text/css">
	.st0{fill-rule:evenodd;clip-rule:evenodd;fill:#AFAFAF;}
</style>
<g>
	<path class="st0" d="M13.9,0C7.4,0.3,2,5.5,1.5,12c-0.5,7,4.6,13,11.3,13.9l-3,1.5c-0.4,0.2-0.6,0.6-0.4,1l0.1,0.3
		c0.2,0.3,0.7,0.5,1,0.3l4.8-2.5c0,0,0,0,0,0l0.3-0.2c0.2-0.1,0.3-0.3,0.3-0.4c0-0.2,0-0.4-0.1-0.5L15.8,25c0,0,0,0,0,0l-3-4.6
		c-0.2-0.3-0.7-0.5-1-0.3l-0.2,0.2c-0.4,0.2-0.4,0.7-0.2,1l1.7,2.6c-5.7-0.7-10-5.7-9.6-11.6C3.9,6.7,8.5,2.2,14.1,2
		c6.3-0.2,11.4,4.8,11.4,11c0,3.5-1.6,6.5-4.1,8.5c-0.4,0.3-0.5,1-0.1,1.4l0,0c0.4,0.4,1,0.5,1.4,0.1c2.9-2.4,4.8-6,4.8-10.1
		C27.5,5.6,21.4-0.3,13.9,0z"/>
</g>
</svg>
