<?xml version="1.0" encoding="utf-8"?>
<!-- Generator: Adobe Illustrator 19.2.0, SVG Export Plug-In . SVG Version: 6.00 Build 0)  -->
<svg version="1.1" id="Layer_1" xmlns="http://www.w3.org/2000/svg" xmlns:xlink="http://www.w3.org/1999/xlink" x="0px" y="0px"
	 viewBox="0 0 739.6 909.9" style="enable-background:new 0 0 739.6 909.9;" xml:space="preserve">
<style type="text/css">
	.st0{fill:#FDDDC6;}
	.st1{fill:#D6AA89;}
	.st2{fill:#AA7C5B;}
	.st3{fill:#3A291D;}
</style>
<g>
	<g>
		<path class="st0" d="M598.5,634.3c-60.8-50.9-140.8-63.7-142.7-85c0-0.5-0.1-1-0.2-1.4l0.7-0.7l-1.3-91.7
			c9.5-10.9,17-19.8,18.1-21.5c3.5-5.3,13.3-63,14.7-80.2c2.6-31.5,5.7-115.7,1.9-126.8c-3.8-11.3-69.6-63-114.8-61.7
			c-45.4,1.3-107.1,41.4-115,68.4c-2.4,8.3-7.4,79.8-5.3,112.6c1.1,17.3,10.7,89.8,16.4,97.4c1,1.3,9.1,9.3,19.6,19.1h-0.4
			l-0.2,85.7c-6.5,24-73.3,35.2-135.6,80.7c-24.8,18.1,73.1,101.2,215.6,96.5C525.4,720.4,613.3,646.7,598.5,634.3z"/>
	</g>
	<g>
		<path class="st1" d="M409.8,503.8c1.5-3,1.2-8-1.3-10c-5.8-4.8-60.6-2.4-68.8,0c-3,0.9-6.9-4.3-7.7-5.6c-11.4-19-23.1-49-25-54.9
			c-5.7-17.2-13.3-44.6-29-65.3c-4.9-6.4-4.9-55.6,8-78.7c5.5-9.8-17-71-26-54.1c-7.4,13.7-3.2,85.7-5.6,99.8
			c-0.2,1.3,2.7,30.9,3.5,33c0.9,2.1,4.7,40.1,4.7,40.1s7.9,35.3,8.5,37.1s15.6,15.3,15.6,15.3l8.8,7.6l-3.1-2.5l-2.4,65.8
			c0,0,16.6,18,38.4,31.7c3.4,10,9,22.6,9.9,23.9c2.5,3.3,5.9,1.7,8,0.6c2.1-1.1-1-9.4-4.3-17c10.2,4.8,20.9,8.1,31.2,7.8
			c11.4-0.2,25.7-7.1,39.2-15.6c-3.8,8-10.7,23.6-8.5,25.5c3,2.6,5.5,2.4,6.3,0.8c0.6-1.2,9-23.6,12.6-33.3
			c19.2-13.5,34.7-28.1,34.7-28.1l-1.6-68.4L409.8,503.8z M391,616c-2.2,2.7-6.8,19.5-18.6,19.6c-9,0.1-11.8-8.3-17.2-10.6
			c-1.7-0.7-3.5,0.2-4.3,1.7s-1.7,8.9,2,10.5s6.7,3,8.2,3.5s5.3,3.2,8.9,4.3s4.4,1.7,7.6,0c3.1-1.7,7-3,9.8-4.6
			c4.1-2.3,10.8-21.9,9.2-24.1C394.8,614.2,391.8,615,391,616z M510.2,646.4c-13.5,3.2-29-0.2-42.7,1.7c-4.1,0.6-3.4,5.8-0.5,6.6
			c13,3.7,34.5,4.5,42.8-1C513.1,651.5,513.9,645.5,510.2,646.4z M279,653.5c-12.2,1.7-24.6,1.3-35.5,0c-7.3-0.9-7.3,6.3-2.1,8.7
			c5.2,2.3,26.5,4,32.9,0C280.7,658.2,283.3,653,279,653.5z M365.6,668.5c0,7.7,4.4,32,4.4,49c0,3.8,6,5.3,10.1,1.7
			c4.1-3.7-2.4-51.7-4.4-54.2C373.7,662.6,365.6,660.7,365.6,668.5z"/>
	</g>
	<g>
		<path class="st1" d="M257.5,409.2c2,0,4.3-1.2,4.8-3.3v-0.2v-0.2c-1.3-7.5-2.4-15.1-3.5-22.5c-0.3-1.9-0.6-3.9-0.9-5.8
			c-1.6-10.4-2.8-21.3-3.8-33.1v-0.5l-0.5-0.3c-0.1-0.1-0.2-0.2-0.3-0.4c-1.4-3.1-5.3-10.3-10.1-10.3c-1.4,0-2.7,0.6-3.9,1.8
			c-2,1.9-2.6,5.1-3,8c-1,7.8,0.4,16,1.9,23.1c1.9,8.8,4.6,17.5,8.1,25.9c1.8,4.3,3.7,8.4,5.8,12.1c0.2,0.3,0.4,0.7,0.6,1.1
			c0.7,1.5,1.6,3.5,3,4.2C256,409.1,256.7,409.2,257.5,409.2z"/>
		<path class="st2" d="M257.5,373.9l-8.2-17.4l-7.4-10.9c0,0-3.2-3.6-5.1-2s-2.1,15.7,0,20.6s16.5,24,16.5,24l-4.2-11l-4.3-13.9
			c0,0,1.7-8.1,1.1-8.7s2,1.9,2,1.9L257.5,373.9z"/>
		<g>
			<path class="st3" d="M255.8,341.3c-2.3-4.9-6.3-11.5-12.3-11.9c-4.1-0.3-7.2,2.9-8.7,6.4c-3.9,9-1.6,20.6,0.3,29.8
				c2.8,13.1,7.3,26,13.5,37.9c2,3.7,3.6,8.5,8.4,8.7c4.2,0.1,7-2.6,7.4-6.7c0.2-2.6-3.8-2.5-4,0c-0.3,3.1-3.6,3.2-5.2,1.5
				c-1.2-1.3-2-3.4-2.8-5c-2.1-4-4.1-8.2-5.8-12.4c-3.3-8.1-5.9-16.5-7.7-25.1c-1.5-7-2.6-14.4-1.8-21.5c0.3-2.5,0.8-5.4,2.3-7.4
				c5-6.5,11.1,3.7,13,7.7C253.4,345.6,256.9,343.6,255.8,341.3L255.8,341.3z"/>
		</g>
		<g>
			<path class="st3" d="M260.3,377.2c-2-5.6-15.7-41.8-24.5-34c-1.5,1.3,0.7,3.4,2.1,2.1c3.9-3.4,18.3,29.1,19.5,32.7
				C258.1,379.8,261,379.1,260.3,377.2L260.3,377.2z"/>
		</g>
		<g>
			<path class="st3" d="M244.6,351c-1,12.8,1.9,26.5,7.5,38c0.8,1.7,3.4,0.2,2.6-1.5c-5.4-11-8-24.2-7.1-36.5
				C247.7,349,244.7,349,244.6,351L244.6,351z"/>
		</g>
	</g>
	<g>
		<path class="st0" d="M485.7,409.2c-2,0-4.3-1.2-4.8-3.3v-0.2v-0.2c1.3-7.5,2.4-15.1,3.5-22.5c0.3-1.9,0.6-3.9,0.9-5.8
			c1.6-10.4,2.8-21.3,3.8-33.1v-0.5l0.5-0.3c0.1-0.1,0.2-0.2,0.3-0.4c1.4-3.1,5.3-10.3,10.1-10.3c1.4,0,2.7,0.6,3.9,1.8
			c2,1.9,2.6,5.1,3,8c1,7.8-0.4,16-1.9,23.1c-1.9,8.8-4.6,17.5-8.1,25.9c-1.8,4.3-3.7,8.4-5.8,12.1c-0.2,0.3-0.4,0.7-0.6,1.1
			c-0.7,1.5-1.6,3.5-3,4.2C487.1,409.1,486.5,409.2,485.7,409.2z"/>
		<path class="st1" d="M485.8,373.9l8.2-17.4l7.4-10.9c0,0,3.2-3.6,5.1-2s2.1,15.7,0,20.6s-16.5,24-16.5,24l4.2-11l4.3-13.9
			c0,0-1.7-8.1-1.1-8.7s-2,1.9-2,1.9L485.8,373.9z"/>
		<g>
			<path class="st3" d="M490.9,343.3c1.9-4,7.5-13.9,12.7-8c1.7,1.9,2.2,4.8,2.5,7.2c1,7.5-0.3,15.3-1.9,22.6
				c-1.8,8.6-4.5,17-7.8,25.1c-1.7,4.2-3.6,8.3-5.8,12.3c-0.7,1.4-1.9,4.5-3.3,5.3c-1.9,1.1-5.1-0.3-5.4-2.5c-0.3-2.5-4.3-2.6-4,0
				c0.4,4.2,3.3,6.6,7.5,6.7c5,0.1,6.5-3.5,8.6-7.5c6.5-11.9,11.1-25.1,14-38.4c2-9.2,4.3-21,0.6-30.1c-1.4-3.5-4.2-6.6-8.3-6.7
				c-6.3-0.1-10.6,6.9-12.9,11.8C486.3,343.6,489.8,345.6,490.9,343.3L490.9,343.3z"/>
		</g>
		<g>
			<path class="st3" d="M485.8,378c1.2-3.5,15.6-36.1,19.5-32.7c1.4,1.3,3.6-0.8,2.1-2.1c-8.9-7.8-22.6,28.4-24.5,34
				C482.3,379.1,485.2,379.8,485.8,378L485.8,378z"/>
		</g>
		<g>
			<path class="st3" d="M495.7,351c1,12.3-1.7,25.4-7.1,36.5c-0.8,1.7,1.7,3.3,2.6,1.5c5.6-11.5,8.5-25.2,7.5-38
				C498.6,349,495.6,349,495.7,351L495.7,351z"/>
		</g>
	</g>
	<g>
		<g>
			<path class="st1" d="M361.7,330.3c0,0-14.8,1.4-15.3,20c-0.1,4.2-1.5,27.8-2.1,37.3c-5.2,3.5-10.6,8.1-12,9.9
				c-11.7,14.7,19.4,0.3,19.4,0.3l6.5-2.7l-0.6-1.2c0.2,0,0.4,0,0.6,0C362.3,393.9,361.7,330.3,361.7,330.3z"/>
		</g>
		<g>
			<path class="st2" d="M386.4,398.6l-10.6,3.5l-5.9-1.2c0,0-19.1-8.3-18.9-7.1c2.7,13,23.9,45.4,44.8-1.2
				C396.5,391.4,386.4,398.6,386.4,398.6z"/>
		</g>
		<g>
			<path class="st3" d="M351.3,385.1c-1,2.4-2.8,6.1-0.9,8.4c1.4,1.8,4.7,2.7,6.6,3.5c4.7,2,11.1,5.5,16.4,5.3
				c5.6-0.2,12.2-3.6,17.3-5.8c1.8-0.8,4.8-1.7,5.9-3.6c1.7-2.8-0.6-6.3-2.3-8.4c-1.6-2-4.5,0.9-2.8,2.8c2.7,3.2,1.7,3.6-1.1,5
				c-2.2,1.1-4.6,2-6.9,2.8c-3,1.1-7.3,3.3-10.6,3.1c-3.8-0.2-8.3-2.5-11.8-3.9c-1.9-0.8-4.5-1.5-6.1-2.8c-0.3-0.3-1.4-0.5-1.6-0.9
				c-0.1-0.2,1.7-3.9,1.9-4.5C356.2,383.8,352.3,382.8,351.3,385.1L351.3,385.1z"/>
		</g>
	</g>
	<g>
		<path class="st3" d="M252.6,347.8c1,15,3.2,29.9,5.3,44.7c2.3,15.9,4.2,32.6,9,48c2.6,8.3,10.1,13.7,16.2,19.5
			c12.3,11.7,24.8,23.3,37.8,34.2c4.9,4.1,9.8,8.3,15.2,11.7c4.7,3,10.1,3.8,15.6,4.4c16.9,1.8,35,1,51.8-1.7
			c9.7-1.6,17.2-11.5,23.6-18.1c11.8-12.1,23-24.7,34-37.5c5.4-6.3,13-12.9,15.4-21.1c4.7-16.3,7.1-33.5,9.7-50.2
			c5.4-34.4,6.3-69.3,6.9-104.1c0.3-15,1.1-30.6-0.9-45.5c-1.3-9.7-10.8-16.5-17.8-22.2c-15.1-12.5-31.9-23.3-49.7-31.7
			c-17.5-8.3-36.6-14.7-56.2-12.8c-21.9,2.2-43.2,10.9-62.1,21.9c-16.4,9.5-33.6,21.7-44,37.9c-6.6,10.3-6.5,22.8-7.5,34.6
			c-1.6,20.5-2.7,41.1-2.9,61.6C252.1,330.2,252.1,339,252.6,347.8c0.2,2.6,4.2,2.6,4,0c-1.1-18.8-0.4-37.7,0.5-56.4
			c0.8-16.7,1.6-33.4,3.8-50c1.8-13.6,11.8-23.9,21.8-32.5c16.7-14.5,36.9-25.7,57.8-33c19.1-6.6,38.2-9.2,57.9-3.7
			c19.6,5.4,37.9,15.4,54.8,26.7c7.2,4.8,14.3,10,20.9,15.7c4.3,3.7,9,7.6,12.4,12.3c2.1,3,2.2,6.3,2.5,9.9
			c0.5,6.7,0.6,13.5,0.6,20.2c0.1,19-0.5,38-1.3,56.9c-0.6,15.2-1.1,30.5-2.7,45.6c-1.9,17.2-4.9,34.4-8.2,51.4
			c-1.7,9-2.4,19.7-8.4,27.1c-8.8,10.7-18,21.1-27.3,31.3c-9.7,10.8-19.5,22-30.6,31.4c-3,2.5-5.2,3.7-9,4.2
			c-7.7,1.2-15.5,1.6-23.2,1.9c-9.1,0.4-18.4,0.5-27.5-0.5c-5.7-0.6-10.3-1.8-15-5.1c-12.1-8.4-23-18.8-33.9-28.7
			c-9.6-8.8-19.4-17.6-28.4-27c-2.1-2.2-2.9-4.7-3.7-7.8c-1.9-7-3.2-14.1-4.5-21.2c-3-17.1-5.5-34.4-7.5-51.6
			c-0.7-5.6-1.3-11.3-1.7-17C256.5,345.3,252.5,345.2,252.6,347.8z"/>
	</g>
	<g>
		<path class="st3" d="M320.9,512.4c6.2,24.2,13.5,49.1,23.9,71.9c0.8,1.8,3.4,0.2,2.6-1.5c-10.3-22.6-17.5-47.2-23.6-71.2
			C323.3,509.7,320.4,510.5,320.9,512.4L320.9,512.4z"/>
	</g>
	<g>
		<path class="st3" d="M324.7,554.5c3.5,9,7.4,17.8,11.9,26.3c0.9,1.7,3.5,0.2,2.6-1.5c-4.3-8.3-8.2-16.9-11.6-25.6
			C326.9,551.9,324,552.7,324.7,554.5L324.7,554.5z"/>
	</g>
	<g>
		<path class="st3" d="M604.2,636.2c-33.8-28.8-75.3-46.7-115.1-65.4c-6.9-3.2-13.8-6.4-20.4-10.1c-2.9-1.6-8.1-3.7-9.7-6.9
			c-1.5-2.9-0.7-9.2-0.8-12.7c-0.3-8.6-0.5-17.3-0.6-26c-0.3-18.9-0.6-37.7-0.6-56.6c0-2.6-4-2.6-4,0c0,16.9,0.3,33.8,0.5,50.7
			c0.2,9.3,0.3,18.6,0.6,27.9c0.2,5.3-0.1,11,0.8,16.3c0.6,3.4,3.2,5.3,5.9,7.1c5.2,3.6,11.1,6.3,16.8,9.1
			c18.4,9,37.2,17.2,55.5,26.4c24,12.1,47.9,25.4,68.4,42.9C603.3,640.7,606.2,637.8,604.2,636.2L604.2,636.2z"/>
	</g>
	<g>
		<path class="st3" d="M152.6,632.3c34.4-26.1,74.4-42.8,113-61.4c5.9-2.8,11.8-5.6,17.3-9c2.7-1.7,6.4-3.8,7.6-7
			c1.3-3.5,0.8-8.5,0.9-12.2c0.3-8,0.5-15.9,0.6-23.9c0.4-18.1,0.6-36.2,0.7-54.3c0-2.6-4-2.6-4,0c0,15.3-0.2,30.6-0.5,45.9
			c-0.1,8.3-0.3,16.6-0.5,24.9c-0.2,5.5,0.1,11.3-0.7,16.7c-0.5,3-3,4.4-5.6,6c-5.1,3.2-10.6,5.9-16,8.5
			c-17.1,8.3-34.5,16-51.5,24.4c-22,11-43.7,22.9-63.3,37.8C148.6,630.4,150.6,633.8,152.6,632.3L152.6,632.3z"/>
	</g>
	<g>
		<path class="st3" d="M197.8,642.6c27.9,2.4,55.9,3.4,83.8,1.9c13.8-0.7,27.5-2,41.2-3.6c11.9-1.4,28.8-6.3,38.7,2.9
			c1.4,1.3,3.6-0.8,2.1-2.1c-8.6-7.9-20.6-6.3-31.3-4.9c-15.1,1.9-30.3,3.5-45.6,4.4c-29.7,1.8-59.4,0.9-89-1.6
			C195.8,639.4,195.9,642.4,197.8,642.6L197.8,642.6z"/>
	</g>
	<g>
		<path class="st3" d="M369.2,646.4c6.2,3.3,11.4-1.6,16.7-4.4c7.5-4.1,16.6-3.1,24.9-3.2c14.9,0,29.8-0.1,44.6,0.7
			c15.3,0.8,30.4,2.4,45.7,2.2c12.2-0.1,24.4-0.3,36.6-1c1.9-0.1,1.9-3.1,0-3c-11.8,0.7-23.6,0.8-35.4,1c-15,0.2-29.8-1.1-44.8-2.1
			c-14.2-0.9-28.5-0.8-42.7-0.8c-6.8,0-13.8-0.4-20.5,0.4c-3.6,0.4-6.8,1.4-9.9,3.2c-4,2.2-8.9,7-13.7,4.4
			C369,642.9,367.5,645.5,369.2,646.4L369.2,646.4z"/>
	</g>
	<g>
		<path class="st3" d="M423.1,518.1c-3.5,17.7-8.1,35.6-13.6,52.9c-0.6,1.8,2.3,2.6,2.9,0.8c5.5-17.2,10.1-35.1,13.6-52.9
			C426.3,517,423.4,516.2,423.1,518.1L423.1,518.1z"/>
	</g>
	<g>
		<path class="st3" d="M420.2,556.2c-2.2,7.4-4.7,14.6-7.7,21.8c-0.7,1.8,2.2,2.6,2.9,0.8c3-7.1,5.5-14.4,7.7-21.8
			C423.6,555.1,420.7,554.3,420.2,556.2L420.2,556.2z"/>
	</g>
	<g>
		<path class="st3" d="M367.6,681.6c1.9,11.5,3.3,23,4,34.6c0.1,1.9,3.1,1.9,3,0c-0.7-11.9-2.1-23.7-4.1-35.4
			C370.2,678.9,367.3,679.7,367.6,681.6L367.6,681.6z"/>
	</g>
	<g>
		<path class="st3" d="M373.1,672.9c1.6,12.2,2.8,24.4,3.6,36.7c0.1,1.9,3.1,1.9,3,0c-0.8-12.3-2-24.5-3.6-36.7
			C375.9,671,372.9,671,373.1,672.9L373.1,672.9z"/>
	</g>
</g>
</svg>
