<?xml version="1.0" encoding="utf-8"?>
<!-- Generator: Adobe Illustrator 19.2.0, SVG Export Plug-In . SVG Version: 6.00 Build 0)  -->
<svg version="1.1" id="Layer_1" xmlns="http://www.w3.org/2000/svg" xmlns:xlink="http://www.w3.org/1999/xlink" x="0px" y="0px"
	 viewBox="0 0 739.6 909.9" style="enable-background:new 0 0 739.6 909.9;" xml:space="preserve">
<style type="text/css">
	.st0{fill:#C47546;}
	.st1{fill:#814927;}
	.st2{fill:#3A291D;}
</style>
<g>
	<path class="st0" d="M253.6,332.6c-5.7-22.1-11.4-44.8-13.2-67.6l3,0.5l0-0.2l0-0.2h0c0.1,0,0.1-0.4,0.1-0.6l-3.1,0l-0.1,0
		c-0.4-5-0.6-10.1-0.5-15.1c0.2-24.3,7.9-40.9,22.9-49.5l1.3-0.7l-0.3-1.4c-1.5-7.1-1.7-13.8-0.8-19.9c1.4-9.4,7.9-26.5,35-35.4
		l0.7-0.1l0.4-0.5c6.3-6.3,12.7-9.6,18.9-9.6c1.1,0,2.2,0.1,3.3,0.3l0.9,0.2l0.7-0.6c4.6-3.8,9.3-5.7,14-5.7c2,0,4.1,0.4,6.1,1.1
		l0.9,0.3l0.8-0.4c0.7-0.3,1.3-0.6,1.9-0.9c2.1-0.9,4.3-1.3,6.1-1.3c3.6,0,4.5,1.9,4.7,2.6l0.9,2l1.9-1c3.9-1.9,8-3.3,12.3-4.1
		l0.6-0.1c1.7-0.3,3.7-0.7,5.5-0.7c1,0,1.9,0.1,2.6,0.3l0.8,0.4l0.8-0.3c3.4-1.3,7.2-2,11.4-2c5.8,0,12.3,1.2,20.5,3.9l0.4,0.1
		l0.5-0.1c1.7-0.2,3.5-0.4,5.3-0.4c4.7,0,9.8,0.8,15.6,2.4l0.7,0.4l0.7-0.2c1.2-0.3,2.4-0.5,3.6-0.6c0.5,0,0.9,0,1.4,0
		c11.6,0,23,10,24.8,21.8l0.1,0.8l0.7,0.5c5.3,4,9.6,10,12.6,17.4l0.2,0.5l0.4,0.3c5.6,4.5,9.1,13,10.4,16.8l-1.2,0.9l1.1,1.6
		c7.6,10.5,10.7,26.2,7.4,38.1l-0.3,1.1l0.8,0.8c3,3.2,6.3,8.4,5.2,15.5l-2.3,0.3l1.3,2.6c4,8,3.8,17.9,3.2,26.5l-3.1,0.1
		c-0.2,10.4-2.6,20.9-4.7,28.9l-0.1,0.2l-0.1,0.4c-1.6,7.8-4.7,15.6-7.7,23c-0.7,1.8-1.5,3.7-2.2,5.5c1.6-14.4,0.7-28.8-0.4-41.1
		c-1-11.5-2.6-25-6.1-38.1l0-0.3l-0.1-0.2c-1.9-4.7-3.2-8.9-4-13l-0.1-0.6l-0.4-0.4c-8.9-9-16.9-19.1-23.9-30.2l0.3-4.7l-3.1,2.7
		l-2.9-2.3c-1.8,1.6-3.6,2.4-5.5,2.4c-0.3,0-0.6,0-0.9-0.1l-1.3-0.2l-0.7,1.1c-1.3,2-3,3.8-4.8,5.5c-3.5,3.3-8.8,7.1-14,8.1H421
		l-0.7,0.5c-1,0.7-1.8,1.3-2.7,1.8l-0.2,0l-0.3,0.1c-0.8,0.3-1.7,0.4-2.6,0.4c-0.5,0-1.1,0-1.7-0.1c-0.6-0.1-2-0.3-2.7-0.8l-1.8-1.2
		l-1.1,1.8c-1.1,1.9-2.4,3.8-3.8,5.5l-0.1,0l-0.4,0.3c-0.9,0.5-1.9,0.8-3.1,0.8c-1.7,0-3.6-0.6-5.2-1.6l-2-1.3l-1,2.2
		c-0.3,0.6-0.5,1.2-0.8,1.8l-0.3,0.2l0,0c-1.4,0.2-2.8,0.3-4.3,0.3c-1.4,0-2.7-0.1-4.1-0.3l-1.3-0.2l-0.7,1c-1.2,0.8-3.1,1-5,1.2
		c-0.4,0-0.9,0.1-1.3,0.1c-2.3,0.3-4.7,0.4-7.2,0.4c-1,0-2.1-0.4-3.2-0.5l0-0.4h-1.4l-0.6,1.4c-0.3,0.5-0.6,1.2-1,1.6l-0.5-0.2
		l-0.9,0.5l-0.4-0.1l-0.4,0.1c-2.3,0.4-4.6,0.6-6.8,0.6c-3.8,0-7.6-0.6-11.2-1.9l-1.6-0.5l-0.6,1l0,0l-0.4,0.2l0,0
		c-6.9-1.7-14.1-3.4-19.8-7.5l-1-0.7l-0.9,0.4l-0.3-0.1l-0.5,0c-7-0.2-16.2-2.9-20.7-9.8l-0.3-0.5l-0.6-0.2
		c-4.5-1.9-8.1-4.8-10.7-8.5l-3.9-5.6l0.2,6.8c0.2,7.1-0.9,14.6-3.1,21.8l-0.4,0.1l-0.3,0.4c-7.5,1.5-10.5,11.2-12.2,16.9l-0.1,0.4
		c-3.3,10.5-4.9,21.4-6.1,31.7C255.2,296.7,254.3,313.2,253.6,332.6z"/>
	<g>
		<path class="st1" d="M490.1,324.7c0.6-9.8,0.3-20.7-0.9-34.2c-0.9-10.2-1.9-18-3.2-25.2l1.9-0.6l0.6,1.2
			c6.7,13.6,10.1,24.7,11.2,36.1l0,0.2l0,0.1c-1.7,8.2-5,16.4-7.6,23L490.1,324.7z"/>
		<path class="st1" d="M248,309.7c-0.6-2.4-1.1-4.9-1.6-7.3l-0.2-0.9l0.9-0.3c2.3-0.7,4.7-1.3,7-1.8l1.3-0.3l-0.1,1.3
			c-0.2,2.3-0.3,4.7-0.5,7l0,0.8l-0.8,0.1c-1.4,0.2-2.9,0.9-4.4,1.8l-1.2,0.8L248,309.7z"/>
		<path class="st1" d="M245.7,299.4c-0.5-2.3-1-4.8-1.5-7.4l-0.3-1.4l1.4,0.2c3.3,0.4,6.5,0.7,9.6,0.9l1,0.1l-0.1,1
			c-0.1,1.5-0.3,3-0.4,4.6l-0.1,0.8l-0.8,0.1c-2.6,0.5-5.1,1.1-7.7,1.9l-1.1,0.3L245.7,299.4z"/>
		<path class="st1" d="M257.1,272.4c-4.3-1-8-1.4-11.4-1.4c-1.3,0-2.5,0.1-3.7,0.2l-1,0.1l-0.1-1c-0.2-1.5-0.3-3.1-0.4-4.7l-0.1-1.5
			l0.8,0.2l1.3,0c0,0.1,0,0.1,0,0.2c0,0,0.1,0,0.1,0c0.2,0,0.4,0,0.5,0c1.6,0,3.2,0.1,4.9,0.1c4.1,0.2,7.3,0.5,10.2,1.1l1,0.2
			l-0.2,1c-0.2,1.4-0.5,2.8-0.7,4.2l-0.2,1.5L257.1,272.4z"/>
		<path class="st1" d="M506.1,264.4c-3.2-6.1-9.1-10.8-14.7-15.3c-2.2-1.8-4.5-3.6-6.5-5.4c-6.7-6.1-13.1-12.9-18.9-20.2l1.3-1.5
			c4,2.4,8.4,4.5,12.7,6.4c3.4,1.5,6.8,3.1,10.1,4.9c5.6,3.1,11.7,7.1,14.9,13.9c2.1,4.5,3.1,9.8,3,16.8L506.1,264.4z"/>
		<path class="st1" d="M261.4,250.6c-7.5-1.6-14.5-4.7-20.8-9.1l-0.5-0.3l0.1-0.6c0.2-2.2,0.5-4.3,0.8-6.3l0.3-2l1.4,1.4
			c5.7,5.9,12.6,10,19.9,12.1l1,0.3l-0.3,1c-0.3,0.9-0.5,1.8-0.8,2.8l-0.2,0.9L261.4,250.6z"/>
		<path class="st1" d="M503.6,243.4c-1.9-2.9-4.5-5.5-7.5-7.7c-4.7-3.3-10.1-5.8-15.3-8.1c-7.4-3.4-15.1-6.8-21-12.8
			c0,0-0.1-0.1-0.1-0.1l-0.2-0.1l-0.1-0.2c-0.7-1-1.4-2-2.1-3l-2.1-3.1l3.4,1.7c6.8,3.3,13.8,6,22.1,8.3c17.8,5.1,26.4,13.7,25,24.8
			l-0.4,2.7L503.6,243.4z"/>
		<path class="st1" d="M263.1,244.8c-7.9-2.2-15.2-6.9-21.1-13.5l-0.3-0.4l0.1-0.5c1-4.5,2.4-8.7,4.2-12.4l0.8-1.8l1,1.7
			c4.5,8,10.6,15,18,20.7l0.1,0l0.6,0.6l-0.3,0.7c-0.6,1.3-1.2,2.7-1.8,4.2l-0.3,0.9L263.1,244.8z"/>
		<path class="st1" d="M351.9,235.9c-3.7,0-7.5-0.6-11.2-1.8l-1-0.3l0.3-1c2.9-8.4,2.3-18.2,1.8-26.1c-0.3-4-0.6-8-0.9-11.9
			c-0.3-3.1-0.5-6.1-0.7-9.2l2-0.4c1.9,6,4.3,12.1,6.7,17.9c4.1,9.9,8.3,20.2,9.7,31.2l0.1,1l-1,0.2
			C355.8,235.7,353.8,235.9,351.9,235.9z"/>
		<path class="st1" d="M270.2,232.7c-6.5-9.1-11-18.6-13.3-28.1l-0.2-0.7l0.5-0.4c1.4-1.1,3-2.2,4.6-3.2l1.2-0.7l0.3,1.3
			c1.4,5.7,3.6,11.7,6.5,17.9c1.5,3.2,3.5,7.3,6,11l0.8,1.2l-1.4,0.3c-1.2,0.3-2.4,0.8-3.5,1.6l-0.8,0.6L270.2,232.7z"/>
		<path class="st1" d="M386.4,230.5c-1.2,0-2.4-0.1-3.5-0.2l-1-0.1l0.1-1c0.9-8.3,0.8-16.9,0.7-25.2c-0.1-7.1-0.1-14.4,0.4-21.5
			c0.7-9.3,1.8-20,4.9-29.7l2,0.4c-1,10.9,0.7,21.8,2.8,31.9c3.4,16.7,5.4,30.6-1.6,44.6l-0.2,0.5l-0.5,0.1
			C389.1,230.5,387.7,230.5,386.4,230.5z"/>
		<path class="st1" d="M275.5,227.5c-6.3-10-10.8-22-12.5-34c-1.6-10.9-0.2-20.8,4-28.7c4.8-9,13.6-16.1,26-20.9l3.6-1.4l-2.4,3
			c-1.9,2.4-3.7,5-5.4,7.7c-4.6,7.4-14.8,26.8-10.5,45.3l0,0.1l0,0.1c0,0.1,0,0.1,0,0.2c2,8.6,1.7,18.3-0.9,28.3l-0.6,2.3
			L275.5,227.5z"/>
		<path class="st1" d="M314.6,226.7c-15.6-0.8-21.9-10.1-22.5-17.8c-0.7-8.4,1-16.9,2.8-24.1c5.5-22.5,14.1-39.5,25.4-50.5
			c5.4-5.2,11.2-8,16.8-8c1,0,2,0.1,2.9,0.2l2.6,0.4l-2.3,1.4c-6.5,4.1-12.8,10.6-18.2,18.9c-8.5,13-12.5,27.1-11.5,40.9
			c0.4,5.4,1.4,10.7,2.3,15.9c1.3,7,2.6,14.3,2.6,21.6l0,1.1L314.6,226.7z"/>
		<path class="st1" d="M478.8,163c-6.1-11.2-15.6-17.6-26.2-17.6c-2.3,0-4.7,0.3-7.1,0.9l-0.2,0.1l-0.5,0.1l-0.2,0.4
			c0,0.1-0.1,0.1-0.1,0.2c-4.8,5.3-6,12.9-6.6,19.6c-0.4,3.6-0.6,7.3-0.8,10.8c-0.2,3.7-0.4,7.5-0.8,11.2
			c-1.3,12.7-4.5,21.6-10.1,27.9l1.3,1.6c3.6-2,7.1-5.1,9.3-7.4c3.7-3.8,6.2-8.2,7.4-13.1c0-0.1-0.1-0.2,0-0.4
			c0.4-1.9,0.8-3.7,1-5.6c0-0.3,0.2-0.4,0.3-0.6c3.6-10.2,8.2-17.6,14.6-23.1c2.8-2.4,8.1-4.9,12.8-4.9c1.8,0,3.4,0.4,4.6,1.1
			l3.1,1.8L478.8,163z"/>
		<path class="st1" d="M498.8,211.7c-3.1-4.6-8.6-8.8-14.8-11.4c-4-1.7-8.1-2.5-12.2-2.5c-5.4,0-10.6,1.5-15.4,4.3l-1.4-1.4
			c6.2-9.2,12.9-15,20.5-17.5c1.4-0.5,4.2-1.2,7.4-1.2c1.4,0,2.7,0.1,3.8,0.4l0.4,0.1l0.2,0.4c0,0.1,0.1,0.1,0.1,0.1
			c7,6.3,11.9,16.8,13.1,28.1L498.8,211.7z"/>
		<path class="st1" d="M414.7,168.2c0.5-6.4,1.6-12.2,3.5-17.6c3.8-11.3,9.9-18.8,17.5-21.7c2.3-0.9,4.7-1.3,7.2-1.3
			c4.3,0,8.6,1.3,12.6,3.7c5.7,3.5,9.8,8.9,11.7,15.1l0.7,2.4l-2.2-1.2c-4-2.2-8.3-3.3-12.9-3.3c-1.9,0-3.8,0.2-5.7,0.5
			c-12.4,2.3-23.8,11.3-30.5,23.9L414.7,168.2z"/>
		<path class="st1" d="M364.9,232.4c16.2-8.7-1.4-102.9,39.8-110.1c1.7-0.3,6.6,2,6.6,2l-2.3,2.8l-10.4,6.7l-6.9,9.6l-6.8,18.4
			l-2.8,30.3v24l-0.7,15.2l-4.6,1.1C376.7,232.4,363.9,232.9,364.9,232.4z"/>
		<path class="st1" d="M357.4,127.5c0,0-19.4,5.1-28.1,29.4c-6.2,17.3,0,37.2-1,56c-0.4,8.2-3.5,18.4-3.5,18.4l13.1,3.2l3.3-8.9
			l-1.5-43.9l-1.1-9.6l1.1-13.1l2.4-10.9l5.5-10.4l6.7-6.3L357.4,127.5z"/>
	</g>
	<g>
		<g>
			<g>
				<path class="st2" d="M339.9,235.8c4.1-8.9,3.5-19.3,2.9-28.9c-0.8-12.7-2.5-25.3-2.3-38c0.2-12.4,2.3-25.6,12.1-34.2
					c4.9-4.3,10.9-7.2,17.3-8.7c3.1-0.8,7.8-2,11-1c1.8,0.6,2.6-2.3,0.8-2.9c-2.9-0.9-6.6-0.2-9.5,0.4c-6,1.1-11.8,3.3-16.9,6.6
					c-10.4,6.8-15.4,17.4-16.9,29.5c-1.7,13.1-0.2,26.4,0.9,39.5c1,11.5,3.1,25.4-1.9,36.3C336.5,236,339.1,237.5,339.9,235.8
					L339.9,235.8z"/>
			</g>
		</g>
		<g>
			<g>
				<path class="st2" d="M361.9,236.9c4.2-4.3,3.9-12.2,3.9-17.8c0-10.3-1-20.5-1.5-30.7c-0.5-11.3-0.9-22.7,0.8-33.9
					c1.3-9.2,4.1-19.4,11.5-25.7c10.5-8.9,26-5.7,37.9-1.9c1.8,0.6,2.6-2.3,0.8-2.9c-11.1-3.6-24.2-6.3-35.2-1
					c-8.4,4-13.3,12.3-15.8,20.9c-6.3,21.4-2.7,44.9-1.7,66.8c0.2,5,0.4,10.1,0,15.1c-0.3,2.9-0.6,6.7-2.8,9
					C358.5,236.1,360.6,238.3,361.9,236.9L361.9,236.9z"/>
			</g>
		</g>
		<g>
			<g>
				<path class="st2" d="M382.8,230.8c1.9-15.9,0.1-32.1,1.2-48.1c1.2-17.1,3.9-39.9,19.1-50.8c9.7-7,22.2-6,33.1-2.9
					c1.9,0.5,2.7-2.4,0.8-2.9c-10-2.8-21-4-30.7,0.5c-7.9,3.7-13.5,10.6-17.1,18.4c-8.5,18.4-8.8,40.1-8.9,59.9
					c0,8.6,0.5,17.3-0.5,25.8C379.6,232.7,382.6,232.7,382.8,230.8L382.8,230.8z"/>
			</g>
		</g>
		<g>
			<g>
				<path class="st2" d="M392.8,231c6.5-12.7,5.9-25.9,3.3-39.5c-3.1-16.1-6.8-31.7-2.3-47.9c0.5-1.9-2.4-2.7-2.9-0.8
					c-3.9,14.3-2,28.3,0.9,42.6c3.1,15,5.7,29.9-1.6,44.2C389.3,231.2,391.9,232.7,392.8,231L392.8,231z"/>
			</g>
		</g>
		<g>
			<g>
				<path class="st2" d="M405,229.4c9-11,11.3-23.6,10.8-37.5c-0.5-14.1-1.3-27.1,3.2-40.7c2.9-8.6,8-17.8,16.8-21.3
					c6.3-2.4,13.2-1.3,18.8,2.1c6.4,3.9,11.1,10.4,12.2,17.9c0.3,1.9,3.2,1.1,2.9-0.8c-2-13.3-15-24.6-28.7-23.5
					c-21.2,1.7-28.5,29.5-29.1,46.8c-0.6,19.5,4.4,38.4-9.2,54.9C401.7,228.8,403.8,230.9,405,229.4L405,229.4z"/>
			</g>
		</g>
		<g>
			<g>
				<path class="st2" d="M483.3,167.9c-6.1-15.5-18.9-27.3-36.4-23.9c-15.8,3-28.6,16-33.9,30.7c-0.7,1.8,2.2,2.6,2.9,0.8
					c4.8-13.2,16.1-24.7,30-28.2c16.5-4.1,28.9,6.8,34.6,21.4C481.1,170.5,484,169.7,483.3,167.9L483.3,167.9z"/>
			</g>
		</g>
		<g>
			<g>
				<path class="st2" d="M443.1,145.6c-8.3,9.1-7.5,23.8-8.2,35.2c-1,15.3-3.1,32.3-17.8,40.6c-1.7,0.9-0.2,3.5,1.5,2.6
					c13.1-7.3,17.2-21.2,18.7-35.3c0.8-7.3,0.9-14.7,1.6-22c0.7-6.6,1.7-13.9,6.4-19C446.5,146.3,444.4,144.2,443.1,145.6
					L443.1,145.6z"/>
			</g>
		</g>
		<g>
			<g>
				<path class="st2" d="M451.7,207.9c5.4-9.8,13-20.2,24.1-23.9c4.7-1.6,12.6-2.4,15.7,2.7c0.9,1.4,3.3,0.5,2.7-1.2
					c-2.4-7.1-7.1-16.6-14.1-20.1c-5.5-2.8-11,0.8-14.4,5.1c-4.7,5.9-7.5,13.2-10.7,20c-2.1,4.4-6.1,14.8-12.4,13.8
					c-1.9-0.3-2.7,2.6-0.8,2.9c11.4,1.8,16.7-17.3,20.4-24.8c2.5-5.1,6.1-13.4,12.4-14.8c8.3-1.8,14.7,12.5,16.8,18.7
					c0.9-0.4,1.8-0.8,2.7-1.2c-3.5-5.7-11.6-6-17.4-4.6c-12.7,3.3-21.6,14.8-27.6,25.8C448.2,208.1,450.8,209.6,451.7,207.9
					L451.7,207.9z"/>
			</g>
		</g>
		<g>
			<g>
				<path class="st2" d="M486.8,183.7c10.8,9.8,15.7,28.8,11.8,42.7c-0.5,1.9,2.4,2.7,2.9,0.8c4.1-14.9-1-35.1-12.6-45.6
					C487.5,180.3,485.4,182.4,486.8,183.7L486.8,183.7z"/>
			</g>
		</g>
		<g>
			<g>
				<path class="st2" d="M451.5,208.3c8.6-8.3,20.2-10.9,31.4-6.3c7.2,2.9,16.6,9.7,16.9,18.3c0.1,1.9,3.1,1.9,3,0
					c-0.3-9.7-9.9-17.2-18-20.7c-12.5-5.4-25.6-2.7-35.4,6.6C448,207.5,450.1,209.6,451.5,208.3L451.5,208.3z"/>
			</g>
		</g>
		<g>
			<g>
				<path class="st2" d="M452.7,208.3c7.2,11.5,15.6,22.2,25.3,31.7c4.9,4.8,10,9.2,15.3,13.5c6.4,5.2,12.8,11.1,13.2,19.9
					c0.1,1.9,2.9,1.9,3,0c1.1-14.7,0.3-29.1-12.6-38.3c-11.4-8.2-26.4-10.9-36.5-21c-1.4-1.4-3.5,0.7-2.1,2.1
					c8.7,8.8,21.1,12.2,31.7,18.1c5.7,3.2,11.1,7.2,14,13.2c3.8,8,3.2,17.3,2.5,25.9c1,0,2,0,3,0c-0.7-14.5-14.9-22.1-24.5-30.8
					c-11.5-10.5-21.5-22.6-29.8-35.8C454.3,205.1,451.7,206.6,452.7,208.3L452.7,208.3z"/>
			</g>
		</g>
		<g>
			<g>
				<path class="st2" d="M453.7,208.5c8.3,4.5,16.3,7.8,25.5,10.3c11.6,3.3,28,10,25.2,25.1c-0.4,1.9,2.5,2.7,2.9,0.8
					c2.3-12.2-6.9-21.1-17.3-25.5c-5.9-2.5-12.3-3.7-18.4-5.7c-5.7-1.8-11.1-4.8-16.4-7.6C453.5,205,452,207.6,453.7,208.5
					L453.7,208.5z"/>
			</g>
		</g>
		<g>
			<g>
				<path class="st2" d="M476.9,238.6c1.8,9.9,6.3,18.8,10.7,27.7c5.7,11.5,10,23.2,11.1,36.1c0.1,1.6,2.5,2.1,2.9,0.4
					c3.3-12.6,6.1-26.5,4.3-39.6c-0.3-1.9-3.2-1.1-2.9,0.8c1.8,12.5-1.1,26-4.3,38c1,0.1,2,0.3,2.9,0.4c-1.1-12.1-4.7-23.3-9.9-34.2
					c-4.7-9.9-10.1-19.5-12-30.4C479.5,235.9,476.6,236.7,476.9,238.6L476.9,238.6z"/>
			</g>
		</g>
		<g>
			<g>
				<path class="st2" d="M481.1,252.6c3.3,12.3,4.9,25.1,6,37.8c1.3,14.8,2,30-0.1,44.8c-0.3,1.9,2.2,2.6,2.9,0.8
					c4-10.9,9.3-21.8,11.6-33.2c0.4-1.9-2.5-2.7-2.9-0.8c-2.3,11.5-7.6,22.3-11.6,33.2c1,0.3,1.9,0.5,2.9,0.8
					c2.2-15.1,1.6-30.5,0.2-45.6c-1.2-12.9-2.8-26-6.1-38.6C483.5,250,480.6,250.8,481.1,252.6L481.1,252.6z"/>
			</g>
		</g>
		<g>
			<g>
				<path class="st2" d="M317.7,227.5c0.4-10.6-2.1-20.7-3.8-31.1c-2.2-13.2-1.1-25.8,4.5-38c4.9-10.6,12.3-20.8,22.1-27.5
					c3.1-2.2,14.6-9.1,16.3-2c0.5,1.9,3.4,1.1,2.9-0.8c-1.6-6.5-9-5.5-13.9-3.5c-10.3,4.2-18.5,13.3-24.4,22.4
					c-7.9,12.1-12.6,26.2-11.6,40.8c0.9,13.4,5.4,26.3,4.9,39.8C314.6,229.4,317.6,229.4,317.7,227.5L317.7,227.5z"/>
			</g>
		</g>
		<g>
			<g>
				<path class="st2" d="M278,229.5c-7.2-10.4-12.2-23.6-14.1-36.1c-1.4-9.6-0.6-19.7,4.1-28.3c6.3-11.5,18-18,30-21.9
					c1.8-0.6,1-3.5-0.8-2.9c-17.9,5.9-33.6,17.7-36.4,37.4c-2,14.3,2.2,28.9,8.2,41.7c1.9,4,3.9,8.1,6.4,11.7
					C276.5,232.6,279.1,231.1,278,229.5L278,229.5z"/>
			</g>
		</g>
		<g>
			<g>
				<path class="st2" d="M294.2,215.3c-19.3-8.1-16.3-32.7-10-48.6c5.3-13.5,19.1-36.9,36.9-33.4c1.9,0.4,2.7-2.5,0.8-2.9
					c-14.7-2.9-26.9,10.9-33.9,22.1c-8.5,13.6-14.9,32.3-10.2,48.4c2.4,8.1,7.9,14.1,15.6,17.3C295.1,218.9,295.9,216,294.2,215.3
					L294.2,215.3z"/>
			</g>
		</g>
		<g>
			<g>
				<path class="st2" d="M316.8,225.7c-11,0.2-22.8-5.3-23.7-17.1c-0.6-7.8,0.9-15.9,2.7-23.4c4.3-17.7,11.9-37.3,25.2-50.2
					c6-5.8,13.6-9.7,21.9-6.7c1.8,0.7,2.6-2.2,0.8-2.9c-18-6.5-31.9,13.9-38.9,27.3c-5.2,9.8-9.1,20.4-11.8,31.2
					c-2.1,8.5-3.9,17.8-2.8,26.6c1.6,12.5,15,18.3,26.5,18.2C318.7,228.7,318.7,225.7,316.8,225.7L316.8,225.7z"/>
			</g>
		</g>
		<g>
			<g>
				<path class="st2" d="M315.2,227.5c6.4,5.4,14.5,7.3,22.4,9.2c1.9,0.4,2.7-2.4,0.8-2.9c-7.3-1.8-15.2-3.4-21.1-8.4
					C315.9,224.1,313.7,226.2,315.2,227.5L315.2,227.5z"/>
			</g>
		</g>
		<g>
			<g>
				<path class="st2" d="M261.9,197.8c-18.6,10.5-23.9,31.3-24.1,51.4c-0.2,29.5,7.5,59,14.8,87.3c0.4,1.7,2.9,1.3,2.9-0.4
					c0.6-18.6,1.5-37.3,3.7-55.8c1.2-10.4,2.8-20.9,5.9-30.9c1.7-5.4,4.5-15.2,11.2-16.3c1.9-0.3,1.1-3.2-0.8-2.9
					c-11.3,2-14.3,21.3-16.1,30c-3.6,17.7-5,35.9-5.9,53.9c-0.4,7.3-0.6,14.6-0.9,22c1-0.1,2-0.3,2.9-0.4
					c-6.9-26.9-14.1-54.6-14.7-82.5c-0.4-20.1,3.6-42.1,22.6-52.8C265.1,199.5,263.6,196.9,261.9,197.8L261.9,197.8z"/>
			</g>
		</g>
		<g>
			<g>
				<path class="st2" d="M443.3,196.9c-1.1,5.1-3.6,9.5-7.3,13.2c-3.4,3.5-9.2,8.5-14.3,9c-1.9,0.2-1.9,3.2,0,3
					c5.7-0.6,11.1-5,15.2-8.7c4.6-4.2,7.9-9.5,9.2-15.6C446.6,195.8,443.7,195,443.3,196.9L443.3,196.9z"/>
			</g>
		</g>
		<g>
			<g>
				<path class="st2" d="M447.1,192.5c2.3-6.9,5.4-13.7,10.4-19.1c2.6-2.8,5.4-5.6,9-6.9c3.1-1.1,8.7-2.2,11.3,0.6
					c1.3,1.4,3.4-0.7,2.1-2.1c-4.8-5.4-15.3-2-19.9,1.8c-7.9,6.4-12.6,15.3-15.8,24.8C443.6,193.5,446.5,194.3,447.1,192.5
					L447.1,192.5z"/>
			</g>
		</g>
		<g>
			<g>
				<path class="st2" d="M360.8,235.8c-1.2-10.8-4.3-20.7-8.5-30.7c-4.8-11.4-10.1-22.6-11.2-35.1c-0.2-1.9-3.2-1.9-3,0
					c2.1,23.2,17.3,42.5,19.8,65.7C358,237.7,361,237.8,360.8,235.8L360.8,235.8z"/>
			</g>
		</g>
		<g>
			<g>
				<path class="st2" d="M339.8,235.8c6.4,2.2,12.9,2.6,19.5,1.3c1.9-0.4,1.1-3.3-0.8-2.9c-6.1,1.2-12,0.7-17.9-1.3
					C338.7,232.3,338,235.2,339.8,235.8L339.8,235.8z"/>
			</g>
		</g>
		<g>
			<g>
				<path class="st2" d="M363.6,234.7c3.6,0.2,7.2,0.1,10.8-0.3c2.4-0.3,5.3-0.3,7.3-1.7c1.5-1.1,0-3.7-1.5-2.6
					c-2.1,1.5-5.8,1.4-8.3,1.6c-2.8,0.2-5.5,0.2-8.3,0.1C361.6,231.6,361.6,234.6,363.6,234.7L363.6,234.7z"/>
			</g>
		</g>
		<g>
			<g>
				<path class="st2" d="M381.6,232.2c3.3,0.5,6.4,0.4,9.7,0c1.9-0.3,1.1-3.2-0.8-2.9c-2.7,0.4-5.4,0.4-8.1,0
					C380.6,229,379.7,231.9,381.6,232.2L381.6,232.2z"/>
			</g>
		</g>
		<g>
			<g>
				<path class="st2" d="M393,228.6c3.1,2.4,7.7,3.5,11.2,1.3c1.6-1,0.1-3.6-1.5-2.6c-2.6,1.6-6,0.4-8.2-1.3
					C393,224.8,391.5,227.4,393,228.6L393,228.6z"/>
			</g>
		</g>
		<g>
			<g>
				<path class="st2" d="M408.6,223c0.9,1,2.8,1.3,4.1,1.5c2.1,0.3,4.1,0.2,6.1-0.7c1.8-0.8,0.2-3.4-1.5-2.6
					c-1.3,0.6-2.8,0.5-4.2,0.3c-0.7-0.1-2.1-0.5-2.3-0.7C409.4,219.5,407.3,221.6,408.6,223L408.6,223z"/>
			</g>
		</g>
		<g>
			<g>
				<path class="st2" d="M277.3,199.2c2.4,10.3,1.2,21.6-2,31.6c-0.6,1.8,2.3,2.6,2.9,0.8c3.4-10.5,4.5-22.4,2-33.2
					C279.7,196.5,276.8,197.3,277.3,199.2L277.3,199.2z"/>
			</g>
		</g>
		<g>
			<g>
				<path class="st2" d="M255,205.1c2.5,10.7,7.6,20.6,14,29.4c1.1,1.5,3.7,0,2.6-1.5c-6.3-8.6-11.3-18.2-13.7-28.7
					C257.4,202.4,254.5,203.2,255,205.1L255,205.1z"/>
			</g>
		</g>
		<g>
			<g>
				<path class="st2" d="M246,216.9c4.7,8.9,11.2,16.4,19.2,22.6c1.5,1.2,3-1.4,1.5-2.6c-7.6-5.8-13.7-13.1-18.1-21.5
					C247.6,213.7,245.1,215.2,246,216.9L246,216.9z"/>
			</g>
		</g>
		<g>
			<g>
				<path class="st2" d="M240.5,232.7c5.9,6.6,13.5,11.7,22.1,14.1c1.9,0.5,2.7-2.4,0.8-2.9c-8.1-2.2-15.2-7-20.8-13.3
					C241.3,229.1,239.2,231.3,240.5,232.7L240.5,232.7z"/>
			</g>
		</g>
		<g>
			<g>
				<path class="st2" d="M239.6,243.1c6.5,4.6,13.7,7.8,21.6,9.4c1.9,0.4,2.7-2.5,0.8-2.9c-7.6-1.6-14.5-4.6-20.9-9.1
					C239.5,239.4,238,242,239.6,243.1L239.6,243.1z"/>
			</g>
		</g>
		<g>
			<g>
				<path class="st2" d="M259.4,263.9c-3.9-0.8-7.9-1.1-12-1.3c-2.4-0.1-6-0.8-8.3,0.3c-0.5,0.2-0.7,0.8-0.7,1.3c0,0.1,0,0.1,0,0.2
					c0,1.9,3,1.9,3,0c0,1.4-1.4,0.7,0.2,1.2c0.4,0.1,1.1,0,1.5,0c1.6,0,3.2,0.1,4.8,0.1c3.6,0.2,7.1,0.5,10.6,1.2
					C260.5,267.2,261.3,264.3,259.4,263.9L259.4,263.9z"/>
			</g>
		</g>
		<g>
			<g>
				<path class="st2" d="M258.8,271.8c-5.9-1.4-12.5-2.5-18.5-1.4c-1.9,0.3-1.1,3.2,0.8,2.9c5.5-1,11.6,0.1,16.9,1.4
					C259.9,275.1,260.7,272.2,258.8,271.8L258.8,271.8z"/>
			</g>
		</g>
		<g>
			<g>
				<path class="st2" d="M243.7,291.6c4,0.5,7.9,0.9,11.9,1.1c1.9,0.1,1.9-2.9,0-3c-4-0.3-8-0.6-11.9-1.1
					C241.8,288.4,241.8,291.4,243.7,291.6L243.7,291.6z"/>
			</g>
		</g>
		<g>
			<g>
				<path class="st2" d="M246.3,302.5c3.2-1,6.5-1.8,9.8-2.4c1.9-0.3,1.1-3.2-0.8-2.9c-3.3,0.6-6.6,1.4-9.8,2.4
					C243.7,300.1,244.5,303,246.3,302.5L246.3,302.5z"/>
			</g>
		</g>
		<g>
			<g>
				<path class="st2" d="M249,313c1.4-1.1,3.5-2.5,5.3-2.6c1.9-0.2,1.9-3.2,0-3c-2.4,0.2-4.9,1.6-6.9,3
					C246,311.6,247.5,314.2,249,313L249,313z"/>
			</g>
		</g>
	</g>
</g>
</svg>
