<?xml version="1.0" encoding="utf-8"?>
<!-- Generator: Adobe Illustrator 19.2.0, SVG Export Plug-In . SVG Version: 6.00 Build 0)  -->
<svg version="1.1" id="Layer_1" xmlns="http://www.w3.org/2000/svg" xmlns:xlink="http://www.w3.org/1999/xlink" x="0px" y="0px"
	 viewBox="0 0 290 100" style="enable-background:new 0 0 290 100;" xml:space="preserve">
<style type="text/css">
	.st0{opacity:0.85;fill:url(#SVGID_1_);}
	.st1{opacity:0.85;fill:url(#SVGID_2_);}
	.st2{fill:#3A291D;}
</style>
<g>
	<g>
		<linearGradient id="SVGID_1_" gradientUnits="userSpaceOnUse" x1="191.0458" y1="85.3186" x2="209.1114" y2="17.8971">
			<stop  offset="0" style="stop-color:#17292D;stop-opacity:0.75"/>
			<stop  offset="1" style="stop-color:#0E1A1C"/>
		</linearGradient>
		<path class="st0" d="M161,31.8c6.4-13.9,65-15.6,76.8-4.1c11.5,11.2,7,47.8-11.3,56.6C193,100.6,146.2,64.1,161,31.8z"/>
		<linearGradient id="SVGID_2_" gradientUnits="userSpaceOnUse" x1="77.3743" y1="88.7818" x2="96.2511" y2="18.3323">
			<stop  offset="0" style="stop-color:#17292D;stop-opacity:0.75"/>
			<stop  offset="1" style="stop-color:#0E1A1C"/>
		</linearGradient>
		<path class="st1" d="M129.2,31.8c-6.4-13.9-65-15.6-76.8-4.1c-11.5,11.2-7,47.8,11.3,56.6C97.2,100.6,144,64.1,129.2,31.8z"/>
	</g>
	<g>
		<g>
			<path class="st2" d="M157.3,44.4c-0.1,0-7-2.3-12.3-2.3c-6.2,0-12.1,2.2-12.2,2.2l-1.8-4.7c0.3-0.1,6.8-2.6,14-2.6
				c6.1,0,13.5,2.4,13.8,2.5L157.3,44.4z"/>
		</g>
		<g>
			<path class="st2" d="M264.6,39.9c-0.3,0-0.6-0.1-0.9-0.2L235.6,29c-1.3-0.5-1.9-1.9-1.4-3.2c0.5-1.3,1.9-1.9,3.2-1.4l28.1,10.7
				c1.3,0.5,1.9,1.9,1.4,3.2C266.6,39.3,265.6,39.9,264.6,39.9z"/>
		</g>
		<g>
			<path class="st2" d="M25.5,39.9c-1,0-2-0.6-2.3-1.6c-0.5-1.3,0.2-2.7,1.4-3.2l28.1-10.7c1.3-0.5,2.7,0.2,3.2,1.4
				c0.5,1.3-0.2,2.7-1.4,3.2L26.4,39.7C26.1,39.8,25.8,39.9,25.5,39.9z"/>
		</g>
		<g>
			<path class="st2" d="M208.7,90.4c-15,0-29.5-7.3-38.8-16.5C156.7,61,152.7,45,159.1,31l0,0c2.9-6.3,13.3-9.4,21.6-10.9
				c20.6-3.8,50-2,58.4,6.3c5.8,5.7,8.2,17.7,6.1,30.5c-2.3,14-9,25-18,29.3C221.3,89.1,215,90.4,208.7,90.4z M162.8,32.6
				c-5.7,12.4-2,26.8,9.9,38.4c12.2,12,34,20.7,52.9,11.5c7.7-3.7,13.8-13.8,15.8-26.4c1.9-11.4-0.1-22.3-5-27
				c-6.7-6.5-33.9-9.1-54.9-5.2C171.2,25.9,164.4,29,162.8,32.6L162.8,32.6z"/>
		</g>
		<g>
			<path class="st2" d="M81.4,90.4c-6.2,0-12.5-1.3-18.6-4.2c-9-4.4-15.7-15.3-18-29.3C42.7,44,45.1,32,50.9,26.3
				c8.5-8.3,37.8-10.1,58.4-6.3c8.3,1.5,18.8,4.7,21.6,10.9l0,0c6.4,14,2.4,30.1-10.7,42.9C110.9,83,96.4,90.4,81.4,90.4z
				 M87.4,22.1c-15.1,0-29.1,2.6-33.6,7.1c-4.8,4.7-6.8,15.6-5,27c2,12.5,8.1,22.6,15.8,26.4c13.3,6.4,35.5,5.5,52.9-11.5
				c11.9-11.6,15.6-26,9.9-38.4c-1.7-3.6-8.5-6.8-18.7-8.7C101.9,22.7,94.5,22.1,87.4,22.1z"/>
		</g>
		<g>
			<path class="st2" d="M193.7,23h-22.1H97.7c-1.4,0-2.5-1.1-2.5-2.5s1.1-2.5,2.5-2.5h96c1.4,0,2.5,1.1,2.5,2.5S195.1,23,193.7,23z"
				/>
		</g>
	</g>
</g>
</svg>
