<?xml version="1.0" encoding="utf-8"?>
<!-- Generator: Adobe Illustrator 19.2.0, SVG Export Plug-In . SVG Version: 6.00 Build 0)  -->
<svg version="1.1" id="Layer_1" xmlns="http://www.w3.org/2000/svg" xmlns:xlink="http://www.w3.org/1999/xlink" x="0px" y="0px"
	 viewBox="0 0 739.6 909.9" style="enable-background:new 0 0 739.6 909.9;" xml:space="preserve">
<style type="text/css">
	.st0{fill:#3A291D;}
	.st1{fill:#EAEAEA;}
</style>
<g>
	<g>
		<g>
			<path class="st0" d="M489,312c4.8,4.1,10,9.2,13.5,14.4c0,0,0,3.5-3.8,2.7c-1.2-0.2-8.3-2.6-11.1-3.8"/>
		</g>
		<g>
			<g>
				<path class="st0" d="M488.3,312.7c2.7,2.3,5.3,4.6,7.7,7.2c1.3,1.4,6.3,5.7,5.3,7.4c-1.6,2.8-11.4-2.1-13.4-3
					c-1.2-0.5-1.7,1.4-0.5,1.9c3.2,1.3,6.6,2.6,10,3.5c2,0.6,4.3,0.8,5.6-1.2c1.4-2.3-0.2-3.8-1.7-5.6c-3.4-4.3-7.3-8.1-11.5-11.7
					C488.7,310.4,487.3,311.8,488.3,312.7L488.3,312.7z"/>
			</g>
		</g>
	</g>
	<g>
		<g>
			<path class="st0" d="M255.1,312c-4.8,4.1-10,9.2-13.5,14.4c0,0,0,3.5,3.8,2.7c1.2-0.2,8.3-2.6,11.1-3.8"/>
		</g>
		<g>
			<g>
				<path class="st0" d="M254.4,311.3c-4.2,3.5-8.1,7.4-11.5,11.7c-1.5,1.9-3.1,3.3-1.7,5.6c1.3,2,3.6,1.7,5.6,1.2
					c3.4-0.9,6.8-2.2,10-3.5c1.2-0.5,0.7-2.4-0.5-1.9c-1.6,0.7-12.5,5.7-13.4,3c-0.6-2,3.6-5.5,4.9-7c2.5-2.7,5.2-5.2,8.1-7.6
					C256.8,311.8,255.4,310.4,254.4,311.3L254.4,311.3z"/>
			</g>
		</g>
	</g>
	<path class="st0" d="M488.4,310.9c-10.4-4.5-73.8-5.7-94.1,1.7c-3,1.1-6.9,5.2-10.1,7.3c-2.9,1.9-11.3,2-12.3,2v0c0,0,0.1,0,0,0
		c-0.1,0,0,0,0,0v0c-2,0-9.5-0.1-12.4-2c-3.2-2.1-7.2-6.3-10.2-7.3c-20.3-7.3-83.7-6.2-94.1-1.7c-1.9,0.8-0.6,15.2,0,16.1
		c0.6,0.9,3.8,3,5.7,5.9c2.8,4.5,5.4,31,16.3,44.3c5.2,6.4,17.2,9.1,30.6,9.2c14.5,0.1,26.3-1.3,34.8-7.8
		c10.1-7.7,19.3-36.7,22.7-39.2c3-2.2,5.7-2.3,6.7-2.3v0c0,0-0.1,0,0,0c0.1,0,0,0,0,0v0c0,0,3.5,0.1,6.6,2.3
		c3.4,2.5,12.5,31.6,22.6,39.2c8.5,6.4,20.3,7.9,34.8,7.8c13.3-0.1,25.3-2.8,30.6-9.2c10.9-13.3,13.4-39.8,16.3-44.3
		c1.9-3,5.1-5,5.7-5.9S490.3,311.7,488.4,310.9z M337.9,376.1c-5.8,4.4-40.7,7.7-53.9-0.9c-10.9-7.1-15.2-35.1-10.3-49.6
		c5-14.6,72.8-13.5,78.7,1.3C358.8,343.4,346.8,369.3,337.9,376.1z M459.7,375.3c-13.2,8.6-48.1,5.3-53.9,0.9
		c-8.9-6.8-20.9-32.7-14.5-49.1c5.8-14.8,73.7-16,78.7-1.3C474.9,340.1,470.6,368.2,459.7,375.3z"/>
	<g>
		<path class="st1" d="M475.4,318c0.1,1.2,0.3,2.3,0.5,3.5c0,0.2,0.1,0.3,0.2,0.4c0.1,0.1,0.2,0.1,0.3,0.1c2.6,0,5.2,0,7.8,0
			c0.1,0,0.3,0,0.4-0.1c0.2-0.1,0.2-0.3,0.2-0.5c0-1.2,0-2.4,0-3.5c0-0.1,0-0.2-0.1-0.3c-0.1-0.1-0.2-0.1-0.3-0.1
			c-2.8,0.1-5.6,0.2-8.5,0.3C475.7,317.7,475.4,317.8,475.4,318"/>
	</g>
	<g>
		<path class="st1" d="M269.8,318c-0.1,1.2-0.3,2.3-0.5,3.5c0,0.2-0.1,0.3-0.2,0.4c-0.1,0.1-0.2,0.1-0.3,0.1c-2.6,0-5.2,0-7.8,0
			c-0.1,0-0.3,0-0.4-0.1c-0.2-0.1-0.2-0.3-0.2-0.5c0-1.2,0-2.4,0-3.5c0-0.1,0-0.2,0.1-0.3c0.1-0.1,0.2-0.1,0.3-0.1
			c2.8,0.1,5.6,0.2,8.5,0.3C269.5,317.7,269.8,317.8,269.8,318"/>
	</g>
</g>
</svg>
