<?xml version="1.0" encoding="utf-8"?>
<!-- Generator: Adobe Illustrator 19.2.0, SVG Export Plug-In . SVG Version: 6.00 Build 0)  -->
<svg version="1.1" id="Layer_1" xmlns="http://www.w3.org/2000/svg" xmlns:xlink="http://www.w3.org/1999/xlink" x="0px" y="0px"
	 viewBox="0 0 172 54.7" style="enable-background:new 0 0 172 54.7;" xml:space="preserve">
<style type="text/css">
	.st0{fill:#D6AA89;}
	.st1{fill:#FFFFFF;}
	.st2{fill:#3A291D;}
	.st3{fill:#E2E2E2;}
</style>
<g>
	<g>
		<path class="st0" d="M166.9,15.1c-1.2-7.2-3.3-8.5-5.9-9.4c-20.3-7.1-33.2-2.8-42.5-1.2c-6.7,1.1-20,16.5-15.5,22.4
			c2.7,3.2,6.2-0.2,9.5-0.8s16.6-6.3,16.6-6.3h10.7l11.9,3.5l5.9,5.9c0,0,5,3.7,7.1,0C169.7,21,167.3,17.2,166.9,15.1z"/>
	</g>
	<g>
		<g>
			<polygon class="st1" points="152.8,22.2 144.5,21 126.8,21 125.7,31.6 128,34 136.3,35.2 145.7,34 151.6,31.6 155.1,25.7 			"/>
		</g>
		<g>
			<polygon class="st2" points="145.7,19.8 135.1,21 129.2,21 130.4,28.1 136.3,31.6 142.2,30.4 146.9,24.6 			"/>
		</g>
		<g>
			<g>
				<path class="st2" d="M128.6,22.5c0.2,5.2,3.2,9.4,8.8,9.3c4.6-0.1,9.4-3,10.4-7.7c0.3-1.3-1.6-1.8-1.9-0.5
					c-0.8,3.6-4.3,5.9-7.9,6.2c-4.6,0.4-7.2-2.9-7.3-7.3C130.6,21.2,128.6,21.2,128.6,22.5L128.6,22.5z"/>
			</g>
			<g>
				<path class="st2" d="M114.7,26.7c6.9-3.5,14.5-5,22.1-4.7c5.6,0.2,12.6,1.1,16.6,5.5c1.7,1.9,4.6-0.9,2.8-2.8
					c-4.5-4.9-11.8-6.2-18.1-6.6c-8.8-0.5-17.7,1.2-25.5,5.2C110.3,24.4,112.4,27.8,114.7,26.7L114.7,26.7z"/>
			</g>
			<g>
				<path class="st2" d="M126.1,33.1c-0.9-3.4-0.5-7,1.8-9.8c1.7-2-1.2-4.8-2.8-2.8c-3.3,3.9-4.2,8.8-2.9,13.6
					C122.9,36.6,126.7,35.6,126.1,33.1L126.1,33.1z"/>
			</g>
			<g>
				<path class="st2" d="M124.5,36.3c9.9,1.1,26.5,1,32.1-9.2c1.2-2.3-2.2-4.3-3.5-2c-4.8,8.7-20.3,8.1-28.6,7.2
					C121.9,32,122,36,124.5,36.3L124.5,36.3z"/>
			</g>
			<g>
				<path class="st2" d="M123.1,34.6c2.9,8,8.7,13.9,16.5,17.3c1.8,0.8,3.3-1.8,1.5-2.6c-7-3.1-12.5-8.3-15.1-15.5
					C125.3,32,122.4,32.8,123.1,34.6L123.1,34.6z"/>
			</g>
		</g>
		<g>
			<path class="st2" d="M116,18.4c12.1-2.7,29.1-3.1,40.2,3c1.7,0.9,3.2-1.6,1.5-2.6c-11.9-6.6-29.5-6.2-42.5-3.4
				C113.3,15.9,114.1,18.8,116,18.4L116,18.4z"/>
		</g>
	</g>
	<g>
		<path class="st0" d="M74.8,22.9c-0.4-2.5-3.4-8.9-5.6-11.9C63.7,3.8,24-0.1,9.9,5.7C4.4,8-0.5,16.6,6,29.3c1.9,3.8,7.1,0,7.1,0
			l5.9-5.9l11.9-3.5h10.7c0,0,1.4,0.8,3.4,1.9l0,0c0,0,2.7,9.2,1.2,13.7C41.8,48.2,26.3,50.9,29.7,52c12.5,3.9,26.5-10.6,29.5-9.4
			C62.1,43.6,76.7,28,74.8,22.9z"/>
	</g>
	<g>
		<g>
			<polygon class="st1" points="44.1,21 26.4,21 18.2,22.2 15.8,25.7 19.4,31.6 25.3,34 34.7,35.2 42.9,34 45.3,31.6 			"/>
		</g>
		<g>
			<polygon class="st2" points="35.9,21 25.3,19.8 24.1,24.6 28.8,30.4 34.7,31.6 40.6,28.1 41.8,21 			"/>
		</g>
		<g>
			<g>
				<path class="st2" d="M41.3,22.5c-0.1,4.7-3.3,7.7-8.1,7.3c-3.4-0.3-7.9-2.6-7.2-6.7c0.2-1.3-1.7-1.8-1.9-0.5
					c-0.9,5.2,3.9,8.6,8.6,9.1c6.1,0.7,10.4-3.2,10.6-9.2C43.4,21.2,41.4,21.2,41.3,22.5L41.3,22.5z"/>
			</g>
			<g>
				<path class="st2" d="M58.3,23.2c-7.9-4-16.7-5.7-25.5-5.2c-6.3,0.4-13.6,1.7-18.1,6.6c-1.7,1.9,1.1,4.7,2.8,2.8
					c4-4.4,11-5.3,16.6-5.5c7.7-0.2,15.3,1.3,22.1,4.7C58.6,27.8,60.6,24.4,58.3,23.2L58.3,23.2z"/>
			</g>
			<g>
				<path class="st2" d="M48.8,34.1c1.3-4.9,0.4-9.8-2.9-13.6c-1.7-2-4.5,0.9-2.8,2.8c2.3,2.8,2.8,6.3,1.8,9.8
					C44.2,35.6,48.1,36.6,48.8,34.1L48.8,34.1z"/>
			</g>
			<g>
				<path class="st2" d="M46.5,32.3c-8.3,0.9-23.8,1.5-28.6-7.2c-1.2-2.3-4.7-0.2-3.5,2c5.6,10.2,22.2,10.3,32.1,9.2
					C49,36,49,32,46.5,32.3L46.5,32.3z"/>
			</g>
			<g>
				<path class="st2" d="M45,33.9c-2.6,7.3-8.1,12.5-15.1,15.5c-1.8,0.8-0.2,3.4,1.5,2.6c7.7-3.4,13.6-9.3,16.5-17.3
					C48.6,32.8,45.7,32,45,33.9L45,33.9z"/>
			</g>
		</g>
		<g>
			<path class="st2" d="M55.8,15.5c-13-2.9-30.6-3.3-42.5,3.4c-1.7,0.9-0.2,3.5,1.5,2.6c11.1-6.2,28.1-5.7,40.2-3
				C56.8,18.8,57.6,15.9,55.8,15.5L55.8,15.5z"/>
		</g>
	</g>
</g>
<g>
	<ellipse class="st3" cx="38" cy="24.3" rx="3.1" ry="2.3"/>
	<ellipse class="st3" cx="143" cy="24.3" rx="3.1" ry="2.3"/>
</g>
</svg>
