<?xml version="1.0" encoding="utf-8"?>
<!-- Generator: Adobe Illustrator 19.2.0, SVG Export Plug-In . SVG Version: 6.00 Build 0)  -->
<svg version="1.1" id="Layer_1" xmlns="http://www.w3.org/2000/svg" xmlns:xlink="http://www.w3.org/1999/xlink" x="0px" y="0px"
	 viewBox="0 0 323 353" style="enable-background:new 0 0 323 353;" xml:space="preserve">
<style type="text/css">
	.st0{fill:#EFEFEF;}
	.st1{fill:#BBBBBC;}
	.st2{fill:#7A7B7B;}
</style>
<g>
	<g>
		<path class="st0" d="M214.6,115c-8.1,0-16.6-1.5-23.4-2.9L190,112c-13.6-2.7-22.2-6.8-23.6-11.2l-0.4-1.3l0.4-1.4
			c0.3-1,0.9-2.2,1.8-3.3l0.1-0.1l0.1-0.1l0.1-0.1l0.1-0.1c1.6-1.6,4-2.4,7.1-2.4c6.5,0,14.7,3.5,20.2,5.9c0.9,0.4,1.7,0.7,2.5,1.1
			c3.6,1.5,7.3,3.1,10.9,4.7c2.9,1.3,5.9,2.6,8.9,3.9l0.8,0.3c3.3,1.4,6.7,2.9,10.2,2.9c1.6,0,3.1-0.6,4.5-1.2
			C229.3,113.4,223,115,214.6,115L214.6,115z M114.4,115.5c-8.4,0-14.7-1.9-19-5.7c1.4,0.7,2.9,1,4.5,1c3.6,0,7.3-1.6,10.5-3
			l1.1-0.5c2.7-1.2,5.4-2.4,8.1-3.6c3.6-1.6,7.3-3.3,11.1-4.8c0.7-0.3,1.6-0.7,2.5-1.1c5.4-2.3,13.6-5.9,20.2-5.9
			c3.1,0,5.4,0.8,7.1,2.4l0.1,0.1l0.1,0.1l0.1,0.1l0.1,0.1c0.9,1.2,1.5,2.3,1.8,3.3l0.4,1.5l-0.4,1.3c-1.2,3.9-7.6,7.4-18.2,10.1
			l-0.3,0.1l0,0h-0.1l-0.3,0.1c-1.3,0.3-2.5,0.6-3.5,0.8l-0.2,0.1H140h-0.1l-1.9,0.4c-3.9,0.8-8.3,1.7-12.9,2.3l-0.4,0.1l-0.2,0.1
			l-0.2-0.1l-0.4,0.1C120.4,115.3,117.3,115.5,114.4,115.5z"/>
	</g>
	<g>
		<path class="st1" d="M214.9,114c0.8-1.6,1.2-3.4,1-5.3l-0.4-1.9l1.8,0.7c0.6,0.3,1.2,0.5,1.7,0.7l0.6,0.3v0.7c0,0.1,0,0.1,0,0.2
			c0.4,0.9,0.6,1.8,0.8,2.6c0.1,0.4,0.1,0.9,0.1,1.3v0.8l-0.5,0.3c-0.1,0-0.2,0.1-0.2,0.2l-0.2,0.6l-0.6,0.1c-1,0.1-2.1,0.1-3.1,0.2
			h-1.6L214.9,114z"/>
		<path class="st1" d="M221.6,113.7c0.1-1-0.2-2.2-0.4-3l-0.5-1.8l1.7,0.6c2.4,0.8,4.6,1.1,6.5,1.1l0.5,1.9c-2,1-4.2,1.7-6.7,2.2
			l-1.3,0.2L221.6,113.7z"/>
		<path class="st1" d="M204.4,114.6c-0.8-0.1-1.7-0.2-2.5-0.4l-1.5-0.2l0.8-1.3c1.9-3.2,2.4-6.8,1.4-10.3l-0.6-2l6.2,2.7l-0.2,0.8
			c0,0.1,0,0.2,0,0.2c0.7,3.5-0.2,7-2.5,9.7c0,0-0.1,0.1-0.1,0.2l-0.3,0.7L204.4,114.6z"/>
		<path class="st1" d="M135.5,111.6c0.1-4.3-1-8.5-3.4-12l-0.7-1l1.1-0.5c1.3-0.5,2.6-1,3.9-1.5l0.9-0.4l0.3,0.9
			c2.1,4.5,2.7,9.3,1.8,14.2l-0.1,0.7l-0.7,0.1c-0.8,0.1-1.5,0.3-2,0.4l-1.2,0.2L135.5,111.6z"/>
		<path class="st1" d="M119.5,113.8c1.3-3.2,1.8-6.5,1.4-9.9l-0.1-0.7l1-0.5c1.1-0.5,4.7-2,4.7-2v2.6c0,1.4,0,2.8-0.2,4.3l-0.1,0.5
			c-0.2,1.7-0.5,4.6-1.4,6.2l-0.2,0.4l-0.5,0.1c-1.3,0.2-2.5,0.3-3.6,0.4l-1.7,0.2L119.5,113.8z"/>
		<path class="st1" d="M112.8,115.4c-1.4,0-2.8-0.1-4.1-0.3l-0.8-0.1l-0.3-3.6c0-0.2-0.1-0.4-0.2-0.5l-1.5-1.1l1.7-0.6
			c1.3-0.5,2.7-1,4.3-1.7l1.2-0.6l0.2,1.6c0.1,0.8,0.2,1.6,0.3,2.4c0.1,0.6,0.1,1.2,0.1,1.8v0.2c0,0.3,0,0.5,0,0.7l0.9,0.4l-1,1.1
			l-0.3,0.4L112.8,115.4z"/>
		<path class="st1" d="M105.5,114.6c-2.2-0.5-4.2-1.2-6-2.1l0.5-1.9c1.7,0,3.4-0.3,5.4-0.8l1.8-0.5l-0.6,1.8l0.1,1.2l0.2,2.5
			L105.5,114.6z"/>
		<path class="st1" d="M156.1,105.1c0.7-2.8,0.7-6.6-0.1-11.4l-0.3-1.6l1.5,0.4c1.4,0.4,2.6,1.1,3.5,2.1c1.6,2,2.2,3.9,1.9,5.7
			c-0.4,2.1-2.1,4.1-5.1,5.9l-2.1,1.2L156.1,105.1z"/>
		<path class="st1" d="M171.7,106.4c-3.1-1.8-4.9-3.8-5.3-6c-0.4-1.8,0.3-3.8,1.8-5.7c1.3-1.4,3-2.2,5.2-2.5l0.9-0.1l0.2,0.9
			c0.1,0.4,0.2,0.9,0.3,1.3c0.9,4,1.9,8.9-1.9,11.9l-0.5,0.4L171.7,106.4z"/>
		<path class="st1" d="M192.8,112.7c-1.1-0.2-2.7-0.5-4.5-0.9l-1.6-0.3l1-1.3c0.9-1.1,1.5-2.6,2-3.7c1.1-2.8,1.3-5.9,0.7-9.1
			l-0.4-1.7l1.7,0.6c0.7,0.2,1.4,0.5,2,0.8l1.3,0.5l-0.9,1.1c0,0-0.1,0.1,0,0.3c1.4,4.4,1.9,8.8,1.4,13.2l-0.1,1.1L192.8,112.7z"/>
	</g>
	<g>
		<g>
			<path class="st2" d="M162.1,93.2c-7.4-7.9-24.5,0.7-32.2,3.8c-6.5,2.7-12.8,5.6-19.2,8.4c-6,2.6-12.9,6.1-18.1-0.4
				c-1.1-1.3-3.3,0.4-2.4,1.8c9.8,15.6,34,10.3,49.1,7.3C148.1,112.4,172.9,106.6,162.1,93.2c-1.2-1.5-3.3,0.6-2.1,2.1
				c8.7,10.8-18.3,15.3-24.3,16.4c-13.1,2.4-34.4,7-42.8-6.5c-0.8,0.6-1.6,1.2-2.4,1.8c8.2,10.4,22.7,0.4,31.6-3.5
				c7-3.1,14-6.2,21.3-8.4c4.5-1.3,12.6-4.1,16.5,0.1C161.3,96.8,163.5,94.6,162.1,93.2z"/>
		</g>
		<g>
			<path class="st2" d="M169,95.4c3.8-4,11.6-1.5,16-0.2c7.5,2.2,14.7,5.3,21.8,8.5c8.9,3.9,23.5,13.8,31.6,3.5
				c-0.8-0.5-1.7-1-2.5-1.5c-2.8,8.3-16,9-23.2,8.5c-6.2-0.4-12.4-1.2-18.6-2.2C188.2,110.9,160.2,106.3,169,95.4
				c1.2-1.5-0.9-3.6-2.1-2.1c-11.3,14,16,19.6,24.6,21.2c7.4,1.4,15,2.4,22.5,2.8c8.5,0.4,21.6-1.5,24.8-10.8
				c0.5-1.4-1.6-2.6-2.5-1.5c-5,6.4-11.5,3.2-17.4,0.7c-6.6-2.8-13.2-5.9-19.8-8.6c-7.7-3.2-24.8-11.7-32.2-3.8
				C165.6,94.6,167.7,96.8,169,95.4z"/>
		</g>
		<g>
			<path class="st2" d="M153.7,92.2c0.5,2.5,0.8,5.1,0.7,7.7c0,2.1,0.1,5.1-1.3,7.1c0.7,0,1.4,0,2.1,0c0.1,0,0.2,0.5,0.3,0.8
				c0.1-1.9-2.9-1.9-3,0c0,0.5,0.2,1,0.6,1.4c0.6,0.5,1.6,0.7,2.1,0c3.5-4.5,2.3-12.6,1.3-17.8C156.3,89.6,153.4,90.4,153.7,92.2
				L153.7,92.2z"/>
		</g>
		<g>
			<path class="st2" d="M146.2,94.4c1.2,5.8-0.9,11.2-3.4,16.4c-0.8,1.7,1.8,3.3,2.6,1.5c2.8-6,5.1-12,3.7-18.7
				C148.7,91.7,145.8,92.5,146.2,94.4L146.2,94.4z"/>
		</g>
		<g>
			<path class="st2" d="M136.9,97.6c2.1,4.6,2.6,9.6,1.5,14.5c-0.4,1.9,2.5,2.7,2.9,0.8c1.3-5.8,0.7-11.4-1.8-16.8
				C138.7,94.4,136.1,95.9,136.9,97.6L136.9,97.6z"/>
		</g>
		<g>
			<path class="st2" d="M130.3,100.4c2.3,3.5,3.4,7.4,3.2,11.6c-0.1,1.9,2.9,1.9,3,0c0.2-4.7-1-9.2-3.6-13.1
				C131.8,97.3,129.2,98.8,130.3,100.4L130.3,100.4z"/>
		</g>
		<g>
			<path class="st2" d="M125.5,100.7c-0.1,2.3,0.1,4.5-0.2,6.7c-0.2,1.6-0.5,5.8-1.8,6.9c0.8,0.2,1.7,0.4,2.5,0.7v-0.1
				c-0.3,0.6-0.7,1.2-1,1.8h0.1c1.8-0.6,1.1-3.4-0.8-2.9h-0.1c-0.8,0.2-1.3,1.1-1,1.8v0.1c0.3,1.1,1.7,1.4,2.5,0.7
				c1.6-1.5,2.1-5.1,2.4-7.2c0.5-2.9,0.3-5.7,0.5-8.6C128.5,98.7,125.5,98.7,125.5,100.7L125.5,100.7z"/>
		</g>
		<g>
			<path class="st2" d="M118.8,103.5c0.5,4-0.1,7.7-2,11.3c-0.9,1.7,1.7,3.2,2.6,1.5c2.2-3.9,3-8.3,2.4-12.8
				C121.5,101.6,118.5,101.6,118.8,103.5L118.8,103.5z"/>
		</g>
		<g>
			<path class="st2" d="M112.1,107.2c0.2,1.3,0.3,2.6,0.4,3.9c0.1,0.6,0.1,1.2,0.1,1.8c0,0.2,0,1.9,0.3,1.5c0.5-0.1,1-0.3,1.5-0.4
				c-0.1,0-0.1,0-0.2,0c-1.9-0.3-2.7,2.6-0.8,2.9c0.1,0,0.1,0,0.2,0c0.5,0.1,1.1,0.1,1.5-0.4c0.9-1.1,0.6-2.5,0.5-3.9
				c-0.1-1.8-0.3-3.6-0.5-5.3C114.9,105.3,111.9,105.3,112.1,107.2L112.1,107.2z"/>
		</g>
		<g>
			<path class="st2" d="M105.6,111.3c0.1,1.3,0.2,2.7,0.3,4c0.1,0.8,0.6,1.5,1.5,1.5c0.8,0,1.6-0.7,1.5-1.5c-0.1-1.3-0.2-2.7-0.3-4
				c-0.1-0.8-0.6-1.5-1.5-1.5C106.3,109.8,105.5,110.5,105.6,111.3L105.6,111.3z"/>
		</g>
		<g>
			<path class="st2" d="M173.4,92.7c0.8,4.1,2.8,9.7-1.1,12.8c-1.5,1.2,0.6,3.3,2.1,2.1c4.9-3.8,2.8-10.6,1.9-15.7
				C175.9,90,173,90.8,173.4,92.7L173.4,92.7z"/>
		</g>
		<g>
			<path class="st2" d="M182.8,95.2c0.4,2.4-0.2,4.7-1,7c-0.5,1.4-1.3,5.1-2.7,5.8c0.7,0.2,1.4,0.4,2.1,0.5v-0.1
				c-0.1,0.6-0.2,1.2-0.2,1.8c0,0,0,0,0.1-0.1c1.5-1.2-0.6-3.3-2.1-2.1c0,0,0,0-0.1,0.1c-0.5,0.4-0.5,1.3-0.2,1.8v0.1
				c0.4,0.7,1.4,0.9,2.1,0.5c2.1-1.1,3-4.6,3.7-6.6c1.1-3.2,1.9-6.2,1.3-9.5C185.3,92.5,182.4,93.3,182.8,95.2L182.8,95.2z"/>
		</g>
		<g>
			<path class="st2" d="M188.4,97.8c0.5,2.2,0.5,4.5-0.1,6.7c-0.3,1-0.6,1.9-1.1,2.8c-0.3,0.5-0.6,1-0.9,1.4c-1.1,1-1.2,1.2-0.3,0.8
				c0.5,0.5,1,1,1.5,1.5c0-0.1,0-0.2,0-0.2c-0.4,0.5-0.7,1-1.1,1.4c0.1,0,0.1,0,0.2,0c1.9-0.4,1.1-3.3-0.8-2.9c-0.1,0-0.1,0-0.2,0
				c-0.6,0.1-1.2,0.8-1.1,1.4c0,0.1,0,0.2,0,0.2c0.1,0.8,0.6,1.6,1.5,1.5c2.4-0.2,3.9-3.7,4.7-5.6c1.3-3.2,1.4-6.6,0.7-9.9
				C190.8,95.1,188,95.9,188.4,97.8L188.4,97.8z"/>
		</g>
		<g>
			<path class="st2" d="M193.1,99.2c1.4,4.4,1.9,8.8,1.3,13.4c-0.3,1.9,2.6,2.7,2.9,0.8c0.7-5.1,0.3-10.1-1.3-15
				C195.4,96.6,192.5,97.4,193.1,99.2L193.1,99.2z"/>
		</g>
		<g>
			<path class="st2" d="M200.2,101.8c1.4,3.6,1,7.3-1.1,10.5c-1.1,1.6,1.5,3.1,2.6,1.5c2.5-3.8,3-8.6,1.4-12.8
				C202.5,99.2,199.5,99.9,200.2,101.8L200.2,101.8z"/>
		</g>
		<g>
			<path class="st2" d="M207.1,104.4c0.6,3.2-0.2,6.4-2.3,8.9c-1.2,1.5,0.9,3.6,2.1,2.1c2.8-3.3,3.9-7.5,3.1-11.8
				C209.6,101.7,206.7,102.5,207.1,104.4L207.1,104.4z"/>
		</g>
		<g>
			<path class="st2" d="M213.9,108.7c0.2,2.2-0.4,4.1-1.7,5.9c-1.1,1.6,1.5,3.1,2.6,1.5c1.6-2.1,2.3-4.8,2.1-7.4
				C216.8,106.8,213.8,106.7,213.9,108.7L213.9,108.7z"/>
		</g>
		<g>
			<path class="st2" d="M218.8,109.7c0.3,0.8,0.6,1.6,0.7,2.4c0.1,0.4,0.1,0.8,0.1,1.1c0,1-0.2,0,0.7,0c-1.9,0-1.9,3,0,3
				c3.6,0,2.1-5.5,1.4-7.4C221,107.2,218.1,107.9,218.8,109.7L218.8,109.7z"/>
		</g>
	</g>
</g>
</svg>
