<?xml version="1.0" encoding="utf-8"?>
<!-- Generator: Adobe Illustrator 19.2.0, SVG Export Plug-In . SVG Version: 6.00 Build 0)  -->
<svg version="1.1" id="Layer_1" xmlns="http://www.w3.org/2000/svg" xmlns:xlink="http://www.w3.org/1999/xlink" x="0px" y="0px"
	 viewBox="0 0 130 240" style="enable-background:new 0 0 130 240;" xml:space="preserve">
<style type="text/css">
	.st0{fill:#EFEFEF;}
	.st1{fill:#7A7B7B;}
</style>
<g>
	<path class="st0" d="M37.8,213.4c-0.4-87.2,10-146.9,10-146.9l-4.6-3.4c0,0,1.4-11,1.4-11.4c0-0.5,3.6-22.9,3.6-22.9l3.2-4.9
		l5.8-1.6l14.3,2.2l3.6,3.3l0.1,9.3l3,19.3l0.3,7l-2.2,2.2c0,0,11.2,110.8,7.7,148C83.5,219.6,37.8,218,37.8,213.4z"/>
	<g>
		<g>
			<path class="st1" d="M42.2,63.2c5.8,6.3,19.5,5.7,27.1,4.7c3.1-0.4,8-1,10-3.9c1.4-2,0.5-4.3,0.2-6.6c-0.4-3.2-0.7-6.3-1-9.5
				c-0.7-6.5-0.8-14.4-2.9-20.6c-1.2-3.4-4.5-4.5-7.8-5.1c-5.5-0.9-18-2-20.4,4.4c-4.2,11-4.5,23.9-5.6,35.4c-0.2,1.9,2.8,1.9,3,0
				c1.1-10.9,1.8-22.3,5-32.9c0.5-1.6,0.6-2.4,2-3.2c1.9-1,4.9-1,6.9-1.2c3.6-0.2,11.9-0.9,13.9,2.9c1.6,2.9,1.4,8.1,1.9,11.4
				c0.5,3.2,0.8,6.5,1.2,9.8c0.3,3,0.6,6.1,1,9.1c0.4,3.3,0.9,4.5-2.4,5.7c-4.8,1.8-10.6,1.8-15.7,1.4c-4.4-0.3-11.1-0.7-14.3-4.1
				C43,59.6,40.9,61.8,42.2,63.2z"/>
		</g>
		<g>
			<path class="st1" d="M47.1,65.1c-4.6,18-6.3,36-7,54.4c-0.9,21.7-1.5,43.4-2.4,65.1c-0.4,9.5-0.7,19-1.4,28.5
				c-0.1,1.9,2.9,1.9,3,0c2.6-37.2,2.1-74.5,4.7-111.7c0.8-11.8,3.1-24.1,6-35.5C50.5,64,47.6,63.2,47.1,65.1L47.1,65.1z"/>
		</g>
		<g>
			<path class="st1" d="M73.5,65.6c6.5,25.8,5.9,53.2,7,79.6c0.9,23,1.8,46.1,2.2,69.2c0,1.9,3,1.9,3,0c-0.4-23.6-1.3-47.2-2.2-70.7
				c-1-26.2-0.6-53.3-7-78.9C75.9,62.9,73,63.7,73.5,65.6L73.5,65.6z"/>
		</g>
		<g>
			<path class="st1" d="M61.7,67.7C61.3,75,61.2,85.1,65,91.6c0.8,1.3,2.6,4,4.2,2.4c2.5-2.4-0.6-11.4-1.2-13.6
				c-0.4-1.2-2.3-0.7-1.9,0.5c0.8,2.6,1.5,5.2,1.7,7.9c0.1,0.9,0.3,2.2,0,3c-0.4,0.9,0.5,0.6-0.2-0.1c-2-1.9-2.5-5.7-2.9-8.2
				c-0.9-5.1-1.2-10.5-0.8-15.7C63.8,66.4,61.8,66.4,61.7,67.7L61.7,67.7z"/>
		</g>
		<g>
			<path class="st1" d="M57.2,66.8c0.4,7.2,0,15.2-1.8,22.1c-0.3,1.2,1.6,1.8,1.9,0.5c1.8-7.2,2.2-15.3,1.8-22.7
				C59.2,65.5,57.2,65.5,57.2,66.8L57.2,66.8z"/>
		</g>
	</g>
</g>
</svg>
