<?xml version="1.0" encoding="utf-8"?>
<!-- Generator: Adobe Illustrator 19.2.0, SVG Export Plug-In . SVG Version: 6.00 Build 0)  -->
<svg version="1.1" id="Layer_1" xmlns="http://www.w3.org/2000/svg" xmlns:xlink="http://www.w3.org/1999/xlink" x="0px" y="0px"
	 viewBox="0 0 739.6 909.9" style="enable-background:new 0 0 739.6 909.9;" xml:space="preserve">
<style type="text/css">
	.st0{fill:#F58C5A;}
	.st1{fill:#BC5B34;}
	.st2{fill:#9B4527;}
	.st3{fill:#6D3924;}
</style>
<g>
	<path class="st0" d="M473.4,610.9c11.8-13.8,20.9-30.9,21-49.4c0.1-12.1-3.9-23.5-10.3-33.7c0.6-4.9,0.6-9.9,0.5-14.6
		c-0.1-11.5-1.3-23.3-4.6-34.4c-2.4-8.2-6.5-18.2-15-21.7c-0.3-0.7-1.3-1-2.1-0.7c-1.2-0.1-1.9,1.3-1.4,2.2
		c-13,30.6-40,50.3-73.1,54.1c-27.7,3.2-58.1-3.1-81.5-18.4c-9.6-6.3-19.3-15-22.3-26.6c-0.3-1.1-1.4-1.3-2.2-0.9
		c-0.1,0-0.2,0-0.3,0c-10.4,2.1-16.2,13.5-19.8,22.4c-5,12.4-7.7,26-8.7,39.3c-0.6,8.3,0.3,16.5,2.3,24.3c-7,19.6-3.2,40.6,5.8,58.9
		c7,14.2,17.6,29.1,31.5,37.4c-3.3,23.9-5.5,48-7.5,72.1c-2.7,33.8-5,67.8-4.4,101.7c0.1,5-1.1,11.8,3.5,15.1
		c6.2,4.4,15.7,4.9,23.3,5c0,2.4,0.1,4.7,0.3,7.1c0.1,0.9,0.8,1.3,1.5,1.4c0.1,0.1,0.2,0.1,0.4,0.2c11.6,4.3,23.9,5.3,36,2.8
		c1,4.5,2,8.9,3.1,13.4c0.4,1.8,0.6,5.6,1.8,7.1c1.4,1.6,5.5,2,7.5,2.5c6.5,1.5,13.3,2.1,20,2.1c14.3,0.1,28.9-2.2,42.4-7
		c0.1,0,0.1-0.1,0.2-0.1c0.4-0.1,0.7-0.4,0.9-1c2.9-10.3,2.7-21.9,3.1-32.4c0.2-5.7,0.3-11.5,0.4-17.2c6.2,1.5,12.7,1.8,19,1.7
		c5-0.1,11.8,0.3,16.5-1.8c2.7-1.2,3-4.3,3.5-7c2.6-14.1,3-28.8,3.3-43.1c0.9-45.3-2.7-93.8-20.3-136.1c-0.2-0.6-0.5-1.2-0.8-1.8
		C457.1,629.1,466.3,619.3,473.4,610.9z"/>
	<g>
		<path class="st1" d="M265,611.4c-8.4-16.5-12.3-35.5-7.4-53.5c6.2,18.9,18.9,36,32.4,50.4c2.7,2.9,5.5,5.7,8.5,8.5
			c-1.8,9.6-3.3,19.3-4.7,29C281.1,637.9,271.6,624.3,265,611.4z"/>
		<path class="st1" d="M311.4,848.8c-0.2-2-0.2-4-0.2-6c0.9-0.5,0.9-2,0.1-2.6c0.1-3.2,0.4-6.4,0.5-9.6c0.6-11.5,1.4-23,2.2-34.5
			c2-26.4,4.2-52.8,7.1-79.1c0.5-5,1.1-10,1.7-15c0.4,7.4,1,14.9,1.7,22.3c4,42.8,11.7,85.3,21.1,127.2
			C334.1,853.8,322.4,852.9,311.4,848.8z"/>
		<path class="st1" d="M458.7,621.4c-4,3.5-8.3,7.2-13.1,9.6c-8.3-18.4-20.3-35.6-37.9-45.9c15.4-5,30.5-11.4,44.4-19.8
			c10.4-6.3,21.7-14.1,28-24.8c1.5-2.6,2.5-5.4,3.2-8.3c5.9,10.5,9.1,22.2,7.8,34.5c-1.2,11.7-6.1,22.7-12.6,32.4
			C473,607.4,466.2,614.9,458.7,621.4z"/>
		<polygon class="st1" points="335.4,606.4 342.4,602.3 358.9,594.6 352.7,592.9 342.7,592.9 318.7,588.3 321.4,593.6 		"/>
		<polygon class="st1" points="289.5,536.5 295,552.1 304,570.7 313.5,583.6 321.4,582.9 336.9,581 361.6,575 380.4,566.8 
			401,557.9 416.8,547.6 428.2,542 437.1,531 426.3,535.9 412.6,540.7 384.5,545.8 363.1,548.6 345.1,548.3 323.9,546.5 
			313.5,544.6 298.4,539.4 290.9,534.9 		"/>
		<path class="st1" d="M377.4,628.4c0,0,42.3,7.2,66.3,134.3c1.4,7.2,0.3-22,0.3-22V718l-0.9-34.8l-1.5-20.6l5.6,23.6l4,23.2l2.8,35
			l-0.7,38.5l-2.4,37.7l-18.8,0.7l-7.2-1.3l-1.6-37.8l-3.3-36.5l-4.8-31.5L406,678l-7.5-19l-8.1-14.9L377.4,628.4z"/>
		<path class="st1" d="M284.7,516.5c0,0,36,24.2,96.8,15.6c66.3-9.5,97.5-46.5,97.7-50.8s3.8,10.7,3.8,10.7l-6.2,7.7l-16.7,17.4
			l-14.3,9.6l-12.5,7.5l-70.2,23.3l-54.6-6.6l-19.9-15.8L284.7,516.5z"/>
		<path class="st1" d="M327.5,588.6c0,0,58.5-4.2,128.7-45.7c30.1-17.8,26.8-34.3,26.8-34.3l0.2,18l-1.7,19.5l-37.9,32l-38.2,6.3
			l-11.4,0.4l-28.7,6.7l-18.3,5.4L327.5,588.6z"/>
		<path class="st2" d="M437.2,619.1c0,0,22.1-11.4,38.4-30.9c16.2-19.5,18.7-32.2,18.7-32.2l-2.8,16.5l-6,14.4l-15,27.3L451.9,631
			l-7,2l-3.6-7.6L437.2,619.1z"/>
		<path class="st2" d="M252.7,567.8c0,0,8.5,35.7,21.7,52.7c7.5,9.7,20.4,18,20.4,18l-1.5,10.7l-9.8-11.5l-15.3-17.2l-9.1-18.5
			l-5.4-20.3L252.7,567.8z"/>
		<path class="st2" d="M295,552.1c0,0,13.4,20.9,64.6,14.4c28.4-3.6,55.3-18.5,55.3-18.5l-27.1,15.5l-42.7,16l-31.7,4.2l-12.7-17.8
			L295,552.1z"/>
	</g>
	<g>
		<g>
			<g>
				<path class="st3" d="M281.3,468.5c6.2,24,35.5,37.3,57.1,43.3c29.7,8.3,63.9,7.3,90.7-9.1c17-10.4,29.1-26.3,36.5-44.6
					c1-2.4-2.9-3.4-3.9-1.1c-12.6,31.2-39.9,51.3-73.2,55.1c-27.6,3.2-57.9-3.1-81.3-18.4c-9.5-6.2-19.1-14.9-22.1-26.3
					C284.5,465,280.6,466,281.3,468.5L281.3,468.5z"/>
			</g>
		</g>
		<g>
			<g>
				<path class="st3" d="M361.6,591.2c-16,1.1-33.7,0.4-47.1-9.3c-2.1-1.5-4.1,2-2,3.5c14,10.1,32.5,11,49.2,9.8
					C364.2,595,364.2,591,361.6,591.2L361.6,591.2z"/>
			</g>
		</g>
		<g>
			<g>
				<path class="st3" d="M462.4,459.7c8.4,2.4,12.1,12.4,14.3,19.9c3,10.3,4.2,21.1,4.5,31.8c0.2,8.2,0.6,18.2-3.1,25.8
					c-5.2,10.5-16.1,18.1-25.7,24c-15.2,9.5-31.8,16.4-48.9,21.7c-2.5,0.8-1.4,4.6,1.1,3.9c16.6-5.2,32.9-11.9,47.9-20.9
					c10.5-6.3,21.8-14.2,28.2-25c4.8-8.1,4.7-18.6,4.6-27.8c-0.1-11.6-1.3-23.4-4.6-34.5c-2.6-9-7.3-19.9-17.1-22.7
					C460.9,455.1,459.9,459,462.4,459.7L462.4,459.7z"/>
			</g>
		</g>
		<g>
			<g>
				<path class="st3" d="M280.3,468.2c-4.2,47,10,100.8,45.7,133.3c11.2,10.2,24.4,17.8,38.7,22.8c2.4,0.9,3.5-3,1.1-3.9
					c-49.7-17.4-75.5-67.4-81-117.1c-1.3-11.7-1.5-23.4-0.5-35.1C284.6,465.7,280.6,465.7,280.3,468.2L280.3,468.2z"/>
			</g>
		</g>
		<g>
			<g>
				<path class="st3" d="M282,466.3c-10.6,2.2-16.5,13.6-20.1,22.7c-5,12.5-7.8,26.1-8.7,39.5c-2.2,30.9,16.1,58.6,36.4,80.2
					c11.1,11.8,23.8,22.9,38.2,30.7c2.3,1.2,4.3-2.2,2-3.5c-24.6-13.3-46.3-36.2-60.3-60.2c-7.1-12.1-12.5-25.7-12.6-39.9
					c-0.1-12.2,2.1-24.5,5.5-36.2c3-10.3,8.4-27,20.6-29.5C285.6,469.6,284.5,465.8,282,466.3L282,466.3z"/>
			</g>
		</g>
		<g>
			<g>
				<path class="st3" d="M255.5,552.6c-7,19.7-3.2,40.9,5.8,59.3c7.2,14.6,18.2,30,32.6,38.1c2.2,1.3,4.3-2.2,2-3.5
					c-13.5-7.6-23.7-21.9-30.6-35.4c-9-17.8-12.9-38.3-6-57.5C260.3,551.3,256.4,550.2,255.5,552.6L255.5,552.6z"/>
			</g>
		</g>
		<g>
			<g>
				<path class="st3" d="M298,616.7c-6.4,34.5-9.8,69.5-12.7,104.5c-2.7,33.8-5,67.8-4.4,101.7c0.1,5.2-1.1,12.1,3.7,15.5
					c6.9,4.9,17.8,5,25.9,5c2.6,0,2.6-4,0-4c-4.1,0-8.3-0.3-12.4-0.9c-3.5-0.5-9.1-1.2-11.7-3.8c-2.9-2.9-1.5-12.2-1.5-16.1
					c-0.1-14.5,0.4-29.1,1-43.6c1.6-35.3,4.4-70.6,8.5-105.7c2-17.2,4.3-34.5,7.5-51.6C302.3,615.2,298.4,614.1,298,616.7L298,616.7
					z"/>
			</g>
		</g>
		<g>
			<g>
				<path class="st3" d="M310.2,852c11.9,4.5,24.5,5.3,37,2.7c2.5-0.5,1.5-4.4-1.1-3.9c-11.8,2.5-23.6,1.5-34.9-2.7
					C308.8,847.3,307.8,851.2,310.2,852L310.2,852z"/>
			</g>
		</g>
		<g>
			<g>
				<path class="st3" d="M352.3,616.4c-9,2.9-20.4,8.9-24.4,18c-3.2,7.4-4.1,16.2-4.9,24.1c-2.3,21.8-1,44,1,65.7
					c4.5,48.4,13.8,96.4,24.8,143.7c0.5,2,0.6,5.7,1.9,7.2c1.5,1.7,5.7,2.2,7.7,2.7c6.6,1.5,13.4,2.1,20.1,2.1
					c14.4,0.1,29-2.2,42.6-7c2.4-0.9,1.4-4.7-1.1-3.9c-11.8,4.2-24.3,6.4-36.7,6.8c-6,0.2-12.1,0-18.1-0.8c-2.9-0.4-5.7-1-8.5-1.8
					c-3.1-0.9-2.9-1.5-3.7-4.6c-5-21.1-9.4-42.3-13.4-63.6c-8.1-43.5-15.3-88.4-13.7-132.8c0.4-9.5,1.2-19.1,3.3-28.4
					c1.1-5,2.4-9.5,6.2-13.2c4.9-4.8,11.3-8.3,17.8-10.4C355.8,619.5,354.8,615.6,352.3,616.4L352.3,616.4z"/>
			</g>
		</g>
		<g>
			<g>
				<path class="st3" d="M359.4,622.4c15.4,4,26.1,16.6,33.5,30c9.7,17.4,15.1,37.1,19.2,56.5c8.5,40.7,10.9,83,9.8,124.5
					c-0.3,12,0.1,25.4-3.2,37.1c-0.7,2.5,3.2,3.5,3.9,1.1c2.9-10.3,2.8-22,3.1-32.5c0.7-19.7,0.4-39.4-0.8-59.1
					c-1.3-22.5-3.7-45-8-67.1c-3.9-20.1-9.3-40.4-18.6-58.8c-8-15.7-20-30.9-37.8-35.5C358,617.9,356.9,621.7,359.4,622.4
					L359.4,622.4z"/>
			</g>
		</g>
		<g>
			<g>
				<path class="st3" d="M403,586.5c37.9,19.7,50.5,69,56.6,107.8c5.7,36.9,7.1,75.8,2.6,113c-0.4,3-0.7,9-2.1,11
					c-0.3,0.5-0.1,0.1,0.2-0.1c0,0-1.3,0.4-1.8,0.5c-3,0.8-6.3,0.9-9.4,1.1c-8.3,0.4-17,0.2-25-2.1c-2.5-0.7-3.5,3.1-1.1,3.9
					c7,2,14.4,2.5,21.6,2.4c5.1-0.1,11.8,0.2,16.6-1.8c3-1.2,3.3-4.5,3.8-7.4c2.6-14.1,3-28.8,3.3-43.2
					c0.9-45.4-2.7-93.9-20.3-136.2c-8.8-21.2-22.2-41.5-43-52.3C402.7,581.9,400.7,585.4,403,586.5L403,586.5z"/>
			</g>
		</g>
		<g>
			<g>
				<path class="st3" d="M445.9,634.7c10.7-4.6,20.5-14.9,27.9-23.6c11.8-13.9,21-31.1,21.2-49.7c0.1-12.2-4-23.8-10.5-34.1
					c-1.4-2.2-4.8-0.2-3.5,2c7.1,11.3,11,24,9.6,37.4c-1.2,11.6-6.1,22.5-12.5,32.1c-5.5,8.2-12.3,15.7-19.8,22.2
					c-4.3,3.8-9.1,7.9-14.5,10.2C441.6,632.3,443.6,635.7,445.9,634.7L445.9,634.7z"/>
			</g>
		</g>
		<g>
			<g>
				<path class="st3" d="M446.8,587.4c9.9-4.3,18.5-10.8,25.2-19.3c1.6-2-1.2-4.8-2.8-2.8c-6.5,8.2-14.7,14.5-24.4,18.6
					C442.4,585,444.4,588.4,446.8,587.4L446.8,587.4z"/>
			</g>
		</g>
		<g>
			<g>
				<path class="st3" d="M312,850c-0.6-6.4,0-13,0.3-19.4c0.6-11.5,1.4-23,2.2-34.5c2-26.4,4.2-52.8,7.1-79.1c1-9.3,1.9-18.8,3.8-28
					c0.5-2.5-3.4-3.6-3.9-1.1c-4,19.9-5.2,40.5-7.1,60.7c-2.4,25.9-4.6,51.9-6,77.9c-0.4,7.7-1.3,15.7-0.5,23.4
					C308.2,852.5,312.2,852.5,312,850L312,850z"/>
			</g>
		</g>
		<g>
			<g>
				<path class="st3" d="M336.4,608.3c9.5-6.4,20.6-10.8,31.3-14.6c10.5-3.7,24.6-9.4,35.9-6.9c2.5,0.6,3.6-3.3,1.1-3.9
					c-11.7-2.6-25.7,2.6-36.7,6.4c-11.5,4-23.4,8.6-33.6,15.4C332.2,606.3,334.2,609.8,336.4,608.3L336.4,608.3z"/>
			</g>
		</g>
		<g>
			<g>
				<path class="st3" d="M457.2,590.9c6-3.9,11-8.9,15-14.8c1.4-2.1-2-4.1-3.5-2c-3.6,5.3-8.2,9.8-13.6,13.4
					C453,588.8,455,592.3,457.2,590.9L457.2,590.9z"/>
			</g>
		</g>
		<g>
			<g>
				<path class="st3" d="M287.5,534.1c8.8,7.6,20.4,11.2,31.7,13.2c13.8,2.5,28,2.8,42,2.2c26-1.1,52.2-5.1,75.7-16.8
					c17.6-8.8,33.2-21.3,44.8-37.3c1.1-1.6-1.5-3.1-2.6-1.5c-17.8,24.6-46.1,41.2-75.6,47.5c-24.9,5.3-51.5,7.2-76.8,4.1
					c-12.9-1.6-27-4.7-37.1-13.4C288.2,530.7,286.1,532.8,287.5,534.1L287.5,534.1z"/>
			</g>
		</g>
		<g>
			<g>
				<path class="st3" d="M314.2,584.5c25.2,0.6,50.3-8.4,72.8-18.9c19.5-9.1,39.8-20.3,55.3-35.4c1.4-1.3-0.7-3.5-2.1-2.1
					c-15.1,14.6-34.6,25.4-53.4,34.3c-22.4,10.6-47.5,19.7-72.6,19.2C312.3,581.4,312.3,584.4,314.2,584.5L314.2,584.5z"/>
			</g>
		</g>
		<g>
			<g>
				<path class="st3" d="M373.6,876.7c-14.7-65.9-25.5-133.4-30.8-200.7c-1.3-16.6-2.2-33.2-2-49.9c0-1.9-3-1.9-3,0
					c-0.5,32.1,2.8,64.2,6.7,96c4.3,35.4,9.7,70.6,16.2,105.6c3.1,16.6,6.3,33.2,10,49.8C371.1,879.4,374,878.6,373.6,876.7
					L373.6,876.7z"/>
			</g>
		</g>
		<g>
			<g>
				<path class="st3" d="M436.7,821.1c7.7-21.6,8-46.5,8.6-69.2c0.7-25.3,0.3-50.8-1.3-76.1c-0.5-7.5-0.7-15.3-2.3-22.6
					c-0.4-1.9-3.3-1.1-2.9,0.8c1.3,6.1,1.6,12.6,2,18.9c0.8,11.1,1.2,22.2,1.5,33.4c0.7,26.5,0.6,53.2-2,79.6
					c-1.1,11.6-2.6,23.5-6.5,34.5C433.1,822.1,436,822.9,436.7,821.1L436.7,821.1z"/>
			</g>
		</g>
		<g>
			<g>
				<path class="st3" d="M452.1,822c2.7-22.8,3.2-45.9,2.5-68.8c-1-33.2-4.8-66.5-12.6-98.9c-4.9-20-11.4-39.5-19.8-58.3
					c-0.8-1.8-3.4-0.2-2.6,1.5c27,59.6,34.4,127.6,31.9,192.5c-0.4,10.6-1.1,21.3-2.3,31.9C448.9,823.9,451.9,823.9,452.1,822
					L452.1,822z"/>
			</g>
		</g>
		<g>
			<g>
				<path class="st3" d="M323.9,854c0-11.1,0-22.2,0-33.3c0-1.9-3-1.9-3,0c0,11.1,0,22.2,0,33.3C320.9,855.9,323.9,855.9,323.9,854
					L323.9,854z"/>
			</g>
		</g>
		<g>
			<g>
				<path class="st3" d="M329.9,851.3c0-8.4,0-16.9,0-25.3c0-1.9-3-1.9-3,0c0,8.4,0,16.9,0,25.3
					C326.9,853.3,329.9,853.3,329.9,851.3L329.9,851.3z"/>
			</g>
		</g>
		<g>
			<g>
				<path class="st3" d="M332.1,625.5c-15-8-27.9-19.1-37.9-32.8c-1.1-1.5-3.7,0-2.6,1.5c10.4,14.1,23.6,25.6,39,33.9
					C332.3,629,333.8,626.4,332.1,625.5L332.1,625.5z"/>
			</g>
		</g>
		<g>
			<g>
				<path class="st3" d="M340.1,624.9c-9.6-5.1-18.4-11.4-26.3-18.9c-1.4-1.3-3.5,0.8-2.1,2.1c8.1,7.7,17,14.2,26.9,19.4
					C340.3,628.3,341.8,625.8,340.1,624.9L340.1,624.9z"/>
			</g>
		</g>
		<g>
			<g>
				<path class="st3" d="M268.8,476.9c-2.5,9.3-2.6,18.8-0.5,28.2c0.4,1.9,3.3,1.1,2.9-0.8c-2-8.9-1.8-17.8,0.5-26.6
					C272.2,475.8,269.3,475,268.8,476.9L268.8,476.9z"/>
			</g>
		</g>
		<g>
			<g>
				<path class="st3" d="M263.3,489.5c-3.4,4.1-1.9,11.2-1.4,16c0.7,7.3,2.1,14.4,4.2,21.4c0.5,1.8,3.4,1.1,2.9-0.8
					c-1.7-5.8-3.1-11.8-3.8-17.8c-0.5-4.2-2.6-13.2,0.3-16.7C266.6,490.2,264.5,488,263.3,489.5L263.3,489.5z"/>
			</g>
		</g>
		<g>
			<g>
				<path class="st3" d="M363.1,536.1c14,1.1,27.8-0.6,41.1-5.2c1.8-0.6,1-3.5-0.8-2.9c-13,4.5-26.5,6.3-40.3,5.1
					C361.2,532.9,361.2,535.9,363.1,536.1L363.1,536.1z"/>
			</g>
		</g>
		<g>
			<g>
				<path class="st3" d="M376.4,529.7c10.1-0.4,19.6-2.8,28.7-7.2c1.7-0.8,0.2-3.4-1.5-2.6c-8.6,4.2-17.6,6.4-27.2,6.8
					C374.5,526.8,374.5,529.8,376.4,529.7L376.4,529.7z"/>
			</g>
		</g>
		<g>
			<g>
				<path class="st3" d="M468.3,526.1c-6,4.5-12,8.9-18,13.4c-1.5,1.1,0,3.7,1.5,2.6c6-4.5,12-8.9,18-13.4
					C471.4,527.5,469.9,524.9,468.3,526.1L468.3,526.1z"/>
			</g>
		</g>
		<g>
			<g>
				<path class="st3" d="M465.3,534.9c-5.8,4.8-12.1,8.7-19,11.8c-1.8,0.8-0.2,3.4,1.5,2.6c7.1-3.2,13.6-7.3,19.6-12.3
					C468.9,535.8,466.8,533.7,465.3,534.9L465.3,534.9z"/>
			</g>
		</g>
	</g>
</g>
</svg>
