<?xml version="1.0" encoding="utf-8"?>
<!-- Generator: Adobe Illustrator 19.2.0, SVG Export Plug-In . SVG Version: 6.00 Build 0)  -->
<svg version="1.1" id="Layer_1" xmlns="http://www.w3.org/2000/svg" xmlns:xlink="http://www.w3.org/1999/xlink" x="0px" y="0px"
	 viewBox="0 0 290 100" style="enable-background:new 0 0 290 100;" xml:space="preserve">
<style type="text/css">
	.st0{fill:#814927;}
	.st1{fill:#3A291D;}
</style>
<g>
	<g>
		<path class="st0" d="M247.6,24c4.8,4.1,15,8.2,18.5,13.4c0,0,0,2.5-3.8,1.7c-1.2-0.2-12.3-5.6-15.1-6.8L247.6,24z"/>
	</g>
	<g>
		<g>
			<path class="st1" d="M246.7,33.1c3.7,2.4,7.8,4.1,11.9,5.7c2.4,0.9,5.5,2.4,7.7,0.2c4.3-4.5-15.2-14.3-18.1-15.9
				c-1.1-0.6-2.1,1.1-1,1.7c3.3,1.7,6.5,3.5,9.7,5.6c1.8,1.2,3.7,2.5,5.3,4c1.3,1.2,5,3.8,0.8,3.7c-2.2,0-5.2-1.8-7.1-2.7
				c-2.7-1.2-5.5-2.4-8-4.1C246.6,30.7,245.6,32.4,246.7,33.1L246.7,33.1z"/>
		</g>
	</g>
	<g>
		<path class="st0" d="M41.7,24c-4.8,1.9-16,8.2-19.5,13.4c0,0,0,2.5,3.8,1.7c1.2-0.2,13.3-5.6,16.1-6.8L41.7,24z"/>
	</g>
	<g>
		<g>
			<path class="st1" d="M40.6,31.4c-2.4,1.5-5,2.7-7.6,3.9c-2,0.9-5.2,2.9-7.6,2.9c-0.5,0.2-1,0-1.4-0.4c-1.1-0.3-1.2-0.7,0-1.1
				c0.4-0.7,1.2-1.3,1.8-1.8c1.6-1.5,3.4-2.8,5.2-4c3.3-2.2,6.7-4.1,10.1-5.9c1.1-0.6,0.1-2.3-1-1.7C37.3,24.7,17.8,34.5,22.1,39
				c2.1,2.2,5.3,0.8,7.7-0.2c4.1-1.6,8.2-3.3,11.9-5.7C42.7,32.4,41.7,30.7,40.6,31.4L40.6,31.4z"/>
		</g>
	</g>
	<path class="st1" d="M245.8,22.3c-8.8-3.5-38-3.5-46.1-3.5c-25.2,0-31,2-36.2,7.9l0,0c-2.9,2.6-5.5,5.5-7.9,4.2
		c-2-1.3-4.6-1.5-11.2-1.5c-6.6,0-9.2,0.2-11.2,1.5c-2.4,1.5-5-1.5-7.9-4.2l0,0c-5.3-5.9-11-7.9-36.2-7.9c-8.1,0-37.5,0-46.3,3.5
		c-0.9,0.4-1.5,1.1-1.5,2.2v7.2c0,1.1,0.9,2,2,2.2c1.5,0.4,3.3,0.9,4,1.3c1.8,0.9,3.5,3.5,3.5,5.9c0.2,6.1,0.2,11.9,1.1,18.4
		c2.2,16,15.6,34.2,37.5,34.2c29.2,0,40.6-21.5,43.9-38c0.7-3.3,0.9-6.8,0.9-9.9l0,0c0-5.5,4.4-7.9,10.8-7.9
		c6.4,0,10.5,2.4,10.8,7.9l0,0c-0.2,3.3,0.2,6.6,0.9,9.9c3.3,16.5,14.7,38,43.9,38c21.7,0,35.3-18.2,37.5-34.2
		c0.9-6.6,0.7-12.3,0.9-18.4c0-2.2,1.8-5,3.5-5.9c0.7-0.4,2.6-0.9,4-1.3c1.1-0.2,2-1.1,2-2.2v-7.2C247.4,23.6,246.7,22.8,245.8,22.3
		z M126.6,55.7c-0.4,17.1-18.9,35.1-37.8,35.1S56.2,74.6,56.2,55.7c0-7.7,0-13.2,2.9-18.2c5.5-9.9,17.3-14.3,29.9-14.3
		c11.9,0,26.6,2.9,33.8,11.4C127.1,39.9,126.8,48.7,126.6,55.7z M199.5,91c-18.9,0-37.5-18-37.8-35.1c-0.2-7-0.2-15.8,4.2-21.1
		c7.2-8.6,22-11.4,33.8-11.4c12.5,0,24.4,4.4,29.9,14.3c2.9,5,2.9,10.5,2.9,18.2C232.4,74.8,218.4,91,199.5,91z"/>
	<path class="st0" d="M247.6,24"/>
	<path class="st0" d="M247.6,24"/>
</g>
</svg>
