<?xml version="1.0" encoding="utf-8"?>
<!-- Generator: Adobe Illustrator 19.2.0, SVG Export Plug-In . SVG Version: 6.00 Build 0)  -->
<svg version="1.1" id="Layer_1" xmlns="http://www.w3.org/2000/svg" xmlns:xlink="http://www.w3.org/1999/xlink" x="0px" y="0px"
	 viewBox="0 0 290 100" style="enable-background:new 0 0 290 100;" xml:space="preserve">
<style type="text/css">
	.st0{fill:#3A291D;}
	.st1{fill:#EAEAEA;}
	.st2{fill:#814927;}
</style>
<g>
	<path class="st0" d="M258.5,17.6c-4.6-1.2-88.2-10.5-103.1,8.9c-2.5,3.2,8.4,13.7,8.9,13.4c-1.5-26.7,59.8-22.5,70.6-16.6
		c6.4,3.5,9.2,7.9,10,17.8c0.2,2.2,9.2-6.2,12.3-14.7C258.1,24,258.5,17.6,258.5,17.6z"/>
	<path class="st1" d="M243.2,23.1c0,1.9,10.8,3.6,10,0.3C252.6,21.1,243.2,22,243.2,23.1z"/>
	<path class="st2" d="M134.2,25.1c4-0.4,16-0.1,22.3,0c1.3,0-1,3.1,0,5.2c-7.2-0.1-14.5-0.3-21.7,0.3l0.7-2.8L134.2,25.1z"/>
	<path class="st2" d="M259,18c4.8,4.1,10,9.2,13.5,14.4c0,0,0,2.5-3.8,1.7c-1.2-0.2-8.3-4.6-11.1-5.8"/>
	<g>
		<path class="st0" d="M258.8,16.7c-4.9-1.2-10.2-1.4-15.2-1.8c-10.3-0.9-20.7-1.4-31.1-1.5c-11-0.1-22.1,0.3-33,2
			c-7.7,1.2-16.7,3-22.8,8.3c-3,2.6-3.2,4.7-1.2,8.2c1.6,2.7,5.3,8.3,8.5,9.1c0.6,0.2,1.3-0.3,1.3-1c-0.7-19.2,29.3-20.2,42.5-20
			c7.8,0.1,16.1,0.7,23.7,3.1c4.3,1.4,8.2,4.1,10.2,8.3c0.8,1.5,1.2,3.2,1.6,4.9c0.2,1.2,0,4.2,0.7,5.2c0.4,0.6,0.5,1,1.3,1.1
			c3.4,0.6,8.3-7.4,9.8-9.7c3.1-4.8,4.1-9.6,4.5-15.2c0.1-1.3-1.9-1.3-2,0c-0.5,7-2.4,12.6-7,18c-0.9,1.1-1.8,2.1-2.9,3.1
			c-0.3,0.3-1.1,1.3-1.5,1.3c-1.6,0.1,0.2,0.5-0.3-0.5c-1.2-2-0.9-5.8-1.9-8.1c-2.9-7-9.5-10-16.5-11.5c-16.2-3.3-36.3-3.9-51.7,2.9
			c-7.2,3.2-12.7,8.8-12.4,17.1c0.4-0.3,0.8-0.6,1.3-1c-2.6-0.6-6.8-6.7-7.8-8.9c-1.7-4.1,2.6-6.3,5.9-7.9c7.5-3.8,16.3-5,24.6-5.8
			c18.4-1.9,37.1-1.1,55.5,0.4c5.1,0.4,10.5,0.6,15.5,1.8C259.5,18.9,260.1,17,258.8,16.7z"/>
	</g>
	<g>
		<path class="st0" d="M244.2,42.3c-0.9,12.7-4.6,25.8-14.7,34.4c-6.2,5.2-14.1,8-22.1,9c-8.1,1-16.8,0.7-24.1-3.2
			c-8.6-4.7-13.4-13.7-15.8-22.9c-1.6-6.4-1.8-12.7-2.2-19.3c-0.1-1.9-3.1-1.9-3,0c1.1,15.8,2.8,33.5,17.1,43.3
			c14,9.5,37.1,6.6,50.3-3.2c12.1-9,16.6-23.6,17.6-38.1C247.3,40.4,244.3,40.4,244.2,42.3L244.2,42.3z"/>
	</g>
	<g>
		<path class="st0" d="M134.2,26.1c4.4-0.4,9-0.2,13.4-0.1c1.2,0,6.2-0.6,6.9,0.1c0.3,0.4-0.2,3.6,0,4.5c0.3-0.4,0.6-0.8,1-1.3
			c-6.9-0.1-13.8-0.3-20.7,0.3c0.3,0.4,0.6,0.8,1,1.3c0.8-3,0.7-3.4-0.6-6.2c-0.6-1.2-2.3-0.1-1.7,1c1.2,2.5,1.1,2,0.4,4.7
			c-0.1,0.6,0.3,1.3,1,1.3c6.9-0.5,13.8-0.4,20.7-0.3c0.7,0,1.1-0.6,1-1.3c-0.4-1.4,1.2-4.3,0.1-5.5c-1-1.1-4-0.5-5.3-0.5
			c-5.6-0.1-11.4-0.4-17,0.1C132.9,24.2,132.9,26.2,134.2,26.1z"/>
	</g>
	<g>
		<path class="st0" d="M258.3,18.7c2.8,2.4,5.5,4.9,8,7.6c1.2,1.3,2.4,2.7,3.5,4.1c1,1.3,2.8,2.6,0.1,2.8c-1.9,0.1-4-1.6-5.6-2.5
			c-2-1.1-4-2.3-6.2-3.3c-1.2-0.5-2.2,1.2-1,1.7c3.2,1.4,6.2,3.4,9.3,5c1.8,0.9,4.5,1.9,6.2,0.3c2-1.9,0-3.7-1.3-5.3
			c-3.4-4.4-7.4-8.2-11.6-11.8C258.7,16.4,257.3,17.8,258.3,18.7L258.3,18.7z"/>
	</g>
	<path class="st0" d="M32.2,17.6c4.6-1.2,88.2-10.5,103.1,8.9c2.5,3.2-8.4,13.7-8.9,13.4c1.5-26.7-59.8-22.5-70.6-16.6
		c-6.4,3.5-9.2,7.9-10,17.8c-0.2,2.2-9.2-6.2-12.3-14.7C32.6,24,32.2,17.6,32.2,17.6z"/>
	<path class="st1" d="M47.5,23.1c0,1.9-10.8,3.6-10,0.3C38.1,21.1,47.5,22,47.5,23.1z"/>
	<path class="st2" d="M31.7,18c-4.8,4.1-10,9.2-13.5,14.4c0,0,0,2.5,3.8,1.7c1.2-0.2,8.3-4.6,11.1-5.8"/>
	<g>
		<path class="st0" d="M32.5,18.6c4.1-1,8.6-1.2,12.8-1.5c8.3-0.8,16.7-1.3,25-1.5c17.8-0.5,38.1-1.2,55,5.4c2.6,1,7.8,3,9.1,5.8
			c1.2,2.7-2.4,6.4-4,8.2c-0.9,1-2.8,3.7-4.2,4c0.4,0.3,0.8,0.6,1.3,1c0.6-17.1-21.2-20.8-34.1-21.7c-9-0.6-18.1-0.3-27,1.2
			c-6.6,1.1-13.4,2.8-17.6,8.6c-1.7,2.3-2.6,4.9-3.2,7.7c0,0.1-0.8,4.8-0.4,4.6c-0.6,0.2-2.9-2.4-3.3-2.8c-5.5-5.8-8.1-12.1-8.7-20
			c-0.1-1.3-2.1-1.3-2,0c0.3,4.5,0.8,8.7,3,12.7c1.9,3.7,5.8,10.2,10,11.8c3.5,1.3,2.7-2.7,3.2-5.2c1.1-6,4.3-10.7,10-13.2
			c6.6-2.9,14.7-3.3,21.8-3.6c9.4-0.5,19-0.1,28.1,2.2c8.8,2.3,18.5,7.1,18.2,17.6c0,0.7,0.7,1.1,1.3,1c2.7-0.7,5.6-5,7.1-7.1
			c1.9-2.6,4-5.6,1.9-8.5c-4.3-5.9-14.1-8-20.7-9.3c-21-4.1-43.3-3.1-64.5-1.4c-6.1,0.5-12.6,0.6-18.5,2.1
			C30.7,17,31.2,18.9,32.5,18.6z"/>
	</g>
	<g>
		<path class="st0" d="M43.5,42.3c0.9,13.1,4.6,26.5,14.6,35.6c6.6,6,15,9.3,23.7,10.5c8.5,1.2,17.6,1.1,25.5-2.6
			c9.3-4.4,15.1-13.2,18.1-22.9c2.3-7.5,2.6-15,3.1-22.8c0.1-1.9-2.9-1.9-3,0c-1,14.4-2.2,30.8-14.9,40.2
			c-12.5,9.2-33.8,6.9-46.2-1.4c-12.3-8.1-16.9-22.6-17.9-36.7C46.4,40.4,43.4,40.4,43.5,42.3L43.5,42.3z"/>
	</g>
	<g>
		<path class="st0" d="M31,17.3c-4.2,3.6-8.2,7.4-11.6,11.8c-1.3,1.7-3.3,3.5-1.3,5.3c1.8,1.7,4.4,0.7,6.2-0.3
			c3.1-1.6,6.1-3.5,9.3-5c1.2-0.5,0.2-2.3-1-1.7c-2.1,1-4.1,2.1-6.2,3.3c-1.6,0.9-3.7,2.6-5.6,2.5c-2.1-0.1-1.5-0.8-0.5-2
			c1.3-1.7,2.7-3.3,4.1-4.9c2.5-2.7,5.2-5.2,8-7.6C33.4,17.8,32,16.4,31,17.3L31,17.3z"/>
	</g>
</g>
</svg>
