<?xml version="1.0" encoding="utf-8"?>
<!-- Generator: Adobe Illustrator 19.2.0, SVG Export Plug-In . SVG Version: 6.00 Build 0)  -->
<svg version="1.1" id="Layer_1" xmlns="http://www.w3.org/2000/svg" xmlns:xlink="http://www.w3.org/1999/xlink" x="0px" y="0px"
	 viewBox="0 0 323 353" style="enable-background:new 0 0 323 353;" xml:space="preserve">
<style type="text/css">
	.st0{fill:#EFEFEF;}
	.st1{fill:#BBBBBC;}
	.st2{fill:#7A7B7B;}
</style>
<path class="st0" d="M154.3,220.8l-0.2-0.1v-0.1l-0.1-0.1v-0.1l-0.1-0.4c-1.9-7.1-9.4-8.2-15.4-9.1l-1.1-0.2
	c-3.9-0.6-7.6-2.1-11.2-4.5l-0.8-0.5l-0.5,0.2c-0.4-0.4-0.7-0.7-1.1-1.1c-1.7-1.8-3.6-3.8-6.2-4.7c-1.2-0.4-2.4-0.7-3.5-1
	c-1.4-0.3-2.6-0.7-3.8-1.2c-0.9-0.4-1.7-0.8-2.6-1.4l-0.3-0.2h-0.2l-0.1-0.1l-0.3-0.3c-2.3-1.8-4.1-4-5.7-6.2v-0.2l-0.1-0.4l0,0
	c0-1.3-0.2-2.7-0.1-4.2l0.1-1.3l-1.1-0.4l-0.1-0.3l-0.5-0.3c-2.2-1.5-3.9-3.4-5-5.7l-0.5-1h-1c-1.6-1.3-2.9-2.7-3.9-4.3
	c-0.4-0.6-0.8-1.3-1.2-2c-0.7-1.3-1.5-2.6-2.5-3.8l0.2-0.6l-0.3-0.5c2.9-5.3,5-11.1,7-16.7c0.6-1.7,1.3-3.5,1.9-5.2l0.6-1.5
	c2.9-7.7,6-15.7,9.6-23.3c3.6-6.4,10.8-11.1,17.1-15.3l0.7-0.4c1.5-1,3-1.2,4.8-1.4c1.6-0.2,3.2-0.4,4.9-1.1
	c1.4-0.6,2.8-1.4,4.1-2.1c2.1-1.2,4-2.3,6.2-2.7c4.9-0.9,9-1.3,13-1.3c0.7,0,1.4,0,2.2,0h0.4h0.1h0.1h0.3c1.8,0.1,3.7,0.3,5.6,0.6
	c1.5,0.2,3.1,0.3,4.8,0.3c1.9,0,3.7-0.1,5.5-0.3c1.8-0.1,3.6-0.3,5.5-0.3h0.4l0.4,0.3l0.7-0.1c3.2,0.2,5.7,1.2,8.6,2.6
	c2.3,1.1,4.8,1.7,7.1,2.2c1.7,0.4,3.3,0.7,4.8,1.3c1.6,0.6,3.2,1.4,4.8,2.2c1.8,0.9,3.6,1.9,5.6,2.5c1,0.3,1.9,0.6,2.8,0.8
	c2,0.5,3.7,1,5.3,2.2c1.8,1.3,3.1,3,3.9,4.9c0.3,0.7,0.4,1.5,0.6,2.3c0.1,0.5,0.2,1,0.3,1.5c0.6,2.6,1.5,3.8,2.5,5.3
	c0.2,0.3,0.5,0.7,0.7,1c1.2,1.8,2,3.9,2.8,6.1c0.2,0.6,0.4,1.2,0.6,1.7c1.7,4.4,3.6,8.7,6,13.3l-1,1.4l1.7,0.9l0.3,0.5l0.6,0.1
	c2.4,2,3.6,5.3,4.4,8.3c0.7,2.6,1.4,5.3,1,7.5l-0.1,0.5l0.1,0.3c0,0.6-0.1,1.2-0.2,1.8v0.3v0.2l-0.1,0.1l-0.1,0.4
	c-1,4.3-3.9,8.4-6.8,12.2h-0.3l-0.1,0.1l-0.8-0.6l-1.1,0.7c-2.3,1.4-4.3,2.6-6.7,2.6l-1-0.2l-0.7,0.7c-0.6,0.6-1.5,1.1-2.4,1.6
	l-0.3,0.1c-0.6,0.3-1.3,0.6-1.9,0.7l-1.6,0.2v1.5c0,4.5-1.4,8.5-3.9,11.7l-0.4-0.1l-0.4,0.2l-2.5,0.2l0.4,0.7
	c-0.3,0.1-0.6,0.2-0.9,0.3c-0.8,0.3-1.8,0.5-2.8,0.7l-1.2,0.2l-0.3,1.2c-0.2,0.4-1.2,0.7-2,1c-0.3,0.1-0.5,0.2-0.8,0.3
	c-1.5,0.6-3,0.9-4.4,0.9c-0.2,0-0.4,0-0.6,0l-1.4-0.3l-0.6,1.2c-1.1,2.1-2.5,4-3.9,5.8l-1.1,0.1l-0.4,1.1c-0.6,1.7-1.2,3.4-2,5h-0.8
	c-3.6,0-7.1-0.4-10.6-1l-1.3-0.2l-0.7,1.1c-0.2,0.3-0.4,0.6-0.5,0.9H177c-0.7,0.1-1.4,0.1-2.1,0.1c-0.8,0-1.6-0.1-2.4-0.2l-1.6-0.3
	l-0.7,1.9l-0.2,0.6l0.1,0.2l-1.9,0.2C163.6,220,158.9,220.6,154.3,220.8L154.3,220.8z M188.4,168.3l1.2-0.4c1.4,0.2,2.6,0.3,3.8,0.3
	c3.1,0,5.5-0.8,7.9-2.7c0.2-0.1,0.3-0.3,0.5-0.4l0.4-0.3l0.1-0.1l0.1-0.1l0.5-0.4c1-0.8,1.9-1.6,2.9-2.2l0.4-0.2l0.2-0.3h0.2
	l0.4-0.2c1.6-0.9,3.2-1.8,4.8-2.7c2.6-1.4,5.4-2.9,8-4.6l1.1-0.7l-0.4-1.2c-0.7-2-2.1-3.7-3.5-5.3c-1.2-1.4-2.4-2.8-3-4.3
	c-0.5-1.5-0.9-3.2-1-5.4c0-0.3,0-0.9,0-1.5c0.1-2.2,0.1-3.6-0.8-4.5c-1.3-1.5-4-2.2-7.4-2.9c-0.7-0.2-1.4-0.3-1.8-0.5
	c-2.8-0.8-5.9-1.7-9.9-2.8c-2.3-0.6-4.6-1.2-6.9-1.7c-3-0.7-6-1.5-9-2.3c-1.5-0.4-3-1-4.5-1.7c-2-0.8-4.1-1.7-6.5-2.2
	c-1.2-0.2-2.4-0.4-3.7-0.4c-4.4,0-9.4,1.4-13.8,4h-0.3c-0.2,0-0.4,0-0.6,0c-1.3,0-2.6,0.1-3.8,0.1c-1.2,0.1-2.4,0.1-3.6,0.1
	c-0.2,0-0.5,0-0.7,0h-0.8c-0.8,0-1.5,0-2.3,0c-1.6,0-3.7,0.1-5.9,0.8l-0.5,0.2l-0.2,0.3c-2.8,0.8-5.5,1.9-8,3.2l-0.6,0.3l-0.3,0.5
	c-0.6,1.2-1.5,2.3-2.6,3.2l-1.2,1l1,1.4l0.2,0.2c-0.5,0.8-1,1.7-1.5,2.5c-0.9,1.6-1.7,3.1-2.8,4.3L113,140l1.1,0.9l-0.1,0.3l0.3,0.5
	l-3.3,3.8l2.2,0.9c0.7,0.3,1.3,0.6,1.9,0.9v0.4l0.5,0.5c3.1,6.3,8.2,9.1,12.8,11.1l0.2,0.1h0.1h0.1l0.2,0.1c0.6,0.3,1.3,0.5,1.9,0.8
	l0.1,0.1c1.2,0.4,2.3,0.9,3.4,1.3l1,0.3l0.3-0.2l0.1,0.3l1.1,0.3c3.8,1.2,6.9,1.7,10.1,1.7c0.4,0,0.8,0,1.2,0l2.4,0.5l-0.1-2.3
	c-0.3-8.4,0.2-15.2,1.7-21.5c4-1.5,8.7-1.7,13.1-1.7h1c0.5,0,1.1,0,1.7,0c0.7,0,1.4,0,2.2,0c0.9,0,3.7,0,5,0.7
	c1.2,0.7,2,4.1,2.3,5.9c0.1,0.7,0.3,1.4,0.4,1.9c1.6,5.7,2.9,11.7,3.9,17.8l0.3,2.1l2.3-0.7c0.8-0.3,2.4-0.5,2.4-0.8v0.2l0.5,0.5
	L188.4,168.3z"/>
<g>
	<path class="st1" d="M228.9,180c1.6-3.1,1.5-6.6-0.2-10c-1.8-3.6-5-5.8-8.3-8c-1.8-1.2-3.6-2.5-5.3-4l-0.9-0.8l1.1-0.6
		c1.5-0.8,3.4-1.9,5.2-3.2l0.5-0.3l0.5,0.2c5,2.1,8.9,5.2,11.6,9.1c2.4,3.4,5.5,10.3,4.2,15l-0.2,0.6l-0.6,0.1c-0.1,0-0.1,0-0.2,0.1
		c-0.4,0.2-0.8,0.5-1.1,0.7c-1.6,1-3.3,2-5.3,2.4l-1.8,0.3L228.9,180z"/>
	<path class="st1" d="M125.3,191.1c1-10.4,4.5-20.2,10.2-28.3l0.4-0.6l0.7,0.2c2,0.6,3.8,1.1,5.5,1.4l1.8,0.3l-1.3,1.2
		c-7.1,6.5-12.5,15.5-15.4,26L125.3,191.1z"/>
	<path class="st1" d="M111.6,141.2c-2.5-1.5-5.9-2.3-9.2-2.3c-1.9,0-3.7,0.3-5.3,0.8l-1.8,0.6l0.6-1.7c2-5.6,3.9-10.7,6.1-15.8
		l1.8,0.3c0.5,6.3,3.6,12,9,16.8L111.6,141.2z"/>
	<path class="st1" d="M117.1,129.7c-6.6-6-5.9-13.2-4.1-20.2c0-0.2,0-0.2,0-0.3l-0.4-0.6l0.6-0.5c1.7-1.3,3.6-2.7,6.2-4.3l2.5-1.6
		l-1.1,2.6c-1,2.4-1.5,5.1-1.8,7v0.3c-0.7,4.2-1.7,10.5,1.8,13.6l0.5,0.5l-0.3,0.6c-0.7,1.1-1.5,2.1-2.6,3l-0.7,0.5L117.1,129.7z"/>
	<path class="st1" d="M181.8,122c-1.6-0.4-3.3-1-5.4-1.7l-0.8-0.3l0.2-0.8c1.7-5.5,2.4-10.9,2.1-16.1v-0.7c-0.1-2.3-0.3-5.2-1.6-7.1
		l-0.8-1.2L177,94c0.7-0.1,1.5-0.1,2.2-0.1h0.6l0.3,0.5c0,0,0,0.1,0.1,0.1c3.6,4.6,5.2,10.3,5,16.9c-0.1,3-0.3,7.4-2.3,10.2
		l-0.4,0.5L181.8,122z"/>
	<path class="st1" d="M243.2,160.8c-3.9-5.1-11.9-9-18.1-9c-0.2,0-0.5,0-0.7,0l-2.4,0.1l1.7-1.6c1.5-1.4,3.1-2.8,4.9-3.7
		c1.2-0.6,2.7-0.9,4.4-0.9c1.6,0,3.4,0.3,5.6,0.9l0.3,0.1l0.3,0.2c3,2.4,5.6,8.4,5.8,13.4l0.1,2.9L243.2,160.8z"/>
	<path class="st1" d="M220,150.9c-0.2-0.4-0.6-0.9-1-1.4l-0.5-0.6l0.6-0.5c4.5-3.7,10.2-9.4,11.8-15.2l0.7-2.8l1.4,3.5
		c1.4,3.4,2.8,6.8,4.4,10.1l0.8,1.6l-1.9-0.4c-1.4-0.3-2.7-0.4-3.9-0.4c-1.3,0-2.5,0.2-3.5,0.5c-2.3,0.7-4.4,2.8-6.3,4.7
		c-0.4,0.4-0.8,0.8-1.2,1.1l-0.9,0.8L220,150.9z"/>
	<path class="st1" d="M217.3,147.4c-0.4-0.5-0.9-1-1.3-1.6c-0.4-0.6-0.8-1.2-1.2-1.9l-0.3-0.6l0.5-0.4c3.1-2.8,5.8-6.3,8.1-10.5
		l0.2-0.3c1.4-2.6,2.9-5.2,3.6-8l0.5-2.1l1.2,1.8c0.4,0.6,0.7,1.1,0.9,1.5c0.5,0.9,0.9,1.9,1.3,2.8l0.3,0.6l-0.6,0.4
		c0,0-0.1,0.1-0.1,0.3c0.3,5.3-3.6,11.3-11.7,18L218,148L217.3,147.4z"/>
	<path class="st1" d="M211.5,130.5c-0.6-0.3-1.2-0.6-1.8-0.8l-1.2-0.5l0.9-0.9c5.6-5.8,7.7-13.5,5.9-21l-0.4-1.6l1.6,0.6
		c1.6,0.6,3.7,1.4,5.4,3.3c0.4,0.4,0.7,0.9,1.1,1.4l0.1,0.2v0.2c0.2,7.3-3.3,14-9.5,18.3h-0.1h-0.1h-0.1l-1.3,0.9L211.5,130.5z"/>
	<path class="st1" d="M200.7,126.6c-2-0.6-4.2-1.1-6.7-1.7l-1.2-0.3l0.6-1c3.9-6.6,4.1-16.8,0.5-23.7l-0.8-1.6l1.8,0.3
		c0.5,0.1,0.9,0.2,1.4,0.2c1.6,0.3,3.2,0.5,4.7,1c0.9,0.3,1.8,0.7,2.8,1.2l0.2,0.1l0.1,0.2c2.1,3.2,2.2,7.5,2.1,11.7
		c-0.1,4.8-0.8,10.1-4.5,13.1l-0.1,0.1l-0.4,0.6L200.7,126.6z"/>
	<path class="st1" d="M148.4,120c-2.6-3.1-3.7-7.8-3-13.2c0.6-4.9,2.5-9.6,5.1-12.6c0.1-0.1,0.1-0.1,0.1-0.2l0.1-0.6l0.7-0.1
		c1.2-0.1,2.3-0.2,3.4-0.2c0.3,0,0.7,0,1,0h1.3l-0.5,1.1c-1.7,4-2.5,8.2-2.5,13.2c0,1.9,0,6.4,1.8,8.8l0.7,1l-1.2,0.4
		c-1.9,0.6-3.9,1.4-5.8,2.5l-0.7,0.4L148.4,120z"/>
	<path class="st1" d="M130.3,121.8c-0.4,0-1-0.2-1.6-0.8c-2.1-2.3-1.4-10.2-1.4-10.3v-0.3c0.3-3.4,0.8-8.1,4-10.4c0,0,0.1,0,0.1-0.1
		l0.1-0.1l0.2-0.1c0.3-0.1,0.6-0.3,0.9-0.5c2.2-1.4,4.2-2.4,6.3-3.2l3.2-1.2l-2.1,2.6c-2.9,3.6-4.8,7.6-5.5,12
		c-0.6,3.8-0.9,7.6,1.1,10.1l1.1,1.3l-1.7,0.1c-1.6,0.1-2.9,0.4-4.2,0.8l-0.2,0.1H130.3z"/>
	<path class="st1" d="M90.1,153.6c1.6-3.9,3.1-7.9,4.5-11.7l0.1-0.3l0.3-0.2c2-1.1,4.7-1.8,7.4-1.8c3.9,0,7.6,1.2,10,3.2l0.7,0.6
		l-0.8,0.9l-0.4,0.6l-0.7-0.2h-0.1c-6.7,0.8-13.8,4.3-19.5,9.7L90.1,153.6z"/>
	<path class="st1" d="M98.7,182.1c-2.2-1.6-3.9-3.7-4.8-6.2l-0.1-0.3l0.1-0.3c0-0.1,0-0.1,0-0.1c1.3-10.5,11-22.5,21.2-26.2l0.8-0.3
		l0.4,0.7c0.4,0.8,0.9,1.5,1.4,2.2l0.5,0.6l-0.6,0.5c-9.2,7.4-15.9,18.5-17.3,28.8l-0.2,1.5L98.7,182.1z"/>
	<path class="st1" d="M116.6,199.7c-3.7-1-6.5-2.1-8.9-3.7l-0.4-0.3v-0.4c-0.3-14.1,5-27.7,14.8-38.3l0.6-0.6l0.7,0.4
		c1.2,0.7,2.4,1.4,3.8,2l1.1,0.5l-0.8,0.9c-9.5,10.7-13.5,26.5-9.7,38.4l0.5,1.5L116.6,199.7z"/>
	<path class="st1" d="M149.6,214c-0.8-0.5-1.9-1-3.1-1.5c-0.9-0.3-1.8-0.6-2.8-0.8l-0.4-0.1l-0.2-0.3c-8.1-13.8-0.6-31.5,4.9-44.5
		l1.8,0.3c0.3,4.2,0.7,8.1,1.2,12.9c0.2,1.9,0.5,3.9,0.7,6c1.2,9,2.6,19.2-0.8,27.6l-0.4,1L149.6,214z"/>
	<path class="st1" d="M190.6,216.3c-3.4,0-6.7-0.3-10-0.9l-1.2-0.2l0.5-1c7-13.3,5.7-30.3,3.5-45.2c0-0.2-0.2-0.9-0.2-0.9l-0.1-0.7
		l0.7-0.2c0.7-0.2,1.5-0.5,2.2-0.8l0.7-0.3l0.4,0.6c10.3,14.8,11.7,31.8,4.2,49.1l-0.2,0.5L190.6,216.3z"/>
	<path class="st1" d="M201.2,203.3l-0.7-0.4l0.3-0.7c5-11,4.5-23.9-1.4-34.4l-0.4-0.7l0.7-0.4c0.5-0.3,1.1-0.7,1.7-1.1l0.6-0.5
		l0.6,0.4c3.7,2.7,6.4,7.5,8.2,14.1c2.2,7.9,1.3,15.5-2.6,21.7v0.1l-0.1,0.3l-0.3,0.2c-1.9,1-3.9,1.6-6,1.6h-0.3L201.2,203.3z"/>
	<path class="st1" d="M210.7,198.3c2.4-5.7,2.8-12.3,0.9-19c-1.2-4.4-3.6-10.5-8.2-14.2l-0.8-0.7l0.8-0.7c0.7-0.6,1.5-1.2,2.3-1.7
		l0.5-0.3l0.5,0.3c6.4,3.6,11.4,10.5,13.2,18.1c1.5,6.5,0.4,12.7-3,17.4l-0.3,0.4l-0.6-0.1c-0.4,0-0.9,0.3-1.4,0.5
		c-0.3,0.2-0.6,0.3-0.9,0.4c-0.6,0.2-1.2,0.4-1.9,0.6L210,200L210.7,198.3z"/>
</g>
<g>
	<g>
		<path class="st2" d="M163.2,94.4c-2.1,6.3-4.6,15.2-2.5,21.8c0.6,1.8,3.5,1.1,2.9-0.8c-1.9-6.1,0.6-14.3,2.5-20.2
			C166.7,93.4,163.8,92.6,163.2,94.4L163.2,94.4z"/>
	</g>
	<g>
		<path class="st2" d="M156.5,92.2c-2.6,5.3-3.5,10.8-3.3,16.7c0.1,3,0.6,8.2,3.8,9.6c1,0.4,1.8,0.1,2.2-0.9c0-0.1,0.1-0.1,0.1-0.2
			c0.2-0.6-0.2-1.4-0.7-1.7c-0.1,0-0.1-0.1-0.2-0.1c-1.7-0.9-3.2,1.6-1.5,2.6c0.1,0,0.1,0.1,0.2,0.1c-0.2-0.6-0.5-1.1-0.7-1.7
			c0,0.1-0.1,0.1-0.1,0.2c0.7-0.3,1.5-0.6,2.2-0.9c-2.9-1.3-2.4-7.5-2.3-10c0.1-4.4,1-8.3,2.9-12.3C159.9,92,157.4,90.5,156.5,92.2
			L156.5,92.2z"/>
	</g>
	<g>
		<path class="st2" d="M149.2,92.8c-6.2,7.2-8.7,22-1.5,29.3c1.4,1.4,3.5-0.7,2.1-2.1c-5.9-6.1-3.6-19.2,1.5-25.1
			C152.6,93.5,150.4,91.4,149.2,92.8L149.2,92.8z"/>
	</g>
	<g>
		<path class="st2" d="M142.1,93.7c-4.6,4.3-7.7,9.5-8.7,15.7c-0.7,4.5-1.1,9.7,3.2,12.4c1.6,1,3.1-1.6,1.5-2.6
			c-3.8-2.4-2-9.8-0.8-13.2c1.3-4,3.8-7.3,6.9-10.2C145.6,94.5,143.5,92.3,142.1,93.7L142.1,93.7z"/>
	</g>
	<g>
		<path class="st2" d="M130.2,98.6c-4.3,3.1-4.9,9.5-5,14.4c-0.1,3.3,0.6,11.2,5.4,10.8c1.9-0.2,1.9-3.2,0-3
			c-2.6,0.2-2.4-7.5-2.3-9.2c0.2-3.1,0.7-8.4,3.4-10.4C133.2,100,131.7,97.4,130.2,98.6L130.2,98.6z"/>
	</g>
	<g>
		<path class="st2" d="M124.8,99.5c-4.7,0.1-6.4,9.4-6.9,12.9c-0.7,5-1.5,11.3,2.9,14.7c1.5,1.2,3-1.4,1.5-2.6
			c-3-2.3-1.9-8.3-1.5-11.5c0.2-1.7,1.7-10.4,3.9-10.5C126.7,102.5,126.7,99.5,124.8,99.5L124.8,99.5z"/>
	</g>
	<g>
		<path class="st2" d="M111.1,109c-1.3,5-2.5,10.2-0.6,15.2c1.5,3.9,4.5,6.7,7.8,9c1.6,1.1,3.1-1.5,1.5-2.6
			c-3.1-2.2-5.8-4.8-6.9-8.5c-1.2-4,0-8.3,1-12.3C114.5,107.9,111.6,107.1,111.1,109L111.1,109z"/>
	</g>
	<g>
		<path class="st2" d="M102.9,117c-1.5,10.3,2.9,18.8,10.9,25.1c1.5,1.2,3.6-0.9,2.1-2.1c-7.1-5.6-11.5-12.9-10.1-22.2
			C106.1,115.9,103.2,115.1,102.9,117L102.9,117z"/>
	</g>
	<g>
		<path class="st2" d="M115.6,146.8c-11.4,3.6-22.1,16.6-23.6,28.5c-0.2,1.9,2.8,1.9,3,0c1.3-10.5,11.4-22.4,21.4-25.6
			C118.2,149.1,117.4,146.2,115.6,146.8L115.6,146.8z"/>
	</g>
	<g>
		<path class="st2" d="M117.3,151.6c-10.7,8.5-19.8,23.5-18.2,37.6c0.2,1.9,3.2,1.9,3,0c-1.5-13.4,7.1-27.4,17.3-35.5
			C120.9,152.5,118.8,150.4,117.3,151.6L117.3,151.6z"/>
	</g>
	<g>
		<path class="st2" d="M121.1,155.3c-10.6,11.2-16.4,25.8-15.7,41.3c0.1,1.9,3.1,1.9,3,0c-0.6-14.7,4.8-28.5,14.9-39.2
			C124.5,156,122.4,153.9,121.1,155.3L121.1,155.3z"/>
	</g>
	<g>
		<path class="st2" d="M128.1,158.1c-10.3,10.6-16.3,29.1-10.4,43.2c0.7,1.8,3.6,1,2.9-0.8c-5.5-13.2,0-30.4,9.6-40.3
			C131.5,158.9,129.4,156.7,128.1,158.1L128.1,158.1z"/>
	</g>
	<g>
		<path class="st2" d="M134.8,160.3c-9.6,12.7-13.2,29.4-11.3,45.1c0.2,1.9,3.2,1.9,3,0c-1.9-15.3,1.5-31.2,10.9-43.6
			C138.6,160.3,136,158.8,134.8,160.3L134.8,160.3z"/>
	</g>
	<g>
		<path class="st2" d="M143.5,163.1c-12.1,10-18.7,26.3-19.8,41.7c-0.1,1.9,2.9,1.9,3,0c1.1-14.7,7.4-30.1,18.9-39.6
			C147.1,164,145,161.9,143.5,163.1L143.5,163.1z"/>
	</g>
	<g>
		<path class="st2" d="M147.2,163.7c-6,14.4-14.5,33.7-5.6,48.7c1,1.7,3.6,0.1,2.6-1.5c-8.4-14.1,0.2-32.8,5.9-46.3
			C150.8,162.8,147.9,162,147.2,163.7L147.2,163.7z"/>
	</g>
	<g>
		<path class="st2" d="M150.5,140.3c-3.1,12.7-1.9,25.9-0.5,38.8c1.1,10.6,4.4,24.3,0,34.5c-0.8,1.8,1.8,3.3,2.6,1.5
			c4.1-9.7,2-21.5,0.9-31.6c-1.5-14-3.4-28.5-0.1-42.3C153.8,139.2,150.9,138.4,150.5,140.3L150.5,140.3z"/>
	</g>
	<g>
		<path class="st2" d="M152.3,142.1c4.7-1.8,10.1-1.9,15.2-1.8c2,0,4,0.3,5.9,0.3c0.3,0,1.5,0.1,1.9,0.3c-0.4-0.3-0.6-0.5-0.4-0.2
			c1.2,1.4,1.5,4.7,2,6.4c1,3.6,1.9,7.2,2.7,10.9c3.8,18.1,7.6,42.3-3.4,58.6c-1.1,1.6,1.5,3.1,2.6,1.5c12-17.7,7.6-43.9,3.2-63.4
			c-0.9-3.9-1.9-7.7-3-11.5c-0.4-1.3-0.7-3.6-1.8-4.6c-2-1.8-7.3-1.3-9.6-1.3c-5.3-0.1-11,0-16,1.9
			C149.7,139.9,150.5,142.8,152.3,142.1L152.3,142.1z"/>
	</g>
	<g>
		<path class="st2" d="M165.6,139.3c-1.4,11.6,2.5,23.3,4.7,34.5c3.1,15.3,4.3,30.7-1.4,45.5c-0.7,1.8,2.2,2.6,2.9,0.8
			c5.3-13.7,4.9-28.2,2.3-42.5c-2.2-12.5-7-25.6-5.5-38.4C168.8,137.4,165.8,137.4,165.6,139.3L165.6,139.3z"/>
	</g>
	<g>
		<path class="st2" d="M160.2,139.8c-3.9,13.5-1.5,28-0.3,41.8c1.1,12.4,3.2,29-7.4,38c-1.5,1.3,0.7,3.4,2.1,2.1
			c9.9-8.5,9.6-22.8,8.7-34.7c-1.1-15.2-4.5-31.4-0.2-46.4C163.6,138.7,160.7,137.9,160.2,139.8L160.2,139.8z"/>
	</g>
	<g>
		<path class="st2" d="M186.4,167.2c10.6,15.3,11.2,32.6,3.6,49.3c-0.8,1.7,1.8,3.3,2.6,1.5c8.1-17.6,7.7-36-3.6-52.3
			C187.9,164.1,185.3,165.6,186.4,167.2L186.4,167.2z"/>
	</g>
	<g>
		<path class="st2" d="M197.2,167.9c7.8,13.2,6.5,29.8-3.3,41.7c-1.2,1.5,0.9,3.6,2.1,2.1c10.6-12.9,12.3-30.9,3.8-45.3
			C198.8,164.7,196.2,166.2,197.2,167.9L197.2,167.9z"/>
	</g>
	<g>
		<path class="st2" d="M201.1,165.7c10.7,6.9,12.3,25,6.2,35c-1,1.7,1.6,3.2,2.6,1.5c7-11.5,4.8-31.4-7.3-39.1
			C201,162.1,199.5,164.7,201.1,165.7L201.1,165.7z"/>
	</g>
	<g>
		<path class="st2" d="M205.3,162.4c11.4,5.7,19.5,23.8,10.5,34.9c-1.2,1.5,0.9,3.6,2.1,2.1c10.1-12.5,2.2-32.9-11.1-39.6
			C205.1,158.9,203.6,161.5,205.3,162.4L205.3,162.4z"/>
	</g>
	<g>
		<path class="st2" d="M213.6,159.3c5.5,5.1,20.8,12,12.3,21.6c-1.3,1.4,0.8,3.6,2.1,2.1c3.3-3.7,3.9-8.6,1.8-13.1
			c-3-6.4-9.3-8.4-14.1-12.8C214.3,155.9,212.2,158,213.6,159.3L213.6,159.3z"/>
	</g>
	<g>
		<path class="st2" d="M221.1,154.4c4.6,1.9,8.7,5,11.5,9.2c2.2,3.4,5.4,10.9,3.2,14.9c-0.9,1.7,1.6,3.2,2.6,1.5
			c2.6-4.6,0-12.3-2.3-16.6c-3.1-5.6-8.2-9.5-14.1-11.9C220.1,150.7,219.4,153.6,221.1,154.4L221.1,154.4z"/>
	</g>
	<g>
		<path class="st2" d="M168.1,95.2c-0.3,7.3-0.7,14.6-1.1,21.9c-0.1,1.9,2.9,1.9,3,0c0.5-7.3,0.8-14.6,1.1-21.9
			C171.2,93.3,168.2,93.3,168.1,95.2L168.1,95.2z"/>
	</g>
	<g>
		<path class="st2" d="M173.9,95.7c2.6,2.2,2.1,8.3,2,11.2c-0.1,4.4-1,8.6-2.4,12.8c-0.6,1.8,2.3,2.6,2.9,0.8
			c1.8-5.6,2.7-11.3,2.4-17.1c-0.2-3.2-0.2-7.5-2.9-9.8C174.6,92.3,172.5,94.4,173.9,95.7L173.9,95.7z"/>
	</g>
	<g>
		<path class="st2" d="M179.5,95.4c3.6,4.6,4.8,10.3,4.5,16c-0.1,2.7-0.3,7.4-2.1,9.6c-1.2,1.5,0.9,3.6,2.1,2.1
			c2.4-3,2.8-8.1,3-11.8c0.3-6.6-1.4-12.9-5.4-18.1C180.5,91.8,178.4,93.9,179.5,95.4L179.5,95.4z"/>
	</g>
	<g>
		<path class="st2" d="M190.8,98.7c4.8,6.8,4.7,18.7,0,25.3c-1.1,1.6,1.5,3.1,2.6,1.5c5.3-7.4,5.4-20.7,0-28.3
			C192.3,95.6,189.7,97.1,190.8,98.7L190.8,98.7z"/>
	</g>
	<g>
		<path class="st2" d="M203.3,101.9c3.7,5.5,3.1,19.1-2.2,23.5c-1.5,1.2,0.6,3.3,2.1,2.1c6.4-5.2,7.1-20.5,2.6-27.1
			C204.8,98.8,202.2,100.3,203.3,101.9L203.3,101.9z"/>
	</g>
	<g>
		<path class="st2" d="M212.8,106.1c2.6,7.9,0.4,16-5.7,21.7c-1.4,1.3,0.7,3.5,2.1,2.1c6.7-6.4,9.4-15.7,6.4-24.6
			C215.1,103.4,212.2,104.2,212.8,106.1L212.8,106.1z"/>
	</g>
	<g>
		<path class="st2" d="M222,111.3c0.3,7.7-3.7,14.4-10.2,18.3c0.5,0.9,1,1.7,1.5,2.6c0.3-0.2,0.6-0.4,0.9-0.6
			c1.6-1.1,0.1-3.7-1.5-2.6c-0.3,0.2-0.6,0.4-0.9,0.6c-1.6,1.1-0.2,3.6,1.5,2.6c7.4-4.5,12-12.2,11.7-20.9
			C224.9,109.4,221.9,109.3,222,111.3L222,111.3z"/>
	</g>
	<g>
		<path class="st2" d="M225.2,120.3c0.5,7.4-6.8,17-12,21.6c-1.4,1.3,0.7,3.4,2.1,2.1c3.6-3.2,6.4-7,8.7-11.1
			c2.1-3.9,4.5-8,4.2-12.6C228.1,118.4,225.1,118.3,225.2,120.3L225.2,120.3z"/>
	</g>
	<g>
		<path class="st2" d="M229.3,129.6c0.4,6.8-7.2,13.8-11.9,17.7c-1.5,1.2,0.6,3.3,2.1,2.1c5.3-4.3,13.3-12.1,12.8-19.8
			C232.2,127.6,229.2,127.6,229.3,129.6L229.3,129.6z"/>
	</g>
	<g>
		<path class="st2" d="M111,143.8c-11.1,1.3-22.5,9.9-27.5,20c-0.9,1.7,1.7,3.2,2.6,1.5c4.5-9.1,14.9-17.3,25-18.5
			C112.9,146.6,112.9,143.6,111,143.8L111,143.8z"/>
	</g>
	<g>
		<path class="st2" d="M102.3,117c-7.2,15.2-11.2,32-19.2,46.8c-0.9,1.7,1.7,3.2,2.6,1.5c8-14.8,12-31.6,19.2-46.8
			C105.8,116.8,103.2,115.3,102.3,117L102.3,117z"/>
	</g>
	<g>
		<path class="st2" d="M238.3,147.7c2.4,1.9,3.5,5.2,4.3,8c0.6,2.3,1.6,5.3,0.9,7.7c-0.5,1.9,2.4,2.7,2.9,0.8
			c1.5-5.4-1.7-15.1-6-18.6C239,144.3,236.8,146.4,238.3,147.7L238.3,147.7z"/>
	</g>
	<g>
		<path class="st2" d="M114.9,149c2.7,5.6,7.1,9,12.8,11.3c6.6,2.6,13.3,5.4,20.5,5c1.9-0.1,1.9-3.1,0-3c-5.9,0.3-11.1-1.7-16.5-3.7
			c-6.2-2.3-11.1-4.9-14.2-11.1C116.7,145.8,114.1,147.3,114.9,149L114.9,149z"/>
	</g>
	<g>
		<path class="st2" d="M91.9,176.2c1.3,3.6,3.7,6.4,7,8.4c-0.2-0.7-0.4-1.4-0.5-2.1c-0.1,0.1-0.1,0.2-0.2,0.2
			c-1.1,1.6,1.5,3.1,2.6,1.5c0.1-0.1,0.1-0.2,0.2-0.2c0.5-0.7,0.1-1.7-0.5-2.1c-2.6-1.5-4.6-3.8-5.6-6.6
			C94.1,173.6,91.2,174.4,91.9,176.2L91.9,176.2z"/>
	</g>
	<g>
		<path class="st2" d="M99.3,190.4c2.8,3.9,5.6,7.2,10.1,9.1c2.4,1,5,1.4,7.4,2.2c2.7,1,4.7,3.6,6.8,5.6c1.4,1.4,3.5-0.8,2.1-2.1
			c-2.9-2.8-4.9-5.5-8.9-6.5c-6.7-1.8-11-4.1-15-9.8C100.8,187.3,98.2,188.8,99.3,190.4L99.3,190.4z"/>
	</g>
	<g>
		<path class="st2" d="M124.3,207.3c3.9,2.8,8.1,4.6,12.9,5.3c6.2,0.9,13.5,1.4,15,8.7c0.4,1.9,3.3,1.1,2.9-0.8
			c-1.1-5.4-3.9-7.4-8.9-9.3c-2.9-1-5.7-1.1-8.7-1.6c-4.3-0.7-8.1-2.3-11.7-4.9C124.3,203.6,122.8,206.2,124.3,207.3L124.3,207.3z"
			/>
	</g>
	<g>
		<path class="st2" d="M154.1,222.8c5.6-0.2,11.1-0.9,16.7-1.5c1.9-0.2,1.9-3.2,0-3c-5.5,0.6-11.1,1.4-16.7,1.5
			C152.2,219.9,152.1,222.9,154.1,222.8L154.1,222.8z"/>
	</g>
	<g>
		<path class="st2" d="M171.7,218.8c2,0.4,4,0.4,6.1,0.1c0.8-0.1,1.2-1.1,1-1.8c-0.2-0.9-1-1.2-1.8-1c-1.5,0.2-3,0.2-4.5-0.1
			C170.6,215.5,169.8,218.4,171.7,218.8L171.7,218.8z"/>
	</g>
	<g>
		<path class="st2" d="M179.1,217.2c4.1,0.8,8.2,1.1,12.4,1.1c1.9,0,1.9-3,0-3c-3.9,0-7.8-0.3-11.6-1
			C178.1,213.9,177.3,216.8,179.1,217.2L179.1,217.2z"/>
	</g>
	<g>
		<path class="st2" d="M200.9,202c-0.1,0-0.2,0-0.3,0c-1.9,0-1.9,3.1,0,3.2c2,0.1,4-0.2,5.9-0.9c1.5-0.6,3.4-0.9,3.9-2.5
			c0.7-1.8-2.2-2.6-2.9-0.8c0,0.1-0.1,0.2-0.1,0.3c0.2-0.3,0.7-0.6,0.9-0.9c-2.1,1.3-5.3,2.2-7.3,2c0,1,0,1.6,0,2.6c0,0-0.2,0-0.1,0
			C202.8,205,202.8,202,200.9,202L200.9,202z"/>
	</g>
	<g>
		<path class="st2" d="M210.2,201.8c1.2-0.2,2.3-0.4,3.4-0.8c0.5-0.2,1.1-0.4,1.6-0.6c0.3-0.1,0.5-0.2,0.8-0.4
			c0.6-0.2,0.5-0.3-0.2-0.3c-0.3-0.7-0.6-1.5-0.9-2.2l0,0c0.7-0.2,1.4-0.4,2.1-0.5l0,0c-1.6-1.1-3.1,1.5-1.5,2.6l0,0
			c0.7,0.5,1.6,0.1,2.1-0.5l0,0c0.6-0.8,0-1.9-0.9-2.2c-1.1-0.3-2.2,0.6-3.1,1c-1.3,0.5-2.6,0.8-4,1
			C207.5,199.2,208.3,202.1,210.2,201.8L210.2,201.8z"/>
	</g>
	<g>
		<path class="st2" d="M221.4,186.2c1.4,0.3,2.7-0.4,4-1c1.2-0.6,2.4-1.3,3.3-2.3c1.3-1.4-0.8-3.5-2.1-2.1c-0.6,0.7-1.4,1.1-2.2,1.5
			c-0.5,0.2-1.8,1-2.2,0.9C220.3,182.8,219.5,185.7,221.4,186.2L221.4,186.2z"/>
	</g>
	<g>
		<path class="st2" d="M228.6,183.3c3.3,0,5.9-1.8,8.7-3.5c1.7-1,0.2-3.6-1.5-2.6c-2.2,1.3-4.5,3-7.2,3
			C226.7,180.3,226.7,183.3,228.6,183.3L228.6,183.3z"/>
	</g>
	<g>
		<path class="st2" d="M184.2,168.2c1.2-0.4,2.3-0.8,3.5-1.3c0.8-0.3,1.3-1,1-1.8c-0.2-0.7-1.1-1.3-1.8-1c-1.1,0.5-2.3,0.9-3.5,1.3
			C181.5,165.9,182.3,168.8,184.2,168.2L184.2,168.2z"/>
	</g>
	<g>
		<path class="st2" d="M189.8,169c5.7,0.7,9-0.1,13.4-3.7c5.4-4.5,12.3-7,18-11c1.6-1.1,0.1-3.7-1.5-2.6c-4.8,3.4-10,5.6-14.9,8.6
			c-1.9,1.2-3.3,2.7-5.1,4c-3.1,2.3-6.2,2.1-9.9,1.7C187.9,165.8,187.9,168.8,189.8,169L189.8,169z"/>
	</g>
	<g>
		<path class="st2" d="M83.5,166.7c1.5,1.7,2.4,3.8,3.7,5.8c1.2,1.8,2.7,3.4,4.4,4.8c1.5,1.2,3.6-0.9,2.1-2.1
			c-3.6-2.9-5.1-7.1-8.1-10.6C84.3,163.1,82.2,165.2,83.5,166.7L83.5,166.7z"/>
	</g>
	<g>
		<path class="st2" d="M113.7,145.8c0.8-0.9,1.6-1.8,2.4-2.8c0.5-0.6,0.6-1.5,0-2.1c-0.5-0.5-1.6-0.6-2.1,0
			c-0.8,0.9-1.6,1.8-2.4,2.8c-0.5,0.6-0.6,1.5,0,2.1C112.1,146.4,113.1,146.4,113.7,145.8L113.7,145.8z"/>
	</g>
	<g>
		<path class="st2" d="M115.2,141c2.4-2.3,3.6-5.5,5.5-8.3c1.1-1.6-1.5-3.1-2.6-1.5c-1.7,2.5-2.8,5.5-5,7.6
			C111.7,140.2,113.8,142.3,115.2,141L115.2,141z"/>
	</g>
	<g>
		<path class="st2" d="M119.1,131.6c1.6-1.2,3-2.7,3.9-4.6c0.3-0.7,0.2-1.6-0.5-2.1c-0.7-0.4-1.7-0.2-2.1,0.5
			c-0.7,1.4-1.6,2.6-2.8,3.5c-0.6,0.5-1,1.3-0.5,2.1C117.4,131.7,118.5,132.1,119.1,131.6L119.1,131.6z"/>
	</g>
	<g>
		<path class="st2" d="M123,127.1c2.5-1.3,5.1-2.4,7.8-3.1c1.9-0.5,1.1-3.4-0.8-2.9c-3,0.8-5.8,2-8.5,3.4
			C119.8,125.5,121.3,128,123,127.1L123,127.1z"/>
	</g>
	<g>
		<path class="st2" d="M131.1,123.7c2.9-1.1,5.7-0.9,8.7-0.8s5.9-0.3,8.8-0.3c1.9,0,1.9-3,0-3c-3.4-0.1-6.7,0.3-10.1,0.2
			c-2.9-0.1-5.5-0.1-8.3,0.9C128.5,121.5,129.3,124.4,131.1,123.7L131.1,123.7z"/>
	</g>
	<g>
		<path class="st2" d="M149.8,122.4c4.7-2.7,11.1-4.6,16.5-3.3c3.7,0.8,6.9,2.7,10.5,3.7c5.2,1.5,10.5,2.6,15.8,4
			c3.2,0.8,6.3,1.7,9.5,2.6c2.3,0.7,6.2,1.2,8.1,2.7c0.9,0.7,0.5,0.3,0.7,0.9c0.3,0.8,0,2.3,0,3.1c0.1,1.9,0.3,3.9,0.8,5.7
			c1.3,4.5,5.8,7,7,11.3c0.5,1.9,3.4,1.1,2.9-0.8c-0.9-3.1-3.1-4.7-4.9-7.1c-3-4-2.9-8.9-2.8-13.7c0-0.5-0.3-1.1-0.7-1.3
			c-9.2-4.6-20.3-6.5-30.2-9c-4.9-1.2-9.3-3.1-14.1-4.6c-7.2-2.2-14.2-0.6-20.7,3.1C146.6,120.8,148.1,123.4,149.8,122.4
			L149.8,122.4z"/>
	</g>
	<g>
		<path class="st2" d="M180,92c-5.2-0.1-9.8,1.1-15,0.4c-8.2-1.2-15.7-1.3-23.8,0.6c-4,1-7.1,4.1-10.8,5.3c-3.1,1-6.1,0.2-9.1,2
			c-6.9,4.1-14.9,9.5-18.9,16.8c-0.9,1.7,1.7,3.2,2.6,1.5c2.1-3.8,5.4-6.4,8.7-9.3c1.7-1.5,3.2-2.7,5.2-3.8c2-1.2,4.3-3.2,6.5-3.8
			c1.8-0.4,3.8,0.2,5.6-0.3c1.3-0.4,2.1-1.2,3.2-2c3.9-2.4,8-3.7,12.5-4.5c7.2-1.4,13.6-0.1,20.7,0.7c4.2,0.5,8.4-0.8,12.6-0.7
			C181.9,95,181.9,92,180,92L180,92z"/>
	</g>
	<g>
		<path class="st2" d="M181.1,95.2c4,0.3,6.4,2,9.9,3.5c2.5,1,5.5,1,8.1,1.8c3.5,1,6.5,2.7,9.7,4.3c2.9,1.4,6,1.7,8.8,3
			c4.3,2.1,5.5,5.3,6.4,9.6c0.5,2.7,2,4.2,3.4,6.4c4,6.4,6,14.5,9.6,21.2c0.9,1.7,3.5,0.2,2.6-1.5c-2.2-4.3-4.3-8.6-6-13.1
			c-1.2-3-2.1-6-3.9-8.7c-4-5.7-3.1-12.6-10-16.4c-3.1-1.7-6.8-2-10-3.6c-3-1.5-5.8-3-9-4c-3.8-1.2-7.3-1.5-10.8-3.2
			c-2.9-1.4-5.6-2.2-8.8-2.4C179.1,92.1,179.1,95.1,181.1,95.2L181.1,95.2z"/>
	</g>
	<g>
		<path class="st2" d="M222,153.3c2.2-1.9,4.5-4.5,7-5.8c2.8-1.4,6.3-0.7,9.2,0.1c1.9,0.5,2.7-2.4,0.8-2.9
			c-3.2-0.9-7.1-1.5-10.3-0.4c-3.3,1.1-6.2,4.7-8.8,6.9C218.4,152.4,220.5,154.5,222,153.3L222,153.3z"/>
	</g>
	<g>
		<path class="st2" d="M111.4,147c1.2,0.4,2.4,1,3.6,1.6c1.7,0.9,3.2-1.7,1.5-2.6c-1.4-0.7-2.9-1.3-4.3-1.9c-0.8-0.3-1.6,0.3-1.8,1
			C110.1,146,110.7,146.7,111.4,147L111.4,147z"/>
	</g>
	<g>
		<path class="st2" d="M239.1,180c3.5-4.8,7.5-10.1,7.6-16.3c0.1-1.9-2.9-1.9-3,0c-0.2,5.5-4.1,10.5-7.2,14.8
			C235.4,180,238,181.5,239.1,180L239.1,180z"/>
	</g>
	<g>
		<path class="st2" d="M223.2,153.9c6.7-1.3,19.4,5.5,20.4,12.5c0.3,1.9,3.2,1.1,2.9-0.8c-1.3-9-15.8-16.2-24-14.6
			C220.6,151.3,221.4,154.2,223.2,153.9L223.2,153.9z"/>
	</g>
	<g>
		<path class="st2" d="M114.6,142.3c-5-5-15.5-6-21.4-2c-1.6,1.1-0.1,3.7,1.5,2.6c4.8-3.3,13.7-2.6,17.7,1.5
			C113.9,145.7,116,143.6,114.6,142.3L114.6,142.3z"/>
	</g>
</g>
</svg>
