<?xml version="1.0" encoding="utf-8"?>
<!-- Generator: Adobe Illustrator 19.2.0, SVG Export Plug-In . SVG Version: 6.00 Build 0)  -->
<svg version="1.1" id="Layer_1" xmlns="http://www.w3.org/2000/svg" xmlns:xlink="http://www.w3.org/1999/xlink" x="0px" y="0px"
	 viewBox="0 0 739.6 909.9" style="enable-background:new 0 0 739.6 909.9;" xml:space="preserve">
<style type="text/css">
	.st0{fill:#EFEFEF;}
	.st1{fill:#BBBBBC;}
	.st2{fill:#7A7B7B;}
</style>
<g>
	<path class="st0" d="M483.1,372.1l-7.2,25.9l1.2,8.3l-1.2,4.7l-10.8,13l-3.6-4.7l-14.4,13l3.6,4.7l-8.4,4.7l6,8.3l-6-3.5l-6-1.2v20
		l-9.6-18.9l-7.2-11.8l-3.6-9.4l4.8-2.4l4.8-5.9l2.4-5.9l-7.2,4.7l-6-1.2l-8.4-2.4l-8.4-4.7l-12-3.5h-8.4l-7.2,2.4l-4.8-2.4
		l-8.4-1.2l-12,3.5l-12,5.9l-12,3.5l-7.2-2.4l2.4,7.1l3.6,5.9l-13.2,25.9l-4.8,5.9l-3.6-24.8l-2.4-5.9l-8.4,10.6l-16.8-21.2
		l-13.2-47.2l-0.9-6.7c-0.7,0.1-1.4,0.1-2.1,0.1l0.5,1.9l1.2,21.2l-1.2,27.1v29.5l-1.2,20l1.2,5.9l3.6-3.5l2.4,8.3l3.6,16.5l3.6,5.9
		l3.6-2.4l6,14.1l4.8-4.7l3.6,11.8l3.6-4.7l7.2,4.7l4.8,7.1l4.8,14.1l4.8-9.4l3.6,10.6l4.8-5.9l4.8-11.8l1.2,9.4l-1.2,14.1l-2.4,3.5
		l8.4-4.7l4.8-10.6l3.6,5.9l6,9.4l6,10.6l2.4-8.3l4.8,2.4l7.2,7.1l9.6,5.9l13.2,2.4l3.6-1.2l-2.4-3.5l1.2-11.8l4.8-3.5l8.4-1.2v4.7
		l7.2-4.7l9.6-8.3l7.2-13l4.8,7.1l2.4,7.1l4.8-4.7l4.8-18.9l1.2-13l4.8,9.4l3.6,11.8l3.6-3.5l6-20l3.6,8.3l4.8-5.9l1.2-14.1
		l-1.2-23.6l4.8,8.3l2.4,11.8l2.4-13l-1.2-14.1l-1.2-8.3l4.8-3.5l3.6-4.7l1.2,4.7l1.2-20v-24.8l-3.6-35.4L483.1,372.1z M404,453.4
		l-6,5.9l-4.8-3.5l-14,1.7l-10-4.1l-4.8,1.2l-13.2,10.6l-8.4-10.6l-6,11.8l-6,8.3l-1.2-15.3l3.6-16.5l1.2-14.1h10.8l12-2.4l14.4-3.5
		l12,3.5L398,431l2.4,8.3l3.6,3.5V453.4z"/>
</g>
<path class="st1" d="M293.1,486.4l2.4-10.6c0,0,4.8-10.9,4.8-13.7c0.4,1.4,1.2,4.3,1.2,4.3l-1.2,18.9v20l1.2,11.8l-6-4.7l-4.8-2.4
	l0,0v-9.4L293.1,486.4z M300.3,461.7c0,0.1,0,0.3,0,0.4C300.2,461.4,300.1,461.1,300.3,461.7z M404.6,545.4h-4.8l-2.7,1l-0.9,0.1
	l-0.7,0.5l-1.7,0.7l-0.5,0.9l-1.9,1.4l-0.2,1.6l-1-5.1V530v-30.7l-1.2-20l1.2-2.4c0,0,7.2,12.7,7.2,14.1s6,23.6,6,23.6l2.4,20
	L404.6,545.4L404.6,545.4L404.6,545.4z M460.9,478.2c-0.3-1.5-4.8-10.6-4.8-10.6l-6-16.5l-6-8.3l4.4-4.3l2.8-1.6l-0.5-0.7l0.5-0.5
	l9.6,7.1l7.2,10.6l4.8,9.4l0.1,1.3l-0.1-0.2l1,19l-1,10.5l-1.2,9.4l-3.6,4.7l-3.6-15.3C464.5,492.3,461.2,479.7,460.9,478.2z
	 M311.4,444.6l4-7.9l2.9,5l9.6,7.1l3.5,4.7l-0.2,1.6l-0.9,4.3l0.2,2.1l-0.2,1.4l-0.9,17.2l-8.7-18.4L311.4,444.6z M390.2,419.2v7.1
	l-8.4-1.2l-3.6-3.5c0,0,0.9-14.7,1.2-15.3c0.2-0.3,0.9-1.5,1.6-2.4h3.2l2.4,1.2L390.2,419.2z M408.2,435.7l-6-5.9
	c0,0,6.3-1.5,7.2-1.2c0.9,0.3,7.2-1.2,7.2-1.2l2.4,7.1l-3.6,1.2H408.2z M408.2,415.7l4.8-1.2l3.6,13l-9.6,1.2L408.2,415.7z
	 M369.8,416.9L365,424l-7.2,2.4l-3.3,0.7l4.5-8.9l2.4-14.1h4.8l3.6,1.8l1.2,1.8L369.8,416.9z M321.4,415.5l0.5,0.2l3.6-1.1l-1.2,8.1
	h-4.8l-4.8-9.4l6,2.4L321.4,415.5z M342.2,427.5h-9.6l4.8-5.9l6-13l9.6-2.4l-4.8,13L342.2,427.5z M319,430.2l2.9-5.1l8.4,2.4
	l4.7,1.9l-0.6,7.2l-1.1,3.9l-3-1.2L319,430.2z M476.5,411l1.2-1.2l3.6,3.5l3.6,16.5L488,441l-3.1,4.1l-4.8,3.5l0.4,2.9l-0.4,0.7
	l-2.4-5.9l-6-13l-7.2-10.6l0.2-0.2l1-0.7L476.5,411z M404.6,444v-1.2l-1.2-1.2l-1.2-2.4l6,4.7h9.6l7.5-1.1l2.1,3.4l2.8,5.5L430,452
	l1,1.4l3,5.9l3,11.8c0,0,0.3,16.5,0,17.7s-3.6,17.7-3.6,17.7l-3.6,16.5l-1.2-4.7l-2.4-22.4c0,0-6.9-17.7-7.2-18.9
	c-0.3-1.2-7.2-16.5-7.2-16.5l1.8-1.6l-6.6-4.3L404.6,444z M361.4,517.1c0-1.5,4.8-9.4,4.8-9.4l3.6-13l4.8-10.6l3.6-9.4l1.2-11.8
	l6,7.1l1.2,10.6l-1.2,10.6l-6,14.1l-4.8,11.8l-2.4,13l-2.4,13l1.2,10.6l4.8,9.4l-4.8-2.4l-8-5.5l-4-3.9l-0.2-0.1l-2.2-11.7l1.2-9.4
	C357.8,530.1,361.4,518.6,361.4,517.1z M323.1,546.6l2.4-3.5l1.2-14.1l-1.1-8.7c0.6-4.2,2.3-11.3,2.3-11.3v-15.3
	c0,0,3.3-13.3,3.6-14.1c0.2-0.5,1.5-4.9,2.5-8.2l3.5-4.8l4.8-9.4l3.6,1.2l6,7.1l-8.4,14.1l-6,10.6l-1.2,13l-1.2,11.8l2.4,16.5
	l-0.7,0.8l-0.5-0.8L335,534l-6,6.7L323.1,546.6L323.1,546.6L323.1,546.6z M272.7,428.7c0,0,2.2-6.1,3.4-6l2.8,3.6
	c2.1,3.1,4.5,7.1,4.5,7.1l-4.8,8.3l-6,13c0,0-3.9,17.4-3.6,18.9s2.4,17.7,2.4,17.7l-1.7,4.3L269,496l-3.6-5.9l-3.6-16.5l-0.1-0.4
	l-1.1-14.9l4.8-14.1L272.7,428.7z"/>
<g>
	<path class="st1" d="M366,455.6c6.7-9.3-10.6,44.6-10.6,44.6l-3.6,31.8c0,0,2.4,28.5,0,23.2C341.9,533.4,332.1,502.9,366,455.6z"/>
	<path class="st1" d="M438.1,445.7c8.5,11.9,21,44,17.8,75.7c-0.1,1.4-3.9-4-3.9-4l-6-19.4l-8.9-33.7l-1.2-19.4
		C435.9,444.9,437.8,445.2,438.1,445.7z"/>
</g>
<g>
	<g>
		<g>
			<path class="st2" d="M449.7,432.8c4.3-4.2,8.6-8.5,12.6-13.1c-0.9,0-1.9,0-2.8,0C475.4,438,483,462,476.8,486
				c1.3,0.2,2.6,0.4,3.9,0.5c0.9-7.6-2.4-15.9-5.4-22.7c-5.9-13.1-15-24.4-25.7-33.9c-1.9-1.7-4.8,1.1-2.8,2.8
				c10.1,9,18.8,19.6,24.5,32c3,6.4,6.2,14.5,5.3,21.8c-0.3,2.3,3.4,2.7,3.9,0.5c6.6-25.4-1.5-50.8-18.4-70.2
				c-0.7-0.8-2.2-0.8-2.8,0c-4,4.6-8.3,8.9-12.6,13.1C445,431.7,447.8,434.6,449.7,432.8L449.7,432.8z"/>
		</g>
	</g>
	<g>
		<g>
			<path class="st2" d="M465.5,423c4.4-4,9.4-8,12.9-12.9c1.5-2.1-2-4.1-3.5-2c-1.5,2-3.6,3.8-5.4,5.6c-2.3,2.2-4.6,4.4-6.9,6.5
				C460.8,421.9,463.6,424.7,465.5,423L465.5,423z"/>
		</g>
	</g>
	<g>
		<g>
			<path class="st2" d="M477.5,402.9c1.8-13.1,6.9-26.2,11-38.7c-1.3-0.2-2.6-0.4-3.9-0.5c2.6,27.7,4.2,55.2,2.3,83.1
				c1.3-0.2,2.6-0.4,3.9-0.5c-3.5-15-7.9-29.9-13.3-44.3c-0.9-2.4-4.8-1.4-3.9,1.1c5.4,14.4,9.8,29.3,13.3,44.3
				c0.5,2.3,3.8,1.6,3.9-0.5c1.9-27.8,0.4-55.3-2.3-83.1c-0.2-2.2-3.2-2.8-3.9-0.5c-4.1,12.6-9.2,25.6-11,38.7
				C473.3,404.4,477.2,405.5,477.5,402.9L477.5,402.9z"/>
		</g>
	</g>
	<g>
		<g>
			<path class="st2" d="M441.1,442.5c6.9,7.9,11.1,18.4,14.5,28.1c4.6,12.7,7.9,26.1,9.2,39.5c0.2,2,2.5,2.6,3.7,1
				c4.1-5.6,5.4-13,6.1-19.7c1.1-10.8,0.1-21.7-2.1-32.2c-0.5-2.5-4.4-1.5-3.9,1.1c2,9.8,2.9,19.8,2.1,29.7
				c-0.6,6.5-1.7,13.8-5.7,19.1c1.2,0.3,2.5,0.7,3.7,1c-1.5-14.4-4.9-28.5-9.9-42.1c-3.7-9.9-8-20.3-15-28.4
				C442.3,437.7,439.5,440.5,441.1,442.5L441.1,442.5z"/>
		</g>
	</g>
	<g>
		<g>
			<path class="st2" d="M372.1,403.9c-9.2-5.2-20.3-1.5-29.4,2c-5,1.9-10,4.2-15.1,5.9c-3.2,1-8.7,3.1-11.1-0.4c-1-1.5-4-1.1-3.7,1
				c2.7,24.3,34.2,18.9,50.7,14.4c1.8-0.5,6.9-1.1,8.3-2.5c0.2-0.2-1.9-0.9-0.3,0.1c1,0.6,2.2,0.9,3.2,1.3c9.1,3.3,19,5.7,28.8,5.5
				c13.3-0.3,24-6.8,27.6-20c0.5-1.8-2-3.5-3.3-1.9c-8.8,10.2-23.1,0.4-31.6-4.6c-7.8-4.6-17.9-4.5-26.1-0.6c-2.3,1.1-0.3,4.5,2,3.5
				c4-1.9,8.8-2.6,13.2-2.2c8.1,0.7,13.8,7,21.1,9.9c7.8,3.1,18.1,3.9,24.2-3c-1.1-0.6-2.2-1.3-3.3-1.9c-6.2,22.8-33.4,18-50.5,12
				c-4.2-1.5-4.9-2-9.3-0.6c-8.3,2.6-16.9,4.6-25.6,5.1c-10.7,0.6-23.8-1.4-25.2-14.2c-1.2,0.3-2.5,0.7-3.7,1
				c5.1,7.5,16.2,2.2,22.6-0.4c9.9-4,23.9-11.6,34.5-5.7C372.3,408.6,374.4,405.1,372.1,403.9z"/>
		</g>
	</g>
	<g>
		<g>
			<path class="st2" d="M460.8,487.1c0.5,7.7-0.4,15.3-2.2,22.7c-1.1,4.5-2.4,9.8-5.2,13.6c1.2,0,2.3,0,3.5,0
				c-7.1-13.8-10.3-30-13.4-45.1c-2.3-11.1-5.5-23.1-5.7-34.5c0-2.6-4-2.6-4,0c0.2,11.8,3.4,24.1,5.8,35.6
				c3.2,15.4,6.5,31.9,13.8,46c0.8,1.5,2.6,1.1,3.5,0c3-4.1,4.4-9.7,5.6-14.6c1.9-7.8,2.9-15.8,2.3-23.8
				C464.7,484.5,460.7,484.5,460.8,487.1L460.8,487.1z"/>
		</g>
	</g>
	<g>
		<g>
			<path class="st2" d="M426.9,450.2c10.9,19.1,8.5,40.5,4.5,61.1c-0.9,4.6-3.2,10.4-3,15.1c0.1,2.1,1.4,4.6,2.2,6.5
				c1,2.7,2,5.6,3.8,7.8c0.8,1,2.6,0.6,3.1-0.4c9.5-16.6,10.2-35.8,7.5-54.4c-0.4-2.5-4.2-1.5-3.9,1.1c2.5,17.5,1.8,35.7-7.1,51.3
				c1-0.1,2.1-0.3,3.1-0.4c-2-2.6-3-6.4-4-9.4c-0.8-2.3-0.9-1.7-0.5-3.8c1.5-7,2.9-14.1,4.1-21.2c3.2-18.9,3.3-38.3-6.5-55.4
				C429.1,445.9,425.6,447.9,426.9,450.2L426.9,450.2z"/>
		</g>
	</g>
	<g>
		<g>
			<path class="st2" d="M427.1,520.8c-5.3,12.2-14.1,22-25.6,28.7c1,0.8,2,1.5,2.9,2.3c4.6-20.5,0.5-42.3-6.3-61.8
				c-2.7-8-6-15.8-10-23.2c-2-3.7-4.4-8.9-8.1-11.2c-2.2-1.3-4.2,2.2-2,3.5c3.3,1.9,5.5,7.4,7.1,10.5c3.8,7.3,7,14.9,9.6,22.7
				c6.2,18.5,10.2,39.1,5.9,58.4c-0.4,1.7,1.4,3.2,2.9,2.3c12-7,21.4-17.4,27-30.1C431.6,520.5,428.2,518.4,427.1,520.8L427.1,520.8
				z"/>
		</g>
	</g>
	<g>
		<g>
			<path class="st2" d="M383.2,462.8c3.3-2.6,7.1-5.4,11.3-6.4c-0.8-0.3-1.5-0.6-2.3-0.9c17.1,26.6,21.3,62.9,9.7,92.4
				c-0.9,2.4,2.9,3.4,3.9,1.1c11.9-30.4,7.5-68-10.1-95.4c-0.5-0.8-1.4-1.1-2.3-0.9c-4.9,1.3-9.2,4.4-13.1,7.5
				C378.4,461.5,381.2,464.4,383.2,462.8L383.2,462.8z"/>
		</g>
	</g>
	<g>
		<g>
			<path class="st2" d="M398.4,459c2.8-1.5,5.6-3.2,8.3-4.9c-0.8-0.1-1.6-0.2-2.4-0.3c7.8,9.1,12.5,20.9,16.1,32.2
				c3.7,11.5,6.4,23.7,6.5,35.8c0,2.6,4,2.6,4,0c-0.1-13-3-26-7.1-38.3c-3.8-11.5-8.7-23.2-16.6-32.6c-0.6-0.7-1.7-0.8-2.4-0.3
				c-2.7,1.7-5.5,3.4-8.3,4.9C394.1,456.8,396.2,460.3,398.4,459L398.4,459z"/>
		</g>
	</g>
	<g>
		<g>
			<path class="st2" d="M378.4,453.9c-3.5-2.5-7.7-2.6-11.8-2.4c-0.9,0-1.7,0.6-1.9,1.5c-4.1,15.4-7.9,30.9-10.3,46.6
				c-1.6,10.7-2.9,21.7-2.3,32.6c0.4,7.6,1.5,16.2,6.5,22.3c3.8,4.8,10.1,7.8,15.6,10.1c6.1,2.5,13,4.7,19.6,3.6
				c2-0.3,1.8-3.3,0-3.9c-1.9-0.5-1.9-9.5-2-11.3c-0.4-8-0.1-16-0.1-24c0.2-18.2,0.7-37-3.3-54.9c-1.6-7.1-4.1-14.8-9.6-19.9
				c-1.9-1.7-4.7,1.1-2.8,2.8c5.3,4.9,7.4,12.6,8.8,19.5c1.9,9.3,2.5,18.8,2.8,28.2c0.5,17.3-1,34.8,0.4,52
				c0.3,3.5,0.4,10.1,4.7,11.4c0-1.3,0-2.6,0-3.9c-6.4,1.1-13.7-1.8-19.4-4.4c-4.4-2-9.3-4.5-12.2-8.6c-4.6-6.4-5-15.5-5.1-23.1
				c-0.2-19.4,3.8-38.8,8.3-57.6c1.3-5.6,2.9-11.1,4.3-16.6c-0.6,0.5-1.3,1-1.9,1.5c3.4-0.1,6.9-0.2,9.8,1.9
				C378.5,458.9,380.5,455.4,378.4,453.9z"/>
		</g>
	</g>
	<g>
		<g>
			<path class="st2" d="M363.3,453.9c-5.3,2.3-9.7,7.4-13.2,11.7c-5.8,7-10.5,15-13.6,23.6c-9.2,25.2-1.5,50.6,15,70.8
				c1.1,1.4,3.5,0.2,3.4-1.4c-0.4-12.6,1.3-25.2,1-37.7c-0.1-2.6-4.1-2.6-4,0c0.3,12.6-1.4,25.2-1,37.7c1.1-0.5,2.3-0.9,3.4-1.4
				c-15.9-19.5-22.8-43.9-13.6-68c3.1-8,7.7-15.6,13.3-22.1c3.1-3.6,6.8-7.8,11.3-9.7C367.7,456.3,365.7,452.9,363.3,453.9
				L363.3,453.9z"/>
		</g>
	</g>
	<g>
		<g>
			<path class="st2" d="M335.2,529c-2.8,7.3-7.7,13.3-14.2,17.5c1,0.8,2,1.5,2.9,2.3c6.2-15.1,4-31.4,5-47.3
				c1.1-16.5,5.6-32.5,16.3-45.4c-1-0.1-2.1-0.3-3.1-0.4c2,4.3,4.5,8.2,7.7,11.7c1.7,1.9,4.5-0.9,2.8-2.8c-2.9-3.3-5.2-6.9-7-10.9
				c-0.5-1.1-2.4-1.3-3.1-0.4c-10,12.1-15.1,26.5-16.9,41.9c-2.1,17.5,1.4,35.9-5.5,52.6c-0.7,1.6,1.6,3.2,2.9,2.3
				c7.5-4.9,12.9-11.6,16.1-19.9C340,527.7,336.1,526.6,335.2,529L335.2,529z"/>
		</g>
	</g>
	<g>
		<g>
			<path class="st2" d="M317.5,540.4c4.8-8.5,9.2-17.2,11-26.9c0.5-2.5-3.4-3.6-3.9-1.1c-1.8,9.4-6,17.7-10.6,25.9
				C312.8,540.6,316.3,542.6,317.5,540.4L317.5,540.4z"/>
		</g>
	</g>
	<g>
		<g>
			<path class="st2" d="M309.7,446.2c3.7,22.4,5.3,45.7,1.4,68.3c-0.9,5.5-2.2,10.9-3.9,16.2c-0.7,2.4-2,4.9-2.2,7.4
				c1.3-0.2,2.6-0.4,3.9-0.5c-2.6-13-6.6-25.8-7.2-39.1c-0.9-18.2,4.5-36,10.6-52.9c0.9-2.4-3-3.5-3.9-1.1
				c-6.2,17.3-11.6,35.5-10.7,54c0.7,13.6,4.7,26.8,7.4,40.2c0.5,2.3,3.8,1.6,3.9-0.5c0.1-1.3,1.7-5.3,2.3-7.3
				c1.8-5.9,3.1-11.9,4.1-18c3.4-22.4,1.8-45.3-1.9-67.6C313.1,442.6,309.3,443.7,309.7,446.2L309.7,446.2z"/>
		</g>
	</g>
	<g>
		<g>
			<path class="st2" d="M308.7,444c-6.8,11.5-13.1,23.5-16.9,36.4c-3.7,12.9-4.6,26.2-3.7,39.5c1.2-0.3,2.5-0.7,3.7-1
				c-9.4-15.2-10.8-33.8-8.4-51.1c2-13.9,6.1-28.7,14.4-40.3c-1,0.1-2.1,0.3-3.1,0.4c2.3,2,3,8.1,3.5,10.8
				c1.5,7.9,1.6,15.9,0.6,23.8c-0.3,2.5,3.7,2.5,4,0c1.1-8.7,0.8-17.6-1-26.2c-0.7-3.2-1.5-9-4.3-11.4c-1-0.9-2.4-0.7-3.1,0.4
				c-8.8,12.4-13.2,28.3-15.1,43.2c-2.3,17.8-0.6,36.8,9,52.3c1,1.6,3.9,1.1,3.7-1c-0.9-13-0.1-25.9,3.5-38.4
				c3.7-12.6,9.8-24.2,16.5-35.5C313.4,443.8,310,441.8,308.7,444L308.7,444z"/>
		</g>
	</g>
	<g>
		<g>
			<path class="st2" d="M278.5,486.5c0.3,7,0,14.3-0.8,21.3c1.2-0.3,2.5-0.7,3.7-1c-16.7-23-9.8-55.4,6.4-76.3
				c1.6-2-1.3-4.9-2.8-2.8c-11.6,15-18.7,33-16.8,52.3c1,9.9,3.9,20.7,9.8,28.9c1.2,1.7,3.5,1,3.7-1c0.9-7,1.1-14.2,0.8-21.3
				C282.4,484,278.4,484,278.5,486.5L278.5,486.5z"/>
		</g>
	</g>
	<g>
		<g>
			<path class="st2" d="M284.8,433.2c-1.2-4.1-3.3-7.8-5.4-11.4c-0.6-1-2.3-1.4-3.1-0.4c-8.7,10.9-13.9,25.3-15.9,39
				c-2.1,14.2-0.1,30,12,39.4c2,1.6,4.9-1.3,2.8-2.8c-11.7-9-12.9-24.3-10.6-37.9c2.1-12.2,6.7-25,14.5-34.8c-1-0.1-2.1-0.3-3.1-0.4
				c1.9,3.4,3.9,6.7,5,10.5C281.7,436.7,285.5,435.7,284.8,433.2L284.8,433.2z"/>
		</g>
	</g>
	<g>
		<g>
			<path class="st2" d="M271.5,436.4c2.8-5.4,6.1-10.5,8.9-15.8c1-1.9-0.9-3.5-2.7-2.7c-20.9,9.1-28.8,33.3-23.4,54.4
				c0.4,1.7,2.7,1.9,3.7,0.5c5.7-8.8,6-19.7,10.5-28.9c1.1-2.3-2.3-4.3-3.5-2c-4.5,9.2-4.8,20.2-10.5,28.9c1.2,0.2,2.4,0.3,3.7,0.5
				c-5-19.5,2.3-41.4,21.6-49.8c-0.9-0.9-1.8-1.8-2.7-2.7c-2.8,5.4-6.1,10.5-8.9,15.8C266.9,436.6,270.3,438.7,271.5,436.4
				L271.5,436.4z"/>
		</g>
	</g>
	<g>
		<g>
			<path class="st2" d="M257,451.8c1.8-16.1,2-32.3,2.1-48.4c0.1-13.2,0.5-26.6-0.9-39.7c-1.3,0.2-2.6,0.4-3.9,0.5
				c2.2,10.4,4.7,20.7,7.7,31c2.5,8.6,5,18.2,10.1,25.7c1.4,2.1,4.9,0.1,3.5-2c-5.2-7.6-7.6-17.3-10.1-26.1
				c-2.8-9.8-5.2-19.7-7.3-29.6c-0.5-2.2-4.2-1.7-3.9,0.5c1.4,13.1,1,26.5,0.9,39.7c-0.1,16.1-0.3,32.4-2.1,48.4
				C252.8,454.4,256.8,454.4,257,451.8L257,451.8z"/>
		</g>
	</g>
	<g>
		<g>
			<path class="st2" d="M377.1,457.8c1.4,6.9-0.6,14.2-2.6,20.8c-2.5,8.1-5.7,16-8.8,23.9c-5.7,14.7-12.8,31.1-11.1,47.3
				c0.3,2.5,4.3,2.6,4,0c-1.8-17.1,6.3-34.5,12.4-50c5.1-13,12.8-28.7,9.9-43C380.5,454.3,376.6,455.3,377.1,457.8L377.1,457.8z"/>
		</g>
	</g>
	<g>
		<g>
			<path class="st2" d="M384.7,475.6c0.2,6.5-2.8,13.4-4.7,19.5c-3,9.3-6.1,18.6-8.4,28.1c-3.2,13.1-7.9,34.4,6.5,42.8
				c2.2,1.3,4.2-2.2,2-3.5c-14.1-8.2-6.3-32.8-2.9-44.8c2.4-8.5,5.3-16.9,7.9-25.3c1.7-5.3,3.9-11.2,3.7-16.9
				C388.6,473,384.6,473,384.7,475.6L384.7,475.6z"/>
		</g>
	</g>
	<g>
		<g>
			<path class="st2" d="M486.5,440.6c-6.1,2.6-9,9.1-8.6,15.5c0.2,2.6,4.2,2.6,4,0c-0.4-5.2,1.6-9.9,6.6-12
				C490.9,443,488.8,439.6,486.5,440.6L486.5,440.6z"/>
		</g>
	</g>
	<g>
		<g>
			<path class="st2" d="M391.8,552.9c1.6-4.5,7.3-6.1,11.5-4.7c2.5,0.8,3.5-3.1,1.1-3.9c-6.4-2-14,1-16.4,7.5
				C387.1,554.3,390.9,555.3,391.8,552.9L391.8,552.9z"/>
		</g>
	</g>
	<g>
		<g>
			<path class="st2" d="M290.3,513.2c1.8-0.6,4.2,1,5.6,1.9c2.6,1.7,4.7,4.2,5.7,7.2c0.8,2.4,4.7,1.4,3.9-1.1c-1.3-4-4-7.2-7.5-9.6
				c-2.3-1.5-5.8-3.3-8.7-2.3C286.8,510.2,287.8,514.1,290.3,513.2L290.3,513.2z"/>
		</g>
	</g>
	<g>
		<g>
			<path class="st2" d="M443.1,443c1.7-0.6,3.4-1.6,4.9-2.5s3.7-2,4.4-3.7c1-2.3-2.4-4.4-3.5-2c-0.4,0.8-2.3,1.8-3.3,2.5
				c-0.8,0.5-1.6,0.9-2.4,1.3c-0.3,0.2-0.6,0.3-1,0.5c-0.5,0.2-0.2,0.1-0.3,0.1C439.6,440,440.7,443.9,443.1,443L443.1,443z"/>
		</g>
	</g>
	<g>
		<g>
			<path class="st2" d="M435.3,445.7c3.8,0.7,7.6,2.3,10.9,4.4c2.2,1.4,4.2-2.1,2-3.5c-3.5-2.2-7.7-4-11.8-4.8
				C433.9,441.4,432.8,445.3,435.3,445.7L435.3,445.7z"/>
		</g>
	</g>
	<g>
		<g>
			<path class="st2" d="M426,448.2c-1.2,5.7-2,11.4-2,17.3c0,2.6,4,2.6,4,0c0-5.5,0.8-10.8,1.9-16.2
				C430.4,446.8,426.5,445.7,426,448.2L426,448.2z"/>
		</g>
	</g>
	<g>
		<g>
			<path class="st2" d="M412,460.6c12.6-0.8,15.1,14.4,16.1,24c1.3,12.6,0.4,25.3,0.1,38c-0.1,2.6,3.9,2.6,4,0
				c0.4-14.6,1.5-29.5-0.9-44c-1.7-10.6-6.6-22.7-19.3-21.9C409.5,456.8,409.4,460.8,412,460.6L412,460.6z"/>
		</g>
	</g>
	<g>
		<g>
			<path class="st2" d="M310.2,447.1c17,15.6,15.2,45,14.4,65.9c-0.1,2.6,3.9,2.6,4,0c0.9-22,2.3-52.3-15.6-68.7
				C311.1,442.5,308.3,445.4,310.2,447.1L310.2,447.1z"/>
		</g>
	</g>
	<g>
		<g>
			<path class="st2" d="M285.2,429.5c-0.1,2-0.3,4.1-0.4,6.1c0,1.5,0.3,3.1,1.5,4.1c2,1.6,4.8-1.2,2.8-2.8c-0.7-0.6-0.3-2.3-0.2-3.1
				c0.1-1.4,0.2-2.8,0.3-4.3C289.3,427,285.3,427,285.2,429.5L285.2,429.5z"/>
		</g>
	</g>
	<g>
		<g>
			<path class="st2" d="M430.4,448.1c-4.7-6.2-10.5-13.5-12.2-21.2c-0.6-2.5-4.4-1.4-3.9,1.1c1.8,8.1,7.7,15.7,12.6,22.2
				C428.4,452.2,431.9,450.2,430.4,448.1L430.4,448.1z"/>
		</g>
	</g>
	<g>
		<g>
			<path class="st2" d="M394.9,429.1c0.5,5.1,3.7,11.8,8.6,14.1c-0.3-0.8-0.6-1.5-0.9-2.3c-1.1,4-0.1,8.2,1.3,12
				c0.9,2.4,4.7,1.4,3.9-1.1c-1.1-3.1-2.2-6.6-1.3-9.9c0.2-0.8-0.1-1.9-0.9-2.3c-3.6-1.7-6.2-6.8-6.6-10.6
				C398.6,426.5,394.6,426.5,394.9,429.1L394.9,429.1z"/>
		</g>
	</g>
	<g>
		<g>
			<path class="st2" d="M403.4,443.2c6.3,3.1,13.4,2.5,20.2,2c2.6-0.2,2.6-4.2,0-4c-5.9,0.4-12.6,1.3-18.2-1.4
				C403.1,438.6,401.1,442,403.4,443.2L403.4,443.2z"/>
		</g>
	</g>
	<g>
		<g>
			<path class="st2" d="M312.3,445.5c2.8-7.2,7.6-13.7,12-20.1c1.5-2.1-2-4.1-3.5-2c-4.6,6.7-9.4,13.5-12.4,21.1
				C307.5,446.9,311.4,447.9,312.3,445.5L312.3,445.5z"/>
		</g>
	</g>
	<g>
		<g>
			<path class="st2" d="M333.1,431.9c-1.2,9.8-2.2,19.6-3.4,29.3c-1.2,10.1-1.5,21.4-4.5,31.1c-0.8,2.5,3.1,3.5,3.9,1.1
				c3.1-9.8,3.3-21,4.5-31.1s2.2-20.3,3.5-30.4C337.4,429.4,333.4,429.4,333.1,431.9L333.1,431.9z"/>
		</g>
	</g>
	<g>
		<g>
			<path class="st2" d="M318.6,430.1c1.9,3.5,3.6,6.7,7,8.8c2.2,1.3,6.3,3.7,8.8,2.4c2.3-1.2,0.3-4.6-2-3.5
				c-0.1,0.1-0.2,0.1-0.4,0.2c0.5-0.1,1-0.1,1.5-0.2c-2.2-0.4-4.8-1.6-6.6-2.9c-2.4-1.7-3.6-4.4-4.9-7
				C320.8,425.9,317.3,427.9,318.6,430.1L318.6,430.1z"/>
		</g>
	</g>
	<g>
		<g>
			<path class="st2" d="M313.9,434.7c0.4,3.7,3.4,7.1,5.5,9.9c3.5,4.8,7.3,9.4,11,14.1c1.6,2,4.4-0.8,2.8-2.8
				c-3.2-4.1-6.5-8.1-9.6-12.3c-1.7-2.2-5.3-6-5.7-8.9C317.6,432.2,313.6,432.1,313.9,434.7L313.9,434.7z"/>
		</g>
	</g>
	<g>
		<g>
			<path class="st2" d="M368.4,407c1.4,5.6-0.9,12.3-5.3,16c-2,1.7,0.9,4.5,2.8,2.8c5.4-4.6,8-13.1,6.3-19.9
				C371.6,403.5,367.8,404.5,368.4,407L368.4,407z"/>
		</g>
	</g>
	<g>
		<g>
			<path class="st2" d="M359.2,406.1c-0.6,6.5-3.3,13-6.4,18.6c-1.3,2.2,2.2,4.3,3.5,2c3.5-6.3,6.4-13.4,7-20.6
				C363.4,403.5,359.4,403.5,359.2,406.1L359.2,406.1z"/>
		</g>
	</g>
	<g>
		<g>
			<path class="st2" d="M351.3,404.5c-0.9,8.2-5.7,18.9-13.4,22.5c-2.3,1.1-0.3,4.5,2,3.5c9.1-4.2,14.4-16.4,15.4-25.9
				C355.5,401.9,351.5,402,351.3,404.5L351.3,404.5z"/>
		</g>
	</g>
	<g>
		<g>
			<path class="st2" d="M341.4,407.7c-1.6,6.3-6.1,15.5-12.6,17.9c-2.4,0.9-1.4,4.8,1.1,3.9c8-2.9,13.4-12.8,15.4-20.7
				C345.9,406.3,342,405.2,341.4,407.7L341.4,407.7z"/>
		</g>
	</g>
	<g>
		<g>
			<path class="st2" d="M324.2,415.8c0.2,2.1-0.7,5.8-2.6,7c-2.2,1.3-0.2,4.8,2,3.5c3.1-1.9,5-6.9,4.6-10.4
				C327.9,413.3,323.9,413.2,324.2,415.8L324.2,415.8z"/>
		</g>
	</g>
	<g>
		<g>
			<path class="st2" d="M376.3,406.3c1.1,1.7,1.1,4.7,1.2,6.6c0.2,3.6,0,7.3-1.6,10.6c-1.1,2.3,2.3,4.3,3.5,2
				c1.9-3.9,2.4-8.3,2.1-12.6c-0.2-2.6-0.3-6.3-1.8-8.6C378.3,402.1,374.9,404.1,376.3,406.3L376.3,406.3z"/>
		</g>
	</g>
	<g>
		<g>
			<path class="st2" d="M382.4,404.8c3.8,2.4,4.7,7.4,5.1,11.6c0.1,1.9,0.5,7.5-0.4,8.4c-1.7,1.9,1.1,4.8,2.8,2.8
				c2.4-2.8,1.8-8.9,1.5-12.2c-0.5-5.4-2.1-11.1-7-14.1C382.3,399.9,380.3,403.4,382.4,404.8L382.4,404.8z"/>
		</g>
	</g>
	<g>
		<g>
			<path class="st2" d="M396.2,408.8c1,5.5-0.5,14.1-3.8,18.6c-1.5,2.1,2,4.1,3.5,2c4-5.5,5.4-15.2,4.2-21.7
				C399.6,405.2,395.7,406.3,396.2,408.8L396.2,408.8z"/>
		</g>
	</g>
	<g>
		<g>
			<path class="st2" d="M403.9,413.9c1.2,3.2,3.1,9.3,0.3,12.1c-1.6,1.6,0.5,4.4,2.4,3.1c0.2-0.1,0.4-0.2,0.6-0.4
				c2.2-1.4,0.2-4.8-2-3.5c-0.2,0.1-0.4,0.2-0.6,0.4c0.8,1,1.6,2.1,2.4,3.1c4.1-4.1,2.6-11.2,0.8-16
				C406.9,410.5,403,411.5,403.9,413.9L403.9,413.9z"/>
		</g>
	</g>
	<g>
		<g>
			<path class="st2" d="M410.7,416.2c2,2.7,3.3,5.7,3.7,9.1c0.3,2.5,4.3,2.6,4,0c-0.4-4.1-1.8-7.8-4.3-11.1
				C412.7,412.1,409.2,414.1,410.7,416.2L410.7,416.2z"/>
		</g>
	</g>
	<g>
		<g>
			<path class="st2" d="M400.6,432.3c3.7,4.4,11.5,5.4,16.8,4c2.5-0.6,1.4-4.5-1.1-3.9c-4,1-10.1,0.3-12.9-3
				C401.8,427.5,398.9,430.3,400.6,432.3L400.6,432.3z"/>
		</g>
	</g>
	<g>
		<g>
			<path class="st2" d="M258.1,418.6c4.2-0.9,8-2.6,11.8-4.3c2.3-1,0.3-4.5-2-3.5c-3.6,1.6-7,3.1-10.9,3.9
				C254.6,415.3,255.6,419.1,258.1,418.6L258.1,418.6z"/>
		</g>
	</g>
	<g>
		<g>
			<path class="st2" d="M258.6,410.8c1.1-1.2,2.3-2.3,3.4-3.5c0.5-0.5,1.1-1.1,1.6-1.6c0.3-0.3,0.5-0.5,0.8-0.8
				c0.1-0.1,0.3-0.3,0.4-0.4c0.7-0.6,0.1-0.7-1.7-0.3c-0.2-0.5-0.4-0.9-0.6-1.4c0,0.1,0,0.1,0,0.2c-0.2,2.6,3.8,2.5,4,0
				c0.1-1.1-0.7-2.1-1.8-2.4c-1.2-0.3-2.1,0.5-2.9,1.3c-2,2-4,4.1-6,6.1C254,409.8,256.8,412.6,258.6,410.8L258.6,410.8z"/>
		</g>
	</g>
	<g>
		<g>
			<path class="st2" d="M311.6,513c-1,6.5-1.6,13.1-0.5,19.6c0.4,2.4,0.8,5.8,2.6,7.8c1.8,1.9,4.6-0.9,2.8-2.8
				c-0.9-1-1.4-4.6-1.6-6.3c-0.8-5.7-0.3-11.5,0.6-17.2C315.8,511.5,312,510.4,311.6,513L311.6,513z"/>
		</g>
	</g>
</g>
</svg>
