<?xml version="1.0" encoding="utf-8"?>
<!-- Generator: Adobe Illustrator 19.2.0, SVG Export Plug-In . SVG Version: 6.00 Build 0)  -->
<svg version="1.1" id="Layer_1" xmlns="http://www.w3.org/2000/svg" xmlns:xlink="http://www.w3.org/1999/xlink" x="0px" y="0px"
	 viewBox="0 0 323 353" style="enable-background:new 0 0 323 353;" xml:space="preserve">
<style type="text/css">
	.st0{fill:#4F5559;}
	.st1{fill:#2E3438;}
	.st2{fill:#1A1E21;}
</style>
<g>
	<path class="st0" d="M148.9,243.9c-3.2-0.9-5.7-2.8-7.2-5.5c-1.6-3-1.8-6.5-0.6-10l0.5-1.3l-0.9-0.8l-1.4-4.1l-2.2,3.9
		c-2,3.6-5.7,6-9.3,6c-0.9,0-1.9-0.2-2.8-0.5l-1.7-0.6l-0.8,1.6c-1.1,2.2-1.5,4.3-1.2,6.2c-5.4-1.6-8.8-4-10.1-7.3
		c-1.3-3.2-1.7-6.8-1.2-10.7l0.8-5.8l-4.2,4.2c-3.1,3.1-3.9,8-4.1,10.6v0.4c-5.6-1.6-8.4-8.1-7.7-13.5l0.5-4.2l-3.6,2.2
		c-1.1,0.7-2.2,1.2-3.4,1.7l-0.1-0.1c0-1-0.1-2-0.3-3.1l-0.8-4.1l-2.7,3.2c-0.1,0.1-0.2,0.2-0.2,0.3v-0.1c0.4-1.1,0.3-2.4,0.2-3.8
		v-0.4c-0.2-4.2-2.4-7-5.6-7.3l-1.4-0.1l-0.6,1.3c-1.2,2.6-2.6,5.9-3,9.2c-3.1-6.6-3.5-14.1-0.9-20.8l1.7-4.4l-4.4,1.9
		c-4.9,2.1-9.1,7.7-9.5,12.6c-0.3-0.9-0.6-1.8-0.8-2.7l-1.1-4.9l-3.3,5.5c-1.5-2.3-2.4-5-2.8-8l-0.7-5.2l-2.7,4
		c-1.1-3-1.8-5.9-2.3-8.8l-3.9-0.3c-0.1,0.4-0.2,0.8-0.3,1.2c-0.8-2.5-1.7-5.2-2.3-7.9l-3.9-0.1c-0.1,0.6-0.2,1.1-0.3,1.8
		c-4.6-7.5-2.8-18-0.4-25.7L38,143l-5.3,4.5c-3.8,3.2-6,5.9-6.9,8.2c-1-3.5-1.2-6.9-0.5-10.4c0.3-1.8,0.9-3.5,1.4-5.3
		c0.7-2.3,1.5-4.7,1.8-7.2c0.4-3.1-0.3-5.7-1.1-8.2c-0.6-2-1.1-4-1-5.9c0.2-2.3,1-4.6,2.5-6.9l0.5-0.8l-0.3-0.8V110
		c0.2-5,0.7-10.9,2.7-16.3c0.5-1.3,1.1-2.5,2-3.9l0.6-1L34,88.1c5.3-9.5,11-23.3,8.4-35.5c-0.2-0.8-0.4-1.6-0.6-2.4
		c-0.8-3.1-1.5-6-0.8-8.9c0.5-2.2,1.4-4.2,2.4-6.4c0.9-2,1.8-4,2.4-6.2c2.3,7.4,4.5,15.3,4.9,23.9c0.1,2.4,0.1,4.8,0,7.3l0.3,2.2
		l2.2-0.2c1.3-0.1,2.7-0.1,4-0.1c0.5,0,1,0,1.5,0l0.1,0.4c0,2.3-0.3,4.7-0.6,7.4l-0.1,0.7l0.4,0.6c2.9,4.9,8.5,7.1,13.9,9.2
		c3,1.2,5.9,2.3,8.1,3.9c2.8,2,4.8,4.1,6,6.5c0.8,1.5,1.3,3,1.9,4.6c1,2.8,2.1,5.7,4.3,8.4L93,104l0.7,0.3c0.5,0.3,1,0.6,1.6,0.9
		c3.4,2,6.6,3.8,9.2,6.6l0.5,1.3l1.3-0.1c1.5,0.9,3.1,1,4.1,1c0.7,0,1.3,0,1.9-0.1c0.2,0,0.4,0,0.7,0l1.7,0.9l0.9-1.8
		c0.7-1.4,1.5-2.8,2.5-4.5l0.2-0.3l0,0l0,0l0.5-0.8h0.3l0.4-0.3c6-1.6,11.9-4,17.6-6.4c9.2-3.9,17.9-7.6,27.4-7.8c0.3,0,0.6,0,0.9,0
		c6,0,13.2,1.8,21.4,5.2c2.5,1.1,5,2.4,7.4,3.7c1.8,1,3.6,1.9,5.5,2.8c2.2,1.1,4.4,1.3,6.6,1.6c1.7,0.2,3.4,0.4,4.9,1.1l0,0
		c1.2,2,2.2,3.6,3.1,5.4l0.6,1.1l1.3-0.1c0.1,0,0.2,0,0.3,0c0.5,0,1.1,0.1,1.8,0.1c0.7,0.1,1.5,0.2,2.3,0.2c1.3,0,2.4-0.2,3.3-0.7
		l0,0c7.2-2,11.2-8.3,14.7-13.8l0.1-0.2c4-6.3,7.9-10.8,12.3-14.2c0.7-0.5,1.3-1,2-1.4l0.4-0.3l0.1-0.1h0.1l0.2-0.1
		c1.9-1.4,3.9-2.9,5.5-5.1c0.6-0.8,1.2-1.6,1.8-2.5c0.4-0.5,0.8-1.1,1.2-1.6c0.7-1,1.5-2,2.2-3c1.6-2.2,3.3-4.4,4.8-6.7l0.2-0.2
		l0.1-0.3c0.4-0.6,0.8-1.2,1.2-1.9c2.5-4.1,5.4-8.8,6.7-13.7l0.5-0.5v-0.8c-0.1-0.9-0.1-1.8-0.1-2.7L278,44l0.1-0.2l0,0
		c0-5.1,0.9-10,2.2-14.9c0.7,2.4,1.6,4.6,2.5,6.8c0.9,2,1.7,3.9,2.3,5.9c1.1,3.9,1.3,7.9,1.5,12.1l0.1,1.6
		c0.6,12.1,3.7,22.8,9.3,32.9l-0.4,0.7l0.5,1c1.1,1.9,1.9,3.7,2.5,5.5c2,6.2,2.3,12.7,2.2,18.9c0,0.7-0.1,1.7-0.1,2.7
		c-0.3,5.6-0.7,14.1,3,18.2c1.1,1.2,2.5,1.9,4,2.2c-1.1,1.1-2.6,1.7-4.1,1.7l0,0c-0.1,0-0.3,0-0.4,0l-2.1-0.1v2.1
		c0,2.2-0.4,4.4-1,6.5l-0.8,1l0.6,1.2c1,1.9,1.4,3.4,1.4,5.1c0,3.4-1.6,6.6-3.2,9.8l-1.9-0.3v2.3c0,3.4-0.8,6.4-2.4,9
		c0-0.8,0-1.7-0.1-2.5l-3.9-0.1c-0.6,3-1.5,6.1-2.5,9c-0.1-0.4-0.2-0.8-0.3-1.2l-3.9,0.3c-0.5,2.9-1.3,5.8-2.3,8.8l-2.9-4.3
		l-0.6,5.3c-0.4,3.2-1.3,5.9-2.7,8.1l-3.3-5.5l-1.1,4.9c-0.2,1-0.5,1.9-0.8,2.9c0-0.2-0.1-0.5-0.1-0.8c-0.4-1.2-0.8-2.2-1.4-3.2
		c-1.6-2.6-3.8-5-7.1-7.4l-5.1-3.8l2,6c2.3,6.7,1.6,14.2-1.7,20.7l-3.8-4.2l-0.1-0.1l-0.1-0.1c-1.3-1.7-2.6-3.3-3.9-4.7l-1.8-2.1
		l-1.4,2.3c-2.5,4.1-4,7.9-3.3,12.9c-1.8-0.6-3.9-2.5-6.3-5.8l-4.4-6.1l0.8,7.5c0.2,1.7,0.3,3.3,0.3,5c0,4.3-0.4,9.6-3.3,12.5
		c0-2.9-0.4-6.1-2.5-8.3l-3.1-3.3l-0.3,4.5c-0.1,1.6-0.1,3.2-0.6,4.7l0.2,0.3l0,0l-0.3,0.1l-0.3,0.3c-1.5,4.2-4.5,7.9-8.6,10.9
		c0.3-2.5-1-4.7-1.9-6.2l-0.6-0.9h-1.1c-1.3,0-2.4-0.1-3.5-0.3l-1.5-0.3l-0.5,1.1c-0.4,0-0.7,0-1.1,0c-3.9,0-7.6-1.2-11.1-3.4
		l-1.7-1.1l-1.1,1.8c-1.9,3.1-4.1,5.7-6.8,8c-0.2-1.7-0.6-3.4-1.3-5.2l-2.3-6.1l-1.5,6.3c-0.6,2.4-1.8,4.4-3.5,5.9
		c-2.4,2.1-5.4,2.5-7.5,2.5c-1.2,0-2.5-0.2-3.8-0.5c1.8-0.8,3.3-2.5,4.2-5c1.2-3.6,1-8.4-1.9-10.7l-1.6-1.3l-1.2,1.7
		c-0.1,0.1-0.1,0.2-0.2,0.3c-1.3,1.7-2.8,2.8-4.5,4.2c-0.4,0.3-0.8,0.6-1.3,1C150.8,234.1,148.7,238.5,148.9,243.9z M180.5,127
		c1,0,1.9,0.1,2.8,0.2c1.2,0.2,2.2,0.5,3.4,0.9c1.8,0.5,3.6,1.1,5.7,1.1c0.7,0,1.4-0.1,2.2-0.2c0.9-0.2,1.8-0.3,2.8-0.5l0.7-0.1
		l0.2-0.3l0.4,0.2l0.5-0.2c1.6-0.4,3.2-0.7,4.8-1.1l2.4-0.6l-1.1-2.4c-1.7-3.9-3.7-8.3-8.1-10.6c-2.1-1.1-4.4-1.7-6.6-2.3l-1-0.3
		c-4.6-1.3-9.6-2.5-15.2-3.8c-3.1-0.7-6.1-1-9.4-1c-3.5,0-7.1,0.4-11.1,1.2l-0.4,0.1l-0.1,0.1h-0.1l-0.4,0.1
		c-1.4,0.3-2.9,0.7-4.5,1.1c-3.7,1-8,2.1-12.1,3.7c-6.1,2.3-8.6,5.7-10.5,10.6l-0.8,1.9l1.9,0.7c0.6,0.2,1.3,0.5,1.9,0.7
		c2.3,0.9,4.8,1.8,7.2,2.4c1,0.2,1.9,0.3,2.8,0.3c2.2,0,4-0.6,5.8-1.2c1-0.3,2.1-0.7,3.3-0.9c0.8-0.2,1.7-0.2,2.6-0.2
		c2.3,0,4.7,0.5,7.1,1c2.3,0.5,4.7,1,7.2,1.1c0.3,0,0.6,0,0.9,0c2.6,0,5.2-0.4,7.7-0.8C175.9,127.4,178.2,127,180.5,127z"/>
	<g>
		<path class="st1" d="M288.9,77.7c-1.6-2.2-2.7-4-3.7-5.6c-4.8-8.5-7.3-17.7-7.4-28V44v-0.2v-0.2h1l-1-0.1
			c0.2-3.7,0.7-7.3,1.5-11.3l0.7-3.3l1.2,3.1c0.4,1,0.8,2,1.2,3c0.9,2.1,1.8,4.2,2.4,6.5c1.2,4.2,1.4,8.5,1.6,12.7
			c0.1,2.1,0.2,4.2,0.4,6.3c0.6,5.5,1.8,11,3.8,16.4L288.9,77.7z"/>
		<path class="st1" d="M267.8,160.2c-5.5-2-10.6-5-14.9-8.6c-3.7-3.2-6.2-6.4-7.4-9.7s-0.8-6.8-0.5-10.1c0.1-1.2,0.2-2.3,0.3-3.5
			c0.4-8.9-0.1-19.7-7.9-24.7l-0.9-0.6l0.6-0.8c0.6-0.8,1.1-1.7,1.7-2.5c0.7-1.1,1.5-2.2,2.2-3.3l0.6-0.9l0.8,0.7
			c5.9,4.7,8.8,10.8,9,19.1c0.1,2.4,0,4.9-0.1,7.3c-0.1,3.7-0.3,7.6,0.2,11.3c0.7,5.1,2.7,9.4,6.2,13.1c1.3,1.4,2.7,2.7,4.1,4
			c2.6,2.3,5.2,4.7,7.1,7.8l1.5,2.5L267.8,160.2z"/>
		<path class="st1" d="M205.7,125.1L205.7,125.1l-0.6-1.3c-0.5-1-0.9-2-1.4-3l-0.4-0.7l0.6-0.5c0.8-0.6,1.4-2,1.9-2.9
			c0.1-0.3,0.3-0.5,0.4-0.7c0.4-0.8,0.8-1.6,1.3-2.7l1.9,0.3c0.4,4.7-0.8,8.7-1.8,11.7l-1.1,3L205.7,125.1z"/>
		<path class="st1" d="M202.1,117.9c-0.3-0.5-0.7-1-1.1-1.5l-0.6-0.7l0.7-0.6c2.3-2.3,4-5.1,5-8.2l0.2-0.8l0.8,0.1
			c0.1,0,2.1,0.3,2.1,0.3l-0.8,1.3c0,0.1-0.1,0.1-0.1,0.2c-0.6,2.3-1.3,4.2-2.2,6c-0.4,0.9-0.9,1.7-1.3,2.5
			c-0.1,0.1-0.2,0.3-0.4,0.6c-0.2,0.3-0.5,0.6-0.6,0.9l-0.7,1.7L202.1,117.9z"/>
		<path class="st1" d="M198.9,114.5c-0.8-0.6-1.8-1.2-2.9-1.6l-1-0.4l0.6-1c0.6-1.1,1.2-2.2,1.7-3.6l0.2-0.6
			c0.3-0.7,0.6-1.4,0.8-2.1l0.3-1.1c0,0,1.6,0.8,1.8,0.8c1.2,0.6,2.6,0.8,3.7,0.9l1.2,0.2l-0.4,1.2c-0.9,2.8-2.5,5.2-4.6,7.3
			l-0.6,0.6L198.9,114.5z"/>
		<path class="st1" d="M193.2,111.9c-0.4-0.1-0.9-0.3-1.3-0.4l-1.1-0.3l0.5-1.1c0.6-1.3,0.9-2.9,0.9-4.9v-0.6c0-0.7,0-1.5,0-2.2
			l-0.1-1.8l2.2,1.2c0.9,0.5,1.8,1,2.6,1.4l0.6,0.3l-0.1,0.7c-0.1,1-0.6,2.1-1,3c-0.1,0.2-0.2,0.4-0.3,0.6c-0.5,1.3-1.1,2.5-1.8,3.7
			l-0.4,0.7L193.2,111.9z"/>
		<path class="st1" d="M189,110.7c-1.4-0.4-2.7-0.7-4.1-1.1l-1.4-0.4l0.8-1.2c1.8-2.5,2.7-5.4,2.7-8.2v-1.7l1.5,0.6
			c0.6,0.3,1.2,0.6,1.8,0.9l0.3,0.2l0.2,0.3c0.5,1.2,0.5,2.8,0.4,4.1c0,0.3,0,0.6,0,0.9c0,1.5-0.1,3.2-1,4.8l-0.3,0.8L189,110.7z"/>
		<path class="st1" d="M182,108.8c-0.6-0.2-1.2-0.3-1.9-0.5l-2-0.5l0.6-1.1c1.6-3,2.4-6.2,2.3-9.5v-1.5l1.4,0.5
			c1.1,0.4,2.2,0.8,3.4,1.3L187,98l-0.7,1c0,0,0,0.1-0.1,0.2c-0.4,2.7-0.8,6-2.9,8.4c-0.1,0.1-0.1,0.2-0.1,0.3l-0.1,1.1L182,108.8z"
			/>
		<path class="st1" d="M176.5,107.5c-1-0.2-2.1-0.5-3.1-0.7l-1.1-0.2l0.4-1.1c1.1-3.3,0.7-7.2,0.2-10.6l-0.2-1.4l1.4,0.3
			c1.7,0.4,3.5,0.8,5.3,1.4l0.7,0.2v0.7c1,3.7-0.5,7.2-2.3,10.4c0,0,0,0.1,0,0.2l-0.2,1L176.5,107.5z"/>
		<path class="st1" d="M170.5,106.3c-1.4-0.2-2.9-0.3-4.4-0.3h-1.3l0.4-1.3c1.1-3.4,1.7-7,1.7-10.7v-1.1L168,93c1,0.1,2,0.2,3,0.3
			l0.7,0.1l0.2,1.2c0.5,3.4,1.1,7.7-0.2,11l-0.3,0.8L170.5,106.3z"/>
		<path class="st1" d="M158,104.8c2.4-3.3,3.8-7.3,5-11.2l0.2-0.7h0.7c0.3,0,0.5,0,0.8,0h1.2v1c0,4-0.7,7.7-2,11.5l-0.2,0.6H163
			c-1.3,0.1-2.7,0.2-4.1,0.3l-2.3,0.3L158,104.8z"/>
		<path class="st1" d="M154.5,104.7c0-0.3,0-0.6,0-0.9c0-0.4,0-0.8,0-1.1c0-2.3-0.2-4.7-0.6-7.3l-0.1-0.9l0.9-0.2
			c2.1-0.5,4-0.9,5.9-1.1l1.5-0.2l-0.5,1.5c-1.2,3.7-2.6,7.6-5.4,10.9l-1.7,2L154.5,104.7z"/>
		<path class="st1" d="M147.2,107.1c0.6-1.5,1-2.8,1.3-4.6c0.3-2.2,0.4-4,0.3-5.8v-0.8l0.7-0.2c0.8-0.3,1.5-0.5,2.3-0.7l1.1-0.3
			l0.2,1.1c0.3,1.9,0.4,3.6,0.5,5.4c0,0.2,0,0.4,0.1,0.8c0.1,1.8,0.2,3.7-0.1,4.7l-0.2,0.6l-0.6,0.1c-1.4,0.3-2.9,0.7-4.4,1.1
			l-1.9,0.5L147.2,107.1z"/>
		<path class="st1" d="M143.5,107.7c0.2-2.7-0.3-5.7-0.9-8.6l-0.2-0.8l0.8-0.3c1.1-0.4,2.1-0.8,3.2-1.2l1.3-0.5v1.4
			c0,1.6-0.1,3.2-0.4,5.2c-0.3,1.9-0.9,3.4-1.6,4.9l-0.1,0.2l-0.2,0.2c-0.1,0-0.1,0.1-0.1,0.1l-2.1,2.6L143.5,107.7z"/>
		<path class="st1" d="M137.2,110.1c0.8-2.6,0.7-5.6,0.6-8.4v-1.3l3.9-1.6l0.2,1.2c0.6,3.2,1.1,6.9,0.3,9.8l-0.2,0.5l-0.5,0.2
			c-1,0.3-2,0.6-3,0.9l-1.8,0.6L137.2,110.1z"/>
		<path class="st1" d="M132.4,111.3c-0.2-2.4-0.6-4.7-1.2-7.4l-0.2-0.8l0.8-0.3c1.2-0.5,2.4-1,3.6-1.5l1.3-0.6l0.1,1.4
			c0.1,2.9,0.3,6.8-1.5,9.7c0,0,0,0.1-0.1,0.2l-0.1,0.5l-0.4,0.2c-0.2,0.1-0.4,0.2-0.6,0.3l-1.4,0.7
			C132.6,113.6,132.4,111.5,132.4,111.3z"/>
		<path class="st1" d="M130.4,164.1c0.6-5.6,0.5-11.3,0.4-15c-0.2-7.3-0.8-14.9-3.1-21.7l-0.7-2.1l2.4,1c2.4,1,4.9,2,7.3,2.5
			l0.9,0.2l-0.1,0.9c0,0.1,0,0.1,0,0.2c2.4,10.8,0.8,21.8-5.1,34.6L130.4,164.1z"/>
		<path class="st1" d="M127.2,116.4c-1.4-3.2-3.5-5.9-6.4-8l-1.7-1.2l2-0.6c2.4-0.7,5-1.6,7.9-2.7l1.1-0.4l0.2,1.1
			c0.3,1.3,0.6,2.9,0.8,4.4c0.2,1.1,0.2,2.1,0.3,3c0,0.2,0,0.4,0,0.6s0.1,0.4,0.1,0.5c0-0.2-0.6-0.6-0.6-0.6v0.3l0.5,1.5l-0.3,0.2
			c-0.2,0.1-0.4,0.2-0.5,0.3c-0.6,0.5-1.2,1-1.7,1.6l-1.1,1.3L127.2,116.4z"/>
		<path class="st1" d="M63.3,158.7c9.2-8.6,14.3-17.1,15.4-25.1c0.5-3.6,0.4-7.5,0.3-11.3c-0.2-9.6-0.4-19.6,8.1-26.5l1.1-0.8
			l0.5,1.3c1.2,3.1,2.6,5.5,4.3,7.6c0.1,0.1,0.1,0.1,0.2,0.1l0.3,0.1l0.2,0.2c0,0.1,0.1,0.1,0.1,0.1c0.5,0.3,1,0.6,1.5,0.9l1.2,0.7
			l-1.1,0.9c-5,4.3-6.5,12.4-7.9,19.5c-0.4,2.1-0.8,4.1-1.2,5.8c-2,8.1-4.7,14.3-8.2,18.8l-0.2,0.2l-0.3,0.1c-0.1,0-0.4,0.2-0.4,0.5
			v0.3l-0.2,0.2c-3.4,4-7.7,6.6-12.8,8L63.3,158.7z"/>
		<path class="st1" d="M65.7,94.9c1.1-5.4,3.6-10.4,7.1-14.1l0.5-0.5l0.6,0.3c1,0.4,1.9,0.9,2.7,1.3c0.1,0.1,0.3,0.1,0.4,0.2
			l1.5,0.8l-1.2,0.9c-4.1,3.3-7.4,7.3-9.7,11.8L65.7,94.9z"/>
		<path class="st1" d="M51.5,143.3c1.6-2.7,2.8-4.9,3.7-6.9c2.5-5.7,2.5-11.8,2-17l-0.2-2.5c-1.2-13.6-2.5-29,10.3-38.3
			c0,0,0.1,0,0.1-0.1l0.5-0.5l0.6,0.3c0.8,0.3,1.6,0.7,2.4,1l1.3,0.5l-0.9,1.1c-5.1,6-7.9,14.7-7,22.2c0,0,0,0.1,0,0.2l0.1,0.3
			l-0.1,0.3c-1.2,4.6-1.6,9.4-1.9,14.1c-0.4,5.2-0.8,10.5-2.3,15.6c-1.3,4.6-4.4,8.2-7.1,11L51.5,143.3z"/>
		<path class="st1" d="M40,76.1c2.1-6,3.3-11.8,3.6-17.3c0.1-2.6-0.5-5-1.2-7.6c-0.6-2.3-1.1-4.6-1.2-7c-0.1-3.5,1.4-6.8,2.8-10
			c0.4-0.9,0.8-1.9,1.2-2.8l1.1-2.6l0.8,2.7c0.8,2.8,1.5,5.1,2,7.2l0.1,0.5l-0.3,0.4c0,0.1-0.1,0.1-0.1,0.3c-0.1,13.2-0.7,26-7,37.1
			L40,76.1z"/>
		<path class="st1" d="M25.6,153.1c-0.5-3.6-0.2-7.2,1-11.4c0.2-0.7,0.4-1.3,0.6-2c0.5-1.6,1-3.3,1.3-4.9l0.1-0.3l0.2-0.2l0.1-0.1
			c2-4.3,5.1-8.4,8.5-11.3c1.6-1.4,3.4-2.5,5.2-3.5c1.5-0.9,2.9-1.7,4.2-2.8c0.8-0.6,1.5-1.3,2.2-1.9l1.6,1.1
			c-2,5.1-4.6,10.1-7,14.9c-1.8,3.5-3.6,7.1-5.3,10.7c-0.4,1-0.9,2-1.3,3l-0.1,0.3l-0.2,0.2c-4.4,3.3-7.6,6.2-9.4,8.8l-1.4,2.1
			L25.6,153.1z"/>
		<path class="st1" d="M54.9,197c-5.1-10.7,0.1-25.6,7.2-34.8l0.2-0.3l0.4-0.1c5.2-1,9.7-3.3,13.4-6.7l1.5-1.4l0.2,2.1
			c0.4,5.5-0.7,10.3-3.2,14.3c-1.6,2.6-4,4.5-6.3,6.3c-1.5,1.2-3,2.4-4.2,3.7c-3.5,3.8-5.4,8.9-5.3,14.2v0.6l-0.6,0.3
			c-0.1,0-0.1,0.1-0.2,0.1c-0.5,0.6-1,1.2-1.4,1.9l-1,1.5L54.9,197z"/>
		<path class="st1" d="M72.8,208.4c-2.2-6.7-1.6-13.9,1.5-20l0.1-0.1l0.1-0.1c0.1-0.1,0.1-0.1,0.1-0.2v-0.1l0.1-0.1
			c0.7-1.3,1.5-2.4,2.3-3.5c0.9-1.2,2-2.2,3-3.3c1.8-1.9,3.4-3.6,4.6-5.8c1.9-3.4,1.6-7.1,1.3-10.9v-0.2c-0.5-6.4,0.9-11.7,4.1-16.1
			c1-1.4,2.2-2.6,3.3-3.8c1.6-1.7,3.1-3.2,4.2-5.1c1.6-2.8,1.8-5.8,2-8.9l0.1-0.9c0.5-6.8,2.3-11.4,6.2-15.4l0.5-0.5l0.6,0.3
			c1,0.5,2.1,0.7,3.7,0.7c0.6,0,1.3,0,1.9-0.1l1.6-0.1l-0.6,1.5c-1,2.4-1.6,4.7-1.8,7c-0.1,0.9-0.1,1.8-0.2,2.7
			c-0.2,3.2-0.4,6.5-2.2,9.7c-1.6,2.7-3.8,5-5.9,7.1c-0.4,0.4-0.8,0.8-1.2,1.2c-6.2,6.3-10.1,14.2-11.9,24.1c-1.1,6-1.5,12-1.7,17.2
			v0.4l-0.3,0.3c-4.1,3.5-7,8.5-9.4,13.5l-0.2,0.4c-1.4,2.8-3,6-3.9,9.2l-0.9,3.1L72.8,208.4z"/>
		<path class="st1" d="M84.6,208.9c0-1.1-0.2-2.1-0.4-2.9c-0.7-2.3-2.3-4.1-4.3-4.6l-1.2-0.3l0.8-1.7c2-4,4.1-8.2,7.1-11.4l1.8-2
			l-0.1,4c0,1.6-0.1,3.1-0.2,4.7c0,0.7,0,1.4,0,2.2c-0.1,3.8-0.1,8.6-1.6,12.4L84.6,208.9z"/>
		<path class="st1" d="M120,238.5c-4.4-1.5-7.3-3.7-8.6-6.4c-1.2-2.6-1.5-5.5-1.5-7.5c-0.1-5,1.6-9.8,3.4-14.2l0.7-1.6
			c3.5-8.8,6.9-17.2,5.7-26.7c-0.8-6.3-3.4-11.7-6.4-17.5c-2.8-5.4-5.2-11.3-3.7-17c0.9-3.4,3.1-6,5.2-8.6c0.8-0.9,1.5-1.8,2.2-2.8
			c4.6-6.2,4.7-17.4,2.6-25.2l-0.8-3l2.4,2c2.5,2.1,4.5,4.8,5.5,7.9c0,0.1,0.1,0.2,0.2,0.3l0.7,0.5l-0.4,0.8c-0.6,1.2-1.1,2.6-1.6,4
			l-0.3,0.8c-0.1,0.2,0,0.3,0,0.3l0.1,0.1l0.1,0.1c0,0.1,0.1,0.1,0.1,0.1l0.2,0.2l0.1,0.3c3.4,7.6,3.9,16.6,4.1,25.1
			c0.1,7.1,0,15.5-2.2,23.2v0.1v0.1c-1.7,3.6-2.1,6.4-1.4,8.6c1.1,3.3,2.8,6.5,4.4,9.7c1,2,2.1,4.1,3,6.3v0.1c2.6,8,1,16.2-4.9,24.9
			c-0.6,0.9-1.3,1.8-1.9,2.8c-2.6,3.5-5.5,7.5-5.5,11.6v1.4L120,238.5z"/>
		<path class="st1" d="M127.6,232.1c-0.6,0-1.2-0.1-1.8-0.2l-1.4-0.3l0.8-1.2c0.2-0.3,0.8-1.3,0.8-1.3c0.7-1,1.4-2.1,2.1-3.1
			c1.8-2.5,3.6-5.1,5-7.9c1.3-2.5,2.2-5.1,2.6-7.8l2-0.1c0.5,2.1,0.8,4,1,5.8c0.6,7.1-1.1,12-5.1,14.4
			C131.8,231.5,129.6,232.1,127.6,232.1z"/>
		<path class="st1" d="M165.8,240.9c-0.5,0-0.9,0-1.4-0.1l-2.2-0.2l1.5-1.5c2.1-2.1,3.4-6,3-9.4c-0.2-2.4-1.2-4.3-2.8-5.3l-0.8-0.5
			l0.4-0.8c1.7-3.4,2.5-7.6,2.4-12.2c-0.1-4.6-1.1-9.2-2.1-13.6c-0.5-2.1-1-4.4-1.3-6.6c-1.5-8.9-0.4-17.3,3.5-24.9l1.2-2.3l0.7,2.5
			c0.9,3.6,2,7.8,2.2,12c0.3,4.8-0.1,9.6-0.5,14.2c-0.5,5.7-1,11.5-0.2,17.2c0.6,4.3,2.1,8.4,4.7,12.9c0.4,0.7,0.9,1.5,1.3,2.2
			c0.4,0.8,0.9,1.5,1.3,2.3l0.1,0.2v0.2c0.7,4.5-0.9,9-4.3,11.5C170.8,240.2,168.5,240.9,165.8,240.9z"/>
		<path class="st1" d="M206.9,231.5c-7.9-0.9-13.5-6.6-15.6-16c-0.6-2.8-0.9-5.3-0.9-7.5c0.1-5.4,2.9-9.1,5.8-12.5l2.5-2.9l-0.7,3.8
			c-1.7,8.8-0.5,16.9,3.5,24.3c1.5,2.7,3.3,5.2,5.1,7.7c0.4,0.5,0.8,1.1,1.2,1.6l1.3,1.8L206.9,231.5z"/>
		<path class="st1" d="M212.7,236.9c-0.5-3.3-3-6.5-5.2-9.3c-0.8-1-1.6-2-2.2-3c-2.7-3.9-4.6-8-5.7-12.2l1.8-0.8
			c1.6,2.3,4,4,6.1,5.5c0.9,0.6,2.3,1.3,3.7,2.1c3.9,2.1,8.4,4.5,10,7.7l0.2,0.4l-0.1,0.4c-1.3,3.8-3.6,7.1-6.8,9.8l-1.4,1.2
			L212.7,236.9z"/>
		<path class="st1" d="M220.4,224.2c-2.1-2.3-5.3-4-8.3-5.6c-2-1.1-3.9-2.1-5.5-3.3c-7.3-5.3-6.7-12-6-19.1c0.2-1.8,0.3-3.7,0.4-5.6
			c0-0.1,0-0.1,0-0.2l-0.2-0.5l0.3-0.4c1.6-2.4,2.5-4.6,2.9-7c1-5.4-1.1-10.5-3.1-14.9c-3-6.5-5.5-12.4-5.6-20
			c-0.1-6.1,0.9-12.4,2.8-18.8l0.2-0.6l0.6-0.1c1.1-0.3,2.3-0.5,3.4-0.8c1.1-0.3,2.1-0.5,3.2-0.8l1.9-0.4l-0.7,1.8
			c-0.3,0.8-0.7,1.7-1.1,2.6c-0.4,0.9-0.8,1.9-1.2,2.9c-2.4,6-2.7,10.8-1,15.2c1.3,3.2,3.5,5.8,5.9,8.5c0.4,0.5,0.9,1,1.3,1.5
			c4.6,5.4,4.6,9.4,2.9,15.3c-0.2,0.7-0.4,1.3-0.6,2c-1.6,5.4-3.3,11.1-2.4,16.7c0.6,4,2.6,6.6,4.9,9.5c0.7,0.9,1.3,1.7,2,2.7
			c4.1,5.8,5.8,12.6,4.8,19.1l-0.3,2.1L220.4,224.2z"/>
		<path class="st1" d="M228.2,226.8c-0.5-3.5-1.9-5.9-4.3-7.1l-0.5-0.3v-0.6c0-0.5-0.1-0.9-0.1-1.4c-0.5-3.6-1.6-7.1-3.4-10.5
			c-0.9-1.7-2.1-3.1-3.4-4.7c-1.3-1.6-2.6-3.2-3.6-5c-3.2-6.2-1.5-13.2,0.4-19.9c0.2-0.8,0.5-1.5,0.7-2.3c1.1-3.3,2.1-6.7,1.6-9.8
			c-0.6-3.7-3.2-6.5-5.8-9.4c-2.5-2.8-5.1-5.6-6.1-9.4c-1.7-5.9,0.7-11.3,3-16.5c0.4-0.8,0.7-1.7,1.1-2.5c3-7.2,3.5-12.9,1.6-19.1
			c0,0,0-0.1-0.1-0.1l-1.4-2.4l2.6,1c0.2,0.1,0.3,0.1,0.3,0.1l0.3,0.1l0.2,0.3c3,4.9,5.9,10.5,6.4,18.1c0.1,2.2,0.4,3.9,0.8,5.4
			l0.1,0.3l-0.1,0.3v0.1c-0.7,7.4,2.3,14.6,5.3,21.6c0.7,1.6,1.4,3.2,2,4.8l0.1,0.3c1.7,4.4,3.7,9.4,3.4,14.4
			c-0.1,2.5-0.7,4.9-1.2,7.3c-0.6,2.6-1.1,5.3-1.2,8c-0.1,3.5,0.3,7,1.2,10.4l0.1,0.4L228,199c-0.1,0.2-0.1,0.3,0,0.5
			c2.2,4.5,3.4,9.9,3.5,16.1c0.1,4,0,8.2-1.6,11.4l-1.5,2.9L228.2,226.8z"/>
		<path class="st1" d="M268.3,198.1c-0.1-0.2-0.2-0.5-0.4-0.7c-2.4-4.4-6.9-7.8-10.5-10.1c-0.1-0.1-0.2-0.2-0.2-0.2h-0.6l-0.3-0.3
			c-1.5-2.6-3.5-4.7-5.2-6.5l-0.3-0.3c-1.8-1.9-3.7-3.9-4.7-6.5c-1.2-2.9-0.9-5.8-0.6-8.6c0.1-0.9,0.2-1.8,0.2-2.7
			c0.2-4.3-0.8-8.5-2.7-12.1c-1.2-2.2-2.8-3.9-4.5-5.8c-1.4-1.5-2.7-3-3.9-4.7c-2.2-3.2-2.4-6.7-2.7-10.1c-0.2-2.2-0.3-4.4-1-6.5
			c-1-3-2.7-5.8-5.3-8.7l-0.9-1l1.3-0.5c3.5-1.5,7.1-4.5,9.8-8l0.6-0.8l0.8,0.6c3.3,2.1,5.5,5.6,6.6,10.7c1,4.4,1,9,0.8,12.4
			c0,1.4-0.2,2.8-0.3,4.2c-0.3,2.8-0.6,5.6-0.1,8.3c1,4.8,4.1,9.4,9.2,13.4l0.5,0.4l-0.1,0.6c-1.2,6.1-0.9,14.4,3.8,19.3
			c1.2,1.3,2.6,2.4,4,3.5c2.4,1.9,5,4,6.7,7c2.3,4.1,3.1,9,2.1,13.7l-0.6,2.8L268.3,198.1z"/>
		<path class="st1" d="M273.6,197.1c-0.4-0.7-0.9-1.3-1.4-1.9c-0.1-0.1-0.1-0.1-0.1-0.1l-0.6-0.3v-0.6c0.1-4.5-1.2-8.7-3.7-12.3
			c-1.5-2-3.3-3.5-5.3-5.1c-1.5-1.2-3.1-2.4-4.4-3.9c-5.1-5.5-4.2-14.3-3.8-16.9l0.2-1.6l1.3,0.9c4.9,3.3,9.9,5.3,13.2,6.4l0.2,0.1
			l0.1,0.1c4.5,3.7,6.2,10.6,7.2,16.3c1.4,7.9,1,14.1-1.2,18.8l-0.8,1.7L273.6,197.1z"/>
		<path class="st1" d="M293.4,171.7c-0.4-1.6-1-2.9-2-4.1l-0.2-0.3V167c0-2.7-0.5-5.1-1.4-7.3s-2.3-4.3-4.3-6.7l-0.1-0.1l-0.1-0.2
			c-0.7-1.2-1.5-2.5-2.4-3.9c-3.2-5.1-6.4-10.3-8-15.7c-1.8-6-1.1-12.2-0.5-18.3c0.3-2.4,0.5-4.8,0.6-7.1c0.3-6.5,0.1-13.2-2.8-18.5
			c-2.4-4.3-6.4-8.1-11.5-11l-1-0.5l0.6-0.9c0.3-0.5,0.7-1,1-1.5s2.3-3.1,2.3-3.1l0.8,1.1c3.8,5.4,7.4,10.7,10.6,16.4v0.1v0.1
			c0.7,1.6,1.5,3.3,2.6,5l0.3,0.6c3.6,7.8,4.5,15.4,5.5,23.5c0.1,1,0.2,2,0.4,3c0.8,6.7,3.3,13.4,5.6,19.8c0.8,2.1,1.5,4.2,2.2,6.3
			c0.2,0.7,0.5,1.4,0.7,2.1c2.4,6.9,5.1,14.6,2.9,21.8l-1.1,3.6L293.4,171.7z"/>
		<path class="st1" d="M298.7,145.5c-0.3-0.5-0.6-1-0.9-1.6c-1-1.9-1.8-4-2.2-6.5l-0.7-3.7l2.4,2.9c0.6,0.7,1.2,1.3,1.9,1.8
			c0.4,0.3,0.8,0.5,1.2,0.7l0.6,0.3v0.7l0,0c0,1.7-0.1,3.4-0.5,5.1l-0.5,2.5L298.7,145.5z"/>
	</g>
	<g>
		<g>
			<g>
				<path class="st2" d="M207.5,109c2.8,9.1-0.8,15.7-4.2,23.9c-2.1,5.2-3.1,10.6-1,15.9c1.6,4,4.6,7,7.4,10.2
					c4.2,4.8,4.4,8.3,2.7,14.4c-1.8,6.2-4,12.6-3,19.1c0.8,5.4,4,8.4,7.1,12.6c7.8,10.9,6.5,25.4-4.9,33.2c-1.6,1.1-0.1,3.7,1.5,2.6
					c8.1-5.5,12.5-13.7,11.1-23.6c-0.5-3.8-1.7-7.4-3.5-10.8c-1.9-3.6-5.1-6.2-6.9-9.7c-3.1-6-1.3-13,0.5-19.1
					c1.1-3.9,3.1-8.4,2.4-12.6c-1.3-7.6-9.9-11.5-12-18.9c-1.8-6.5,1.7-12.5,4.1-18.3c2.8-6.6,3.9-12.7,1.7-19.7
					C209.8,106.4,206.9,107.2,207.5,109L207.5,109z"/>
			</g>
		</g>
		<g>
			<g>
				<path class="st2" d="M217.5,131.6c-0.9,9.4,4,18.4,7.4,26.9c1.7,4.4,3.7,9.4,3.5,14.2c-0.3,5.1-2.2,10-2.3,15.3
					c-0.1,7.8,1.9,15.7,6.3,22.3c2,2.9,5.3,7.6,9.1,8.3c1.9,0.4,2.7-2.5,0.8-2.9c-3.7-0.7-7.1-6.4-8.8-9.3c-4.6-8.2-5.4-17.9-3.4-27
					c0.8-3.6,1.6-6.6,1.1-10.4c-0.5-3.9-1.9-7.7-3.4-11.4c-3.2-8.2-8.1-17-7.2-26.1C220.7,129.6,217.7,129.7,217.5,131.6
					L217.5,131.6z"/>
			</g>
		</g>
		<g>
			<g>
				<path class="st2" d="M227.3,200c2.3,4.9,3.3,10.4,3.5,15.8c0.1,4.3,0.2,10.4-3.5,13.5c-1.5,1.2,0.7,3.4,2.1,2.1
					c3.9-3.3,4.4-9.5,4.4-14.3c0-6.3-1.2-12.8-3.9-18.5C229,196.7,226.4,198.2,227.3,200L227.3,200z"/>
			</g>
		</g>
		<g>
			<g>
				<path class="st2" d="M210.3,107.6c3.6,5.8,6,11.1,6.4,18.1c0.3,4.6,1.1,8.5,4,12.2c3,3.9,7,7,9.4,11.4c3,5.5,3.5,11.4,2.7,17.5
					c-1.1,9-0.2,17.7,4.2,25.7c3.5,6.4,8.8,11.1,13.2,16.8c1.2,1.5,3.8,0,2.6-1.5c-4.2-5.5-9.4-10.2-12.9-16.3
					c-2.6-4.6-4.1-9.6-4.5-14.8c-0.4-5.5,1.1-10.8,0.9-16.2c-0.5-9.7-5.7-15.9-11.8-22.8c-4.8-5.5-4-10.6-5.2-17.3
					c-0.9-5.3-3.6-9.9-6.4-14.4C211.9,104.5,209.3,106,210.3,107.6L210.3,107.6z"/>
			</g>
		</g>
		<g>
			<g>
				<path class="st2" d="M184.4,126.5c-3.6,4.8-5.8,10.5-6.2,16.5c-0.3,5.3,1.3,8.6,4.2,12.9c4.8,7.1,7.7,15.8,3,23.7
					c-3.1,5.2-8,9.2-10.6,14.8c-4.2,8.9,0.8,18.9,5.9,26.4c5.5,7.9,13.3,14.2,23.4,13.5c1.9-0.1,1.9-3.1,0-3
					c-10.6,0.7-18.1-7.1-23.1-15.6c-2.1-3.7-4.3-7.9-4.8-12.2c-0.8-7.1,3.8-11.9,7.9-17c6.5-8.1,8.6-16.5,4-26.3
					c-2.3-5-6.7-8.7-7-14.5c-0.3-6.3,2.1-12.5,5.8-17.5C188.2,126.5,185.6,125,184.4,126.5L184.4,126.5z"/>
			</g>
		</g>
		<g>
			<g>
				<path class="st2" d="M196.6,127c-3.9,11.9-5.1,25.5,0.4,37.2c3.8,8.1,7.9,16,2.4,24.4c-3,4.6-7.7,8-9.7,13.3
					c-2.3,6-1,13.5,1.4,19.3c3.3,8.2,10.1,12.8,19,12.5c1.9-0.1,1.9-3.1,0-3c-9.9,0.3-15.6-6.2-17.7-15.4c-0.5-2.3-0.9-4.8-0.8-7.2
					c0.1-5.7,3.4-9.4,6.9-13.5c3-3.5,5.7-7.2,6.5-11.9c1-5.4-1-10.6-3.2-15.5c-3-6.6-5.4-12.2-5.5-19.6c-0.1-6.7,1.1-13.5,3.2-19.9
					C200.1,125.9,197.2,125.1,196.6,127L196.6,127z"/>
			</g>
		</g>
		<g>
			<g>
				<path class="st2" d="M199,190.6c-0.1,6.8-2.8,14.8,1.1,21c1.7,2.7,4.2,4.6,6.8,6.3c3.7,2.5,12.1,5.6,13.6,10.1
					c0.6,1.8,3.5,1,2.9-0.8c-2.1-6.5-11.1-9-16.2-12.7c-8.7-6.4-5.4-14.8-5.2-23.9C202,188.7,199,188.7,199,190.6L199,190.6z"/>
			</g>
		</g>
		<g>
			<g>
				<path class="st2" d="M198.6,190.3c-3.5,10.5-3.3,21,2.1,30.8c2,3.5,4.4,6.7,6.8,10c1.6,2.3,4,5.2,3.2,8.2
					c-0.5,1.9,2.4,2.7,2.9,0.8c1.6-6-4.4-11.6-7.5-16c-7-10.3-8.6-21.1-4.6-33C202.1,189.2,199.2,188.4,198.6,190.3L198.6,190.3z"/>
			</g>
		</g>
		<g>
			<g>
				<path class="st2" d="M174.7,126.5c-6.2,4.5-10,11.4-10.8,19c-1.1,11.1,4.8,21.7,5.5,32.6c0.6,10.5-2.2,21-0.7,31.5
					c0.7,4.8,2.4,9.1,4.8,13.3c2.8,4.9,6.2,9.6,6.6,15.5c0.1,1.4,1.5,1.9,2.6,1.1c3.4-2.8,6.1-6,8.3-9.8c1-1.7-1.6-3.2-2.6-1.5
					c-2.1,3.6-4.6,6.5-7.8,9.2c0.9,0.4,1.7,0.7,2.6,1.1c-0.5-8.1-5.9-13.9-9.1-21c-4.6-10.1-2.1-21.5-1.6-32.2
					c0.5-9.9-2.1-18.7-4.3-28.3c-2.3-10.3-1.1-21.3,8.2-27.9C177.7,128,176.2,125.4,174.7,126.5L174.7,126.5z"/>
			</g>
		</g>
		<g>
			<g>
				<path class="st2" d="M222.8,114.3c3.9,4,6.4,8.3,6.9,14c0.3,3.7,0.2,7.2,2,10.5s4.7,5.7,7.1,8.6c4,4.8,5.2,10.4,4.8,16.5
					c-0.3,3.9-0.7,7.5,1.1,11.1c1.7,3.5,4.7,6,7.2,8.8c7,8,8,19.5,2.8,28.7c0.8-0.1,1.6-0.2,2.4-0.3c-1.4-1.6-2.9-3.2-4.3-4.7
					c-1.3-1.4-3.4,0.7-2.1,2.1c1.4,1.6,2.9,3.2,4.3,4.7c0.6,0.7,1.9,0.5,2.4-0.3c4.1-7.4,4.9-16.2,1.8-24.2
					c-1.6-4.1-4.2-7.2-7.1-10.4c-1.9-2-3.8-4-4.8-6.6c-1.4-3.6-0.5-7.2-0.4-10.9c0.2-4.4-0.7-8.7-2.9-12.6c-2.2-4-5.9-6.7-8.5-10.5
					c-3.4-5-1.8-10.9-3.6-16.3c-1.3-4.1-3.8-7.4-6.8-10.4C223.5,110.8,221.4,113,222.8,114.3L222.8,114.3z"/>
			</g>
		</g>
		<g>
			<g>
				<path class="st2" d="M252.7,153.7c-1.5,6.6-1,15.5,4,20.6c3.5,3.6,8,5.8,10.5,10.3c3,5.2,3.1,11.6,0.6,17.1
					c-0.8,1.7,1.8,3.3,2.6,1.5c3.2-7.1,2.9-15.4-1.8-21.9c-2.7-3.7-6.8-5.7-9.8-9.1c-4.1-4.5-4.5-12.2-3.2-17.7
					C256,152.6,253.1,151.8,252.7,153.7L252.7,153.7z"/>
			</g>
		</g>
		<g>
			<g>
				<path class="st2" d="M256.4,189.1c3.6,2.3,7.3,5.1,9.5,8.9c0.5,0.9,0.9,1.8,1.2,2.7c0.1,0.3,0.1,1.2,0.2,0.7
					c-0.3,1.9,2.6,2.7,2.9,0.8c0.3-1.8-0.6-3.8-1.5-5.3c-2.5-4.4-6.7-7.7-10.8-10.4C256.3,185.5,254.8,188.1,256.4,189.1
					L256.4,189.1z"/>
			</g>
		</g>
		<g>
			<g>
				<path class="st2" d="M240.8,96.1c6.7,4.8,9.5,11,9.7,19.1c0.2,6.2-0.7,12.5,0.1,18.7c0.7,5.3,2.8,9.8,6.4,13.7
					c4.4,4.7,10.2,8.3,12.6,14.6c0.6-0.6,1.2-1.2,1.8-1.8c-6.5-1.8-12.8-5.2-17.9-9.5c-3-2.5-5.7-5.6-7.1-9.3
					c-1.5-4.2-0.3-8.8-0.1-13.2c0.4-8.9-0.1-20.4-8.5-25.7c-1.6-1-3.2,1.6-1.5,2.6c3.6,2.3,5.3,6.1,6.2,10.1s1,8.1,0.8,12.2
					c-0.2,4.2-1.2,8.5-0.4,12.7c2.5,12,16.9,20,27.7,23c1,0.3,2.3-0.7,1.8-1.8c-2.1-5.5-6.2-9.1-10.4-13c-6.4-6-8.9-12.3-8.8-21.1
					c0-7,1.1-14.3-1-21.1c-1.7-5.5-5.4-9.4-10-12.7C240.7,92.4,239.2,95,240.8,96.1L240.8,96.1z"/>
			</g>
		</g>
		<g>
			<g>
				<path class="st2" d="M268.4,162.4c4.6,3.5,6.2,10.6,7.2,16c1.1,6.6,1.5,14.8-2.4,20.6c0.9,0.1,1.8,0.2,2.7,0.4
					c-0.7-1.9-1.6-3.2-2.8-4.8c-1.3-1.5-3.4,0.7-2.1,2.1c0.7,1.1,1.4,2.3,2.1,3.4c0.5,1.2,2,1.5,2.7,0.4c4.5-6.5,4-15.5,2.7-22.9
					c-1.1-6.3-3.2-13.8-8.5-17.8C268.3,158.6,266.9,161.2,268.4,162.4L268.4,162.4z"/>
			</g>
		</g>
		<g>
			<g>
				<path class="st2" d="M246.5,89.6c8.2,6.7,10.3,16.1,10.3,26.3c0,8.5-0.9,17.6,3.7,25.2c4.6,7.7,13.5,11.4,18.2,18.9
					c5.7,9,4.2,20.7,0.6,30.2c0.9-0.1,1.8-0.2,2.7-0.4c-0.7-1-1.4-2-2-3c-1.1-1.6-3.7-0.1-2.6,1.5c0.7,1,1.4,2,2,3
					c0.8,1.1,2.3,0.9,2.7-0.4c3.3-8.7,4.7-18.6,1.5-27.5c-3.4-9.4-11.9-13.5-18.2-20.6c-8.1-9.1-5.1-21.5-5.9-32.6
					c-0.6-9-4-17-11-22.8C247.2,86.3,245,88.4,246.5,89.6L246.5,89.6z"/>
			</g>
		</g>
		<g>
			<g>
				<path class="st2" d="M252.4,84.3c7.5,5.7,11.1,16.4,12.6,25.3c1.4,8.5,0.7,17.8,3.6,26c2.7,7.6,10.5,13.1,15.6,19.1
					c7.6,8.9,4.7,19.3,1.1,29.3c1,0.1,2,0.3,2.9,0.4c0.4-2.8-0.2-4.9-1.8-7.1c-1.1-1.5-3.7,0-2.6,1.5c1.2,1.6,1.7,3.6,1.4,5.6
					c-0.2,1.8,2.4,1.9,2.9,0.4c2.9-7.9,5.9-17.2,2.5-25.5c-4.2-10.2-16.7-15.4-19.7-26c-2.8-9.9-1.7-20.5-4.4-30.4
					c-2.2-7.9-6.1-16.1-12.7-21.2C252.3,80.5,250.8,83.1,252.4,84.3L252.4,84.3z"/>
			</g>
		</g>
		<g>
			<g>
				<path class="st2" d="M286.1,152.2c-3.6-6-8.3-12.7-10.3-19.4c-2.4-8.1-0.1-16.9,0.2-25.1c0.3-6.3,0.2-13.4-2.9-19.1
					c-3-5.4-8-9.5-13.4-12.2c-1.7-0.9-3.2,1.7-1.5,2.6c6.4,3.2,12.1,8.2,14,15.3c2.1,7.8,0.7,16.3,0,24.2c-0.6,6.3-0.5,12.4,2,18.3
					c2.5,5.8,6.2,11.4,9.4,16.9C284.5,155.3,287.1,153.8,286.1,152.2L286.1,152.2z"/>
			</g>
		</g>
		<g>
			<g>
				<path class="st2" d="M262.8,72.7c5.2,7.4,10.4,14.9,14.2,23.1c4,8.6,4.6,16.9,5.8,26.2c1.1,9,5,17.8,7.9,26.3
					c3.1,9,7.5,19.4,1.1,28c0.9,0.3,1.9,0.5,2.8,0.8c0.2-3.8-0.1-7.4-2.7-10.3c-1.3-1.5-3.4,0.7-2.1,2.1c1.9,2.3,1.9,5.4,1.8,8.2
					c-0.1,1.6,2,1.8,2.8,0.8c5-6.8,4.1-15.2,1.7-22.8c-3.1-10-7.7-19.9-9.9-30.2c-1-5-0.8-10.1-1.7-15.1c-0.7-4.2-2-8.4-3.7-12.3
					c-3.9-9.4-9.8-17.8-15.6-26.1C264.3,69.6,261.7,71.1,262.8,72.7L262.8,72.7z"/>
			</g>
		</g>
		<g>
			<g>
				<path class="st2" d="M267.6,64.2c1.5,8.8,3,17.7,6.6,26c3.3,7.6,8.7,13.4,13.3,20.1c2.8,4,5,8.3,5.6,13.3
					c0.5,4.5-0.2,9.1,0.3,13.6c0.5,3.8,2,6.6,3.9,9.8c1.9,3.1,3.3,5.6,2.6,9.5c-0.4,2.7-1.8,5.2-3,7.5c0.9,0.1,1.8,0.2,2.7,0.4
					c-0.1-0.3-0.2-0.6-0.2-0.9c-0.5-1.9-3.4-1.1-2.9,0.8c0.1,0.3,0.2,0.6,0.2,0.9c0.3,1.2,2.2,1.5,2.7,0.4c1.7-3.5,3.6-7.1,3.6-11.1
					c0-4.4-2.5-7.4-4.5-11c-4.8-8.6-0.7-19-4.7-28.1c-3.6-8.1-10.4-14.2-14.7-21.9c-5.2-9.2-6.9-19.8-8.6-30.1
					C270.2,61.5,267.3,62.3,267.6,64.2L267.6,64.2z"/>
			</g>
		</g>
		<g>
			<g>
				<path class="st2" d="M297.7,87.4c-5.7-10-8.6-20.8-9.2-32.3c-0.2-4.7-0.3-9.6-1.7-14.2c-1.4-5-4.3-9.4-5.3-14.6
					c-0.3-1.5-2.5-1.3-2.9,0c-1.6,5.7-2.6,11.4-2.9,17.2c-0.1,1.9,2.9,1.9,3,0c0.3-5.6,1.2-11,2.8-16.4c-1,0-1.9,0-2.9,0
					c0.9,5.2,3.8,9.6,5.3,14.6c1.8,6.1,1.3,12.5,1.9,18.8c1,10,4.3,19.6,9.2,28.3C296,90.6,298.6,89.1,297.7,87.4L297.7,87.4z"/>
			</g>
		</g>
		<g>
			<g>
				<path class="st2" d="M116.5,108.3c2.6,6.2,2.5,13.9,1.3,20.4c-1.2,6.8-7.3,10.4-9.7,16.6c-2.9,7.5,0.8,15.1,4.2,21.7
					c3.5,6.7,6,13.7,5.5,21.4c-0.7,10.9-7.2,19.9-9.4,30.3c-0.9,4.6-0.8,9.3,1,13.7c2,4.9,7.4,7.4,12.2,8.7c1.1,0.3,2.1-0.7,1.8-1.8
					c-0.9-3.5,1.4-6.8,3.3-9.6c2.4-3.7,5.1-7.2,7.1-11.1c4.7-9.3,3.8-18.7-1.5-27.6c-1-1.7-3.6-0.2-2.6,1.5
					c6.3,10.7,4.7,20.4-1.9,30.3c-3.3,5-9,10.9-7.3,17.4c0.6-0.6,1.2-1.2,1.8-1.8c-3.7-1-8.4-2.8-10.1-6.6c-1-2.2-1.4-4.8-1.4-7.1
					c-0.1-4.8,1.6-9.4,3.3-13.8c3.7-9.4,7.7-18.4,6.4-28.8c-0.8-6.5-3.5-12.1-6.5-17.9c-2.5-4.9-5.1-10.7-3.6-16.3
					c1.2-4.4,4.7-7.5,7.3-11c5.4-7.3,5-21.2,1.6-29.2C118.7,105.7,115.8,106.5,116.5,108.3L116.5,108.3z"/>
			</g>
		</g>
		<g>
			<g>
				<path class="st2" d="M109,143.5c-6.9,11-6.3,25.2-6.7,37.7c-0.4,12.3-0.4,29.5-14.3,34.5c-1.8,0.6-1,3.5,0.8,2.9
					c12.5-4.5,15.2-17.3,16.1-29.3c1-14.4-1.4-31.5,6.7-44.3C112.6,143.4,110,141.9,109,143.5L109,143.5z"/>
			</g>
		</g>
		<g>
			<g>
				<path class="st2" d="M94.7,211.5c-4.4,7.3-0.6,19.2,8.3,21c1.9,0.4,2.7-2.5,0.8-2.9c-7-1.4-10-10.8-6.5-16.6
					C98.3,211.4,95.7,209.8,94.7,211.5L94.7,211.5z"/>
			</g>
		</g>
		<g>
			<g>
				<path class="st2" d="M117.3,106.1c-3.1,5.1-6.1,10.2-6.7,16.2c-0.4,4.2-0.1,8.2-2.3,12c-1.8,3.1-4.5,5.6-7,8.1
					c-6.7,6.9-10.4,15.3-12.2,24.6c-1.7,9.1-1.7,18.3-2,27.5c-0.2,5.5,0.5,15.8-5.4,18.9c-1.7,0.9-0.2,3.5,1.5,2.6
					c5.1-2.7,6-9.2,6.5-14.4c0.9-9.3,0.4-18.8,1.5-28.1c1.4-11.7,5.1-21.6,13.4-30.1c4-4.1,7.6-8.2,8.5-14c0.5-3.3,0.2-6.7,1-10
					c1-4.3,3.5-8.1,5.8-11.8C120.9,106,118.3,104.5,117.3,106.1L117.3,106.1z"/>
			</g>
		</g>
		<g>
			<g>
				<path class="st2" d="M152.4,127.3c0.6,5.4,3.7,9.6,1.2,15.2c-1.9,4.1-5.2,7.4-7.8,11.1c-4.7,6.7-8.2,15.3-5.4,23.4
					c2.5,7.3,9.3,11.8,12.5,18.7c5,11-5.9,22.9-12.6,30.6c-1.3,1.5,0.9,3.6,2.1,2.1c6.1-7.1,13.1-15,14.5-24.6
					c1.3-8.5-4.7-14.5-9.5-20.7c-3.7-4.8-6-9.9-4.7-16.1c1.2-5.9,4.7-10.8,8.3-15.5c2.5-3.3,5.3-6.7,6.3-10.8
					c1.2-5-1.4-8.7-1.9-13.5C155.1,125.5,152.1,125.4,152.4,127.3L152.4,127.3z"/>
			</g>
		</g>
		<g>
			<g>
				<path class="st2" d="M136.5,130.2c2.8,12.5-0.3,24.2-5.8,35.5c-2.3,4.7-7.3,11.4-5.4,16.9c2.2,6.5,6.3,12.5,8.7,19
					c1.7,4.7,3.2,9.5,3.6,14.5c0.4,4.8,0,10.7-4.6,13.5c-2.2,1.3-5.5,2-8,1.1c-1.8-0.7-2.6,2.2-0.8,2.9c7,2.6,14.4-2.9,16-9.6
					c2.1-8.7-1.4-18.5-4.6-26.5c-1.3-3.1-2.6-6.2-4.1-9.3c-1.3-2.6-3.7-5.6-3.6-8.6c0.2-3.8,3.3-8.1,4.9-11.4
					c6.1-12.3,9.7-25,6.6-38.7C139,127.5,136.1,128.3,136.5,130.2L136.5,130.2z"/>
			</g>
		</g>
		<g>
			<g>
				<path class="st2" d="M145.3,126.4c-2.1,8.1-1.3,17.4,2.4,24.9c0.9,1.7,3.4,0.2,2.6-1.5c-3.4-6.8-4-15.3-2.1-22.6
					C148.7,125.3,145.8,124.5,145.3,126.4L145.3,126.4z"/>
			</g>
		</g>
		<g>
			<g>
				<path class="st2" d="M124.8,125.6c3.4,7.5,3.8,16.6,4,24.8c0.2,8.4-0.1,17.2-2.9,25.2c-0.6,1.8,2.3,2.6,2.9,0.8
					c3-8.6,3.2-18.3,2.9-27.4c-0.3-8.3-0.9-17.3-4.4-24.9C126.6,122.3,124.1,123.8,124.8,125.6L124.8,125.6z"/>
			</g>
		</g>
		<g>
			<g>
				<path class="st2" d="M104.4,112.2c-2.7,2.8-4.7,6-5.8,9.7c-1.4,5.2-0.1,11.3-2.9,16c-2.5,4.3-6.8,7.1-9.2,11.5
					c-2.1,3.9-3,8.2-2.9,12.6c0.1,3.2,1,6.6,0.1,9.8c-0.8,3.1-3.2,5.5-5.3,7.7c-2.9,3.1-5.4,6.2-7.1,10.2c-3.2,8-2.4,16.9,1.7,24.4
					c0.7,1.3,2.8,0.7,2.8-0.8c0-4.6,2.6-9.7,4.6-13.6c2.3-4.7,5.1-10.1,9.3-13.4c1.5-1.2,0-3.8-1.5-2.6c-4.7,3.6-7.8,9.2-10.4,14.4
					c-2.2,4.5-5,10-5,15.1c0.9-0.3,1.9-0.5,2.8-0.8c-4.9-8.8-4.3-19.8,2-27.7c2.5-3.1,5.7-5.7,7.7-9.2c2.1-3.7,1.7-7.6,1.4-11.7
					c-0.4-5.6,0.5-10.8,4-15.4c2.3-3.1,5.6-5.6,7.6-9c1.9-3.2,2-6.6,2.2-10.3c0.4-5.8,1.9-10.6,6-14.9
					C107.8,112.9,105.7,110.8,104.4,112.2L104.4,112.2z"/>
			</g>
		</g>
		<g>
			<g>
				<path class="st2" d="M76.3,152.3c1.1,5.8,0.6,12-2.6,17.1c-2.6,4.1-7.1,6.3-10.4,9.8c-6.1,6.6-7.1,15.9-3.5,23.9
					c0.8,1.8,3.4,0.2,2.6-1.5c-2.6-5.7-2.3-12.3,1-17.7c2.8-4.6,8-6.9,11.4-10.9c5-6,5.8-14.1,4.4-21.5
					C78.9,149.6,76,150.4,76.3,152.3L76.3,152.3z"/>
			</g>
		</g>
		<g>
			<g>
				<path class="st2" d="M74.1,186.3c-7,0.3-14.3,8.4-14.1,15.5c0,1.9,3,1.9,3,0c-0.1-5.4,5.7-12.3,11.1-12.5
					C76,189.2,76,186.2,74.1,186.3L74.1,186.3z"/>
			</g>
		</g>
		<g>
			<g>
				<path class="st2" d="M96.3,105.1c-8.2,5.1-8.8,18.6-10.9,27c-3.5,14.2-10.1,26.7-26.2,28.2c0.4,0.9,0.7,1.7,1.1,2.6
					c8.5-7.3,18-17.5,19.4-29.1c1.7-13-3.7-28.5,8.8-37.7c1.5-1.1,0-3.7-1.5-2.6c-9.9,7.3-10.4,18.4-10.1,29.8
					c0.3,7.7-0.2,14.3-4.4,21c-4,6.2-8.8,11.7-14.4,16.5c-1,0.8-0.2,2.7,1.1,2.6c14.2-1.2,22.7-10.2,27.1-23.3
					c2-6.1,3.2-12.5,4.7-18.7c1.2-4.7,2.5-10.9,6.9-13.6C99.5,106.7,98,104.1,96.3,105.1L96.3,105.1z"/>
			</g>
		</g>
		<g>
			<g>
				<path class="st2" d="M61,160.2c-8,10.2-14.7,28.3-6.5,40.2c0.8,1.1,2.3,0.9,2.7-0.4c0.7-1.1,1.4-2.3,2.1-3.4
					c1.2-1.5-0.9-3.6-2.1-2.1c-1.3,1.5-2.1,2.9-2.8,4.8c0.9-0.1,1.8-0.2,2.7-0.4c-7.4-10.7-1.2-27.4,6-36.6
					C64.3,160.9,62.2,158.7,61,160.2L61,160.2z"/>
			</g>
		</g>
		<g>
			<g>
				<path class="st2" d="M82.6,86.5c-7.1,5.9-11.2,13.9-12,23.1c-1,11.3,2.4,24.1-5.9,33.4c-6.1,6.9-14.4,10.9-17.9,19.9
					c-3.5,9.1-2.1,19.3,1.2,28.2c0.5,1.2,2,1.5,2.7,0.4c0.7-1,1.4-2,2-3c1.1-1.6-1.5-3.1-2.6-1.5c-0.7,1-1.4,2-2,3
					c0.9,0.1,1.8,0.2,2.7,0.4c-3.5-9.3-5.1-20.6,0.2-29.6c4.7-7.9,13.9-11.6,18.6-19.5c4.4-7.3,3.7-16.2,3.7-24.4
					c-0.1-11.1,2.4-20.8,11.3-28.1C86.2,87.4,84.1,85.3,82.6,86.5L82.6,86.5z"/>
			</g>
		</g>
		<g>
			<g>
				<path class="st2" d="M78.4,81.7c-7,5.2-12,12-14.5,20.4c-3,10.2-1.7,21.1-4.7,31.2c-3,10.4-14.9,15.5-19.3,25.2
					c-3.8,8.5-0.8,18,2.2,26.2c0.5,1.5,3.2,1.4,2.9-0.4c-0.3-2,0.2-3.9,1.4-5.6c1.1-1.6-1.5-3.1-2.6-1.5c-1.6,2.2-2.2,4.3-1.8,7.1
					c1-0.1,2-0.3,2.9-0.4c-3.6-10-6.5-20.4,1.1-29.3c5.1-6,12.9-11.5,15.6-19.1c2.9-8.2,2.2-17.5,3.6-26
					c1.7-10.2,6.2-19.1,14.6-25.3C81.4,83.1,79.9,80.5,78.4,81.7L78.4,81.7z"/>
			</g>
		</g>
		<g>
			<g>
				<path class="st2" d="M46.7,152.7c3.2-5.2,6.9-10.3,9.4-15.9c2.5-5.6,2.6-11.4,2.1-17.4c-1.2-14.2-3.4-30.4,9.7-40
					c1.5-1.1,0.1-3.7-1.5-2.6C56,84.4,53.6,96.3,54.3,108.6c0.4,7.4,2.3,15.1,0.6,22.5c-1.6,7.3-6.9,13.8-10.8,20.1
					C43.1,152.8,45.7,154.3,46.7,152.7L46.7,152.7z"/>
			</g>
		</g>
		<g>
			<g>
				<path class="st2" d="M71.6,79.1c-5.8,6.1-9.2,15.6-8.2,24c0.2,1.9,3.2,1.9,3,0c-0.9-7.7,2-16.4,7.3-21.9
					C75,79.8,72.9,77.7,71.6,79.1L71.6,79.1z"/>
			</g>
		</g>
		<g>
			<g>
				<path class="st2" d="M53.8,100.4c-1.9,15.1-10.2,27-16.3,40.5c-4.7,10.5-9.2,26.6-1.7,36.9c0.8,1.1,2.8,0.8,2.8-0.8
					c0-2.9,0.8-5,2.8-7.2c1.3-1.4-0.8-3.5-2.1-2.1c-2.5,2.7-3.7,5.6-3.7,9.3c0.9-0.3,1.9-0.5,2.8-0.8c-8.5-11.7-0.6-29.8,5.2-40.9
					c5.9-11.3,11.6-22.1,13.2-35C57.1,98.5,54.1,98.5,53.8,100.4L53.8,100.4z"/>
			</g>
		</g>
		<g>
			<g>
				<path class="st2" d="M36.7,143.6c-3.8,2.8-12,9.1-11.9,14.4c1-0.1,2-0.3,2.9-0.4c-1.9-5.3-1.7-10.2-0.2-15.5
					c1.1-3.7,2.4-7.4,2.5-11.4c0.1-5.6-3.5-10.1-1.2-15.7c2.5-6,7.9-8.8,13.3-11.8c7.2-4,11.1-8,13.7-15.7c2.7-8,4.8-16.8,5-25.3
					c0-1.9-3-1.9-3,0c-0.2,8.9-2.5,18.3-5.6,26.6c-3.7,9.9-13.9,11.4-21.1,18c-3.3,3-6,7.4-6.3,12c-0.3,4.9,2.7,9,2.1,14
					c-0.6,4.3-2.4,8.2-3.2,12.4c-0.9,4.5-0.4,8.9,1.1,13.2c0.5,1.5,3,1.4,2.9-0.4c-0.1-3.8,7.6-9.7,10.4-11.8
					C39.8,145,38.3,142.4,36.7,143.6L36.7,143.6z"/>
			</g>
		</g>
		<g>
			<g>
				<path class="st2" d="M47.8,39.8c-0.1,13.1-0.7,27-7.9,38.4c-3.2,5-7.2,9.2-9.4,14.9c-2.1,5.5-2.7,11.4-2.9,17.2
					c-0.1,2,2.8,1.9,3,0c0.1-0.5,0.1-1.1,0.2-1.6c0.3-1.9-2.8-1.9-3,0c-0.1,0.5-0.1,1.1-0.2,1.6c1,0,2,0,3,0
					c0.2-6.8,1-13.7,4.3-19.7c3.2-5.8,7.9-10.5,10.6-16.6c4.7-10.7,5.1-22.6,5.2-34.1C50.8,37.9,47.8,37.9,47.8,39.8L47.8,39.8z"/>
			</g>
		</g>
		<g>
			<g>
				<path class="st2" d="M35.2,88.9c5.1-9.1,9-19.6,9.4-30.1c0.2-5.1-2.2-9.7-2.4-14.6c-0.2-5.8,4.4-11.3,5.4-17c-1,0-1.9,0-2.9,0
					c2.5,8,4.8,15.7,5.3,24.1c1.2,18.1-4.1,35.6-12.8,51.4c-0.9,1.7,1.7,3.2,2.6,1.5C48.6,88.4,54,70.7,53.1,52.4
					c-0.5-9.1-2.8-17.5-5.5-26.1c-0.4-1.3-2.6-1.5-2.9,0c-0.9,5.1-4,9.4-5.2,14.4C38.5,45,40,49,40.9,53c2.5,11.3-2.8,24.6-8.3,34.3
					C31.6,89.1,34.2,90.6,35.2,88.9L35.2,88.9z"/>
			</g>
		</g>
		<g>
			<g>
				<path class="st2" d="M139.6,226.8c-3.6,8.3,0.5,17.1,9.4,19.2c0.9,0.2,2-0.4,1.9-1.4c-0.5-5.4,1.5-9.3,5.7-12.6
					c2.2-1.7,4.4-3.1,6.1-5.4c3.3-4.4,4.4-10.2,4.4-15.6c-0.1-6.9-2.2-13.6-3.4-20.4c-1.6-9.5-0.2-18.6,4.8-26.9
					c1-1.7-1.6-3.2-2.6-1.5c-4,6.6-6.2,14.1-6,21.8c0.3,8.2,3.3,15.9,4,24c0.3,3.7,0.2,7.6-0.8,11.1c-1.5,4.8-4.2,7.3-8,10.3
					c-5,3.9-7.8,8.6-7.2,15.2c0.6-0.5,1.3-1,1.9-1.4c-6.9-1.6-10.5-8.2-7.6-14.8C143,226.6,140.4,225.1,139.6,226.8L139.6,226.8z"/>
			</g>
		</g>
		<g>
			<g>
				<path class="st2" d="M78.2,203.2c3-0.1,4.2,2.9,4.4,5.4c0.1,0.9,0.2,2.5-0.1,3.4c-0.2,0.6-0.6,0.8-0.9,1.4
					c-0.9,1.7,1.7,3.2,2.6,1.5c0.5-1.1,1.2-1.5,1.3-2.9c0.2-2.1,0.2-4.3-0.3-6.3c-0.9-3.1-3.5-5.7-6.9-5.5
					C76.3,200.3,76.3,203.3,78.2,203.2L78.2,203.2z"/>
			</g>
		</g>
		<g>
			<g>
				<path class="st2" d="M104.6,230.4c0.3-4.2,1.8-9.6,6.1-11.2c1.8-0.7,1-3.6-0.8-2.9c-5.7,2.2-7.9,8.4-8.3,14.1
					C101.5,232.3,104.5,232.3,104.6,230.4L104.6,230.4z"/>
			</g>
		</g>
		<g>
			<g>
				<path class="st2" d="M52.2,63c2.4-0.2,4.8-0.3,7.2-0.2c1.9,0.1,1.9-2.9,0-3c-2.4-0.1-4.8,0-7.2,0.2C50.3,60.2,50.3,63.2,52.2,63
					L52.2,63z"/>
			</g>
		</g>
		<g>
			<g>
				<path class="st2" d="M29.8,134.7c1.9-4,4.9-8.1,8.2-11c2.8-2.5,6.4-3.9,9.4-6.3c4.8-3.8,8-8.8,8.2-15.1c0.1-1.9-2.9-1.9-3,0
					c-0.2,9.1-7.5,12.7-14.1,17.2c-4.7,3.2-8.9,8.5-11.3,13.6C26.4,134.9,29,136.4,29.8,134.7L29.8,134.7z"/>
			</g>
		</g>
		<g>
			<g>
				<path class="st2" d="M127.2,124.5c2.1-5.4,4.1-8.5,9.8-10.6c3.9-1.4,7.9-2.5,11.9-3.6c8.3-2.2,16.5-3.3,24.9-1.4
					c5.1,1.2,10.1,2.4,15.2,3.7c2.4,0.6,5,1.2,7.2,2.4c4.2,2.2,5.9,6.8,7.8,10.9c0.8,1.8,3.4,0.2,2.6-1.5c-1.7-3.7-3.3-7.8-6.5-10.4
					c-2.5-2.1-5.8-3-8.9-3.9c-6-1.7-12.1-3.3-18.2-4.5c-10.2-2.1-20.4,0.3-30.2,3.3c-4.3,1.3-9.2,2.4-12.8,5.2
					c-3.2,2.5-4.3,5.8-5.6,9.5C123.6,125.5,126.5,126.3,127.2,124.5L127.2,124.5z"/>
			</g>
		</g>
		<g>
			<g>
				<path class="st2" d="M125.3,125.8c5.7,2,12.1,5.8,18.1,3.6c4.7-1.7,7.6-2.1,12.5-1.2c3,0.5,5.9,1.4,9,1.5
					c7.6,0.3,14.3-2.8,21.9-0.3c6.3,2,12.6-0.3,18.9-1.8c1.9-0.4,1.1-3.3-0.8-2.9c-3.6,0.8-7.1,1.7-10.7,2.4
					c-4,0.7-6.8-1.1-10.5-1.7c-6.3-1-12.4,1.6-18.7,1.4c-5.8-0.2-11.5-3-17.3-1.9c-4,0.8-6.7,2.7-11.1,1.7c-3.5-0.8-7-2.4-10.3-3.6
					C124.3,122.2,123.5,125.1,125.3,125.8L125.3,125.8z"/>
			</g>
		</g>
		<g>
			<g>
				<path class="st2" d="M119.8,108.1c14.9-3.8,28.5-13.4,44.1-14.2c7.9-0.4,16.7,2.4,23.8,5.6c4.2,1.9,8,4.4,12.2,6.3
					c3.5,1.6,7.5,0.8,10.8,2.3c1.7,0.8,3.3-1.8,1.5-2.6c-3.8-1.7-7.8-0.9-11.6-2.7c-4.4-2.1-8.5-4.7-13-6.6c-7-3-15.4-5.6-23.1-5.4
					c-16.2,0.5-30.2,10.4-45.6,14.4C117.1,105.7,117.9,108.5,119.8,108.1L119.8,108.1z"/>
			</g>
		</g>
		<g>
			<g>
				<path class="st2" d="M105.7,114c2.3,1.4,4.8,1.2,7.4,1c1.9-0.1,1.9-3.1,0-3c-2,0.1-4.1,0.5-5.8-0.6
					C105.6,110.4,104.1,113,105.7,114L105.7,114z"/>
			</g>
		</g>
		<g>
			<g>
				<path class="st2" d="M93.2,105.3c3.8,2.2,7.7,4.2,10.7,7.5c1.3,1.4,3.4-0.7,2.1-2.1c-3.2-3.5-7.3-5.6-11.3-7.9
					C93.1,101.8,91.6,104.4,93.2,105.3L93.2,105.3z"/>
			</g>
		</g>
		<g>
			<g>
				<path class="st2" d="M94.3,102.4c-3.2-3.9-3.9-8.4-6.1-12.7c-1.5-3-3.9-5.4-6.6-7.3c-6.4-4.5-17.4-5.6-21.5-12.6
					c-1-1.7-3.6-0.2-2.6,1.5c3.9,6.6,12.3,8,18.6,11.3c4.9,2.6,8.7,5.9,10.6,11.2c1.4,4,2.9,7.4,5.5,10.7
					C93.4,106.1,95.5,103.9,94.3,102.4L94.3,102.4z"/>
			</g>
		</g>
		<g>
			<g>
				<path class="st2" d="M215.9,114.7c2.9-0.3,6,0.8,8.7-0.6c1.7-0.9,0.2-3.5-1.5-2.6c-2,1.1-4.9,0-7.1,0.2
					C214,111.9,214,114.9,215.9,114.7L215.9,114.7z"/>
			</g>
		</g>
		<g>
			<g>
				<path class="st2" d="M224.2,114.2c4.9-1.4,9.6-5.5,12.5-9.6c4.4-6.4,7.9-13,14.1-18c2.7-2.2,5.9-3.8,8.2-6.4
					c1.2-1.3,2.1-2.9,3.2-4.4c2.7-3.8,5.5-7.5,8.2-11.3c1.1-1.6-1.5-3.1-2.6-1.5c-2.3,3.3-4.7,6.5-7.1,9.7c-1,1.3-1.9,2.7-2.9,4.1
					c-2.2,2.9-5,4.5-7.8,6.7c-5.2,4-9.3,9.2-12.8,14.7c-3.4,5.4-7.1,11.3-13.7,13.1C221.5,111.8,222.3,114.7,224.2,114.2
					L224.2,114.2z"/>
			</g>
		</g>
		<g>
			<g>
				<path class="st2" d="M164.9,93.2c0.1,4.4-0.7,8.5-2.2,12.6c-0.7,1.8,2.2,2.6,2.9,0.8c1.6-4.3,2.4-8.8,2.3-13.4
					C167.8,91.2,164.8,91.2,164.9,93.2L164.9,93.2z"/>
			</g>
		</g>
		<g>
			<g>
				<path class="st2" d="M161.4,92c-1.4,4.9-3,9.8-6.6,13.5c-1.3,1.4,0.8,3.5,2.1,2.1c4-4.1,5.8-9.5,7.4-14.8
					C164.8,91,161.9,90.2,161.4,92L161.4,92z"/>
			</g>
		</g>
		<g>
			<g>
				<path class="st2" d="M151.9,94.9c0.3,2.1,0.6,4.2,0.6,6.4c0,0.9,0.5,4.8-0.1,5.5c-1.3,1.4,0.8,3.5,2.1,2.1c1.4-1.5,1-4.3,1-6.2
					c0-2.9-0.3-5.8-0.8-8.6C154.4,92.2,151.5,93,151.9,94.9L151.9,94.9z"/>
			</g>
		</g>
		<g>
			<g>
				<path class="st2" d="M146.7,95.7c0.3,2.4,0.1,4.7-0.3,7.1c-0.3,2.1-1.1,3.7-1.9,5.6c0.5-0.4,1-0.7,1.4-1.1c-0.1,0-0.1,0-0.2,0
					c0.4,0.2,0.9,0.5,1.3,0.7c0-0.1-0.1-0.1-0.1-0.2c-0.9-1.7-3.4-0.2-2.6,1.5c0,0.1,0.1,0.1,0.1,0.2c0.2,0.5,0.8,0.7,1.3,0.7
					c0.1,0,0.1,0,0.2,0c0.7,0,1.2-0.5,1.4-1.1c1-2.3,1.7-4,2.1-6.5c0.3-2.3,0.5-4.6,0.3-6.9C149.5,93.8,146.5,93.8,146.7,95.7
					L146.7,95.7z"/>
			</g>
		</g>
		<g>
			<g>
				<path class="st2" d="M140.6,99.1c0.7,3.3,1.6,8,0.3,11.2c-0.7,1.8,2.2,2.6,2.9,0.8c1.6-3.8,0.5-9-0.3-12.8
					C143.1,96.4,140.2,97.2,140.6,99.1L140.6,99.1z"/>
			</g>
		</g>
		<g>
			<g>
				<path class="st2" d="M135.7,100.3c0.1,3.5,0.7,7.9-1.3,11c-1,1.6,1.6,3.1,2.6,1.5c2.3-3.6,1.8-8.4,1.7-12.5
					C138.6,98.4,135.6,98.4,135.7,100.3L135.7,100.3z"/>
			</g>
		</g>
		<g>
			<g>
				<path class="st2" d="M129.3,104.3c0.3,1.6,0.7,3.3,0.9,4.9c0.1,1,0.2,1.9,0.3,2.9c0,0.5-0.4,2,0.4,1.5c-1.7,0.9-0.2,3.5,1.5,2.6
					c1.6-0.8,1.1-3.5,1-4.9c-0.2-2.6-0.7-5.2-1.3-7.8C131.7,101.6,128.9,102.4,129.3,104.3L129.3,104.3z"/>
			</g>
		</g>
		<g>
			<g>
				<path class="st2" d="M119.1,109.6c3.1,2,5.4,5,6.6,8.5c0.6,1.8,3.5,1,2.9-0.8c-1.5-4.3-4.2-7.8-8-10.3
					C119,106,117.5,108.6,119.1,109.6L119.1,109.6z"/>
			</g>
		</g>
		<g>
			<g>
				<path class="st2" d="M170.7,94.1c0.5,3.3,1.3,7.9-0.1,11.1c-0.8,1.8,1.8,3.3,2.6,1.5c1.8-4.1,1-9,0.4-13.4
					C173.4,91.4,170.5,92.2,170.7,94.1L170.7,94.1z"/>
			</g>
		</g>
		<g>
			<g>
				<path class="st2" d="M179.1,96.2c0.3,3.5-0.5,6.8-2.2,9.8c-1,1.7,1.6,3.2,2.6,1.5c2-3.5,2.9-7.3,2.6-11.3
					C181.9,94.3,178.9,94.3,179.1,96.2L179.1,96.2z"/>
			</g>
		</g>
		<g>
			<g>
				<path class="st2" d="M185.2,99.1c-0.4,2.8-0.8,5.7-2.6,7.9c-1.2,1.5,0.9,3.6,2.1,2.1c2.2-2.7,2.9-5.9,3.4-9.3
					C188.4,98,185.5,97.2,185.2,99.1L185.2,99.1z"/>
			</g>
		</g>
		<g>
			<g>
				<path class="st2" d="M189.9,100.3c0.7,1.3,0.4,3.4,0.3,4.8c0,1.5-0.1,3-0.8,4.4c-0.9,1.7,1.7,3.2,2.6,1.5c1-1.9,1.2-3.8,1.3-5.9
					c0-2.1,0.2-4.4-0.7-6.3C191.6,97.1,189,98.6,189.9,100.3L189.9,100.3z"/>
			</g>
		</g>
		<g>
			<g>
				<path class="st2" d="M196.5,103.3c0.1,1.3-0.7,2.8-1.2,4.1c-0.5,1.3-1.1,2.6-1.9,3.8c-1,1.6,1.6,3.1,2.6,1.5
					c0.9-1.4,1.6-2.9,2.2-4.5c0.6-1.5,1.4-3.2,1.3-4.9C199.4,101.4,196.4,101.4,196.5,103.3L196.5,103.3z"/>
			</g>
		</g>
		<g>
			<g>
				<path class="st2" d="M204.1,106.1c-0.9,3-2.5,5.6-4.7,7.8c-1.4,1.3,0.7,3.5,2.1,2.1c2.6-2.5,4.5-5.6,5.5-9.1
					C207.6,105,204.7,104.2,204.1,106.1L204.1,106.1z"/>
			</g>
		</g>
		<g>
			<g>
				<path class="st2" d="M207.3,107.6c-0.5,2-1.2,4-2.1,5.8c-0.4,0.8-0.8,1.6-1.3,2.4c-0.3,0.5-1.8,2-0.8,2c-1.9,0-1.9,3,0,3
					c2,0,3.2-3.1,4-4.5c1.4-2.5,2.4-5.2,3.1-7.9C210.7,106.5,207.8,105.7,207.3,107.6L207.3,107.6z"/>
			</g>
		</g>
		<g>
			<g>
				<path class="st2" d="M222.8,221.4c3.4,1.6,3.7,5.5,3.6,8.8c0,1.9,3,1.9,3,0c0-4.4-0.8-9.3-5.1-11.4
					C222.6,217.9,221,220.5,222.8,221.4L222.8,221.4z"/>
			</g>
		</g>
		<g>
			<g>
				<path class="st2" d="M243.5,217c-1-5.1,0.6-8.7,3.3-13c1-1.6-1.6-3.1-2.6-1.5c-3.2,5.1-4.8,9.4-3.6,15.3
					C240.9,219.7,243.8,218.9,243.5,217L243.5,217z"/>
			</g>
		</g>
		<g>
			<g>
				<path class="st2" d="M176.1,227.4c0.6,3.9-0.7,8.1-3.9,10.5c-3.4,2.5-8,2.3-11.9,1c-0.1,1-0.3,2-0.4,2.9c8-0.1,11.1-15.2,4-18.6
					c-1.7-0.8-3.3,1.8-1.5,2.6c4.3,2,2.6,12.9-2.5,13c-1.7,0-2,2.4-0.4,2.9c4.9,1.7,11,1.6,15.1-1.9c3.8-3.3,5.2-8.4,4.4-13.3
					C178.7,224.7,175.8,225.5,176.1,227.4L176.1,227.4z"/>
			</g>
		</g>
		<g>
			<g>
				<path class="st2" d="M293.3,127c0.2,4.5,1.5,9.5,5.4,12.3c3.6,2.5,8.2,2,11-1.4c0.8-1,0.3-2.5-1.1-2.6c-8.1-0.4-6.1-15.6-6-21.2
					c0.1-6.6-0.2-13.3-2.3-19.6c-2.9-8.6-9.8-15.2-14.2-23c-4.9-8.6-7.1-17.7-7.3-27.5c0-1.9-3-1.9-3,0c0.2,9.5,2.2,18.6,6.6,27
					c5.4,10.2,14.3,18.1,16.4,29.8c1.2,6.9,0.8,14,0.7,21c-0.1,6.3,0.9,16,9.1,16.4c-0.4-0.9-0.7-1.7-1.1-2.6
					c-6.1,7.4-11.2-3.7-11.3-8.7C296.2,125.1,293.2,125.1,293.3,127L293.3,127z"/>
			</g>
		</g>
		<g>
			<g>
				<path class="st2" d="M272.3,55.8c0.5,10.5,3.1,20.8,9,29.6c3.2,4.7,6.3,9,8.3,14.4c2.1,5.9,2.7,12,2.2,18.2
					c-0.2,1.9,2.8,1.9,3,0c0.8-10.2-1.5-20.4-7.2-28.9c-3-4.6-6.2-8.8-8.3-14c-2.5-6.2-3.7-12.7-4-19.3
					C275.2,53.9,272.2,53.9,272.3,55.8L272.3,55.8z"/>
			</g>
		</g>
		<g>
			<g>
				<path class="st2" d="M270.5,64.2c3-5,6.5-10.3,8-15.9c0.5-1.9-2.4-2.7-2.9-0.8c-1.5,5.3-4.9,10.5-7.7,15.2
					C266.9,64.4,269.5,65.9,270.5,64.2L270.5,64.2z"/>
			</g>
		</g>
		<g>
			<g>
				<path class="st2" d="M300,140.1c0.1,2.4-0.3,4.8-1.1,7.1c-0.6,1.8,2.3,2.6,2.9,0.8c0.8-2.6,1.2-5.2,1.2-7.9
					C302.9,138.2,299.9,138.1,300,140.1L300,140.1z"/>
			</g>
		</g>
	</g>
</g>
</svg>
