<?xml version="1.0" encoding="utf-8"?>
<!-- Generator: Adobe Illustrator 19.2.0, SVG Export Plug-In . SVG Version: 6.00 Build 0)  -->
<svg version="1.1" id="Layer_1" xmlns="http://www.w3.org/2000/svg" xmlns:xlink="http://www.w3.org/1999/xlink" x="0px" y="0px"
	 viewBox="0 0 358 342.5" style="enable-background:new 0 0 358 342.5;" xml:space="preserve">
<style type="text/css">
	.st0{fill:#4F5559;}
	.st1{fill:#2E3438;}
	.st2{fill:#1A1E21;}
</style>
<g>
	<path class="st0" d="M103,231.9l-9.2,16.7l-7.5,9l7.5,4.4l-7.1,15.3l7.6,4.9l-4.9,8l3.1,5.9l-10.7,15.8l-3.4-7.1l-5.5,2.1
		l-0.6-14.6l-7.6,3.3l0.1-18.6l-13.1,8.9l3.3-22.8l-6.6,1.4l8.6-27l-8.6,5.9l-14.8,7.4l7.1-17.8l7.8-10.4l-20.5,1.7l-11-0.5l8.7-8.2
		l16.7-14.4l-5.8-0.8l-14.8-2.3l-14.2-7.6l-5.4-6.9l8.9,0.2l12.2-3.5l6.7-3l3.5-5.7l5.9-12l10.3-12.7l9.8-8.6l-5.6-0.7l-10.9,4
		l-11,7.9l-8.7,9.9l2.5-9.9l5.6-11.9l8.8-11.6l10.4-9.3l10.2-6.3l9.6-3.8l13-3.4l-10-5l-8.5-6.3l-5.6-10.9L56.9,69l1.1-3.2l6.7,10.4
		l11,7.4l4.7,1.7l-5-7.2l-1.8-9l3.5-11.8l3.6,8.2l8.2,5.9l9,2.3c0,0,10.7-0.3,11.7-0.5c1-0.2,7-2.7,7-2.7l-4.8-1.5l0.9-16.1l6.4,4.3
		l8.2-1.9l14-8.2l11.2-3.2l13,0.4l10.9,2.5l0.9-9.5l4.9-8.5v9.6l7,7.1l17,8.8l15.9,5.9l-4.1-7.2l-4.8-11.2l0.3-9.7l5-6.3l2.2,8.4
		l7.9,9.9l10.1,6.1l16.8,11.6l10.5,10.2l4.5-6.6l10.5-7.9l12-1.9l4.5,0.3l-7.9,7.4l-8.6,12.2l-5.3,13.1l8-6.9l7.9-4.6l9.1-1.6
		l12.2,2.1c0,0,7.2,3.3,8.2,4c1.1,0.7,5.5,4.6,5.5,4.6l-11.9-0.6l-5.4,3.4c0,0,6,2.2,6.9,2.5c0.9,0.3,8.9,4.1,8.9,4.1l4.3,6.3
		l1.6,5.4l-7.3-2.4c0,0-4.4,2-5.1,2.4c-0.7,0.4-5.9,4-5.9,4l9.5-0.7l8.7,2.6l7.1,4.1l5.1,6.5l2.4,6.1l1.7,3.9l5.5,5l0,5.6l-6.9-2
		l-12.1,1.1l1.9,5.6l2.3,4.9l5.8,4.6l11.7,3.2l-9.8,3.9c0,0-12.3,4.9-11,4.4s6.8,3,6.8,3l7.7,4.7l-3.6,1.7l-10.1,0l-2,1
		c0,0,4.6,2.4,6.1,3.6c1.5,1.2,7.5,6.9,7.5,6.9l5.5,6.7l-5.5,0.4l-13.6-1.8l0.7,2.2l7.3,5.7l4.2,6.8l0.1,1.8l-7.8-1l-7.1-1.6
		l2.7,5.8l6.1,7.5l6,5.4l-8.1,0l1.9,3.3l2.3,5.6l0.1,4.3l-4.9,1.1l1,8.9l-9.3-4.1l-15.5,66.1l-6-18.6l2.4-11.3l-1.2-9l1.2-5.8
		l-5.9-27.4l4.7-9.9l-2.9-8.7l5.6-4l-3.2-4.2l-6.1-5.9l-7.8-15.1l10.4-4.2l-4.5-3.7l-10.4-5.7l-6-6.3l4.3-4.1l-6.2-4.2l-7.2,3.8
		l-8.6,2.4l-10.5-3.6l-7.4,2.4l-9.4,0.7l-4.1-1.6l-5.8-2.5l-10.4-2.7l-11.3-0.8l-14.7,3.5l-19.3,9.9l-21.8,14.4l-16.2,12.3
		l-25.7,20.2L103,231.9z"/>
	<g>
		<polygon class="st1" points="81.3,311.2 77.2,305.1 72.9,306.9 72.3,292.2 64.7,295.6 64.8,277.9 51.8,284.4 56.5,263.4 
			79.4,249.5 86.9,243.9 101.5,232.2 98.8,239.9 86.3,257.2 93.7,262 86.2,275.8 94.2,282.2 89.1,291.5 91.4,294.7 		"/>
		<polygon class="st1" points="58.7,237.8 51.8,241.1 34.8,250.1 36.9,242.5 48.3,220.9 72.3,211.8 86.2,206.5 75.3,216.2 
			62.3,231.9 		"/>
		<path class="st1" d="M233.7,167.6l-9.5-12.9l-7.9-9.2l-15.5-11L184,129c0,0-23.2-0.1-23.4-1.2s-6.7-4.4-6.7-4.4l-21.2-3.5h-14.5
			l-19.5,2L82.5,127l-22,10.8l-7.3,0.2l-9.6,3.4l-9.8,5.5l-10.1,10.7l2.8-10.2l5.3-10.4l9.2-11.8l13.2-12l16.1-6.4l13.8-3.1
			l10.3,3.1l19.1,3.3l23.3,1.2l14.8,1.7l22,1.6l20.1,2.2l15.1,4.5l11.8,5.7l8.3,7.3l5,8.7l2.2,15.4L233.7,167.6z"/>
		<path class="st1" d="M197.7,78.4l-6.5-5L181.8,63l-3.5-5.8c0,0-1.5-5.9-1.5-6.4c-0.1-0.5-0.4-4.3-0.4-4.3l-6.1-1.5l-10.7-1.1
			h-10.3l-8.8,3.5l-9.7,5.8L120,55.9l-7.3-3l-0.9,5.5l0.9,8.6l2.6,3.5l-4.9,2.4l-10.2,0.7l-11.3-2.3l-6.4-4L78,63l-1.2-4.8l-3,8.2
			l-0.2,7.2l4.5,10.8l7.2,2.2l16.9,1.9l24.5-0.9l14.8-2.3l14.4-1l26.6-3.1L197.7,78.4z"/>
		<path class="st1" d="M19.5,222.7c37.4-12,76.1-44.4,108.5-58.3c34.9-15,55.7-21.3,73.8-18c9.8,1.8,4.7,2.7,4.7,2.7l-20.9,2.6
			l-31.8,14L110.7,191L76,212.5l-29.8,10.2L26,224.4C26,224.4,17.9,223.2,19.5,222.7z"/>
		<polygon class="st1" points="266.7,69.7 271.7,63.8 279.3,58.6 288.3,55.2 297.1,55.5 290.5,63 280.3,76.5 274.7,93.2 272.2,85.1 
					"/>
		<polygon class="st1" points="280.5,125.5 285.9,113 292.9,102.8 308,89.3 314.1,90.6 323.7,94.7 328.5,100.2 330.9,106.2 
			322.2,104.2 312.5,104.9 299.1,110.8 287.8,120.2 		"/>
		<polygon class="st1" points="297.1,134.4 305.7,130.3 317.1,127 325,125.5 338.2,128.4 345.5,132.4 344.8,127.1 339.5,118.9 
			329.4,112.4 314.3,109.7 306.2,117 299.1,127.5 		"/>
		<polygon class="st1" points="334.1,144 336.4,150.5 340.3,156.6 332.2,156.6 316.9,153.8 319.5,149.7 328.5,142.8 		"/>
		<path class="st1" d="M334.7,169.7c0.9,0.3,7.8,5.7,8.5,5.1c0.7-0.6,6,3.9,6,3.9l-11.6,1.2h-5.3l-13.9-4.6L334.7,169.7z"/>
		<polygon class="st1" points="304.4,191.9 313.7,201.2 322.2,206.5 337,211.7 345.7,211.7 344.1,207.2 332.1,197 320,192.5 
			308,190.5 		"/>
		<polygon class="st1" points="325.4,226.9 337,243.5 341.5,240.9 341.5,236.2 337.5,229.5 		"/>
		<polygon class="st1" points="310.6,232 316.9,238.8 325.4,245.7 328.7,249.2 316.9,298.1 313.2,313.8 307.2,298.9 308.4,283.9 
			307.2,275.2 309.2,267.1 303.6,240.7 309.6,230.7 		"/>
		<path class="st1" d="M32.7,175c0,0,17.8-22.6,51.3-35.6s64.8-14.7,71.5-12.9c6.7,1.8,0.4,2.2,0.4,2.2l-16.6,3.5l-38,12.2l-34,15.9
			l-34.7,17.2V175z"/>
		<path class="st1" d="M50,262.4c0,0,27.1-26.1,44.2-40.5c17-14.3,70-54.8,94.7-61.3c18.3-4.8,30.3-2.7,36.5,2c6.2,4.7,5.4,6,5.4,6
			l-8.7-3.1l-16.9,0.1l-19.6,5.4l-24.7,14l-36,27.1l-15,13.2l-23,18.7l-22.2,16.8L50,264.1V262.4z"/>
		<path class="st1" d="M217,24.7L212.8,35l1.6,10.8c0,0,8.3,12.7,8.8,13.1s6,4,6,4l10.5,4.5l11,6.7l8,7.2l5.6,8.6l2.8,9.4v16.2
			l-2.1,13.9l5.2-8.5l2.3-8.9c0,0,1.4-15.8,1.3-16.3c-0.1-0.5-0.8-13-0.8-13l-8.1-12.4l-8.2-8.2l-7.7-5.1l-12-8.3l-12-9.3L217,24.7z
			"/>
	</g>
	<g>
		<g>
			<path class="st2" d="M236,169.8c-5.7-11.4-14.9-20.6-27.9-22.5c-13.6-1.9-27.3,3.2-39.5,8.7c-33.7,15.3-63.3,38.4-96.9,54
				c-17,7.9-35.9,14.4-54.8,12c0.5,1.1,0.9,2.3,1.4,3.4c14.8-14.8,31.5-28.2,48.5-40.3c27.3-19.4,58.4-37.5,92.1-42.4
				c18.6-2.7,37.6-0.3,53.9,9.6c2.2,1.3,4.2-2.1,2-3.5c-30-18.3-66.2-11.3-96.7,2c-30.2,13.1-57.6,32.5-82.6,53.7
				c-6.8,5.8-13.6,11.7-20,18.1c-1.3,1.3-0.2,3.2,1.4,3.4c15.5,2,31-2,45.3-7.6c16.7-6.6,32.5-15.4,47.9-24.6
				c15.8-9.3,31.2-19.2,47.4-27.8c12.8-6.8,26.9-13.8,41.6-14.9c15.6-1.1,26.7,7.2,33.5,20.8C233.7,174.1,237.2,172.1,236,169.8
				L236,169.8z"/>
		</g>
		<g>
			<path class="st2" d="M235.4,168.9c-24.2-15-52.8-0.6-73.9,13.3C133.7,200.5,110,224,83.5,244c-10.1,7.6-22.2,17.1-35.2,18.5
				c0.6,0.8,1.3,1.7,1.9,2.5c4.7-18.3,13.4-35,27.3-48c9.7-9.1,21.1-15.5,31.9-22.9c2.1-1.4,0.1-4.9-2-3.5
				C96,198.4,84,205.3,73.9,214.9c-13.9,13.3-22.7,30.4-27.5,49c-0.3,1.1,0.6,2.7,1.9,2.5c10.7-1.1,20.5-7.2,29.2-13.2
				c12.5-8.6,24-18.4,35.6-28.2c13-10.9,25.9-21.9,39.5-31.9c12.2-8.9,25.2-17.6,39.6-22.8c13.7-4.9,28.3-6,41.1,1.9
				C235.5,173.7,237.5,170.3,235.4,168.9L235.4,168.9z"/>
		</g>
		<g>
			<path class="st2" d="M101,231.3c-7.3,17.7-21.4,33.4-37.3,43.9c-2.1,1.4-0.1,4.9,2,3.5c16.9-11.1,31.4-27.6,39.1-46.3
				C105.9,230,102,229,101,231.3L101,231.3z"/>
		</g>
		<g>
			<path class="st2" d="M92.4,260.8c-5.4,11.3-12.6,21.3-21.6,30c-1.9,1.8,1,4.6,2.8,2.8c9.2-8.9,16.6-19.3,22.2-30.8
				C97,260.5,93.6,258.5,92.4,260.8L92.4,260.8z"/>
		</g>
		<g>
			<path class="st2" d="M92,282c-4.5,7.5-9,14.9-14.8,21.3c-1.7,1.9,1.1,4.7,2.8,2.8c6.1-6.7,10.8-14.4,15.4-22.1
				C96.8,281.8,93.3,279.7,92,282L92,282z"/>
		</g>
		<g>
			<path class="st2" d="M90.6,295.3c-4.1,5.1-7.5,10.7-10.6,16.4c-1.2,2.3,2.2,4.3,3.5,2c2.9-5.4,6.1-10.8,10-15.6
				C95.1,296.2,92.3,293.3,90.6,295.3L90.6,295.3z"/>
		</g>
		<g>
			<path class="st2" d="M55,261.8c-3,7.6-4.5,15.9-5.3,24c-0.2,1.5,1.8,2.5,3,1.7c4.7-3.1,9.4-6.3,14.1-9.4c-1-0.6-2-1.2-3-1.7
				c-0.3,6.4-0.7,12.8-1.1,19.2c-0.1,1.4,1.3,2.2,2.5,1.9c3-0.7,6.2-1.8,8.5-3.8c-1.1-0.3-2.2-0.6-3.3-0.9c1.5,4.5,0.7,9.4,0.5,14.1
				c-0.1,1.4,1.3,2.2,2.5,1.9c2-0.4,3.6-1.7,5.5-2.1c-0.8-0.6-1.7-1.3-2.5-1.9c0.4,3.3,2.3,5.6,3.8,8.5c1.2,2.3,4.7,0.3,3.5-2
				c-1.1-2.1-3-4-3.3-6.4c-0.2-1.4-1.1-2.2-2.5-1.9c-2,0.4-3.6,1.7-5.5,2.1c0.8,0.6,1.7,1.3,2.5,1.9c0.2-5,1-10.3-0.7-15.1
				c-0.5-1.5-2.2-1.9-3.3-0.9c-1.8,1.6-4.4,2.3-6.8,2.8c0.8,0.6,1.7,1.3,2.5,1.9c0.4-6.4,0.8-12.8,1.1-19.2c0.1-1.5-1.8-2.6-3-1.7
				c-4.7,3.1-9.4,6.3-14.1,9.4c1,0.6,2,1.2,3,1.7c0.8-7.7,2.3-15.7,5.2-22.9C59.8,260.5,55.9,259.5,55,261.8L55,261.8z"/>
		</g>
		<g>
			<path class="st2" d="M44.2,197c-13,5-33.8-2-40.3-14.4c-0.8,1-1.5,2-2.3,2.9c9.1,2.9,20.4-2.4,28.7-5.8
				c15-6.2,29.5-13.8,44.2-20.8c17.4-8.3,35-16.2,53.4-21.9c16.7-5.2,34.6-8.9,52.2-6.7c20.3,2.6,36.3,14.5,46.6,32
				c1.3,2.2,4.8,0.2,3.5-2c-8.9-15-21.9-26.8-38.9-31.7c-16.3-4.7-33.9-3.1-50.2,0.7c-36.2,8.4-68.9,27-102.4,42.4
				c-7,3.2-14.1,6.4-21.5,8.6c-4.5,1.3-9.8,2.8-14.4,1.3c-1.7-0.6-3,1.5-2.3,2.9c7.3,13.9,30.2,21.9,44.8,16.3
				C47.7,200,46.6,196.1,44.2,197L44.2,197z"/>
		</g>
		<g>
			<path class="st2" d="M31.9,178c9.8-23.3,27.7-41.5,51.7-49.9c18.2-6.4,38.3-7.6,57.2-4.5c7.2,1.2,14.5,2.8,21.1,6
				c2.3,1.1,4.3-2.3,2-3.5c-14.3-6.9-31.9-8.6-47.5-8c-22.5,0.8-44.9,7.6-62.3,22.2c-11.7,9.8-20.2,22.6-26.1,36.7
				C27.1,179.3,30.9,180.3,31.9,178L31.9,178z"/>
		</g>
		<g>
			<path class="st2" d="M61.6,134.9c-17,0.6-32.1,10.6-40.1,25.5c1.2,0.3,2.5,0.7,3.7,1c1.7-16.3,11.4-30.8,23.9-40.9
				c10.8-8.8,25.9-16,40.1-12.7c2.5,0.6,3.6-3.3,1.1-3.9c-15.3-3.6-31.1,3.6-42.9,12.9c-13.9,11-24.3,26.7-26.1,44.6
				c-0.2,2,2.8,2.7,3.7,1c7.3-13.7,21-22.9,36.6-23.5C64.2,138.8,64.2,134.8,61.6,134.9L61.6,134.9z"/>
		</g>
		<g>
			<path class="st2" d="M236.2,171.3c3.1-14.5,2.5-30.4-8.8-41.2c-10.7-10.2-26.4-13.7-40.6-15.8c-18.1-2.7-36.5-3.1-54.7-4.4
				c-16.7-1.2-34.4-2.5-50-9c-7-2.9-13.7-7.3-18-13.7C59.5,80,58.5,71.4,59.1,63c-1.3,0.2-2.6,0.4-3.9,0.5
				C60.3,79.4,74,87.4,89.9,90c20.1,3.2,40.9,0.4,60.9-1.8c21.4-2.4,43.2-5.5,64.7-3.3c20.3,2,44,12.8,44.3,36.2
				c0.1,10.9-4.3,21.6-9.7,30.9c-3.6,6.2-7.9,12.7-13.3,17.6c-1.9,1.7,0.9,4.5,2.8,2.8c11.1-9.9,19.8-26,23-40.3
				c2-9.2,1.6-19-3-27.4c-5.1-9.3-14.5-15.8-24.2-19.5c-18.8-7.1-40.4-5.4-60-3.6c-22.4,2-44.8,5.8-67.4,5.7
				C88.6,87.2,65.8,83.6,59,62.4c-0.7-2.2-3.8-1.7-3.9,0.5c-1,14.5,3.6,27.8,15.8,36.3c12.6,8.8,29,11.3,43.9,13.1
				c18.4,2.2,37,2.5,55.5,4.1c15.7,1.4,32.8,3.1,46.8,11c16.1,9.1,19,25.8,15.3,42.8C231.9,172.8,235.7,173.8,236.2,171.3
				L236.2,171.3z"/>
		</g>
		<g>
			<path class="st2" d="M242.6,169c10.8-11.6,19.1-25.8,23.8-41c4.2-13.8,5.5-30-2.3-42.8c-13.7-22.2-43.3-25.9-65-36.4
				c-4.8-2.3-10-5.2-12.9-9.8c-3.2-5-2.3-10.7-0.4-16c0.8-2.3-2.4-3.2-3.7-1.5c-14.9,20.7-6.7,50.8,17.5,59.6c2.4,0.9,3.5-3,1.1-3.9
				c-22-8-28.4-35.4-15.1-53.8c-1.2-0.5-2.4-1-3.7-1.5c-3.2,8.7-2.3,17.4,4.9,23.8c7.8,6.9,18.5,10.1,28,13.6
				c12,4.4,24.5,8.7,34.9,16.5c13.4,10,17.9,24.6,15.2,40.8c-3,18.3-12.6,35.9-25.2,49.4C238,168.1,240.8,170.9,242.6,169L242.6,169
				z"/>
		</g>
		<g>
			<path class="st2" d="M179.1,55.8c-14.3-8.6-31.5-3.3-45.1,4.2c-8.5,4.7-17.1,10.1-26.9,11.6c-9.1,1.4-29.4-2-27.2-15.2
				c0.4-2.3-2.3-3.4-3.7-1.5c-7.2,9.5-6,23.6,2.6,31.8c1.9,1.8,4.7-1.1,2.8-2.8c-7.5-7-8.2-18.9-2-26.9c-1.2-0.5-2.4-1-3.7-1.5
				c-1.4,8.2,4.5,14.7,11.8,17.8c9.4,4.1,19.9,3.5,29.3-0.1c18.7-7.1,39.1-26.2,59.9-13.7C179.3,60.6,181.3,57.2,179.1,55.8
				L179.1,55.8z"/>
		</g>
		<g>
			<path class="st2" d="M228.4,59.7c-11.5-8.2-19-23.8-8.2-35.7c-1.1-0.6-2.2-1.3-3.3-1.9c-1.9,9.6,3.9,16.9,11,22.6
				c9.5,7.6,20.5,13.2,29.7,21.2c10.1,8.8,14.3,19.9,14.2,33.3c-0.1,15.3-5.2,30.8-15.1,42.5c-1.7,2,1.2,4.8,2.8,2.8
				c15.7-18.5,24.1-52.6,8.3-73.7c-7.3-9.8-18.3-16.1-28.3-22.7c-8.2-5.5-21-13.3-18.7-25c0.4-1.8-1.9-3.5-3.3-1.9
				c-12.7,13.9-4.7,32.2,9,41.9C228.5,64.6,230.5,61.2,228.4,59.7L228.4,59.7z"/>
		</g>
		<g>
			<path class="st2" d="M267.6,72c6.4-10.3,17.8-16,29.8-14.5c-0.5-1.1-0.9-2.3-1.4-3.4c-11.6,10.4-19.3,22.3-23.5,37.5
				c-0.7,2.5,3.2,3.5,3.9,1.1c4-14.6,11.4-25.7,22.5-35.7c1.4-1.3,0.2-3.2-1.4-3.4c-13.4-1.7-26.2,5.1-33.3,16.5
				C262.8,72.2,266.2,74.2,267.6,72L267.6,72z"/>
		</g>
		<g>
			<path class="st2" d="M276.4,94.2c5.9-11.7,16.3-18.8,29.6-16.6c7.3,1.2,17.4,5.1,20.8,12.3c0.9-0.9,1.8-1.8,2.7-2.7
				c-22.5-13.6-42.3,17.8-49.7,34.9c-8.5,19.6-13.4,49.6-41.3,47.6c-2.6-0.2-2.6,3.8,0,4c11.4,0.8,23.3-4.7,29.6-14.3
				c4.9-7.4,7.6-16.1,10.7-24.3c3.9-10.1,8-20.3,14.3-29.2c7.4-10.4,21.1-23.3,34.3-15.3c1.8,1.1,3.5-1,2.7-2.7
				c-4-8.5-16-13.2-24.6-14.3c-14.5-1.9-26.2,5.9-32.6,18.7C271.8,94.4,275.3,96.5,276.4,94.2L276.4,94.2z"/>
		</g>
		<g>
			<path class="st2" d="M280.5,131c9.4-14.4,25.5-25.1,43.2-24c-0.2-1.3-0.4-2.6-0.5-3.9c-8.9,3.1-16.1,9-21.6,16.6
				c-7.2,10-9.1,22-14.6,32.8c-3.6,7.2-9.1,14.7-17.3,17c-4.3,1.2-9.6,0.8-13-2.4c-1.9-1.8-4.7,1-2.8,2.8c9.2,8.8,23.2,2.6,30.2-5.7
				c8.1-9.6,10-21.5,15.2-32.6c5.1-11,13.2-20.6,24.9-24.7c2.1-0.8,1.8-3.8-0.5-3.9c-19.1-1.3-36.5,10.5-46.6,26
				C275.6,131.2,279.1,133.2,280.5,131L280.5,131z"/>
		</g>
		<g>
			<path class="st2" d="M298.1,136.1c12.2-6.4,27.1-10.9,40.5-5.4c3.6,1.5,14.3,7.4,12.2,12.9c1-0.4,2-0.8,2.9-1.2
				c-7.6-3.8-17.2-2.8-25.1-0.4c-4.9,1.5-13.9,4.7-13.7,11.2c0.1,2.6,4.1,2.6,4,0c-0.1-4.6,9.7-7.1,13-8c6.2-1.6,13.8-2.4,19.7,0.6
				c1.2,0.6,2.5,0.1,2.9-1.2c2.7-7.2-7.8-14.6-13-17c-14.9-6.9-31.7-2.2-45.5,5C293.8,133.8,295.8,137.3,298.1,136.1L298.1,136.1z"
				/>
		</g>
		<g>
			<path class="st2" d="M286.1,161.9c22.1-11.8,46.9-3.9,69.9,1.1c0-1.3,0-2.6,0-3.9c-12,4.8-24.5,11.3-37.4,13.2
				c-13,1.9-25.8-1.6-36.7-8.7c-2.2-1.4-4.2,2-2.1,3.5c10.8,7.1,23.4,10.8,36.4,9.5c14.1-1.4,27.5-8.4,40.6-13.6
				c1.7-0.7,2.1-3.4,0-3.9c-24-5.3-49.5-13.1-72.8-0.7C281.7,159.7,283.8,163.1,286.1,161.9L286.1,161.9z"/>
		</g>
		<g>
			<path class="st2" d="M312.2,177.4c8.5,0.8,17.1,2.5,24.4,7c6,3.8,10.7,9.2,15,14.8c1.6,2,4.4-0.8,2.8-2.8c-4.8-6.2-10-12-16.8-16
				c-7.7-4.5-16.6-6.2-25.5-7C309.6,173.1,309.6,177.1,312.2,177.4L312.2,177.4z"/>
		</g>
		<g>
			<path class="st2" d="M282.2,175.2c6.1,9.9,18.4,13.8,28.9,17.2c13.5,4.4,27.4,6.9,41.6,7.7c2.6,0.2,2.6-3.8,0-4
				c-12.5-0.7-24.9-2.9-36.9-6.5c-10.3-3.1-24.1-6.7-30.1-16.5C284.3,171,280.8,173,282.2,175.2L282.2,175.2z"/>
		</g>
		<g>
			<path class="st2" d="M307.1,192.5c10.4,0.9,21.6,3.3,30,10c2,1.6,7.5,6.6,6.7,9.4c-0.7,2.5,3.1,3.5,3.9,1.1
				c1.4-4.6-4.1-10.2-7.1-12.8c-9.2-7.9-21.7-10.7-33.5-11.7C304.5,188.3,304.5,192.3,307.1,192.5L307.1,192.5z"/>
		</g>
		<g>
			<path class="st2" d="M302,190.9c9.9,15.3,26,22,43.7,23.5c2.6,0.2,2.5-3.8,0-4c-16.2-1.4-31.1-7.5-40.3-21.5
				C304.1,186.8,300.6,188.8,302,190.9L302,190.9z"/>
		</g>
		<g>
			<path class="st2" d="M303.4,241.2c7.4,5.2,15.4,9.4,23.1,14.1c2.2,1.4,4.2-2.1,2-3.5c-7.7-4.7-15.7-8.9-23.1-14.1
				C303.3,236.3,301.3,239.8,303.4,241.2L303.4,241.2z"/>
		</g>
		<g>
			<path class="st2" d="M305.2,252.8c0,2.7,4.4,4.6,6.3,5.6c4.2,2.3,8.7,4.4,13.3,5.8c2.5,0.8,3.5-3.1,1.1-3.9
				c-3.6-1.1-7.1-2.7-10.4-4.4c-1.5-0.7-2.9-1.5-4.3-2.4c-0.5-0.3-1-0.8-1.6-1c-1-0.5-0.4-1.2-0.4,0.2
				C309.2,250.2,305.2,250.2,305.2,252.8L305.2,252.8z"/>
		</g>
		<g>
			<path class="st2" d="M309.1,271c4.2,1,8.3,2.5,12.1,4.4c2.3,1.2,4.3-2.3,2-3.5c-4.1-2.1-8.6-3.7-13.1-4.8
				C307.7,266.6,306.6,270.4,309.1,271L309.1,271z"/>
		</g>
		<g>
			<path class="st2" d="M308.2,281.9c3.5,1.6,7.3,2.1,10.8,3.7c2.3,1.1,4.4-2.4,2-3.5c-3.5-1.6-7.3-2.1-10.8-3.7
				C307.9,277.4,305.9,280.9,308.2,281.9L308.2,281.9z"/>
		</g>
		<g>
			<path class="st2" d="M307.9,294.1c1.4,0.6,2.8,1,4.2,1.4c0.7,0.2,1.4,0.5,2,0.8c0.2,0.1,0.7,0.5,0.8,0.4c0.3-0.1-0.2,0.2-0.1-0.6
				c-0.2,2.6,3.8,2.6,4,0c0.1-2.1-2.2-3.1-3.8-3.8c-2-0.8-4.1-1.3-6.1-2.1C306.6,289.3,305.6,293.1,307.9,294.1L307.9,294.1z"/>
		</g>
		<g>
			<path class="st2" d="M328.6,210.3c3,7.9,9.8,17,17.5,20.8c0.3-1.2,0.7-2.5,1-3.7c-20.3-0.7-45.9-11.5-50.6-33.9
				c-0.5-2.5-4.4-1.5-3.9,1.1c1.6,7.9,7.1,15.4,12.7,20.8c11.2,10.9,26.4,15.4,41.7,15.9c1.9,0.1,2.8-2.8,1-3.7
				c-6.8-3.4-13.1-11.5-15.7-18.4C331.6,206.9,327.7,207.9,328.6,210.3L328.6,210.3z"/>
		</g>
		<g>
			<path class="st2" d="M335,171.7c5.2,2.1,10,5.2,14,8.3c0-1.2,0-2.3,0-3.5c-2,1.1-5.1,0.7-7.4,0.7c-3.1,0.1-6,0.3-9.1,0.7
				c-2.5,0.4-1.4,4.2,1.1,3.9c5.5-0.9,12.7,0.7,17.8-1.9c1.4-0.7,1.2-2.7,0-3.5c-4.9-3.4-9.8-6.5-15.3-8.8
				C333.7,166.8,332.6,170.7,335,171.7L335,171.7z"/>
		</g>
		<g>
			<path class="st2" d="M316.1,111.7c7.8,0.1,15.4,2.4,21.2,7.8c3,2.9,6.9,7.8,6.3,12.3c-0.4,2.5,3.5,3.6,3.9,1.1
				c0.8-5.8-2.6-11.5-6.6-15.5c-6.6-6.7-15.6-9.6-24.8-9.7C313.5,107.7,313.5,111.7,316.1,111.7L316.1,111.7z"/>
		</g>
		<g>
			<path class="st2" d="M331.8,143.8c1.1,2.3,1.5,4.8,2.5,7.1c1.2,2.9,3.3,5.2,5.7,7.2c2,1.6,4.8-1.2,2.8-2.8c-2.4-2-4.3-4.1-5.3-7
				c-0.7-2.2-1.3-4.3-2.3-6.4C334.1,139.5,330.7,141.5,331.8,143.8L331.8,143.8z"/>
		</g>
		<g>
			<path class="st2" d="M177,44.8c-9.5-3.4-20.5-3.9-30.4-1.6c-4.9,1.2-9,3.3-13.2,6.1c-5.6,3.7-13.7,8.7-19.2,2.1
				c-0.9-1.1-3.1-0.5-3.3,0.9c-1.1,6.1-3.1,18.2,5.3,20.1c2.5,0.6,3.6-3.3,1.1-3.9c-5.4-1.2-3.1-11.8-2.5-15.2
				c-1.1,0.3-2.2,0.6-3.3,0.9c8.4,10.1,20,0.5,28.2-4.2c10.5-5.9,25.3-5.5,36.4-1.5C178.3,49.5,179.4,45.6,177,44.8L177,44.8z"/>
		</g>
		<g>
			<path class="st2" d="M49.2,219.2c-5.4,4.4-9.3,9.9-12,16.3c-1.9,4.6-2.7,10.1-5.5,14.3c-0.9,1.4,0.6,3.5,2.3,2.9
				c10.2-3.4,19.8-9.9,28-16.9c2-1.7-0.9-4.5-2.8-2.8c-7.6,6.4-16.7,12.6-26.3,15.8c0.8,1,1.5,2,2.3,2.9c2.4-3.6,3.3-8.2,4.7-12.2
				c2.5-7,6.3-12.8,12.1-17.5C54.1,220.4,51.2,217.6,49.2,219.2L49.2,219.2z"/>
		</g>
		<g>
			<path class="st2" d="M303.6,223.7c1.9,6.2,6.8,11.7,11.4,16.1c6.4,6.2,13.9,11.2,22.4,13.9c1.3,0.4,2.4-0.7,2.5-1.9
				c0.3-4.3-2.4-9-4.3-12.6c-2.9-5.6-6.4-11-10.6-15.8c-1.7-1.9-4.5,0.9-2.8,2.8c3.7,4.2,6.7,8.9,9.4,13.7c1.8,3.3,4.7,7.8,4.4,11.8
				c0.8-0.6,1.7-1.3,2.5-1.9c-7.8-2.5-14.7-7.2-20.6-12.9c-4.1-4-8.6-8.8-10.4-14.3C306.7,220.2,302.9,221.2,303.6,223.7
				L303.6,223.7z"/>
		</g>
		<g>
			<path class="st2" d="M306.1,232c-1.4,2.3-4,5.4-4.5,8.1c-0.3,1.6,0.5,3.5,0.9,5c1.2,4.7,2.9,10,3.5,14.4c0.5,3.3,1.2,6.7,1.2,10
				c0,2.3-0.9,4.4-0.6,6.8c0.4,3.2,1.2,5.5,0.7,8.8c-0.7,4.8-1.9,8.9-0.8,13.8c1.4,6.2,3.1,12.1,3.9,18.4c0.2,2.1,3.3,2.9,3.9,0.5
				c5.6-22.7,10.5-45.6,16.3-68.2c0.6-2.5-3.2-3.6-3.9-1.1c-5.8,22.6-10.8,45.5-16.3,68.2c1.3,0.2,2.6,0.4,3.9,0.5
				c-0.6-5.2-1.5-10.4-2.9-15.5c-0.7-2.7-1.6-5.4-1.5-8.2c0.1-2.8,1-5.5,1.4-8.2c0.3-2,0.4-3.8,0.1-5.8c-0.5-3.1-0.5-5.6-0.3-8.7
				c0.3-3.1-0.5-6.4-0.9-9.5c-0.5-4.4-1.6-8.5-2.7-12.8c-0.6-2.2-1.8-5-1.8-7.3c0-1.8,2.6-5.2,3.9-7.4
				C310.9,231.8,307.4,229.8,306.1,232L306.1,232z"/>
		</g>
		<g>
			<path class="st2" d="M306.3,223.9c2-1,3.9-2,5.9-3c2.3-1.2,0.3-4.6-2-3.5c-2,1-3.9,2-5.9,3C302,221.6,304,225.1,306.3,223.9
				L306.3,223.9z"/>
		</g>
		<g>
			<path class="st2" d="M295,195.6c3-1.9,6.2-3.2,9.7-3.8c2.5-0.4,1.5-4.3-1.1-3.9c-3.8,0.7-7.4,2.1-10.7,4.2
				C290.9,193.5,292.9,197,295,195.6L295,195.6z"/>
		</g>
		<g>
			<path class="st2" d="M285.7,174.6c0.8-1.2,1.9-2.1,3.2-2.8c2.2-1.3,0.2-4.7-2-3.5c-1.9,1.1-3.4,2.5-4.6,4.2
				c-0.6,0.9-0.2,2.2,0.7,2.7C283.9,175.9,285,175.5,285.7,174.6L285.7,174.6z"/>
		</g>
		<g>
			<path class="st2" d="M87.7,259.3c1.6,1.4,3.1,2.7,4.7,4.1c0.8,0.7,2,0.8,2.8,0c0.7-0.7,0.8-2.1,0-2.8c-1.6-1.4-3.1-2.7-4.7-4.1
				c-0.8-0.7-2-0.8-2.8,0C86.9,257.2,86.8,258.6,87.7,259.3L87.7,259.3z"/>
		</g>
		<g>
			<path class="st2" d="M86.1,279.2c2.6,0.8,4.9,2.3,6.7,4.4c1.7,1.9,4.5-0.9,2.8-2.8c-2.3-2.6-5.2-4.4-8.5-5.4
				C84.7,274.6,83.7,278.4,86.1,279.2L86.1,279.2z"/>
		</g>
		<g>
			<path class="st2" d="M87.9,293.8c1,1,2,2.2,2.8,3.4c0.6,0.9,1.8,1.3,2.7,0.7c0.9-0.5,1.3-1.8,0.7-2.7c-1-1.5-2.1-2.9-3.4-4.2
				C88.9,289.1,86.1,291.9,87.9,293.8L87.9,293.8z"/>
		</g>
		<g>
			<path class="st2" d="M337.4,244.3c3.7-0.5,7.1-0.9,6.2-5.4c-0.7-3.8-2.1-7.9-5.1-10.5c-1.4-1.3-3.6,0.8-2.1,2.1
				c1.9,1.7,2.9,4,3.6,6.4c0.2,0.9,0.9,2.4,0.6,3.2c-0.4,1-2.9,1-4,1.2C334.7,241.7,335.5,244.6,337.4,244.3L337.4,244.3z"/>
		</g>
		<g>
			<path class="st2" d="M308,91.5c9,0.2,20.6,4.9,21.5,15.3c0.8-0.4,1.5-0.9,2.3-1.3c-3.2-1.7-6.8-3.1-10.5-2.4
				c-1.9,0.4-1.1,3.3,0.8,2.9c2.8-0.5,5.8,0.8,8.2,2c0.9,0.5,2.4-0.1,2.3-1.3c-1-12.2-13.6-18.1-24.5-18.3
				C306,88.5,306,91.5,308,91.5L308,91.5z"/>
		</g>
		<g>
			<path class="st2" d="M234.9,111.5c10,5.2,10.6,18.6,9.7,28.5c-0.9,10.5-3.8,21.8-9.5,30.8c-1.4,2.2,2.1,4.2,3.5,2
				c6.5-10.2,9.6-23.2,10.2-35.2c0.6-10.8-1.3-24.1-11.9-29.6C234.7,106.8,232.6,110.3,234.9,111.5L234.9,111.5z"/>
		</g>
		<g>
			<path class="st2" d="M170,97.7c-13.6,0.9-27.2,1.3-40.7,1.2c-13.4-0.2-27.2-0.5-40.2-3.9c-2.5-0.7-3.6,3.2-1.1,3.9
				c12.8,3.4,26.6,3.9,39.8,4.1c14.1,0.2,28.2-0.3,42.2-1.1C172.6,101.6,172.6,97.6,170,97.7L170,97.7z"/>
		</g>
		<g>
			<path class="st2" d="M80.6,92.2c-9.5-5.1-18.2-11.9-20.7-22.9c-0.6-2.5-4.4-1.4-3.9,1.1C58.8,82.3,68.2,90,78.6,95.6
				C80.8,96.8,82.9,93.4,80.6,92.2L80.6,92.2z"/>
		</g>
		<g>
			<path class="st2" d="M192.1,60.1c7.8,6.2,18.5,9,27.4,13.1c12.1,5.5,24.4,12.6,30.8,24.7c1.2,2.3,4.6,0.3,3.5-2
				c-6.1-11.7-17.5-19.1-29-24.7c-5.5-2.7-11.1-4.9-16.7-7.3c-4.5-1.9-9.4-3.7-13.2-6.7C192.9,55.6,190.1,58.5,192.1,60.1
				L192.1,60.1z"/>
		</g>
		<g>
			<path class="st2" d="M289,158.4c15-18.9,40.6-25.1,62.5-14.6c2.3,1.1,4.3-2.3,2-3.5c-23.4-11.1-51.1-5.1-67.3,15.3
				C284.6,157.5,287.4,160.4,289,158.4L289,158.4z"/>
		</g>
		<g>
			<path class="st2" d="M283.8,166.2c11.5,0.4,23,0.8,34.4,0.1c11.4-0.7,22.6-3.1,34.1-2.7c2.6,0.1,2.6-3.9,0-4
				c-11.4-0.4-22.7,2.1-34.1,2.7c-11.5,0.7-23,0.3-34.4-0.1C281.2,162.1,281.2,166.1,283.8,166.2L283.8,166.2z"/>
		</g>
		<g>
			<path class="st2" d="M230.4,104.8c-2.1-1.4-5.2-1.9-7.6-2.6c-3.1-0.8-6.3-1.8-9.5-1.9c-2.6,0-2.6,4,0,4c2.8,0,5.8,1,8.5,1.7
				c2.1,0.6,4.8,1,6.7,2.2C230.6,109.6,232.6,106.2,230.4,104.8L230.4,104.8z"/>
		</g>
		<g>
			<path class="st2" d="M205.5,99.6c-0.1,0-0.2,0-0.2,0c-1,0-2,0.9-2,2c0,1.1,0.9,2,2,2c0.1,0,0.2,0,0.2,0c1,0,2-0.9,2-2
				C207.5,100.5,206.6,99.6,205.5,99.6L205.5,99.6z"/>
		</g>
	</g>
</g>
</svg>
