<?xml version="1.0" encoding="utf-8"?>
<!-- Generator: Adobe Illustrator 19.2.0, SVG Export Plug-In . SVG Version: 6.00 Build 0)  -->
<svg version="1.1" id="Layer_1" xmlns="http://www.w3.org/2000/svg" xmlns:xlink="http://www.w3.org/1999/xlink" x="0px" y="0px"
	 viewBox="0 0 620 400" style="enable-background:new 0 0 620 400;" xml:space="preserve">
<style type="text/css">
	.st0{fill:#EFEFEF;}
	.st1{fill:#BBBBBC;}
	.st2{fill:#7FB539;}
	.st3{fill:#5A9230;}
	.st4{fill:#7A7B7B;}
	.st5{fill:#3C6C1F;}
</style>
<g>
	<path class="st0" d="M578.5,265.1c-5.2-14.9-8.7-30.8-16.3-44.7c-3.6-6.6-3.3-13.2-8.4-18c-0.1-0.6-1.3-3.9-1.9-4
		c-1.6-1.4-2.5-2.9-4.3-4.1c-11.8-7.7-23.2-16.2-35.6-22.8c-13.7-7.4-23.8-13.5-38.1-19.7c-4.8-3.6-7.4-3.1-10.4-5.5
		c-3.6-1.9-13.6-3.2-19.4-8.4c-0.3,0,4-22.9,1.4-22.8c-1.3,0.1-3.3-5.2-1.3-6.6c0.1,0.5-5.6-39.3-6.6-39.6
		C424.1,65,418.9,54.4,414,48.3c-7.8-9.8-16-0.8-20.8,1.7c-1.2,5.8,1.8,27.7-0.4,33.2c-0.7,3.3-7.6,13-27,26.9
		c-8.7,6.2-26.2,17.1-45.1,15.6c-4.3-0.3-8.2-6.8-39.8-7.1c-9.3-0.1-37.2-9.7-52.7-28.8c-1.3-12.4-1.4-27.9-1.7-37.6
		c-12.2-15.4-23.3-7.8-27.5-1.8c-4.9,7.1-7.6,23.7-12.8,35.2c-2.9,6.6-8.4,7.4-11.3,14.6l1.7,15.6l-8.8,4.6l-4.2,19.4
		c0,0-7.1,1-10.5,6.1c-0.1,1.2-7.4,1.8-7.4,3.1c-28.9,13.6-50,33.2-76.6,50.8c-1.9,1.2-3.2,6.6-4.7,8c-0.7,0.1-1.4,0.7-1.5,1.4
		c-3.5,3.6-3.4,8.2-5.9,13.4c-6.4,13.4-11.8,29.3-16.2,43.5c-1.2,4-2.7,8.4-3.8,12.4c3.5,9.9,8.4,17,19.7,24.7
		c39.8,27.3,183.9,59.2,254.9,61.4c74,2.3,223-34,260-61.4c6.9-5.1,9.7-8.8,13.7-15C583.2,280.6,581,272.3,578.5,265.1z"/>
</g>
<g>
	<path class="st1" d="M229,161c0,0-82.3-4.9-123.9,13.2c-10.7,4.6,29.1-16,29.7-17.5s30.5-19.7,30.5-19.7h31.4L229,161z"/>
	<path class="st2" d="M316.9,122.8l-16.4-3.1L279,117l-20.6-5.8l-14.7-9.7l-16.8-13.1L214,76.8L204.1,64l-6.3-12.6l-3.4,11.7
		l-6.4,19l-4.9,8.3l-7.4,7.9l-1.2,5.1l1.9,10.3l-0.7,2.9l-6.2,1.7l-4.2,10.5l-1.9,10.4l8.8,6.3l12.3,4.6l15.4,4.1l11.2,1.9l14.1,3.1
		l18.5,2.8l9.3,3.5l16.7,8.6l2.1,0.5c0.8-8.3,0.2-16.6-2.9-24.3l0.3-0.1c2.9-0.2,7,2.5,8.3,5.1c3.2,6.7,3.8,14.1,2.9,21.6l1.9,0.4
		l26.7,5v-7l1.8-19.3v-10.5l5.1-12.8l3.5-7.9L316.9,122.8z"/>
	<path class="st2" d="M445.4,115l-2.3-12.1l-3-15.4l-2-12.4l-0.7-6.2l-8.6-3.9l-8.7-8.1l-6.3-8.5l-4.8-3.3l-4.6,15l-6,15.3
		l-9.7,14.3l-13.5,13.4l-13.8,10l-21,10.8l-7.8,2.8l-1.8,0.1l-0.9,6.4l-0.1,19.7L332,165v3.5l-6.3-0.5l0.8,14.4l5.6-0.9l18.9-7.3
		l3.8-1.7c0.4-1.2,0.9-2.3,1.3-3.5c1.4-3.4,2.9-6.7,3.9-10.1c1.8-5.9,2.4-19.2,2.4-19.2c-0.3-1.5,3.3-1.8,4.5-0.8
		c2.9,2.4,2.9,6.8,2.3,10.5c-1,6.4-2.9,12.7-4.9,18.9l0.9-0.4l17.5-7.4l4.7-2.2l7.5-2.4l4.5-4.1l14.4-3.2l14.9-4.1l13.9-6.4l2.5-4.2
		l0.9-9.8L445.4,115z"/>
	<g>
		<path class="st2" d="M571.7,247H569l-12.5,4.1l-15.6,7.6l-3.6,0.8l-4.5-4.8l-7.6,10.2l-4.9,3l-13.8,5.5l-43.9,17.2l-70.5,27.5
			L329,342.7l-2,0.1v21.5c78-2.4,209.9-35.8,244.4-61.4c6.8-5,9.6-8.7,13.5-14.7L571.7,247z"/>
		<path class="st2" d="M316,343.1l-2.4,0.1l-32.6-14l-40.8-14.7l-55.7-19.1l-47.6-16.2l-32.8-12l-7.6-5.1l-4.2-9.4l-5.6-7.1
			l-7.1-3.2l-18.3-4.8l-9.4-3.5c-4.2,10.4-7.9,21.5-11.1,31.7c-1.2,4-2.7,8.4-3.8,12.4c3.5,9.9,8.4,17,19.7,24.7
			c39.8,27.3,184.3,59.2,255.2,61.4c1.3,0,2.2,0.1,4.2,0.1v-21.3H316z"/>
	</g>
	<path class="st1" d="M284.4,290c-0.1-0.2-0.2-0.4-0.4-0.6c0.4-0.7,0.7-1.5,0.8-2.2c0.3-2.2-0.5-4.4-1.2-6.5
		c-4-11.7-7.3-23.9-6.4-36.2c0.9-12,5.9-23.3,9.2-34.8c3.4-11.6,5.1-24.4-0.1-35.3c-0.9-1.9-3.3-3.8-5.7-4.6c0,2.6-0.2,5.2-0.6,7.9
		c2.4,12.8-0.7,26.5-4.3,39.3c-2.4,8.3-4.9,16.8-6.4,25.3c1.2,6.2,3.1,12.4,5.1,18.4c0.7,2.1,1.5,4.3,1.2,6.5s-2,4.4-4.2,4.4
		c-0.4-0.6-0.7-1.3-1-1.9c2.3,7.7,6.2,14.9,10,21.9c0.4,0,0.8-0.1,1.1-0.2c1,2.8,2.1,5.5,3.4,8.2c0.8,1.7,3.4,0.2,2.6-1.5
		C286.4,295.5,285.4,292.8,284.4,290z"/>
	<path class="st1" d="M354,305.1c-0.7-2.7-1.7-5.3-2.8-7.8c0.2-0.1,0.4-0.1,0.7-0.2c-0.7-6.1-0.6-12.3-0.1-18.4
		c-0.1,0-0.2,0.1-0.3,0.1c-5.6-14.4-0.6-30.5-1.1-45.9c-0.2-7.1-1.6-14.1-2.2-21.1c-0.7-7.8-0.5-15.6,0.7-23.3
		c-5,13.8-7,28.7-5.7,43.3c0.6,7.1,2,14.1,2.2,21.1c0.4,15.4-4.5,31.5,1.1,45.9c0.7-0.2,1.3-0.4,2-0.6c0,0.2,0.1,0.4,0.1,0.5
		c1.1,2.3,1.9,4.7,2.6,7.2C351.6,307.7,354.5,307,354,305.1z"/>
	<polygon class="st2" points="312.4,355.4 314.6,332.7 312.2,254.3 311,198.1 308.8,178.3 308.2,150.2 315.9,132.9 321.6,126.4 
		334,125.7 334,146 332.1,168.5 326.5,182.5 324.2,226 325,264.5 325.8,311.9 327.1,364 314.1,364 	"/>
</g>
<g>
	<polygon class="st3" points="225.9,87.5 216.9,78.5 204,64 197.2,53.9 201.3,47.4 207.2,43 214,41.8 222,48.3 227,53.9 227,65 
		227.7,84 	"/>
	<path class="st3" d="M392.2,82c0-1.7,0.7-21.7,0.7-21.7V48.8l7.1-2.2l9-1.7l-2.4,7.7l-4.4,12.9l-5.4,12.2L392.2,82z"/>
	<path class="st3" d="M190.4,74.8c-0.3,6,4.2,23.6,15.9,31.6c16.2,11.2,33.6,21.4,37.4,22.5c3.8,1.1,4.7,2.6,4.7,2.6l-14.7-4.4
		l-26.3-12.6l-11.3-8.1l-9.3-9.5l-3.6-6.4l3.6-5L190.4,74.8z"/>
	<path class="st3" d="M279,155.2c0,0,7.4,13.3,9.4,21.8c0.7,3-7.4,0.1-7.4,0.1V171L279,155.2z"/>
	<path class="st3" d="M370.6,145c0,0,1.4,16.5-1.2,20.3c-2.5,3.8-5.2,3.1-5.2,3.1l3.2-9.6L370.6,145z"/>
	<path class="st3" d="M314.8,125.5c0,0-39.3,5.5-47.5,3.4c-24.2-6.2-48.4-29.8-54.9-37.8C204.9,82,199.2,59,199.2,59l-0.9,15.8
		l5.5,14.6l7.3,11.2l14.2,13l15.9,11.4l12.6,7.1l12.8,2.9l18.3-2.2l25.2-4.9L314.8,125.5z"/>
	<path class="st3" d="M175.5,106.9c0,0,9,8.8,10.5,11.5s12.4,8.5,17.7,10.5c5.3,2.1,26,7.9,30.1,10.4c4.2,2.5,10.5,10,15.3,11
		s11.5,3.4,13.9,5.4c2.4,2.1,2.8,3.1,2.8,3.1l-5-0.5l-4.4-2.2l-11.7-1.9l-7.7-4l-6.4-6.4l-9.2-3.4c0,0-20.8-6.1-21.3-6.3
		s-16.2-8.6-16.2-8.6l-10.2-7.9l2.6-2.3L175.5,106.9z"/>
	<path class="st3" d="M164.8,130.3c12.9,12.7,79.6,29.4,87.4,29.5s-6.8,1.4-6.8,1.4l-31.5-3.8l-29.5-7.1c0,0-16.3-7.8-17.3-8.2
		c-1.1-0.4-4.5-3.7-4.5-3.7S163.3,128.8,164.8,130.3z"/>
	<path class="st3" d="M247.7,161.7c14.3,4.5,24.1,5.7,24.1,5.7s0.2,6.8-1,6.8c-1.1,0-7.4-3.2-7.4-3.2l-11.7-6.8
		C251.7,164.2,246.6,161.4,247.7,161.7z"/>
	<path class="st3" d="M279.6,169.8c13.8,8.6,27.9,9.9,29.1,8.6c1.2-1.3,0,4.7,0,4.7l-5.7-1.5l-22.3-4.4
		C280.7,177.1,278.1,168.8,279.6,169.8z"/>
	<path class="st3" d="M379.1,155.2c0,0,4.2,2,8.6,0s8-5.5,9.3-6.6c1.3-1.2,31.6-11.4,37.3-14.6c5.7-3.2,10.2-17.8,10.2-17.8l1.3,8
		l-1.3,12l-11.1,6.9l-17,4.9l-18.7,4.6l-3,3.5l-6.6,2.1l-11.2-1.4L379.1,155.2z"/>
	<path class="st3" d="M436,67.9l-5.3,7.9l-5.3,6.3l-1.4,27.6l-0.7,8.2l-7.8,12l-20.4,15.7l-21.8,9.9c0,0,2.2-5.3,5.5-6.9
		c10.6-5.5,27.8-15.6,33.6-27.5c3.8-7.8,3.4-28.6,6.7-39.8c2.2-7.8,12.4-15.3,12.4-15.3L436,67.9z"/>
	<path class="st3" d="M409,49.8c-4.4,73.5-73.9,77.4-73.9,77.4l7.5,4l30-5.6l17.2-11.9l13.8-19.5l5.4-16.3l2.4-18
		C411.4,59.9,409.2,46.5,409,49.8z"/>
	<path class="st3" d="M277.1,154.6c0,0,10.1,7.7,18.4,6s15.5-12.7,15.5-12.7V159l-1.1,12l-5.9,3.2l-10.5-3.2c0,0-13.6-7.1-13.7-7.5
		C279.5,163,277.1,154.6,277.1,154.6z"/>
	<path class="st3" d="M361.5,145c0,0-15.3,0.5-18.9,6.2s-5.6,11.3-1.3,12.2c2.1,0.4,1.8-2.9,1.8-2.9l7.3-4.8l10.4-0.3L361.5,145z"/>
	<path class="st3" d="M370.6,145c0,0,3.4,4.6,8.1,3.5s3,1.1,3,1.1l-6.7,5.8l-5.7-0.3L370.6,145z"/>
</g>
<g>
	<g>
		<path class="st4" d="M223.3,158.5c-21.7,13.6-44.4,25.8-65.4,40.4c-2.2,1.5-4.7,3-6.2,5.1c-2,2.7-3.3,6.1-4.7,9.1
			c-5.2,11-10,22.2-14.9,33.3c-3.8,8.7-7.4,17.4-11.2,26.1c-0.8,1.8,1.8,3.3,2.6,1.5c8-18.3,15.6-36.8,24-54.9
			c2.8-6,4.8-12.5,10.3-16.5c9.9-7.2,20.6-13.4,31.1-19.7c12-7.3,24.1-14.4,36-21.9C226.5,160,225,157.4,223.3,158.5L223.3,158.5z"
			/>
		<path class="st4" d="M93.9,259c0.1,0,0.3,0.1,0.4,0.2c1,1.3,2.3,2.2,3.6,3.2c-0.4-1.6-0.8-3.2-1.2-4.7
			c-5.7-20.9-13.6-41.3-26.4-58.9c-1.1-1.5-3.7-0.1-2.6,1.5c12.6,17.4,20.5,37.5,26.1,58.2C93.8,258.6,93.9,258.8,93.9,259z"/>
	</g>
	<g>
		<path class="st4" d="M49.8,232.7c-6,15.4-10.4,31.3-15,47.2c-0.5,1.9,2.4,2.7,2.9,0.8c4.2-14.6,8.3-29.3,13.6-43.6
			c0.3-0.8,0.6-1.5,0.8-2.3C51.4,234.2,50.6,233.5,49.8,232.7z"/>
	</g>
	<path class="st4" d="M161.7,138.6c-8.3,3.2-16,8.7-23.6,13.2c-12.8,7.7-25.4,15.6-37.9,23.7c-9.2,6-18.7,11.8-27.3,18.6
		c-10.3,8.1-16.1,21.6-21,33.3c-0.5,1.3-1,2.5-1.5,3.8c0.8,0.7,1.5,1.4,2.3,2.1c4.8-12.7,10.7-27.3,21-36.1
		c7.5-6.4,16.3-11.6,24.5-16.9c12.1-7.9,24.4-15.6,36.7-23.2c8.8-5.4,17.9-12,27.6-15.8C164.3,140.8,163.5,137.9,161.7,138.6z"/>
	<g>
		<path class="st4" d="M586.9,289.3c-4.1-14.1-8.6-28.1-13.3-42.1c-1,0.1-2,0.2-3,0.3c4.9,14.1,9.3,28.3,13.5,42.6
			C584.6,291.9,587.5,291.1,586.9,289.3z"/>
	</g>
	<g>
		<path class="st5" d="M319.1,124.6c-14.2,2.6-28.5,5.9-42.8,7.8c-15,2.1-27.4-3.9-39.6-12.1c-10.3-6.9-19.5-15.5-27.3-25.2
			c-5.1-6.4-8.6-12.3-9.2-20.5c-0.6-7.7-0.6-15.5-0.9-23.2c-0.1-1.7-2.5-2.1-2.9-0.4c-2.9,10.6-6.3,21.2-10.2,31.5
			c-1.4,3.7-3.2,5.9-6.2,8.8c-2.8,2.7-6.7,6-7,10.2c-0.2,3.2,0.8,6.7,1.4,9.8c0.2,1,0.9,3.7,0.6,4.3c-0.5,0.8-4.4,1.6-5.4,2
			c-2.4,0.9-2.8,2.1-3.6,4.5c-1.8,5.2-3.2,10.6-4.7,15.9c-0.5,1.9,2.4,2.7,2.9,0.8c1.4-5.2,2.7-10.4,4.5-15.4c0.7-2,0.9-2.6,2.9-3.3
			c1.6-0.6,3.4-1,4.8-1.9c4.4-2.9-0.5-11.6-0.3-15.9c0.3-5.1,6.7-8.8,9.8-12.3c1.7-2,2.5-4.1,3.4-6.5c3.9-10.3,7.3-20.8,10.2-31.5
			c-1-0.1-2-0.3-2.9-0.4c0.3,8.3,0.3,16.7,1.1,25c0.7,7,3.5,12.4,7.7,17.9c8,10.7,17.8,20,28.8,27.6c11.6,8,24.4,15,38.9,13.8
			c15.8-1.3,31.7-5.5,47.2-8.4C321.8,127.2,321,124.3,319.1,124.6L319.1,124.6z"/>
	</g>
	<g>
		<path class="st5" d="M280.1,164.9c6.3,2.6,11.7,7.1,18.4,8.8c3.3,0.9,10.3,1.4,12.6-2c1.4-2,0.7-6.7,0.7-9c0-4.4,0-8.7,0.8-13
			c0.7-3.9,1.6-7.9,3-11.7c1.2-3.4,3.3-6.3,4.5-9.7c0.6-1.8-2.3-2.6-2.9-0.8c-1,2.8-2.7,5.3-3.8,8c-1.1,2.7-1.9,5.5-2.6,8.3
			c-1.5,6.3-1.9,12.3-2,18.8c0,3.5,0.6,7.3-3.5,8.4c-3.4,0.9-7.3-0.6-10.3-2c-4.8-2.2-9.1-5.2-14-7.2
			C279.1,161.3,278.4,164.2,280.1,164.9L280.1,164.9z"/>
	</g>
	<g>
		<path class="st4" d="M422.4,146.6c10.6,9.5,21.6,18.5,33.3,26.6c10.9,7.6,23.7,13.3,33.3,22.6c14.8,14.1,23.7,33.8,30.4,52.8
			c1.7,4.9,2.8,10.5,5.2,15.2c0.9,1.7,3.5,0.2,2.6-1.5c-2.1-4.1-3.1-9.2-4.6-13.6c-3-8.5-6.3-16.9-10.4-25
			c-4.7-9.3-10.3-18.3-17.3-26c-8.3-9.2-18.9-14.5-29.2-21.2c-14.6-9.5-28.3-20.3-41.3-31.9C423.1,143.2,421,145.3,422.4,146.6
			L422.4,146.6z"/>
		<path class="st4" d="M573.1,245.9c-0.7-1.9-1.3-3.8-2-5.7c-4.9-13.9-9.7-29-17.7-41.5c-4.6-7.2-13-10.8-20.1-14.9
			c-14-8-28.3-15.7-42.5-23.3c-15.1-8-30.2-16-45.6-23.5c-1.7-0.8-3.3,1.7-1.5,2.6c27.8,13.6,55.1,28.3,82.1,43.4
			c5.2,2.9,10.4,5.8,15.4,8.9c2.7,1.6,5.7,3.2,7.7,5.6c3.7,4.3,6.1,10.2,8.4,15.4c3.4,7.6,6.3,15.4,9.1,23.2
			c1.2,3.4,2.4,6.8,3.6,10.1C571.1,246.1,572.1,246,573.1,245.9z"/>
		<path class="st4" d="M547.5,198.5c-11.2,20.6-19.2,42.7-23.8,65.6c1.2-1.2,2.4-2.4,3.8-3.5c4.6-21.1,12.1-41.5,22.5-60.5
			C551.1,198.3,548.5,196.8,547.5,198.5z"/>
	</g>
	<g>
		<path class="st5" d="M162.2,140.4c11.4,10.8,29.3,13.7,44.1,16.9c10.2,2.2,20.4,4.1,30.8,4.9c5.5,0.4,11,0.6,16.5-0.1
			c5.8-0.7,11.4-1.6,17.2-1.2c1.9,0.1,1.9-2.9,0-3c-10-0.7-19.9,2.1-30,1.5c-10.7-0.6-21.4-2.4-31.9-4.7
			c-14.7-3.1-33.2-5.8-44.6-16.6C162.9,137,160.8,139.1,162.2,140.4L162.2,140.4z"/>
	</g>
	<g>
		<path class="st4" d="M271.9,172.8c-11.9-4.9-22.8-12-35.7-13.7c-1.9-0.2-1.9,2.8,0,3c12.6,1.6,23.4,8.8,34.9,13.6
			C272.9,176.4,273.6,173.5,271.9,172.8L271.9,172.8z"/>
	</g>
	<g>
		<path class="st4" d="M310.4,181.6c-9.8-1.9-19.6-3.6-29.2-5.9c-1.9-0.4-2.7,2.4-0.8,2.9c9.7,2.3,19.5,4,29.2,5.9
			C311.5,184.8,312.3,181.9,310.4,181.6L310.4,181.6z"/>
	</g>
	<g>
		<path class="st5" d="M181.6,90.9c4.5,11.9,17.1,20.4,27.6,26.5c14.2,8.4,30.2,14.6,46.7,16.2c1.9,0.2,1.9-2.8,0-3
			c-15.5-1.5-30.5-7.4-43.9-15.1c-10.1-5.8-23.1-14-27.4-25.5C183.8,88.3,180.9,89.1,181.6,90.9L181.6,90.9z"/>
	</g>
	<g>
		<path class="st5" d="M173.3,119.5c13.4,11.1,28.5,17.7,45.3,21.8c4.5,1.1,9,2.4,12.7,5.3c3,2.4,5.1,5.7,8.6,7.5
			c6.7,3.4,14.9,2.2,21.3,6.3c1.6,1,3.1-1.6,1.5-2.6c-6-3.9-13.3-3.2-19.9-5.7c-4.3-1.6-6.4-5.4-9.9-8.1c-2.7-2.1-5.9-3.5-9.1-4.5
			c-8.3-2.6-16.7-3.9-24.7-7.5c-8.5-3.8-16.6-8.7-23.8-14.7C174,116.1,171.9,118.3,173.3,119.5L173.3,119.5z"/>
	</g>
	<g>
		<path class="st5" d="M321,127.1c2.1,0,4.5,0.2,6.6-0.1c1.4-0.2,2.2,0.8,1.7-1.1c0.1,0.5-0.3,1.6-0.4,2.1c-0.6,3.8-0.9,7.7-1,11.5
			c-0.3,9.5-0.1,19.8,3.3,28.8c0.3-0.6,0.7-1.2,1-1.8c-4.1,0.7-7.9,0.6-12,0.4c-3.1-0.1-2.7-0.6-2.9-3.5c-0.2-3.9,0-7.9,0.2-11.8
			c0.6-8.4,1.4-17.2,4.1-25.3c0.6-1.8-2.3-2.6-2.9-0.8c-2.4,7.1-3.2,14.8-3.9,22.2c-0.6,6.6-1.4,13.9,0.1,20.5c0.1,0.5,0.6,1,1,1
			c5.7,1,11.3,1.1,17,0.1c0.8-0.1,1.3-1.1,1-1.8c-2.7-7.2-3.2-15.1-3.3-22.8c0-6.1,0-12.6,1.5-18.6c0.1-0.5,0-1.1-0.4-1.5
			c-2.4-1.9-8.2-0.6-11-0.6C319.1,124.1,319.1,127.1,321,127.1L321,127.1z"/>
	</g>
	<g>
		<path class="st4" d="M364.8,169.8c7.2-3.7,15.3-5.5,22-10.2c1.6-1.1,0.1-3.7-1.5-2.6c-6.7,4.6-14.8,6.5-22,10.2
			C361.6,168.1,363.1,170.7,364.8,169.8L364.8,169.8z"/>
	</g>
	<g>
		<path class="st4" d="M326.9,183.9c9.7-1.6,19.3-6.4,28.4-10.1c1.8-0.7,1-3.6-0.8-2.9c-9,3.7-18.7,8.5-28.4,10.1
			C324.2,181.3,325,184.2,326.9,183.9L326.9,183.9z"/>
	</g>
	<g>
		<path class="st5" d="M369.4,156.6c8.2,1,16.3,5.1,24.4,1.5c2.4-1.1,2.7-3.1,4.8-4.4c1.7-1.1,4.3-1.5,6.3-2c11-3,22.6-4.9,33.1-9.4
			c3-1.3,6.4-2.8,7.8-6c2.4-5.4,1.6-13,1-18.6c-1.5-15.2-6.3-29.9-7.4-45.1c-0.3-4,0.1-4.8-3.9-6.7c-4.6-2.2-8.9-3.4-12.4-7.4
			c-4.1-4.7-7.5-12.9-13.7-15.2c-1.4-0.5-2.2,1.1-1.7,2.2c1.6,3.5,1.5,8.1,1.6,11.8c0.2,6.9-0.5,13.8-2,20.6
			c-3.9,17.7-13.6,33.8-29.8,42.7c-5.7,3.1-11.9,5.3-18.2,6.6c-7.1,1.5-19.4,4.4-25-1.6c-1.3-1.4-3.4,0.7-2.1,2.1
			c4.8,5.2,12.3,4.5,18.8,3.8s12.9-2,19.1-4.3c10-3.7,19.1-9.8,25.9-18.1c11.2-13.6,16.2-31.7,16.4-49.2c0.1-5.1,0.1-11.3-2-16
			c-0.6,0.7-1.1,1.5-1.7,2.2c5.2,1.9,8.5,9.8,12,13.9c1.9,2.2,4,4.1,6.6,5.5c2.9,1.5,8.2,2.1,9.1,5.3c0.6,2.4,0.5,5.3,0.8,7.8
			c0.5,3.5,1.2,7,1.8,10.4c1.4,7.1,2.9,14.1,4,21.2c1,6.7,1.9,13.8,1,20.7c-0.7,5-2.7,6.6-7.2,8.5c-9.8,4.1-20.6,6-30.8,8.7
			c-3,0.8-7.5,1.4-10,3.5c-2.2,1.9-1,2.8-4.8,4.2c-2.7,0.9-5.7,0.8-8.4,0.3c-4.4-0.7-8.7-2.1-13.2-2.7
			C367.5,153.4,367.5,156.4,369.4,156.6L369.4,156.6z"/>
	</g>
	<g>
		<path class="st5" d="M343.6,162.3c4.2-5.1,11-5.6,17.2-5.8c1.9-0.1,1.9-3.1,0-3c-7,0.2-14.5,1-19.3,6.7
			C340.3,161.6,342.4,163.8,343.6,162.3L343.6,162.3z"/>
	</g>
	<g>
		<path class="st5" d="M434,67.1c-1.3,6.3-7.9,9.3-9.6,15.3c-1,3.5-0.8,7.6-1.1,11.1c-0.3,5.2-0.6,10.5-0.9,15.7
			c-0.1,2.5,0.1,5.6-0.6,8.1c-1.6,5.6-6.8,10.7-10.8,14.5c-10.7,10.3-24.3,17.2-38.2,22.2c-1.8,0.6-1,3.5,0.8,2.9
			c17.8-6.4,36.2-16.1,47.4-32c6.4-9.1,4.7-20.8,5.3-31.4c0.2-3.4-0.1-7.6,1.1-10.8c2-5.7,8.2-8.5,9.5-14.8
			C437.3,66,434.4,65.2,434,67.1L434,67.1z"/>
	</g>
	<g>
		<path class="st5" d="M308.2,171c3,64.5,4,129,5,193.6c0,1.9,3,1.9,3,0c-1-64.5-2.1-129.1-5-193.6
			C311.1,169.1,308.1,169.1,308.2,171L308.2,171z"/>
	</g>
	<g>
		<path class="st5" d="M324.2,169.8c-2.9,64.9,1,129.8,1.2,194.8c0,1.9,3,1.9,3,0c-0.3-64.9-4.1-129.8-1.2-194.8
			C327.3,167.9,324.3,167.9,324.2,169.8L324.2,169.8z"/>
	</g>
	<g>
		<path class="st5" d="M50.2,234.2c9.5,4.9,21.5,7.2,31.7,10.3c6.6,2,7,10.4,10.7,15.5c3.6,4.9,9.1,8,14.6,10.4
			c13.5,5.8,27.8,9.9,41.7,14.5c41.3,13.9,82.6,27.7,123.4,42.8c8.8,3.2,17.5,6.5,26.2,10.1c4.7,1.9,9.9,3.8,14.1,6.8
			c1.6,1.1,3.1-1.5,1.5-2.6c-3.5-2.4-7.6-4-11.5-5.7c-6.9-2.9-13.9-5.6-20.9-8.3c-19.8-7.5-39.8-14.5-59.8-21.4
			c-35-12.1-70.3-23.5-105.3-35.9c-6.5-2.3-13.5-4.7-18.7-9.5c-5.5-5-5.6-15-12.3-18.7c-3.9-2.1-9.1-2.6-13.4-3.7
			c-6.5-1.7-14.3-4.2-20.3-7.2C50,230.7,48.5,233.3,50.2,234.2L50.2,234.2z"/>
	</g>
	<g>
		<path class="st5" d="M329.4,344.2c27.4-11.1,55-21.7,82.5-32.4c32.4-12.6,64.9-25.2,97.2-38c4-1.6,8.1-2.9,12.1-4.7
			c5.4-2.4,8.9-9.1,12.5-13.1c-0.7,0-1.4,0-2.1,0c3.5,3,4.6,6.9,9.4,4.4c9.7-5,20.1-11.7,31.2-12.2c1.9-0.1,1.9-3.1,0-3
			c-8.9,0.3-16.5,4.4-24.3,8.3c-2,1-4,1.9-6,2.9c-0.9,0.5-2.4,1.7-3.5,1.8c-0.7,0.1-0.2,0.2-1.1-0.9c-1.2-1.3-2.4-2.6-3.7-3.8
			c-0.5-0.5-1.6-0.7-2.1,0c-3.2,4-6.8,10.2-11.2,12.5c-3.1,1.6-6.7,2.7-10,4c-13.5,5.4-27.1,10.6-40.7,15.9
			c-33.9,13.2-67.8,26.4-101.6,39.6c-13.2,5.1-26.4,10.4-39.5,15.7C326.9,342,327.6,344.9,329.4,344.2L329.4,344.2z"/>
	</g>
	<path class="st2" d="M274.2,205.7c3.8-11.8,8.4-23.7,8-36.4c-0.3-8.3-2.8-20.1-13-20.5c-0.4,0-0.7,0.1-0.9,0.2
		c-0.7,0.2-1.2,0.8-0.9,1.7c8.2,21.7-1.9,43.7-6.8,64.9c-2.2,9.6-3.5,19.5-1.8,29.3c1.7,10.2,6.7,19.4,11.6,28.4
		c0.3,0.6,1.1,0.8,1.7,0.7c11-2.2,1.9-19.2,0.3-25.2C268.5,233.9,269.6,220.3,274.2,205.7z"/>
	<path class="st5" d="M274.2,205.7c3.8-11.8,8.4-23.7,8-36.4c-0.3-8.3-2.8-20.1-13-20.5c-0.4,0-0.7,0.1-0.9,0.2
		c-0.7,0.2-1.2,0.8-0.9,1.7c8.2,21.7-1.9,43.7-6.8,64.9c-2.2,9.6-3.5,19.5-1.8,29.3c1.7,10.2,6.7,19.4,11.6,28.4
		c0.3,0.6,1.1,0.8,1.7,0.7c11-2.2,1.9-19.2,0.3-25.2C268.5,233.9,269.6,220.3,274.2,205.7z M272.3,270.7c-5.1-9.4-10-19-11.2-29.8
		c-1.2-11.3,1.6-22.7,4.6-33.5c5-17.9,11.2-36.9,5.2-55.3c10.1,2.4,8.6,21.3,7.3,28.9c-1.7,10-5.8,19.4-8.5,29.1
		c-2.7,9.3-3.8,18.6-2.5,28.2c0.6,4.4,1.5,8.8,2.7,13.1C270.7,254.4,276.8,267.9,272.3,270.7z"/>
	<g>
		<path class="st5" d="M273.5,272.8c1,3,2.2,5.9,3.6,8.8c0.8,1.7,3.4,0.2,2.6-1.5c-1.2-2.6-2.3-5.3-3.3-8.1
			C275.8,270.2,272.9,271,273.5,272.8L273.5,272.8z"/>
	</g>
	<path class="st2" d="M370.6,149.5c0.5-3.8,0.7-9.4-3-11.8c-2.1-1.4-6.1-1.2-6.7,1.7v0.1c0,0.1,0,0.2,0,0.3
		c-0.4,8.2-1.1,16.2-4.2,23.9c-5,12.5-8.7,24.8-9.3,38.4c-0.7,14.1,3.1,27.9,2.3,42c-0.7,13.2-3.4,26.4,1.2,39.2
		c0.3,0.7,1,1.3,1.8,1c1.8-0.6,3.6-1.1,5.4-1.7c0.6-0.2,1.2-0.8,1.1-1.4c-1.5-15.3,1.4-30.3,2.3-45.5c0.4-7.3,0.2-14.5-0.8-21.8
		c-1.1-8.3-2.3-16.3-0.9-24.6C362.3,175.7,368.8,163.2,370.6,149.5z"/>
	<g>
		<path class="st5" d="M363.8,140.2c2.6,0.5,3.9,1.8,3.9,3.8c0.2,0.6,0.2,1.3,0.2,1.9c0,1.7-0.2,3.3-0.5,4.9c-0.5,2.9-1.2,5.8-2,8.6
			c-1.5,5.4-3.4,10.7-5,16.1c-3.4,11.1-4.7,21.5-3.2,33.1c1.6,12,2,23.3,0.8,35.3c-1.2,12.4-2.8,24.7-1.7,37.2
			c0.4-0.5,0.7-1,1.1-1.4c-1.8,0.6-3.6,1.1-5.4,1.7c0.6,0.3,1.2,0.7,1.8,1c-4.7-13.1-1.5-26.7-1.1-40.2c0.5-14.1-3.3-27.9-2.3-42.1
			c0.5-7.2,1.7-14.3,3.7-21.2c1.9-6.4,4.9-12.4,6.9-18.8c2.1-6.5,2.4-13.7,2.7-20.4c0.1-1.9-2.9-1.9-3,0c-0.4,8.2-1.1,16.2-4.2,23.9
			c-5,12.5-8.7,24.8-9.3,38.4c-0.7,14.1,3.1,27.9,2.3,42c-0.7,13.2-3.4,26.4,1.2,39.2c0.3,0.7,1,1.3,1.8,1c1.8-0.6,3.6-1.1,5.4-1.7
			c0.6-0.2,1.2-0.8,1.1-1.4c-1.5-15.3,1.4-30.3,2.3-45.5c0.4-7.3,0.2-14.5-0.8-21.8c-1.1-8.3-2.3-16.3-0.9-24.6
			c2.3-13.5,8.7-26,10.6-39.7c0.5-3.8,0.7-9.4-3-11.8c-2.1-1.4-6.1-1.2-6.7,1.7C360.5,141.3,363.4,142.1,363.8,140.2z"/>
	</g>
	<g>
		<path class="st5" d="M199.8,51.5c0.2-2.4,9.8-8.3,12.2-8c2.4,0.4,5.4,3.1,7.2,4.5c1.5,1.1,4.9,3,5.7,4.6c0.4,0.9,0.2,3.3,0.2,4.5
			c0.1,3.3,0.3,6.5,0.4,9.8c0.3,7.4,0.5,14.7,0.7,22.1c0.1,1.9,3.1,1.9,3,0c-0.3-9.5-0.5-19-0.9-28.5c-0.1-2.5,0.2-5.7-0.4-8.1
			c-0.5-1.9-1.8-2.8-3.3-4c-3.4-2.8-9.7-9.1-14.6-7.8c-3.7,1-12.7,6.5-13.2,10.9C196.6,53.4,199.6,53.4,199.8,51.5L199.8,51.5z"/>
	</g>
	<g>
		<path class="st5" d="M195.9,54.7c3.7,4.9,6.7,10.2,10.8,14.8c4.3,4.8,8.7,9.5,13.1,14.1c8.8,9,18.3,17.5,29,24.1
			c9.8,6.1,20.6,10.2,32.1,11.6c12.6,1.5,26.3,0.7,37.7,6.9c1.7,0.9,3.2-1.7,1.5-2.6c-9.4-5.2-20.4-5.7-30.9-6.6
			c-13-1.1-24.7-3.8-36.2-10.4c-10.9-6.3-20.5-14.6-29.4-23.5c-4.4-4.4-8.6-8.9-12.7-13.4c-4.7-5.2-8.3-11-12.5-16.6
			C197.4,51.6,194.7,53.1,195.9,54.7L195.9,54.7z"/>
	</g>
	<g>
		<path class="st5" d="M332.5,128c38.3-12.1,71.6-42.1,77.3-83.1c0.2-1.1-0.6-2.1-1.8-1.8c-5.3,1.2-10.4,2.2-15.4,4.3
			c-0.6,0.2-1.2,0.7-1.1,1.4c1.1,11.4-0.1,22.8-0.3,34.2c0,1.9,3,1.9,3,0c0.2-11.4,1.4-22.8,0.3-34.2c-0.4,0.5-0.7,1-1.1,1.4
			c5-2.1,10.1-3.1,15.4-4.3c-0.6-0.6-1.2-1.2-1.8-1.8c-5.6,40-37.8,69.2-75.2,81C329.8,125.7,330.6,128.5,332.5,128L332.5,128z"/>
	</g>
	<g>
		<path class="st5" d="M353.5,283.7c1.1,2.3,1.9,4.7,2.6,7.2c0.5,1.9,3.4,1.1,2.9-0.8c-0.7-2.7-1.7-5.3-2.9-7.9
			C355.3,280.5,352.7,282,353.5,283.7L353.5,283.7z"/>
	</g>
	<g>
		<path class="st5" d="M104.1,290c-1.7-8.4-3.6-16.9-5.6-25.3c-1.2-1.2-2.7-2.2-4-3.3c2.3,8.9,4.3,17.9,6.2,26.9
			c2.5,12,5.1,24,4.6,36.3c-0.1,1.9,2.9,1.9,3,0C108.8,312.9,106.5,301.4,104.1,290z"/>
	</g>
	<g>
		<path class="st5" d="M527.1,262.7c-1.3,1.2-2.6,2.5-3.8,3.8c-3.8,20.2-4.9,40.9-3.2,61.5c0.2,1.9,3.2,1.9,3,0
			C521.3,306.1,522.7,284.1,527.1,262.7z"/>
	</g>
</g>
</svg>
