<?xml version="1.0" encoding="utf-8"?>
<!-- Generator: Adobe Illustrator 19.2.0, SVG Export Plug-In . SVG Version: 6.00 Build 0)  -->
<svg version="1.1" id="Layer_1" xmlns="http://www.w3.org/2000/svg" xmlns:xlink="http://www.w3.org/1999/xlink" x="0px" y="0px"
	 viewBox="0 0 630 410" style="enable-background:new 0 0 630 410;" xml:space="preserve">
<style type="text/css">
	.st0{fill:#efefef;}
	.st1{fill:#bbbbbc;}
	.st2{fill:#7a7b7b;}
	.st3{fill:#433947;}
	.st4{fill:#302D33;}
</style>
<g>
	<g>
		<path class="st0" d="M25.2,315.5c0.2-2,6.2-21.3,6.2-21.3s12-39.2,12.2-40.4c0.2-1.2,6-14.6,6.7-16.3c0.7-1.7,6.5-10.5,6.5-10.5
			l7.1-5.1l15.8-12.2l11.8-6.7l29.7-19.4l19.4-12l46.3-31l20-16l6-17.1l7-25.7l2.5-12.6l14.8,21.1l9.8,11.2l20.1,19.8l23.6,18.2
			l22,11.2l13.1-11.8l15.5-13.2l28.9-27.1l22-23.5l13.4-18.8l10.6,28.1l10.6,44.5l9.4,9l15.8,9.8l7.3,3.4l14.6,10l8.3,5.4l10.8,6
			l15.3,9.1l30.1,18.3l9.2,5.8l21.5,15.1l11.7,13.3l4.4,12.4c0,0,3.9,12.1,4.1,12.8s4.6,16,4.6,16l6,39.2c0,0-101.8,67.8-311.2,67.8
			C127.2,382.7,25.2,315.5,25.2,315.5z"/>
	</g>
	<g>
		<path class="st1" d="M202.4,373c17.8-18.5,30.5-40.5,30.5-40.5s-75.7-75.5-74.6-79.9c1.1-4.3,68.2-55.5,68.2-55.5l10.7,8.9
			l-52.5,39l69.9,86.2l-13.3,12.4L205.3,373C205.3,373,201.9,373.5,202.4,373z"/>
		<path class="st1" d="M220.6,218.7c-1.4-1.2-34.8-33.7-16-90.1c2.7-8.1,1.5,35.4,1.5,35.4l16.8,32l14.3,10.1L220.6,218.7z"/>
		<path class="st1" d="M220.6,198.1c-5.9-8.6,13.7-95.6,29-91.3c7,1.9-5.6-8.7-5.6-8.7l-21.5-28.9l-3.4,17.4l-14.5,42l-0.9,31.9
			l10.5,31.8L220.6,198.1z"/>
		<polygon class="st1" points="312.7,150.7 234.7,208 226.5,197.2 307.2,148 		"/>
		<path class="st1" d="M226.1,116.9c0.5,8.3,23,28.1,23.3,31.1c0.3,3.4-2.2,11.7-7.2,10.6c-5-1.1-20.6-20.7-21-25
			S226.1,116.9,226.1,116.9z"/>
		<path class="st1" d="M224.2,250.4c3.6-10.3,15.7-11.2,15.6-12.5c-1.2-9.5-21.7-0.1-23.8,3.1C213.9,244.2,223.5,252.4,224.2,250.4z
			"/>
		<path class="st1" d="M407.7,111c-2.3,0.7-21,23-27.7,28.6s-24.5,13.2-24.3,17.4c0.2,4.2,9.5,4.2,12.2,3.2
			c7.1-2.5,41.2-35.7,42.4-41.9C411.1,114,410.3,110.2,407.7,111z"/>
		<path class="st1" d="M204.8,180.5c-42-4.8-117,23.7-125.1,29.4s57.5-36.1,57.5-36.1l42.4-28.2l32.3-24.5l-0.3,22.7
			C211.7,143.8,214,181.5,204.8,180.5z"/>
	</g>
	<g>
		<g>
			<path class="st2" d="M219.3,64.5c0.8,6.4,5.5,12.5,9.2,17.6c6.7,9.3,14.4,18,22.4,26.3c16.4,16.9,35.9,35.1,58.7,42.6
				c2.5,0.8,3.5-3.1,1.1-3.9c-21.8-7.1-40.4-24.6-56.1-40.6c-7.7-7.8-15-16.1-21.5-24.9c-3.5-4.7-9.1-11.1-9.8-17.2
				C223,62,219,61.9,219.3,64.5L219.3,64.5z"/>
		</g>
		<g>
			<path class="st2" d="M219.1,64.5c1.4,27.9-15.9,51.9-16.5,79.4c-0.5,23.7,13.3,51.3,33.6,63.9c2.2,1.4,4.2-2.1,2-3.5
				c-10.8-6.7-18.5-17.7-24-29c-5.8-11.7-8.7-24.4-7.2-37.4c2.8-25.2,17.4-47.4,16.1-73.4C223,61.9,219,61.9,219.1,64.5L219.1,64.5z
				"/>
		</g>
		<g>
			<path class="st2" d="M206.3,120.4c-0.6,3.7-5,7-7.6,9.3c-5.7,5-11.9,9.4-18.2,13.7c-17.2,11.9-35,22.8-52.8,33.8
				C110.5,188,93,198.6,76,210c-10.4,7-21.1,13.5-26.7,25c-6.3,12.9-10.9,26.7-15.1,40.3c-4.2,13.3-8.1,26.9-10.9,40.6
				c-0.5,2.5,3.3,3.6,3.9,1.1c5.1-25.2,12.8-50.9,23.1-74.5c2.6-6.1,5.1-11.7,10.1-16c5.2-4.6,10.9-8.5,16.6-12.3
				c34.2-23.2,70.4-43.1,104.5-66.5c6.9-4.7,13.8-9.6,20.1-15.1c3.1-2.8,7.9-6.6,8.6-11C210.6,118.9,206.7,117.9,206.3,120.4
				L206.3,120.4z"/>
		</g>
		<g>
			<path class="st2" d="M62.7,221.8c11.1,19.5,18.5,41.2,24.9,62.6c6.7,22.3,12.1,45.1,15.4,68.2c0.4,2.5,4.2,1.5,3.9-1.1
				c-3.4-23.6-9-46.9-15.9-69.7c-6.4-21.2-13.9-42.7-24.9-62.1C64.9,217.6,61.4,219.6,62.7,221.8L62.7,221.8z"/>
		</g>
		<g>
			<path class="st2" d="M403.5,54.6c-8.1,15.5-19.8,28.2-32.1,40.4c-13,12.8-26.2,25.2-40.1,37c-7.2,6.1-14.6,12.1-22,18
				c-7.7,6.2-16.2,11.2-24,17.3c-15.9,12.2-31.2,25-47.4,36.9c-18,13.2-36.1,26.2-54.1,39.3c-1.1,0.8-1.3,2.1-0.4,3.1
				c24,28.1,46,57.9,69.9,86.2c1.7,2,4.5-0.9,2.8-2.8c-23.9-28.2-45.9-58.1-69.9-86.2c-0.1,1-0.3,2.1-0.4,3.1
				c32.4-23.6,64.8-46.9,96.1-71.9c7.8-6.3,16.3-11.4,24.3-17.4c7.9-6,15.5-12.3,23.1-18.6c14.4-12,28-24.6,41.4-37.6
				c13.8-13.4,27.3-27.3,36.2-44.6C408.1,54.3,404.6,52.3,403.5,54.6L403.5,54.6z"/>
		</g>
		<g>
			<path class="st2" d="M403.6,57.1c4.5,5.4,6.4,14.5,8.6,21c3.4,10.4,6.3,20.9,8.8,31.4c2.3,9.5,3.7,17.5,1.9,27.2
				c-2.4,13-8.7,22.9-16.7,32.9c-7.3,9.1-14.8,18-22.3,26.9c-1.7,2,1.2,4.8,2.8,2.8c7.1-8.5,14.3-16.9,21.2-25.5
				c7.6-9.4,14.2-18.3,17.5-30.2c3-10.6,2.8-20.1,0.5-30.6c-2.4-11.1-5.5-22.1-8.9-33c-2.6-8.3-4.9-19.1-10.6-25.9
				C404.8,52.3,402,55.1,403.6,57.1L403.6,57.1z"/>
		</g>
		<g>
			<path class="st2" d="M424.8,129.7c7.8,9.4,20.1,16,30.3,22.4c16.6,10.5,33.7,20.4,50.6,30.5c16.6,9.8,33.2,19.7,49.1,30.4
				c5.7,3.9,11.5,7.9,16.7,12.5c4.8,4.3,7.6,8.9,9.9,14.9c9,23.4,13.9,49.5,16.6,74.4c0.3,2.5,4.3,2.6,4,0
				c-2.4-22.8-7.1-45.8-14-67.6c-2.2-6.9-4.6-14.8-9.4-20.4c-3.7-4.3-8.4-7.7-13-11.1c-31.4-23.2-66.6-41.3-99.8-61.7
				c-8-4.9-16.1-9.9-23.8-15.3c-5-3.5-10.4-7.1-14.4-11.9C426,124.9,423.2,127.8,424.8,129.7L424.8,129.7z"/>
		</g>
		<g>
			<path class="st2" d="M373.6,208.6c-42.5,44.7-84.5,90.2-130.8,131.1c-13.4,11.9-27.2,23.3-41.4,34.3c-2,1.5,0,5,2,3.5
				c49.3-38,93.2-82.2,136-127.1c12.3-12.9,24.6-25.9,36.9-38.9C378.2,209.5,375.3,206.7,373.6,208.6L373.6,208.6z"/>
		</g>
		<g>
			<path class="st2" d="M461.3,154.9c-0.1,5.3-2.3,10.5-4.5,15.2c-3.4,7.2-7.6,14-11.9,20.6c-12,18.3-25.8,35.5-39.7,52.3
				c-30.1,36.3-62.2,71.1-94.7,105.3c-10.3,10.8-20.7,21.6-31,32.4c-1.8,1.9,1,4.7,2.8,2.8c24.2-25.4,48.5-50.6,72.1-76.5
				c32.1-35.2,64.5-71,91.3-110.4c5.2-7.7,10.2-15.5,14.2-23.9c2.6-5.5,5.3-11.5,5.3-17.7C465.3,152.3,461.3,152.3,461.3,154.9
				L461.3,154.9z"/>
		</g>
		<g>
			<path class="st2" d="M575.3,230.1c-20.5,34.2-32.1,74-36.8,113.5c-0.3,2.5,3.7,2.5,4,0c4.7-38.7,16.2-77.8,36.3-111.4
				C580.1,229.9,576.7,227.9,575.3,230.1L575.3,230.1z"/>
		</g>
		<g>
			<path class="st2" d="M216.1,245.1c2.8-3.1,6.3-5.4,10.3-6.9c1.3-0.5,2.7-0.9,4.1-1.2c0.3-0.1,0.9-0.1,1.2-0.2
				c0.9-0.4,1.2,0.8-0.2-0.5c-0.2-0.6-0.3-1.3-0.5-1.9c0,0,0,0.1,0,0.1c-0.5,2.5,3.3,3.6,3.9,1.1c0.8-3.9-4.7-2.6-6.6-2.1
				c-5.7,1.5-11,4.5-14.9,8.8C211.5,244.2,214.4,247,216.1,245.1L216.1,245.1z"/>
		</g>
		<g>
			<path class="st2" d="M396,121.2c-9.2,10.7-19.6,20.2-31,28.4c-1.6,1.1-0.1,3.7,1.5,2.6c11.7-8.4,22.3-18,31.7-28.9
				C399.4,121.9,397.2,119.7,396,121.2L396,121.2z"/>
		</g>
		<path class="st3" d="M213.9,250.6c-1.8-2.2,0.4-6,2.7-7.6s5.7-1.7,8.1-0.1c0.8,2.4,0.8,5.3-0.5,7.5
			C222.9,252.7,216.6,253.8,213.9,250.6z"/>
		<g>
			<path class="st4" d="M215.6,249.6c-1.1-1.6,0.7-3.9,2-4.9c1.8-1.4,4.2-1.2,6.1-0.1c-0.3-0.4-0.6-0.8-0.9-1.2
				c0.7,2.2,1,5.8-1.6,6.7c-1.9,0.7-4.4,0.6-5.8-1c-1.8-1.9-4.6,0.9-2.8,2.8c2.5,2.7,6.8,3.2,10.2,1.9c4.2-1.6,5.2-6.4,4.3-10.5
				c-1-4.5-7.9-4.3-11.1-2.3c-3.2,2-6.2,6.9-3.7,10.5C213.6,253.7,217.1,251.7,215.6,249.6z"/>
		</g>
		<g>
			<path class="st2" d="M404.1,121.8c-5.1,7.5-11.4,13.9-18.7,19.3c-1.5,1.1,0,3.7,1.5,2.6c7.7-5.7,14.3-12.5,19.7-20.4
				C407.8,121.8,405.2,120.3,404.1,121.8L404.1,121.8z"/>
		</g>
		<g>
			<path class="st2" d="M220.2,126.5c0.4,10.1,9.9,20.2,16.5,27.1c1.3,1.4,3.5-0.7,2.1-2.1c-5.8-6.1-15.3-16-15.6-25
				C223.1,124.6,220.1,124.6,220.2,126.5L220.2,126.5z"/>
		</g>
		<g>
			<path class="st2" d="M226.9,128.3c2.1,4.4,5.3,7.8,8.9,11.1c1.4,1.3,3.6-0.8,2.1-2.1c-3.4-3.1-6.4-6.3-8.4-10.5
				C228.7,125.1,226.1,126.6,226.9,128.3L226.9,128.3z"/>
		</g>
	</g>
</g>
</svg>
