<?xml version="1.0" encoding="utf-8"?>
<!-- Generator: Adobe Illustrator 19.2.0, SVG Export Plug-In . SVG Version: 6.00 Build 0)  -->
<svg version="1.1" id="Layer_1" xmlns="http://www.w3.org/2000/svg" xmlns:xlink="http://www.w3.org/1999/xlink" x="0px" y="0px"
	 viewBox="0 0 130 240" style="enable-background:new 0 0 130 240;" xml:space="preserve">
<style type="text/css">
	.st0{fill:#E54C4E;}
	.st1{fill:#87071F;}
</style>
<g>
	<polygon class="st0" points="54.4,27.7 48.5,22.7 35.5,17.2 28.1,15 13.2,13.3 11.7,19.4 10.7,41 11.7,58.8 13.4,70.4 18.9,69.4 
		29.1,66.6 41.6,61.1 53,53.9 54.9,52.1 57.1,55 62.7,55 72.4,55.5 75,53.9 78.9,56 90.2,63.8 97.3,67.4 106.3,70 112.1,70.4 
		114.3,66 115.5,57 116.7,41.8 117,30.1 117,22 113.9,14.2 109.5,14.3 101.9,17.2 90.6,20.7 80.4,24.2 74.4,27.5 70.9,26.2 
		59.6,27.1 	"/>
	<g>
		<g>
			<path class="st1" d="M55.5,26.6c-12.4-9.6-27.3-14.8-43-14.8c-0.6,0-1.4,0.5-1.4,1.1C8.5,32.2,8.8,51.6,12,70.8
				c0.1,0.9,1.1,1.2,1.8,1c12.4-1.9,24.4-6.3,35-13.1c3.4-2.2,7-4,7.5-8.3c0.8-7.2,0.1-15,0.1-22.2c0-1.9-3-1.9-3,0
				c0,5.7,0,11.5,0,17.2c0,4.1,0.4,6.3-3.3,8.8c-2.1,1.5-4.2,2.8-6.4,4.1c-9.5,5.5-19.9,9-30.7,10.6c0.6,0.3,1.2,0.7,1.8,1
				c-3.1-18.7-3.4-37.6-0.9-56.4c-0.5,0.4-1,0.7-1.4,1.1c14.9,0,29.2,4.9,40.9,14C54.9,29.9,57,27.8,55.5,26.6L55.5,26.6z"/>
		</g>
		<g>
			<path class="st1" d="M76,28.6c7.7-4.9,17.5-7.5,26.3-10c1.7-0.5,10.3-3.8,11.4-2.9c0.6,0.5,0.8,2.2,0.9,2.9
				c1.6,7.8,0.9,16.3,0.5,24.2s-0.8,16-2.4,23.7c-0.1,0.6-0.2,2.2-0.7,2.7c-0.3,0.3-6.1-0.9-6.3-0.9c-1.8-0.4-3.7-0.9-5.4-1.5
				c-8.6-2.9-15.8-8.5-22.9-14c-1.5-1.2-3,1.4-1.5,2.6c6.3,4.8,12.6,9.7,19.9,12.8c3.5,1.5,7.2,2.6,11,3.2c1.6,0.3,5.4,1.3,6.9,0.3
				c3.2-2.1,2.9-10.7,3.3-13.9c1-8.9,1.5-17.8,1.5-26.7c0-4.5,0.9-13.6-2.4-17.4c-0.6-0.7-1.1-1-2-1.2c-1.5-0.2-3.7,0.8-5.1,1.1
				c-2.5,0.6-4.9,1.2-7.4,1.9c-9,2.6-19,5.2-27,10.3C72.8,27.1,74.3,29.7,76,28.6L76,28.6z"/>
		</g>
		<g>
			<path class="st1" d="M55.8,29.2c1.6-1.3,7.4-0.4,9.5-0.4c2.1,0,4.5-0.4,6.6-0.2c0.8,0.1,1.5,0.3,0.8-0.3c0.6,0.6,0.7,1.9,0.9,2.7
				c0.6,2.4,0.8,5.1,0.9,7.6c0.1,2.4,0.1,4.8,0,7.2c-0.1,1.5,0.2,6-0.8,7.1c-1.5,1.7-5.5,0.6-7.5,0.5c-2.4-0.1-8.8,1.3-9.9-1.6
				c-0.7-1.8-3.6-1-2.9,0.8c1.1,2.8,2.9,3.7,5.9,3.9c2.6,0.1,5.2-0.2,7.7,0c2,0.1,4,0.5,6,0.1c5.7-1.2,4.5-10.5,4.5-14.9
				c0-3.5,0.6-14.2-3.7-15.9c-2.6-1-7.2,0.1-9.9,0.1c-3.5,0-7.4-1.1-10.3,1.3C52.2,28.3,54.3,30.4,55.8,29.2L55.8,29.2z"/>
		</g>
		<g>
			<path class="st1" d="M54.1,39.5c-1.2-0.3-2.7,0.3-3.8,0.6c-2.3,0.5-4.6,1.1-6.9,1.2c-0.6,0-2.3,0.3-2.9-0.1
				c-0.7-0.6,0.4-1.8,1.3-2.1c2.5-1,5.5,1.2,8.2,0.5c1.9-0.5,1.1-3.4-0.8-2.9c-3.6,1-7.2-2.4-10.4,0.9c-1.6,1.7-2.4,4.8,0,6.2
				c2.2,1.3,5.4,0.5,7.7,0.2c1.5-0.3,3.1-0.6,4.6-0.9c0.6-0.1,1.2-0.3,1.8-0.4c0.3-0.1,1,0,0.4-0.2C55.1,42.9,55.9,40,54.1,39.5
				L54.1,39.5z"/>
		</g>
		<g>
			<path class="st1" d="M76.1,41.5c3,0.7,6.2,0.9,9.3,1.1c3.2,0.2,7.3,0.6,10.3-0.7c2-0.9,2.8-2.7,1.4-4.6
				c-2.8-3.9-10.4-0.9-14.3-1.1c-1.9-0.1-1.9,2.9,0,3s3.7,0,5.6-0.2c1.1-0.1,5.7-1.5,6.4,0.2c-0.1-0.1-0.7,0.1-1.4,0.3
				c-1.2,0.3-2.4,0.3-3.6,0.3c-4.2,0.1-8.7-0.2-12.8-1.1C75,38.2,74.2,41.1,76.1,41.5L76.1,41.5z"/>
		</g>
		<g>
			<path class="st1" d="M75.5,38.2c1,0.6,2.3,0.5,3.4,0.4c0.8-0.1,1.5-0.6,1.5-1.5c0-0.7-0.7-1.6-1.5-1.5c-0.4,0-0.7,0.1-1.1,0.1
				c-0.1,0-0.2,0-0.3,0c0,0-0.4,0-0.2,0c0.2,0-0.2,0-0.2,0c-0.3,0,0.2,0.1-0.1,0c-0.7-0.4-1.6-0.2-2.1,0.5
				C74.6,36.9,74.8,37.8,75.5,38.2L75.5,38.2z"/>
		</g>
		<g>
			<path class="st1" d="M54.5,36.9c-1-0.3-2-0.3-3-0.1c-0.8,0.2-1.3,1.1-1,1.8c0.2,0.8,1.1,1.2,1.8,1c0.4-0.1,0.9-0.1,1.4,0.1
				c0.7,0.2,1.7-0.3,1.8-1C55.8,38,55.3,37.2,54.5,36.9L54.5,36.9z"/>
		</g>
	</g>
</g>
</svg>
