<?xml version="1.0" encoding="utf-8"?>
<!-- Generator: Adobe Illustrator 19.2.0, SVG Export Plug-In . SVG Version: 6.00 Build 0)  -->
<svg version="1.1" id="Layer_1" xmlns="http://www.w3.org/2000/svg" xmlns:xlink="http://www.w3.org/1999/xlink" x="0px" y="0px"
	 viewBox="0 0 323 353" style="enable-background:new 0 0 323 353;" xml:space="preserve">
<style type="text/css">
	.st0{fill:#C47546;}
	.st1{fill:#F9BE72;}
	.st2{fill:#814927;}
	.st3{fill:#3A291D;}
</style>
<g>
	<g>
		<path class="st0" d="M147.6,276.1l-0.2-0.1v-0.1l-0.1-0.2v-0.2l-0.1-0.4c-2.1-8.1-10-9.4-16.4-10.4l-1-0.2
			c-4.4-0.7-8.3-2.4-12.1-5.2l-0.8-0.6l-0.6,0.2c-0.4-0.4-0.7-0.8-1.1-1.3c-1.8-2-3.8-4.3-6.6-5.4c-1.2-0.5-2.5-0.8-3.7-1.2
			c-1.4-0.4-2.8-0.8-4.1-1.4c-0.9-0.4-1.9-1-2.8-1.6l-0.3-0.2h-0.2l-0.1-0.2l-0.4-0.3c-2.5-2-4.4-4.6-6-7.1l0.5-0.2l0.3-0.5l0,0
			c0-1.5-0.7-3.1-0.6-4.8l-0.2-1.5l-1.3-0.4l-0.2-0.4L89,232c-2.3-1.7-4.1-3.9-5.3-6.6l-0.5-1.2h-1.1c-1.6-1.5-3-3.1-4.1-4.9
			c-0.4-0.7-0.9-1.5-1.3-2.3c-0.6-1.1-1.1-2.1-1.8-3.2l-1.2-1.8l-1,0.8c-1.2-5.7-3-9.7-5.9-13.7c-2.1-2.8-2.7-5.4-3.5-9.4
			c-0.8-4.1-2.5-6.5-6.1-8.6c-0.4-0.2-0.8-0.4-1.2-0.6c-0.6-0.3-1.1-0.5-1.4-0.8c-1.5-1.4-2.2-4.1-2.9-6.5c-0.2-0.7-0.4-1.5-0.6-2.1
			l-0.6-1.7c-1.2-3.9-2.5-7.9-2.9-11.9c-0.2-2.1-0.1-4.3-0.1-6.5c0.1-2.3,0.1-4.7-0.1-7.2c-0.2-2-0.6-3.8-1.1-5.5
			c-0.6-2.3-1.1-4.5-1-7.1c0.3-4.2,0.7-8.9,1.4-14.1l0.1-0.1l0.3,0.1h0.1c0.9,3,1.3,6,1.7,9.2l0.1,0.6c0.1,0.4,0.1,0.8,0.2,1.2
			c0.5,3.7,1.1,8.8,4.4,10.8c1,0.6,2,0.9,2.9,1.1c1,0.3,1.7,0.5,2.3,1c0.8,0.8,1.4,2,1.9,3.2c0.4,1,0.9,2,1.5,2.9
			c0.7,1.1,1.5,2.1,2.2,3c1.2,1.6,2.4,3.1,3.2,4.8c0.6,1.2,1.1,2.4,1.6,3.7s1,2.6,1.7,3.9c0.3,0.5,0.5,1.1,0.7,1.6
			c1.2,2.6,2.4,5.3,6,6.6c2.4,0.9,4.9,1.4,7.3,2c1,0.2,2,0.5,3,0.7l2.2,0.5l0.3-2.2c0.2-2,1.1-3.8,2.4-5.1l2.4,0.4l-0.4-2.6
			c-0.2-1.8-0.2-3.6-0.1-5.4l0.1-1l-0.5-0.4c3.9-7.2,11.3-12.5,18-17.2l0.8-0.5c1.6-1.1,3.2-1.3,5.1-1.6c1.7-0.2,3.4-0.5,5.2-1.3
			c1.5-0.7,2.9-1.6,4.3-2.4c2.2-1.4,4.3-2.7,6.6-3.1c5.1-1,9.5-1.5,13.8-1.5c0.8,0,1.5,0,2.3,0h0.5l0.1-0.1h0.1h0.4
			c2,0.1,3.9,0.3,5.9,0.7c1.6,0.3,3.3,0.4,5.1,0.4c2,0,3.9-0.2,5.8-0.3c1.9-0.1,3.8-0.3,5.8-0.3h0.5l0.5,0.3l0.7-0.1
			c3.4,0.3,6,1.3,9.1,2.9c2.5,1.3,5.1,1.9,7.5,2.5c1.8,0.4,3.5,0.8,5.1,1.5c1.7,0.7,3.4,1.6,5.1,2.6c1.9,1,3.8,2.1,5.9,2.9
			c1,0.4,2,0.7,2.9,0.9c2.1,0.6,4,1.2,5.7,2.5c1.9,1.5,3.3,3.4,4.2,5.6c0.4,1,0.5,1.9,0.7,3c0.1,0.8,0.2,1.6,0.4,2.6
			c0.5,2.1,1.5,3.4,2.4,4.8c0.3,0.4,0.6,0.9,0.9,1.4c1.3,2.1,2.1,4.5,2.9,7c0.2,0.7,0.4,1.3,0.7,2c1.7,4.8,3.7,9.5,6.1,14.6l1.2,2.5
			l2-2c2.7-2.7,4.6-6.4,6.4-9.7c0.5-0.9,0.9-1.7,1.3-2.5c0.4-0.8,0.9-1.6,1.4-2.4c1.9-3.3,3.9-6.8,5-10.4l0.2-0.6v-0.1l0.5-0.4v-0.9
			c0-1.4,0.3-2.8,0.6-4.3c0.3-1.6,0.6-3.2,0.6-4.8c0.1,0.1,1.7,1.4,1.7,1.4l1.3-1.4c2.1-2.4,3.1-5.1,4.1-7.8l0.3-0.9l-0.1-0.2
			l0.2-0.1l0.4-1.1c0.5-1.3,1.1-2.6,1.8-3.9c0.9-1.8,1.7-3.6,2.4-5.6c0.6-1.6,1.2-3.4,1.8-5.5l0.2-0.6l-0.1-0.4l0.3-0.2l0.2-0.6
			c1-3.3,1.9-6.6,2.8-9.8l0.6-2.1c0.8,6.3,1.3,12.6,1.4,18.5v0.5l0.1,0.2v0.1l-0.1,0.5c0,0.9,0,1.9,0,2.8c0,2.6-0.1,5.2-0.7,7.7
			c-0.2,1.1-0.5,2.1-0.8,3.1c-0.7,2.6-1.5,5.3-1.4,8.3l-0.6,0.6l0.3,1.2c0.4,1.7,0.7,3.4,0.6,5v0.5l0.1,0.2l-0.1,0.1v0.2h-0.4
			l-0.6,0.6c-1.3,1.2-2.4,2.4-3.3,3.7l-0.7,0.5l-0.1,0.9c-0.1,0.7-0.2,1.3-0.5,1.7l-0.4,0.3l-0.2,0.4c-0.1,0.3-0.2,0.6-0.3,0.9
			c0,0.1-0.1,0.2-0.1,0.3l-1.8,4.2l-1.1,0.7l0.4,1.3c0.3,1,0.6,1.8,0.8,2.8h-0.8l-0.6,1.3c-0.4,0.8-0.9,1.8-1.3,2.5
			c-0.4,0.6-0.7,1.2-0.9,1.6c-2.7,5.5-4.8,9.7-6.9,13.5c-1,1.9-2.6,3.5-4.4,5.2c-0.9,0.9-1.9,1.8-2.7,2.8c-0.6,0.7-1.2,1.4-1.9,2.1
			c-2.8,3.2-5.8,6.4-8,10l-0.4,0.6l0.1,0.7c0.3,2.5,0.2,4.6-0.4,6.3l-0.6-0.4l-1.2,0.7c-2.5,1.6-4.5,2.9-7.1,3l-1.1-0.2l-0.7,0.8
			c-0.7,0.7-1.6,1.3-2.6,1.8l-0.3,0.2c-0.7,0.3-1.4,0.7-2,0.8l-1.7,0.2v1.7c0,5.1-1.5,9.8-4.2,13.5l-0.4-0.1l-0.5,0.2l-2.7,0.3
			l0.4,0.8c-0.3,0.1-0.6,0.3-0.9,0.4c-0.9,0.3-1.9,0.6-3,0.8l-1.3,0.2l-0.3,1.3c-0.2,0.5-1.2,0.9-2.1,1.2c-0.3,0.1-0.5,0.2-0.8,0.3
			c-1.6,0.7-3.2,1-4.7,1c-0.2,0-0.4,0-0.7,0l-1.5-0.4l-0.7,1.4c-1.2,2.4-2.7,4.7-4.3,6.9l-1.1-0.1l-0.4,1.5c-0.6,1.9-1.3,3.7-2,5.6
			h-0.9c-3.8,0-7.6-0.4-11.2-1.1l-1.4-0.3l-0.7,1.2c-0.2,0.3-0.4,0.7-0.6,1h-0.2c-0.7,0.1-1.5,0.2-2.2,0.2c-0.9,0-1.7-0.1-2.6-0.2
			l-1.7-0.3l-1,2.8l0.1,0.3l-2,0.2c-4.8,0.6-9.8,1.3-14.8,1.4L147.6,276.1z M183.1,214.7l0.8,1.3l1.3-0.4c1.5,0.2,2.8,0.3,4.1,0.3
			c3.3,0,5.8-1,8.3-3.1c0.2-0.2,0.4-0.3,0.5-0.5l0.4-0.3l0.1-0.1l0.1-0.1l0.5-0.5c1-1,2-1.9,3.1-2.6h0.1l0.4-0.3l0.1-0.1h0.2
			l0.4-0.3c1.7-1.1,3.5-2.1,5.2-3.1c2.8-1.6,5.7-3.3,8.4-5.3l1.2-0.9l-0.4-1.4c-0.8-2.4-2.3-4.3-3.8-6.2c-1.4-1.8-2.7-3.5-3.3-5.5
			c-0.5-1.7-0.8-3.7-0.9-6.2c0-0.5,0-1,0-1.5c0.1-1.6,0.2-3.5-1.3-4.9c-1.7-1.5-4.5-2.3-7-2.9c-0.7-0.2-1.4-0.4-2-0.6
			c-3.9-1.3-7.9-2.4-10.8-3.3c-2.4-0.7-4.9-1.3-7.3-2c-3.1-0.8-6.4-1.7-9.5-2.6c-1.6-0.5-3.1-1.2-4.8-1.9c-2.1-1-4.4-2-6.8-2.5
			c-1.2-0.3-2.6-0.4-3.9-0.4c-4.7,0-10,1.6-14.6,4.5l0,0h-0.3c-0.2,0-0.4,0-0.7,0c-1.4,0-2.8,0.1-4.1,0.2c-1.3,0.1-2.6,0.2-3.8,0.2
			c-0.2,0-0.5,0-0.7,0h-0.9c-0.8,0-1.6-0.1-2.4-0.1c-1.7,0-3.9,0.1-6.2,0.9l-0.6,0.2L122,163c-3,0.9-5.8,2.1-8.5,3.7l-0.7,0.4
			l-0.3,0.6c-0.6,1.4-1.5,2.6-2.7,3.7l-2.5,2.3l2.5,0.8c-0.5,0.9-1,1.9-1.5,2.8c-0.9,1.8-1.8,3.5-3,4.9l-1.3,1.5l1.2,1l-0.1,0.4
			l0.3,0.5l-3.5,4.3l2.4,1.1c0.7,0.3,1.4,0.7,2,1v0.4l0.5,0.6c3.3,7.2,8.7,10.5,13.6,12.7l0.2,0.1h0.1l0.1,0.1l0.2,0.1
			c0.7,0.3,1.4,0.6,2.1,0.9l0.2,0.1c1.2,0.5,2.4,1,3.6,1.4l1,0.4l0.3-0.2l0.1,0.4l1.1,0.4c4,1.4,7.3,2,10.7,2c0.4,0,0.9,0,1.3,0
			l2.5,0.7l-0.1-2.7c-0.3-9.6,0.2-17.5,1.9-24.7l0,0c4.2-1.7,9.2-2,13.9-2h1c0.6,0,1.2,0,1.9,0s1.5,0,2.4,0c1,0,3.9,0,5.3,0.8
			c1.3,0.8,2.1,4.7,2.5,6.8c0.2,0.8,0.3,1.5,0.4,2.1c1.7,6.5,3,13.4,4.1,20.5l0.4,2.4l2.3-0.8c0.9-0.3,1.7-0.6,2.4-0.9v0.2l0.7,0.6
			L183.1,214.7z"/>
		<path class="st1" d="M261.8,179.9C261.9,179.7,261.8,179.7,261.8,179.9L261.8,179.9z"/>
	</g>
	<g>
		<path class="st2" d="M271.5,121.5c0.3,0.2,0.7,0.4,1.1,0.6c0.2,2,0.3,4,0.3,6c-0.8-0.9-1.7-1.8-2.6-2.5
			C270.7,124.2,271.1,122.9,271.5,121.5z"/>
		<path class="st2" d="M134.5,211.8c-8.2,8.1-13.7,19-16.7,30.5c1-11.4,4.4-22.5,10.7-32.1C130.4,210.9,132.4,211.5,134.5,211.8z"/>
		<path class="st2" d="M104.7,147.7c2.1-1.8,4.4-3.4,6.6-4.9c-1.1,3-1.7,6.4-2,8.2c-0.8,5.1-2,12.8,2.1,16.8
			c-0.6,1.2-1.5,2.3-2.5,3.2c-6.2-6.1-6.2-13.5-4.1-22.2C104.9,148.4,104.8,148,104.7,147.7z"/>
		<path class="st2" d="M174.3,131.9c4,5.5,5.3,12,5.1,18.8c-0.1,3.2-0.3,8.3-2.3,11.2c-2-0.6-3.8-1.2-5.7-1.9
			c1.7-6.1,2.6-12.4,2.3-18.8c-0.2-2.9-0.2-6.8-1.8-9.4c0.8-0.1,1.5-0.1,2.3-0.1C174.1,131.8,174.2,131.9,174.3,131.9z"/>
		<path class="st2" d="M227.8,170.4c-0.3,0.2-0.5,0.6-0.5,1.1c0.4,7.5-6.9,15.2-12.1,19.9c-0.5-0.6-0.9-1.2-1.4-1.8
			c-0.4-0.7-0.8-1.3-1.2-2c3.7-3.6,6.5-7.8,8.8-12.3c1.6-3.1,3.3-6.3,4-9.7c0.3,0.5,0.7,1.1,0.9,1.7
			C226.9,168.2,227.4,169.3,227.8,170.4z"/>
		<path class="st2" d="M218.6,149.3c0.4,0.5,0.7,1,1,1.5c0.2,8.1-3.3,15.4-9.7,20.2c-0.1,0-0.2,0.1-0.2,0.1
			c-0.3,0.2-0.6,0.4-0.9,0.6c-0.7-0.3-1.3-0.6-2-1c6.1-6.8,8.5-16.1,6.5-25C215.2,146.5,217,147.5,218.6,149.3z"/>
		<path class="st2" d="M199.8,139.8c2.2,3.6,2.2,8.8,2.1,12.8c-0.1,4.7-0.6,10.9-4.4,14.3c-0.1,0.1-0.2,0.2-0.3,0.3
			c-2.4-0.7-4.8-1.4-7.2-2c4.3-7.8,4.5-19.9,0.5-28.1c2.1,0.4,4.3,0.7,6.4,1.4C197.9,138.9,198.8,139.3,199.8,139.8z"/>
		<path class="st2" d="M149.2,130.8c-2,5-2.7,10.1-2.7,15.5c0,2.9,0.1,7.8,2.1,10.7c-2.2,0.7-4.3,1.7-6.4,2.9
			c-5.6-7.3-3.2-21.6,2.2-28.3c0.2-0.2,0.3-0.5,0.3-0.7C146.2,130.9,147.7,130.8,149.2,130.8z"/>
		<path class="st2" d="M131.7,134.1c-3.1,4.1-5.2,8.9-6,14.2c-0.6,4.1-1.1,9,1.4,12.3c-1.6,0.1-3.2,0.4-4.8,1
			c-2.9-0.2-2.4-10.1-2.2-11.6c0.4-3.7,0.8-9.1,3.9-11.6c0.1-0.1,0.1-0.1,0.2-0.2c0.4-0.2,0.7-0.4,1.1-0.6
			C127.5,136.2,129.5,135,131.7,134.1z"/>
		<path class="st2" d="M93.6,167.9c1.4,6.7,5.2,12.6,10.8,17.5c-0.5,0.6-1,1.3-1.5,1.9c-4.6-3-10.1-8.9-10.7-14.4
			c0-0.4-0.2-0.8-0.5-1C91.9,170.4,92.5,169,93.6,167.9z"/>
		<path class="st2" d="M80.7,173.1c-6.9,3.4-13,11.2-16,18.4c-0.1-0.4-0.1-0.7-0.2-1.1c-0.4-2.3-1-4.7-2.3-6.7
			c0.4-2.6,2.2-5.2,3.6-7.1c2-2.7,4.7-5.8,8.2-6.2c0.5,0.5,1.1,1,1.9,1.3C77.5,172.3,79.1,172.7,80.7,173.1z"/>
		<path class="st2" d="M47,126.4c0.3-0.1,0.6-0.2,0.8-0.4c0.1,1.1,0.3,2.2,0.4,3.2c-0.3,0.1-0.6,0.3-0.8,0.6c-0.3,0.5-0.6,1-0.9,1.5
			C46.7,129.6,46.8,128,47,126.4z"/>
		<path class="st2" d="M51.5,138.7c-1.2,1.1-2.3,2.4-3.1,3.9c-0.4-2.2-1-4.2-1.4-6.3c0,0,0,0,0-0.1c0.6-1.1,1.3-2.1,1.9-3.2
			c0.5,1.9,1.2,3.7,2.2,5.3C51.3,138.5,51.4,138.6,51.5,138.7z"/>
		<path class="st2" d="M52.8,173c-0.9-2.9-2-5.9-2.8-8.9c2.7-6.8,5.8-13.3,9.6-19.5c1.1,1.6,2,3.3,3.3,5.1c0.7,1,1.4,2,2,3
			c-0.1,0.1-0.3,0.2-0.4,0.4c-5.2,7.2-8.6,15.3-10.3,23.9C53.7,175.9,53.3,174.7,52.8,173z"/>
		<path class="st2" d="M71.5,204.5L71.5,204.5c1.4-7,10.3-12.3,17.6-13.9c-6.6,5-12.4,11.9-16,19.1
			C72.7,207.9,72.2,206.2,71.5,204.5z"/>
		<path class="st2" d="M93,239.9L93,239.9c-2-14.7,6.4-30.6,17.2-40.2c0.7,0.8,1.2,1.5,1.9,2.2c-10.1,11.9-15.5,26.9-15.8,42.5
			C95.1,243.2,94,241.7,93,239.9z"/>
		<path class="st2" d="M139,265.4c-0.8-0.3-1.5-0.5-2.3-0.7c-8.3-15.2-0.7-34.9,5.2-50.2c0.3,5,0.8,10,1.3,14.9
			c1.2,11.9,4.3,26.5,0,38.1C142.1,266.7,140.6,266,139,265.4z"/>
		<path class="st2" d="M179.7,217.4c-0.1-0.6-0.2-1.2-0.3-1.9c0.8-0.3,1.6-0.6,2.4-0.9c11.1,17.3,11.9,36.7,4.3,55.4
			c-3.5,0-7-0.3-10.4-1C183.3,253.6,181.9,233.9,179.7,217.4z"/>
		<path class="st2" d="M197.9,255.2C197.9,255.2,197.8,255.2,197.9,255.2c5.3-12.9,5-27.8-1.6-40.4c0.6-0.4,1.3-0.9,1.9-1.4
			c4.5,3.7,7,10.2,8.4,15.6c2.1,8.2,1.6,16.8-2.7,24.2c0,0,0,0,0,0.1C202.2,254.4,200.1,255.1,197.9,255.2z"/>
		<path class="st2" d="M222,232.3c-0.4,0.2-1.5,0.9-2.1,1c-0.9-10-6.5-20.1-14.3-25.5c1.5-1,3.1-1.9,4.7-2.8
			c0.1,0.2,0.2,0.3,0.3,0.5c3.1,3.1,7,4.9,10.2,7.9c4.5,4.4,7.5,11.6,2.9,17.2c-0.2,0.2-0.3,0.5-0.3,0.8
			C223,231.7,222.5,232,222,232.3z"/>
		<path class="st2" d="M245.6,206.9c-0.2-2.2-0.7-4.4-1.2-6.3c-1-3.8-2.4-8-5.4-10.6c-0.1-0.1-0.2-0.1-0.2-0.2
			c1.6-1.3,2.9-3,4.1-4.9c3.5,4.7,6.5,9.9,9,15.2c-0.1,0.2-0.2,0.4-0.4,0.5C250.2,202.4,247.7,204.7,245.6,206.9z"/>
		<path class="st2" d="M261.5,180.5c-0.5,0.6-0.7,1.6-1.1,2.3c-0.4,0.9-0.8,1.7-1.3,2.6c-1.2-5.5-4.3-10.3-8.9-13.8
			c1.2-2.1,2.3-4.3,3.2-6.5c4,4.1,6.9,9.1,8.4,14.6c0,0.3,0,0.5,0.2,0.8c-0.1-0.3-0.2-0.5-0.2-0.6
			C261.8,180.1,261.7,180.3,261.5,180.5z"/>
		<path class="st2" d="M268,164.5c-0.4-1.7-1-3.3-1.5-4.4c-1.8-3.7-4.8-5.5-7.8-7.7c1.6-1.9,2.6-4,3.5-6.3c0.1-0.2,0.2-0.4,0.2-0.6
			c4.7,4.4,8.1,9.7,8,16.3c-0.2,0.1-0.4,0.3-0.5,0.5C269.3,163.1,268.7,163.8,268,164.5z"/>
		<path class="st2" d="M261.8,179.9C261.9,179.7,261.8,179.7,261.8,179.9L261.8,179.9z"/>
	</g>
	<g>
		<g>
			<path class="st3" d="M157.1,131.3c-2.3,7.3-4.9,17.2-2.7,24.9c0.5,1.9,3.4,1.1,2.9-0.8c-2-7.1,0.5-16.4,2.7-23.3
				C160.6,130.2,157.7,129.5,157.1,131.3L157.1,131.3z"/>
		</g>
		<g>
			<path class="st3" d="M150.1,128.8c-2.6,5.7-3.5,11.3-3.5,17.5c0,3.6,0.1,10.5,4,12.4c0.9,0.4,1.8,0.1,2.2-0.9
				c0-0.1,0.1-0.2,0.1-0.2c0.2-0.6-0.2-1.4-0.7-1.7c-0.1,0-0.1-0.1-0.2-0.1c-1.7-1-3.2,1.6-1.5,2.6c0.1,0,0.1,0.1,0.2,0.1
				c-0.2-0.6-0.5-1.1-0.7-1.7c0,0.1-0.1,0.2-0.1,0.2c0.7-0.3,1.5-0.6,2.2-0.9c-3.3-1.6-2.6-9.1-2.5-12.2c0.2-4.8,1.1-9.3,3.1-13.6
				C153.5,128.6,150.9,127.1,150.1,128.8L150.1,128.8z"/>
		</g>
		<g>
			<path class="st3" d="M142.3,129.6c-6.7,8.2-9.2,25-1.5,33.3c1.3,1.4,3.4-0.7,2.1-2.1c-6.4-7-4-22.2,1.5-29.1
				C145.6,130.2,143.5,128.1,142.3,129.6L142.3,129.6z"/>
		</g>
		<g>
			<path class="st3" d="M134.8,130.5c-4.9,4.9-8.1,10.9-9.1,17.8c-0.8,4.9-1.4,11.1,3.3,14.1c1.6,1.1,3.1-1.5,1.5-2.6
				c-4.2-2.7-2.1-11.3-1-15c1.4-4.7,4-8.7,7.4-12.2C138.3,131.3,136.1,129.2,134.8,130.5L134.8,130.5z"/>
		</g>
		<g>
			<path class="st3" d="M121.8,136.4c-4.6,3.6-5,11.6-5,16.9c0,3.3,0.7,11.8,5.6,11.3c1.9-0.2,1.9-3.2,0-3
				c-3.1,0.3-2.6-10.1-2.5-11.6c0.4-3.7,0.8-9.1,3.9-11.6C125.4,137.4,123.3,135.3,121.8,136.4L121.8,136.4z"/>
		</g>
		<g>
			<path class="st3" d="M116.3,137.3c-4.9,0.2-6.6,10.1-7.1,13.7c-0.8,5.3-2.2,13.4,2.6,17.2c1.5,1.2,3.6-0.9,2.1-2.1
				c-3.5-2.8-2.5-8.6-2.1-12.5c0.2-1.8,1.7-13.2,4.4-13.3C118.3,140.2,118.3,137.2,116.3,137.3L116.3,137.3z"/>
		</g>
		<g>
			<path class="st3" d="M101.9,148c-1.3,5.7-2.7,11.7-0.6,17.3c1.6,4.3,4.7,7.5,8.3,10.2c1.5,1.2,3-1.4,1.5-2.6
				c-8.4-6.4-8.6-14.5-6.3-24.1C105.2,146.9,102.3,146.1,101.9,148L101.9,148z"/>
		</g>
		<g>
			<path class="st3" d="M93.2,157.2c-1.6,11.5,2.9,21.2,11.5,28.6c1.5,1.2,3.6-0.9,2.1-2.1C99,177.1,94.6,168.5,96,158
				C96.4,156.1,93.5,155.3,93.2,157.2L93.2,157.2z"/>
		</g>
		<g>
			<path class="st3" d="M89.1,173c0.7,7,7.1,14,12.9,17.4c1.7,1,3.2-1.6,1.5-2.6c-4.8-2.8-10.9-9-11.5-14.8
				C92,171.1,88.9,171.1,89.1,173L89.1,173z"/>
		</g>
		<g>
			<path class="st3" d="M106.6,191.5c-12.6,4.3-23.5,19.4-25,32.5c-0.2,1.9,2.8,1.9,3,0c1.3-11.6,11.7-25.8,22.8-29.6
				C109.2,193.7,108.4,190.8,106.6,191.5L106.6,191.5z"/>
		</g>
		<g>
			<path class="st3" d="M108.4,196.9c-11.7,10-21,27.2-19.3,42.9c0.2,1.9,3.2,1.9,3,0c-1.6-15,7.2-31.3,18.4-40.8
				C112,197.8,109.9,195.7,108.4,196.9L108.4,196.9z"/>
		</g>
		<g>
			<path class="st3" d="M112.5,201.2c-11.4,13.1-17.3,29.8-16.7,47.2c0.1,1.9,3.1,1.9,3,0c-0.6-16.5,4.9-32.6,15.8-45
				C115.9,201.9,113.8,199.7,112.5,201.2L112.5,201.2z"/>
		</g>
		<g>
			<path class="st3" d="M119.9,204.4c-11.2,12.4-17.2,33.4-11,49.3c0.7,1.8,3.6,1,2.9-0.8c-5.8-15-0.3-34.8,10.2-46.4
				C123.3,205.1,121.2,203,119.9,204.4L119.9,204.4z"/>
		</g>
		<g>
			<path class="st3" d="M127,206.9c-10.4,14.8-14,33.8-12,51.6c0.2,1.9,3.2,1.9,3,0c-2-17.3,1.4-35.7,11.6-50.1
				C130.8,206.9,128.2,205.4,127,206.9L127,206.9z"/>
		</g>
		<g>
			<path class="st3" d="M136.3,210.1c-13.2,11.7-19.9,30.4-21,47.7c-0.1,1.9,2.9,1.9,3,0c1.1-16.5,7.5-34.4,20.1-45.6
				C139.8,211,137.7,208.9,136.3,210.1L136.3,210.1z"/>
		</g>
		<g>
			<path class="st3" d="M140.2,210.8c-6.4,16.5-15.5,38.5-5.9,55.6c0.9,1.7,3.5,0.2,2.6-1.5c-9.1-16.2,0.1-37.6,6.2-53.3
				C143.8,209.8,140.9,209,140.2,210.8L140.2,210.8z"/>
		</g>
		<g>
			<path class="st3" d="M143.7,183.9c-3.4,14.9-1.9,30.4-0.4,45.5c1.2,12.2,4.4,27.2-0.3,38.9c-0.7,1.8,2.2,2.6,2.9,0.8
				c4.5-11.2,1.8-25.2,0.7-36.8c-1.6-15.7-3.5-32,0-47.6C147,182.8,144.1,182,143.7,183.9L143.7,183.9z"/>
		</g>
		<g>
			<path class="st3" d="M145.5,185.7c5.1-2.1,11.1-2.2,16.6-2c2.3,0.1,4.8,0,7,0.6c1.3,0.3,0.1-0.7,0.6,0.6c2.5,6.2,3.7,13.4,4.9,20
				c2.2,11.1,3.6,22.5,3.6,33.8c0,11.2-1.2,23.3-7.3,33c-1,1.6,1.6,3.1,2.6,1.5c10.2-16.2,8.6-38.4,6.1-56.5
				c-1.1-8.3-2.7-16.6-4.8-24.7c-0.7-2.7-1.2-8.6-3.9-10.2c-2.6-1.5-7.8-1-10.6-1c-5.2,0-10.8,0.1-15.7,2.1
				C143,183.6,143.7,186.5,145.5,185.7L145.5,185.7z"/>
		</g>
		<g>
			<path class="st3" d="M159.7,182.7c-1.5,13.3,2.7,26.9,5.1,39.8c3.2,17.4,4.5,35-1.6,52c-0.7,1.8,2.2,2.6,2.9,0.8
				c5.7-15.9,5.2-32.5,2.4-48.9c-2.4-14.3-7.4-29.1-5.8-43.7C163,180.8,160,180.8,159.7,182.7L159.7,182.7z"/>
		</g>
		<g>
			<path class="st3" d="M154,183.3c-4.2,15.7-1.6,32.3-0.3,48.2c1.1,13.9,3.5,32.9-7.9,43.4c-1.4,1.3,0.7,3.4,2.1,2.1
				c10.8-9.9,10.1-26.6,9.2-40c-1.1-17.3-4.8-35.7-0.2-52.9C157.4,182.3,154.5,181.5,154,183.3L154,183.3z"/>
		</g>
		<g>
			<path class="st3" d="M181.8,214.6c11.4,17.7,11.9,37.6,3.8,56.7c-0.7,1.8,1.8,3.3,2.6,1.5c8.5-20.1,8.2-41-3.8-59.7
				C183.4,211.5,180.8,213,181.8,214.6L181.8,214.6z"/>
		</g>
		<g>
			<path class="st3" d="M193.2,215.4c8.5,15.3,6.9,34.5-3.8,48.4c-1.2,1.5,1.4,3,2.6,1.5c11.3-14.7,12.7-35.2,3.8-51.4
				C194.8,212.1,192.3,213.7,193.2,215.4L193.2,215.4z"/>
		</g>
		<g>
			<path class="st3" d="M197.4,212.8c5.1,3.5,7.8,10.5,9.2,16.3c2.1,8.2,1.6,16.8-2.7,24.2c-1,1.7,1.6,3.2,2.6,1.5
				c4.6-8.1,5.2-17.5,3-26.5c-1.7-6.6-4.8-14.1-10.6-18C197.3,209.1,195.8,211.7,197.4,212.8L197.4,212.8z"/>
		</g>
		<g>
			<path class="st3" d="M201.8,209c13.1,7,20.4,28.1,11,40.6c-1.2,1.5,1.4,3,2.6,1.5c10.4-13.8,2.3-37-12-44.7
				C201.6,205.5,200.1,208.1,201.8,209L201.8,209z"/>
		</g>
		<g>
			<path class="st3" d="M210.6,205.5c3.1,3,7,4.9,10.2,7.9c4.6,4.4,7.5,11.6,2.9,17.2c-1.2,1.5,0.9,3.6,2.1,2.1
				c3.6-4.4,4.1-10,1.7-15.2c-3.2-6.8-9.7-9.2-14.7-14.2C211.4,202,209.3,204.1,210.6,205.5L210.6,205.5z"/>
		</g>
		<g>
			<path class="st3" d="M218.2,199.6c5,2.2,9.2,5.6,12.2,10.2c2.6,4.1,6.3,13,3.8,17.9c-0.9,1.7,1.7,3.2,2.6,1.5
				c2.7-5.1,0.2-13.4-2.2-18.2c-3.1-6.3-8.4-11.1-14.8-14C218,196.3,216.4,198.8,218.2,199.6L218.2,199.6z"/>
		</g>
		<g>
			<path class="st3" d="M162.4,132.2c-0.3,8.4-0.7,16.8-1.2,25.2c-0.1,1.9,2.9,1.9,3,0c0.5-8.4,0.9-16.8,1.2-25.2
				C165.5,130.3,162.5,130.3,162.4,132.2L162.4,132.2z"/>
		</g>
		<g>
			<path class="st3" d="M168.5,132.6c2.8,2.5,2.2,9.2,2.2,12.4c-0.1,5.2-1,10.3-2.5,15.3c-0.6,1.9,2.3,2.6,2.9,0.8
				c2-6.5,2.9-13.1,2.6-19.8c-0.2-3.4-0.2-8.3-3-10.8C169.2,129.2,167.1,131.3,168.5,132.6L168.5,132.6z"/>
		</g>
		<g>
			<path class="st3" d="M174.2,131.9c4,5.5,5.3,12,5.1,18.8c-0.1,3.4-0.3,8.6-2.5,11.5c-1.2,1.5,1.4,3,2.6,1.5
				c2.5-3.3,2.7-9.1,2.9-13c0.3-7.2-1.2-14.4-5.5-20.3C175.7,128.9,173.1,130.4,174.2,131.9L174.2,131.9z"/>
		</g>
		<g>
			<path class="st3" d="M186.5,136c5.2,7.8,5.1,21.6,0,29.2c-1.1,1.6,1.5,3.1,2.6,1.5c5.7-8.5,5.8-23.6,0-32.3
				C188,132.9,185.4,134.4,186.5,136L186.5,136z"/>
		</g>
		<g>
			<path class="st3" d="M199.7,139.7c2.3,3.6,2.2,8.9,2.1,12.9c-0.1,4.7-0.6,10.9-4.4,14.3c-1.5,1.3,0.7,3.4,2.1,2.1
				c4.2-3.6,5-10,5.2-15.2c0.2-4.9,0.2-11.3-2.5-15.6C201.3,136.6,198.7,138.1,199.7,139.7L199.7,139.7z"/>
		</g>
		<g>
			<path class="st3" d="M209.8,144.5c2.7,9,0.5,18.4-6,25.1c-1.3,1.4,0.8,3.5,2.1,2.1c7.3-7.5,9.9-18.1,6.8-28
				C212.1,141.9,209.2,142.7,209.8,144.5L209.8,144.5z"/>
		</g>
		<g>
			<path class="st3" d="M219.6,150.6c0.3,8.6-3.7,16.5-10.9,21.2c0.5,0.9,1,1.7,1.5,2.6c0.3-0.2,0.6-0.5,0.9-0.7
				c1.5-1.1,0-3.7-1.5-2.6c-0.3,0.2-0.6,0.5-0.9,0.7c-1.5,1.1-0.1,3.7,1.5,2.6c8.1-5.3,12.7-14.2,12.4-23.8
				C222.5,148.7,219.5,148.6,219.6,150.6L219.6,150.6z"/>
		</g>
		<g>
			<path class="st3" d="M223,160.9c0.5,8.4-6.9,19.4-12.8,24.9c-1.4,1.3,0.7,3.5,2.1,2.1c3.9-3.7,6.8-8,9.2-12.7
				c2.3-4.5,4.8-9.2,4.5-14.3C225.9,159,222.9,159,223,160.9L223,160.9z"/>
		</g>
		<g>
			<path class="st3" d="M227.3,171.5c0.4,7.7-7.4,15.8-12.7,20.4c-1.5,1.3,0.7,3.4,2.1,2.1c5.9-5.2,14-14,13.6-22.5
				C230.2,169.6,227.2,169.6,227.3,171.5L227.3,171.5z"/>
		</g>
		<g>
			<path class="st3" d="M98.4,185.1c-10.7,4.6-20.9,15.1-25.8,25.7c-0.8,1.7,1.8,3.3,2.6,1.5c4.7-10.3,14.4-20.2,24.7-24.7
				C101.6,186.9,100.1,184.4,98.4,185.1L98.4,185.1z"/>
		</g>
		<g>
			<path class="st3" d="M93.4,187c-8.8,0.1-22.9,7-24.8,16.6c-0.4,1.9,2.5,2.7,2.9,0.8c1.6-8.3,14.4-14.3,21.9-14.4
				C95.3,190,95.4,187,93.4,187L93.4,187z"/>
		</g>
		<g>
			<path class="st3" d="M86.3,171.5c-10.7,1-20.8,14.7-23,24.5c-0.4,1.9,2.5,2.7,2.9,0.8c1.9-8.4,10.9-21.5,20.1-22.3
				C88.2,174.3,88.2,171.3,86.3,171.5L86.3,171.5z"/>
		</g>
		<g>
			<path class="st3" d="M74.6,167.3c-4.5,0.2-7.9,3.3-10.6,6.7c-2.3,2.9-4.7,6.7-4.9,10.5c-0.1,1.9,2.9,1.9,3,0
				c0.1-2.8,2.1-5.7,3.7-7.9c2.1-2.9,5.1-6.1,8.8-6.3C76.6,170.2,76.6,167.2,74.6,167.3L74.6,167.3z"/>
		</g>
		<g>
			<path class="st3" d="M64.5,153c-5.8,8.1-9.5,17.2-10.8,27.1c-0.3,1.9,2.6,2.7,2.9,0.8c1.4-9.6,4.9-18.5,10.5-26.4
				C68.2,152.9,65.6,151.4,64.5,153L64.5,153z"/>
		</g>
		<g>
			<path class="st3" d="M58.4,140.9c-4.6,7.1-8.1,14.6-11.3,22.5c-0.7,1.8,2.2,2.6,2.9,0.8c3-7.6,6.5-14.9,11-21.8
				C62,140.8,59.4,139.3,58.4,140.9L58.4,140.9z"/>
		</g>
		<g>
			<path class="st3" d="M51.6,138.6c-2.4,2.1-4,4.9-4.8,7.9c-0.5,1.9,2.4,2.7,2.9,0.8c0.7-2.6,2-4.8,4-6.6
				C55.2,139.4,53,137.3,51.6,138.6L51.6,138.6z"/>
		</g>
		<g>
			<path class="st3" d="M47.4,129.8c-1,1.6-2,3.3-3,4.9c-1,1.7,1.6,3.2,2.6,1.5c1-1.6,2-3.3,3-4.9C51,129.7,48.4,128.1,47.4,129.8
				L47.4,129.8z"/>
		</g>
		<g>
			<path class="st3" d="M46.1,123c-0.2,0.4-0.5,0.8-0.7,1.2c-0.4,0.7-0.2,1.6,0.5,2.1c0.7,0.4,1.6,0.2,2.1-0.5
				c0.2-0.4,0.5-0.8,0.7-1.2c0.4-0.7,0.2-1.6-0.5-2.1C47.4,122,46.5,122.3,46.1,123L46.1,123z"/>
		</g>
		<g>
			<path class="st3" d="M47,118.1c0,0,2-3,0-3S45,118.1,47,118.1C47,118.1,45,118.1,47,118.1z"/>
		</g>
		<g>
			<path class="st3" d="M236.9,192.1c3.9,3.4,6.9,13.1,5.6,18.2c-0.5,1.9,2.4,2.7,2.9,0.8c0.9-3.3-0.1-7.3-0.9-10.5
				c-1-3.7-2.4-8-5.4-10.6C237.5,188.7,235.4,190.9,236.9,192.1L236.9,192.1z"/>
		</g>
		<g>
			<path class="st3" d="M241.9,183.8c4,5.2,7.3,11,10.1,16.9c0.8,1.7,3.4,0.2,2.6-1.5c-2.9-6.2-6.4-12.1-10.6-17.5
				C242.8,180.1,240.7,182.2,241.9,183.8L241.9,183.8z"/>
		</g>
		<g>
			<path class="st3" d="M247.6,173.4c5.6,3.8,9,9.9,9.2,16.7c0.1,1.9,3.1,1.9,3,0c-0.3-7.9-4.1-14.9-10.7-19.3
				C247.5,169.7,246,172.3,247.6,173.4L247.6,173.4z"/>
		</g>
		<g>
			<path class="st3" d="M251.6,163.3c5.7,5,9.4,11.5,10.9,19c0.4,1.9,3.3,1.1,2.9-0.8c-1.6-7.9-5.6-14.9-11.7-20.3
				C252.3,159.9,250.1,162.1,251.6,163.3L251.6,163.3z"/>
		</g>
		<g>
			<path class="st3" d="M253.5,152.1c2.5,2.3,5.8,3.7,8.2,6.2c2,2.1,5.4,8.5,3.3,11.5c0.8-0.1,1.6-0.2,2.4-0.3l-0.1-0.1
				c0.1,0.6,0.2,1.2,0.2,1.8c0,0,0-0.1,0.1-0.1c1.1-1.6-1.5-3.1-2.6-1.5c0,0,0,0.1-0.1,0.1c-0.4,0.5-0.2,1.4,0.2,1.8l0.1,0.1
				c0.7,0.7,1.8,0.5,2.4-0.3c1.9-2.8,0.3-8.4-1-11.1c-2.4-5-7.1-6.6-10.9-10.1C254.2,148.7,252,150.8,253.5,152.1L253.5,152.1z"/>
		</g>
		<g>
			<path class="st3" d="M260.5,143.9c6.1,5,10.6,11.3,9.9,19.5c0.5-0.5,1-1,1.5-1.5c0.3,0.1,0.5,0.3,0.8,0.4c-1-1.6-3.6-0.1-2.6,1.5
				c0.5,0.8,0.9,1,1.8,1s1.4-0.7,1.5-1.5c0.7-8.9-4.2-16.2-10.8-21.6C261.2,140.6,259.1,142.7,260.5,143.9L260.5,143.9z"/>
		</g>
		<g>
			<path class="st3" d="M265.2,135.9c2.8,1.9,5.2,4.3,7.2,6.9c1.2,1.5,3.8,0,2.6-1.5c-2.4-3.1-5.1-5.8-8.3-8
				C265.2,132.2,263.7,134.8,265.2,135.9L265.2,135.9z"/>
		</g>
		<g>
			<path class="st3" d="M267.5,127.1c2.5,1.7,4.4,4,5.7,6.8c0.6,1.3,2.4,0.8,2.7-0.4c0.1-0.2,0.2-0.5,0.2-0.7
				c0.6-1.8-2.3-2.6-2.9-0.8c-0.1,0.2-0.2,0.5-0.2,0.7c0.9-0.1,1.8-0.2,2.7-0.4c-1.5-3.2-3.8-5.9-6.7-7.9
				C267.4,123.5,265.9,126.1,267.5,127.1L267.5,127.1z"/>
		</g>
		<g>
			<path class="st3" d="M270.1,119.8c0.6,1.5,2.2,2.4,3.7,2.5c0.8,0.1,1.5-0.7,1.5-1.5c0-0.9-0.7-1.4-1.5-1.5c-0.1,0-0.2,0,0,0
				c-0.1,0-0.2-0.1-0.3-0.1c-0.2-0.1,0.2,0.1,0,0c-0.1-0.1-0.2-0.1-0.3-0.2c0.1,0.1,0,0,0,0c-0.1-0.1-0.1-0.1-0.2-0.2
				c0.1,0.2,0,0-0.1-0.1s-0.1-0.2-0.2-0.3c-0.3-0.7-1.4-0.9-2.1-0.5C269.8,118.2,269.7,119.1,270.1,119.8L270.1,119.8z"/>
		</g>
		<g>
			<path class="st3" d="M272,114c0,0,2-3,0-3S270,114,272,114C272,114,270,114,272,114z"/>
		</g>
		<g>
			<path class="st3" d="M106,193.7c2.8,6.2,7.3,10.2,13.5,12.9c7,3,13.9,6.2,21.7,5.7c1.9-0.1,1.9-3.1,0-3
				c-6.4,0.3-11.8-1.9-17.6-4.3c-6.8-2.8-12-6-15.1-12.8C107.8,190.5,105.2,192,106,193.7L106,193.7z"/>
		</g>
		<g>
			<path class="st3" d="M81.5,224.9c1.4,3.9,3.9,7.2,7.4,9.5c-0.2-0.7-0.4-1.4-0.5-2.1c-0.1,0.1-0.1,0.2-0.2,0.3
				c-1,1.6,1.6,3.1,2.6,1.5c0.1-0.1,0.1-0.2,0.2-0.3c0.4-0.7,0.1-1.6-0.5-2.1c-2.8-1.8-4.9-4.5-6-7.7
				C83.8,222.3,80.9,223.1,81.5,224.9L81.5,224.9z"/>
		</g>
		<g>
			<path class="st3" d="M89.4,241.2c2.9,4.4,5.8,8.1,10.7,10.4c2.5,1.2,5.3,1.5,7.9,2.6c3,1.2,5.1,4.2,7.2,6.5
				c1.3,1.4,3.4-0.7,2.1-2.1c-3-3.2-5.1-6.2-9.4-7.4c-7.3-2.1-11.8-5-16-11.3C90.9,238.1,88.3,239.6,89.4,241.2L89.4,241.2z"/>
		</g>
		<g>
			<path class="st3" d="M115.6,260.2c4.1,3.2,8.6,5.4,13.8,6.3c7,1.1,14.8,1.9,16.2,10.2c0.3,1.9,3.2,1.1,2.9-0.8
				c-0.9-5.5-3.5-8-8.6-10.2c-2.8-1.2-5.5-1.5-8.5-1.9c-5.1-0.7-9.5-2.5-13.6-5.6C116.2,256.9,114.1,259,115.6,260.2L115.6,260.2z"
				/>
		</g>
		<g>
			<path class="st3" d="M147.4,278.3c5.9-0.2,11.8-1,17.7-1.8c1.9-0.2,1.9-3.2,0-3c-5.9,0.7-11.8,1.6-17.7,1.8
				C145.5,275.3,145.5,278.3,147.4,278.3L147.4,278.3z"/>
		</g>
		<g>
			<path class="st3" d="M166.1,273.7c2.1,0.5,4.2,0.5,6.4,0.1c1.9-0.3,1.1-3.2-0.8-2.9c-1.6,0.3-3.2,0.2-4.8-0.1
				C165,270.4,164.2,273.3,166.1,273.7L166.1,273.7z"/>
		</g>
		<g>
			<path class="st3" d="M174,271.8c4.3,0.9,8.7,1.3,13.1,1.3c1.9,0,1.9-3,0-3c-4.2,0-8.3-0.3-12.3-1.1
				C172.9,268.5,172.1,271.4,174,271.8L174,271.8z"/>
		</g>
		<g>
			<path class="st3" d="M197,255c0,0-0.1,0-0.2,0c-1.9,0-1.9,3,0,3.1c2.2,0.1,4.2-0.3,6.2-1.1c1.5-0.6,3.6-1.1,4.1-2.8
				c0.6-1.8-2.3-2.6-2.9-0.8c0,0.1-0.1,0.2-0.1,0.3c0.2-0.3,0.6-0.6,0.8-0.9c-2.2,1.5-5.9,2.5-7.9,2.3c0,1,0,1.7,0,2.7l0,0
				C199,258,199,255,197,255C197,255,199,255,197,255z"/>
		</g>
		<g>
			<path class="st3" d="M206.9,254.1c1.2-0.2,2.4-0.5,3.6-0.9c0.6-0.2,1.1-0.4,1.6-0.7c0.3-0.1,0.6-0.3,0.8-0.4
				c0.6-0.2,0.5-0.3-0.2-0.3c-0.3-0.7-0.6-1.5-0.9-2.2c0,0,0,0,0,0.1c0.8-0.1,1.6-0.2,2.4-0.3l0,0c-1.5-1.2-3.6,0.9-2.1,2.1l0,0
				c0.8,0.6,1.8,0.6,2.4-0.3c0,0,0,0,0-0.1c0.5-0.9,0-1.9-0.9-2.2c-1.1-0.4-2.3,0.7-3.2,1.1c-1.4,0.6-2.8,1-4.3,1.2
				C204.2,251.6,205,254.5,206.9,254.1L206.9,254.1z"/>
		</g>
		<g>
			<path class="st3" d="M218.8,236.2c1.5,0.4,2.9-0.4,4.1-1.1c1.3-0.6,2.5-1.5,3.5-2.6c1.3-1.4-0.8-3.6-2.1-2.1
				c-0.7,0.8-1.4,1.3-2.3,1.8c-0.5,0.3-1.9,1.2-2.4,1.1C217.8,232.9,217,235.8,218.8,236.2L218.8,236.2z"/>
		</g>
		<g>
			<path class="st3" d="M226.5,233c3.6,0,6.3-2.1,9.2-3.9c1.6-1,0.1-3.6-1.5-2.6c-2.4,1.5-4.7,3.5-7.7,3.5
				C224.5,230,224.5,233,226.5,233L226.5,233z"/>
		</g>
		<g>
			<path class="st3" d="M179.3,215.6c1.4-0.5,2.7-1,4-1.6c0.7-0.3,0.9-1.4,0.5-2.1c-0.5-0.8-1.3-0.9-2.1-0.5
				c-1.1,0.5-2.2,0.9-3.3,1.3c-0.8,0.3-1.3,1-1,1.8S178.5,215.9,179.3,215.6L179.3,215.6z"/>
		</g>
		<g>
			<path class="st3" d="M185.3,216.6c6,0.8,9.7,0,14.1-4.2c5.5-5.2,13.1-8.1,19.2-12.7c1.5-1.2,0-3.8-1.5-2.6
				c-5,3.8-10.6,6.4-15.8,9.9c-1.9,1.2-3.3,2.8-5,4.3c-3.5,3-6.7,2.9-11,2.3C183.4,213.3,183.5,216.3,185.3,216.6L185.3,216.6z"/>
		</g>
		<g>
			<path class="st3" d="M72.6,213.9c1.6,2,2.6,4.4,3.9,6.6c1.3,2.1,2.8,3.9,4.6,5.5c1.4,1.3,3.6-0.8,2.1-2.1
				c-3.9-3.4-5.4-8.2-8.6-12.1C73.5,210.3,71.4,212.4,72.6,213.9L72.6,213.9z"/>
		</g>
		<g>
			<path class="st3" d="M104.5,190c0.8-1.1,1.7-2.1,2.5-3.2c0.5-0.6,0.6-1.5,0-2.1c-0.5-0.5-1.6-0.6-2.1,0c-0.8,1.1-1.7,2.1-2.5,3.2
				c-0.5,0.6-0.6,1.5,0,2.1C102.9,190.6,104,190.7,104.5,190L104.5,190z"/>
		</g>
		<g>
			<path class="st3" d="M106.1,184.5c2.6-2.7,3.8-6.3,5.8-9.4c1-1.6-1.6-3.2-2.6-1.5c-1.8,2.9-2.9,6.3-5.3,8.8
				C102.6,183.7,104.7,185.8,106.1,184.5L106.1,184.5z"/>
		</g>
		<g>
			<path class="st3" d="M110.6,173.4c1.6-1.3,2.9-3,3.8-5c0.3-0.7,0.2-1.6-0.5-2.1c-0.6-0.4-1.7-0.2-2.1,0.5
				c-0.8,1.7-1.9,3.2-3.3,4.3c-0.6,0.5-0.5,1.6,0,2.1C109.1,174.1,110,174,110.6,173.4L110.6,173.4z"/>
		</g>
		<g>
			<path class="st3" d="M114.4,168.6c2.6-1.5,5.4-2.7,8.3-3.6c1.8-0.6,1.1-3.4-0.8-2.9c-3.2,0.9-6.2,2.3-9,3.9
				C111.2,166.9,112.7,169.5,114.4,168.6L114.4,168.6z"/>
		</g>
		<g>
			<path class="st3" d="M123,164.6c3.1-1.3,6-1,9.3-0.9c3.1,0.1,6.2-0.4,9.4-0.3c1.9,0,1.9-3,0-3c-3.6-0.1-7.1,0.4-10.7,0.3
				c-3.1-0.1-5.9-0.1-8.7,1.1C120.4,162.4,121.2,165.3,123,164.6L123,164.6z"/>
		</g>
		<g>
			<path class="st3" d="M142.8,163.1c4.9-3.1,11.5-5.2,17.2-4c4.1,0.9,7.5,3.2,11.5,4.4c5.6,1.7,11.3,3,16.8,4.6c3.5,1,7,2,10.5,3.1
				c2.1,0.7,7.4,1.5,8.8,3.3c0.7,0.8,0.2,4.2,0.3,5.7c0.2,2.2,0.5,4.5,1.2,6.7c1.5,4.4,6,7.3,7.1,11.6c0.4,1.9,3.3,1.1,2.9-0.8
				c-0.8-3.4-3.3-5.3-5.2-8.1c-3.2-4.7-3.1-10.4-3-15.8c0-0.5-0.3-1-0.7-1.3c-9.7-5.3-21.7-7.5-32.3-10.3c-5.1-1.4-9.7-3.5-14.7-5.2
				c-7.7-2.5-15.1-0.7-21.9,3.6C139.7,161.6,141.2,164.2,142.8,163.1L142.8,163.1z"/>
		</g>
		<g>
			<path class="st3" d="M91.6,172.5c0.1-2,1-3.7,2.4-5s-0.7-3.5-2.1-2.1c-2,1.9-3.1,4.4-3.3,7.2C88.5,174.4,91.5,174.4,91.6,172.5
				L91.6,172.5z"/>
		</g>
		<g>
			<path class="st3" d="M174.9,128.7c-6-0.1-11,1.2-17,0.2c-8.4-1.4-15.5-0.9-23.8,0.8c-4.3,0.9-7.5,3.9-11.3,5.7
				c-3.5,1.6-7.2,0.7-10.6,3.1c-7.2,5.1-15.4,10.7-19.5,18.8c-0.9,1.7,1.7,3.2,2.6,1.5c3.9-7.6,11.7-13.1,18.6-17.8
				c3.8-2.6,7.8-0.8,11.4-3.3c4.3-3,7.7-4.4,12.8-5.6c4.4-1,8.2-1.7,12.8-1.3c3.6,0.3,7.2,1.1,10.8,1.6c4.5,0.6,8.9-0.9,13.4-0.8
				C176.8,131.7,176.8,128.7,174.9,128.7L174.9,128.7z"/>
		</g>
		<g>
			<path class="st3" d="M176,131.9c4.5,0.3,7,2.7,10.9,4.2c3.1,1.2,6.7,1.2,9.9,2.4c3.7,1.3,6.8,3.7,10.4,5.2
				c4.1,1.7,8.2,2,11.3,5.6c2.7,3.2,2.3,6.8,3.6,10.5c1,2.7,3.1,4.8,4.3,7.4c3.2,7.2,5.4,14.9,8.9,22c0.8,1.7,3.4,0.2,2.6-1.5
				c-2.4-5-4.6-10.1-6.4-15.3c-1.1-3.2-2-6.5-3.8-9.4c-1.6-2.5-2.5-3.5-3.2-6.7c-0.4-1.6-0.4-3.1-1-4.7c-1-2.5-2.7-4.8-4.8-6.5
				c-2.8-2.2-5.9-2.6-9.2-3.8c-3.9-1.4-7.2-4-11-5.5c-4.2-1.6-8.5-1.8-12.5-3.9c-3.3-1.7-6.2-2.9-10-3.2
				C174.1,128.8,174.1,131.8,176,131.9L176,131.9z"/>
		</g>
		<g>
			<path class="st3" d="M219.4,198.6c2.3-2.1,4.7-5.1,7.5-6.6c2.9-1.6,6.7-0.9,9.8,0c1.9,0.5,2.6-2.4,0.8-2.9
				c-3.4-1-7.5-1.7-10.9-0.5c-3.6,1.2-6.6,5.3-9.3,7.9C215.8,197.8,218,199.9,219.4,198.6L219.4,198.6z"/>
		</g>
		<g>
			<path class="st3" d="M102.2,191.3c1.3,0.5,2.6,1.1,3.9,1.8c1.7,0.9,3.2-1.7,1.5-2.6c-1.5-0.8-3-1.5-4.6-2.1
				c-0.8-0.3-1.6,0.3-1.8,1C100.9,190.3,101.4,191,102.2,191.3L102.2,191.3z"/>
		</g>
		<g>
			<path class="st3" d="M89.1,171.9c-3.5-0.9-7.2-1.5-10.6-2.7s-4-4-5.6-7.2c-1.2-2.5-2-5.2-3.3-7.7c-1.5-3-3.7-5.3-5.5-8
				c-1.4-2-1.9-4.8-3.7-6.5c-1.6-1.5-3.7-1.3-5.6-2.4c-3-1.8-3.3-8-3.7-11.2c-0.5-3.4-1-6.8-2-10.1c-0.6-1.8-3.5-1.1-2.9,0.8
				c2,6.6,1.1,15.6,4.9,21.5c1.1,1.7,2.3,1.6,3.9,2.4c4.1,1.9,5.2,5.4,7.8,8.9c3.9,5.2,6.1,11.1,9,16.9c1.2,2.4,1.7,4.1,4.1,5.1
				c3.8,1.6,8.3,2.1,12.3,3.2C90.2,175.3,91,172.4,89.1,171.9L89.1,171.9z"/>
		</g>
		<g>
			<path class="st3" d="M74,213.6c-0.7-3.7-1.5-7.5-3.4-10.8c-1.1-1.9-2.6-3.3-3.8-5.2c-1.5-2.4-1.8-4.6-2.3-7.2
				c-0.6-2.9-1.2-6.1-3.6-8.2c-1-0.9-2-1-3-1.7c-3.7-2.3-3.9-3.8-5.1-7.5c-1.5-4.9-3.5-9.9-4-15.1c-0.5-4.6,0.2-9.1-0.2-13.7
				c-0.4-4.5-2.3-8.3-2-12.9c0.3-4.8,0.8-9.6,1.4-14.4c0.2-1.9-2.8-1.9-3,0c-0.6,4.8-1.1,9.6-1.4,14.4c-0.3,4.8,1.6,8.2,2,12.9
				c0.5,4.6-0.3,9.1,0.2,13.7c0.5,4.8,2.1,9.4,3.5,14c1,3,1.6,7.2,4,9.5c0.9,0.9,2,1.1,3,1.7c3.1,1.8,4.4,3.8,5.1,7.2
				c0.8,3.9,1.4,6.9,3.8,10.2c3.2,4.4,4.7,8.5,5.8,13.8C71.5,216.3,74.4,215.5,74,213.6L74,213.6z"/>
		</g>
		<g>
			<path class="st3" d="M262,180.5c-0.6-1.2,0.2-0.9-0.5,0c-0.5,0.6-0.7,1.6-1.1,2.3c-1.1,2.3-2.2,4.6-3.4,6.8
				c-1.8,3.6-3.3,7.8-5.7,11.1c-1.6,2.3-5.7,5.8-8.1,8.6c-2.9,3.4-6.2,6.9-8.5,10.7c-1,1.7,1.6,3.2,2.6,1.5
				c2.6-4.4,6.5-8.4,9.9-12.3c2.5-2.8,5.7-5.1,7.4-8.4c2.4-4.5,4.6-9,6.9-13.6c0.9-1.7,4.1-6.2,3-8.3
				C263.8,177.3,261.2,178.8,262,180.5L262,180.5z"/>
		</g>
		<g>
			<path class="st3" d="M264.9,177.2c0.4-1,0.9-2,1.3-3.1c0.2-0.4,0.4-0.9,0.6-1.3c0.2-0.4,0.4-1.3,0.7-1.6
				c-0.6,0.1-1.2,0.2-1.8,0.2c0,0,0.1,0,0.1,0.1c1.6,1.1,3.1-1.5,1.5-2.6c0,0-0.1,0-0.1-0.1c-0.6-0.4-1.3-0.2-1.8,0.2
				c-0.8,0.6-1.1,2.1-1.5,3.1c-0.5,1.2-1,2.3-1.5,3.5c-0.3,0.8-0.2,1.6,0.5,2.1C263.5,178.1,264.6,178,264.9,177.2L264.9,177.2z"/>
		</g>
		<g>
			<path class="st3" d="M268.9,168.3c1.2-1.8,2.8-3.3,4.4-4.6c0.6-0.5,0.5-1.6,0-2.1c-0.6-0.6-1.5-0.5-2.1,0
				c-1.9,1.5-3.5,3.2-4.9,5.2C265.1,168.3,267.7,169.8,268.9,168.3L268.9,168.3z"/>
		</g>
		<g>
			<path class="st3" d="M273.2,155.2c-0.2-4,1.3-7.4,2.1-11.2c0.6-2.7,0.7-5.4,0.7-8.1c0.1-7.9-0.4-15.7-1.5-23.5
				c-0.2-1.9-3.3-1.9-3,0c1,7.8,1.6,15.7,1.5,23.5c-0.1,6.6-3.1,12.7-2.8,19.3C270.3,157.2,273.3,157.2,273.2,155.2L273.2,155.2z"/>
		</g>
		<g>
			<path class="st3" d="M238.7,189.9c3.9-3.2,6.4-8.9,8.8-13.3c2.4-4.2,5.2-8.7,6.6-13.4c0.6-1.8-2.3-2.6-2.9-0.8
				c-1.4,4.4-4.1,8.7-6.3,12.7c-2.3,4.1-4.6,9.6-8.3,12.6C235,189,237.2,191.1,238.7,189.9L238.7,189.9z"/>
		</g>
		<g>
			<path class="st3" d="M252.9,151.2c0.1,3.8-1.5,7.4-1.2,11.3c0.2,1.9,3.2,1.9,3,0c-0.3-3.8,1.3-7.4,1.2-11.3
				C255.8,149.3,252.8,149.3,252.9,151.2L252.9,151.2z"/>
		</g>
		<g>
			<path class="st3" d="M258.2,153.1c1.9-2,3.1-4.3,4-6.9c1.4-3.6,3-7,4.5-10.5c3.2-7.3,5-15.5,7.1-23.1c0.5-1.9-2.4-2.7-2.9-0.8
				c-1.9,6.7-3.6,13.5-5.9,20.1c-1.1,3.2-2.9,6.2-4.2,9.3c-1.4,3.4-2.2,7-4.8,9.8C254.8,152.4,256.9,154.5,258.2,153.1L258.2,153.1z
				"/>
		</g>
	</g>
</g>
</svg>
