<?xml version="1.0" encoding="utf-8"?>
<!-- Generator: Adobe Illustrator 19.2.0, SVG Export Plug-In . SVG Version: 6.00 Build 0)  -->
<svg version="1.1" id="Layer_1" xmlns="http://www.w3.org/2000/svg" xmlns:xlink="http://www.w3.org/1999/xlink" x="0px" y="0px"
	 viewBox="0 0 358 342.5" style="enable-background:new 0 0 358 342.5;" xml:space="preserve">
<style type="text/css">
	.st0{fill:#F9BE72;}
	.st1{fill:#D88A3D;}
	.st2{fill:#9B581C;}
</style>
<g>
	<path class="st0" d="M59.1,306.8l-4.8-15.1L48.1,272l-5.8-23.7l-10.2-41.8l2-30.3l3.9-19.9l5.9-15.6l14.1-25.1l22.8-23.8L97.8,79
		L120,68.2l15.4-5.3l18.9-4l15-0.6l13.5,0.5l13.1,0.6l24.9,6.2l9.4,8.5l1.9-6.6V50.1v-6l6.2,6.6l6.2,12.5l1.5,11.7
		c0,0,0.3,11.6,0.1,11.8c-0.1,0.2,5.1-6.4,5.1-6.4l8.3-11.3l0.6,7.8l-2.3,18.6l6-4.7l7.8-1.5l6.3,3l10.4,9.7l8.9,13.3l5.4,13.9
		l6.4,6l4.3,11.7l5.9,18.6l2.1,17.3l1.1,18.5l-3,20.1l-6,24l-9.1,27.6l-14.3,31.7l-0.5-11.5l-2.3-21.3l-7.1-26.9l-3.4-9l-9.5-12.4
		l-8.1-11.6l-9.1-13.1l-7.4-15.4l-3.7-18.1l-5.7,5.8l-11.3,14.1l-18.4,15.1l-13.9,7.1l2.1-10.9l-8.7,6.8l-34.7,27l-1.7-4.7
		c0,0,0-13.7,0-14.5c0-0.8,0.3-9,0.3-9l-5.4,5.2L125,221.7l-11.4,8.8l0.2-5.5l-0.1-7.3l-5.4,6l-0.8-11.3l-5.9,6.7l-23.8,21.9
		l-10.7,37c0,0-4.2,13.8-4.2,14.3S59.1,306.8,59.1,306.8z"/>
	<g>
		<path class="st1" d="M246.1,86.8c0,0-6.3,16-20.1,34.8c-18.4,25-43.6,54.2-58.9,74.9c-15.4,20.8-18.5,33.8-18.5,33.8l43.4-33.8
			l14.5-14l22.1-33.1l10.6-21.3l4.6-18.8c0,0,4.1-15,3.2-15.8C246.2,92.6,246.1,86.8,246.1,86.8z"/>
		<path class="st1" d="M228.6,74.8c0,0-47,4.9-93.5,53.2c-34,35.4-57.4,112.9-57.4,112.9L98.2,222l9.3-12.2l11.8-38.2l8.7-18.8
			l14.3-20.2l13.5-11.3l15.9-9.6L190,97.3l18.9-12l9.3-4L228.6,74.8z"/>
		<path class="st1" d="M253.2,138.2c-2,0.7,9.6,55.2,35.3,105.7c-2.8,2.1-11.4-8-11.4-8L264.1,219L253.2,204l-7.8-15.7l-6.1-15
			l0-9.2l7.4-13.7l5.7-16.2L253.2,138.2z"/>
	</g>
	<g>
		<polygon class="st1" points="246.2,86.6 245.8,97.7 239.8,123.7 228.7,149.3 217.1,167.9 203.8,183.4 193.7,194.7 190,207.2 
			195.3,205.5 209.5,196.2 230.2,177.4 242.7,158.2 250.5,140.7 254.6,126.3 258.3,94.8 259.8,85.4 260.2,72.5 258.5,69.1 
			253.1,78.5 		"/>
		<polygon class="st1" points="277.7,237.8 281.1,246.5 285,259.7 288.4,274.5 291.2,305.7 295.3,296.3 303.7,274.6 310.4,255.7 
			322.6,210.5 322.6,194.7 321.6,175.4 314.6,150 305.1,129.9 309,154.9 310.4,165.3 311.9,175.4 309.8,177.2 304.4,161.4 
			298.6,150.9 300.2,161.4 305.1,204 302.8,235 299.8,232.2 292.5,204 292.1,215.9 281.7,201.7 286.6,242.8 		"/>
		<polygon class="st1" points="257.9,103.9 265.7,117.9 276.4,142.1 284.8,169.6 291.9,198.7 291.9,214.3 280.1,199.5 273,178.8 
			258.7,143.8 253.2,132.8 256.2,116.4 		"/>
		<path class="st1" d="M51.2,279.4c0.1-0.8,5.6-20.3,5.6-20.3l7.4-16.2l12.5-22.4l1,20.4l-13.9,48.1l-4.8,17.8
			c0,0-4.6-11.6-4.9-12.5C53.9,293.4,51.2,279.4,51.2,279.4z"/>
		<path class="st1" d="M171.8,113.4c-0.6,0.6-11.1,13-11.1,13l-11,15.8L138,162.7l-10,21.1l-11.6,29.5l-7.4,9.5l-0.4-12.2l4.1-19.8
			l9.5-27.9l11.3-19.2l12.8-13.8l12.7-10.8l10.4-6.2L171.8,113.4z"/>
		<polygon class="st1" points="166,159.6 177.7,138.2 196.2,108.6 211.7,89 220,80.6 230.2,74 232.2,65.6 232.5,52.4 230.2,41.7 
			239.3,52 244.6,63.1 247.1,74.8 244.9,85.4 230.2,97.4 208.7,114.6 190,134.2 171.8,155.8 		"/>
		<path class="st1" d="M77.8,212.5c0.1-1,3.6-21.6,3.6-21.6l10.1-29.5l16.1-27.2l18.9-21.3L152.8,93l25.9-12.5l15.1-5.7L176.6,76
			L141.7,89L123,103.9l-16.7,16l-14.8,18.2l-18,25.9L65.8,183l-10,25.5L48.1,235l-4.2,19.2l4.2,20.7l5.9,5.5L77,226.5L77.8,212.5z"
			/>
		<path class="st1" d="M90,81.4l-29.8,31.4l-11,15.2L38,156.3c0,0-4.7,24.7-4.8,25.4s-1.1,24.8-1.9,26.2c-0.8,1.4,3.9,15.6,3.9,15.6
			l6.4,24.8l3.6,7.4l12.9-52.9l-1-16.2l4.8-16.6l7-23.1l10.3-22.2l-8.7,11.1l-17.8,28.8l-3.6,10.5l3.5-17.2l5.5-19.7l12.4-25.3
			l16.2-21.4l11.5-12.7L90,81.4z"/>
	</g>
	<g>
		<g>
			<path class="st2" d="M255.9,95.3c-0.1,28.8-8.3,57-26.8,79.4c-11.2,13.5-25.2,24.2-40.7,32.3c1,0.8,2,1.5,2.9,2.3
				c1.4-4.7,2.9-9.4,4.3-14.1c0.6-2.1-1.9-3.1-3.3-1.9c-15,12.1-30,24.2-45,36.3c1.1,0.3,2.2,0.6,3.3,0.9
				c-2.3-10.4-1.9-20.7,1.1-30.9c0.5-1.9-2-3.4-3.3-1.9c-10.8,11.9-22.7,22.6-35.7,32.1c1,0.6,2,1.2,3,1.7c-0.7-5.6-0.1-10.8,2.1-16
				c1-2.3-2-4.2-3.5-2c-2.2,3.4-4.8,6.5-7.6,9.4c1.1,0.5,2.3,0.9,3.4,1.4c-0.2-5.6,0.1-11.2,0.9-16.8c0.3-2-2.8-2.6-3.7-1
				c-7.3,13.4-17.7,24.7-30.6,32.9c1,0.6,2,1.2,3,1.7c-0.2-7.3-0.3-14.6-0.5-21.9c0-2.2-3.5-2.8-3.9-0.5c-0.6,3.2-2.8,6.3-4.3,9.2
				c-2.7,5.2-5.3,10.5-7.7,15.8c-5.9,13.1-10.8,26.7-12.5,41c-0.3,2.6,3.7,2.5,4,0c1.7-15,7.3-29.3,13.7-42.8
				c2.3-4.9,4.8-9.7,7.3-14.6c1.2-2.4,2.8-4.9,3.4-7.5c-1.3-0.2-2.6-0.4-3.9-0.5c0.2,7.3,0.3,14.6,0.5,21.9c0,1.5,1.7,2.6,3,1.7
				c13.4-8.6,24.4-20.3,32-34.4c-1.2-0.3-2.5-0.7-3.7-1c-0.7,5.6-1,11.2-0.9,16.8c0.1,1.7,2.2,2.7,3.4,1.4c3.1-3.2,5.8-6.5,8.2-10.2
				c-1.2-0.7-2.3-1.3-3.5-2c-2.5,5.8-3.5,11.7-2.7,18c0.2,1.3,1.6,2.7,3,1.7c13.3-9.6,25.5-20.5,36.5-32.7c-1.1-0.6-2.2-1.3-3.3-1.9
				c-3.2,10.9-3.5,22-1.1,33.1c0.4,1.6,2.3,1.8,3.3,0.9c15-12.1,30-24.2,45-36.3c-1.1-0.6-2.2-1.3-3.3-1.9
				c-1.4,4.7-2.9,9.4-4.3,14.1c-0.5,1.7,1.5,3,2.9,2.3c29.5-15.3,52.9-40.5,63.1-72.4c4.4-13.8,6.3-28.3,6.4-42.8
				C259.9,92.8,255.9,92.7,255.9,95.3L255.9,95.3z"/>
		</g>
		<g>
			<path class="st2" d="M75.8,240.4c-6.3,23-16.6,45-17.5,69.2c-0.1,2.6,3.9,2.6,4,0c0.9-23.8,11.2-45.5,17.4-68.1
				C80.3,239,76.4,237.9,75.8,240.4L75.8,240.4z"/>
		</g>
		<g>
			<path class="st2" d="M259.8,95.9c2.5-9.4,3.1-19.3,1.5-28.9c-0.3-1.7-2.9-1.9-3.7-0.5c-3.7,6.7-8,13-13,18.9
				c-1.6,2,1.2,4.8,2.8,2.8c5.2-6.1,9.7-12.7,13.6-19.7c-1.2-0.2-2.4-0.3-3.7-0.5c1.5,8.9,0.8,18.1-1.5,26.8
				C255.3,97.3,259.1,98.3,259.8,95.9L259.8,95.9z"/>
		</g>
		<g>
			<path class="st2" d="M248.5,85.5c2.3-17.2-4.1-34.5-17.4-45.7c-1.4-1.2-4.1-0.1-3.3,1.9c3.9,10.6,4.1,21.7,0.5,32.5
				c1.2-0.2,2.4-0.3,3.7-0.5c-8.5-11.2-24.6-15.3-37.8-17.2c-20.4-3-41.5-1.3-61.3,4.2c-23.5,6.6-45.3,19-62.3,36.5
				c-20.7,21.4-33,49.4-38.4,78.5c-1.7,9-3,18.1-2.3,27.3c0.8,10.4,3.2,20.8,5.7,30.9c6.6,25.6,15.3,50.7,22.6,76.1
				c0.7,2.5,4.6,1.4,3.9-1.1c-6.3-21.8-13.5-43.3-19.7-65.1c-4.7-16.7-10.2-34.8-8.6-52.3c2.8-30.1,13.5-60.7,32.9-84.1
				c28.5-34.4,74.4-51.5,118.6-47.9c13.9,1.1,33.9,4.2,43.1,16.3c1,1.4,3.1,1.3,3.7-0.5c3.8-11.4,3.6-23.4-0.5-34.6
				c-1.1,0.6-2.2,1.3-3.3,1.9c12.1,10.2,18.5,26,16.4,41.8C244.3,87,248.1,88.1,248.5,85.5L248.5,85.5z"/>
		</g>
		<g>
			<path class="st2" d="M259.3,96.7c4.7-5,11.2-7.9,17.3-3.2c0.9,0.7,1.7,1.4,2.5,2.2c2.6,2.3,5.2,4.6,7.6,7.2
				c8.5,9.1,15,19.9,20,31.2c7.9,18.2,13.4,39.6,13.9,59.4c0.5,18.3-4.6,36.9-9.8,54.2c-6.1,20.4-13.6,40.4-22.6,59.7
				c-1.1,2.3,2.4,4.4,3.5,2c8.7-18.5,15.9-37.7,21.9-57.1c5.8-18.8,11.5-39,11.1-58.8c-0.5-20.6-6.2-42.6-14.4-61.5
				c-5.3-12.1-12.3-23.5-21.5-32.9c-2.7-2.8-5.5-5.3-8.5-7.8c-7.9-6.6-16.9-4.7-23.8,2.6C254.7,95.8,257.5,98.6,259.3,96.7
				L259.3,96.7z"/>
		</g>
		<g>
			<path class="st2" d="M237.3,164.1c0.2,16.2,9.7,32.6,18.2,45.9c8.2,12.9,18.4,27.8,32,35.6c2.2,1.3,4.3-2.2,2-3.5
				c-12.9-7.5-22.7-21.9-30.5-34.2c-8.1-12.7-17.5-28.4-17.7-43.9C241.2,161.5,237.2,161.5,237.3,164.1L237.3,164.1z"/>
		</g>
		<g>
			<path class="st2" d="M274.7,236c10.5,21.7,14.8,48.5,13.2,72.4c-0.2,2.6,3.8,2.6,4,0c1.7-24.6-2.9-52.2-13.7-74.4
				C277,231.7,273.6,233.7,274.7,236L274.7,236z"/>
		</g>
		<g>
			<path class="st2" d="M244.1,86.8c1.2,14.7-3.7,30.3-9,43.8c-9.4,23.8-24.4,45.1-42.9,62.6c-1.9,1.8,1,4.6,2.8,2.8
				c18.7-17.8,33.8-39.2,43.4-63.2c5.7-14.1,10.8-30.6,9.6-46.1C247.9,84.2,243.9,84.2,244.1,86.8L244.1,86.8z"/>
		</g>
		<g>
			<path class="st2" d="M151.6,199.5c8.9-28,23.1-54.4,39.4-78.7c6.9-10.3,14.3-20.5,22.7-29.7c4.6-5.1,10.3-12,17.1-14.3
				c2.4-0.8,1.4-4.7-1.1-3.9c-6.9,2.4-12.6,8.6-17.4,13.8c-8.5,9.2-16.1,19.3-23.1,29.7c-17.2,25.3-32.1,52.8-41.4,82
				C147,200.9,150.8,201.9,151.6,199.5L151.6,199.5z"/>
		</g>
		<g>
			<path class="st2" d="M117.9,214.8c16.6-46.5,40.2-97.6,84.8-123.4c6.6-3.8,13.5-7,20.5-10c2.3-1,1.3-4.9-1.1-3.9
				c-14.1,5.9-27.5,13-39.3,22.9c-18.7,15.5-32.9,35.8-44.3,57.1c-9.7,18-17.5,37-24.4,56.3C113.2,216.2,117.1,217.2,117.9,214.8
				L117.9,214.8z"/>
		</g>
		<g>
			<path class="st2" d="M110.9,207.8c6.4-37.6,27.1-79.9,64.1-95.3c2.3-1,1.3-4.8-1.1-3.9c-38.4,16-60.3,58.9-66.9,98.1
				C106.6,209.2,110.5,210.3,110.9,207.8L110.9,207.8z"/>
		</g>
		<g>
			<path class="st2" d="M230.2,72.8c-61.7-4.3-118.5,35.7-142.3,91.6c-7.4,17.4-11.5,35.8-12.8,54.6c-0.2,2.6,3.8,2.6,4,0
				c4-61.3,43.6-118.4,103.4-136.8c15.4-4.7,31.5-6.6,47.6-5.4C232.8,77,232.8,73,230.2,72.8L230.2,72.8z"/>
		</g>
		<g>
			<path class="st2" d="M172.9,55.2c-33.6,6-61.8,27.5-83.4,53.1c-20.5,24.2-36.6,52.7-47.1,82.6c-4,11.5-7.6,23.6-8.1,35.8
				c-0.1,2.6,3.9,2.6,4,0c0.4-10.3,3.3-20.5,6.5-30.3c4.5-13.7,10.4-27,17.1-39.8c15.3-28.8,35.6-56.2,62.1-75.5
				c14.9-10.9,31.8-18.8,50-22.1C176.5,58.6,175.4,54.7,172.9,55.2L172.9,55.2z"/>
		</g>
		<g>
			<path class="st2" d="M196.2,72.8C129.4,73.2,82.6,135.8,59.8,192c-8.2,20.3-14.1,41.5-17.8,63.1c-0.4,2.5,3.4,3.6,3.9,1.1
				C51.9,220.5,64,185.5,83,154.5c16.4-26.8,38.5-51.7,66.8-66.1c14.4-7.3,30.2-11.5,46.4-11.6C198.8,76.8,198.8,72.8,196.2,72.8
				L196.2,72.8z"/>
		</g>
		<g>
			<path class="st2" d="M251.3,133.6c18.4,34.2,29.9,72.4,35.2,110.8c0.4,2.5,4.2,1.5,3.9-1.1c-5.4-38.7-17.1-77.2-35.6-111.8
				C253.6,129.3,250.1,131.3,251.3,133.6L251.3,133.6z"/>
		</g>
		<g>
			<path class="st2" d="M256.2,105.3c4.2,5.3,7.1,11.9,9.9,18.1c4.4,9.8,8.3,19.9,11.7,30.1c6.9,20.8,13.3,43.2,12.7,65.4
				c1.2-0.3,2.5-0.7,3.7-1c-3.2-6.9-7.9-13.2-12.3-19.4c-1.5-2.1-5-0.1-3.5,2c4.4,6.2,9.1,12.5,12.3,19.4c0.9,1.9,3.7,0.8,3.7-1
				c0.6-22.9-6-46.2-13.3-67.7c-3.5-10.3-7.4-20.4-11.9-30.3c-2.9-6.3-5.9-12.9-10.3-18.4C257.5,100.4,254.6,103.3,256.2,105.3
				L256.2,105.3z"/>
		</g>
		<g>
			<path class="st2" d="M288.3,193.9c8.1,25,14.1,52.6,14.2,78.9c0,2.6,4,2.6,4,0c-0.1-13.5-2.1-27-4.6-40.2
				c-2.5-13.4-5.5-26.8-9.8-39.8C291.4,190.4,287.5,191.4,288.3,193.9L288.3,193.9z"/>
		</g>
		<g>
			<path class="st2" d="M258.8,99.1c11.9,10.1,22.5,22.3,29.7,36.2c5.4,10.5,8.4,22.1,10.7,33.6c2.5,12.6,3.8,25.5,3.9,38.4
				c0.1,10.4-0.4,21.3-3.6,31.3c-0.8,2.5,3.1,3.5,3.9,1.1c3.3-10.3,3.8-21.6,3.7-32.3c-0.1-13.2-1.5-26.5-4.1-39.5
				c-2.3-11.8-5.5-23.8-11.1-34.6c-7.3-14.2-18.2-26.8-30.3-37C259.7,94.6,256.8,97.4,258.8,99.1L258.8,99.1z"/>
		</g>
		<g>
			<path class="st2" d="M288.8,135.6c9.8,12.2,15,28.3,19.4,43.1c4.3,14.5,8.2,29.7,8.7,44.9c0.1,2.6,4.1,2.6,4,0
				c-0.6-16-4.6-32.1-9.2-47.3c-4.6-15-10.1-31.1-20-43.5C290,130.7,287.2,133.6,288.8,135.6L288.8,135.6z"/>
		</g>
		<g>
			<path class="st2" d="M290.3,106.9c14.7,25.2,21.1,55,21.2,84c0,2.6,4,2.6,4,0c-0.2-29.6-6.7-60.2-21.8-86
				C292.5,102.6,289,104.6,290.3,106.9L290.3,106.9z"/>
		</g>
		<g>
			<path class="st2" d="M245.9,84.1c-33.8,22.5-63,52.9-86.5,85.8c-1.1,1.6,1.5,3.1,2.6,1.5c23.2-32.5,52-62.6,85.4-84.7
				C249,85.6,247.5,83,245.9,84.1L245.9,84.1z"/>
		</g>
		<g>
			<path class="st2" d="M84.6,115.2C76,130,68.5,145.5,63,161.7c-4.5,13-8.2,27.3-6.7,41.2c0.2,1.9,3.2,1.9,3,0
				c-1.4-13.7,2.2-27.5,6.6-40.4c5.5-15.9,12.9-31.2,21.3-45.8C88.1,115,85.5,113.5,84.6,115.2L84.6,115.2z"/>
		</g>
		<g>
			<path class="st2" d="M99.5,75.4c-27.9,27-48.2,64.4-51.8,103.4c-0.2,1.9,2.8,1.9,3,0c3.6-38.2,23.6-74.9,50.9-101.3
				C103,76.2,100.9,74.1,99.5,75.4L99.5,75.4z"/>
		</g>
		<g>
			<path class="st2" d="M114.9,229.9c8.4-14.3,16.7-28.6,25.1-43c1-1.7-1.6-3.2-2.6-1.5c-8.4,14.3-16.7,28.6-25.1,43
				C111.3,230,113.9,231.5,114.9,229.9L114.9,229.9z"/>
		</g>
		<g>
			<path class="st2" d="M145.7,176.9c1.7-2.7,3.4-5.4,5.2-8.1c1.1-1.6-1.5-3.1-2.6-1.5c-1.8,2.7-3.5,5.4-5.2,8.1
				C142.1,177.1,144.7,178.6,145.7,176.9L145.7,176.9z"/>
		</g>
		<g>
			<path class="st2" d="M153.9,162.6c0.1-0.1,0.2-0.2,0.3-0.3c0.6-0.6,0.6-1.5,0-2.1c-0.6-0.6-1.5-0.6-2.1,0
				c-0.1,0.1-0.2,0.2-0.3,0.3c-0.6,0.6-0.6,1.5,0,2.1C152.3,163.2,153.3,163.2,153.9,162.6L153.9,162.6z"/>
		</g>
		<g>
			<path class="st2" d="M162.4,147.6c3.5-5.6,7.1-11.1,10.6-16.7c1-1.6-1.6-3.1-2.6-1.5c-3.5,5.6-7.1,11.1-10.6,16.7
				C158.7,147.7,161.3,149.2,162.4,147.6L162.4,147.6z"/>
		</g>
		<g>
			<path class="st2" d="M180.9,118.5c4.4-5.8,9.7-11.1,14.8-16.2c5.4-5.4,11-10.9,17.3-15.4c1.6-1.1,0.1-3.7-1.5-2.6
				c-6.5,4.6-12.2,10.3-17.9,15.9c-5.4,5.3-10.8,10.8-15.3,16.8C177.1,118.5,179.7,120,180.9,118.5L180.9,118.5z"/>
		</g>
		<g>
			<path class="st2" d="M49.8,268.3c1.6-10.1,4.4-19.9,8.4-29.3c0.7-1.8-1.8-3.3-2.6-1.5c-4.1,9.7-7,19.7-8.7,30
				C46.6,269.4,49.5,270.2,49.8,268.3L49.8,268.3z"/>
		</g>
		<g>
			<path class="st2" d="M59.7,231.3c0.8-3.2,2.1-6.3,3.8-9.2c1-1.7-1.6-3.2-2.6-1.5c-1.8,3.1-3.2,6.4-4.1,9.9
				C56.3,232.4,59.2,233.2,59.7,231.3L59.7,231.3z"/>
		</g>
		<g>
			<path class="st2" d="M65.8,213c1.9,0,1.9-3,0-3C63.9,210,63.9,213,65.8,213L65.8,213z"/>
		</g>
		<g>
			<path class="st2" d="M41.9,239.5c0.3-10.1,2.5-19.8,6.8-28.9c0.8-1.7-1.8-3.3-2.6-1.5c-4.5,9.6-7,19.8-7.2,30.4
				C38.9,241.5,41.9,241.5,41.9,239.5L41.9,239.5z"/>
		</g>
		<g>
			<path class="st2" d="M292.8,258c2.4,8.6,3.9,17.3,4.5,26.2c0.2,2.6,4.2,2.6,4,0c-0.6-9.3-2.1-18.3-4.6-27.3
				C295.9,254.5,292.1,255.5,292.8,258L292.8,258z"/>
		</g>
		<g>
			<path class="st2" d="M303.2,224.5c3.9,7,6.3,14.5,7.1,22.4c0.3,2.5,4.3,2.6,4,0c-0.9-8.7-3.4-16.8-7.7-24.4
				C305.4,220.2,301.9,222.2,303.2,224.5L303.2,224.5z"/>
		</g>
		<g>
			<path class="st2" d="M137.1,83.8c2.1-2,4.6-3.4,7.4-4.1c1.9-0.5,1.1-3.4-0.8-2.9c-3.3,0.9-6.2,2.6-8.8,4.9
				C133.6,83,135.7,85.2,137.1,83.8L137.1,83.8z"/>
		</g>
		<g>
			<path class="st2" d="M152.9,75.6c0.1-0.1,0.2-0.2,0.3-0.3c0.6-0.6,0.6-1.5,0-2.1c-0.6-0.6-1.5-0.6-2.1,0
				c-0.1,0.1-0.2,0.2-0.3,0.3c-0.6,0.6-0.6,1.5,0,2.1C151.3,76.2,152.3,76.2,152.9,75.6L152.9,75.6z"/>
		</g>
		<g>
			<path class="st2" d="M165.1,72.8c18.9-6.5,41.5-7.7,60.4-0.1c1.8,0.7,2.6-2.2,0.8-2.9c-19.3-7.7-42.7-6.5-62,0.1
				C162.5,70.6,163.3,73.5,165.1,72.8L165.1,72.8z"/>
		</g>
		<g>
			<path class="st2" d="M109.4,82c15-10,31.5-17.2,49-21.4c1.9-0.5,1.1-3.3-0.8-2.9c-17.8,4.3-34.5,11.6-49.7,21.7
				C106.3,80.5,107.8,83.1,109.4,82L109.4,82z"/>
		</g>
		<g>
			<path class="st2" d="M260.1,96.6c12.3,1.3,23.5,11.1,27.9,22.6c0.7,1.8,3.6,1,2.9-0.8c-4.8-12.9-17-23.4-30.7-24.8
				C258.2,93.4,258.2,96.4,260.1,96.6L260.1,96.6z"/>
		</g>
		<g>
			<path class="st2" d="M293.5,128.4c1.9,0,1.9-3,0-3C291.5,125.4,291.5,128.4,293.5,128.4L293.5,128.4z"/>
		</g>
	</g>
</g>
</svg>
