<?xml version="1.0" encoding="utf-8"?>
<!-- Generator: Adobe Illustrator 19.2.0, SVG Export Plug-In . SVG Version: 6.00 Build 0)  -->
<svg version="1.1" id="Layer_1" xmlns="http://www.w3.org/2000/svg" xmlns:xlink="http://www.w3.org/1999/xlink" x="0px" y="0px"
	 viewBox="0 0 130 59" style="enable-background:new 0 0 130 59;" xml:space="preserve">
<style type="text/css">
	.st0{fill-rule:evenodd;clip-rule:evenodd;fill:#7a502b;}
	.st1{fill-rule:evenodd;clip-rule:evenodd;fill:#A55959;}
	.st2{fill:#3A291D;}
</style>
<g>
	<g>
		<path class="st0" d="M75,40.5l-9.4,1.2h-8.3c0,0-6.8-2.7-8.3-1.2s-3.9,5.7-3.5,9.4c0.3,3.2,32.3,5.9,33-2.4
			C78.9,44,75,40.5,75,40.5z M116.6,13.2c-2.7-4.4-4.7-2.1-5.9-1.2c-1.2,0.9-1.4,2.6-1.2,3.5c1.2,4.9,2.2,7,1.2,14.1
			c-0.4,2.7,6.7,2.8,8.8-1.2C121.5,24.8,119.2,17.7,116.6,13.2z"/>
	</g>
	<path class="st1" d="M29.8,21.4c0.5,0.3,10.2,5.6,10.2,5.6l14.3,2H74l11.5-2l10-6.7L86.2,21l-14.6,0.1l-15.4,0l-13.1-0.1L29.8,21.4
		z"/>
	<g>
		<g>
			<path class="st2" d="M17.9,22.6c29.3-0.4,58.7,0,88-0.5c2.6,0,2.6-4,0-4c-29.3,0.5-58.7,0-88,0.5C15.3,18.7,15.3,22.7,17.9,22.6
				L17.9,22.6z"/>
		</g>
		<g>
			<path class="st2" d="M104.1,16.7c3.7,2.2,3.9,6.8,2.3,10.4c-1,2.3,2.5,4.4,3.5,2c2.4-5.7,2-12.5-3.8-15.9
				C103.9,11.9,101.9,15.4,104.1,16.7L104.1,16.7z"/>
		</g>
		<g>
			<path class="st2" d="M16.9,13.3c-2.1,2-2.6,5.4-2.9,8.2c-0.3,2.5-0.8,5.5,0.3,7.9c1.1,2.3,4.5,0.3,3.5-2c-0.4-0.9,0-4,0.2-5.3
				c0.2-1.8,0.4-4.6,1.9-5.9C21.6,14.4,18.8,11.6,16.9,13.3L16.9,13.3z"/>
		</g>
		<g>
			<path class="st2" d="M42.1,41.3c5.2,2.9,12.7,2.6,18.5,2.5c7-0.1,14.5-0.6,21-3.4c2.4-1,0.3-4.5-2-3.5c-5.8,2.5-12.8,2.7-19,2.8
				c-5,0.1-11.9,0.6-16.4-1.9C41.8,36.6,39.8,40,42.1,41.3L42.1,41.3z"/>
		</g>
		<g>
			<path class="st2" d="M28.7,23.1c10.3,6.7,23.7,8,35.6,7.7c10.3-0.3,23.1-1.4,31.6-7.9c2-1.5,0-5-2-3.5c-8,6.1-19.9,7.1-29.6,7.4
				c-11.3,0.3-23.9-0.8-33.6-7.1C28.6,18.3,26.6,21.7,28.7,23.1L28.7,23.1z"/>
		</g>
	</g>
</g>
</svg>
