<?xml version="1.0" encoding="utf-8"?>
<!-- Generator: Adobe Illustrator 19.2.0, SVG Export Plug-In . SVG Version: 6.00 Build 0)  -->
<svg version="1.1" id="Layer_1" xmlns="http://www.w3.org/2000/svg" xmlns:xlink="http://www.w3.org/1999/xlink" x="0px" y="0px"
	 viewBox="0 0 620 400" style="enable-background:new 0 0 620 400;" xml:space="preserve">
<style type="text/css">
	.st0{fill:#36447f;}
	.st1{fill:#273366;}
	.st2{opacity:0.75;fill:#273366;}
	.st3{fill:#1a1d31;}
	.st4{fill:#FFFFFF;}
</style>
<g>
	<g>
		<path class="st0" d="M406.2,220.8c-24.5-9.1-63.1,6.1-93.3,6.1c-34.9,0-86.2-14.7-103.8-2.3c-6,4.2-61.3,50.7-67.9,123.3
			c91.2,31.6,244.6,41.3,345.2,4.4c0.2-11.3-1.3-27.8-3.5-39.5C475.1,270.7,429.4,229.3,406.2,220.8z"/>
		<path class="st0" d="M146.5,247c-4.6-10.8-8.3-19.7-11.6-28.1c-3.5-8.7-7.5-19.1-10.9-29.7l-0.3-0.8c-2.2-6.6-4.4-13.5-4.9-20.5
			l0-0.4l0.2-0.3c1.2-1.5,4-2.8,6.2-3.8c0.6-0.3,1.2-0.6,1.6-0.8c4.9-2.6,10.5-5.1,17.3-8.1c11.9-5.1,23.6-10,35.7-12.7l1.1-0.2
			l0.1,1.1c0,0,0,0.1,0,0.1l0,0.1l0,0.1c0.1,3.4,0.9,6.8,1.7,10.1l0.2,0.8c1.9,8.4,4.4,16.6,6.3,22.8c5.1,16.1,10.2,30,15.6,42.3
			l0.4,0.8l-0.8,0.4c-7.1,4.1-14.6,7.6-21.9,11.1c-2,1-4.1,1.9-6.1,2.9c-9.1,4.4-18.9,9-28.7,13.4l-0.9,0.4L146.5,247z"/>
		<path class="st0" d="M465.9,238.8c-3.1-0.3-6.1-1.3-9.1-2.4l-1.4-0.5c-5.4-1.8-11.2-4.1-18.1-7l-2.8-1.2
			c-8.9-3.8-18.1-7.7-25.9-13.2c-0.1-0.1-0.1-0.1-0.2-0.1l-0.9-0.3l0.3-0.9c6.4-19.4,14-38,19.9-52.1l1-2.4c2.7-6.5,5.5-13.3,9-19.6
			c0.1-0.2,0.2-0.3,0.3-0.5l0.2-0.4l0.4-0.1c0.4-0.1,0.7-0.6,0.7-1l0-1l1,0l0.4,0c2,0,4,0.5,5.9,1.1c0.5,0.1,1,0.3,1.5,0.4
			c7.1,1.8,14.5,4.1,24,7.4l1.4,0.5c6.9,2.4,14.1,5,20.5,8.6l0.3,0.2c1.5,0.9,2.8,1.6,3.2,3.8c0.6,2.5-0.2,5.5-0.8,8l-0.2,0.9
			c-2,8.9-5.3,17.3-8.8,25.8c-6,14.7-12.8,29.6-20.9,45.5l-0.3,0.6L465.9,238.8z"/>
	</g>
	<g>
		<path class="st1" d="M158,273.6c-3.3-7.5-6.7-15.3-9.9-23l-0.4-0.9l0.9-0.4c9.9-4.4,19.8-9.1,29.1-13.6c2-1,4-1.9,6.1-2.9
			c7.1-3.3,14.5-6.8,21.4-10.8l1-0.5l0.9,1.9c0.1,0.2,0.2,0.3,0.3,0.4l1.3,0.7l0.2-1.7c0-0.2,0-0.4-0.1-0.6
			c-6.1-13.2-11.6-27.8-17.3-46.2c-2.7-8.5-4.5-15.2-6-21.5l-0.3-1.3c-0.8-3.2-1.5-6.4-1.8-9.7l0-0.7l0.6-0.3
			c1.8-0.9,3.9-1.3,5.7-1.3c3.3,0,5.5,1.6,6.1,4.5c0.6,2.9,1.4,6,2.4,9.8c1.8,6.9,3.9,14.2,6.5,22.5c5.3,16.7,9.8,29.3,14.9,40.9
			l0.5,1.1l-1.1,0.3c-2.2,0.6-4.1,1.3-5.9,2.2c-0.8,0.4-1.6,0.8-2.6,1.3l-1.5,0.8l0,0l-1.4,0.9c-3.8,2.5-7.6,5.5-11.7,9.3
			c-12.2,11.5-22.9,26.5-32.8,45.7l-1,1.9L158,273.6z"/>
		<path class="st1" d="M152.8,273.2c-4.3,0-6.9-5.2-8.8-9c-0.3-0.7-0.6-1.3-0.9-1.8c-2.1-3.9-4.2-8.1-6.5-12.9
			c-4.4-9.2-8.5-19-12.4-29.2c-3.9-10.2-6.7-18.7-8.8-26.7c-0.8-3-1.8-6.9-2.5-10.9c-0.8-4.8-1.1-8.5,2.6-11.8l1.4-1.3l0.3,1.8
			c0.9,5.9,2.8,12,4.4,16.9c3.5,10.9,7.6,21.6,11.2,30.7c6.8,17.2,14.1,33.9,22.1,52.4l0.5,1l-1.1,0.3
			C153.8,273.1,153.3,273.2,152.8,273.2z"/>
		<path class="st1" d="M454.3,257.2c-14.3-16.4-31.5-29.1-48.6-35.9l-1.6-0.6l1.3-1.1c0.1-0.1,0.2-0.3,0.3-0.5
			c0.1-0.4,0.3-0.8,0.4-1.2l0.7-2.2l1.1,0.8c8.1,5.6,17.7,9.7,26.9,13.5l3,1.3c1.6,0.7,3.2,1.4,4.9,2.1c6.7,2.9,14.2,6.3,21.3,7.2
			l1.4,0.2l-0.7,1.3c-2.6,5-5.3,10.1-8,15c-0.1,0.1-0.1,0.3-0.1,0.4l-0.2,2.3C456.5,259.8,454.5,257.4,454.3,257.2z"/>
		<path class="st1" d="M468.7,259.5c-2.6,0-5.8-1.3-8.2-3.3l-0.6-0.5l0.4-0.7c10.5-19.5,19.9-39,27.8-58c4-9.6,7.8-19,10.1-28.7
			l0.2-0.8c0.3-1.2,0.6-2.5,0.9-3.9l0.3-1.7l1.3,1.1c10.5,8.7,3.3,25.8-1.5,37.1c-0.6,1.4-1.2,2.8-1.7,4
			c-6.8,17-13.5,32.1-20.5,46.1c-0.3,0.6-0.6,1.2-0.9,1.8c-0.8,1.8-1.7,3.7-2.9,5.2C472.4,258.7,470.8,259.5,468.7,259.5z"/>
		<path class="st1" d="M403.5,215.9c-5.4-3.5-2.4-9.9-0.1-14.5c0.4-0.9,0.8-1.8,1.2-2.6c3.6-8.4,7.3-16.6,10.7-24.2
			c4.2-9.4,7.8-17.1,11.2-24.2c0.2-0.5,0.5-1.2,0.9-2.1c1.5-3.7,3.7-9.3,7-10.7l2.6-1.1l-1.3,2.4c-1.7,3.3-3.2,6.6-4.9,10.3
			c-10.5,23.5-18.9,45.1-25.6,66l-0.4,1.2L403.5,215.9z"/>
		<polygon class="st1" points="195.7,331.5 197.4,257.2 206.2,258.2 291.6,259.8 380.1,260.5 427.5,259.2 429.3,267.5 429.2,314.3 
			427.9,336.4 338.2,337.3 215.9,334.7 197.4,333.6 		"/>
		<path class="st2" d="M493.9,154c-2.2,4-19.2,68.7-32.2,74.9c-4.6,2.2-51.6-16.5-53.1-18.4c-1.5-1.9-1.7,5.3-1.7,5.3l29.9,17.5
			l30.6,8.3l21.7-39.5l11.7-34.9c0,0,0.7-13.1-3-13.1S493.9,154,493.9,154z"/>
		<path class="st2" d="M185.1,161.3c0,0,13.7,50.1,7.3,55.3c-3.9,3.2-36.6,19.2-41,19.2c-6.3,0-18.4-23.8-19.7-25
			c-3.4-3.1,14.7,41.3,14.7,41.3l16.4-1.4l48.4-32.9l-15.5-43.7L185.1,161.3z"/>
		<path class="st2" d="M199.4,330.3c0,0-2.8,13.1,0,12.3c2.8-0.8,221.5,7.6,224.1,3.8s0-14.1,0-14.1L199.4,330.3z"/>
	</g>
	<g>
		<g>
			<path class="st3" d="M143.2,349.2c2.4-19.2,8.5-37.9,16.5-55.4c7.9-17.3,17.7-34.2,30.2-48.6c10-11.5,22.1-22.4,37.9-23.5
				c18.9-1.4,38.1,3.5,56.8,5.5c21.4,2.3,42.6,2,63.8-2c14.2-2.7,29.2-7.5,43.8-4.9c19.5,3.5,38.2,17.2,52,30.6
				c27.2,26.4,41,62.3,40.7,100.1c0,2.6,4,2.6,4,0c0.3-34.7-11-68.2-33.9-94.5c-14.8-17-34.9-32.4-56.8-38.9
				c-11.8-3.5-24-1.7-35.9,0.7c-21.5,4.3-42.3,7.4-64.3,6c-21.4-1.3-42.6-6.6-64.1-6.8c-7.4-0.1-14.9,0.8-21.6,4.1
				c-6.4,3.1-12.2,7.7-17.4,12.6c-15.5,14.7-27.2,33.7-36.5,52.8c-9.4,19.6-16.6,40.6-19.3,62.2
				C138.9,351.8,142.9,351.7,143.2,349.2L143.2,349.2z"/>
		</g>
		<g>
			<path class="st3" d="M115.7,167.2c0.4,7.4,2.7,14.7,5,21.6c3.3,10.4,7.2,20.6,11.3,30.8c8.4,21.1,17.6,42,26.6,62.8
				c1,2.4,4.5,0.3,3.5-2c-8.9-20.6-18-41.1-26.2-61.9c-3.9-9.8-7.7-19.7-10.9-29.7c-2.3-7-4.7-14.3-5.2-21.6
				C119.6,164.6,115.6,164.6,115.7,167.2L115.7,167.2z"/>
		</g>
		<g>
			<path class="st3" d="M119.4,168.2c1-2,5.9-3.8,7.9-4.8c5.6-2.9,11.4-5.6,17.3-8.1c12.2-5.3,25-10.6,38.1-13.2
				c-0.8-0.6-1.7-1.3-2.5-1.9c-0.3,4.6,0.9,9.4,1.9,13.8c1.7,7.7,4,15.4,6.4,22.9c5,15.9,10.7,31.8,17.7,47c1.1,2.3,4.5,0.3,3.5-2
				c-6.8-14.9-12.4-30.4-17.3-46c-2.2-7.1-4.3-14.2-6-21.4c-1.1-4.6-2.4-9.5-2.1-14.3c0.1-1.4-1.4-2.2-2.5-1.9
				c-13.9,2.7-27.3,8.4-40.2,14.1c-6,2.6-11.9,5.3-17.7,8.4c-2.3,1.2-6.5,2.9-7.8,5.4C114.8,168.5,118.3,170.5,119.4,168.2
				L119.4,168.2z"/>
		</g>
		<g>
			<path class="st3" d="M147.4,251c10.3-4.6,20.5-9.4,30.7-14.3c9.7-4.6,19.8-9,29.1-14.5c2.2-1.3,0.2-4.8-2-3.5
				c-9.3,5.5-19.4,9.9-29.1,14.5c-10.2,4.9-20.4,9.7-30.7,14.3C143,248.6,145.1,252,147.4,251L147.4,251z"/>
		</g>
		<g>
			<path class="st3" d="M222.5,218.8c-7.3-16.6-13-34-18.2-51.4c-2.2-7.6-4.3-15.2-6-22.9c-0.8-3.6-2.2-4.8-5.9-5.7
				c-4-1-8-0.1-11.4,2c-2.2,1.3-0.2,4.8,2,3.5c3.7-2.2,10.4-3.3,11.6,1.8c0.7,3.3,1.5,6.5,2.4,9.8c2,7.6,4.2,15.1,6.5,22.5
				c4.5,14.4,9.5,28.7,15.5,42.5C220.1,223.2,223.5,221.2,222.5,218.8L222.5,218.8z"/>
		</g>
		<g>
			<path class="st3" d="M116,166.9c-3.6,2.5-6.5,5-6.6,9.7c-0.2,4.5,1.1,9.3,2.1,13.7c2.7,11.4,6.7,22.5,10.9,33.5
				c4.6,11.7,9.6,23.4,15.3,34.6c3.7,7.4,9.3,23.1,20,16.4c2.2-1.4,0.2-4.8-2-3.5c-6.1,3.8-9.3-5.1-11.6-9.4
				c-2.3-4.2-4.4-8.5-6.5-12.8c-4.5-9.5-8.6-19.2-12.4-29.1c-3.3-8.7-6.4-17.6-8.8-26.6c-1-3.5-1.8-7.1-2.4-10.8
				c-0.9-5.6-1-8.9,4-12.3C120.1,169,118.1,165.5,116,166.9L116,166.9z"/>
		</g>
		<g>
			<path class="st3" d="M406.8,219.5c6.2-19.7,13.9-39,21.8-58c3.1-7.4,6.1-14.9,10-21.9c0.4-0.7,0.8-1.7,1.4-2.4
				c0.5-0.5-0.8-0.1,0.5-0.2c2.4-0.1,5,0.9,7.3,1.4c8.1,2,16,4.6,23.9,7.4c7.3,2.6,15,5.2,21.7,9.1c1.7,1,2.7,1.4,3.1,3.3
				c0.6,2.6-0.4,6-1,8.5c-2,8.8-5.3,17.3-8.7,25.7c-8.9,22-19.4,43.4-30.8,64.2c-1.2,2.3,2.2,4.3,3.5,2
				c10.8-19.9,20.8-40.3,29.5-61.2c3.9-9.4,7.8-18.9,10.2-28.9c1-4.3,3-11.2-0.5-14.8c-4.3-4.5-12.7-6.8-18.3-8.9
				c-8.9-3.4-17.9-6.5-27.1-9c-3.6-1-11.5-4.4-15.2-2.3c-1.6,0.9-2.6,3.3-3.4,4.8c-1.8,3.4-3.4,7-5,10.6
				c-10.1,22.6-19.3,45.9-26.8,69.5C402.1,220.9,406,221.9,406.8,219.5L406.8,219.5z"/>
		</g>
		<g>
			<path class="st3" d="M467,237.9c-3.8-0.1-7.7-1.7-11.3-2.9c-6.1-2.1-12.1-4.5-18-7c-9.6-4.1-19.9-8.2-28.5-14.3
				c-2.1-1.5-4.1,2-2,3.5c9.1,6.4,20.2,10.8,30.4,15.1c8.9,3.7,19.6,9.4,29.4,9.6C469.6,242,469.6,238,467,237.9L467,237.9z"/>
		</g>
		<g>
			<path class="st3" d="M404.6,215.4c-6.5-3.5-1.4-11,0.9-16.2c3.5-8.1,7.1-16.1,10.7-24.2c3.7-8.1,7.4-16.2,11.1-24.2
				c1.5-3.2,5-15,10-12c2.2,1.3,4.2-2.1,2-3.5c-5.6-3.4-9.4,0.9-11.7,5.4c-3,6.1-5.9,12.3-8.7,18.4c-6.7,14.6-13.5,29.2-19.6,44.1
				c-2.3,5.7-3.7,11.8,3.2,15.5C404.8,220,406.8,216.6,404.6,215.4L404.6,215.4z"/>
		</g>
		<g>
			<path class="st3" d="M497.8,162.2c15.2,8.3,3.5,30.5-0.9,41.6c-6.2,15.6-13,31-20.5,46c-1.1,2.2-2.1,4.9-3.7,6.9
				c-2.8,3.8-9.7,0.9-12.6-2.2c-1.7-1.9-4.6,0.9-2.8,2.8c4.9,5.4,15,7.9,19.2,0.8c3.8-6.4,6.8-13.3,9.9-20
				c8.1-17.5,16.7-35.7,21.8-54.4c2.4-9,0.3-20.1-8.4-24.9C497.5,157.5,495.5,161,497.8,162.2L497.8,162.2z"/>
		</g>
		<g>
			<path class="st3" d="M195.2,257.4c-0.5,25.3-1,50.7-1.6,76c0,1.1,0.9,1.9,2,2c30.9,2.5,62,2.8,93,3.3
				c35.4,0.6,70.8,0.9,106.1,0.5c11-0.1,22.1,0,33.1-0.8c1.2-0.1,1.9-0.9,2-2c2.2-25.7,1.7-51.5-0.3-77.2c-0.1-1-0.8-2.1-2-2
				c-33.8,1.8-67.8,1.6-101.7,1.4c-34.5-0.2-68.9-0.5-103.4-1.8c-5.7-0.2-11.3-0.4-17-0.8c-2.4-0.2-5.5,0-7.5-0.8
				c-2.4-0.9-3.4,2.9-1.1,3.9c1.9,0.7,4.4,0.6,6.4,0.8c4.4,0.3,8.9,0.5,13.3,0.7c14.8,0.6,29.6,0.9,44.4,1.2
				c38.2,0.7,76.5,1,114.7,0.7c17.3-0.2,34.6-0.4,51.8-1.3c-0.7-0.7-1.3-1.3-2-2c2.1,25.7,2.6,51.5,0.3,77.2c0.7-0.7,1.3-1.3,2-2
				c-24.8,1.9-50,1-74.8,0.9c-37-0.1-74.1-0.6-111.1-1.7c-15.4-0.5-30.9-1-46.3-2.2c0.7,0.7,1.3,1.3,2,2c0.5-25.3,1-50.7,1.6-76
				C199.2,254.9,195.2,254.9,195.2,257.4L195.2,257.4z"/>
		</g>
		<g>
			<path class="st3" d="M215.3,258.3c0.4-2.6-1.6-10.2,0.6-11.2c1.1-0.5,3.9,0.1,5.1,0.1c5,0.1,9.9,0.1,14.9,0.2
				c15.1,0.2,30.2,0.2,45.3,0.3c33.5,0.1,67.1,0.2,100.6-0.5c6.1-0.1,12.2-0.3,18.3-0.6c2-0.1,4.1-0.5,6-0.4
				c1.7,0.1,1.9-0.9,2.7,1.3c1,2.6-0.5,7.5-0.5,10.3c0,2.6,4,2.6,4,0c0-3.9,2-10.7-0.6-14.2c-1.5-2-3.7-1.6-5.8-1.4
				c-4.7,0.4-9.4,0.5-14.1,0.7c-15.8,0.5-31.5,0.6-47.3,0.7c-35.8,0.2-71.6,0.1-107.4-0.2c-6-0.1-12-0.1-18-0.2
				c-2.2,0-5.1-0.6-6.8,1.1c-3.3,3-0.2,9.3-0.8,13.1C211.1,259.7,214.9,260.8,215.3,258.3L215.3,258.3z"/>
		</g>
	</g>
	<g>
		<path class="st4" d="M265.1,278.1h34v10.3h-22.2v7.2H297v9.8h-20.1v15.2h-11.8V278.1z"/>
		<path class="st4" d="M304.4,278.1h21.8c5.3,0,9.1,1.3,11.6,3.8c1.7,1.7,2.7,3.9,2.7,7c0,4.9-2.8,7.8-6.5,9.5
			c5.2,1.7,8.4,4.6,8.4,10.5c0,7.3-5.9,11.7-16.1,11.7h-21.9V278.1z M323.3,295c3.6,0,5.6-1.2,5.6-3.8c0-2.3-1.8-3.6-5.3-3.6h-7.6
			v7.5H323.3z M325,311.1c3.6,0,5.6-1.4,5.6-4c0-2.3-1.8-3.8-5.8-3.8h-9v7.8H325z"/>
		<path class="st4" d="M348,278.1h11.8v42.4H348V278.1z"/>
	</g>
</g>
</svg>
