<?xml version="1.0" encoding="utf-8"?>
<!-- Generator: Adobe Illustrator 19.2.0, SVG Export Plug-In . SVG Version: 6.00 Build 0)  -->
<svg version="1.1" id="Layer_1" xmlns="http://www.w3.org/2000/svg" xmlns:xlink="http://www.w3.org/1999/xlink" x="0px" y="0px"
	 viewBox="0 0 358 342.5" style="enable-background:new 0 0 358 342.5;" xml:space="preserve">
<style type="text/css">
	.st0{fill:#EFEFEF;}
	.st1{fill:#BBBBBC;}
	.st2{fill:#7A7B7B;}
</style>
<g>
	<path class="st0" d="M59.1,301.4L59.1,301.4l-0.1,0l-0.2-0.1c-9.6-4.5-16.2-10.4-19.8-17.5l-1-2l-1.5,1
		c-10.9-11.3-16.4-23-16.3-34.9c0.1-10.2,3.7-20.4,11-31.2l0.7-1l-0.4-0.9c0.3-2.2,0.6-4.5,1-6.8l0.2-0.9l-0.5-0.7
		c-4.9-6.6-7.3-15.3-6.8-24.6c0.6-9.5,3.9-18.7,9.6-26.8l0.6-0.9l-0.4-1c-3.6-9.7-4-18-1.1-24.7c4.1-9.3,13.1-12.8,19.9-14l2.9-0.5
		l-1.6-2.5c-1.7-2.7-2.1-5.3-1.2-7.9c1.3-3.4,4.9-6.3,9.8-7.7c2.8-0.8,5.7-1.2,8.7-1.2c1,0,1.9,0,2.9,0.1l2.4,0.2l-0.3-2.4
		c-0.2-2,1.4-4.6,3-6.2c2.4-2.2,5.5-3.3,9.3-3.3c3.2,0,6.9,0.8,10.9,2.2l2.2,0.8l0.5-2.3c0.5-2.3,1.1-4.6,2-6.7
		c2.5-6.4,10.1-15.7,17.2-15.7c2.1,0,4.1,0.8,5.9,2.5l1.6,1.5l1.3-1.7c3.4-4.3,7.6-7.7,12.6-10.1c3.5-1.7,9.7-3.6,15.4-3.6
		c5.3,0,8.9,1.6,10.7,4.9l0.6,1l1.2,0c1.6,0,3.3,0.1,4.8,0.3l0.3,2.2l2.5-1.3c4.5-2.3,9.3-3.5,13.8-3.5c1,0,2,0.1,2.9,0.2
		c10.8,1.3,17.2,11.9,19.5,17.1l-5.6,2.7l6.7-1.6c4.7-1.1,9.7-1.7,14.7-1.7c2.3,0,4.7,0.1,7,0.4c8,0.9,18.9,3.2,25.6,9.6
		c4.2,4,7,9.9,8.9,18.6l0.2,0.8l0.7,0.4c12.8,10.8,31.5,27.6,45.3,48.1c11.5,17.1,15.5,31.5,12.4,45.5c-0.5,2.3-1.2,4.8-2.3,7.7
		c-0.1,0.3-0.3,0.6-0.4,1c-0.5,1.2-1.1,2.5-1.1,3.8l0,0.3l0.2,0.8l-0.1,0.3l0.1,0.6c0.4,2,1.3,4.1,2.1,6.1c0.6,1.3,1.1,2.6,1.4,3.6
		c4.6,15.6,3.8,28-2.3,37c-3.6,5.3-8.8,9.9-13.7,14.3c-2.4,2.1-4.9,4.4-7.2,6.6c-6.7,6.7-12.4,14.6-16.9,23.4
		c1.6-17.3,1.9-34.9,0.9-52.3l-0.1-1.6l-1.6-0.2c-5.3-0.8-10-3-14-6.5c-10-8.9-14.2-23.5-17-36.5c-3.1-14.2-4.5-28.3-5.9-43.9l0-0.2
		l-0.1-0.2c-2.3-7.9-10.6-11.4-17.8-11.4c-2.9,0-5.6,0.5-8,1.6l-1.1,0.2l-0.4,1c-3.4,7.9-8.5,14.4-14.8,18.6
		c-5.3,3.5-11.4,5.3-18.1,5.3c-3,0-6-0.3-9.1-1c0.5,0,1.1,0,1.6,0c19.3,0,28.7-11.1,30.9-21.4l0.5-2.6l-2.3-0.2c-1-0.1-2-0.1-3-0.1
		c-4.9,0-10,0.8-16.7,2.5l-0.1-0.1l-0.5-0.3c-2-1-3.8-1.8-5.7-2.2l-0.5-0.1l-0.3,0.1c-3.5-1.3-7.2-2.1-11.7-2.5
		c-0.5,0-1-0.1-1.6-0.1c-1.9-0.1-3.7-0.3-5.3-0.8l-0.7-0.2l-0.7,0.2c-1.9,0.7-3.9,1-6.1,1c-3.7,0-7.3-1-10.2-2.8l-1.3-0.8l-1.1,1
		c-1.8,1.7-4.9,2.8-8.1,2.8c-1.4,0-2.7-0.2-3.8-0.6l-0.3-0.1l-0.5-1.1l-1.5-3l0,2.7l0.3,1.7c-0.2,0.1-0.6,0.2-1.3,0.2
		c-0.4,0-0.9,0-1.4-0.1c-1.5-0.3-2.8-1-3.9-2.2l-2.2-2.3l-1.1,3c-0.7,1.8-2.8,3.4-4.4,3.9c-6.1-2.1-12.8-3.2-19.9-3.2l-1.9,0
		l-0.5,1.3c0,0,0,0,0,0c0,0,0,0,0,0c-3.1,5.8-8.2,10.8-13.2,15.3l-0.5,0.5l-0.1,0.7c-1.2,7.9-5.9,15.7-10.1,22.5l-0.6,1
		c-1,1.7-2.1,3.4-3.1,5l-0.3,0.5l0,0.6c-0.3,11.6-4.9,23.3-9.1,33.7l-0.2,0.5l0.1,0.6c2.4,13.7,0.7,27.8-0.8,41.3
		c-1.3,11.1-2.6,22.7-1.8,34.1C59.8,301.7,59.1,301.4,59.1,301.4z"/>
	<g>
		<path class="st1" d="M57.9,299.1c-10.5-20-5.4-42.1,0.3-59.2c0.8-2.5,1.8-5.2,3.2-8.7l1.9,0.3c1.3,12.3-0.1,24.8-1.5,36.8
			c-1.2,9.9-2.4,20.2-2,30.3L57.9,299.1z"/>
		<path class="st1" d="M292.2,294.5c0.8-10.5,1.2-21.3,1-32.1l1.9-0.4c2.4,6.7,4.4,13.6,5.9,20.6c0,0.1,0.1,0.2,0.1,0.2l0.7,0.6
			l-0.6,0.7c-2.7,3.5-5.1,7.1-7.3,10.9L292.2,294.5z"/>
		<path class="st1" d="M311.8,270.9c-1.7-9.3-3.5-17-6.8-24.3l-0.5-1.1l1.2-0.3c3.1-0.7,6.3-1.7,9.7-3.1l1-0.4l0.3,1
			c2,6.4,3.7,13.2,5.2,20.2l0.2,0.6l-0.4,0.5c-2,2-4.2,3.9-6.3,5.7l-3.2,2.8L311.8,270.9z"/>
		<path class="st1" d="M241,125.4c0-0.8,0.1-1.7,0.1-2.7c0.3-8.9,0.9-22.4-8-26.3c-0.1,0-0.1-0.1-0.1-0.1l-0.4-0.4L232,96
			c-1.6,0.3-3.2,1-5.1,2.1c0,0.5-0.5,1.1-1.1,0.8c0.2,0.1-0.2,0.2-0.3,0.3c-0.3,0.2-0.5,0.4-0.8,0.6c-0.5,0.5-1,1-1.5,1.5
			c-0.9,0.9-1.7,1.9-2.6,2.8c-0.1,0.1-0.1,0.1-0.2,0.1c-3.6,3.9-5.9,7.3-7,10.3l-0.6,1.7l1.8-0.4c1.5-0.3,2.9-0.5,4.4-0.5
			c2.9,0,8.2,0.8,10.8,5.8c3.6,7.1,1.9,16.6-0.2,23.3c-0.2,0.5-0.3,1-0.5,1.6l-0.6,1.8l1.8-0.5c1.9-0.5,3.9-0.8,6-0.8
			c2.1,0,4.1,0.3,6.1,0.8l1.9,0.5l-0.7-1.9C240.9,139.3,240.9,132.2,241,125.4z"/>
		<path class="st1" d="M332.5,242.1c-4.1-15.8-10.8-32.7-20.7-51.7c-10.9-21-22.3-37.6-34.4-50.8l-0.4-0.3v-0.4
			c0-1.9,0.2-3.8,0.2-5.6c0-3.3,0-6.2-0.1-8.9l0-2.4l1.8,1.6c22.4,20.7,39.5,49.6,49.4,83.5c0.2,1.2,0.7,2.3,1.1,3.4
			c0.2,0.6,0.4,1.1,0.6,1.6c2.7,7.7,6,19.2,4.5,29.9L332.5,242.1z"/>
		<path class="st1" d="M311.8,239.8c-2.8,0-5.5-0.3-7.9-0.8l-0.7-0.2l0-0.7c0-0.1,0-0.1,0-0.2c-3.3-7.6-6.9-14.8-10.7-21.3
			c-0.4-0.7-0.8-1.4-1.2-2.1c-3.2-5.6-6.5-11.1-11.2-15.1c-0.1-0.1-0.2,0.2-0.3,0.2h-0.9l-0.1-1.2c-0.7-5.4-1.1-11.4-1.4-17.9
			l-0.1-2.5l1.8,1.6c15.8,14.4,28.1,34.2,36.4,59l0.4,1.2l-1.3,0.1C313.5,239.8,312.7,239.8,311.8,239.8z"/>
		<path class="st1" d="M32,210.5c3.9-24.6,15.3-44.4,31.4-54.5c10-6.2,22.3-10.1,34.6-10.8l1.9-0.1l-1,1.6
			c-3.8,6.4-9.7,11.5-15.3,16.5c-0.8,0.7-1.5,1.3-2.2,2c-3,2.7-6.1,5.4-9.2,8c-6.1,5.3-12.4,10.8-18.3,16.4
			c-6.4,6.1-13.8,13.4-20.1,21.6L32,210.5z"/>
		<path class="st1" d="M327.5,201.2c-0.4-1.3-0.9-2.6-1.3-3.8l-0.3-0.7l0.1-0.3c0,0,0-0.1,0-0.1c2.2-15.6-3.7-31.3-9-43.3
			c-2.3-5.2-4.6-9.8-6.9-14.1l1.7-1.1c1.2,1.6,2.3,2.9,3.2,4.1c10.2,13.6,21.4,31.8,17,51.8c-0.4,1.9-1.2,3.8-1.9,5.7
			c-0.3,0.7-0.5,1.3-0.8,2l-1,2.7L327.5,201.2z"/>
		<path class="st1" d="M250.6,152c-1.3-1.3-2.8-2.5-4.6-3.4l-0.4-0.2l-0.2-0.5c-3.9-7.6-3.7-15.9-3.4-23.9c0.1-2.7,0.2-5.5,0.1-8.2
			c-0.2-5.3-0.8-12.9-4.7-17.4l1.3-1.5c3.7,2.2,5.6,6.7,7,10.9c3.9,11.7,5,24.4,6,36.6c0.2,2.2,0.4,4.5,0.6,6.7l0.3,2.9L250.6,152z"
			/>
		<path class="st1" d="M198.1,147.7c3.2-3.8,8-8.9,12.8-8.9c0.6,0,1.2,0.1,1.7,0.2c2.8,0.8,4.2,3.5,4,7.8l0,1l-1-0.1
			c-1-0.1-2.1-0.1-3.2-0.1c-4,0-8.2,0.5-13.3,1.7l-2.9,0.7L198.1,147.7z"/>
		<path class="st1" d="M141.8,145.2c-1.3,0-2.4-0.2-3.4-0.5l-0.5-0.2l-0.2-0.5c-10-19.9-22.1-48.9-11-72.7
			c5.8-12.5,17.9-20.8,30.9-21.3c0.4,0,0.8,0,1.2,0c4.8,0,8.2,1.1,10.3,3.1l1.5,1.5l-2.2,0.2c-14.9,1.1-26.4,9.4-30.7,22.1
			c-7.2,21.6,4.7,47.1,12.6,64l0.3,0.6l-0.5,0.5C148.4,144,145.1,145.2,141.8,145.2z"/>
		<path class="st1" d="M124.7,143.7c-16.2-17.5-35.9-28.4-55.3-30.7c-2.1-0.3-4.3-0.4-6.5-0.4c-1.9,0-3.9,0.1-5.7,0.3l-0.5,0.1
			l-0.3-0.4c-3.2-3.9-2.9-7.1-2.1-9.1c1.9-4.8,8.3-7.8,13.8-8.5c1.6-0.2,3.2-0.3,4.8-0.3c11.3,0,23.1,5.7,32.1,15.6
			c0.1,0.1,0.2,0.1,0.2,0.1l0.6,0.1l0.2,0.6c5.2,12.8,14.1,23.4,20.7,30.1l0.7,0.7l-0.6,0.7c-0.1,0.4-0.2,0.7-0.3,1l-0.6,1.5
			L124.7,143.7z"/>
		<path class="st1" d="M102.3,106.2C95.4,99.8,87,95.5,78.8,94L78.4,94l-0.2-0.3c-0.5-0.7-0.7-1.6-0.5-2.5c0.5-2.5,3.5-5.2,4.8-6.1
			c2.2-1.4,4.8-2,7.8-2c4.2,0,8.5,1.4,11.3,2.5l0.7,0.3l-0.1,0.8c-0.7,6-0.2,12.2,1.7,18.6l1,3.4L102.3,106.2z"/>
		<path class="st1" d="M216.1,70.8c1,1.2-5.6,2.7-5.6,2.7l-10.8,5.2l-11.8,10.8l-5.6,13.2l-1.4,15.4l2.7,14.6l5.2,14.6
			c0,0-7.1,0.4-7.9-1.4C155.2,90.3,200.9,53,216.1,70.8z"/>
		<path class="st1" d="M178.7,56c2.4-0.3-7.9,6.7-7.9,6.7l-8.1,13.6L160,93.3l0.2,20.1l3.6,16.2L169,144l-7.5,0.9
			C161.5,144.9,129.9,62.3,178.7,56z"/>
	</g>
	<g>
		<g>
			<path class="st2" d="M128.6,140.1c-15.2-15.1-29.5-37.2-23.1-59.6c2.3-7.9,13.7-25.4,23.3-15.2c1.3,1.4,3.4-0.7,2.1-2.1
				c-10.2-10.9-23.4,3.6-27.1,13.1c-9.5,24.2,6,49.3,22.7,65.9C127.9,143.6,130,141.5,128.6,140.1L128.6,140.1z"/>
		</g>
		<g>
			<path class="st2" d="M138.7,143.5c-10.5-20.7-21.6-48.8-11-71.7c5.4-11.6,17.1-20.2,30.1-20.7c3.9-0.1,9.7,0.3,11.8,4.2
				c0.9,1.7,3.5,0.2,2.6-1.5c-5.2-9.4-21.3-5.6-28.7-2.1C127.1,59.5,120,77,120.6,94.4c0.6,17.8,7.5,34.9,15.4,50.6
				C136.9,146.7,139.5,145.2,138.7,143.5L138.7,143.5z"/>
		</g>
		<g>
			<path class="st2" d="M152.4,140.4c-8.1-17.3-17.8-38.7-13.8-58.2c1.8-8.9,6.4-16.5,14.6-20.8c7.2-3.8,15.8-5.3,23.8-4.2
				c1.9,0.3,2.7-2.6,0.8-2.9c-17.2-2.3-35.1,5.3-40.9,22.5c-7.2,21.5,3.8,45.9,12.9,65.2C150.7,143.7,153.3,142.1,152.4,140.4
				L152.4,140.4z"/>
		</g>
		<g>
			<path class="st2" d="M170.3,143.2c-5.2-10.3-7.3-22.4-8.3-33.8c-1-11.4-1.1-23.7,2.7-34.6c3.4-9.7,12.1-16.8,22-19.4
				c12.4-3.2,22.6,2.9,27.6,14.3c0.8,1.8,3.4,0.2,2.6-1.5c-3.8-8.6-10.6-15.4-20.2-16.5c-8.5-1-17.2,2.2-23.9,7.3
				c-15.8,12-15.5,35.2-13.6,53.1c1.2,11.1,3.4,22.6,8.4,32.7C168.6,146.5,171.2,144.9,170.3,143.2L170.3,143.2z"/>
		</g>
		<g>
			<path class="st2" d="M190.3,147c-6.3-14.3-10.8-31.1-5.8-46.5c3.6-11.1,12.3-19.5,22.8-24.2c10.5-4.7,22.6-6,33.9-4.4
				c8.8,1.3,19.4,4.3,24.9,11.8c5.2,7,6.9,16.5,7.9,25c1.3,11.2,1.4,22.5,1.4,33.7c-0.1,22.7-1.7,46.3,3.5,68.5
				c2.1,9.1,5.8,18.7,13.3,24.7c8,6.4,18.3,7,28.1,5.4c-0.4-0.9-0.8-1.8-1.2-2.7c-13.2,6.2-29.9,10.2-41.8-0.8
				c-10.7-9.8-14.5-25.7-17.2-39.4c-3.4-17.2-4.6-34.7-6.3-52.1c-1.3-13.5-2-28.2-6.9-40.9c-1.6-4.1-4-8.6-8.2-10.6
				c-4.6-2.1-9.7-0.2-13.8,2.3c-1.7,1-0.1,3.6,1.5,2.6c3.4-2,7.7-4,11.6-1.9c3.7,2,5.6,6.7,6.8,10.5c4.6,13.7,5.2,28.8,6.5,43.1
				c1.6,17.1,3,34.4,6.6,51.3c2.9,13.2,7.2,28.3,17.7,37.6c13,11.6,30.7,7.6,45,0.9c1.7-0.8,0.4-3-1.2-2.7
				c-9.7,1.6-20.1,0.6-27.4-6.7c-6.6-6.6-9.4-16.2-11.1-25.2c-4.5-23.9-2.3-48.9-2.6-73.1c-0.1-10.8-0.5-21.8-2.5-32.4
				c-1.5-7.8-4.1-16.3-10-22c-6.8-6.5-17.6-9.2-26.8-10.2c-11-1.2-22.4,0.3-32.5,4.7c-11.3,4.9-20.5,13.8-24.7,25.5
				c-5.8,16.4-0.9,34.3,5.8,49.6C188.4,150.3,191,148.8,190.3,147L190.3,147z"/>
		</g>
		<g>
			<path class="st2" d="M196.4,151.3c3-3.7,10-13.1,16-11.4c4,1.1,3.5,7,2.9,10.1c-3.6,16.4-21.3,21.8-36.1,19.2
				c-1.9-0.3-2.6,2.3-0.8,2.9c11.6,3.9,24.2,4.1,34.7-2.9c8.6-5.7,14.4-14.9,17.5-24.6c2.3-7.3,3.8-16.9,0.1-24.1
				c-3.2-6.2-10.7-7.4-16.9-5.7c-14.3,3.9-22,19.6-26.2,32.5c-0.6,1.8,2.3,2.6,2.9,0.8c3.7-11.2,9.7-24.2,21.2-29.4
				c5.1-2.3,13-2.9,16.1,2.8c3.4,6.1,2,14.7,0.2,21c-2.4,8.4-7,16.5-13.8,22.1c-10.1,8.3-23,8.7-35,4.6c-0.3,1-0.5,1.9-0.8,2.9
				c14.4,2.5,30.4-1.2,37.5-15.2c2.8-5.5,5.7-19.9-4.4-20.2c-7.1-0.1-13.3,7.6-17.2,12.4C193.1,150.7,195.2,152.8,196.4,151.3
				L196.4,151.3z"/>
		</g>
		<g>
			<path class="st2" d="M273.4,100.7c14.8,12.5,29.1,26.1,40.8,41.7c11,14.6,21,32.1,16.8,51c-0.9,4-3.2,7.8-3.8,11.8
				c-0.4,2.5,1,5.1,1.8,7.4c4.3,12.3,7.7,27,1.3,39.2c-5.2,9.8-15.9,16.8-23.5,24.7c-7.1,7.3-12.8,15.7-17.1,24.9
				c0.9,0.3,1.9,0.5,2.8,0.8c1.8-18.5,2.2-37,1.1-55.5c-0.1-1.9-3.1-1.9-3,0c1,18.5,0.7,37.1-1.1,55.5c-0.1,1.5,2.2,2.1,2.8,0.8
				c4.5-9.5,10.4-18.1,17.8-25.5c6.9-6.9,15.5-13.1,21.1-21.3c7.8-11.4,6.3-26.1,2.6-38.6c-1-3.3-3.7-7.8-3.7-11.2
				c0-1.3,1-2.9,1.4-4.1c1-2.6,1.8-5.2,2.4-8c3.7-17.2-3.2-33-12.7-47.1c-12.5-18.5-28.7-34.2-45.7-48.5
				C274.1,97.3,271.9,99.4,273.4,100.7L273.4,100.7z"/>
		</g>
		<g>
			<path class="st2" d="M275.5,122c25.6,22.5,42.3,53.3,51.8,85.7c0.5,1.8,3.4,1.1,2.9-0.8c-9.6-32.9-26.7-64.2-52.6-87.1
				C276.2,118.6,274.1,120.7,275.5,122L275.5,122z"/>
		</g>
		<g>
			<path class="st2" d="M275.8,140.6c13.9,15.1,24.8,32.8,34.3,50.9c9.4,18.1,17.6,37.2,21.9,57.1c0.4,1.9,3.3,1.1,2.9-0.8
				c-4.4-20.2-12.7-39.6-22.2-57.9c-9.5-18.3-20.7-36.3-34.7-51.5C276.6,137,274.5,139.1,275.8,140.6L275.8,140.6z"/>
		</g>
		<g>
			<path class="st2" d="M275.8,178.1c25.1,21.4,38.5,53.4,45.1,85.1c0.4,1.9,3.3,1.1,2.9-0.8c-6.7-32.1-20.4-64.7-45.9-86.4
				C276.5,174.7,274.3,176.8,275.8,178.1L275.8,178.1z"/>
		</g>
		<g>
			<path class="st2" d="M126.2,143.8c-14.8-16.2-34.6-29.2-56.7-31.8c-13.8-1.6-31,1.5-37.2,15.6c-3.7,8.6-2,18.3,1.2,26.7
				c0.7,1.8,3.6,1,2.9-0.8c-3.3-8.7-5.2-19,0-27.4c4.7-7.5,13.8-10.8,22.3-11.5c25.1-2,49.2,13.4,65.4,31.2
				C125.4,147.4,127.5,145.3,126.2,143.8L126.2,143.8z"/>
		</g>
		<g>
			<path class="st2" d="M122.6,145.9c-21.1-12.7-47.9-20.6-71-8.3c-16.1,8.6-27.1,25.9-28.3,44.1c-0.6,9.2,1.6,18.6,7.3,26.1
				c1.2,1.5,3.8,0,2.6-1.5c-9.8-12.9-8.3-31-1-44.8c9-17,26.4-27.2,45.6-27.1c15.5,0.1,30.2,6.3,43.3,14.1
				C122.8,149.4,124.3,146.8,122.6,145.9L122.6,145.9z"/>
		</g>
		<g>
			<path class="st2" d="M122.3,146.4c-19.3-6.8-44-2.5-60.9,8.6c-19.6,12.9-29.2,37.2-31.9,59.6c-0.2,1.9,2.8,1.9,3,0
				c2.6-21.7,12.2-45.7,31.5-57.7c16.2-10.1,39.3-14,57.5-7.6C123.3,150,124.1,147.1,122.3,146.4L122.3,146.4z"/>
		</g>
		<g>
			<path class="st2" d="M98.9,144.9c-4.1,7.8-11.7,13.9-18.1,19.6c-9.2,8.2-18.6,16-27.6,24.5c-16.1,15.3-34.8,35.1-35,58.8
				c-0.1,14.3,7.5,26.7,17.2,36.7c1.4,1.4,3.5-0.7,2.1-2.1c-9.1-9.3-16.3-20.8-16.4-34.1c0-11.2,4.8-21.7,10.9-30.8
				c13.4-19.9,33-34.9,50.7-50.7c6.7-5.9,14.4-12.2,18.6-20.2C102.4,144.7,99.8,143.2,98.9,144.9L98.9,144.9z"/>
		</g>
		<g>
			<path class="st2" d="M84.9,161.4c-1,8.7-6.7,17-11.2,24.3c-6.4,10.4-13.3,20.6-19.7,31c-10.7,17.4-24.9,40.8-19,62.2
				c3.3,12.2,13.6,20,24.7,24.9c1.8,0.8,3.3-1.8,1.5-2.6c-10.4-4.6-20.2-11.7-23.3-23.1c-2.8-10.1-0.1-20.8,3.5-30.3
				c8.4-22.2,23.2-41.3,35.5-61.4c4.6-7.6,10-16,11.1-25.1C88.2,159.5,85.2,159.5,84.9,161.4L84.9,161.4z"/>
		</g>
		<g>
			<path class="st2" d="M70.7,191.1c-0.1,8.6-3.1,17-6,25c-3.4,9.5-7.2,18.9-10.1,28.6c-5.8,19.3-7.8,40,3,57.9
				c1,1.7,3.6,0.1,2.6-1.5c-11.5-19.1-7.7-40.9-1-60.9c5.2-15.7,14.4-32.2,14.6-49.1C73.7,189.2,70.7,189.2,70.7,191.1L70.7,191.1z"
				/>
		</g>
		<g>
			<path class="st2" d="M61.6,226.5c4.4,25.4-4.7,50.6-2.6,76.1c0.2,1.9,3.2,1.9,3,0c-2.1-25.8,7-51.2,2.5-76.9
				C64.1,223.8,61.2,224.6,61.6,226.5L61.6,226.5z"/>
		</g>
		<g>
			<path class="st2" d="M106.3,108.7C95.7,97.2,79.2,89.3,63.4,93.8c-10.1,2.9-15.9,11.9-8.1,20.7c1.3,1.4,3.4-0.7,2.1-2.1
				c-7.8-8.8,2.1-15.3,10.7-16.5c13.8-1.9,26.9,5,36,14.9C105.5,112.2,107.6,110.1,106.3,108.7L106.3,108.7z"/>
		</g>
		<g>
			<path class="st2" d="M229,149.7c8-3.4,20.4-0.5,23.1,8.6c0.5,1.9,3.4,1.1,2.9-0.8c-3.2-11.2-17.7-14.6-27.5-10.4
				C225.7,147.9,227.2,150.4,229,149.7L229,149.7z"/>
		</g>
		<g>
			<path class="st2" d="M216.5,146.8c-7.2-0.7-14.4,0.6-21.4,2.4c-1.9,0.5-1.1,3.4,0.8,2.9c6.7-1.8,13.6-3,20.6-2.3
				C218.4,150,218.4,147,216.5,146.8L216.5,146.8z"/>
		</g>
		<g>
			<path class="st2" d="M278.5,200.3c5.6,4.9,9.4,12.4,13.1,18.8c3.6,6.4,6.9,13.1,9.8,19.8c0.8,1.8,3.4,0.2,2.6-1.5
				c-3.2-7.3-6.7-14.5-10.7-21.4c-3.6-6.1-7.2-13.1-12.6-17.8C279.2,196.9,277.1,199.1,278.5,200.3L278.5,200.3z"/>
		</g>
		<g>
			<path class="st2" d="M303.1,247.2c3.9,8.3,5.6,17.3,7.2,26.3c0.3,1.9,3.2,1.1,2.9-0.8c-1.6-9.3-3.4-18.4-7.5-27
				C304.9,243.9,302.3,245.5,303.1,247.2L303.1,247.2z"/>
		</g>
		<g>
			<path class="st2" d="M292,256.6c3.5,8.5,6.2,17.3,8.1,26.3c0.4,1.9,3.3,1.1,2.9-0.8c-2-9-4.7-17.7-8.1-26.3
				C294.1,254.1,291.2,254.9,292,256.6L292,256.6z"/>
		</g>
		<g>
			<path class="st2" d="M277.2,142.2c11,12.4,18,28.9,23.8,44.2c6.3,16.5,11.7,33.9,13.4,51.5c0.2,1.9,3.2,1.9,3,0
				c-1.8-18.4-7.4-36.5-14.1-53.6c-6-15.4-12.9-31.7-24-44.1C278.1,138.6,275.9,140.7,277.2,142.2L277.2,142.2z"/>
		</g>
		<g>
			<path class="st2" d="M296.6,122.3c7.4,8.5,13,19.1,17.7,29.2c6.2,13.4,12,29,9.9,44c-0.3,1.9,2.6,2.7,2.9,0.8
				c2.1-15-3-30.3-9.1-43.8c-5-11.2-11.1-23-19.3-32.3C297.4,118.7,295.3,120.8,296.6,122.3L296.6,122.3z"/>
		</g>
		<g>
			<path class="st2" d="M150.4,143.1c5.4,3.8,13.2,4.9,19.3,2.6c1.8-0.7,1-3.6-0.8-2.9c-5.5,2-12.2,1.1-17-2.3
				C150.3,139.4,148.8,142,150.4,143.1L150.4,143.1z"/>
		</g>
		<g>
			<path class="st2" d="M136.7,146.1c4.5,2,11.8,1,15.3-2.8c1.3-1.4-0.8-3.6-2.1-2.1c-2.5,2.8-8.3,3.8-11.6,2.4
				C136.5,142.8,135,145.4,136.7,146.1L136.7,146.1z"/>
		</g>
		<g>
			<path class="st2" d="M126.6,141.9c1.4,2.5,3.7,4.5,6.7,5c1.6,0.3,3.9,0.4,4.9-1.1c1.1-1.6-1.5-3.1-2.6-1.5
				c0.5-0.6,0.3-0.3-0.3-0.3c-0.6,0.1-1.3,0-1.9-0.2c-1.9-0.5-3.3-1.8-4.2-3.5C128.2,138.7,125.7,140.2,126.6,141.9L126.6,141.9z"/>
		</g>
		<g>
			<path class="st2" d="M125.7,142.2c-0.2,1.2-0.9,2.1-1.9,2.9c-0.4,0.3-0.8,0.6-1.3,0.9c-0.4,0.2-0.7,0.4-0.9,0.4
				c-1.8,0.6-1.1,3.5,0.8,2.9c2.7-0.8,5.7-3.4,6.2-6.3c0.1-0.8-0.2-1.6-1-1.8C126.8,141,125.8,141.4,125.7,142.2L125.7,142.2z"/>
		</g>
		<g>
			<path class="st2" d="M168.4,145.3c2.7,1.2,5.5,1.2,8.4,1.5c3.9,0.4,7.7,1.1,11.3,2.5c1.8,0.7,2.6-2.2,0.8-2.9
				c-2.9-1.1-5.9-1.8-9.1-2.3c-3.2-0.4-7-0.1-10-1.4C168.2,142,166.6,144.5,168.4,145.3L168.4,145.3z"/>
		</g>
		<g>
			<path class="st2" d="M196.1,149c-2-1.1-4.2-2-6.5-2.6c-1.9-0.5-2.7,2.4-0.8,2.9c2,0.5,3.9,1.3,5.7,2.2
				C196.3,152.5,197.8,149.9,196.1,149L196.1,149z"/>
		</g>
		<g>
			<path class="st2" d="M212.9,115c0.2,0.1,0.4,0.1,0.5,0.2c0.1,0.5,0.3,1,0.4,1.5c0.7-4.2,4.5-8.8,7.3-11.9
				c1.3-1.4-0.8-3.5-2.1-2.1c-1.5,1.6-12.1,15.4-6.1,15.3C214.8,118,214.8,115,212.9,115L212.9,115z"/>
		</g>
		<g>
			<path class="st2" d="M232.7,97.3c9.2,4.1,7.5,19.9,7.4,28.1c-0.2,8.2,0,16.2,3.8,23.7c0.9,1.7,3.5,0.2,2.6-1.5
				c-5.1-9.9-2.9-21.1-3.3-31.8c-0.2-7.2-1.4-17.7-8.9-21.1C232.5,93.9,230.9,96.5,232.7,97.3L232.7,97.3z"/>
		</g>
		<g>
			<path class="st2" d="M102.1,83.5c-7.1-2.7-16.4-4.4-22.6,1.3c-2.7,2.4-5.2,7.2-2.6,10.5c1.2,1.5,3.3-0.6,2.1-2.1
				c-1.8-2.3,2.5-6.4,4-7.3c5.5-3.4,12.6-1.6,18.2,0.5C103.1,87.1,103.9,84.2,102.1,83.5L102.1,83.5z"/>
		</g>
	</g>
</g>
</svg>
