<?xml version="1.0" encoding="utf-8"?>
<!-- Generator: Adobe Illustrator 19.2.0, SVG Export Plug-In . SVG Version: 6.00 Build 0)  -->
<svg version="1.1" id="Layer_1" xmlns="http://www.w3.org/2000/svg" xmlns:xlink="http://www.w3.org/1999/xlink" x="0px" y="0px"
	 viewBox="0 0 739.6 909.9" style="enable-background:new 0 0 739.6 909.9;" xml:space="preserve">
<style type="text/css">
	.st0{fill:#C47546;}
	.st1{fill:#8F522E;}
	.st2{fill:#814927;}
	.st3{fill:#3A291D;}
</style>
<g>
	<path class="st0" d="M256.3,360.8l-4.8-15.1l-6.2-19.8l-5.8-23.7l-10.2-41.8l2-30.3l3.9-19.9l5.9-15.6l14.1-25.1l22.8-23.8L295,133
		l22.3-10.8l15.4-5.3l18.9-4l15-0.6l13.5,0.5l13.1,0.6l24.9,6.2l9.4,8.5l1.9-6.6v-17.4v-6l6.2,6.6l6.2,12.5l1.5,11.7
		c0,0,0.3,11.6,0.1,11.8s5.1-6.4,5.1-6.4l8.3-11.3l0.6,7.8l-2.3,18.6l6-4.7l7.8-1.5l6.3,3l10.4,9.7l8.9,13.3L500,183l6.4,6l4.3,11.7
		l5.9,18.6l2.1,17.3l1.1,18.5l-3,20.1l-6,24l-9.1,27.6l-14.3,31.7L487,347l-2.3-21.3l-7.1-26.9l-3.4-9l-9.5-12.4l-8.1-11.6
		l-9.1-13.1l-7.4-15.4l-3.7-18.1l-5.7,5.8l-11.3,14.1l-18.4,15.1l-13.9,7.1l2.1-10.9l-8.7,6.8l-34.7,27l-1.7-4.7c0,0,0-13.7,0-14.5
		c0-0.8,0.3-9,0.3-9l-5.4,5.2l-16.9,14.5l-11.4,8.8l0.2-5.5l-0.1-7.3l-5.4,6l-0.8-11.3l-5.9,6.7l-23.8,21.9l-10.7,37
		c0,0-4.2,13.8-4.2,14.3S256.3,360.8,256.3,360.8z"/>
	<g>
		<path class="st1" d="M443.3,140.8c0,0-6.3,16-20.1,34.8c-18.4,25-43.6,54.2-58.9,74.9c-15.4,20.8-18.5,33.8-18.5,33.8l43.4-33.8
			l14.5-14l22.1-33.1l10.6-21.3l4.6-18.8c0,0,4.1-15,3.2-15.8S443.3,140.8,443.3,140.8z"/>
		<path class="st1" d="M425.8,128.8c0,0-47,4.9-93.5,53.2c-34,35.4-57.4,112.9-57.4,112.9l20.5-18.9l9.3-12.2l11.8-38.2l8.7-18.8
			l14.3-20.2l13.5-11.3l15.9-9.6l18.2-14.4l18.9-12l9.3-4L425.8,128.8z"/>
		<path class="st1" d="M450.4,192.2c-2,0.7,9.6,55.2,35.3,105.7c-2.8,2.1-11.4-8-11.4-8L461.3,273L450.4,258l-7.8-15.7l-6.1-15
			l0-9.2l7.4-13.7l5.7-16.2L450.4,192.2z"/>
	</g>
	<g>
		<polygon class="st2" points="443.5,140.6 443,151.7 437,177.7 425.9,203.3 414.3,221.9 401,237.4 390.9,248.7 387.2,261.2 
			392.5,259.5 406.7,250.2 427.4,231.4 439.9,212.2 447.7,194.7 451.8,180.3 455.6,148.8 457,139.4 457.4,126.5 455.7,123.1 
			450.3,132.5 		"/>
		<polygon class="st2" points="474.9,291.8 478.3,300.5 482.2,313.7 485.7,328.5 488.4,359.7 492.5,350.3 500.9,328.6 507.6,309.7 
			519.8,264.5 519.8,248.7 518.8,229.4 511.8,204 502.4,183.9 506.3,208.9 507.6,219.3 509.1,229.4 507,231.2 501.7,215.4 
			495.9,204.9 497.4,215.4 502.4,258 500,289 497,286.2 489.7,258 489.3,269.9 478.9,255.7 483.9,296.8 		"/>
		<polygon class="st2" points="455.1,157.9 462.9,171.9 473.7,196.1 482,223.6 489.1,252.7 489.1,268.3 477.3,253.5 470.2,232.8 
			455.9,197.8 450.4,186.8 453.4,170.4 		"/>
		<path class="st2" d="M248.4,333.4c0.1-0.8,5.6-20.3,5.6-20.3l7.4-16.2l12.5-22.4l1,20.4L261,343.1l-4.8,17.8
			c0,0-4.6-11.6-4.9-12.5S248.4,333.4,248.4,333.4z"/>
		<path class="st2" d="M369,167.4c-0.6,0.6-11.1,13-11.1,13l-11,15.8l-11.7,20.5l-10,21.1l-11.6,29.5l-7.4,9.5l-0.4-12.2l4.1-19.8
			l9.5-27.9l11.3-19.2l12.8-13.8l12.7-10.8l10.4-6.2L369,167.4z"/>
		<polygon class="st2" points="363.2,213.6 374.9,192.2 393.4,162.6 408.9,143 417.2,134.6 427.4,128 429.4,119.6 429.7,106.4 
			427.4,95.7 436.5,106 441.8,117.1 444.3,128.8 442.1,139.4 427.4,151.4 405.9,168.6 387.2,188.2 369,209.8 		"/>
		<path class="st2" d="M275,266.5c0.1-1,3.6-21.6,3.6-21.6l10.1-29.5l16.1-27.2l18.9-21.3L350,147l25.9-12.5l15.1-5.7l-17.1,1.1
			L338.9,143l-18.7,14.9l-16.7,16l-14.8,18.2l-18,25.9L263,237l-10,25.5l-7.7,26.5l-4.2,19.2l4.2,20.7l5.9,5.5l23.1-53.9L275,266.5z
			"/>
		<path class="st2" d="M287.2,135.4l-29.8,31.4l-11,15.2l-11.2,28.3c0,0-4.7,24.7-4.8,25.4s-1.1,24.8-1.9,26.2
			c-0.8,1.4,3.9,15.6,3.9,15.6l6.4,24.8l3.6,7.4l12.9-52.9l-1-16.2l4.8-16.6l7-23.1l10.3-22.2l-8.7,11.1L250,218.7l-3.6,10.5
			l3.5-17.2l5.5-19.7l12.4-25.3l16.2-21.4l11.5-12.7L287.2,135.4z"/>
	</g>
	<g>
		<g>
			<path class="st3" d="M453.1,149.3c-0.1,28.8-8.3,57-26.8,79.4c-11.2,13.5-25.2,24.2-40.7,32.3c1,0.8,2,1.5,2.9,2.3
				c1.4-4.7,2.9-9.4,4.3-14.1c0.6-2.1-1.9-3.1-3.3-1.9c-15,12.1-30,24.2-45,36.3c1.1,0.3,2.2,0.6,3.3,0.9
				c-2.3-10.4-1.9-20.7,1.1-30.9c0.5-1.9-2-3.4-3.3-1.9c-10.8,11.9-22.7,22.6-35.7,32.1c1,0.6,2,1.2,3,1.7c-0.7-5.6-0.1-10.8,2.1-16
				c1-2.3-2-4.2-3.5-2c-2.2,3.4-4.8,6.5-7.6,9.4c1.1,0.5,2.3,0.9,3.4,1.4c-0.2-5.6,0.1-11.2,0.9-16.8c0.3-2-2.8-2.6-3.7-1
				c-7.3,13.4-17.7,24.7-30.6,32.9c1,0.6,2,1.2,3,1.7c-0.2-7.3-0.3-14.6-0.5-21.9c0-2.2-3.5-2.8-3.9-0.5c-0.6,3.2-2.8,6.3-4.3,9.2
				c-2.7,5.2-5.3,10.5-7.7,15.8c-5.9,13.1-10.8,26.7-12.5,41c-0.3,2.6,3.7,2.5,4,0c1.7-15,7.3-29.3,13.7-42.8
				c2.3-4.9,4.8-9.7,7.3-14.6c1.2-2.4,2.8-4.9,3.4-7.5c-1.3-0.2-2.6-0.4-3.9-0.5c0.2,7.3,0.3,14.6,0.5,21.9c0,1.5,1.7,2.6,3,1.7
				c13.4-8.6,24.4-20.3,32-34.4c-1.2-0.3-2.5-0.7-3.7-1c-0.7,5.6-1,11.2-0.9,16.8c0.1,1.7,2.2,2.7,3.4,1.4c3.1-3.2,5.8-6.5,8.2-10.2
				c-1.2-0.7-2.3-1.3-3.5-2c-2.5,5.8-3.5,11.7-2.7,18c0.2,1.3,1.6,2.7,3,1.7c13.3-9.6,25.5-20.5,36.5-32.7c-1.1-0.6-2.2-1.3-3.3-1.9
				c-3.2,10.9-3.5,22-1.1,33.1c0.4,1.6,2.3,1.8,3.3,0.9c15-12.1,30-24.2,45-36.3c-1.1-0.6-2.2-1.3-3.3-1.9
				c-1.4,4.7-2.9,9.4-4.3,14.1c-0.5,1.7,1.5,3,2.9,2.3c29.5-15.3,52.9-40.5,63.1-72.4c4.4-13.8,6.3-28.3,6.4-42.8
				C457.1,146.8,453.1,146.7,453.1,149.3L453.1,149.3z"/>
		</g>
		<g>
			<path class="st3" d="M273,294.4c-6.3,23-16.6,45-17.5,69.2c-0.1,2.6,3.9,2.6,4,0c0.9-23.8,11.2-45.5,17.4-68.1
				C277.5,293,273.7,291.9,273,294.4L273,294.4z"/>
		</g>
		<g>
			<path class="st3" d="M457,149.9c2.5-9.4,3.1-19.3,1.5-28.9c-0.3-1.7-2.9-1.9-3.7-0.5c-3.7,6.7-8,13-13,18.9
				c-1.6,2,1.2,4.8,2.8,2.8c5.2-6.1,9.7-12.7,13.6-19.7c-1.2-0.2-2.4-0.3-3.7-0.5c1.5,8.9,0.8,18.1-1.5,26.8
				C452.5,151.3,456.3,152.3,457,149.9L457,149.9z"/>
		</g>
		<g>
			<path class="st3" d="M445.7,139.5c2.3-17.2-4.1-34.5-17.4-45.7c-1.4-1.2-4.1-0.1-3.3,1.9c3.9,10.6,4.1,21.7,0.5,32.5
				c1.2-0.2,2.4-0.3,3.7-0.5c-8.5-11.2-24.6-15.3-37.8-17.2c-20.4-3-41.5-1.3-61.3,4.2c-23.5,6.6-45.3,19-62.3,36.5
				c-20.7,21.4-33,49.4-38.4,78.5c-1.7,9-3,18.1-2.3,27.3c0.8,10.4,3.2,20.8,5.7,30.9c6.6,25.6,15.3,50.7,22.6,76.1
				c0.7,2.5,4.6,1.4,3.9-1.1c-6.3-21.8-13.5-43.3-19.7-65.1c-4.7-16.7-10.2-34.8-8.6-52.3c2.8-30.1,13.5-60.7,32.9-84.1
				c28.5-34.4,74.4-51.5,118.6-47.9c13.9,1.1,33.9,4.2,43.1,16.3c1,1.4,3.1,1.3,3.7-0.5c3.8-11.4,3.6-23.4-0.5-34.6
				c-1.1,0.6-2.2,1.3-3.3,1.9c12.1,10.2,18.5,26,16.4,41.8C441.5,141,445.4,142.1,445.7,139.5L445.7,139.5z"/>
		</g>
		<g>
			<path class="st3" d="M456.5,150.7c4.7-5,11.2-7.9,17.3-3.2c0.9,0.7,1.7,1.4,2.5,2.2c2.6,2.3,5.2,4.6,7.6,7.2
				c8.5,9.1,15,19.9,20,31.2c7.9,18.2,13.4,39.6,13.9,59.4c0.5,18.3-4.6,36.9-9.8,54.2c-6.1,20.4-13.6,40.4-22.6,59.7
				c-1.1,2.3,2.4,4.4,3.5,2c8.7-18.5,15.9-37.7,21.9-57.1c5.8-18.8,11.5-39,11.1-58.8c-0.5-20.6-6.2-42.6-14.4-61.5
				c-5.3-12.1-12.3-23.5-21.5-32.9c-2.7-2.8-5.5-5.3-8.5-7.8c-7.9-6.6-16.9-4.7-23.8,2.6C451.9,149.8,454.7,152.6,456.5,150.7
				L456.5,150.7z"/>
		</g>
		<g>
			<path class="st3" d="M434.5,218.1c0.2,16.2,9.7,32.6,18.2,45.9c8.2,12.9,18.4,27.8,32,35.6c2.2,1.3,4.3-2.2,2-3.5
				c-12.9-7.5-22.7-21.9-30.5-34.2c-8.1-12.7-17.5-28.4-17.7-43.9C438.4,215.5,434.4,215.5,434.5,218.1L434.5,218.1z"/>
		</g>
		<g>
			<path class="st3" d="M471.9,290c10.5,21.7,14.8,48.5,13.2,72.4c-0.2,2.6,3.8,2.6,4,0c1.7-24.6-2.9-52.2-13.7-74.4
				C474.3,285.7,470.8,287.7,471.9,290L471.9,290z"/>
		</g>
		<g>
			<path class="st3" d="M441.3,140.8c1.2,14.7-3.7,30.3-9,43.8c-9.4,23.8-24.4,45.1-42.9,62.6c-1.9,1.8,1,4.6,2.8,2.8
				c18.7-17.8,33.8-39.2,43.4-63.2c5.7-14.1,10.8-30.6,9.6-46.1C445.1,138.2,441.1,138.2,441.3,140.8L441.3,140.8z"/>
		</g>
		<g>
			<path class="st3" d="M348.8,253.5c8.9-28,23.1-54.4,39.4-78.7c6.9-10.3,14.3-20.5,22.7-29.7c4.6-5.1,10.3-12,17.1-14.3
				c2.4-0.8,1.4-4.7-1.1-3.9c-6.9,2.4-12.6,8.6-17.4,13.8c-8.5,9.2-16.1,19.3-23.1,29.7c-17.2,25.3-32.1,52.8-41.4,82
				C344.2,254.9,348.1,255.9,348.8,253.5L348.8,253.5z"/>
		</g>
		<g>
			<path class="st3" d="M315.1,268.8c16.6-46.5,40.2-97.6,84.8-123.4c6.6-3.8,13.5-7,20.5-10c2.3-1,1.3-4.9-1.1-3.9
				c-14.1,5.9-27.5,13-39.3,22.9c-18.7,15.5-32.9,35.8-44.3,57.1c-9.7,18-17.5,37-24.4,56.3C310.4,270.2,314.3,271.2,315.1,268.8
				L315.1,268.8z"/>
		</g>
		<g>
			<path class="st3" d="M308.1,261.8c6.4-37.6,27.1-79.9,64.1-95.3c2.3-1,1.3-4.8-1.1-3.9c-38.4,16-60.3,58.9-66.9,98.1
				C303.8,263.2,307.7,264.3,308.1,261.8L308.1,261.8z"/>
		</g>
		<g>
			<path class="st3" d="M427.4,126.8c-61.7-4.3-118.5,35.7-142.3,91.6c-7.4,17.4-11.5,35.8-12.8,54.6c-0.2,2.6,3.8,2.6,4,0
				c4-61.3,43.6-118.4,103.4-136.8c15.4-4.7,31.5-6.6,47.6-5.4C430,131,430,127,427.4,126.8L427.4,126.8z"/>
		</g>
		<g>
			<path class="st3" d="M370.1,109.2c-33.6,6-61.8,27.5-83.4,53.1c-20.5,24.2-36.6,52.7-47.1,82.6c-4,11.5-7.6,23.6-8.1,35.8
				c-0.1,2.6,3.9,2.6,4,0c0.4-10.3,3.3-20.5,6.5-30.3c4.5-13.7,10.4-27,17.1-39.8c15.3-28.8,35.6-56.2,62.1-75.5
				c14.9-10.9,31.8-18.8,50-22.1C373.7,112.6,372.7,108.7,370.1,109.2L370.1,109.2z"/>
		</g>
		<g>
			<path class="st3" d="M393.4,126.8C326.6,127.2,279.8,189.8,257,246c-8.2,20.3-14.1,41.5-17.8,63.1c-0.4,2.5,3.4,3.6,3.9,1.1
				c6.1-35.8,18.3-70.7,37.2-101.7c16.4-26.8,38.5-51.7,66.8-66.1c14.4-7.3,30.2-11.5,46.4-11.6C396,130.8,396,126.8,393.4,126.8
				L393.4,126.8z"/>
		</g>
		<g>
			<path class="st3" d="M448.6,187.6c18.4,34.2,29.9,72.4,35.2,110.8c0.4,2.5,4.2,1.5,3.9-1.1c-5.4-38.7-17.1-77.2-35.6-111.8
				C450.8,183.3,447.3,185.3,448.6,187.6L448.6,187.6z"/>
		</g>
		<g>
			<path class="st3" d="M453.4,159.3c4.2,5.3,7.1,11.9,9.9,18.1c4.4,9.8,8.3,19.9,11.7,30.1c6.9,20.8,13.3,43.2,12.7,65.4
				c1.2-0.3,2.5-0.7,3.7-1c-3.2-6.9-7.9-13.2-12.3-19.4c-1.5-2.1-5-0.1-3.5,2c4.4,6.2,9.1,12.5,12.3,19.4c0.9,1.9,3.7,0.8,3.7-1
				c0.6-22.9-6-46.2-13.3-67.7c-3.5-10.3-7.4-20.4-11.9-30.3c-2.9-6.3-5.9-12.9-10.3-18.4C454.7,154.4,451.9,157.3,453.4,159.3
				L453.4,159.3z"/>
		</g>
		<g>
			<path class="st3" d="M485.5,247.9c8.1,25,14.1,52.6,14.2,78.9c0,2.6,4,2.6,4,0c-0.1-13.5-2.1-27-4.6-40.2
				c-2.5-13.4-5.5-26.8-9.8-39.8C488.6,244.4,484.7,245.4,485.5,247.9L485.5,247.9z"/>
		</g>
		<g>
			<path class="st3" d="M456,153.1c11.9,10.1,22.5,22.3,29.7,36.2c5.4,10.5,8.4,22.1,10.7,33.6c2.5,12.6,3.8,25.5,3.9,38.4
				c0.1,10.4-0.4,21.3-3.6,31.3c-0.8,2.5,3.1,3.5,3.9,1.1c3.3-10.3,3.8-21.6,3.7-32.3c-0.1-13.2-1.5-26.5-4.1-39.5
				c-2.3-11.8-5.5-23.8-11.1-34.6c-7.3-14.2-18.2-26.8-30.3-37C456.9,148.6,454.1,151.4,456,153.1L456,153.1z"/>
		</g>
		<g>
			<path class="st3" d="M486,189.6c9.8,12.2,15,28.3,19.4,43.1c4.3,14.5,8.2,29.7,8.7,44.9c0.1,2.6,4.1,2.6,4,0
				c-0.6-16-4.6-32.1-9.2-47.3c-4.6-15-10.1-31.1-20-43.5C487.2,184.7,484.4,187.6,486,189.6L486,189.6z"/>
		</g>
		<g>
			<path class="st3" d="M487.5,160.9c14.7,25.2,21.1,55,21.2,84c0,2.6,4,2.6,4,0c-0.2-29.6-6.7-60.2-21.8-86
				C489.7,156.6,486.2,158.6,487.5,160.9L487.5,160.9z"/>
		</g>
		<g>
			<path class="st3" d="M443.1,138.1c-33.8,22.5-63,52.9-86.5,85.8c-1.1,1.6,1.5,3.1,2.6,1.5c23.2-32.5,52-62.6,85.4-84.7
				C446.2,139.6,444.7,137,443.1,138.1L443.1,138.1z"/>
		</g>
		<g>
			<path class="st3" d="M281.8,169.2c-8.5,14.8-16,30.3-21.6,46.5c-4.5,13-8.2,27.3-6.7,41.2c0.2,1.9,3.2,1.9,3,0
				c-1.4-13.7,2.2-27.5,6.6-40.4c5.5-15.9,12.9-31.2,21.3-45.8C285.3,169,282.7,167.5,281.8,169.2L281.8,169.2z"/>
		</g>
		<g>
			<path class="st3" d="M296.7,129.4c-27.9,27-48.2,64.4-51.8,103.4c-0.2,1.9,2.8,1.9,3,0c3.6-38.2,23.6-74.9,50.9-101.3
				C300.2,130.2,298.1,128.1,296.7,129.4L296.7,129.4z"/>
		</g>
		<g>
			<path class="st3" d="M312.1,283.9c8.4-14.3,16.7-28.6,25.1-43c1-1.7-1.6-3.2-2.6-1.5c-8.4,14.3-16.7,28.6-25.1,43
				C308.6,284,311.1,285.5,312.1,283.9L312.1,283.9z"/>
		</g>
		<g>
			<path class="st3" d="M342.9,230.9c1.7-2.7,3.4-5.4,5.2-8.1c1.1-1.6-1.5-3.1-2.6-1.5c-1.8,2.7-3.5,5.4-5.2,8.1
				C339.3,231.1,341.9,232.6,342.9,230.9L342.9,230.9z"/>
		</g>
		<g>
			<path class="st3" d="M351.1,216.6c0.1-0.1,0.2-0.2,0.3-0.3c0.6-0.6,0.6-1.5,0-2.1c-0.6-0.6-1.5-0.6-2.1,0
				c-0.1,0.1-0.2,0.2-0.3,0.3c-0.6,0.6-0.6,1.5,0,2.1C349.5,217.2,350.5,217.2,351.1,216.6L351.1,216.6z"/>
		</g>
		<g>
			<path class="st3" d="M359.6,201.6c3.5-5.6,7.1-11.1,10.6-16.7c1-1.6-1.6-3.1-2.6-1.5c-3.5,5.6-7.1,11.1-10.6,16.7
				C356,201.7,358.5,203.2,359.6,201.6L359.6,201.6z"/>
		</g>
		<g>
			<path class="st3" d="M378.1,172.5c4.4-5.8,9.7-11.1,14.8-16.2c5.4-5.4,11-10.9,17.3-15.4c1.6-1.1,0.1-3.7-1.5-2.6
				c-6.5,4.6-12.2,10.3-17.9,15.9c-5.4,5.3-10.8,10.8-15.3,16.8C374.3,172.5,376.9,174,378.1,172.5L378.1,172.5z"/>
		</g>
		<g>
			<path class="st3" d="M247,322.3c1.6-10.1,4.4-19.9,8.4-29.3c0.7-1.8-1.8-3.3-2.6-1.5c-4.1,9.7-7,19.7-8.7,30
				C243.8,323.4,246.7,324.2,247,322.3L247,322.3z"/>
		</g>
		<g>
			<path class="st3" d="M256.9,285.3c0.8-3.2,2.1-6.3,3.8-9.2c1-1.7-1.6-3.2-2.6-1.5c-1.8,3.1-3.2,6.4-4.1,9.9
				C253.5,286.4,256.4,287.2,256.9,285.3L256.9,285.3z"/>
		</g>
		<g>
			<path class="st3" d="M263,267c1.9,0,1.9-3,0-3C261.1,264,261.1,267,263,267L263,267z"/>
		</g>
		<g>
			<path class="st3" d="M239.2,293.5c0.3-10.1,2.5-19.8,6.8-28.9c0.8-1.7-1.8-3.3-2.6-1.5c-4.5,9.6-7,19.8-7.2,30.4
				C236.1,295.5,239.1,295.5,239.2,293.5L239.2,293.5z"/>
		</g>
		<g>
			<path class="st3" d="M490,312c2.4,8.6,3.9,17.3,4.5,26.2c0.2,2.6,4.2,2.6,4,0c-0.6-9.3-2.1-18.3-4.6-27.3
				C493.1,308.5,489.3,309.5,490,312L490,312z"/>
		</g>
		<g>
			<path class="st3" d="M500.4,278.5c3.9,7,6.3,14.5,7.1,22.4c0.3,2.5,4.3,2.6,4,0c-0.9-8.7-3.4-16.8-7.7-24.4
				C502.6,274.2,499.1,276.2,500.4,278.5L500.4,278.5z"/>
		</g>
		<g>
			<path class="st3" d="M334.3,137.8c2.1-2,4.6-3.4,7.4-4.1c1.9-0.5,1.1-3.4-0.8-2.9c-3.3,0.9-6.2,2.6-8.8,4.9
				C330.8,137,332.9,139.2,334.3,137.8L334.3,137.8z"/>
		</g>
		<g>
			<path class="st3" d="M350.1,129.6c0.1-0.1,0.2-0.2,0.3-0.3c0.6-0.6,0.6-1.5,0-2.1c-0.6-0.6-1.5-0.6-2.1,0
				c-0.1,0.1-0.2,0.2-0.3,0.3c-0.6,0.6-0.6,1.5,0,2.1C348.5,130.2,349.5,130.2,350.1,129.6L350.1,129.6z"/>
		</g>
		<g>
			<path class="st3" d="M362.4,126.8c18.9-6.5,41.5-7.7,60.4-0.1c1.8,0.7,2.6-2.2,0.8-2.9c-19.3-7.7-42.7-6.5-62,0.1
				C359.7,124.6,360.5,127.5,362.4,126.8L362.4,126.8z"/>
		</g>
		<g>
			<path class="st3" d="M306.7,136c15-10,31.5-17.2,49-21.4c1.9-0.5,1.1-3.3-0.8-2.9c-17.8,4.3-34.5,11.6-49.7,21.7
				C303.5,134.5,305,137.1,306.7,136L306.7,136z"/>
		</g>
		<g>
			<path class="st3" d="M457.3,150.6c12.3,1.3,23.5,11.1,27.9,22.6c0.7,1.8,3.6,1,2.9-0.8c-4.8-12.9-17-23.4-30.7-24.8
				C455.4,147.4,455.4,150.4,457.3,150.6L457.3,150.6z"/>
		</g>
		<g>
			<path class="st3" d="M490.7,182.4c1.9,0,1.9-3,0-3C488.7,179.4,488.7,182.4,490.7,182.4L490.7,182.4z"/>
		</g>
	</g>
</g>
</svg>
