<?xml version="1.0" encoding="utf-8"?>
<!-- Generator: Adobe Illustrator 19.2.0, SVG Export Plug-In . SVG Version: 6.00 Build 0)  -->
<svg version="1.1" id="Layer_1" xmlns="http://www.w3.org/2000/svg" xmlns:xlink="http://www.w3.org/1999/xlink" x="0px" y="0px"
	 viewBox="0 0 290 100" style="enable-background:new 0 0 290 100;" xml:space="preserve">
<style type="text/css">
	.st0{fill:#D6AA89;}
	.st1{fill:#292A2C;}
	.st2{fill:#28292B;}
	.st3{opacity:0.9;}
	.st4{fill:url(#SVGID_1_);}
	.st5{fill:url(#SVGID_2_);}
</style>
<g>
	<path class="st0" d="M177,27.6c1.7-0.1,3.4-0.3,5.2-0.5C180.4,27.3,178.7,27.4,177,27.6z"/>
	<g>
		<path class="st1" d="M249.2,21.1c4.7,3.9,18.3,7.9,21.7,12.9c0,0,0,5.3-3.7,4.6c-1.1-0.2-15.8-2.6-18.4-3.7L249.2,21.1z"/>
	</g>
	<g>
		<path class="st1" d="M40.9,21.1C36.3,25,22.6,29,19.2,34.1c0,0,0,5.3,3.7,4.6c1.1-0.2,15.8-2.6,18.4-3.7L40.9,21.1z"/>
	</g>
	<path class="st2" d="M249,20.7c-9.3-4-65.9-5.1-84,1.5c-2.7,1-6.2,4.7-9,6.6c-2.6,1.7-10,1.8-11,1.8v0c0,0,0.1,0,0,0
		c-0.1,0,0,0,0,0v0c-2,0-8.5-0.1-11.1-1.8c-2.9-1.9-6.4-5.6-9.1-6.6c-18.1-6.6-74.8-5.5-84.1-1.5c-1.7,0.7-0.6,13.5,0,14.4
		c0.5,0.8,3.4,2.6,5.1,5.3c2.5,4.1,4.8,27.7,14.5,39.6c4.7,5.7,15.4,8.1,27.3,8.2c13,0.1,23.5-1.2,31.1-6.9c9-6.8,17.2-32.8,20.3-35
		c2.7-2,5-2,6-2v0c0,0-0.1,0,0,0c0.1,0,0,0,0,0v0c0,0,3.2,0.1,5.9,2c3.1,2.2,11.1,28.2,20.2,35c7.6,5.8,18.1,7,31.1,6.9
		c11.9-0.1,22.6-2.5,27.3-8.2c9.7-11.9,12-35.6,14.5-39.6c1.7-2.7,4.5-4.4,5.1-5.3C249.6,34.2,250.7,21.4,249,20.7z M114.5,79
		c-5.2,4-36.4,6.9-48.2-0.8c-9.7-6.3-13.5-31.4-9.2-44.3c4.4-13.1,65-12.1,70.3,1.2C133.2,49.8,122.5,72.9,114.5,79z M223.4,78.2
		c-11.8,7.7-43,4.7-48.2,0.8c-8-6.1-18.7-29.2-12.9-43.9c5.2-13.3,65.8-14.3,70.3-1.2C236.9,46.8,233.1,71.9,223.4,78.2z"/>
	<g class="st3">
		<linearGradient id="SVGID_1_" gradientUnits="userSpaceOnUse" x1="104.7032" y1="82.9002" x2="82.412" y2="21.6556">
			<stop  offset="0" style="stop-color:#00E553"/>
			<stop  offset="1" style="stop-color:#00B8A9"/>
		</linearGradient>
		<path class="st4" d="M114.5,79c-5.2,4-36.4,6.9-48.2-0.8c-9.7-6.3-13.5-31.4-9.2-44.3c4.4-13.1,65-12.1,70.3,1.2
			C133.2,49.8,122.5,72.9,114.5,79z"/>
		<linearGradient id="SVGID_2_" gradientUnits="userSpaceOnUse" x1="211.1655" y1="83.1804" x2="188.9576" y2="22.1647">
			<stop  offset="0" style="stop-color:#00E553"/>
			<stop  offset="1" style="stop-color:#00B8A9"/>
		</linearGradient>
		<path class="st5" d="M223.4,78.2c-11.8,7.7-43,4.7-48.2,0.8c-8-6.1-18.7-29.2-12.9-43.9c5.2-13.3,65.8-14.3,70.3-1.2
			C236.9,46.8,233.1,71.9,223.4,78.2z"/>
	</g>
</g>
</svg>
