<?xml version="1.0" encoding="utf-8"?>
<!-- Generator: Adobe Illustrator 19.2.0, SVG Export Plug-In . SVG Version: 6.00 Build 0)  -->
<svg version="1.1" id="Layer_1" xmlns="http://www.w3.org/2000/svg" xmlns:xlink="http://www.w3.org/1999/xlink" x="0px" y="0px"
	 viewBox="0 0 500 500" style="enable-background:new 0 0 500 500;" xml:space="preserve">
<style type="text/css">
	.st0{fill:#36447F;}
	.st1{fill:#273366;}
	.st2{fill:#1A1D31;}
</style>
<g>
	<path class="st0" d="M138.2,366.5c-6.1-1.6-4.6-10.3-4-16.6c3.6-34.7-5.4-100.3,18.6-127.6c20.7-23.5,62.5-28.1,72.5-28.7
		c6.6-0.4,29-2,29.8,3c8.8-7,70.1-3.9,93.5,15.1c21,17.1,16.3,59.3,17.2,88c0.7,21.7,7,63.2,1.5,68.8c-5.9,6-79.3-4.4-116.2-4.7
		c-22.2-0.2-62.8,2.6-85,2.9C157,366.8,144.8,368.3,138.2,366.5z"/>
	<g>
		<path class="st1" d="M373.5,390.1c1.5,6.7,3.2,13.9,2.9,20.9c-0.2,3.8-1,4.8-4.6,4.1c-2.9-0.6-5.7-2.2-8.4-3.6
			c-8.1-4.4-15.9-9.2-24.2-13.2c-12.1-5.8-24.8-10.3-38-13.1c-35.2-7.7-74.1-6.2-108.7,3.7c-19.4,5.5-36,14.8-52.5,26.1
			c-2.3,1.6-9.9,7.6-11.7,3.4c-1.1-2.7-0.3-7.1-0.1-9.9c0.4-4.5,1-9,1.8-13.5c1.6-9.3,3.6-18.6,6.3-27.7c0.3,0.2,0.7,0.4,1,0.5
			c0.1,0.1,0.3,0.1,0.5,0.2c0.1,0.1,0.3,0.1,0.4,0.1c9.7,2.1,20.3,0.3,30.1,0.1c9.6-0.2,19.2-0.6,28.8-1.1
			c19.7-0.9,39.5-2.3,59.2-1.7c17.7,0.5,35.3,2.2,52.9,3.7c15.8,1.3,31.8,3.1,47.7,2.8c3.2-0.1,7.9,0.2,10.8-1.7
			c0.1-0.1,0.2-0.1,0.2-0.2c0,0.1,0,0.2,0.1,0.2C370.2,376.7,371.9,383.4,373.5,390.1z"/>
		<path class="st1" d="M246.2,194c10.6,7.2,15.2,30,13.3,36.5c-1.8,6.5,9.1,0.8,9.6-7s-9.9-28.7-9.9-28.7S243.1,191.9,246.2,194z"/>
	</g>
	<g>
		<g>
			<path class="st2" d="M133,365.9c-4.6,15.5-9.1,33-8.5,49.3c0.2,6.4,3.3,9.6,9.5,7.1c5.8-2.3,10.9-6.8,16-10.2
				c9-6,18.5-11.2,28.6-15.1c16.2-6.3,33.5-9.9,50.8-11.6c21.3-2.1,43-2.1,64.1,1.7c15.3,2.8,30.2,7.5,44.2,14.3
				c8.7,4.2,16.8,9.4,25.3,13.8c4.4,2.3,14.1,7,16.3-0.3c1.9-6.3-0.3-14.5-1.5-20.8c-1.6-8.4-3.8-16.8-6.7-24.9
				c-0.9-2.4-4.7-1.4-3.9,1.1c2.3,6.5,4.1,13.2,5.6,20c1.5,6.7,3.2,13.8,2.9,20.7c-0.1,3.5-0.6,4.3-4,3.6c-2.9-0.6-5.6-2.2-8.2-3.6
				c-8.1-4.4-15.9-9.2-24.2-13.2c-12.1-5.8-24.9-10.3-38.1-13.2c-35.2-7.7-74.3-6.2-109,3.7c-19.4,5.5-36.1,14.9-52.6,26.1
				c-2.2,1.5-4.5,3.2-7,4.2c-2,0.8-3.3,1.1-3.9-0.5c-1-2.8-0.3-6.9,0-9.7c0.4-4.5,1-8.9,1.7-13.3c1.6-9.5,3.7-18.9,6.4-28.1
				C137.6,364.5,133.7,363.4,133,365.9L133,365.9z"/>
		</g>
		<g>
			<path class="st2" d="M369.5,372.4c5.3,0,16.1-2.5,18.5-8.1c0.6-1.4,0.5-3.3,0.5-4.7c0.5-9.3,0.6-18.7,0.6-28.1
				c-0.3-28.2-1.9-57.9-11.4-84.7c-4.2-11.8-10.5-24.3-21.9-30.7c-2.3-1.3-4.3,2.2-2,3.5c9.5,5.3,15.1,15.4,18.9,25.2
				c4.8,12.3,7.4,25.4,9.2,38.4c3.2,23.3,3.8,47,2.9,70.4c-0.1,2.7,0.1,5.8-0.4,8.5c-0.3,1.5,0.3,0.8-1.4,1.9
				c-4.1,2.4-8.7,4.4-13.5,4.4C366.9,368.4,366.9,372.4,369.5,372.4L369.5,372.4z"/>
		</g>
		<g>
			<path class="st2" d="M135.2,361.9c-4.4-0.9-7.1-3.6-11.1-5.2c-2.3-0.9-2-0.6-1.8-3.2c0.2-3.3,0.3-6.6,0.5-10
				c0.4-9.8,0.9-19.5,1.6-29.3c1.8-23.6,4.5-48.5,13.9-70.4c4.2-9.9,10.3-19.8,20.1-25c2.3-1.2,0.3-4.7-2-3.5
				c-17.7,9.3-24.8,31.8-29,49.8c-5.2,22.2-7,45.1-8.1,67.8c-0.4,7.8-0.4,15.7-1.2,23.5c-0.1,0.7,0.4,1.4,1,1.7
				c4.9,2.9,9.4,6.3,15.1,7.5C136.6,366.3,137.7,362.4,135.2,361.9L135.2,361.9z"/>
		</g>
		<g>
			<path class="st2" d="M246.9,191.4c-1.1-6.8,21.7-4.9,20.1,0.2c-0.8,2.5,3.1,3.5,3.9,1.1c3.7-11.5-30.1-14.4-27.8-0.2
				C243.5,195,247.4,193.9,246.9,191.4L246.9,191.4z"/>
		</g>
		<g>
			<path class="st2" d="M138.7,364.6c-4.8-1.8-3-9.6-2.6-13.5c0.4-4,0.7-7.9,0.8-11.9c0.3-8.6,0.3-17.1,0.3-25.7
				c0.1-19,0-38.3,3.4-57c3.2-17.4,9.9-32.6,25-42.7c14-9.4,31-14.2,47.5-16.8c5.5-0.9,11.1-1.3,16.7-1.6c4.3-0.2,8.7-0.4,13-0.2
				c1.7,0.1,9.6-0.2,10.3,2c0.3,1.1,1.9,2,2.9,1.2c3.2-2.4,8.2-2.6,12-2.9c6.8-0.5,13.8-0.3,20.6,0.2c16.1,1.2,32.9,4.1,47.6,10.9
				c6.8,3.2,13.1,7.3,17.3,13.7c4.6,7,6.8,15.3,8.1,23.4c2.9,18.1,1.5,36.5,2,54.7c0.4,17.1,3,34,3.6,51.1c0.1,3.5,0.2,7,0,10.5
				c-0.1,1.8,0,5.3-1.4,6.8c-1.7,1.9-6.9,1.5-9.3,1.5c-14.6,0.3-29.2-1.2-43.7-2.4c-16.9-1.4-33.8-3-50.7-3.8
				c-19.7-0.9-39.5,0.3-59.2,1.2c-10.4,0.5-20.9,1-31.3,1.3C161.2,364.8,149.2,367,138.7,364.6c-2.5-0.6-3.6,3.3-1.1,3.9
				c9.9,2.3,20.6,0.4,30.6,0.2c9.6-0.2,19.2-0.6,28.8-1.1c19.7-0.9,39.5-2.3,59.2-1.7c17.7,0.5,35.3,2.2,52.9,3.7
				c15.8,1.3,31.8,3.1,47.7,2.8c3.3-0.1,8.1,0.2,11-1.7c3.5-2.2,3.5-7.9,3.7-11.5c0.9-17.7-2.2-35.7-3.3-53.4
				c-1.1-18.8,0.5-37.7-1.6-56.5c-1.8-16.2-6.4-32.8-20.8-42.1c-15.2-9.8-34.6-13.3-52.3-15c-8.4-0.8-16.9-1.2-25.3-0.6
				c-4.5,0.3-10.3,0.6-14.1,3.4c1,0.4,2,0.8,2.9,1.2c-1.7-5.6-11.9-5-16.4-5c-6.6-0.1-13.2,0.3-19.8,0.9
				c-16.9,1.7-34.1,5.8-49.2,13.7c-8.6,4.4-16.7,10.3-22.5,18.1c-5.3,7.1-8.5,15.7-10.7,24.3c-5,20.2-5.1,41.5-5.2,62.1
				c0,11.2,0.1,22.3-0.6,33.5c-0.5,7.7-4.6,21.3,5,24.8C140.1,369.3,141.1,365.4,138.7,364.6z"/>
		</g>
		<g>
			<path class="st2" d="M254.8,204.3c3.4,7.3,5,15.1,4.9,23.2c0,1.9,3,1.9,3,0c0.1-8.6-1.7-16.9-5.3-24.7
				C256.5,201.1,254,202.6,254.8,204.3L254.8,204.3z"/>
		</g>
		<g>
			<path class="st2" d="M259.7,204c3.4,4.4,5.6,9.4,6.6,14.9c0.3,1.9,3.2,1.1,2.9-0.8c-1-5.7-3.3-11-6.9-15.7
				C261.1,200.9,258.5,202.4,259.7,204L259.7,204z"/>
		</g>
	</g>
	<g>
		<path class="st2" d="M246,191.5c-1-7.7,23.1-5.7,21.2,0.2c0,0.1,0.1,0.2,0.1,0.3c-3.9,0.3-8.6,0.6-12,2.5
			C253.4,192.4,249,191.7,246,191.5L246,191.5z"/>
		<path class="st2" d="M121.8,353.6c0.2-3.3,0.3-6.5,0.5-9.8c0.4-9.8,0.9-19.6,1.6-29.4c1.8-23.8,4.5-48.7,14-70.8
			c2.7-6.3,6.2-12.7,10.9-17.8c-4.5,6.5-7.8,13.9-9.9,22.3c-5.1,20.3-5.1,41.7-5.2,62.5c0,10.9,0.1,21.9-0.6,32.8
			c-0.3,4.8-2.2,12.4-0.9,18c-3-1.1-5.4-2.9-8.4-4.5C121.5,355.8,121.6,356.2,121.8,353.6z"/>
		<path class="st2" d="M385.3,353.3c-0.1,2.8,0.1,5.9-0.4,8.7c-0.7,4.1-9.5,6.5-14.5,6.8c-0.3-0.3-0.8-0.5-1.2-0.5
			c1.5-2.4,1.5-6,1.7-8.5c1.1-17.7-2.1-35.7-3.2-53.4c-1.2-18.8,0.5-37.8-1.5-56.6c-1-9.3-2.9-18.9-7.1-27.2
			c6.6,5.7,10.9,13.9,14.1,21.9c4.8,12.2,7.4,25.2,9.2,38.2C385.6,306,386.2,329.8,385.3,353.3z"/>
	</g>
</g>
</svg>
