<?xml version="1.0" encoding="utf-8"?>
<!-- Generator: Adobe Illustrator 19.2.0, SVG Export Plug-In . SVG Version: 6.00 Build 0)  -->
<svg version="1.1" id="Layer_1" xmlns="http://www.w3.org/2000/svg" xmlns:xlink="http://www.w3.org/1999/xlink" x="0px" y="0px"
	 viewBox="0 0 172 77" style="enable-background:new 0 0 172 77;" xml:space="preserve">
<style type="text/css">
	.st0{fill:#D6AA89;}
	.st1{fill:#FFFFFF;}
	.st2{fill:#3A291D;}
	.st3{fill:#BBBBBC;}
	.st4{fill:#7A7B7B;}
</style>
<g>
	<g>
		<path class="st0" d="M166.9,37.4c-1.2-7.2-5.9-9.4-5.9-9.4l-7.1-2.4l-8.3-1.2l-9.4-1.2l-7.1,1.2l-10.6,2.4c0,0-5.8,2.9-10.6,10.6
			c-4.6,7.5-7.5,8.5-4.9,11.8c2.7,3.2,6.2-0.2,9.5-0.8s16.6-6.3,16.6-6.3h10.7l11.9,3.5l5.9,5.9c0,0,5,3.7,7.1,0
			C169.7,43.3,167.3,39.5,166.9,37.4z"/>
	</g>
	<g>
		<g>
			<polygon class="st1" points="152.8,44.5 144.5,43.3 126.8,43.3 125.7,53.9 128,56.3 136.3,57.5 145.7,56.3 151.6,53.9 155.1,48 
							"/>
		</g>
		<g>
			<polygon class="st2" points="145.7,42.1 135.1,43.3 129.2,43.3 130.4,50.4 136.3,53.9 142.2,52.7 146.9,46.9 			"/>
		</g>
		<g>
			<g>
				<path class="st2" d="M128.6,44.8c0.2,5.2,3.2,9.4,8.8,9.3c4.6-0.1,9.4-3,10.4-7.7c0.3-1.3-1.6-1.8-1.9-0.5
					c-0.8,3.6-4.3,5.9-7.9,6.2c-4.6,0.4-7.2-2.9-7.3-7.3C130.6,43.5,128.6,43.5,128.6,44.8L128.6,44.8z"/>
			</g>
			<g>
				<path class="st2" d="M114.7,49c6.9-3.5,14.5-5,22.1-4.7c5.6,0.2,12.6,1.1,16.6,5.5c1.7,1.9,4.6-0.9,2.8-2.8
					c-4.5-4.9-11.8-6.2-18.1-6.6c-8.8-0.5-17.7,1.2-25.5,5.2C110.3,46.7,112.4,50.1,114.7,49L114.7,49z"/>
			</g>
			<g>
				<path class="st2" d="M126.1,55.4c-0.9-3.4-0.5-7,1.8-9.8c1.7-2-1.2-4.8-2.8-2.8c-3.3,3.9-4.2,8.8-2.9,13.6
					C122.9,58.9,126.7,57.9,126.1,55.4L126.1,55.4z"/>
			</g>
			<g>
				<path class="st2" d="M124.5,58.6c9.9,1.1,26.5,1,32.1-9.2c1.2-2.3-2.2-4.3-3.5-2c-4.8,8.7-20.3,8.1-28.6,7.2
					C121.9,54.3,122,58.3,124.5,58.6L124.5,58.6z"/>
			</g>
			<g>
				<path class="st2" d="M123.1,56.9c2.9,8,8.7,13.9,16.5,17.3c1.8,0.8,3.3-1.8,1.5-2.6c-7-3.1-12.5-8.3-15.1-15.5
					C125.3,54.3,122.4,55.1,123.1,56.9L123.1,56.9z"/>
			</g>
		</g>
		<g>
			<path class="st2" d="M115,38.7c12.1-2.7,29.1-3.1,40.2,3c1.7,0.9,3.2-1.6,1.5-2.6c-11.9-6.6-29.5-6.2-42.5-3.4
				C112.3,36.2,113.1,39.1,115,38.7L115,38.7z"/>
		</g>
	</g>
	<g>
		<path class="st0" d="M74.8,45.2c-0.4-2.5-2.3-5.2-4.5-8.2c-5.5-7.2-17.9-10.2-17.9-10.2l-10.6-2.4l-7.1-1.2l-9.4,1.2L17,25.6
			L9.9,28c0,0-10.4,10.9-3.9,23.6c1.9,3.8,7.1,0,7.1,0l5.9-5.9l11.9-3.5h10.7c0,0,1.4,0.8,3.4,1.9l0,0c0,0,2.7,9.2,1.2,13.7
			c-4.4,12.7-19.9,15.4-16.5,16.5c12.5,3.9,26.5-10.6,29.5-9.4C62.1,65.9,76.7,50.3,74.8,45.2z"/>
	</g>
	<g>
		<g>
			<polygon class="st1" points="44.1,43.3 26.4,43.3 18.2,44.5 15.8,48 19.4,53.9 25.3,56.3 34.7,57.5 42.9,56.3 45.3,53.9 			"/>
		</g>
		<g>
			<polygon class="st2" points="35.9,43.3 25.3,42.1 24.1,46.9 28.8,52.7 34.7,53.9 40.6,50.4 41.8,43.3 			"/>
		</g>
		<g>
			<g>
				<path class="st2" d="M41.3,44.8c-0.1,4.7-3.3,7.7-8.1,7.3c-3.4-0.3-7.9-2.6-7.2-6.7c0.2-1.3-1.7-1.8-1.9-0.5
					c-0.9,5.2,3.9,8.6,8.6,9.1c6.1,0.7,10.4-3.2,10.6-9.2C43.4,43.5,41.4,43.5,41.3,44.8L41.3,44.8z"/>
			</g>
			<g>
				<path class="st2" d="M58.3,45.5c-7.9-4-16.7-5.7-25.5-5.2c-6.3,0.4-13.6,1.7-18.1,6.6c-1.7,1.9,1.1,4.7,2.8,2.8
					c4-4.4,11-5.3,16.6-5.5c7.7-0.2,15.3,1.3,22.1,4.7C58.6,50.1,60.6,46.7,58.3,45.5L58.3,45.5z"/>
			</g>
			<g>
				<path class="st2" d="M48.8,56.4c1.3-4.9,0.4-9.8-2.9-13.6c-1.7-2-4.5,0.9-2.8,2.8c2.3,2.8,2.8,6.3,1.8,9.8
					C44.2,57.9,48.1,58.9,48.8,56.4L48.8,56.4z"/>
			</g>
			<g>
				<path class="st2" d="M46.5,54.6c-8.3,0.9-23.8,1.5-28.6-7.2c-1.2-2.3-4.7-0.2-3.5,2c5.6,10.2,22.2,10.3,32.1,9.2
					C49,58.3,49,54.3,46.5,54.6L46.5,54.6z"/>
			</g>
			<g>
				<path class="st2" d="M45,56.2c-2.6,7.3-8.1,12.5-15.1,15.5c-1.8,0.8-0.2,3.4,1.5,2.6C39.1,70.9,45,65,47.9,57
					C48.6,55.1,45.7,54.3,45,56.2L45,56.2z"/>
			</g>
		</g>
		<g>
			<path class="st2" d="M56.8,35.8c-13-2.9-30.6-3.3-42.5,3.4c-1.7,0.9-0.2,3.5,1.5,2.6c11.1-6.2,28.1-5.7,40.2-3
				C57.8,39.1,58.6,36.2,56.8,35.8L56.8,35.8z"/>
		</g>
	</g>
	<g>
		<g>
			<path class="st3" d="M169.6,32.3c-8.1-5-18.4-7.5-30.8-7.5c-8.7,0-18.5,1.3-28.2,3.8c-2.5-2.2-5-8-4.2-11
				c0.7-2.8,5.2-4.3,8.2-5.3c4.8-1.6,10-2.6,15.4-3h0.2c1.2-0.1,2.3-0.2,3.2-0.2c0.6,0,1.1,0,1.6,0c3.6,0,4.3,0.4,4.9,3.2l0.4,1.7
				l1.8-0.1c0.8-0.1,1.7-0.1,2.5-0.1c5.7,0,12.4,1.5,17.8,4c-0.1,0.1-0.1,0.1-0.2,0.2l-0.6,0.5l-0.1,0.8l-0.3,1.3l0.9,0.8
				C165.6,24,169.1,27.5,169.6,32.3z"/>
			<path class="st3" d="M2.4,32.3c8.1-5,18.4-7.5,30.8-7.5c8.7,0,18.5,1.3,28.2,3.8c2.5-2.2,5-8,4.2-11c-0.7-2.8-5.2-4.3-8.2-5.3
				c-4.8-1.6-10-2.6-15.4-3h-0.2c-1.2-0.1-2.3-0.2-3.2-0.2c-0.6,0-1.1,0-1.6,0c-3.6,0-4.3,0.4-4.9,3.2L31.7,14l-1.8-0.1
				c-0.8-0.1-1.7-0.1-2.5-0.1c-5.7,0-12.4,1.5-17.8,4c0.1,0.1,0.1,0.1,0.2,0.2l0.6,0.5l0.1,0.8l0.3,1.3l-0.9,0.8
				C6.4,24,2.9,27.5,2.4,32.3z"/>
		</g>
		<g>
			<g>
				<g>
					<path class="st4" d="M111.6,28.1c-2.2-1.9-5.4-8.1-4-10.9c1.4-2.7,6.8-3.9,9.5-4.6c4-1.1,8.2-1.9,12.3-2.3
						c1.9-0.2,3.7-0.3,5.6-0.3c3,0,3.7-0.1,4.1,3.4c0.1,0.7,0.6,1.6,1.5,1.5c7-0.8,15.4,0.8,21.8,3.8c-0.2-0.6-0.5-1.1-0.7-1.7
						c0.3-1.2-1.4,1.1-1.8,1.5c-0.7,0.8-0.5,1.8,0.3,2.4c4.1,3.1,8.4,6.9,8.5,12.4c0.8-0.4,1.5-0.9,2.3-1.3
						c-17.1-11.1-42-9.1-60.8-4.2c-1.9,0.5-1.1,3.4,0.8,2.9c18.1-4.6,42.1-6.7,58.5,3.9c1,0.6,2.3-0.2,2.3-1.3
						c-0.1-6.7-5-11.2-10-15c0.1,0.8,0.2,1.6,0.3,2.4c0.7-0.7,2.3-1.7,2.5-2.8c0.1-0.6-0.1-1.4-0.7-1.7c-6.8-3.2-15.7-5.1-23.3-4.2
						c0.5,0.5,1,1,1.5,1.5c-0.8-6.1-2.9-6.5-8.7-6.4c-6.5,0.2-13.2,1.3-19.3,3.3c-3.4,1.1-8.6,2.8-9.6,6.7c-1,4,2,10.5,5,13.1
						C110.9,31.5,113,29.4,111.6,28.1z"/>
				</g>
				<g>
					<path class="st4" d="M116.3,27.1c-1-4.5-1.5-12,2.7-15.3c1.5-1.2-0.6-3.3-2.1-2.1c-5,3.9-4.7,12.7-3.4,18.2
						C113.8,29.8,116.7,29,116.3,27.1L116.3,27.1z"/>
				</g>
				<g>
					<path class="st4" d="M122.5,26.3c-0.3-6,3.2-13.1,8.3-16.3c1.6-1,0.1-3.6-1.5-2.6c-6,3.7-10.2,11.8-9.8,18.8
						C119.6,28.2,122.6,28.2,122.5,26.3L122.5,26.3z"/>
				</g>
				<g>
					<path class="st4" d="M130.9,25.3c1.5-4.5,5.8-9.4,10.5-10.5c1.9-0.4,1.1-3.3-0.8-2.9c-5.7,1.3-10.8,7.2-12.6,12.6
						C127.4,26.3,130.3,27.1,130.9,25.3L130.9,25.3z"/>
				</g>
				<g>
					<path class="st4" d="M144.2,26.4c5.9-3.3,10.9-5.7,17.9-5.6c-0.5-0.5-1-1-1.5-1.5c0.2-0.3,0.3-0.6,0.5-0.9
						c-1.6,1-0.1,3.6,1.5,2.6c0.7-0.4,0.9-0.9,1-1.7c0.1-0.8-0.7-1.5-1.5-1.5c-7.4-0.1-13.1,2.5-19.4,6
						C141,24.7,142.5,27.3,144.2,26.4L144.2,26.4z"/>
				</g>
			</g>
			<g>
				<g>
					<path class="st4" d="M62.6,30.2c2.9-2.5,5.7-8.8,5-12.7c-0.7-4.2-6.1-6-9.6-7.1c-6-2-12.5-3-18.8-3.3c-6-0.2-8.5,0-9.3,6.4
						c0.5-0.5,1-1,1.5-1.5c-7.6-0.9-16.5,1-23.3,4.2c-0.6,0.3-0.8,1.1-0.7,1.7c0.3,1.1,1.8,2,2.5,2.8c0.1-0.8,0.2-1.6,0.3-2.4
						c-5,3.8-9.9,8.3-10,15c0,1.1,1.3,1.9,2.3,1.3C18.9,23.9,42.9,26,61,30.7c1.9,0.5,2.7-2.4,0.8-2.9C42.9,23,18.1,20.9,1,32
						c0.8,0.4,1.5,0.9,2.3,1.3c0.1-5.5,4.4-9.3,8.5-12.4c0.8-0.6,1-1.6,0.3-2.4c-0.4-0.4-2-2.6-1.8-1.5c-0.2,0.6-0.5,1.1-0.7,1.7
						c6.4-3,14.7-4.7,21.8-3.8c0.9,0.1,1.4-0.8,1.5-1.5c0.4-3.2,0.8-3.3,3.6-3.4c1.8,0,3.7,0.1,5.5,0.2c4.3,0.4,8.7,1.2,12.9,2.3
						c2.7,0.8,7.5,1.8,9.2,4.3c1.8,2.8-1.4,9.2-3.7,11.2C59,29.4,61.1,31.5,62.6,30.2z"/>
				</g>
				<g>
					<path class="st4" d="M58.6,27.9c1.3-5.5,1.6-14.3-3.4-18.2c-1.5-1.2-3.6,0.9-2.1,2.1c4.1,3.2,3.7,10.7,2.7,15.3
						C55.3,29,58.2,29.8,58.6,27.9L58.6,27.9z"/>
				</g>
				<g>
					<path class="st4" d="M52.6,26.3c0.3-7-3.8-15.2-9.8-18.8c-1.7-1-3.2,1.6-1.5,2.6c5.1,3.1,8.6,10.3,8.3,16.3
						C49.5,28.2,52.5,28.2,52.6,26.3L52.6,26.3z"/>
				</g>
				<g>
					<path class="st4" d="M44.1,24.5c-1.8-5.4-6.9-11.2-12.6-12.6c-1.9-0.4-2.7,2.5-0.8,2.9c4.7,1.1,9,6,10.5,10.5
						C41.8,27.1,44.7,26.3,44.1,24.5L44.1,24.5z"/>
				</g>
				<g>
					<path class="st4" d="M29.4,23.8c-6.3-3.5-12-6.2-19.4-6c-0.8,0-1.6,0.7-1.5,1.5s0.3,1.2,1,1.7c1.6,1,3.1-1.6,1.5-2.6
						c0.2,0.3,0.3,0.6,0.5,0.9c-0.5,0.5-1,1-1.5,1.5c6.9-0.1,12,2.3,17.9,5.6C29.6,27.3,31.1,24.7,29.4,23.8L29.4,23.8z"/>
				</g>
			</g>
		</g>
	</g>
</g>
</svg>
