<?xml version="1.0" encoding="utf-8"?>
<!-- Generator: Adobe Illustrator 19.2.0, SVG Export Plug-In . SVG Version: 6.00 Build 0)  -->
<svg version="1.1" id="Layer_1" xmlns="http://www.w3.org/2000/svg" xmlns:xlink="http://www.w3.org/1999/xlink" x="0px" y="0px"
	 viewBox="0 0 358 342.5" style="enable-background:new 0 0 358 342.5;" xml:space="preserve">
<style type="text/css">
	.st0{fill:#F9BE72;}
	.st1{fill:#D88A3D;}
	.st2{fill:#9B581C;}
</style>
<g>
	<g>
		<path class="st0" d="M292,300.3c0.2-4.9,0-9.9-0.2-14.8c0-1.1-0.1-2.2-0.1-3.3c-0.8-22.9-2.2-43.6-4.3-63.4l0-0.4l-0.1-0.1l0-0.1
			l-0.1-1c-0.8-7.6-1.8-15.7-3.3-23.8l-0.1-0.3l0-0.1l0-0.1l-0.1-0.3c-0.4-1.9-0.7-3.4-1-4.9c-0.1-0.4-0.2-0.9-0.3-1.5
			c-1.1-6.1-2.6-12.2-6.3-13.5l-0.2-0.4l-0.7-0.3c-0.9-0.4-1.8-0.6-2.8-0.7l-0.6-1.6l-1.9,0.7c-3.2,1.3-6.1,2.2-8.9,2.8l-0.3-0.1
			l-0.1,0l-0.2,0c-1.7,0-3.2-1.2-3.5-2.9l-0.7-3.3l-2.6,2.2c-5.3,4.5-11,7.8-16.9,9.6c0,0,0.1,0,0.1,0c0.3,0,0.5,0.2,0.6,0.3
			c0.1,0.2,0,0.4-0.1,0.5l-2.9-2.7c-1,1-1.8,1.8-2.7,2.6l-0.4,0.3l-0.1,0.2c-1.4-0.3-3.2-0.7-4.5-1.5l-1.4-0.9l-1.1,1.2
			c-0.6,0.6-1.2,1.2-1.9,1.9l-0.5,0.1l-0.3,0.3c-0.9,0.1-1.8,0.1-2.5,0.1c-2.7,0-4.7-0.6-6.2-1.8l-1.9-1.5l-1.3,2.3l-0.2,0.4l0,0.4
			c-1,2-4.3,3.3-6.7,4.2c-3.1,1.2-6.5,1.8-10.1,1.8c-0.1,0-0.2,0-0.3,0l-0.9-1.9l-2,1.4c-1.2,0.9-2.5,1.3-3.7,1.3
			c-0.3,0-0.6,0-0.8-0.1c-1.1-0.2-2-0.6-2.2-1.1l-1-2.4l-2.1,1.6c-0.3,0.2-0.6,0.5-0.9,0.7l-0.4,0.3c-0.3,0.2-0.8,0.6-1,0.7
			c-0.2,0-1.2-0.6-2.3-2.2l-0.6-0.9l-1.1,0.1c-4.6-0.4-7.9-2.4-10.1-6.1l-1.7-2.8l-1.8,2.8c-1.2,2-2.5,2.9-3.2,2.9
			c-0.1,0-0.3,0-0.6-0.2c-2.7-1.7-5.3-5-7.4-8l-1-1.4l-1.5,0.7c-1.7,0.8-3.5,1.2-5.6,1.2c-4.2,0-8.8-1.8-12.4-4.7l-1-0.9l-1.2,0.6
			c-1.7,0.9-3.6,1.4-5.7,1.4c-2.4,0-5-0.6-8-1.8l-1.8-0.7l-2,4.4c-0.9-0.4-1.9-1-2.9-1.7l-1.6-1.1l-1.5,1.9
			c-1.1,1.5-1.8,2.3-2.9,2.4c-0.5,0-1.1,0.1-1.7,0.1c-1.9,0-3.9-0.3-6.1-0.8l-1.3-0.3l-0.7,1c-2.2,0.2-4.3,1.3-6.2,3.1l-0.3,0.3
			l-0.1,0.1l-0.1,0l-0.3,0.4c-2,2.1-3.5,4.7-4.8,6.9c-4,7.3-6.4,15.3-8,21.4l-0.1,0.2l0,0.1l0,0.1l-0.1,0.3
			c-0.3,1.1-0.6,2.3-0.9,3.4c-2.4,9.6-4.2,19.8-5.7,30.9l-0.1,0.5l0,0.1l-0.1,0.1l-0.1,0.5c-0.7,5.2-1.3,10.7-1.8,16.3l0,0.3l0,0.1
			l-0.1,0.1l0,0.3c-1,11.9-1.7,24.8-2,40.8l-0.4-0.2l-0.3,0.2c-1-6-2.3-12.4-3.9-20.1l-0.1-0.5l-0.2-0.2l0-0.5l0-0.2
			c-1.1-5-2.3-10-3.3-14.3l-0.1-0.5l-0.1-0.1l0-0.2l-0.4-1.6c-1.2-5.1-2.4-10.4-3.6-15.6l-0.1-0.4l-0.1-0.1l0-0.2l-0.1-0.4
			c-5.4-24.6-9.9-51.1-5.8-77.6l0.2-1.2l-0.9-0.7c-3.3-2.5-3.9-11.6-3.6-17.1c0.3-4.9,2.4-11,7.2-12.4l0.5-0.1l0.4-0.4
			c3.2-3.2,6.2-5.2,9-5.8l2.1-0.5l-0.6-2.1c-1-3.1-0.3-8.2,1.9-14.3c1.2-3.3,2.8-6.2,4.9-8.9l1.2-1.5l-1.2-1.1
			c-1.2-5-0.3-9.4,2.7-13.1c4.1-5.3,12.1-8.7,20.3-8.7c0.2,0,0.4,0,0.7,0l1,0l0.6-0.8c4.6-6.2,12-13.6,21.3-13.6
			c0.6,0,1.1,0,1.7,0.1l0.8,0.1l0.6-0.4c8.3-6,18-12.1,26.9-12.1c2.9,0,5.6,0.7,8,2.1c0.6,0.3,1.2,0.8,1.9,1.3l3.4,2.7l-0.2-4.1
			c1.3-0.1,2.5-0.2,3.8-0.2c6.3,0,11.3,1.9,14.9,5.6l2.2,2.2l1.4-3.6l0.1,0l0.3-0.1c1.8-0.3,3.4-0.5,4.9-0.5c5,0,8.9,1.7,11.4,5.1
			c0.6,0.8,1.2,1.8,1.7,2.8l1.9,3.9l1.7-4c0.3-0.8,0.7-1.4,1-1.8l0.2,0l0.3-0.1c1.5,0.9,2.9,2,4.2,3.3l1.1,1.2L204,68
			c4.5-2.9,7.3-4.2,12-4.3c0.2,0,0.5,0,0.7,0c4.3,0,6.9,1.2,8.5,3.7l0,0.5l0.4,0.5c1.2,1.6,2.3,3.4,3.2,5.3l1.5,3l2-2.7
			c0.5-0.7,1.1-1.2,1.8-1.6l0.2,0l0.1,0c5.3,0.8,8.6,5,10.4,8.4l0.5,1l1.1,0.1c4.6,0.2,10.8,1.8,14.4,8.1c1.5,2.6,2.5,5.7,3.1,9
			l0.4,2.1l2-0.5c7.2,1.3,11.2,6.4,11.9,15.1l0.3,4l3-2.7c3.1-2.8,6.2-4.3,8.8-4.3c1.8,0,3.3,0.7,4.7,2.1c2.5,2.5,3.9,6.6,3.3,10
			l-0.4,2.7l2.7-0.4c0.3-0.1,0.6-0.1,1-0.1c1.9,0,3.7,0.9,5.6,2.8c6.2,6,8.5,16,5.8,25.4l-0.3,1l0.6,0.8c2.4,3.1,2.8,8.1,0.8,11.2
			l-0.4,0.6l0,0.7c1.6,22.4-2,45.6-6,67.3l-0.1,0.2v0l0.1,0l0,0.2c-0.3,1.8-0.6,3.5-1,5.3l-0.4,2C303.1,263.2,299.4,282.8,292,300.3
			z"/>
	</g>
	<g>
		<path class="st1" d="M280.4,119.4c0.2-0.1,0.4-0.2,0.5-0.4c3.6-3.7,9.5-8.1,14-3.1c2.3,2.6,3.7,7.2,2.1,10.5
			c-0.6,0.3-1.2,0.7-1.7,1.2c-12.3,9.8-19,26.2-32.2,34.9c6.2-7.7,10.9-16.7,14-25.5C278.8,132.1,280.2,125.6,280.4,119.4z"/>
		<path class="st1" d="M58.3,293.6c-0.9-4.9-1.9-9.8-3-14.7c0.1-4.6,2.1-10,4.6-14.5C59.1,274.1,58.6,283.8,58.3,293.6z"/>
		<path class="st1" d="M61.1,251c-0.3,2.4-0.5,4.9-0.7,7.3c-2.7,3.5-5.3,8.3-6.8,13.1c-0.6-2.6-1.2-5.1-1.8-7.7
			c1.6-6.3,5.4-12.9,9.9-17.9C61.5,247.5,61.3,249.3,61.1,251z"/>
		<path class="st1" d="M65.1,222.1c-6.8,4.2-14.7,11-18.6,18.7c-1-4.7-2-9.5-2.8-14.2c2.2-4.9,7.2-8.7,11.4-11.6
			c3.9-2.8,8.3-5.4,13-6.7C67,212.8,66,217.4,65.1,222.1z"/>
		<path class="st1" d="M75,188.3c-7.4-2-15.2-0.4-22.1,2.6c-4.4,1.9-9.3,4.7-12.5,8.5c-0.3-4.5-0.4-9.1-0.3-13.7
			c7-15.5,27.3-12.6,40.8-7.8C78.4,181,76.5,184.8,75,188.3z"/>
		<path class="st1" d="M65.3,149.9c-4.3-5.5-9.9-14.4-17.5-15.8c17.7-13.7,28.2,21.3,37.9,35.9C77.2,165.8,71,157.3,65.3,149.9z"/>
		<path class="st1" d="M108,170.9c-5.6-3.1-10.1-8.5-14.4-13.1c-5.3-5.7-8.9-14.1-12.4-21c-3.5-6.9-5.5-14.6-9.2-21.4
			c-2.2-4-5.4-8.7-10.1-9.7c3.2-4.3,7.6-7.7,12.8-9.8c0.7,0.4,1.4,0.8,2,1.3c4,3.3,5.3,8.6,6.4,13.5c1.7,7.2,3.2,14.4,5.4,21.5
			c4.1,13.4,10,26.7,20.5,36.2C108.8,169.3,108.4,170.1,108,170.9z"/>
		<path class="st1" d="M63.6,99.5c1.3-2.6,3.6-4.2,6.3-4.5C67.6,96.3,65.5,97.8,63.6,99.5z"/>
		<path class="st1" d="M123.5,161.6c-4.1-7.9-5.9-17-7.6-25.7c-1.9-9.7-3.2-19.6-5.4-29.3c-1.6-7.4-3.6-15.5-8-21.9
			c-3.3-4.7-7.8-7.2-13.1-7.2c5.4-6.5,12.9-11.7,20.8-10.9c0.1,0,0.3,0.1,0.4,0c2.5,0.3,5,1.2,7.6,2.9c11.2,7.4,13.8,22,13.6,34.4
			c-0.3,22.3,0.6,48.7,13.3,68.1C136.6,176.1,127.3,168.8,123.5,161.6z"/>
		<path class="st1" d="M162.4,175.3c-1.3-4.4-1.5-9.2-1.7-13.8c-0.5-13.6,0.5-27.2,0.9-40.8c0.4-13.8,0.6-27.7-1.5-41.5
			c-1.2-7.7-3.3-16.6-9.2-22.6c0,0,0,0,0,0c8.3-1,16.5,0.4,21,8.1c4.5,7.7,4.7,17.5,4.5,26.1c-0.4,22.7-5.5,44.9-6.7,67.5
			c-0.5,8.4-0.7,17.5,2.3,25.5C167.5,182.9,163.6,179.5,162.4,175.3z"/>
		<path class="st1" d="M208.5,180.5c-0.1,0.2-0.2,0.4-0.2,0.7c-1.6,2.1-5.9,3.5-8,4.1c-2.3,0.7-4.7,1-7.1,1
			c13.7-20.1,21.9-43.9,23.1-68.2c0.5-10.2-0.2-20.6-2.9-30.6c-1.7-6.4-4.2-13.5-8.5-18.9c2.5-1.7,4.9-3.3,8.1-3.7
			c3.9-0.5,8.9-0.8,11.3,2.9c0,0.3,0.1,0.5,0.3,0.8c10.7,14.1,8.3,35.6,5.4,51.8C226.2,141.3,218.9,161.9,208.5,180.5z"/>
		<path class="st1" d="M230.9,179.1c-1.1-0.2-2.1-0.5-3-1c11.1-12.5,17.3-29.4,20.7-45.4c3.4-15.6,5.6-34.5-0.5-49.8
			c18.7,2.2,16.1,27.2,12.8,41C256,143.7,246.2,165.1,230.9,179.1z"/>
		<path class="st1" d="M293.1,294.8c0.1-5.1,0-10.2-0.3-15.4c1.5,1,2.8,2.3,4.3,3.2C296,286.8,294.6,290.8,293.1,294.8z"/>
		<path class="st1" d="M301.3,266.6c-2.7-2.8-5.8-5-9.4-6.5c-0.1,0-0.2-0.1-0.2-0.1c-0.2-2.9-0.4-5.9-0.6-8.8
			c-0.3-3.8-0.5-7.6-0.8-11.4c2.1,1.7,4.1,3.6,6.1,5.5c2.5,2.4,5.5,5,7.3,8.1c0.1,0.2,0.2,0.3,0.3,0.4
			C303.1,258,302.2,262.3,301.3,266.6z"/>
		<path class="st1" d="M307.8,233.2c-5-6.3-12.6-11.6-19.4-15.5c-0.8-7.3-1.7-14.6-3.1-21.8c9.3,4.8,20.2,11.6,25.2,20.5
			C309.7,222,308.8,227.6,307.8,233.2z"/>
		<path class="st1" d="M311.2,211.8c-6.3-8.6-17.5-15.1-26.6-19.7c-0.4-1.9-0.8-3.8-1.2-5.6c-0.2-0.9-0.5-2.1-0.7-3.4
			c11.4,2.6,22.9,8.3,29.8,18.1C312.1,204.7,311.7,208.3,311.2,211.8z"/>
		<path class="st1" d="M314.4,165.6c-4.6-2-9.5-0.9-14.4,0c-7.8,1.4-15.4,3.8-22.9,6.4c-0.1,0-0.2,0.1-0.3,0.1c0,0-0.1,0-0.1,0
			c-0.1-0.3-0.3-0.5-0.6-0.6c-0.5-0.3-1.1-0.5-1.7-0.6c6.3-2.8,12.4-6.2,18.5-9.1c4.6-2.2,9.4-4.8,14.4-5.7
			C312.8,155,315.7,160.9,314.4,165.6z"/>
		<path class="st1" d="M183.4,186.4c0,0.1,0.1,0.1,0.1,0.2c0,0,0,0,0,0C183.5,186.3,183.4,186.3,183.4,186.4z"/>
	</g>
	<g>
		<g>
			<path class="st2" d="M112.6,167.5c-15.4-13-21.1-33.7-25.4-52.6c-1.8-8.2-3.5-18.6-12.3-22.2c-6.8-2.8-14,1.7-15,8.9
				c-0.3,1.9,2.6,2.7,2.9,0.8c1-7.2,8.5-9.6,14-5c4,3.3,5.3,8.6,6.4,13.5c1.7,7.2,3.2,14.4,5.4,21.5c4.2,13.9,10.5,27.7,21.8,37.3
				C111.9,170.8,114,168.7,112.6,167.5L112.6,167.5z"/>
		</g>
		<g>
			<path class="st2" d="M86.2,77.9c-13.9-0.7-30.2,8.4-26.3,24.4c0.5,1.9,3.4,1.1,2.9-0.8c-3.4-14.1,11.7-21.2,23.4-20.6
				C88.1,81,88.1,78,86.2,77.9L86.2,77.9z"/>
		</g>
		<g>
			<path class="st2" d="M91.3,172.2c-12.5-11.7-23.9-62.9-48.5-37.5c-1.3,1.4,0.8,3.5,2.1,2.1c21.6-22.3,32.9,27,44.2,37.5
				C90.6,175.6,92.7,173.5,91.3,172.2L91.3,172.2z"/>
		</g>
		<g>
			<path class="st2" d="M74.5,92.8c-9.2,3.5-16.1,10.3-19.5,19.6c-1.6,4.5-3.8,12.3-1.4,16.9c0.9,1.7,3.5,0.2,2.6-1.5
				c-1.9-3.6,0.2-10.3,1.4-13.7c2.9-8.6,9.2-15.2,17.7-18.4C77.1,95.1,76.3,92.2,74.5,92.8L74.5,92.8z"/>
		</g>
		<g>
			<path class="st2" d="M47.3,159.2c-4,1.1-6.8,3.2-8.3,7.1c0.7-0.3,1.5-0.6,2.2-0.9c-1.9-1-2.6-5.4-3-7.2c-0.8-4-1.2-8.4-0.4-12.5
				c1.8-9.2,9.4-10.7,15.8-4.8c12,11,18.8,28.8,35.6,33.8c1.9,0.5,2.6-2.3,0.8-2.9c-10.9-3.2-18.1-13.3-24.7-21.9
				c-4.4-5.7-10.3-15.2-18.4-15.9c-8.3-0.8-12,7.6-12.4,14.6c-0.3,4.7-0.1,16.8,5.2,19.4c0.9,0.5,1.8,0,2.2-0.9
				c1.1-2.8,3.5-4.2,6.2-5C49.9,161.6,49.1,158.7,47.3,159.2L47.3,159.2z"/>
		</g>
		<g>
			<path class="st2" d="M84.1,176c-14.6-5.8-38.8-9.5-46.7,8.6c-0.8,1.8,1.8,3.3,2.6,1.5c7.3-16.8,29.9-12.5,43.3-7.2
				C85.1,179.6,85.9,176.7,84.1,176L84.1,176z"/>
		</g>
		<g>
			<path class="st2" d="M76.2,188.7c-7.7-2.5-16.1-0.9-23.4,2.3c-5.8,2.5-12.5,6.4-14.9,12.6c-0.7,1.8,2.2,2.6,2.9,0.8
				c2.2-5.4,9-8.9,14-11c6.5-2.7,13.8-4,20.6-1.8C77.3,192.2,78.1,189.3,76.2,188.7L76.2,188.7z"/>
		</g>
		<g>
			<path class="st2" d="M70,204.7c-6.3,1-12.3,4.6-17.4,8.3c-4.3,3.1-9.3,7-11.5,12c-0.8,1.8,1.8,3.3,2.6,1.5
				c2.1-4.9,7.2-8.7,11.5-11.7c4.7-3.3,9.9-6.4,15.6-7.3C72.7,207.3,71.9,204.4,70,204.7L70,204.7z"/>
		</g>
		<g>
			<path class="st2" d="M65.5,221.8c-8.3,5-18.3,14-20.9,23.7c-0.5,1.9,2.4,2.7,2.9,0.8c2.3-8.8,11.9-17.4,19.5-21.9
				C68.7,223.4,67.2,220.8,65.5,221.8L65.5,221.8z"/>
		</g>
		<g>
			<path class="st2" d="M62.7,240.5c-6.4,5.7-12,14.6-13.9,23c-0.4,1.9,2.4,2.7,2.9,0.8c1.9-7.8,7.2-16.3,13.2-21.7
				C66.2,241.4,64.1,239.3,62.7,240.5L62.7,240.5z"/>
		</g>
		<g>
			<path class="st2" d="M60.8,257.8c-4.5,5.4-8.6,14.6-8.5,21.7c0,1.9,3,1.9,3,0c-0.1-6.3,3.7-14.8,7.6-19.6
				C64.1,258.5,62,256.3,60.8,257.8L60.8,257.8z"/>
		</g>
		<g>
			<path class="st2" d="M90.2,172.7c-9.2,0.8-14,12.3-16.9,19.6c-7.3,18.6-10.1,39-12.2,58.7c-1.8,16.6-2.6,33.3-3,50
				c0,1.9,3,1.9,3,0c0.7-30.2,2.5-61.1,9.8-90.5c2.1-8.5,4.6-17.3,8.9-25c2.1-3.9,5.5-9.4,10.4-9.8
				C92.1,175.5,92.1,172.5,90.2,172.7L90.2,172.7z"/>
		</g>
		<g>
			<path class="st2" d="M175.5,184.5c-3.8-8.4-3.3-18.7-2.7-27.6c0.7-11.8,2.5-23.5,3.9-35.2c1.4-11.5,2.9-23,2.7-34.6
				c-0.1-8.3-0.8-17.7-5.4-24.9c-5.1-8-14.1-10-23.1-9c-1.9,0.2-1.9,3.2,0,3c8.3-1,16.5,0.6,21,8.3c4.5,7.7,4.7,17.6,4.5,26.2
				c-0.4,22.7-5.5,44.9-6.7,67.5c-0.5,9.2-0.7,19.2,3.2,27.8C173.7,187.7,176.3,186.2,175.5,184.5L175.5,184.5z"/>
		</g>
		<g>
			<path class="st2" d="M183.4,186c2.2-24.5,7.8-48.6,11.3-72.9c1.5-10,2.8-20.2,2.5-30.4c-0.2-6.8-0.9-14.7-5.2-20.3
				c-4.4-5.9-11.5-6.6-18.4-5.4c-1.9,0.4-1.1,3.2,0.8,2.9c6.4-1.2,12.7-0.2,16.2,5.8c3.6,6.3,3.7,14.4,3.6,21.4
				c-0.4,21.3-5.2,42.4-8.8,63.3c-2,11.8-4,23.7-5,35.6C180.2,188,183.2,188,183.4,186L183.4,186z"/>
		</g>
		<g>
			<path class="st2" d="M192.4,187.6c14.3-20.4,22.8-44.6,24-69.5c0.5-10.2-0.2-20.6-2.9-30.6c-2.5-9.3-6.6-19.9-15.4-24.9
				c-1.7-1-3.2,1.6-1.5,2.6c9,5.1,12.8,17.1,14.8,26.6c2.1,9.5,2.5,19.4,1.8,29.1c-1.7,23.4-10,46-23.4,65.2
				C188.7,187.7,191.3,189.2,192.4,187.6L192.4,187.6z"/>
		</g>
		<g>
			<path class="st2" d="M211.1,182c11-19.6,18.7-41.5,22.3-63.6c2.7-16.3,4.5-37.3-6.2-51.3c-1.2-1.5-3.8,0-2.6,1.5
				c10.7,14.1,8.3,35.6,5.4,51.8c-3.8,21-11.1,41.5-21.5,60.1C207.5,182.2,210.1,183.7,211.1,182L211.1,182z"/>
		</g>
		<g>
			<path class="st2" d="M223.6,182.4c13.8-12.7,21.1-31.8,25-49.7c3.5-15.9,5.7-35.2-0.9-50.6c-2.4-5.7-6.6-10.7-13-11.7
				c-1.9-0.3-2.7,2.6-0.8,2.9c7.6,1.1,11.1,8.5,12.8,15.2c2.5,9.8,2.3,20.3,1.2,30.3c-2.4,21.7-9.9,46.3-26.4,61.5
				C220,181.6,222.2,183.7,223.6,182.4L223.6,182.4z"/>
		</g>
		<g>
			<path class="st2" d="M232.8,181.4c13.3-12,22.1-29.4,27.8-46.1c4.6-13.6,9.6-32.8,2-46.3c-3.6-6.3-9.9-9.1-16.9-9.2
				c-1.9,0-1.9,3,0,3c21.2,0.3,18.6,26.8,15.1,41.1c-4.8,20-14.6,41.5-30.1,55.4C229.2,180.5,231.4,182.6,232.8,181.4L232.8,181.4z"
				/>
		</g>
		<g>
			<path class="st2" d="M256.6,169c14.8-5.3,23.9-19.9,33.4-31.5c2.7-3.3,7.7-10.7,12.7-9.7c3.8,0.8,6.8,5.7,8.4,8.9
				c2.9,6,2.9,12.6,1,18.9c-0.6,1.8,2.3,2.6,2.9,0.8c3-9.6,1.3-20.8-6.1-28.1c-4.4-4.2-8.8-4.5-13.5-0.7
				c-14.4,11.5-21,31.9-39.5,38.5C254,166.8,254.8,169.7,256.6,169L256.6,169z"/>
		</g>
		<g>
			<path class="st2" d="M280.9,119c3.6-3.7,9.5-8.1,14-3.1c2.3,2.6,3.8,7.4,2,10.7c-0.9,1.7,1.7,3.2,2.6,1.5
				c2.4-4.6,0.7-11.2-2.9-14.7c-5.8-5.7-13.2-1.2-17.8,3.5C277.5,118.3,279.6,120.4,280.9,119L280.9,119z"/>
		</g>
		<g>
			<path class="st2" d="M261.4,175.3c11.1-2.5,21.3-8.7,31.5-13.6c4.6-2.2,9.4-4.8,14.4-5.7c6.4-1.2,9.3,7.2,5.9,12
				c-1.1,1.6,1.5,3.1,2.6,1.5c3-4.3,2.1-11.5-1.8-15c-3.4-3.1-8.2-1.4-12,0c-14.1,5.1-26.7,14.6-41.4,17.9
				C258.7,172.9,259.5,175.7,261.4,175.3L261.4,175.3z"/>
		</g>
		<g>
			<path class="st2" d="M280.5,182.6c12.1,2.4,24.7,8.2,32,18.5c1.1,1.6,3.7,0.1,2.6-1.5c-7.7-11-20.8-17.4-33.8-19.9
				C279.4,179.3,278.6,182.2,280.5,182.6L280.5,182.6z"/>
		</g>
		<g>
			<path class="st2" d="M282.5,194.4c9.9,4.9,22.7,12.2,28.2,22.1c0.9,1.7,3.5,0.2,2.6-1.5c-5.7-10.4-19-18.1-29.3-23.2
				C282.3,191,280.7,193.6,282.5,194.4L282.5,194.4z"/>
		</g>
		<g>
			<path class="st2" d="M285.9,219.7c7.6,4.3,16.7,10.5,21.5,18c1,1.6,3.6,0.1,2.6-1.5c-5-7.9-14.5-14.5-22.5-19.1
				C285.7,216.1,284.2,218.7,285.9,219.7L285.9,219.7z"/>
		</g>
		<g>
			<path class="st2" d="M288.1,238.2c3,2,5.7,4.6,8.3,7.1c2.5,2.4,5.5,5,7.3,8.1c1,1.7,3.6,0.2,2.6-1.5c-1.9-3.3-5-6.1-7.7-8.7
				c-2.8-2.7-5.7-5.4-8.9-7.6C288,234.5,286.5,237.1,288.1,238.2L288.1,238.2z"/>
		</g>
		<g>
			<path class="st2" d="M290.3,262.7c3.9,1.7,7.2,4.1,10,7.3c1.3,1.5,3.4-0.7,2.1-2.1c-2.9-3.4-6.5-6-10.6-7.8
				C290.1,259.3,288.6,261.9,290.3,262.7L290.3,262.7z"/>
		</g>
		<g>
			<path class="st2" d="M291.8,278.8c2,1.2,3.6,2.9,5.6,4c1.7,1,3.2-1.6,1.5-2.6c-2-1.2-3.6-2.9-5.6-4
				C291.7,275.2,290.2,277.8,291.8,278.8L291.8,278.8z"/>
		</g>
		<g>
			<path class="st2" d="M292.8,303c1-17.1-0.7-34.7-1.8-51.8c-1.4-21.5-2.8-43.6-7.6-64.7c-0.9-4.1-2.3-13.3-7.3-14.7
				c-1.9-0.5-2.7,2.4-0.8,2.9c3.6,1,4.8,10.8,5.4,13.6c2.1,9.6,3.3,19.4,4.4,29.2c2.4,21.5,3.7,43.2,4.5,64.8
				c0.2,6.8,0.6,13.8,0.2,20.6C289.7,304.9,292.7,304.9,292.8,303L292.8,303z"/>
		</g>
		<g>
			<path class="st2" d="M292.6,303.8c8.6-19,12.6-40.8,16.4-61.1c4.6-24,8.8-49.3,7-73.9c-0.1-1.9-3.1-1.9-3,0
				c1.8,24.3-2.4,49.3-6.9,73.1c-3.8,20.1-7.6,41.7-16.1,60.4C289.2,304,291.8,305.5,292.6,303.8L292.6,303.8z"/>
		</g>
		<g>
			<path class="st2" d="M39,166.3c-7.5,45.9,10.4,90.5,17.7,135.1c0.3,1.9,3.2,1.1,2.9-0.8c-7.3-44.1-25.1-88.2-17.7-133.5
				C42.2,165.2,39.3,164.4,39,166.3L39,166.3z"/>
		</g>
		<g>
			<path class="st2" d="M237.3,180.9c19.5-6,33.4-25.3,39.8-43.9c4.3-12.5,7.3-35.2-10.5-38.4c-1.9-0.3-2.7,2.6-0.8,2.9
				c16.7,3,11.8,25.6,7.7,36.7c-6.3,16.8-19.1,34.4-37,39.9C234.7,178.6,235.5,181.5,237.3,180.9L237.3,180.9z"/>
		</g>
		<g>
			<path class="st2" d="M52.8,161.2c12.8-1.3,21.9,13.2,34.3,13.9c1.9,0.1,1.9-2.9,0-3c-6.4-0.3-12.7-5.5-18.1-8.6
				c-4.9-2.7-10.5-5.9-16.3-5.3C50.9,158.4,50.9,161.4,52.8,161.2L52.8,161.2z"/>
		</g>
		<g>
			<path class="st2" d="M277.8,174.9c5.8-2,11.7-3.9,17.7-5.4c5.6-1.3,13.3-3.7,18.6-0.7c1.7,1,3.2-1.6,1.5-2.6
				c-5-2.8-10.4-1.7-15.7-0.7c-7.8,1.4-15.4,3.8-22.9,6.4C275.2,172.6,276,175.5,277.8,174.9L277.8,174.9z"/>
		</g>
		<g>
			<path class="st2" d="M196,68.5c0.5-1.2,0.8-2.6,1.7-3.5c1.3-1.4-0.8-3.5-2.1-2.1c-1.3,1.4-1.8,3.1-2.5,4.8
				c-0.3,0.8,0.3,1.6,1,1.8C195,69.8,195.7,69.3,196,68.5L196,68.5z"/>
		</g>
		<g>
			<path class="st2" d="M203.6,69.5c3-2,5.7-4.2,9.4-4.6c4-0.5,9.1-0.8,11.4,3.1c1,1.7,3.6,0.1,2.6-1.5c-2.4-4.1-6.6-4.9-11.1-4.8
				c-5.8,0.2-9.1,2.1-13.9,5.2C200.5,68,202,70.6,203.6,69.5L203.6,69.5z"/>
		</g>
		<g>
			<path class="st2" d="M232.4,75.9c0.4-1.2,1.2-2.1,2.4-2.7c0.7-0.4,0.9-1.4,0.5-2.1c-0.4-0.7-1.3-0.9-2.1-0.5
				c-1.8,0.9-3.2,2.6-3.8,4.5C229,76.9,231.9,77.7,232.4,75.9L232.4,75.9z"/>
		</g>
		<g>
			<path class="st2" d="M171.9,58.1c-0.3,0.8-0.6,1.5-0.9,2.3c-0.3,0.7,0.3,1.7,1,1.8c0.9,0.2,1.5-0.3,1.8-1
				c0.3-0.8,0.6-1.5,0.9-2.3c0.3-0.7-0.3-1.7-1-1.8C172.9,56.9,172.2,57.3,171.9,58.1L171.9,58.1z"/>
		</g>
		<g>
			<path class="st2" d="M145.7,171.9c-8.8,4.4-18.3-3-22.1-10.3c-4.1-7.9-5.9-17-7.6-25.7c-1.9-9.7-3.2-19.6-5.4-29.3
				c-1.6-7.4-3.6-15.5-8-21.9c-4-5.8-9.9-8.3-16.8-6.8c0.6,0.7,1.1,1.5,1.7,2.2c7.1-9.9,19-18.3,30.8-10.5
				c11.2,7.4,13.8,22,13.6,34.4c-0.3,23,0.7,50.4,14.5,69.9c2.2,3.2,5.1,7.1,8.5,9.2c3,1.9,6-2.1,7.3-4.7c0.8-1.7-1.7-3.2-2.6-1.5
				c-0.6,1.2-1.4,2.3-2.4,3.2c-1,0.8,0.5,1-1.1,0.1c-1.7-1-3.2-2.9-4.4-4.3c-3.1-3.6-5.6-7.7-7.6-12.1c-5.4-11.6-7.5-24.7-8.5-37.4
				c-1.1-14,1.5-29.1-3.4-42.5c-3.1-8.6-9.3-17.1-18.5-19.6c-12-3.3-22.2,5.3-28.7,14.5c-0.8,1.2,0.5,2.4,1.7,2.2
				c17.4-3.6,20.7,23.6,22.8,35.1c1.8,9.8,3.2,19.6,5.5,29.3c1.8,7.7,4.1,16,9,22.4c5,6.6,15.6,10.8,23.3,6.8
				C148.9,173.6,147.4,171,145.7,171.9L145.7,171.9z"/>
		</g>
		<g>
			<path class="st2" d="M111.1,170.3c5.3,2.2,10.9,3.3,16.1,0.3c1.7-1,0.2-3.5-1.5-2.6c-4.5,2.5-9.3,1.2-13.8-0.6
				C110.1,166.7,109.3,169.6,111.1,170.3L111.1,170.3z"/>
		</g>
		<g>
			<path class="st2" d="M60.4,108.6c7.7,0.3,11.4,13.6,13.6,19.4c2.6,6.8,5.9,13.1,9.4,19.5c3.1,5.6,5.8,10.3,10.3,14.8
				c4.5,4.5,8.3,9.4,14.2,12.1c0.7,0.3,1.7,0.3,2.1-0.5c0.6-1.3,1.1-2.5,1.7-3.8c0.8-1.7-1.8-3.3-2.6-1.5c-0.6,1.3-1.1,2.5-1.7,3.8
				c0.7-0.2,1.4-0.4,2.1-0.5c-6.3-2.9-11.2-8.8-15.8-13.8c-5.3-5.7-8.9-14.1-12.4-21c-3.5-6.9-5.5-14.6-9.2-21.4
				c-2.5-4.5-6.1-9.7-11.6-9.9C58.5,105.5,58.5,108.5,60.4,108.6L60.4,108.6z"/>
		</g>
		<g>
			<path class="st2" d="M90.5,174.8c3,0.8,6.2,1.3,9.3,1c2.5-0.2,3.6-2.4,5.1-4.2c1.2-1.5-0.9-3.6-2.1-2.1c-0.7,0.8-1.3,1.9-2.1,2.6
				c-0.8,0.7-1.1,0.8-2.3,0.8c-2.4,0.1-4.8-0.3-7.1-1C89.4,171.4,88.6,174.3,90.5,174.8L90.5,174.8z"/>
		</g>
		<g>
			<path class="st2" d="M208.6,180.6c-1.2,2.5-6,4-8.3,4.7c-2.8,0.8-5.6,1.1-8.4,1c-1.9,0-1.9,3,0,3c3.9,0.1,7.8-0.5,11.5-1.9
				c2.7-1.1,6.6-2.5,7.9-5.3C212.1,180.3,209.5,178.8,208.6,180.6L208.6,180.6z"/>
		</g>
		<g>
			<path class="st2" d="M180.6,187c0.2,1.9,2.3,2.8,4,3.1c3.1,0.5,5.8-1,7.9-3.2c1.3-1.4-0.8-3.5-2.1-2.1c-1.2,1.3-2.7,2.4-4.6,2.4
				c-0.5,0-1.1-0.1-1.5-0.3c-0.1-0.1-0.4-0.3-0.6-0.3c-0.4,0-0.1-0.8,0,0.4C183.4,185.1,180.4,185.1,180.6,187L180.6,187z"/>
		</g>
		<g>
			<path class="st2" d="M172.7,186c0.9,1.4,3.1,4.3,5,3.8c0.8-0.2,1.5-0.9,2.1-1.3c0.8-0.6,1.7-1.2,2.4-2c1.3-1.4-0.8-3.6-2.1-2.1
				c-0.9,1-2,1.6-3,2.4c-0.1,0.1-0.2,0.1-0.3,0.2c-0.5,0.2-0.2,0.2,1,0.1c0-0.1-0.5-0.4-0.6-0.4c-0.7-0.6-1.4-1.3-1.9-2.1
				C174.3,182.8,171.7,184.3,172.7,186L172.7,186z"/>
		</g>
		<g>
			<path class="st2" d="M173.1,183.9c-4.9-0.4-9.3-4.1-10.7-8.6c-1.3-4.4-1.5-9.2-1.7-13.8c-0.5-13.6,0.5-27.2,0.9-40.8
				c0.4-13.8,0.6-27.9-1.5-41.6c-1.4-9.1-4.1-20.6-12.7-25.5c-12.2-7-27.8,3.5-37.4,10.4c-1.5,1.1-0.1,3.7,1.5,2.6
				c8.5-6.2,23.3-16.8,34.4-10.4c8.9,5.1,10.8,18.3,11.8,27.4c3.1,27.1-1.5,54.4,0.2,81.5c0.6,10,3,20.9,15.3,21.9
				C175,187,175,184,173.1,183.9L173.1,183.9z"/>
		</g>
		<g>
			<path class="st2" d="M210.6,180.3c2.9,3.2,7.3,3.3,11.3,2.9c1.9-0.2,1.9-3.2,0-3c-3.2,0.3-6.8,0.5-9.2-2
				C211.4,176.8,209.3,178.9,210.6,180.3L210.6,180.3z"/>
		</g>
		<g>
			<path class="st2" d="M225.6,180.3c1.6,1.1,3.7,1.6,5.7,1.9c1.9,0.3,2.7-2.6,0.8-2.9c-1.7-0.3-3.5-0.7-4.9-1.6
				C225.5,176.6,224,179.2,225.6,180.3L225.6,180.3z"/>
		</g>
		<g>
			<path class="st2" d="M254.9,169.5c-0.1,3.3,2.6,6,5.8,5.9c1.9-0.1,1.9-3.1,0-3c-1.7,0.1-2.9-1.1-2.8-2.9
				C257.9,167.6,254.9,167.6,254.9,169.5L254.9,169.5z"/>
		</g>
		<g>
			<path class="st2" d="M272,173.4c0.9,0.1,1.7,0.3,2.5,0.7c0.7,0.3,1.6,0.2,2.1-0.5c0.4-0.7,0.2-1.7-0.5-2.1c-1.3-0.6-2.6-1-4-1.1
				c-0.8-0.1-1.5,0.7-1.5,1.5C270.5,172.7,271.2,173.3,272,173.4L272,173.4z"/>
		</g>
	</g>
</g>
</svg>
