<?xml version="1.0" encoding="utf-8"?>
<!-- Generator: Adobe Illustrator 19.2.0, SVG Export Plug-In . SVG Version: 6.00 Build 0)  -->
<svg version="1.1" id="Layer_1" xmlns="http://www.w3.org/2000/svg" xmlns:xlink="http://www.w3.org/1999/xlink" x="0px" y="0px"
	 viewBox="0 0 323 353" style="enable-background:new 0 0 323 353;" xml:space="preserve">
<style type="text/css">
	.st0{fill:#EFEFEF;}
	.st1{fill:#BBBBBC;}
	.st2{fill:#7A7B7B;}
</style>
<g>
	<g>
		<path class="st0" d="M212.7,102.9l-5.9-1.2l-8.3-2.4l-8.3-4.7l-11.8-3.5h-8.3l-7.1,2.4l-4.7-2.4l-8.3-1.2l-11.8,3.5l-11.8,5.9
			l-11.8,3.5l-7.1-2.4l2.4,7.1l4.5,4.7c1.3,0.6,2,0.5,3.3,1.1c1.4,0.7,2.1,1.5,3.6,2v0.7c1.1-0.4,2.3-0.4,3.6,0.3
			c0.1,0.1,0.5,0.1,0.8,0.1c0.1,0,0.1,0,0.1,0c0.3,0,0.6,0,0.7,0c0.3,0,0.6,0.1,0.9,0.2l0.1-0.9h10.6l11.8-2.4l14.1-3.5l11.8,3.5
			l12.9,3c1.1-0.4,2.7-0.3,3.8,0.1c2.5-0.9,5,0.3,7.5-0.4c2.8-0.8,5.3-1.8,7.8-3.2l-0.3-0.7l4.7-2.4l4.7-5.9l2.4-5.9L212.7,102.9z"
			/>
	</g>
	<path class="st1" d="M182.6,106.4v7.1l-8.3-1.2l-3.5-1.1c0,0,0.1-18.8,0.4-19.4c0.2-0.3,1.7,0.2,2.3-0.7h3.2l2.4,1.2L182.6,106.4z
		 M199.5,101.1l5.6,0.5l3.5,13l-9.4,1.2L199.5,101.1z M162.6,104.1l-4.7,7.1l-7.1,2.4l-3.3,0.7l4.5-8.9l2.4-14.1h4.7l3.5,1.8
		l1.2,1.8L162.6,104.1z M114.9,102.7l0.5,0.2l3.5-1.1l-1.2,8.1H113l-4.7-9.4l5.9,2.4L114.9,102.7z M135.5,114.7H126l4.7-5.9l5.9-13
		l9.3-3.6l-4.6,14.2L135.5,114.7z"/>
	<g>
		<g>
			<path class="st2" d="M164.6,91.5c-9-5.1-19.7-1.4-28.6,2.1c-5,1.9-9.8,4.2-14.9,5.9c-3.4,1.1-9,3.1-11.4-0.6
				c-0.7-1.1-3-0.8-2.8,0.8c2.6,23.8,33.4,18.4,49.4,13.9c2.7-0.7,5.3-1.6,8-2.5c0.5-0.2-1.4-0.8,0,0.1c0.9,0.5,2.1,0.8,3,1.2
				c8.8,3.3,18.4,5.7,27.9,5.6c13.1-0.2,23.6-6.6,27.1-19.6c0.4-1.4-1.5-2.6-2.5-1.5c-8.9,10.4-23.1,0.6-31.6-4.6
				c-7.5-4.5-17.3-4.4-25.2-0.6c-1.7,0.8-0.2,3.4,1.5,2.6c4-1.9,8.8-2.7,13.2-2.3c8,0.7,13.7,7,20.9,9.9c7.5,3.1,17.5,3.9,23.3-2.9
				c-0.8-0.5-1.7-1-2.5-1.5c-6.1,22.9-32.9,18.5-50.1,12.4c-1.4-0.5-3.2-1.7-4.7-1.8c-1.4-0.1-3,0.8-4.4,1.2
				c-8.1,2.6-16.6,4.6-25.2,5.1c-11,0.7-23.8-1.7-25.2-14.7c-0.9,0.3-1.9,0.5-2.8,0.8c4.8,7.2,15.7,1.9,21.7-0.6
				c9.9-4.1,23.7-11.6,34.3-5.6C164.8,95,166.3,92.4,164.6,91.5z"/>
		</g>
		<g>
			<path class="st2" d="M161.6,94.1c1.4,5.7-0.9,12.7-5.3,16.5c-1.5,1.3,0.7,3.4,2.1,2.1c5.2-4.5,7.7-12.8,6.1-19.4
				C164.1,91.4,161.2,92.2,161.6,94.1L161.6,94.1z"/>
		</g>
		<g>
			<path class="st2" d="M152.6,93.2c-0.6,6.6-3.2,13.2-6.4,18.9c-0.9,1.7,1.7,3.2,2.6,1.5c3.4-6.2,6.2-13.3,6.8-20.4
				C155.7,91.3,152.7,91.3,152.6,93.2L152.6,93.2z"/>
		</g>
		<g>
			<path class="st2" d="M144.8,91.7c-0.9,8.3-5.6,19.2-13.4,22.9c-1.7,0.8-0.2,3.4,1.5,2.6c8.9-4.1,13.9-16.2,14.9-25.5
				C148,89.7,145,89.8,144.8,91.7L144.8,91.7z"/>
		</g>
		<g>
			<path class="st2" d="M135.1,95c-1.6,6.4-6.1,15.8-12.7,18.2c-1.8,0.7-1,3.6,0.8,2.9c7.7-2.9,12.9-12.7,14.8-20.3
				C138.5,94,135.6,93.2,135.1,95L135.1,95z"/>
		</g>
		<g>
			<path class="st2" d="M118.2,103c0.2,2.2-0.8,6.1-2.8,7.4c-1.6,1-0.1,3.6,1.5,2.6c2.9-1.8,4.7-6.7,4.3-10
				C120.9,101.1,117.9,101,118.2,103L118.2,103z"/>
		</g>
		<g>
			<path class="st2" d="M169.4,93.2c1.2,1.8,1.2,4.8,1.3,6.8c0.2,3.7,0,7.5-1.6,10.9c-0.8,1.7,1.8,3.3,2.6,1.5
				c1.9-3.9,2.3-8.1,2-12.4c-0.1-2.6-0.2-6.1-1.7-8.4C170.9,90.1,168.3,91.6,169.4,93.2L169.4,93.2z"/>
		</g>
		<g>
			<path class="st2" d="M175.2,91.5c3.9,2.5,4.9,7.7,5.2,12c0.1,1.9,0.8,7.2-0.5,8.8c-1.2,1.5,0.9,3.6,2.1,2.1
				c2.3-2.7,1.6-8.7,1.3-11.8c-0.5-5.2-2-10.7-6.6-13.6C175.1,87.9,173.6,90.5,175.2,91.5L175.2,91.5z"/>
		</g>
		<g>
			<path class="st2" d="M189,95.8c1,5.6-0.4,14.3-3.8,19c-1.1,1.6,1.5,3.1,2.6,1.5c3.9-5.4,5.3-14.9,4.1-21.3
				C191.5,93.2,188.6,94,189,95.8L189,95.8z"/>
		</g>
		<g>
			<path class="st2" d="M196.6,101.9c1.3,3.3,3,8.7,0.1,11.6c-1.2,1.2,0.3,3.3,1.8,2.4c0.2-0.1,0.4-0.2,0.6-0.4
				c1.6-1,0.1-3.6-1.5-2.6c-0.2,0.1-0.4,0.2-0.6,0.4c0.6,0.8,1.2,1.6,1.8,2.4c3.8-3.8,2.4-10,0.6-14.5
				C198.8,99.4,195.9,100.1,196.6,101.9L196.6,101.9z"/>
		</g>
		<g>
			<path class="st2" d="M203.2,103.1c2,2.8,3.3,5.9,3.7,9.4c0.2,1.9,3.2,1.9,3,0c-0.4-4-1.8-7.6-4.1-10.9
				C204.7,100.1,202.1,101.6,203.2,103.1L203.2,103.1z"/>
		</g>
	</g>
</g>
</svg>
