<?xml version="1.0" encoding="utf-8"?>
<!-- Generator: Adobe Illustrator 19.2.0, SVG Export Plug-In . SVG Version: 6.00 Build 0)  -->
<svg version="1.1" id="Layer_1" xmlns="http://www.w3.org/2000/svg" xmlns:xlink="http://www.w3.org/1999/xlink" x="0px" y="0px"
	 viewBox="0 0 500 500" style="enable-background:new 0 0 500 500;" xml:space="preserve">
<style type="text/css">
	.st0{fill:#EADACA;}
	.st1{fill:#BCA691;}
	.st2{fill:#433947;}
	.st3{fill:#2A242D;}
	.st4{fill:#A58A79;}
	.st5{fill:#0F0814;}
	.st6{fill:#896E5B;}
</style>
<g>
	<g>
		<path class="st0" d="M253.7,396.6c-24.3,0-48-3.4-70.5-10c-44.8-13.2-80.5-38-98.1-68.2c-7.7-13.2-9.9-24.2-6.5-32.8
			c3.6-9.1,14-14.5,21.5-17.7c10.9-4.7,22.7-7.4,32.8-9.3c1.8-0.3,3.6-0.7,5.4-1c1.4-0.3,2.8-0.5,4.2-0.8l1.4-0.3l-0.3,1.4
			c-1.7,8.7-2.7,18.2-3.2,29.9c-0.3,7.7-0.3,14,0.2,19.8l0,0.5c0.3,3.7,0.6,7.5,2.1,10.8c7.2,13.6,23,20.9,34.2,25.2
			c16.9,6.4,36.5,10.3,60,11.9c6.5,0.4,13,0.7,19.4,0.7c15.8,0,31.2-1.4,45.9-4c14.9-2.7,36.5-7.8,52.1-20
			c11.4-8.9,14.7-24.3,15.4-35.6c0.8-12.6-0.5-25.8-4.1-39.2l-0.4-1.4l1.5,0.3c2.3,0.4,4.7,0.9,7.1,1.3c17.4,3.2,37.2,6.8,50.8,18.9
			c8.4,7.5,10.1,18.1,4.9,31.5c-4.8,12.5-13.9,24.6-27.7,37c-15.1,13.6-33.5,24.8-54.6,33.4C318.4,390.4,286.1,396.6,253.7,396.6z"
			/>
		<path class="st0" d="M262.1,279.6c-22.6,0-44.2-2.3-64.2-6.8c-6-1.3-12.9-3.1-19.5-6c-9.5-4.3-23.9-10.7-29.8-22.8l-0.1-0.3
			l0.1-0.3c5.3-29.1,14.4-53.4,26.9-72.2c6.3-9.5,15.2-20.4,27.8-20.7c0.1,0,0.2,0,0.3,0l1.1,0l0.1,0c3.5,1.2,6.2,4.1,8.6,6.8
			l0.3,0.3c2.8,3.1,5.4,6.4,7.9,9.6l2.4,3.1c6.3,7.9,12.8,16.1,21.2,21.7c4.3,2.8,8.5,4.2,12.5,4.2c2.9,0,5.7-0.7,8.5-2.2
			c8.1-4.2,14.6-11.4,20.8-18.3l1.4-1.6c1-1.1,2-2.2,2.9-3.3c2.9-3.2,5.9-6.6,9.1-9.7l0.7-0.7c2.8-2.8,5.9-6,9.9-6.9
			c0.1,0,0.1,0,0.2-0.1l0.4-0.3l0.5,0.2c16.2,5.3,25.6,23.1,31.2,36.1c6,13.8,10,28.4,13.8,42.6c1.1,4,2.2,8.1,3.3,12.1l0,0.1l0,0.1
			c0.9,9-4.9,16.9-16.8,22.6c-13.8,6.7-29.9,9.2-43.8,10.7C287.2,278.9,274.5,279.6,262.1,279.6z"/>
	</g>
	<g>
		<path class="st1" d="M255.7,196.2C219,180,207.9,198,196,176.1c-4.6-8.4-11.1-11.8-15.9-6c-9,10.9-11.7,53.5,5.8,51.2
			c13-1.7-17.1,30.1-6.4,52.9c2.5,5.4-22.6-7.8-22.6-7.8l-9-24.9l5.2-22.6l8.1-20.8l10.5-22.1l11-15.1l11.6-10.5l16.6,0.5l26.2,19.6
			C237.2,170.5,263.4,199.6,255.7,196.2z"/>
		<path class="st1" d="M280.1,355.7c0,0-47,9.7-125.4,1.7c-42.4-4.3-57.7-22-57.7-22l-13.4-19.5l-6.2-17l1.1-14.1l6-9.3l10.8-6.5
			l20.7-8.3l30.6-4.5l22.4,31.2L280.1,355.7z"/>
		<path class="st2" d="M256.5,355.8c-4.2,0-8.5-0.1-12.8-0.3c-22.3-1-41.5-4.1-58.9-9.6c-28.8-9.1-37.3-20.1-41.2-27.5
			c-1.6-3.4-1.8-7.5-2-11.1c0-0.5,0-0.9-0.1-1.4c-0.3-5.8-0.4-12.1,0-19.4c0.7-16.1,2.6-28.7,5.8-39.6l0.6-2.1l1.1,1.9
			c5.5,9.3,16,14.5,24.4,18.7c5.7,2.8,11.5,5.1,17.8,6.8c13.7,3.7,29.3,6,49.1,7.3c8.4,0.5,16.7,0.8,24.7,0.8
			c10.9,0,21.5-0.5,31.7-1.5c14.3-1.4,30.9-3.7,45.6-10.4c7.1-3.2,16.1-8.8,18.5-17.7l0.8-3.1l1,3.1c4.3,13.6,6.5,27.4,6.4,41
			c-0.1,16.5-4.1,29-11.9,37.1c-6.4,6.7-15.7,10.9-24,14.2c-8,3.2-16.7,5.7-26.6,7.8C291,354.1,274.1,355.8,256.5,355.8z"/>
		<path class="st1" d="M257.8,195.5c-3.6,0-7.5-1.4-11.8-4.1c-8.5-5.5-15-13.7-21.3-21.6l-1.6-2.1c-0.9-1.2-1.9-2.4-2.9-3.8
			c-2.9-3.9-6.2-8.3-10-11.3l-2.7-2.1l3.4,0.5c10.9,1.5,21.2,6.3,31.2,10.9c1.5,0.7,3,1.4,4.4,2c2.5,1.1,5.3,1.7,8.3,1.7
			c7.6,0,15.9-3.5,22.5-6.3c0,0,2.4-1,3.2-1.4c7-3,14.3-6.1,22.2-6.1c1.5,0,3,0.1,4.4,0.3l2.8,0.4l-2.5,1.3
			c-4.2,2.2-7.8,6.4-11.1,10c-0.7,0.8-1.4,1.5-2,2.2c-1.5,1.6-3,3.3-4.4,4.9c-5.6,6.3-11.4,12.8-18.2,18.1c-3.4,2.7-7.5,5.5-12,6.1
			C259.2,195.4,258.5,195.5,257.8,195.5z"/>
		<path class="st1" d="M186.4,173c10.4-2.4,11.1,34.1-1,38.8C177.3,215,177.5,175,186.4,173z"/>
		<path class="st1" d="M329.7,177.7c-11.4,4-9.6,36.2-2.6,36.6C334,214.7,338.4,174.7,329.7,177.7z"/>
	</g>
	<g>
		<path class="st3" d="M150.3,278.3c4.6-2.7,6.2,8.5,20.4,13c14.2,4.4,24.6,2.8,25,9.2c0.4,6.4-0.2,11.1-6.9,10.5
			s-37.9-11-41.3-19.3C145.4,286.7,146.1,280.8,150.3,278.3z"/>
		<path class="st3" d="M349.7,292.7c-4.3,3.5-16.8,4-21.7,8.1c-4.9,4-4.9,13.5,0.2,14.1c5.1,0.6,28.9-7.7,35.4-20.7
			c3.1-6.1,0.6-10.6-2.7-10.3C357.6,284.3,356.5,287.3,349.7,292.7z"/>
		<path class="st4" d="M148,326.5c0,0-78.8-27.4-64.5-48.6c3.5-5.2,17.8-12.6,17.8-12.6l14.4-4.6l28.2-4.7l-1.7,13.7
			c0,0-1.3,29.7-1.4,30c0,0.3,2.4,15.6,2.4,15.6L148,326.5z"/>
	</g>
	<g>
		<g>
			<path class="st5" d="M157.9,336.6c28.9,3.3,58.6-0.9,86.5-8.8c27.4-7.7,54.4-19.1,77.7-35.7c10.3-7.3,19.9-15.7,27.2-26
				c1.1-1.6-1.5-3.1-2.6-1.5c-14.1,19.8-36.6,33.2-58.1,43.5c-26.5,12.7-55.4,21.3-84.6,24.9c-15.3,1.9-30.8,2.3-46.1,0.6
				C156,333.3,156,336.3,157.9,336.6L157.9,336.6z"/>
		</g>
		<g>
			<path class="st6" d="M149.9,244.3c4.5-25,12.7-51.1,26.9-72.4c6.3-9.4,14.8-19.8,27.1-19.9c15-0.2,28.8,7.3,42,13.3
				c10.4,4.7,22.8-0.7,32.5-4.8c9.4-3.9,18.7-8.7,29.1-6.8c17.6,3.2,27.8,21.4,34.4,36.3c7.7,17.7,11.9,36.5,17.1,54.9
				c0.7,2.5,4.6,1.4,3.9-1.1c-4.9-17.3-8.8-34.9-15.7-51.6c-6.5-15.9-16-34.3-33-40.8c-8.4-3.2-17.7-2.5-26,0.6
				c-5.8,2.2-11.4,5-17.3,7.2c-6.3,2.3-14.2,5.2-20.9,3.3c-3.6-1-7-3.2-10.3-4.8c-3.3-1.5-6.6-2.9-10-4.2c-6.8-2.6-13.8-4.6-21-5.4
				c-12.1-1.3-20.8,3.9-28.5,12.8c-9.5,10.9-16,24.3-21.3,37.7c-5.7,14.3-9.9,29.3-12.7,44.4C145.6,245.7,149.4,246.8,149.9,244.3
				L149.9,244.3z"/>
		</g>
		<g>
			<path class="st6" d="M204.2,151.9c3.4,1.1,6.1,4.2,8.4,6.8c3.4,3.8,6.5,7.8,9.6,11.7c6.6,8.2,13.3,16.9,22.2,22.8
				c7,4.6,14.7,6.1,22.3,2.2c8.9-4.6,15.9-12.7,22.5-20c4-4.4,7.9-8.9,12.1-13.1c2.8-2.8,6-6.4,10-7.3c2.5-0.6,1.4-4.5-1.1-3.9
				c-7,1.7-12.6,9.1-17.2,14.1c-7,7.7-13.7,15.8-21.8,22.3c-3.3,2.7-7.3,5.5-11.6,6.1c-4.7,0.7-9.4-1.5-13.2-4
				c-8.9-5.8-15.6-14.8-22.2-23.1c-5-6.3-10.9-16-19-18.6C202.8,147.3,201.8,151.2,204.2,151.9L204.2,151.9z"/>
		</g>
		<g>
			<path class="st6" d="M326.1,177c-2.5,2.2-3.4,5.4-4.4,8.5c-1.4,3.9-2.6,7.9-2.9,12.1c-0.6,6.8,1.5,13.8,7,18.1
				c2,1.6,4.8-1.2,2.8-2.8c-4.7-3.8-6.3-9.5-5.8-15.3c0.4-5,2.3-14.3,6.2-17.7C330.8,178.1,328,175.3,326.1,177L326.1,177z"/>
		</g>
		<g>
			<path class="st6" d="M365.4,258c19.4,3.8,42.9,6.4,58.2,20.1c9.1,8.1,8.6,19.1,4.5,29.7c-5.5,14.2-16.1,26.4-27.4,36.4
				c-15.7,14.1-34.3,24.9-53.8,32.9c-50.7,20.6-110.2,23.4-162.8,8.1c-37.4-10.9-77.5-32.9-97.8-67.7c-5.2-8.9-10.6-21.3-6.3-31.6
				c3.5-8.3,13-13.4,20.9-16.7c10.2-4.4,21.1-6.9,32-9.1c3.8-0.7,7.6-1.4,11.4-2.1c2.5-0.5,1.5-4.4-1.1-3.9
				c-20.3,4-44.6,6.9-60.4,21.5c-9.3,8.6-9.6,20.5-5.6,31.9c5.4,15.2,16.3,28.3,28.1,39.1c16.5,15.2,36.2,26.8,57,35.2
				c53.4,21.6,116.3,22.3,170.9,4.5c22-7.2,43-17.7,61.3-31.8c13.6-10.6,26.4-23.5,34.3-39c4.8-9.4,8.7-21.7,4-31.9
				c-3.8-8.3-12.7-13.7-20.7-17.3c-10.6-4.8-22-7.7-33.4-9.9c-4.1-0.8-8.3-1.5-12.4-2.3C364,253.7,362.9,257.5,365.4,258L365.4,258z
				"/>
		</g>
		<g>
			<path class="st5" d="M155.8,297.1c7.7,6.2,16.5,9.9,26.3,11c1.9,0.2,1.9-2.8,0-3c-8.9-1.1-17.1-4.5-24.1-10.2
				C156.5,293.8,154.3,295.9,155.8,297.1L155.8,297.1z"/>
		</g>
		<g>
			<path class="st5" d="M144.9,317.7c-1.7-3.5-1.7-8.1-1.9-11.9c-0.4-6.4-0.3-12.8,0-19.2c0.7-14.3,2.3-28.9,6.7-42.5
				c-1.2,0.2-2.4,0.3-3.7,0.5c5,11.4,16.5,17.2,27.1,22.5c5.7,2.8,11.6,5,17.7,6.7c16,4.3,32.7,6.2,49.2,7.3
				c18.9,1.2,38,1.2,56.9-0.7c15.6-1.5,31.6-4,46-10.5c10.4-4.7,21.2-13,19.8-25.8c-1.3,0.2-2.6,0.4-3.9,0.5
				c5.6,15.1,8.7,31.1,8.6,47.2c-0.1,12.9-2.6,27.4-12.1,36.8c-6.2,6.1-15.1,10.1-23.1,13.3c-8.6,3.4-17.5,5.8-26.5,7.7
				c-38.9,8-82.4,7-120.3-5C170.4,339.7,152.7,332.3,144.9,317.7c-1.2-2.3-4.7-0.3-3.5,2c7,13.1,21.5,20.7,34.8,25.8
				c19.1,7.3,39.7,10.7,60.1,12.1c22.2,1.5,44.7,0.6,66.6-3.4c18-3.3,37.8-8.8,52.5-20.3c11-8.6,15-22.9,15.9-36.3
				c1.3-18.2-2.2-36.9-8.5-54c-0.7-1.9-4.2-1.9-3.9,0.5c1.2,10.7-7.5,17.4-16.2,21.5c-13.4,6.5-28.9,8.9-43.6,10.5
				c-33.1,3.6-68.2,2.6-100.8-4.7c-6.5-1.5-13-3.2-19.1-5.9c-11.2-5-24.4-11.2-29.7-23c-0.7-1.7-3.2-1-3.7,0.5
				c-4.7,14.4-6.3,29.9-6.9,44.9c-0.3,6.6-0.3,13.3,0.2,19.9c0.3,4,0.6,8.3,2.3,11.9C142.5,322,146,320,144.9,317.7z"/>
		</g>
		<g>
			<path class="st5" d="M162.4,291.1c4.4,3.4,9.5,5.3,15,5.9c1.9,0.2,1.9-2.8,0-3c-5-0.6-9.5-2.5-13.5-5.5
				C162.4,287.4,160.9,290,162.4,291.1L162.4,291.1z"/>
		</g>
		<g>
			<path class="st5" d="M355.7,297.6c-0.7,2.7-4.6,4.5-6.9,5.7c-3.4,1.7-7.1,3.1-10.9,3.6c-1.9,0.2-1.9,3.2,0,3
				c4.7-0.6,9.2-2.2,13.4-4.5c2.8-1.5,6.4-3.7,7.3-7C359.1,296.5,356.2,295.7,355.7,297.6L355.7,297.6z"/>
		</g>
		<g>
			<path class="st5" d="M355,288.5c-4.1,5.3-9.3,9.3-15.8,11c-1.9,0.5-1.1,3.4,0.8,2.9c7.3-1.9,13.1-6.5,17.6-12.4
				C358.7,288.5,356.1,287,355,288.5L355,288.5z"/>
		</g>
		<g>
			<path class="st6" d="M188.3,177.9c4.4,10.2,4.5,22.4-4.2,30.3c-1.9,1.7,0.9,4.5,2.8,2.8c10.2-9.2,9.9-23.3,4.9-35.1
				C190.7,173.6,187.3,175.6,188.3,177.9L188.3,177.9z"/>
		</g>
		<g>
			<path class="st6" d="M121.7,280.6c-4.3,4-7.4,8.9-9.4,14.4c-0.6,1.8,2.3,2.6,2.9,0.8c1.8-5.1,4.7-9.5,8.6-13.1
				C125.2,281.4,123.1,279.3,121.7,280.6L121.7,280.6z"/>
		</g>
		<g>
			<path class="st6" d="M129.1,284.4c-3.2-0.3-5.3,4-6.7,6.3c-2.2,3.7-3.7,7.8-4.5,12c-0.4,1.9,2.5,2.7,2.9,0.8
				c0.6-3.1,1.4-6,2.8-8.8c0.8-1.6,3.5-7.5,5.5-7.3C131.1,287.6,131.1,284.6,129.1,284.4L129.1,284.4z"/>
		</g>
	</g>
</g>
</svg>
