<?xml version="1.0" encoding="utf-8"?>
<!-- Generator: Adobe Illustrator 19.2.0, SVG Export Plug-In . SVG Version: 6.00 Build 0)  -->
<svg version="1.1" id="Layer_1" xmlns="http://www.w3.org/2000/svg" xmlns:xlink="http://www.w3.org/1999/xlink" x="0px" y="0px"
	 viewBox="0 0 630 410" style="enable-background:new 0 0 630 410;" xml:space="preserve">
<style type="text/css">
	.st0{fill:#EADACA;}
	.st1{fill:#BCA691;}
	.st2{fill:#A08470;}
	.st3{fill:#433947;}
	.st4{fill:#302D33;}
</style>
<g>
	<g>
		<path class="st0" d="M22.4,314.2c0.2-2,4.8-25,4.8-25s9.1-40.4,9.4-41.5s4.2-16,4.9-17.7s2.8-11.7,2.8-11.7l6.2-4l26-17l1.7-5.7
			l45-18.7l4.2-0.8l41.9-21.4l18.4-28.7l25.8-38.4l16.7-16.1l-1.4,22.7l-1.2,21.2l1.5,56.3l2.7,18.3l16.3,46l15.4,28.9l24.3,34.5
			l26.3,29.2l25.3-49.1l19-36.2l15.5-30.7l11.1-38.9l4.4-26.8l2.3-14.1l2-14.3l1.9-18.8l1.8-31.4L410,75.6l19,31.7l13,22.9l9.2,18.4
			l5.3,5.5l18.9,7.3l7.4,2.9l9.1,6.4l14.8,4.3l46.2,21l2.2,7.9l25.5,16.8l5.3,6.6l5.2,18.9c0,0,2.2,9.6,2.3,10.3
			c0.1,0.7,5.1,17.1,5.1,17.1l7.6,39.9c0,0-107.9,65.1-317.3,65.1C127.2,378.7,22.4,314.2,22.4,314.2z"/>
	</g>
	<g>
		<path class="st1" d="M287.3,379.1c-72.8-49.3-114.5-66.6-110.1-75.2c2.9-5.6,7.8-14.6,7.8-14.6s-19,18.3-22,17
			c-8-3.5-43.1-37.3-56.1-45.7c-4-2.6,10.6-14,10.6-14l20.4,15.5l19.7,18.5l7.5,7.5l6.1-4.2l23.5-21.2l23.2-25.6l7.2-8.4l-2.7,11.4
			l-21.9,38l-8.6,15.3l-0.5,6.2l9.1,7.3l18.3,12.5L244,337l18.9,16.1l17.3,17.4C280.2,370.5,288.7,380,287.3,379.1z"/>
		<path class="st1" d="M353.8,375.2c21.7-33.4,72.6-83.2,72.6-83.2s2.6,11.8,5.1,11.7s55.7-25.1,56.3-29.2
			c0.6-4.1-6.8-20.8-6.8-20.8l-20.7,11.9l-27.1,15l-6.8-13.8l-5,8.2l-32.2,41.3L357.7,359l-11.5,17.3
			C346.3,376.4,352.2,377.6,353.8,375.2z"/>
		<path class="st1" d="M404.6,307.5l1.1,46.5l9.1,2.2l50.6,4.8l-18.2,3.7c0,0-45.7-1.1-47.4-3.7c-3.7-5.4-3.4-45.6-3.4-45.6
			L404.6,307.5z"/>
		<path class="st1" d="M261,360.4c-24.8-12.9-110.2-9.9-114.2-8.4s-5.1-6.4-5.1-6.4l12.6-2.3l57-1.2l32.3,3.6
			C243.5,345.6,266.1,363.1,261,360.4z"/>
		<path class="st1" d="M224.9,349.2c-0.4,0.8-1.2,15.9-1.2,15.9l-7,3.7l-22.5,1.7l17,3.1c0,0,17.4,1.6,18.6,0c1.2-1.6,1-22.8,1-22.8
			L224.9,349.2z"/>
		<path class="st1" d="M153.3,157.9c2.4,9.2-21,46.8-24.4,42.2c-0.6-0.9,1.6,2,0.6,4.1c-4.6,9.6-41,21.7-46.7,16.8
			c-1-0.9-0.9,1.3-1.1,2.5c-1.1,6-20.2,16.6-24.1,13.5c-4.5-3.6,0,7.1,0,7.1s23,74.4,23,96.9c0,4.1,9.5,5.2,9.5,5.2L64.5,256
			l-2.2-11.9l23.3-10.7l4.1,2.8L125,222l9.2-11.1l19.2-31.8l15.9-28.2C169.2,150.8,152.2,153.6,153.3,157.9z"/>
		<path class="st1" d="M456.6,154.1c12.3,24.4,35.4,46.9,41.5,42.7c5-3.5,3,3.9,3.2,4.8c2,11.2,42.3,25.1,47,21.4s1.9,1.6,1.9,2.3
			c0,6.2,19.4,20.1,23.4,14.5s-4.1,21.5-7.3,35.2c-13.2,55.5-14.5,63.9-14.5,63.9l-11.1,4l12.2-48.7l16.7-47.7l-25-14.4l-3.4,3.4
			l-26.6-10.2l-10.3-5.4l-6.5-2.3l1.2-6.9l-7.9-6.3l-18.7-7.5c0,0-12.8-32.7-13.3-33.9C458.5,162,455.5,152,456.6,154.1z"/>
	</g>
	<g>
		<g>
			<path class="st2" d="M395.2,64.8c-0.5,43.7-7.3,87.2-19,129.3c-1.4,5.2-2.8,10.5-4.6,15.6c-1.9,5.5-5.3,10.6-8,15.6
				c-5.2,9.5-10.4,19-15.5,28.6c-10.4,19.4-20.4,38.9-30,58.7c-10.5,21.6-20.3,43.5-29.3,65.7c-1,2.4,2.9,3.4,3.9,1.1
				c16.7-41.1,36.3-80.9,57.1-120.1c5.1-9.6,10.3-19.1,15.5-28.6c2.6-4.7,5.2-9.5,7.9-14.2c2.6-4.6,3.7-9.8,5.2-14.9
				c6.1-21.1,11-42.5,14.6-64.2c3.9-24,6.1-48.3,6.4-72.6C399.2,62.3,395.2,62.3,395.2,64.8L395.2,64.8z"/>
		</g>
		<g>
			<path class="st2" d="M348,377.4c20.1-27.7,39.1-56.2,60.2-83.1c5-6.3,10-12.6,15.3-18.7c2.1-2.4,4-3.9,4.5-7
				c0.5-3.2,0.4-6.5,0-9.7c-2.2-14.7-12.7-28-19.6-40.8c-4.6-8.6-9.1-17.2-13.7-25.7c-4.3-7.9-9.2-16.2-7.7-25.7
				c0.4-2.5-3.4-3.6-3.9-1.1c-2.3,13.9,6.5,25.8,12.7,37.4c4.1,7.7,8.2,15.5,12.4,23.1c3.8,6.9,8.1,13.6,11.6,20.6
				c3.3,6.7,7.3,17,2.7,23.9c-4.5,6.8-10.9,12.9-16,19.3c-9.9,12.6-19.4,25.5-28.7,38.5c-11.1,15.6-22.1,31.3-33.3,46.9
				C343,377.4,346.5,379.4,348,377.4L348,377.4z"/>
		</g>
		<g>
			<path class="st2" d="M424.7,262.5c1.2,6.8,4.1,12.8,6.8,19.1c0.5,1,1.9,1.1,2.7,0.7c9.3-4.4,18.2-9.6,27-14.9
				c7.7-4.6,15.7-9.2,22.8-14.8c1.7-1.3,2.8-2.2,2.9-4.4c0.2-3.1-0.6-6.6-1.1-9.7c-1.4-8.6-3.7-17-6.3-25.2
				c-12.7-40.7-31.6-80.5-53.8-116.8C421,88.7,416,81.1,410.3,74c-3.4-4.3-7.2-9.1-12.2-11.6c-2.3-1.2-4.3,2.3-2,3.5
				c4,2.1,7.2,5.9,10,9.4c4.7,5.6,8.8,11.7,12.7,17.9c10.7,16.7,20,34.3,28.6,52.1c9.2,19,17.7,38.5,24.6,58.5
				c2.9,8.3,5.6,16.8,7.7,25.4c0.9,3.8,1.7,7.5,2.3,11.3c0.3,1.8,1.4,6.9,1,7.8c-1,2.2-6.2,4.6-8.1,5.9c-4.5,3-9,5.8-13.6,8.6
				c-9.5,5.7-19.1,11.4-29.1,16.2c0.9,0.2,1.8,0.5,2.7,0.7c-2.6-6-5.3-11.6-6.4-18.1C428.1,258.9,424.3,260,424.7,262.5L424.7,262.5
				z"/>
		</g>
		<g>
			<path class="st2" d="M228.8,69.4c-3.5,37-5.7,75,1,111.7c6.8,37.5,24.6,72.9,47.1,103.4c10.7,14.6,22.7,28.3,35.6,41
				c1.8,1.8,4.7-1,2.8-2.8c-24.2-23.9-45.3-51.3-60.6-81.7c-8.7-17.3-15.7-35.7-19.8-54.6s-5.3-38.4-5.4-57.7
				c0-19.8,1.3-39.6,3.2-59.3C233,66.8,229,66.8,228.8,69.4L228.8,69.4z"/>
		</g>
		<g>
			<path class="st2" d="M229.2,65.9c-8,3.9-13.9,12.1-19.2,19c-8.8,11.5-16.5,23.9-24.1,36.2c-17.7,28.8-34,58.4-52.3,86.7
				c-7.4,11.5-15,23.4-24.8,33c-0.9,0.9-0.7,2.5,0.4,3.1c14.7,7.7,26.8,20.5,38.4,32c4.2,4.1,8.2,8.5,12.7,12.3
				c1.9,1.6,3.3,2.9,5.7,1.7c2.7-1.3,5.2-3.8,7.5-5.7c4.4-3.6,8.7-7.4,12.9-11.3c10.9-10,21.2-20.7,30.5-32.2
				c9-11.1,18.8-24.2,20.9-38.8c0.4-2.5-3.5-3.6-3.9-1.1c-1.8,12.2-9.4,23.2-16.6,32.8c-8.7,11.5-18.8,22.1-29.2,32.1
				c-7.1,6.7-14.3,13.7-22.3,19.3c-0.7,0.5-1.6,0.9-2.2,1.5c0.4-0.3,1.5,0.7,0.9-0.2c-0.4-0.5-1.4-1.1-1.9-1.5
				c-4.3-3.7-8.2-7.9-12.3-12C138.4,261,126.1,248,111,240.1c0.1,1,0.3,2.1,0.4,3.1c8.2-8,14.8-17.8,21.1-27.3
				c8.9-13.3,17.1-27,25.3-40.8c16.4-27.6,32-55.9,50.6-82.1c5.9-8.4,12.9-19.4,22.5-24.1C233.5,68.2,231.5,64.8,229.2,65.9
				L229.2,65.9z"/>
		</g>
		<g>
			<path class="st2" d="M224.1,225.6c-5.3,17.5-14.7,33.1-24,48.8c-2.4,4-4.7,7.9-7,12c-1.5,2.7-3.7,5.6-4.4,8.6
				c-1.9,7.9,6.9,11,12.2,14.6c15.6,10.6,30.9,21.7,45.6,33.6c3.4,2.7,6.6,6.1,10.2,8.5c3.2,2.1,5.9,4,8.7,6.7
				c7,6.9,14.1,13.7,20.1,21.6c1.5,2,5,0,3.5-2c-5.1-6.7-10.9-12.8-16.9-18.7c-3-2.9-5.9-6.7-9.3-9.1c-3.1-2.2-6.2-4-9.2-6.4
				c-13.3-11.1-27.2-21.5-41.4-31.4c-3.8-2.7-7.6-5.3-11.5-7.9c-3.7-2.5-9.4-4.8-7.4-10.1c3-7.8,8.7-15.3,12.9-22.5
				c8.6-14.4,16.9-29.1,21.7-45.3C228.7,224.2,224.8,223.2,224.1,225.6L224.1,225.6z"/>
		</g>
		<g>
			<path class="st2" d="M127,218.3c-9.2,5.9-29.1,10.5-38.4,16.1c0.9,0.2,1.8,0.5,2.7,0.7c-5.5-7.7-9.6-16.2-11.5-25.6
				c-0.8-3.7-3.2-12.9-0.7-15.9c2.1-2.6,6.7-4.3,9.5-5.9c4.3-2.4,18.6-4.7,23-7c3.5-1.8,7-3.6,10.6-5.3c0.4-0.2,1.3-0.4,1.5-0.7
				c0.2-0.1,0.3-0.1,0.5-0.2c1.1-0.3,0.4-0.8-2.1-1.7c-0.4,0.4,0.2,3.9,0.2,4.4c1,11.7,3.4,24.5,10.1,34.5c1.4,2.1,4.9,0.1,3.5-2
				c-6.3-9.4-8.6-21.7-9.6-32.9c-0.2-1.9,0.6-5.7-1.9-6.3c-1.5-0.3-3.7,1.2-5,1.8c-7.5,3.5-24.8,7.4-32,11.4
				c-3.6,2.1-11.6,5.1-12.9,9.6c-0.8,2.8,0.1,7.3,0.4,10.2c0.4,3.3,0.9,6.6,1.8,9.9c2.2,8.6,6.1,16.4,11.3,23.6
				c0.6,0.9,1.7,1.3,2.7,0.7c9.3-5.6,29.2-10.3,38.4-16.1C131.1,220.4,129.1,216.9,127,218.3L127,218.3z"/>
		</g>
		<g>
			<path class="st2" d="M125.9,175.6c7-4.8,14.6-8.7,22.1-12.7c7.7-4.1,15.5-8.3,23.6-11.4c2.4-0.9,1.3-4.8-1.1-3.9
				c-8.1,3.1-15.8,7.2-23.4,11.2c-7.9,4.1-15.9,8.3-23.2,13.3C121.8,173.5,123.8,177,125.9,175.6L125.9,175.6z"/>
		</g>
		<g>
			<path class="st2" d="M75.4,194.1C65,202,53.7,208.7,43.7,217.2c-0.9,0.8-0.6,2,0,2.8c4.5,5.6,7.5,12.4,10.5,18.8
				c1,2.2,3.1,10,6.2,10.4c1.4,0.2,2.6-1.3,3.7-2c2.5-1.6,5.1-3,7.7-4.4c5.4-2.9,10.9-5.7,16.4-8.5c2.3-1.2,0.3-4.6-2-3.5
				c-5,2.5-9.9,5-14.9,7.7c-2.5,1.3-5,2.7-7.5,4.2c-1,0.6-2,1.1-2.9,1.8c-0.6,0.4-1.9,1-0.8,0.8c0.6,0.2,1.3,0.3,1.9,0.5
				c-0.6-0.5-1.5-2.9-2-3.9c-1.3-2.8-2.8-5.6-4.2-8.3c-2.8-5.7-5.9-11.4-9.9-16.4c0,0.9,0,1.9,0,2.8c10-8.2,21-14.7,31.1-22.4
				C79.2,196,77.4,192.5,75.4,194.1L75.4,194.1z"/>
		</g>
		<g>
			<path class="st2" d="M43.2,218c-10.6,31.2-16.8,63.8-22.7,96.1c-0.5,2.5,3.4,3.6,3.9,1.1c5.9-32.3,12.1-64.9,22.7-96.1
				C47.9,216.7,44,215.6,43.2,218L43.2,218z"/>
		</g>
		<g>
			<path class="st2" d="M471.8,198.9c8.7,2.7,17.9,8.2,25.2,13.6c2.1,1.5,4.1-2,2-3.5c-7.6-5.6-17.1-11.2-26.2-14
				C470.4,194.3,469.3,198.2,471.8,198.9L471.8,198.9z"/>
		</g>
		<g>
			<path class="st2" d="M454.5,154.8c14.2,5.4,28.8,11.9,41.5,20.4c2.1,1.4,4.2-2,2-3.5c-13-8.7-27.8-15.2-42.4-20.8
				C453.2,150,452.1,153.9,454.5,154.8L454.5,154.8z"/>
		</g>
		<g>
			<path class="st2" d="M495,174c3.3,14.3,3.5,28.8,0.7,43.2c-0.2,1,0.3,2.2,1.4,2.5c11.4,2.8,31,10.6,40.9,16.6
				c3.2,1.9,4.6,1.2,7.1-1.7c3.9-4.3,6.3-9.9,8.1-15.3c2.3-6.9,6.1-19.1-0.1-25c-6.7-6.4-26.1-11.1-34.2-15.4
				c-4.8-2.5-9.8-5.1-15-6.8c-2.5-0.8-6.3-2.1-8.5,0c-1.8,1.8,1,4.6,2.8,2.8c0.6-0.5,5.2,1.2,6.4,1.7c4.2,1.6,8.2,3.6,12.2,5.7
				c7.4,3.9,24.9,8.1,31.6,13.2c2.4,1.8,3.6,3.1,3.8,6.2c0.4,4.9-0.9,10-2.3,14.7c-1.5,4.9-3.6,10-6.7,14.1c-0.5,0.6-2,1.8-2.3,2.5
				c-0.1,0.3-1.5,0.9,0,0.6c0.9-0.2,0.7,0.2,0.3-0.1c-1.1-0.9-2.6-1.6-3.8-2.4c-9.1-5.9-28.7-12.8-39.3-15.4
				c0.5,0.8,0.9,1.6,1.4,2.5c3-15.1,2.7-30.3-0.7-45.3C498.3,170.4,494.5,171.5,495,174L495,174z"/>
		</g>
		<g>
			<path class="st2" d="M543.5,233.9c8.5,4.6,16.9,9.7,24.7,15.3c2.1,1.5,4.1-2,2-3.5c-7.9-5.6-16.3-10.7-24.7-15.3
				C543.3,229.2,541.2,232.7,543.5,233.9L543.5,233.9z"/>
		</g>
		<g>
			<path class="st2" d="M554.1,205.1c9.2,5.3,18,11.3,26.7,17.3c2.1,1.5,4.1-2,2-3.5c-8.7-6-17.6-12-26.7-17.3
				C553.8,200.3,551.8,203.8,554.1,205.1L554.1,205.1z"/>
		</g>
		<g>
			<path class="st2" d="M580,220.6c-18.5,39.3-32.5,80.6-41.6,123.1c-0.5,2.5,3.3,3.6,3.9,1.1c9.1-42.1,22.9-83.1,41.2-122.2
				C584.5,220.3,581.1,218.3,580,220.6L580,220.6z"/>
		</g>
		<g>
			<path class="st2" d="M580.1,221.7c4.7,6.7,6.3,14.3,7.9,22.2c1.6,7.5,4.2,14.7,6.1,22.2c4.2,16.4,6.9,33.2,10.5,49.8
				c0.6,2.5,4.4,1.4,3.9-1.1c-3.8-17.2-6.5-34.6-11-51.6c-2.1-7.9-4.6-15.5-6.2-23.5c-1.5-7.2-3.4-14-7.7-20
				C582,217.6,578.6,219.6,580.1,221.7L580.1,221.7z"/>
		</g>
		<g>
			<path class="st2" d="M402.6,297c0.1,17-0.7,34.1,0.6,51.1c0.2,3.2-0.5,6.8,2.7,8.3c2.3,1,5.2,1.2,7.7,1.6c19.3,3,39.5,4.9,59,4.4
				c2.6-0.1,2.6-4.1,0-4c-18.2,0.5-36.8-1.3-54.9-3.8c-2.9-0.4-5.7-0.8-8.6-1.4c-0.4-0.1-1.9-0.2-2.2-0.6c0.6,0.7,0.4-2.6,0.4-2.5
				c0.1-1.9-0.3-4-0.4-5.9c-0.9-15.7-0.3-31.5-0.4-47.2C406.6,294.4,402.6,294.4,402.6,297L402.6,297z"/>
		</g>
		<g>
			<path class="st2" d="M259.7,348.8c-22.3-7.8-47.1-8.4-70.5-8c-15.9,0.3-32.5,0.6-48.2,3.8c0.8,0.6,1.7,1.3,2.5,1.9
				c0.5-9.5,0.3-19,0.2-28.5c-0.5,0.6-1,1.3-1.5,1.9c10.4-2.2,21.4-2.6,31.9-3.4c11.4-0.9,23.4-2.3,34.9-1c2.6,0.3,2.5-3.7,0-4
				c-11.8-1.3-24.3,0.2-36.1,1.1c-10.5,0.8-21.4,1.3-31.8,3.4c-0.8,0.2-1.5,1.1-1.5,1.9c0.1,9.5,0.3,19-0.2,28.5
				c-0.1,1.4,1.3,2.2,2.5,1.9c15.3-3.1,31.6-3.4,47.1-3.6c23.1-0.4,47.4,0.2,69.4,7.9C261,353.5,262.1,349.7,259.7,348.8
				L259.7,348.8z"/>
		</g>
		<g>
			<path class="st2" d="M91.9,345.6c-7.6-33.4-15.7-66.8-28.8-98.5c-1-2.3-4.8-1.3-3.9,1.1c13.2,31.7,21.2,65.1,28.8,98.5
				C88.7,349.2,92.5,348.1,91.9,345.6L91.9,345.6z"/>
		</g>
		<g>
			<path class="st2" d="M221,346.1c1.4,6.9,0.8,13.9,0.7,20.9c0.5-0.6,1-1.3,1.5-1.9c-11.7,1.8-23.5,2-35.3,3.4
				c-2.5,0.3-2.6,4.3,0,4c12.1-1.5,24.3-1.7,36.3-3.6c0.9-0.1,1.5-1.1,1.5-1.9c0.1-7.4,0.7-14.7-0.8-22
				C224.4,342.5,220.5,343.6,221,346.1L221,346.1z"/>
		</g>
		<path class="st3" d="M151.8,326.7c-1.3,2.3-0.5,5.6,1.7,7s5.6,0.6,6.9-1.7c1.3-2.3,0.1-5.7-2.4-6.5s-6.6,0.2-6.7,2.8"/>
		<g>
			<path class="st4" d="M150.1,325.7c-1.8,3.6-0.7,8.2,3,10c3.5,1.7,8.4-0.1,9.5-4c1-3.6-1.2-7.6-5-8.4c-3.6-0.7-7.9,0.9-8.4,4.9
				c-0.3,2.6,3.7,2.5,4,0c0.1-1.1,2.8-1.2,3.5-1c1.5,0.3,2.4,1.9,2,3.4c-0.5,1.5-2.5,2.1-3.9,1.5c-1.7-0.7-2.1-3-1.4-4.5
				C154.7,325.4,151.2,323.4,150.1,325.7L150.1,325.7z"/>
		</g>
		<path class="st3" d="M421.2,329.5c-0.9,2.8,3.7,5.8,6.6,6.3c5,0.8,9.5-4.7,8.6-9.7c-0.8-4.2-5.3-7.6-9.5-6.6
			S420.2,325.4,421.2,329.5"/>
		<g>
			<path class="st4" d="M419.2,329c-0.9,5.3,5.5,9.2,10.2,8.9c5.4-0.4,9.5-6.1,9-11.3c-0.5-5.3-5.8-9.9-11.2-9.1
				c-6,0.9-8.9,7.2-8.1,12.7c0.4,2.5,4.2,1.5,3.9-1.1c-0.4-2.9,0.9-6.4,3.9-7.5c3.3-1.2,6.8,1.5,7.5,4.7c0.6,2.7-1.1,5.9-3.6,7
				c-1.9,0.9-8.2-0.4-7.6-3.4C423.5,327.6,419.7,326.5,419.2,329L419.2,329z"/>
		</g>
	</g>
</g>
</svg>
