<?xml version="1.0" encoding="utf-8"?>
<!-- Generator: Adobe Illustrator 19.2.0, SVG Export Plug-In . SVG Version: 6.00 Build 0)  -->
<svg version="1.1" id="Layer_1" xmlns="http://www.w3.org/2000/svg" xmlns:xlink="http://www.w3.org/1999/xlink" x="0px" y="0px"
	 viewBox="0 0 516 594" style="enable-background:new 0 0 516 594;" xml:space="preserve">
<style type="text/css">
	.st0{fill-rule:evenodd;clip-rule:evenodd;fill:#FDDDC6;}
	.st1{fill-rule:evenodd;clip-rule:evenodd;fill:#D6AA89;}
	.st2{fill-rule:evenodd;clip-rule:evenodd;fill:#AA7C5B;}
	.st3{fill:#3A291D;}
	.st4{fill-rule:evenodd;clip-rule:evenodd;fill:#FFFFFF;}
	.st5{fill-rule:evenodd;clip-rule:evenodd;fill:#509CC7;}
	.st6{fill:#814927;}
</style>
<g>
	<g>
		<g>
			<path class="st0" d="M480.5,486.3c-60.8-50.9-140.8-63.7-142.7-85c0-0.5-0.1-1-0.2-1.4l0.7-0.7l-1.3-91.7
				c9.5-10.9,17-19.8,18.1-21.5c1.6-2.4,4.5-15.8,7.3-31.3c4.4,2.5,11.7,3.9,15,2.4c4.4-1.9,31.5-35,26.7-61.5
				c-2.3-12.5-21.4-26.7-33-10.2c2.1-38,3.7-97.2,0.6-106.4c-3.8-11.3-69.6-63-114.8-61.7c-45.4,1.3-107.1,41.4-115,68.4
				c-2.1,7.3-6.2,63.8-5.8,99.5c-11.6-16.1-30.6-2.1-32.9,10.4C98.5,222,125.6,255.1,130,257c3.3,1.4,9.4,0.1,13.7-2.4
				c3.1,19.6,6.6,37.4,9.3,40.9c1,1.3,9.1,9.3,19.6,19.1l-0.4,0l-0.2,85.7c-6.5,24-73.3,35.2-135.6,80.7
				c-24.8,18.1,73.1,101.2,215.6,96.5C407.4,572.4,495.3,498.7,480.5,486.3z"/>
		</g>
	</g>
	<g>
		<g>
			<path class="st1" d="M376.9,244.8c10,6.5,26.3-31,22.4-40.1c-1.1-2.4-3.5-3.5-3.5-3.5h-8.3l-5.9,5.9l-3.5,8.3l-3.5,16.5
				C374.5,231.8,374.1,242.9,376.9,244.8z M291.8,355.8c1.5-3,1.2-8-1.3-10c-5.8-4.8-60.6-2.4-68.8,0c-3,0.9-6.9-4.3-7.7-5.6
				c-11.4-19-23.1-49-25-54.9c-5.7-17.2-13.3-44.6-29-65.3c-4.9-6.4-4.9-55.6,8-78.7c5.5-9.8-17-71-26-54.1
				c-7.4,13.7-3.2,85.7-5.6,99.8c-0.1,0.4,0.1,2.9,0.4,6.4l-4-11.1c0,0-5.3-1.5-8.3-1.2c-2.9,0.3-8.8,1.5-11.8,2.4
				c-2.9,0.9-7.4,6.5-9.4,10.6c-2.1,4.1-0.9,17.1,1.2,24.8s23.9,40.1,27.1,40.1c2,0,8-2.5,12.4-4.5c0.4,3.4,0.6,5.7,0.6,5.7
				s7.9,35.3,8.5,37.1c0.6,1.8,15.6,15.3,15.6,15.3l8.8,7.6l-3.1-2.5l-2.4,65.8c0,0,16.6,18,38.4,31.7c3.4,10,9,22.6,9.9,23.9
				c2.5,3.3,5.9,1.7,8,0.6c2.1-1.1-1-9.4-4.3-17c10.2,4.8,20.9,8.1,31.2,7.8c11.4-0.2,25.7-7.1,39.2-15.6c-3.8,8-10.7,23.6-8.5,25.5
				c3,2.6,5.5,2.4,6.3,0.8c0.6-1.2,9-23.6,12.6-33.3c19.2-13.5,34.7-28.1,34.7-28.1l-1.6-68.4L291.8,355.8z M273,468
				c-2.2,2.7-6.8,19.5-18.6,19.6c-9,0.1-11.8-8.3-17.2-10.6c-1.7-0.7-3.5,0.2-4.3,1.7s-1.7,8.9,2,10.5c3.7,1.6,6.7,3,8.2,3.5
				s5.3,3.2,8.9,4.3c3.5,1,4.4,1.7,7.6,0c3.1-1.7,7-3,9.8-4.6c4.1-2.3,10.8-21.9,9.2-24.1C276.8,466.2,273.8,467,273,468z
				 M392.2,498.4c-13.5,3.2-29-0.2-42.7,1.7c-4.1,0.6-3.4,5.8-0.5,6.6c13,3.7,34.5,4.5,42.8-1C395.1,503.5,395.9,497.5,392.2,498.4z
				 M161,505.5c-12.2,1.7-24.6,1.3-35.5,0c-7.3-0.9-7.3,6.3-2.1,8.7s26.5,4,32.9,0S165.3,505,161,505.5z M247.6,520.5
				c0,7.7,4.4,32,4.4,49c0,3.8,6,5.3,10.1,1.7c4.1-3.7-2.4-51.7-4.4-54.2S247.6,512.7,247.6,520.5z"/>
		</g>
	</g>
	<g>
		<g>
			<path class="st2" d="M134,227.1c-0.6-3.2-4.4-9.7-5.5-14.1c-1.2-4.4-2.4-6.2-5.1-9.4c-2.7-3.2-4.1-2.9-7.1-3.5
				c-2.9-0.6-5.6,2.4-5.9,5.9c-1.8,23.9,16.2,43,21.2,40.1c1.6-0.9,2.9-1.2,3.5-3.5C135.8,240,134.6,230.3,134,227.1z"/>
		</g>
	</g>
	<g>
		<g>
			<g>
				<path class="st1" d="M243.7,182.3c0,0-14.8,1.4-15.3,20c-0.1,4.2-1.5,27.8-2.1,37.3c-5.2,3.5-10.6,8.1-12,9.9
					c-11.7,14.7,19.4,0.3,19.4,0.3l6.5-2.7l-0.6-1.2c0.2,0,0.4,0,0.6,0C244.3,245.9,243.7,182.3,243.7,182.3z"/>
			</g>
		</g>
		<g>
			<g>
				<path class="st2" d="M268.4,250.6l-10.6,3.5l-5.9-1.2c0,0-19.1-8.3-18.9-7.1c2.7,13,23.9,45.4,44.8-1.2
					C278.5,243.4,268.4,250.6,268.4,250.6z"/>
			</g>
		</g>
		<g>
			<g>
				<path class="st3" d="M233.3,237.1c-1,2.4-2.8,6.1-0.9,8.4c1.4,1.8,4.7,2.7,6.6,3.5c4.7,2,11.1,5.5,16.4,5.3
					c5.6-0.2,12.2-3.6,17.3-5.8c1.8-0.8,4.8-1.7,5.9-3.6c1.7-2.8-0.6-6.3-2.3-8.4c-1.6-2-4.5,0.9-2.8,2.8c2.7,3.2,1.7,3.6-1.1,5
					c-2.2,1.1-4.6,2-6.9,2.8c-3,1.1-7.3,3.3-10.6,3.1c-3.8-0.2-8.3-2.5-11.8-3.9c-1.9-0.8-4.5-1.5-6.1-2.8c-0.3-0.3-1.4-0.5-1.6-0.9
					c-0.1-0.2,1.7-3.9,1.9-4.5C238.2,235.8,234.3,234.8,233.3,237.1L233.3,237.1z"/>
			</g>
		</g>
	</g>
	<g>
		<g>
			<g>
				<path class="st1" d="M268.5,297.5l-9.4,1.2h-8.3c0,0-6.8-2.7-8.3-1.2c-1.5,1.5-3.9,5.7-3.5,9.4c0.3,3.2,32.3,5.9,33-2.4
					C272.3,301,268.5,297.5,268.5,297.5z M310,273.2c-2.7-4.4-4.7-2.1-5.9-1.2c-1.2,0.9-1.4,2.6-1.2,3.5c1.2,4.9,2.2,7,1.2,14.1
					c-0.4,2.7,6.7,2.8,8.8-1.2C314.9,284.8,312.7,277.7,310,273.2z"/>
			</g>
		</g>
		<g>
			<g>
				<g>
					<path class="st3" d="M213.3,281.6c5.3-0.2,10.7-0.1,16,0.2c4.8,0.2,9.6,0.3,14.4,0.9c3.6,0.5,6.9,2.6,10.5,2.7
						c4.8,0.1,9.5-2.4,14.3-2.8c4.7-0.4,9.4-0.7,14.1-0.9c5.6-0.3,11.1-0.3,16.7-0.5c2.6-0.1,2.6-4.1,0-4
						c-5.4,0.2-10.7,0.2-16.1,0.5c-4.6,0.2-9.2,0.5-13.8,0.9c-5,0.4-10.3,3.2-15.3,2.9c-3.4-0.2-6.4-2.2-9.8-2.7
						c-4.8-0.7-9.7-0.7-14.5-0.9c-5.5-0.3-11.1-0.4-16.6-0.2C210.8,277.7,210.8,281.7,213.3,281.6L213.3,281.6z"/>
				</g>
			</g>
			<g>
				<g>
					<path class="st3" d="M297.5,275.7c3.7,2.2,3.9,6.8,2.3,10.4c-1,2.3,2.5,4.4,3.5,2c2.4-5.7,2-12.5-3.8-15.9
						C297.3,270.9,295.3,274.4,297.5,275.7L297.5,275.7z"/>
				</g>
			</g>
			<g>
				<g>
					<path class="st3" d="M210.4,272.3c-2.1,2-2.6,5.4-2.9,8.2c-0.3,2.5-0.8,5.5,0.3,7.9c1.1,2.3,4.5,0.3,3.5-2
						c-0.4-0.9,0-4,0.2-5.3c0.2-1.8,0.4-4.6,1.9-5.9C215.1,273.4,212.3,270.6,210.4,272.3L210.4,272.3z"/>
				</g>
			</g>
			<g>
				<g>
					<path class="st3" d="M235.5,298.3c5.2,2.9,12.7,2.6,18.5,2.5c7-0.1,14.5-0.6,21-3.4c2.4-1,0.3-4.5-2-3.5
						c-5.8,2.5-12.8,2.7-19,2.8c-5,0.1-11.9,0.6-16.4-1.9C235.3,293.6,233.3,297,235.5,298.3L235.5,298.3z"/>
				</g>
			</g>
		</g>
	</g>
	<g>
		<g>
			<g>
				<path class="st1" d="M335.6,174c-1.2-7.2-5.9-9.4-5.9-9.4l-7.1-2.4l-8.3-1.2l-9.4-1.2l-7.1,1.2l-10.6,2.4c0,0-5.8,2.9-10.6,10.6
					c-4.6,7.5-7.5,8.5-4.9,11.8c2.7,3.2,6.2-0.2,9.5-0.8c3.3-0.6,16.6-6.3,16.6-6.3h10.7l11.9,3.5l5.9,5.9c0,0,5,3.7,7.1,0
					C338.4,179.9,336,176.1,335.6,174z"/>
			</g>
		</g>
		<g>
			<g>
				<g>
					<polygon class="st4" points="321.5,181.1 313.2,179.9 295.5,179.9 294.4,190.5 296.7,192.9 305,194.1 314.4,192.9 320.3,190.5 
						323.8,184.6 					"/>
				</g>
			</g>
			<g>
				<g>
					<polygon class="st5" points="314.4,178.7 303.8,179.9 297.9,179.9 299.1,187 305,190.5 310.9,189.3 315.6,183.5 					"/>
				</g>
			</g>
			<g>
				<g>
					<g>
						<path class="st3" d="M283.4,185.6c6.9-3.5,14.5-5,22.1-4.7c5.6,0.2,12.6,1.1,16.6,5.5c1.7,1.9,4.6-0.9,2.8-2.8
							c-4.5-4.9-11.8-6.2-18.1-6.6c-8.8-0.5-17.7,1.2-25.5,5.2C279,183.3,281.1,186.7,283.4,185.6L283.4,185.6z"/>
					</g>
				</g>
				<g>
					<g>
						<path class="st3" d="M294.8,192c-0.9-3.4-0.5-7,1.8-9.8c1.7-2-1.2-4.8-2.8-2.8c-3.3,3.9-4.2,8.8-2.9,13.6
							C291.6,195.5,295.4,194.5,294.8,192L294.8,192z"/>
					</g>
				</g>
				<g>
					<g>
						<path class="st3" d="M293.2,195.2c9.9,1.1,26.5,1,32.1-9.2c1.2-2.3-2.2-4.3-3.5-2c-4.8,8.7-20.3,8.1-28.6,7.2
							C290.6,190.9,290.7,194.9,293.2,195.2L293.2,195.2z"/>
					</g>
				</g>
				<g>
					<g>
						<path class="st3" d="M291.8,193.5c2.9,8,8.7,13.9,16.5,17.3c1.8,0.8,3.3-1.8,1.5-2.6c-7-3.1-12.5-8.3-15.1-15.5
							C294,190.9,291.1,191.7,291.8,193.5L291.8,193.5z"/>
					</g>
				</g>
				<g>
					<g>
						<path class="st3" d="M296.3,181.4c0.2,5.8,3.7,10.4,9.8,10.3c5.1-0.1,10.2-3.3,11.4-8.4c0.6-2.5-3.3-3.6-3.9-1.1
							c-0.7,3.2-3.8,5.2-7,5.5c-4.1,0.4-6.2-2.5-6.3-6.3C300.3,178.8,296.3,178.8,296.3,181.4L296.3,181.4z"/>
					</g>
				</g>
			</g>
			<g>
				<g>
					<path class="st3" d="M283.7,175.3c12.1-2.7,29.1-3.1,40.2,3c1.7,0.9,3.2-1.7,1.5-2.6c-11.9-6.6-29.5-6.2-42.5-3.4
						C281,172.8,281.8,175.7,283.7,175.3L283.7,175.3z"/>
				</g>
			</g>
		</g>
		<g>
			<g>
				<path class="st1" d="M243.5,181.8c-0.4-2.5-2.3-5.2-4.5-8.2c-5.5-7.2-17.9-10.2-17.9-10.2l-10.6-2.4l-7.1-1.2L194,161l-8.3,1.2
					l-7.1,2.4c0,0-10.4,10.9-3.9,23.6c1.9,3.8,7.1,0,7.1,0l5.9-5.9l11.9-3.5h10.7c0,0,1.4,0.8,3.4,1.9h0c0,0,2.7,9.2,1.2,13.7
					c-4.4,12.7-19.9,15.4-16.5,16.5c12.5,3.9,26.5-10.6,29.5-9.4C230.8,202.5,245.4,186.9,243.5,181.8z"/>
			</g>
		</g>
		<g>
			<g>
				<g>
					<polygon class="st4" points="212.8,179.9 195.1,179.9 186.9,181.1 184.5,184.6 188.1,190.5 194,192.9 203.4,194.1 211.6,192.9 
						214,190.5 					"/>
				</g>
			</g>
			<g>
				<g>
					<polygon class="st5" points="204.6,179.9 194,178.7 192.8,183.5 197.5,189.3 203.4,190.5 209.3,187 210.5,179.9 					"/>
				</g>
			</g>
			<g>
				<g>
					<g>
						<path class="st3" d="M227,182.1c-7.9-4-16.7-5.7-25.5-5.2c-6.3,0.4-13.6,1.7-18.1,6.6c-1.7,1.9,1.1,4.7,2.8,2.8
							c4-4.4,11-5.3,16.6-5.5c7.7-0.2,15.3,1.3,22.1,4.7C227.3,186.7,229.3,183.3,227,182.1L227,182.1z"/>
					</g>
				</g>
				<g>
					<g>
						<path class="st3" d="M217.5,193c1.3-4.9,0.4-9.8-2.9-13.6c-1.7-2-4.5,0.9-2.8,2.8c2.3,2.8,2.8,6.3,1.8,9.8
							C212.9,194.5,216.8,195.5,217.5,193L217.5,193z"/>
					</g>
				</g>
				<g>
					<g>
						<path class="st3" d="M215.2,191.2c-8.3,0.9-23.8,1.5-28.6-7.2c-1.2-2.3-4.7-0.2-3.5,2c5.6,10.2,22.2,10.3,32.1,9.2
							C217.7,194.9,217.7,190.9,215.2,191.2L215.2,191.2z"/>
					</g>
				</g>
				<g>
					<g>
						<path class="st3" d="M213.7,192.8c-2.6,7.3-8.1,12.5-15.1,15.5c-1.8,0.8-0.2,3.4,1.5,2.6c7.7-3.4,13.6-9.3,16.5-17.3
							C217.3,191.7,214.4,190.9,213.7,192.8L213.7,192.8z"/>
					</g>
				</g>
				<g>
					<g>
						<path class="st3" d="M209.1,180.9c-0.8,3.7-3.1,7.1-7.3,6.8c-3.2-0.3-5.8-2.6-6-5.9c-0.2-2.6-4.2-2.6-4,0
							c0.3,5.2,4.3,9.3,9.5,9.8c6.2,0.7,10.4-4,11.7-9.6C213.5,179.4,209.7,178.4,209.1,180.9L209.1,180.9z"/>
					</g>
				</g>
			</g>
			<g>
				<g>
					<path class="st3" d="M225.5,172.4c-13-2.9-30.6-3.3-42.5,3.4c-1.7,0.9-0.2,3.5,1.5,2.6c11.1-6.2,28.1-5.7,40.2-3
						C226.5,175.7,227.3,172.8,225.5,172.4L225.5,172.4z"/>
				</g>
			</g>
		</g>
		<g>
			<path class="st6" d="M338.3,168.9c-8.1-5-18.4-7.5-30.8-7.5c-8.7,0-18.5,1.3-28.2,3.8c-2.5-2.2-5-8-4.2-11
				c0.7-2.8,5.2-4.3,8.2-5.3c4.8-1.6,10-2.6,15.4-3l0.2,0c1.2-0.1,2.3-0.2,3.2-0.2c0.6,0,1.1,0,1.6,0c3.6,0,4.3,0.4,4.9,3.2l0.4,1.7
				l1.8-0.1c0.8-0.1,1.7-0.1,2.5-0.1c5.7,0,12.4,1.5,17.8,4c-0.1,0.1-0.1,0.1-0.2,0.2l-0.6,0.5l-0.1,0.8c0,0-0.3,1.3-0.3,1.3
				l0.9,0.8C334.3,160.6,337.8,164.1,338.3,168.9z"/>
			<g>
				<g>
					<g>
						<path class="st3" d="M280.3,164.7c-2.2-1.9-5.4-8.1-4-10.9c1.4-2.7,6.8-3.9,9.5-4.6c4-1.1,8.2-1.9,12.3-2.3
							c1.9-0.2,3.7-0.3,5.6-0.3c3,0,3.7-0.1,4.1,3.4c0.1,0.7,0.6,1.6,1.5,1.5c7-0.8,15.4,0.8,21.8,3.8c-0.2-0.6-0.5-1.1-0.7-1.7
							c0.3-1.2-1.4,1.1-1.8,1.5c-0.7,0.8-0.5,1.8,0.3,2.4c4.1,3.1,8.4,6.9,8.5,12.4c0.8-0.4,1.5-0.9,2.3-1.3
							c-17.1-11.1-42-9.1-60.8-4.2c-1.9,0.5-1.1,3.4,0.8,2.9c18.1-4.6,42.1-6.7,58.5,3.9c1,0.6,2.3-0.2,2.3-1.3
							c-0.1-6.7-5-11.2-10-15c0.1,0.8,0.2,1.6,0.3,2.4c0.7-0.7,2.3-1.7,2.5-2.8c0.1-0.6-0.1-1.4-0.7-1.7c-6.8-3.2-15.7-5.1-23.3-4.2
							c0.5,0.5,1,1,1.5,1.5c-0.8-6.1-2.9-6.5-8.7-6.4c-6.5,0.2-13.2,1.3-19.3,3.3c-3.4,1.1-8.6,2.8-9.6,6.7c-1,4,2,10.5,5,13.1
							C279.6,168.1,281.7,166,280.3,164.7z"/>
					</g>
				</g>
				<g>
					<g>
						<path class="st3" d="M285,163.7c-1-4.5-1.5-12,2.7-15.3c1.5-1.2-0.6-3.3-2.1-2.1c-5,3.9-4.7,12.7-3.4,18.2
							C282.5,166.4,285.4,165.6,285,163.7L285,163.7z"/>
					</g>
				</g>
				<g>
					<g>
						<path class="st3" d="M291.2,162.9c-0.3-6,3.2-13.1,8.3-16.3c1.6-1,0.1-3.6-1.5-2.6c-6,3.7-10.2,11.8-9.8,18.8
							C288.3,164.8,291.3,164.8,291.2,162.9L291.2,162.9z"/>
					</g>
				</g>
				<g>
					<g>
						<path class="st3" d="M299.6,161.9c1.5-4.5,5.8-9.4,10.5-10.5c1.9-0.4,1.1-3.3-0.8-2.9c-5.7,1.3-10.8,7.2-12.6,12.6
							C296.1,162.9,299,163.7,299.6,161.9L299.6,161.9z"/>
					</g>
				</g>
				<g>
					<g>
						<path class="st3" d="M312.9,163c5.9-3.3,10.9-5.7,17.9-5.6c-0.5-0.5-1-1-1.5-1.5c0.2-0.3,0.3-0.6,0.5-0.9
							c-1.6,1-0.1,3.6,1.5,2.6c0.7-0.4,0.9-0.9,1-1.7c0.1-0.8-0.7-1.5-1.5-1.5c-7.4-0.1-13.1,2.5-19.4,6
							C309.7,161.3,311.2,163.9,312.9,163L312.9,163z"/>
					</g>
				</g>
			</g>
		</g>
		<g>
			<path class="st6" d="M171.1,168.9c8.1-5,18.4-7.5,30.8-7.5c8.7,0,18.5,1.3,28.2,3.8c2.5-2.2,5-8,4.2-11c-0.7-2.8-5.2-4.3-8.2-5.3
				c-4.8-1.6-10-2.6-15.4-3l-0.2,0c-1.2-0.1-2.3-0.2-3.2-0.2c-0.6,0-1.1,0-1.6,0c-3.6,0-4.3,0.4-4.9,3.2l-0.4,1.7l-1.8-0.1
				c-0.8-0.1-1.7-0.1-2.5-0.1c-5.7,0-12.4,1.5-17.8,4c0.1,0.1,0.1,0.1,0.2,0.2l0.6,0.5l0.1,0.8c0,0,0.3,1.3,0.3,1.3l-0.9,0.8
				C175.1,160.6,171.6,164.1,171.1,168.9z"/>
			<g>
				<g>
					<g>
						<path class="st3" d="M231.3,166.8c2.9-2.5,5.7-8.8,5-12.7c-0.7-4.2-6.1-6-9.6-7.1c-6-2-12.5-3-18.8-3.3c-6-0.2-8.5,0-9.3,6.4
							c0.5-0.5,1-1,1.5-1.5c-7.6-0.9-16.5,1-23.3,4.2c-0.6,0.3-0.8,1.1-0.7,1.7c0.3,1.1,1.8,2,2.5,2.8c0.1-0.8,0.2-1.6,0.3-2.4
							c-5,3.8-9.9,8.3-10,15c0,1.1,1.3,1.9,2.3,1.3c16.4-10.7,40.4-8.6,58.5-3.9c1.9,0.5,2.7-2.4,0.8-2.9
							c-18.9-4.8-43.7-6.9-60.8,4.2c0.8,0.4,1.5,0.9,2.3,1.3c0.1-5.5,4.4-9.3,8.5-12.4c0.8-0.6,1-1.6,0.3-2.4
							c-0.4-0.4-2-2.6-1.8-1.5c-0.2,0.6-0.5,1.1-0.7,1.7c6.4-3,14.7-4.7,21.8-3.8c0.9,0.1,1.4-0.8,1.5-1.5c0.4-3.2,0.8-3.3,3.6-3.4
							c1.8,0,3.7,0.1,5.5,0.2c4.3,0.4,8.7,1.2,12.9,2.3c2.7,0.8,7.5,1.8,9.2,4.3c1.8,2.8-1.4,9.2-3.7,11.2
							C227.7,166,229.8,168.1,231.3,166.8z"/>
					</g>
				</g>
				<g>
					<g>
						<path class="st3" d="M227.3,164.5c1.3-5.5,1.6-14.3-3.4-18.2c-1.5-1.2-3.6,0.9-2.1,2.1c4.1,3.2,3.7,10.7,2.7,15.3
							C224,165.6,226.9,166.4,227.3,164.5L227.3,164.5z"/>
					</g>
				</g>
				<g>
					<g>
						<path class="st3" d="M221.3,162.9c0.3-7-3.8-15.2-9.8-18.8c-1.7-1-3.2,1.6-1.5,2.6c5.1,3.1,8.6,10.3,8.3,16.3
							C218.2,164.8,221.2,164.8,221.3,162.9L221.3,162.9z"/>
					</g>
				</g>
				<g>
					<g>
						<path class="st3" d="M212.8,161.1c-1.8-5.4-6.9-11.2-12.6-12.6c-1.9-0.4-2.7,2.5-0.8,2.9c4.7,1.1,9,6,10.5,10.5
							C210.5,163.7,213.4,162.9,212.8,161.1L212.8,161.1z"/>
					</g>
				</g>
				<g>
					<g>
						<path class="st3" d="M198.1,160.4c-6.3-3.5-12-6.2-19.4-6c-0.8,0-1.6,0.7-1.5,1.5c0.1,0.8,0.3,1.2,1,1.7
							c1.6,1,3.1-1.6,1.5-2.6c0.2,0.3,0.3,0.6,0.5,0.9c-0.5,0.5-1,1-1.5,1.5c6.9-0.1,12,2.3,17.9,5.6
							C198.3,163.9,199.8,161.3,198.1,160.4L198.1,160.4z"/>
					</g>
				</g>
			</g>
		</g>
	</g>
	<g>
		<g>
			<g>
				<g>
					<path class="st3" d="M138.1,186c-5.8-7.7-14.3-10.8-23.3-6.3c-7.9,4-13.1,11.8-13.9,20.6c-1.7,19.4,9.6,39.6,21.7,54
						c1.7,2.1,3.7,4.6,6.1,6c4.8,2.7,11.1-0.1,15.3-2.4c2.2-1.3,0.2-4.7-2-3.5c-4.1,2.3-9.3,4.6-13.1,0.9c-2.3-2.3-4.4-4.9-6.4-7.5
						c-5.9-7.9-10.9-16.6-14.2-25.9c-3.2-8.9-6-20.9-1-29.6c5.9-10.5,19.3-15,27.3-4.2C136.2,190,139.7,188,138.1,186L138.1,186z"/>
				</g>
			</g>
			<g>
				<g>
					<path class="st3" d="M135.3,242c0.5-12.7-2.5-26-9.6-36.7c-2.4-3.6-5.8-7.1-10.4-7c-3.7,0-6.7,2.2-7.7,5.8
						c-0.7,2.5,3.2,3.5,3.9,1.1c2-7.2,9.4,0.1,11.2,2.9c2.2,3.4,3.9,7.2,5.3,11c2.6,7.4,3.7,15.2,3.4,23.1
						C131.2,244.6,135.2,244.6,135.3,242L135.3,242z"/>
				</g>
			</g>
			<g>
				<g>
					<path class="st3" d="M116.1,203.1c-5.1,12.4,0.6,31.9,14.2,36.4c2.4,0.8,3.5-3,1.1-3.9c-11.7-3.9-15.6-21.3-11.4-31.5
						C121,201.7,117.1,200.7,116.1,203.1L116.1,203.1z"/>
				</g>
			</g>
			<g>
				<g>
					<path class="st3" d="M372.8,188c7.9-10.5,20.9-6.4,27.1,3.7c5.3,8.9,2.6,21-0.7,30.1c-3.3,9.1-8.2,17.7-13.9,25.5
						c-2,2.7-4.2,5.5-6.7,7.9c-3.8,3.6-8.9,1.4-13.1-0.9c-2.2-1.3-4.3,2.2-2,3.5c4.2,2.3,10,4.9,14.7,2.7c1.9-0.9,3.4-2.6,4.8-4.1
						c5.9-6.4,10.8-13.9,14.8-21.6c8.4-16,15.7-40.2-1.8-53c-9.3-6.8-19.9-4.9-26.7,4.2C367.8,188,371.3,190,372.8,188L372.8,188z"
						/>
				</g>
			</g>
			<g>
				<g>
					<path class="st3" d="M376.2,242c-0.3-7.9,0.7-15.6,3.4-23.1c1.3-3.6,2.9-7.1,4.9-10.4c1.8-2.9,9.5-11,11.6-3.5
						c0.7,2.5,4.6,1.4,3.9-1.1c-1-3.5-4-5.7-7.7-5.8c-4.6-0.1-8,3.5-10.4,7c-7.1,10.6-10.1,24-9.6,36.7
						C372.3,244.6,376.3,244.6,376.2,242L376.2,242z"/>
				</g>
			</g>
			<g>
				<g>
					<path class="st3" d="M387.5,204.1c4.2,10.2,0.3,27.6-11.4,31.5c-2.4,0.8-1.4,4.7,1.1,3.9c13.6-4.5,19.3-24.1,14.2-36.4
						C390.4,200.7,386.5,201.7,387.5,204.1L387.5,204.1z"/>
				</g>
			</g>
		</g>
		<g>
			<g>
				<path class="st3" d="M134.6,199.8c1,15,3.2,29.9,5.3,44.7c2.3,15.9,4.2,32.6,9,48c2.6,8.3,10.1,13.7,16.2,19.5
					c12.3,11.7,24.8,23.3,37.8,34.2c4.9,4.1,9.8,8.3,15.2,11.7c4.7,3,10.1,3.8,15.6,4.4c16.9,1.8,35,1,51.8-1.7
					c9.7-1.6,17.2-11.5,23.6-18.1c11.8-12.1,23-24.7,34-37.5c5.4-6.3,13-12.9,15.4-21.1c4.7-16.3,7.1-33.5,9.7-50.2
					c5.4-34.4,6.3-69.3,6.9-104.1c0.3-15,1.1-30.6-0.9-45.5c-1.3-9.7-10.8-16.5-17.8-22.2c-15.1-12.5-31.9-23.3-49.7-31.7
					c-17.5-8.3-36.6-14.7-56.2-12.8c-21.9,2.2-43.2,10.9-62.1,21.9c-16.4,9.5-33.6,21.7-44,37.9c-6.6,10.3-6.5,22.8-7.5,34.6
					c-1.6,20.5-2.7,41.1-2.9,61.6C134.1,182.2,134.1,191,134.6,199.8c0.2,2.6,4.2,2.6,4,0c-1.1-18.8-0.4-37.7,0.5-56.4
					c0.8-16.7,1.6-33.4,3.8-50c1.8-13.6,11.8-23.9,21.8-32.5c16.7-14.5,36.9-25.7,57.8-33c19.1-6.6,38.2-9.2,57.9-3.7
					c19.6,5.4,37.9,15.4,54.8,26.7c7.2,4.8,14.3,10,20.9,15.7c4.3,3.7,9,7.6,12.4,12.3c2.1,3,2.2,6.3,2.5,9.9
					c0.5,6.7,0.6,13.5,0.6,20.2c0.1,19-0.5,38-1.3,56.9c-0.6,15.2-1.1,30.5-2.7,45.6c-1.9,17.2-4.9,34.4-8.2,51.4
					c-1.7,9-2.4,19.7-8.4,27.1c-8.8,10.7-18,21.1-27.3,31.3c-9.7,10.8-19.5,22-30.6,31.4c-3,2.5-5.2,3.7-9,4.2
					c-7.7,1.2-15.5,1.6-23.2,1.9c-9.1,0.4-18.4,0.5-27.5-0.5c-5.7-0.6-10.3-1.8-15-5.1c-12.1-8.4-23-18.8-33.9-28.7
					c-9.6-8.8-19.4-17.6-28.4-27c-2.1-2.2-2.9-4.7-3.7-7.8c-1.9-7-3.2-14.1-4.5-21.2c-3-17.1-5.5-34.4-7.5-51.6
					c-0.7-5.6-1.3-11.3-1.7-17C138.5,197.3,134.5,197.2,134.6,199.8z"/>
			</g>
		</g>
		<g>
			<g>
				<path class="st3" d="M202.9,364.4c6.2,24.2,13.5,49.1,23.9,71.9c0.8,1.8,3.4,0.2,2.6-1.5c-10.3-22.6-17.5-47.2-23.6-71.2
					C205.3,361.7,202.4,362.5,202.9,364.4L202.9,364.4z"/>
			</g>
		</g>
		<g>
			<g>
				<path class="st3" d="M206.7,406.5c3.5,9,7.4,17.8,11.9,26.3c0.9,1.7,3.5,0.2,2.6-1.5c-4.3-8.3-8.2-16.9-11.6-25.6
					C208.9,403.9,206,404.7,206.7,406.5L206.7,406.5z"/>
			</g>
		</g>
		<g>
			<g>
				<path class="st3" d="M486.2,488.2c-33.8-28.8-75.3-46.7-115.1-65.4c-6.9-3.2-13.8-6.4-20.4-10.1c-2.9-1.6-8.1-3.7-9.7-6.9
					c-1.5-2.9-0.7-9.2-0.8-12.7c-0.3-8.6-0.5-17.3-0.6-26c-0.3-18.9-0.6-37.7-0.6-56.6c0-2.6-4-2.6-4,0c0,16.9,0.3,33.8,0.5,50.7
					c0.2,9.3,0.3,18.6,0.6,27.9c0.2,5.3-0.1,11,0.8,16.3c0.6,3.4,3.2,5.3,5.9,7.1c5.2,3.6,11.1,6.3,16.8,9.1
					c18.4,9,37.2,17.2,55.5,26.4c24,12.1,47.9,25.4,68.4,42.9C485.3,492.7,488.2,489.8,486.2,488.2L486.2,488.2z"/>
			</g>
		</g>
		<g>
			<g>
				<path class="st3" d="M34.6,484.3c34.4-26.1,74.4-42.8,113-61.4c5.9-2.8,11.8-5.6,17.3-9c2.7-1.7,6.4-3.8,7.6-7
					c1.3-3.5,0.8-8.5,0.9-12.2c0.3-8,0.5-15.9,0.6-23.9c0.4-18.1,0.6-36.2,0.7-54.3c0-2.6-4-2.6-4,0c0,15.3-0.2,30.6-0.5,45.9
					c-0.1,8.3-0.3,16.6-0.5,24.9c-0.2,5.5,0.1,11.3-0.7,16.7c-0.5,3-3,4.4-5.6,6c-5.1,3.2-10.6,5.9-16,8.5
					c-17.1,8.3-34.5,16-51.5,24.4c-22,11-43.7,22.9-63.3,37.8C30.6,482.4,32.6,485.8,34.6,484.3L34.6,484.3z"/>
			</g>
		</g>
		<g>
			<g>
				<path class="st3" d="M79.8,494.6c27.9,2.4,55.9,3.4,83.8,1.9c13.8-0.7,27.5-2,41.2-3.6c11.9-1.4,28.8-6.3,38.7,2.9
					c1.4,1.3,3.6-0.8,2.1-2.1c-8.6-7.9-20.6-6.3-31.3-4.9c-15.1,1.9-30.3,3.5-45.6,4.4c-29.7,1.8-59.4,0.9-89-1.6
					C77.8,491.4,77.9,494.4,79.8,494.6L79.8,494.6z"/>
			</g>
		</g>
		<g>
			<g>
				<path class="st3" d="M251.2,498.4c6.2,3.3,11.4-1.6,16.7-4.4c7.5-4.1,16.6-3.1,24.9-3.2c14.9,0,29.8-0.1,44.6,0.7
					c15.3,0.8,30.4,2.4,45.7,2.2c12.2-0.1,24.4-0.3,36.6-1c1.9-0.1,1.9-3.1,0-3c-11.8,0.7-23.6,0.8-35.4,1
					c-15,0.2-29.8-1.1-44.8-2.1c-14.2-0.9-28.5-0.8-42.7-0.8c-6.8,0-13.8-0.4-20.5,0.4c-3.6,0.4-6.8,1.4-9.9,3.2
					c-4,2.2-8.9,7-13.7,4.4C251,494.9,249.5,497.5,251.2,498.4L251.2,498.4z"/>
			</g>
		</g>
		<g>
			<g>
				<path class="st3" d="M305.1,370.1c-3.5,17.7-8.1,35.6-13.6,52.9c-0.6,1.8,2.3,2.6,2.9,0.8c5.5-17.2,10.1-35.1,13.6-52.9
					C308.3,369,305.4,368.2,305.1,370.1L305.1,370.1z"/>
			</g>
		</g>
		<g>
			<g>
				<path class="st3" d="M302.2,408.2c-2.2,7.4-4.7,14.6-7.7,21.8c-0.7,1.8,2.2,2.6,2.9,0.8c3-7.1,5.5-14.4,7.7-21.8
					C305.6,407.1,302.7,406.3,302.2,408.2L302.2,408.2z"/>
			</g>
		</g>
		<g>
			<g>
				<path class="st3" d="M249.6,533.6c1.9,11.5,3.3,23,4,34.6c0.1,1.9,3.1,1.9,3,0c-0.7-11.9-2.1-23.7-4.1-35.4
					C252.2,530.9,249.3,531.7,249.6,533.6L249.6,533.6z"/>
			</g>
		</g>
		<g>
			<g>
				<path class="st3" d="M255.1,524.9c1.6,12.2,2.8,24.4,3.6,36.7c0.1,1.9,3.1,1.9,3,0c-0.8-12.3-2-24.5-3.6-36.7
					C257.9,523,254.9,523,255.1,524.9L255.1,524.9z"/>
			</g>
		</g>
	</g>
</g>
</svg>
