<?xml version="1.0" encoding="utf-8"?>
<!-- Generator: Adobe Illustrator 19.2.0, SVG Export Plug-In . SVG Version: 6.00 Build 0)  -->
<svg version="1.1" id="Layer_1" xmlns="http://www.w3.org/2000/svg" xmlns:xlink="http://www.w3.org/1999/xlink" x="0px" y="0px"
	 viewBox="0 0 739.6 909.9" style="enable-background:new 0 0 739.6 909.9;" xml:space="preserve">
<style type="text/css">
	.st0{fill-rule:evenodd;clip-rule:evenodd;fill:#FDDDC6;}
	.st1{fill-rule:evenodd;clip-rule:evenodd;fill:#D6AA89;}
	.st2{fill-rule:evenodd;clip-rule:evenodd;fill:#AA7C5B;}
	.st3{fill:#3A291D;}
	.st4{fill-rule:evenodd;clip-rule:evenodd;fill:#FFFFFF;}
	.st5{fill-rule:evenodd;clip-rule:evenodd;fill:#509CC7;}
	.st6{fill:#814927;}
</style>
<g>
	<g>
		<path class="st0" d="M598.5,633.6c-60.8-50.9-140.8-63.7-142.7-85c0-0.5-0.1-1-0.2-1.4l0.7-0.7l-1.3-91.7
			c9.5-10.9,17-19.8,18.1-21.5c1.6-2.4,4.5-15.8,7.3-31.3c4.4,2.5,11.7,3.9,15,2.4c4.4-1.9,31.5-35,26.7-61.5
			c-2.3-12.5-21.4-26.7-33-10.2c2.1-38,3.7-97.2,0.6-106.4c-3.8-11.3-69.6-63-114.8-61.7c-45.4,1.3-107.1,41.4-115,68.4
			c-2.1,7.3-6.2,63.8-5.8,99.5c-11.6-16.1-30.6-2.1-32.9,10.4c-4.8,26.5,22.3,59.6,26.7,61.5c3.3,1.4,9.4,0.1,13.7-2.4
			c3.1,19.6,6.6,37.4,9.3,40.9c1,1.3,9.1,9.3,19.6,19.1l-0.4,0l-0.2,85.7c-6.5,24-73.3,35.2-135.6,80.7
			c-24.8,18.1,73.1,101.2,215.6,96.5C525.4,719.7,613.3,646,598.5,633.6z"/>
	</g>
	<g>
		<path class="st1" d="M494.9,392.1c10,6.5,26.3-31,22.4-40.1c-1.1-2.4-3.5-3.5-3.5-3.5h-8.3l-5.9,5.9l-3.5,8.3l-3.5,16.5
			C492.5,379.1,492.1,390.3,494.9,392.1z M409.8,503.2c1.5-3,1.2-8-1.3-10c-5.8-4.8-60.6-2.4-68.8,0c-3,0.9-6.9-4.3-7.7-5.6
			c-11.4-19-23.1-49-25-54.9c-5.7-17.2-13.3-44.6-29-65.3c-4.9-6.4-4.9-55.6,8-78.7c5.5-9.8-17-71-26-54.1
			c-7.4,13.7-3.2,85.7-5.6,99.8c-0.1,0.4,0.1,2.9,0.4,6.4l-4-11.1c0,0-5.3-1.5-8.3-1.2c-2.9,0.3-8.8,1.5-11.8,2.4s-7.4,6.5-9.4,10.6
			s-0.9,17.1,1.2,24.8s23.9,40.1,27.1,40.1c2,0,8-2.5,12.4-4.5c0.4,3.4,0.6,5.7,0.6,5.7s7.9,35.3,8.5,37.1s15.6,15.3,15.6,15.3
			l8.8,7.6l-3.1-2.5l-2.4,65.8c0,0,16.6,18,38.4,31.7c3.4,10,9,22.6,9.9,23.9c2.5,3.3,5.9,1.7,8,0.6c2.1-1.1-1-9.4-4.3-17
			c10.2,4.8,20.9,8.1,31.2,7.8c11.4-0.2,25.7-7.1,39.2-15.6c-3.8,8-10.7,23.6-8.5,25.5c3,2.6,5.5,2.4,6.3,0.8
			c0.6-1.2,9-23.6,12.6-33.3c19.2-13.5,34.7-28.1,34.7-28.1l-1.6-68.4L409.8,503.2z M391,615.4c-2.2,2.7-6.8,19.5-18.6,19.6
			c-9,0.1-11.8-8.3-17.2-10.6c-1.7-0.7-3.5,0.2-4.3,1.7c-0.8,1.5-1.7,8.9,2,10.5c3.7,1.6,6.7,3,8.2,3.5s5.3,3.2,8.9,4.3
			s4.4,1.7,7.6,0c3.1-1.7,7-3,9.8-4.6c4.1-2.3,10.8-21.9,9.2-24.1C394.8,613.6,391.8,614.4,391,615.4z M510.2,645.7
			c-13.5,3.2-29-0.2-42.7,1.7c-4.1,0.6-3.4,5.8-0.5,6.6c13,3.7,34.5,4.5,42.8-1C513.1,650.9,513.9,644.8,510.2,645.7z M279,652.9
			c-12.2,1.7-24.6,1.3-35.5,0c-7.3-0.9-7.3,6.3-2.1,8.7c5.2,2.3,26.5,4,32.9,0C280.7,657.6,283.3,652.3,279,652.9z M365.6,667.9
			c0,7.7,4.4,32,4.4,49c0,3.8,6,5.3,10.1,1.7c4.1-3.7-2.4-51.7-4.4-54.2C373.7,661.9,365.6,660,365.6,667.9z"/>
	</g>
	<g>
		<path class="st2" d="M252,374.4c-0.6-3.2-4.4-9.7-5.5-14.1s-2.4-6.2-5.1-9.4c-2.7-3.2-4.1-2.9-7.1-3.5s-5.6,2.4-5.9,5.9
			c-1.8,23.9,16.2,43,21.2,40.1c1.6-0.9,2.9-1.2,3.5-3.5C253.8,387.4,252.6,377.7,252,374.4z"/>
	</g>
	<g>
		<g>
			<path class="st1" d="M361.7,329.6c0,0-14.8,1.4-15.3,20c-0.1,4.2-1.5,27.8-2.1,37.3c-5.2,3.5-10.6,8.1-12,9.9
				c-11.7,14.7,19.4,0.3,19.4,0.3l6.5-2.7l-0.6-1.2c0.2,0,0.4,0,0.6,0C362.3,393.3,361.7,329.6,361.7,329.6z"/>
		</g>
		<g>
			<path class="st2" d="M386.4,398l-10.6,3.5l-5.9-1.2c0,0-19.1-8.3-18.9-7.1c2.7,13,23.9,45.4,44.8-1.2
				C396.5,390.8,386.4,398,386.4,398z"/>
		</g>
		<g>
			<path class="st3" d="M351.3,384.5c-1,2.4-2.8,6.1-0.9,8.4c1.4,1.8,4.7,2.7,6.6,3.5c4.7,2,11.1,5.5,16.4,5.3
				c5.6-0.2,12.2-3.6,17.3-5.8c1.8-0.8,4.8-1.7,5.9-3.6c1.7-2.8-0.6-6.3-2.3-8.4c-1.6-2-4.5,0.9-2.8,2.8c2.7,3.2,1.7,3.6-1.1,5
				c-2.2,1.1-4.6,2-6.9,2.8c-3,1.1-7.3,3.3-10.6,3.1c-3.8-0.2-8.3-2.5-11.8-3.9c-1.9-0.8-4.5-1.5-6.1-2.8c-0.3-0.3-1.4-0.5-1.6-0.9
				c-0.1-0.2,1.7-3.9,1.9-4.5C356.2,383.2,352.3,382.1,351.3,384.5L351.3,384.5z"/>
		</g>
	</g>
	<g>
		<g>
			<path class="st1" d="M386.5,444.8l-9.4,1.2h-8.3c0,0-6.8-2.7-8.3-1.2s-3.9,5.7-3.5,9.4c0.3,3.2,32.3,5.9,33-2.4
				C390.3,448.3,386.5,444.8,386.5,444.8z M428,420.6c-2.7-4.4-4.7-2.1-5.9-1.2c-1.2,0.9-1.4,2.6-1.2,3.5c1.2,4.9,2.2,7,1.2,14.1
				c-0.4,2.7,6.7,2.8,8.8-1.2C432.9,432.2,430.7,425,428,420.6z"/>
		</g>
		<g>
			<g>
				<path class="st3" d="M331.3,429c5.3-0.2,10.7-0.1,16,0.2c4.8,0.2,9.6,0.3,14.4,0.9c3.6,0.5,6.9,2.6,10.5,2.7
					c4.8,0.1,9.5-2.4,14.3-2.8c4.7-0.4,9.4-0.7,14.1-0.9c5.6-0.3,11.1-0.3,16.7-0.5c2.6-0.1,2.6-4.1,0-4c-5.4,0.2-10.7,0.2-16.1,0.5
					c-4.6,0.2-9.2,0.5-13.8,0.9c-5,0.4-10.3,3.2-15.3,2.9c-3.4-0.2-6.4-2.2-9.8-2.7c-4.8-0.7-9.7-0.7-14.5-0.9
					c-5.5-0.3-11.1-0.4-16.6-0.2C328.8,425.1,328.8,429.1,331.3,429L331.3,429z"/>
			</g>
			<g>
				<path class="st3" d="M415.5,423c3.7,2.2,3.9,6.8,2.3,10.4c-1,2.3,2.5,4.4,3.5,2c2.4-5.7,2-12.5-3.8-15.9
					C415.3,418.2,413.3,421.7,415.5,423L415.5,423z"/>
			</g>
			<g>
				<path class="st3" d="M328.4,419.7c-2.1,2-2.6,5.4-2.9,8.2c-0.3,2.5-0.8,5.5,0.3,7.9s4.5,0.3,3.5-2c-0.4-0.9,0-4,0.2-5.3
					c0.2-1.8,0.4-4.6,1.9-5.9C333.1,420.8,330.3,417.9,328.4,419.7L328.4,419.7z"/>
			</g>
			<g>
				<path class="st3" d="M353.5,445.6c5.2,2.9,12.7,2.6,18.5,2.5c7-0.1,14.5-0.6,21-3.4c2.4-1,0.3-4.5-2-3.5
					c-5.8,2.5-12.8,2.7-19,2.8c-5,0.1-11.9,0.6-16.4-1.9C353.3,440.9,351.3,444.4,353.5,445.6L353.5,445.6z"/>
			</g>
		</g>
	</g>
	<g>
		<g>
			<path class="st1" d="M453.6,321.4c-1.2-7.2-5.9-9.4-5.9-9.4l-7.1-2.4l-8.3-1.2l-9.4-1.2l-7.1,1.2l-10.6,2.4
				c0,0-5.8,2.9-10.6,10.6c-4.6,7.5-7.5,8.5-4.9,11.8c2.7,3.2,6.2-0.2,9.5-0.8c3.3-0.6,16.6-6.3,16.6-6.3h10.7l11.9,3.5l5.9,5.9
				c0,0,5,3.7,7.1,0C456.4,327.3,454,323.4,453.6,321.4z"/>
		</g>
		<g>
			<g>
				<polygon class="st4" points="439.5,328.4 431.2,327.3 413.5,327.3 412.4,337.9 414.7,340.2 423,341.4 432.4,340.2 438.3,337.9 
					441.8,332 				"/>
			</g>
			<g>
				<polygon class="st5" points="432.4,326.1 421.8,327.3 415.9,327.3 417.1,334.3 423,337.9 428.9,336.7 433.6,330.8 				"/>
			</g>
			<g>
				<g>
					<path class="st3" d="M401.4,332.9c6.9-3.5,14.5-5,22.1-4.7c5.6,0.2,12.6,1.1,16.6,5.5c1.7,1.9,4.6-0.9,2.8-2.8
						c-4.5-4.9-11.8-6.2-18.1-6.6c-8.8-0.5-17.7,1.2-25.5,5.2C397,330.6,399.1,334.1,401.4,332.9L401.4,332.9z"/>
				</g>
				<g>
					<path class="st3" d="M412.8,339.3c-0.9-3.4-0.5-7,1.8-9.8c1.7-2-1.2-4.8-2.8-2.8c-3.3,3.9-4.2,8.8-2.9,13.6
						C409.6,342.9,413.4,341.8,412.8,339.3L412.8,339.3z"/>
				</g>
				<g>
					<path class="st3" d="M411.2,342.5c9.9,1.1,26.5,1,32.1-9.2c1.2-2.3-2.2-4.3-3.5-2c-4.8,8.7-20.3,8.1-28.6,7.2
						C408.6,338.2,408.7,342.2,411.2,342.5L411.2,342.5z"/>
				</g>
				<g>
					<path class="st3" d="M409.8,340.9c2.9,8,8.7,13.9,16.5,17.3c1.8,0.8,3.3-1.8,1.5-2.6c-7-3.1-12.5-8.3-15.1-15.5
						C412,338.3,409.1,339.1,409.8,340.9L409.8,340.9z"/>
				</g>
				<g>
					<path class="st3" d="M414.3,328.7c0.2,5.8,3.7,10.4,9.8,10.3c5.1-0.1,10.2-3.3,11.4-8.4c0.6-2.5-3.3-3.6-3.9-1.1
						c-0.7,3.2-3.8,5.2-7,5.5c-4.1,0.4-6.2-2.5-6.3-6.3C418.3,326.2,414.3,326.2,414.3,328.7L414.3,328.7z"/>
				</g>
			</g>
			<g>
				<path class="st3" d="M401.7,322.6c12.1-2.7,29.1-3.1,40.2,3c1.7,0.9,3.2-1.6,1.5-2.6c-11.9-6.6-29.5-6.2-42.5-3.4
					C399,320.1,399.8,323,401.7,322.6L401.7,322.6z"/>
			</g>
		</g>
		<g>
			<path class="st1" d="M361.5,329.1c-0.4-2.5-2.3-5.2-4.5-8.2c-5.5-7.2-17.9-10.2-17.9-10.2l-10.6-2.4l-7.1-1.2l-9.4,1.2l-8.3,1.2
				l-7.1,2.4c0,0-10.4,10.9-3.9,23.6c1.9,3.8,7.1,0,7.1,0l5.9-5.9l11.9-3.5h10.7c0,0,1.4,0.8,3.4,1.9h0c0,0,2.7,9.2,1.2,13.7
				c-4.4,12.7-19.9,15.4-16.5,16.5c12.5,3.9,26.5-10.6,29.5-9.4C348.8,349.8,363.4,334.3,361.5,329.1z"/>
		</g>
		<g>
			<g>
				<polygon class="st4" points="330.8,327.3 313.1,327.3 304.9,328.4 302.5,332 306.1,337.9 312,340.2 321.4,341.4 329.6,340.2 
					332,337.9 				"/>
			</g>
			<g>
				<polygon class="st5" points="322.6,327.3 312,326.1 310.8,330.8 315.5,336.7 321.4,337.9 327.3,334.3 328.5,327.3 				"/>
			</g>
			<g>
				<g>
					<path class="st3" d="M345,329.5c-7.9-4-16.7-5.7-25.5-5.2c-6.3,0.4-13.6,1.7-18.1,6.6c-1.7,1.9,1.1,4.7,2.8,2.8
						c4-4.4,11-5.3,16.6-5.5c7.7-0.2,15.3,1.3,22.1,4.7C345.3,334.1,347.3,330.6,345,329.5L345,329.5z"/>
				</g>
				<g>
					<path class="st3" d="M335.5,340.4c1.3-4.9,0.4-9.8-2.9-13.6c-1.7-2-4.5,0.9-2.8,2.8c2.3,2.8,2.8,6.3,1.8,9.8
						C330.9,341.8,334.8,342.9,335.5,340.4L335.5,340.4z"/>
				</g>
				<g>
					<path class="st3" d="M333.2,338.5c-8.3,0.9-23.8,1.5-28.6-7.2c-1.2-2.3-4.7-0.2-3.5,2c5.6,10.2,22.2,10.3,32.1,9.2
						C335.7,342.2,335.7,338.2,333.2,338.5L333.2,338.5z"/>
				</g>
				<g>
					<path class="st3" d="M331.7,340.1c-2.6,7.3-8.1,12.5-15.1,15.5c-1.8,0.8-0.2,3.4,1.5,2.6c7.7-3.4,13.6-9.3,16.5-17.3
						C335.3,339.1,332.4,338.3,331.7,340.1L331.7,340.1z"/>
				</g>
				<g>
					<path class="st3" d="M327.1,328.2c-0.8,3.7-3.1,7.1-7.3,6.8c-3.2-0.3-5.8-2.6-6-5.9c-0.2-2.6-4.2-2.6-4,0
						c0.3,5.2,4.3,9.3,9.5,9.8c6.2,0.7,10.4-4,11.7-9.6C331.5,326.8,327.7,325.7,327.1,328.2L327.1,328.2z"/>
				</g>
			</g>
			<g>
				<path class="st3" d="M343.5,319.7c-13-2.9-30.6-3.3-42.5,3.4c-1.7,0.9-0.2,3.5,1.5,2.6c11.1-6.2,28.1-5.7,40.2-3
					C344.5,323,345.3,320.1,343.5,319.7L343.5,319.7z"/>
			</g>
		</g>
		<g>
			<path class="st6" d="M456.3,316.3c-8.1-5-18.4-7.5-30.8-7.5c-8.7,0-18.5,1.3-28.2,3.8c-2.5-2.2-5-8-4.2-11
				c0.7-2.8,5.2-4.3,8.2-5.3c4.8-1.6,10-2.6,15.4-3l0.2,0c1.2-0.1,2.3-0.2,3.2-0.2c0.6,0,1.1,0,1.6,0c3.6,0,4.3,0.4,4.9,3.2l0.4,1.7
				l1.8-0.1c0.8-0.1,1.7-0.1,2.5-0.1c5.7,0,12.4,1.5,17.8,4c-0.1,0.1-0.1,0.1-0.2,0.2l-0.6,0.5l-0.1,0.8c0,0-0.3,1.3-0.3,1.3
				l0.9,0.8C452.3,307.9,455.8,311.4,456.3,316.3z"/>
			<g>
				<g>
					<path class="st3" d="M398.3,312c-2.2-1.9-5.4-8.1-4-10.9c1.4-2.7,6.8-3.9,9.5-4.6c4-1.1,8.2-1.9,12.3-2.3
						c1.9-0.2,3.7-0.3,5.6-0.3c3,0,3.7-0.1,4.1,3.4c0.1,0.7,0.6,1.6,1.5,1.5c7-0.8,15.4,0.8,21.8,3.8c-0.2-0.6-0.5-1.1-0.7-1.7
						c0.3-1.2-1.4,1.1-1.8,1.5c-0.7,0.8-0.5,1.8,0.3,2.4c4.1,3.1,8.4,6.9,8.5,12.4c0.8-0.4,1.5-0.9,2.3-1.3
						c-17.1-11.1-42-9.1-60.8-4.2c-1.9,0.5-1.1,3.4,0.8,2.9c18.1-4.6,42.1-6.7,58.5,3.9c1,0.6,2.3-0.2,2.3-1.3
						c-0.1-6.7-5-11.2-10-15c0.1,0.8,0.2,1.6,0.3,2.4c0.7-0.7,2.3-1.7,2.5-2.8c0.1-0.6-0.1-1.4-0.7-1.7c-6.8-3.2-15.7-5.1-23.3-4.2
						c0.5,0.5,1,1,1.5,1.5c-0.8-6.1-2.9-6.5-8.7-6.4c-6.5,0.2-13.2,1.3-19.3,3.3c-3.4,1.1-8.6,2.8-9.6,6.7c-1,4,2,10.5,5,13.1
						C397.6,315.4,399.7,313.3,398.3,312z"/>
				</g>
				<g>
					<path class="st3" d="M403,311.1c-1-4.5-1.5-12,2.7-15.3c1.5-1.2-0.6-3.3-2.1-2.1c-5,3.9-4.7,12.7-3.4,18.2
						C400.5,313.7,403.4,312.9,403,311.1L403,311.1z"/>
				</g>
				<g>
					<path class="st3" d="M409.2,310.2c-0.3-6,3.2-13.1,8.3-16.3c1.6-1,0.1-3.6-1.5-2.6c-6,3.7-10.2,11.8-9.8,18.8
						C406.3,312.1,409.3,312.2,409.2,310.2L409.2,310.2z"/>
				</g>
				<g>
					<path class="st3" d="M417.6,309.2c1.5-4.5,5.8-9.4,10.5-10.5c1.9-0.4,1.1-3.3-0.8-2.9c-5.7,1.3-10.8,7.2-12.6,12.6
						C414.1,310.3,417,311.1,417.6,309.2L417.6,309.2z"/>
				</g>
				<g>
					<path class="st3" d="M430.9,310.3c5.9-3.3,10.9-5.7,17.9-5.6c-0.5-0.5-1-1-1.5-1.5c0.2-0.3,0.3-0.6,0.5-0.9
						c-1.6,1-0.1,3.6,1.5,2.6c0.7-0.4,0.9-0.9,1-1.7c0.1-0.8-0.7-1.5-1.5-1.5c-7.4-0.1-13.1,2.5-19.4,6
						C427.7,308.6,429.2,311.2,430.9,310.3L430.9,310.3z"/>
				</g>
			</g>
		</g>
		<g>
			<path class="st6" d="M289.1,316.3c8.1-5,18.4-7.5,30.8-7.5c8.7,0,18.5,1.3,28.2,3.8c2.5-2.2,5-8,4.2-11c-0.7-2.8-5.2-4.3-8.2-5.3
				c-4.8-1.6-10-2.6-15.4-3l-0.2,0c-1.2-0.1-2.3-0.2-3.2-0.2c-0.6,0-1.1,0-1.6,0c-3.6,0-4.3,0.4-4.9,3.2l-0.4,1.7l-1.8-0.1
				c-0.8-0.1-1.7-0.1-2.5-0.1c-5.7,0-12.4,1.5-17.8,4c0.1,0.1,0.1,0.1,0.2,0.2l0.6,0.5l0.1,0.8c0,0,0.3,1.3,0.3,1.3l-0.9,0.8
				C293.1,307.9,289.6,311.4,289.1,316.3z"/>
			<g>
				<g>
					<path class="st3" d="M349.3,314.2c2.9-2.5,5.7-8.8,5-12.7c-0.7-4.2-6.1-6-9.6-7.1c-6-2-12.5-3-18.8-3.3c-6-0.2-8.5,0-9.3,6.4
						c0.5-0.5,1-1,1.5-1.5c-7.6-0.9-16.5,1-23.3,4.2c-0.6,0.3-0.8,1.1-0.7,1.7c0.3,1.1,1.8,2,2.5,2.8c0.1-0.8,0.2-1.6,0.3-2.4
						c-5,3.8-9.9,8.3-10,15c0,1.1,1.3,1.9,2.3,1.3c16.4-10.7,40.4-8.6,58.5-3.9c1.9,0.5,2.7-2.4,0.8-2.9
						c-18.9-4.8-43.7-6.9-60.8,4.2c0.8,0.4,1.5,0.9,2.3,1.3c0.1-5.5,4.4-9.3,8.5-12.4c0.8-0.6,1-1.6,0.3-2.4c-0.4-0.4-2-2.6-1.8-1.5
						c-0.2,0.6-0.5,1.1-0.7,1.7c6.4-3,14.7-4.7,21.8-3.8c0.9,0.1,1.4-0.8,1.5-1.5c0.4-3.2,0.8-3.3,3.6-3.4c1.8,0,3.7,0.1,5.5,0.2
						c4.3,0.4,8.7,1.2,12.9,2.3c2.7,0.8,7.5,1.8,9.2,4.3c1.8,2.8-1.4,9.2-3.7,11.2C345.7,313.3,347.8,315.4,349.3,314.2z"/>
				</g>
				<g>
					<path class="st3" d="M345.3,311.9c1.3-5.5,1.6-14.3-3.4-18.2c-1.5-1.2-3.6,0.9-2.1,2.1c4.1,3.2,3.7,10.7,2.7,15.3
						C342,312.9,344.9,313.7,345.3,311.9L345.3,311.9z"/>
				</g>
				<g>
					<path class="st3" d="M339.3,310.2c0.3-7-3.8-15.2-9.8-18.8c-1.7-1-3.2,1.6-1.5,2.6c5.1,3.1,8.6,10.3,8.3,16.3
						C336.2,312.2,339.2,312.2,339.3,310.2L339.3,310.2z"/>
				</g>
				<g>
					<path class="st3" d="M330.8,308.4c-1.8-5.4-6.9-11.2-12.6-12.6c-1.9-0.4-2.7,2.5-0.8,2.9c4.7,1.1,9,6,10.5,10.5
						C328.5,311.1,331.4,310.3,330.8,308.4L330.8,308.4z"/>
				</g>
				<g>
					<path class="st3" d="M316.1,307.7c-6.3-3.5-12-6.2-19.4-6c-0.8,0-1.6,0.7-1.5,1.5c0.1,0.8,0.3,1.2,1,1.7c1.6,1,3.1-1.6,1.5-2.6
						c0.2,0.3,0.3,0.6,0.5,0.9c-0.5,0.5-1,1-1.5,1.5c6.9-0.1,12,2.3,17.9,5.6C316.3,311.2,317.8,308.7,316.1,307.7L316.1,307.7z"/>
				</g>
			</g>
		</g>
	</g>
	<g>
		<g>
			<g>
				<path class="st3" d="M256.1,333.3c-5.8-7.7-14.3-10.8-23.3-6.3c-7.9,4-13.1,11.8-13.9,20.6c-1.7,19.4,9.6,39.6,21.7,54
					c1.7,2.1,3.7,4.6,6.1,6c4.8,2.7,11.1-0.1,15.3-2.4c2.2-1.3,0.2-4.7-2-3.5c-4.1,2.3-9.3,4.6-13.1,0.9c-2.3-2.3-4.4-4.9-6.4-7.5
					c-5.9-7.9-10.9-16.6-14.2-25.9c-3.2-8.9-6-20.9-1-29.6c5.9-10.5,19.3-15,27.3-4.2C254.2,337.4,257.7,335.4,256.1,333.3
					L256.1,333.3z"/>
			</g>
			<g>
				<path class="st3" d="M253.3,389.4c0.5-12.7-2.5-26-9.6-36.7c-2.4-3.6-5.8-7.1-10.4-7c-3.7,0-6.7,2.2-7.7,5.8
					c-0.7,2.5,3.2,3.5,3.9,1.1c2-7.2,9.4,0.1,11.2,2.9c2.2,3.4,3.9,7.2,5.3,11c2.6,7.4,3.7,15.2,3.4,23.1
					C249.2,391.9,253.2,391.9,253.3,389.4L253.3,389.4z"/>
			</g>
			<g>
				<path class="st3" d="M234.1,350.4c-5.1,12.4,0.6,31.9,14.2,36.4c2.4,0.8,3.5-3,1.1-3.9c-11.7-3.9-15.6-21.3-11.4-31.5
					C239,349.1,235.1,348,234.1,350.4L234.1,350.4z"/>
			</g>
			<g>
				<path class="st3" d="M490.8,335.3c7.9-10.5,20.9-6.4,27.1,3.7c5.3,8.9,2.6,21-0.7,30.1c-3.3,9.1-8.2,17.7-13.9,25.5
					c-2,2.7-4.2,5.5-6.7,7.9c-3.8,3.6-8.9,1.4-13.1-0.9c-2.2-1.3-4.3,2.2-2,3.5c4.2,2.3,10,4.9,14.7,2.7c1.9-0.9,3.4-2.6,4.8-4.1
					c5.9-6.4,10.8-13.9,14.8-21.6c8.4-16,15.7-40.2-1.8-53c-9.3-6.8-19.9-4.9-26.7,4.2C485.8,335.4,489.3,337.4,490.8,335.3
					L490.8,335.3z"/>
			</g>
			<g>
				<path class="st3" d="M494.2,389.4c-0.3-7.9,0.7-15.6,3.4-23.1c1.3-3.6,2.9-7.1,4.9-10.4c1.8-2.9,9.5-11,11.6-3.5
					c0.7,2.5,4.6,1.4,3.9-1.1c-1-3.5-4-5.7-7.7-5.8c-4.6-0.1-8,3.5-10.4,7c-7.1,10.6-10.1,24-9.6,36.7
					C490.3,391.9,494.3,391.9,494.2,389.4L494.2,389.4z"/>
			</g>
			<g>
				<path class="st3" d="M505.5,351.5c4.2,10.2,0.3,27.6-11.4,31.5c-2.4,0.8-1.4,4.7,1.1,3.9c13.6-4.5,19.3-24.1,14.2-36.4
					C508.4,348,504.5,349.1,505.5,351.5L505.5,351.5z"/>
			</g>
		</g>
		<g>
			<path class="st3" d="M252.6,347.2c1,15,3.2,29.9,5.3,44.7c2.3,15.9,4.2,32.6,9,48c2.6,8.3,10.1,13.7,16.2,19.5
				c12.3,11.7,24.8,23.3,37.8,34.2c4.9,4.1,9.8,8.3,15.2,11.7c4.7,3,10.1,3.8,15.6,4.4c16.9,1.8,35,1,51.8-1.7
				c9.7-1.6,17.2-11.5,23.6-18.1c11.8-12.1,23-24.7,34-37.5c5.4-6.3,13-12.9,15.4-21.1c4.7-16.3,7.1-33.5,9.7-50.2
				c5.4-34.4,6.3-69.3,6.9-104.1c0.3-15,1.1-30.6-0.9-45.5c-1.3-9.7-10.8-16.5-17.8-22.2c-15.1-12.5-31.9-23.3-49.7-31.7
				c-17.5-8.3-36.6-14.7-56.2-12.8c-21.9,2.2-43.2,10.9-62.1,21.9c-16.4,9.5-33.6,21.7-44,37.9c-6.6,10.3-6.5,22.8-7.5,34.6
				c-1.6,20.5-2.7,41.1-2.9,61.6C252.1,329.5,252.1,338.3,252.6,347.2c0.2,2.6,4.2,2.6,4,0c-1.1-18.8-0.4-37.7,0.5-56.4
				c0.8-16.7,1.6-33.4,3.8-50c1.8-13.6,11.8-23.9,21.8-32.5c16.7-14.5,36.9-25.7,57.8-33c19.1-6.6,38.2-9.2,57.9-3.7
				c19.6,5.4,37.9,15.4,54.8,26.7c7.2,4.8,14.3,10,20.9,15.7c4.3,3.7,9,7.6,12.4,12.3c2.1,3,2.2,6.3,2.5,9.9
				c0.5,6.7,0.6,13.5,0.6,20.2c0.1,19-0.5,38-1.3,56.9c-0.6,15.2-1.1,30.5-2.7,45.6c-1.9,17.2-4.9,34.4-8.2,51.4
				c-1.7,9-2.4,19.7-8.4,27.1c-8.8,10.7-18,21.1-27.3,31.3c-9.7,10.8-19.5,22-30.6,31.4c-3,2.5-5.2,3.7-9,4.2
				c-7.7,1.2-15.5,1.6-23.2,1.9c-9.1,0.4-18.4,0.5-27.5-0.5c-5.7-0.6-10.3-1.8-15-5.1c-12.1-8.4-23-18.8-33.9-28.7
				c-9.6-8.8-19.4-17.6-28.4-27c-2.1-2.2-2.9-4.7-3.7-7.8c-1.9-7-3.2-14.1-4.5-21.2c-3-17.1-5.5-34.4-7.5-51.6
				c-0.7-5.6-1.3-11.3-1.7-17C256.5,344.6,252.5,344.6,252.6,347.2z"/>
		</g>
		<g>
			<path class="st3" d="M320.9,511.7c6.2,24.2,13.5,49.1,23.9,71.9c0.8,1.8,3.4,0.2,2.6-1.5c-10.3-22.6-17.5-47.2-23.6-71.2
				C323.3,509.1,320.4,509.8,320.9,511.7L320.9,511.7z"/>
		</g>
		<g>
			<path class="st3" d="M324.7,553.8c3.5,9,7.4,17.8,11.9,26.3c0.9,1.7,3.5,0.2,2.6-1.5c-4.3-8.3-8.2-16.9-11.6-25.6
				C326.9,551.2,324,552,324.7,553.8L324.7,553.8z"/>
		</g>
		<g>
			<path class="st3" d="M604.2,635.5c-33.8-28.8-75.3-46.7-115.1-65.4c-6.9-3.2-13.8-6.4-20.4-10.1c-2.9-1.6-8.1-3.7-9.7-6.9
				c-1.5-2.9-0.7-9.2-0.8-12.7c-0.3-8.6-0.5-17.3-0.6-26c-0.3-18.9-0.6-37.7-0.6-56.6c0-2.6-4-2.6-4,0c0,16.9,0.3,33.8,0.5,50.7
				c0.2,9.3,0.3,18.6,0.6,27.9c0.2,5.3-0.1,11,0.8,16.3c0.6,3.4,3.2,5.3,5.9,7.1c5.2,3.6,11.1,6.3,16.8,9.1
				c18.4,9,37.2,17.2,55.5,26.4c24,12.1,47.9,25.4,68.4,42.9C603.3,640,606.2,637.2,604.2,635.5L604.2,635.5z"/>
		</g>
		<g>
			<path class="st3" d="M152.6,631.6c34.4-26.1,74.4-42.8,113-61.4c5.9-2.8,11.8-5.6,17.3-9c2.7-1.7,6.4-3.8,7.6-7
				c1.3-3.5,0.8-8.5,0.9-12.2c0.3-8,0.5-15.9,0.6-23.9c0.4-18.1,0.6-36.2,0.7-54.3c0-2.6-4-2.6-4,0c0,15.3-0.2,30.6-0.5,45.9
				c-0.1,8.3-0.3,16.6-0.5,24.9c-0.2,5.5,0.1,11.3-0.7,16.7c-0.5,3-3,4.4-5.6,6c-5.1,3.2-10.6,5.9-16,8.5
				c-17.1,8.3-34.5,16-51.5,24.4c-22,11-43.7,22.9-63.3,37.8C148.6,629.7,150.6,633.2,152.6,631.6L152.6,631.6z"/>
		</g>
		<g>
			<path class="st3" d="M197.8,641.9c27.9,2.4,55.9,3.4,83.8,1.9c13.8-0.7,27.5-2,41.2-3.6c11.9-1.4,28.8-6.3,38.7,2.9
				c1.4,1.3,3.6-0.8,2.1-2.1c-8.6-7.9-20.6-6.3-31.3-4.9c-15.1,1.9-30.3,3.5-45.6,4.4c-29.7,1.8-59.4,0.9-89-1.6
				C195.8,638.8,195.9,641.8,197.8,641.9L197.8,641.9z"/>
		</g>
		<g>
			<path class="st3" d="M369.2,645.7c6.2,3.3,11.4-1.6,16.7-4.4c7.5-4.1,16.6-3.1,24.9-3.2c14.9,0,29.8-0.1,44.6,0.7
				c15.3,0.8,30.4,2.4,45.7,2.2c12.2-0.1,24.4-0.3,36.6-1c1.9-0.1,1.9-3.1,0-3c-11.8,0.7-23.6,0.8-35.4,1c-15,0.2-29.8-1.1-44.8-2.1
				c-14.2-0.9-28.5-0.8-42.7-0.8c-6.8,0-13.8-0.4-20.5,0.4c-3.6,0.4-6.8,1.4-9.9,3.2c-4,2.2-8.9,7-13.7,4.4
				C369,642.2,367.5,644.8,369.2,645.7L369.2,645.7z"/>
		</g>
		<g>
			<path class="st3" d="M423.1,517.4c-3.5,17.7-8.1,35.6-13.6,52.9c-0.6,1.8,2.3,2.6,2.9,0.8c5.5-17.2,10.1-35.1,13.6-52.9
				C426.3,516.3,423.4,515.5,423.1,517.4L423.1,517.4z"/>
		</g>
		<g>
			<path class="st3" d="M420.2,555.5c-2.2,7.4-4.7,14.6-7.7,21.8c-0.7,1.8,2.2,2.6,2.9,0.8c3-7.1,5.5-14.4,7.7-21.8
				C423.6,554.5,420.7,553.7,420.2,555.5L420.2,555.5z"/>
		</g>
		<g>
			<path class="st3" d="M367.6,680.9c1.9,11.5,3.3,23,4,34.6c0.1,1.9,3.1,1.9,3,0c-0.7-11.9-2.1-23.7-4.1-35.4
				C370.2,678.2,367.3,679.1,367.6,680.9L367.6,680.9z"/>
		</g>
		<g>
			<path class="st3" d="M373.1,672.2c1.6,12.2,2.8,24.4,3.6,36.7c0.1,1.9,3.1,1.9,3,0c-0.8-12.3-2-24.5-3.6-36.7
				C375.9,670.3,372.9,670.3,373.1,672.2L373.1,672.2z"/>
		</g>
	</g>
</g>
</svg>
