<?xml version="1.0" encoding="utf-8"?>
<!-- Generator: Adobe Illustrator 19.2.0, SVG Export Plug-In . SVG Version: 6.00 Build 0)  -->
<svg version="1.1" id="Layer_1" xmlns="http://www.w3.org/2000/svg" xmlns:xlink="http://www.w3.org/1999/xlink" x="0px" y="0px"
	 viewBox="0 0 290 100" style="enable-background:new 0 0 290 100;" xml:space="preserve">
<style type="text/css">
	.st0{fill:#814927;}
	.st1{fill:#3A291D;}
</style>
<g>
	<g>
		<path class="st0" d="M251,20c4.8,4.1,13,9.2,16.5,14.4c0,0,0,3.5-3.8,2.7c-1.2-0.2-11.3-2.6-14.1-3.8L251,20z"/>
		<g>
			<path class="st1" d="M251.3,20.7c2.3,1.9,16.8,12,14.9,14.9c-1.1,1.7-6.5-0.5-7.8-0.9c-2.5-0.7-5.1-1.4-7.6-2.4
				c-1.2-0.5-1.7,1.4-0.5,1.9c3.6,1.4,7.4,2.4,11.1,3.3c2.2,0.6,4.8,1.3,6.3-0.8c1.8-2.5-0.4-4.3-2-6.2c-3.9-4.2-8.6-7.6-13-11.3
				C251.7,18.4,250.3,19.8,251.3,20.7L251.3,20.7z"/>
		</g>
	</g>
	<g>
		<path class="st0" d="M35.1,21c-4.8,4.1-12,8.2-15.5,13.4c0,0,0,3.5,3.8,2.7c1.2-0.2,10.3-1.6,13.1-2.8L35.1,21z"/>
		<g>
			<path class="st1" d="M35.4,19.3C31,22.9,26.2,26,22.1,30c-1.9,1.8-4.7,4.1-2.7,6.8c1.7,2.3,4.7,1.2,6.9,0.7
				c3.8-0.9,7.8-1.7,11.5-3.2c1.2-0.5,0.7-2.4-0.5-1.9c-2.5,1-5.1,1.6-7.7,2.3c-2,0.5-6.2,2.3-8,1.1c-2-1.3,0-2.3,1.2-3.6
				c1.4-1.4,2.9-2.7,4.4-4c3.2-2.6,6.5-4.9,9.6-7.5C37.8,19.8,36.4,18.4,35.4,19.3L35.4,19.3z"/>
		</g>
	</g>
	<path class="st1" d="M201.7,83.7c-9.2-0.1-16.6-1.5-22.6-4.2c-10.3-4.7-16.4-13.7-19.7-20.5c-2.5-5.5-3.9-10.2-4.3-14.8
		c-0.2-2.4-0.2-4.5,0.1-6.4c0.1-0.4,0.4-1.3,0.7-2.1c0.9-2.7,1.9-5.5,0.7-7.4c0-0.1-0.1-0.2-0.2-0.3l-0.5-0.8l-0.9-0.2
		c-3.6-0.6-6.9-0.9-10.7-0.9h-1.1c-3.9,0-7.2,0.3-10.8,0.9l-0.9,0.2l-0.4,0.6c-0.1,0.1-0.1,0.1-0.2,0.2c-1.5,1.8-0.5,4.8,0.5,7.7
		c0.3,0.8,0.6,1.7,0.7,2.1c0.3,1.9,0.3,4,0.1,6.4c-0.5,4.6-1.8,9.3-4.4,14.9c-3.3,6.7-9.4,15.8-19.7,20.4c-6,2.7-13.4,4.1-22.6,4.2
		c-0.4,0-0.7,0-1.1,0c-9.5,0-17-1.5-22.8-4.6C55.2,75.7,50.2,69,46.4,58.7c-1.4-4-2.5-8.3-3.8-14c-1-4.2-1.9-7.5-5.5-10.7
		c-2.5-2.2-2.6-5.5-2.6-9.3c0.1-4.2,1.3-4.6,6-6l0.5-0.1c8-2.5,16.8-4.2,26.9-5.3c5.2-0.6,10.3-0.8,15.3-0.8
		c7.5,0,14.7,0.6,21.6,1.9c4.3,0.8,8.3,2.1,12.6,3.6c2.2,0.7,4.4,1.5,6.7,2.2c0.9,0.3,1.8,0.4,2.8,0.4c1.4,0,2.7-0.3,3.9-0.5
		c0.9-0.2,1.7-0.4,2.6-0.4c0.3,0,0.6,0,0.9,0c1.7,0,3.5,0.3,5.3,0.7c0.8,0.2,1.5,0.3,2.5,0.4v0l0.5,0.1c0.3,0,0.6,0.1,0.9,0.1l0.2,0
		l0.1,0l0.1,0l0.2,0c1.4-0.1,2.7-0.4,4-0.7c1.7-0.4,3.4-0.7,5-0.7c0.3,0,0.6,0,0.9,0c0.9,0.1,1.7,0.3,2.6,0.4
		c1.2,0.3,2.5,0.5,3.9,0.5c1,0,1.9-0.1,2.8-0.4c2.3-0.7,4.5-1.4,6.7-2.2c4.2-1.4,8.2-2.8,12.6-3.6c6.8-1.3,14.1-1.9,21.6-1.9
		c5,0,10.1,0.3,15.3,0.8c10.1,1.1,18.9,2.8,26.9,5.3l0.5,0.1c4.7,1.5,6,1.8,6,6c0.1,3.7-0.1,7-2.6,9.3c-3.6,3.3-4.6,6.5-5.5,10.7
		c-1.3,5.7-2.5,10.1-3.9,14.1c-3.8,10.3-8.8,17-15.2,20.4c-5.8,3.1-13.3,4.6-22.8,4.6C202.8,83.8,202,83.8,201.7,83.7z M201.3,18.6
		c-10.7,0-19.1,1.2-26.2,3.9c-6.8,2.5-10.6,6.3-12.3,12.3c-2.2,8-0.9,16.6,3.5,24.5c7.2,11.4,22.3,19.1,37.7,19.1
		c14.8,0,26.2-6.9,31.1-18.9c2.1-5.6,3-11.7,2.9-18.6c0-0.5,0-0.9,0-1.4c0-4,0-9.1-2.3-12.8c-4.2-6.8-14.5-7.3-21.4-7.5
		c-0.5,0-1.1,0-1.6-0.1C209.4,18.8,205.4,18.6,201.3,18.6z M85.9,18.6c-4.1,0-8.1,0.2-11.6,0.3c-0.5,0-1,0-1.6,0.1
		c-6.8,0.3-17.2,0.7-21.4,7.6c-2.3,3.8-2.3,8.8-2.3,12.8c0,0.5,0,1,0,1.4C49,47.7,50,53.7,52,59.3c5,12.1,16.3,19,31.2,19
		c15.4,0,30.5-7.6,37.7-19c4.5-7.9,5.8-16.6,3.6-24.5c-1.6-5.9-5.4-9.7-12.2-12.3C105,19.9,96.7,18.6,85.9,18.6z"/>
</g>
</svg>
