<?xml version="1.0" encoding="utf-8"?>
<!-- Generator: Adobe Illustrator 19.2.0, SVG Export Plug-In . SVG Version: 6.00 Build 0)  -->
<svg version="1.1" id="Layer_1" xmlns="http://www.w3.org/2000/svg" xmlns:xlink="http://www.w3.org/1999/xlink" x="0px" y="0px"
	 viewBox="0 0 440 470" style="enable-background:new 0 0 440 470;" xml:space="preserve">
<style type="text/css">
	.st0{fill:#433947;}
	.st1{opacity:0.55;}
	.st2{fill:#0F0814;}
	.st3{opacity:0.75;}
	.st4{fill:#231E26;}
</style>
<g>
	<g>
		<path class="st0" d="M266.6,274c-7.7,0-15.4-1.7-22.9-3.3c-1.3-0.3-2.5-0.5-3.8-0.8c-11-2.3-22.1-4.9-31.6-7.2
			c-1.6-0.4-3.2-0.8-4.8-1.3c-3.7-1-7.5-2.1-11.3-2.4c-0.8-0.1-1.6-0.1-2.5-0.1c-1.1,0-2.2,0.1-3.3,0.1c-1.1,0.1-2.3,0.1-3.4,0.1
			c-1.7,0-3.1-0.1-4.5-0.4c-4.3-0.8-8.8-2.5-13.4-5.1c-3.2-1.8-6.3-3.9-9.2-5.9c-3.5-2.4-7.1-4.9-10.9-6.8c-2.1-1.1-4.4-2-6.5-2.9
			c-5.4-2.2-11-4.6-15.2-9.2c-4.1-4.5-6.7-10.2-9.3-15.7c-0.9-1.9-1.8-3.8-2.7-5.6c-3.4-6.7-8.2-15.4-14.1-23.6
			c-4.2-5.8-8.9-10.7-13.9-16c-1.1-1.1-2.1-2.2-3.2-3.3c-7.3-7.8-11.7-15.1-9.3-25.2c0.4-1.8,0.9-3.5,1.4-5.3c1-3.4,1.9-6.6,2.2-9.9
			l0.3-2.6l1.5,2.1c9.1,12.5,21.4,23.8,36.5,33.5c7.6,4.9,15.6,9.4,23.4,13.7c10.8,6.1,22,12.3,32.3,19.7
			c15.8,11.3,28.9,24.7,43.7,41.3c5.8,6.5,21.1,21.7,38.5,21.7c3.7,0,7.4-0.7,10.9-2.1c0.5-0.2,0.7-0.5,0.8-0.9c0-0.4-0.1-0.7-0.5-1
			c-3.9-2.9-8.7-4.6-14.6-5h-0.1c-0.6,0-0.7,0.5-0.7,0.8c0,0.4,0.2,1.1,1,1.2c3.6,0.3,6.7,1.1,9.6,2.5l2.6,1.2l-2.8,0.6
			c-2,0.5-4.1,0.7-6.2,0.7c-6.9,0-20.9-2.8-37.5-21.6c-12.7-14.4-23.9-26.1-37.1-36.2c-11.5-8.8-24.4-16.2-36.9-23.4
			c-20.9-11.9-42.5-24.3-58.1-43.8c-2-2.5-3.9-5.2-5.8-8l1.3-1.4c15.3,8.3,32.1,14.3,48.4,20l0.3,0.1c24,8.5,49.5,16.3,78,23.9
			c20.8,5.6,45.5,11.8,71,15.9c7.5,1.2,15.4,2.5,23.3,2.7c0.7,0,1.3,0.2,2,0.2h0.5l0.3,0.2c0.2,0.2,0.4,0.3,0.7,0.3
			c3.9,0.1,7.9,0.3,11.9,0.4c10.6,0.5,21.6,0.9,32.3,0.9c6.3,0,12-0.2,17.4-0.5c9.2-0.6,14.6-3.1,15.9-7.5c0.5-1.7,0.3-3.2-0.7-4.5
			c-1.4-1.9-4.5-3.3-7.5-3.3c-0.2,0-0.4,0-0.7,0c-0.8,0.1-1,0.8-1,1.2c0,0.3,0.1,0.8,0.7,0.8c0.4,0,0.6,0,0.9,0
			c3.2,0,5.4,1.5,5.9,3.9c0.6,3.1-2,4.4-3.8,5.3c-3.7,1.9-8.2,2-11.5,2.1c-2.1,0.1-4.4,0.1-7,0.1c-2.9,0-5.9,0-8.8-0.1
			c-1.5,0-3,0-4.4-0.1c-9.9-0.1-20.2-0.3-30.6-0.6l-3.4-0.1l2.9-1.8c3.3-2,6.4-4.6,9.4-7.1l0.2-0.2c16.5-14,26.8-26.7,32.3-39.8
			c7.3-17.2,6.7-36.3-1.7-53.6c-0.2-0.4-0.5-0.5-0.6-0.5c-0.4,0-0.8,0.2-1,0.6c-0.2,0.3-0.2,0.7,0,1c8.2,17,8.5,36.5,0.7,53.5
			c-6.6,14.5-18.8,26.5-28.8,35.3l-0.9,0.8c-1.9,1.7-3.8,3.4-5.9,5.1l-1.3,1l-0.3-1.6c-3.9-20.2-8.8-41.5-15.5-66.9l-0.4-1.4
			c-0.4-1.6-0.8-3.2-1.3-4.8c-0.1-0.3-0.2-0.6-0.2-0.6c-0.3-0.4-0.2-0.8-0.2-1c0-0.1,0.1-0.3,0.1-0.7c0.4-3,1.3-6,2.1-9
			c0.4-1.5,0.9-3.1,1.2-4.6c0.5-2,1-4,1.5-6c2.9-11.7,5.9-23.7,5.7-35.5v-1.4l1.4,0.5c17.8,6.1,31.7,12,43.7,18.4
			c9.7,5.2,15.8,10.7,20.5,18.2c4.7,7.7,8.2,16.8,11.1,28.7c5.1,21,6.5,43,4.1,63.5v0.2c-0.8,6.5-1.7,14.7-5.7,20.4
			c-2.2,3.2-6.2,5.3-9.8,7.2c-1.1,0.6-2.2,1.2-3.2,1.8c-4.4,2.7-9,5.3-13.5,7.9c-14.2,8.2-28.9,16.8-41.9,26.8l-1.6,1.2v-2
			c0-0.5,0-1.1,0.1-1.6c0.4-2.5,1.5-5.1,3.1-7.8c4-6.5,10.5-10.7,18.3-11.9c0.3,0,0.6-0.2,0.6-0.7s-0.4-1.2-1.2-1.2
			c-0.1,0-0.1,0-0.2,0c-9.8,1.5-18.1,8.1-21.5,17.4c-1.4,3.6-1.7,6.5-1,8.7c0.1,0.2,0.2,0.4,0.3,0.6v0.1v0.1c0,0.1,0.1,0.2,0.2,0.3
			v0.1v0.1c0.2,0.4,0.4,0.7,0.5,1.2c0.5,1.7,0.2,2.5-0.3,3.7c-0.1,0.2-0.2,0.5-0.3,0.8l-0.1,0.4c-1.5,4.2-2.7,7.5-6.1,10.9
			c-3,2.9-6.4,5.5-9.7,7.9c-1.7,1.3-3.5,2.5-5.2,3.9c-5.9,4.8-12.5,9.1-20.1,9.1h-0.5V274z"/>
		<path class="st0" d="M168.4,149.5c-11.9-3.7-24.2-7.7-36.7-12l-1.5-0.5c-20.2-6.9-41-14.1-59.3-25.2l-0.2-0.1l-0.1-0.2
			c-2.2-4.1-3.9-8.7-1.9-14.3c2.8-7.8,6-15.7,9.1-23.3c1.3-3.2,2.6-6.4,3.9-9.6l0.4-1l1,0.5c19,10.2,37.4,24.3,56.3,43.3
			c8.8,8.9,15.4,16.5,20.9,24.1c4,5.6,7.7,11.1,9.3,17.2l0.5,1.7L168.4,149.5z"/>
		<g>
			<path class="st0" d="M299.4,177.7c-0.8,0-1.6,0-2.3-0.1h-0.8c-8.2-0.3-16.4-1.5-23.4-2.7c-15.7-2.6-32.2-6-49.1-10.1l-1.4-0.3
				l0.8-1.2c2.1-3.2,5-5.9,7.7-8.5c0.6-0.5,1.2-1.1,1.7-1.6c5.5-5.3,11.7-10.8,19.4-17.3c13.2-11.1,26.2-21.7,40.7-30.2l1.1-0.7
				l0.3,1.3c6.6,25.1,11.7,47,15.5,67.2l0.1,0.7l-0.6,0.4c-1.5,1-3,1.7-4.4,2.3C302.9,177.6,300.9,177.7,299.4,177.7z"/>
			<path class="st0" d="M128.3,93.6c-14.1-12.7-28.5-23.1-42.8-30.9l-1.6-0.9l1.6-0.9c5.7-3.1,12.2-5.1,18.5-6.9
				c1.9-0.6,3.7-1.1,5.5-1.7c1.9-0.6,3.7-1.2,5.6-1.9c4.6-1.6,9.5-3.2,14.2-4.2l1.2-0.2v4.6c0,13.9-0.1,28.2-0.6,42.3l-0.1,2.1
				L128.3,93.6z"/>
		</g>
	</g>
	<g class="st1">
		<path class="st2" d="M299.4,177.7c-0.8,0-1.6,0-2.3-0.1h-0.8c-8.2-0.3-16.4-1.5-23.4-2.7c-15.7-2.6-32.2-6-49.1-10.1l-1.4-0.3
			l0.8-1.2c2.1-3.2,5-5.9,7.7-8.5c0.6-0.5,1.2-1.1,1.7-1.6c5.5-5.3,11.7-10.8,19.4-17.3c13.2-11.1,26.2-21.7,40.7-30.2l1.1-0.7
			l0.3,1.3c6.6,25.1,11.7,47,15.5,67.2l0.1,0.7l-0.6,0.4c-1.5,1-3,1.7-4.4,2.3C302.9,177.6,300.9,177.7,299.4,177.7z"/>
		<path class="st2" d="M128.3,93.6c-14.1-12.7-28.5-23.1-42.8-30.9l-1.6-0.9l1.6-0.9c5.7-3.1,12.2-5.1,18.5-6.9
			c1.9-0.6,3.7-1.1,5.5-1.7c1.9-0.6,3.7-1.2,5.6-1.9c4.6-1.6,9.5-3.2,14.2-4.2l1.2-0.2v4.6c0,13.9-0.1,28.2-0.6,42.3l-0.1,2.1
			L128.3,93.6z"/>
	</g>
	<g class="st3">
		<path class="st4" d="M312.9,171.9l15.8-13c0,0,15.5-18.4,16.1-19.3s7.2-15,7.2-15l3.3-12.6l-0.2-12.3l-3.8-13.5l-1.9-10
			l-15.3-26.3l-14.9-5.1l-14.9-5.4l-2.3,16l-5.2,24.1L292.5,99l7.5,22l6,31L312.9,171.9z"/>
		<path class="st4" d="M146.1,176.7c-29-2.9-27,32.7-18.7,41.3s19,10.7,26.7,15s15,12.7,24.3,13.7s32.4,6,38.7,8.3
			c6.3,2.3,41.3,14,48.9,12s38-16.6,38-16.6l-7.2,7l-15.3,12.7c0,0-5.8,4.6-7.7,3.9s-9.9,0.2-10.8,0s-17.2-1.8-17.2-1.8l-50.5-11.6
			l-6.4-0.6l-9.1-0.1l-9.7-2.7l-15.1-8.9l-8.8-5.6l-18.8-8.9l-5.6-5l-23.5-41.3c0,0-7.6-10.1-8.4-11S78,164,78,164l-6.9-9.5
			l-2.2-9.8l5.7-22.9C74.6,121.7,163.9,178.5,146.1,176.7z"/>
		<path class="st4" d="M74.9,118.6c-0.4,1.2,10.6,15.2,10.6,15.2l13.2,12.4l20.1,13.9l17.2,11.1l18.6,9.4l16.5,10l12.4,9.8l12.8,13
			l18.8,20.9l13,11.2l13.6,6.1l8.8,2.5c0,0,8-2.6,10.7-3.1c10.2-1.9,33.3-50.9-14.4-38.3c-39.6,10.5-49.9-13.7-60.3-26.2
			s12.3-10.7,28.6-8.4c9.2,1.3,61,8.6,74.6,8.4c13.7-0.2,25.3-5.7,25.3-5.7l-24.7-2.1l-16.7-2l-26.3-6l-32.3-7l-26.1-5.9l-29.3-9.7
			l-28.1-8l-23.8-10.5l-28-11.3l-7.4-4L74.9,118.6z"/>
		<path class="st4" d="M180.7,249.3c-15.2-6.6-42.3-32.3-43.3-50s8-11.3,11.7-7s24.8,51.5,50.6,58.8
			C212.1,254.6,185.1,251.2,180.7,249.3z"/>
		<path class="st4" d="M309,236v-8l6.2-9.8c0,0,6-9.7,15.1-9.3s15.1,1,14.3,3.4c-0.8,2.3-8.2,5.3-8.2,5.3l-13,6.4L309,236z"/>
		<path class="st4" d="M346.1,180.5c1,0,16.1,0.9,16.1,0.9s8.3-1.3,9-2.7s6.9-4.8,6.9-4.8l-3.9-6.9c0,0-15.8-5.4-21.8,0
			S346.1,180.5,346.1,180.5z"/>
		<path class="st4" d="M72.3,87.7c0,0,10.3,4.3,15.8,9.6s50.6,41.9,61.1,46.1s-10.2,4.2-10.2,4.2l-37.3-15.3l-28.3-16.5l-6.9-13
			l2.4-8.6L72.3,87.7z"/>
	</g>
	<g>
		<g>
			<path class="st2" d="M79.6,61.7C75.2,72.8,70.7,83.8,66.4,95c-1.5,3.8-2.5,7.5-1.3,11.5c1.2,4.1,3.7,8,5.9,11.7
				c10.2,16.5,24.8,29.7,41.1,40.1c18.2,11.7,38,20.8,55.6,33.4c16.6,11.9,30,26,43.5,41.2c12,13.5,31.5,27.5,50.5,19.8
				c1.7-0.7,1.9-2.6,0.5-3.7c-4.5-3.3-9.6-4.8-15.1-5.2c-2.6-0.2-2.6,3.8,0,4c4.8,0.4,9.2,1.8,13.1,4.7c0.2-1.2,0.3-2.4,0.5-3.7
				c-17.9,7.4-35.8-6.6-47.1-19.3c-11.6-13.2-23.3-25.6-37.3-36.4c-30.8-23.7-70.1-36-94.9-67c-3.2-3.9-6-8.1-8.5-12.5
				c-3-5.3-5.4-9.9-3.2-16c4.2-11.7,9.2-23.1,13.7-34.7C84.4,60.4,80.5,59.4,79.6,61.7L79.6,61.7z"/>
		</g>
		<g>
			<path class="st2" d="M82.7,64.5c20.8,11.1,39.5,26.5,56.1,43.2c7.5,7.5,14.6,15.4,20.8,24c4,5.6,8.4,12,9.6,19
				c0.4,2.5,4.3,1.5,3.9-1.1c-1.2-7.1-5.6-13.7-9.7-19.5c-6.2-8.7-13.3-16.7-20.7-24.3C125.6,88.5,106.3,72.5,84.8,61
				C82.4,59.9,80.4,63.3,82.7,64.5L82.7,64.5z"/>
		</g>
		<g>
			<path class="st2" d="M69,114.2c17.1,10.5,36.7,17.4,55.5,24.1c25.7,9.1,51.8,16.9,78.1,23.9c23.4,6.3,47.1,12.1,71.1,15.9
				c7.7,1.2,15.6,2.4,23.4,2.6c3,0.1,5.9,0.1,8.7-1c5-2,9.5-5.9,13.6-9.4c13-11,25.9-24.3,32.6-40.2c7.5-17.7,6.7-37.2-1.7-54.4
				c-1.1-2.3-4.6-0.3-3.5,2c8.1,16.7,8.4,35.7,0.7,52.6c-6.3,13.7-17.4,25.1-28.5,35c-4.3,3.9-9.1,8.4-14.6,10.6
				c-2.5,1-5.5,0.8-8.2,0.7c-7.8-0.3-15.6-1.4-23.3-2.7c-47.8-7.9-95.2-21.6-140.9-37.3c-20.7-7.1-42.3-14.4-61-25.9
				C68.8,109.4,66.8,112.8,69,114.2L69,114.2z"/>
		</g>
		<g>
			<path class="st2" d="M329.9,207.9c-10.1,1.5-18.7,8.4-22.3,18c-1.1,2.9-1.9,6.4-1,9.4c0.2,0.8,0.9,1.5,1.1,2.3
				c0.5,1.7,0,2.2-0.6,3.8c-1.6,4.3-2.7,7.6-6.1,10.9c-4.4,4.4-9.9,7.9-14.8,11.8c-5.6,4.5-12.2,9.1-19.7,9
				c-8.9-0.1-17.9-2.4-26.5-4.2c-10.6-2.2-21.1-4.7-31.6-7.3c-5.3-1.3-10.8-3.2-16.2-3.7c-4.6-0.4-9,0.6-13.6-0.3s-9-2.7-13.1-4.9
				c-7-3.9-13.1-9.1-20.2-12.8c-7.3-3.7-15.7-5.6-21.5-11.9c-5.3-5.9-8.3-14-11.9-21c-4.2-8.2-8.7-16.3-14.2-23.7
				c-5.1-7.1-11.2-13.1-17.1-19.4c-6.6-7.1-11.5-14.2-9.1-24.3c1.8-7.5,5-14.6,3.2-22.5c-0.6-2.5-4.4-1.4-3.9,1.1
				c1.9,8.2-2.9,16.1-4,24.1c-0.9,6.5,1.2,12.3,5,17.6c4.5,6.2,10.3,11.2,15.3,16.8c6.2,6.9,11.3,14.6,15.9,22.6
				c4,7.1,7.5,14.4,11.2,21.7c3.3,6.5,7.5,12.2,13.9,15.8c7.3,4.1,15.3,6.5,22.3,11.1c6.7,4.5,13.2,9.3,20.9,12.1
				c3.5,1.2,7.1,2,10.8,2.2c3,0.2,7.7-0.5,9.9-0.2c2.4,0.3,4.8,1.1,7.2,1.6c9.9,2.4,19.9,4.8,29.8,7.1c10.2,2.3,20.5,4.6,30.8,5.9
				c4.4,0.6,8.8,0.9,13.2-0.4c5.9-1.7,11-5.4,15.7-9.2c5.9-4.8,12.9-8.8,17.5-14.9c2.4-3.1,3.1-6.5,4.6-10c0.9-2.1,1.3-3.4,0.4-5.6
				c-1-2.3-1.6-3.2-1.2-5.8s1.6-5.2,3-7.4c3.9-6.4,10.2-10.3,17.6-11.4C333.5,211.4,332.4,207.6,329.9,207.9L329.9,207.9z"/>
		</g>
		<g>
			<path class="st2" d="M312.6,172.9c-4.4-23-9.9-46-15.9-68.7c-0.6-2.1-1.1-4.2-1.7-6.3c-0.5-1.6-0.5-0.3-0.2-1.9
				c0.6-4.5,2.3-9.1,3.3-13.5c3.5-14.4,8.1-29.7,7.1-44.6c-0.8,0.6-1.7,1.3-2.5,1.9c15.7,5.3,31.5,11.4,46.2,19.2
				c8.4,4.5,15.1,9.7,20.1,17.9c5.3,8.7,8.6,18.5,11,28.4c4.9,20.4,6.5,42.3,4.1,63.1c-0.8,6.5-1.7,14.5-5.5,20.1
				c-2.7,3.9-8.6,6.3-12.7,8.7c-19.6,11.7-40.4,22.7-58.3,37c-2,1.6,0.8,4.4,2.8,2.8c17.1-13.7,37.1-24.2,55.8-35.4
				c4.6-2.8,10.8-5.3,14.5-9.4c4.2-4.6,5.5-12,6.5-17.9c3.5-20.7,2.2-42.7-1.9-63.3c-3.6-18.4-10.2-39.7-26.5-50.7
				c-16.4-11.1-36.4-18.1-55.1-24.4c-1.2-0.4-2.6,0.7-2.5,1.9c1,15.3-3.9,31.2-7.5,45.9c-0.9,3.8-2.5,7.9-2.9,11.8
				c-0.3,2.9,1.2,6.2,2,9.1c6,22.8,11.6,45.9,16,69.1C309.2,176.5,313.1,175.4,312.6,172.9L312.6,172.9z"/>
		</g>
		<g>
			<path class="st2" d="M223.2,165c2.4-4.2,6.6-7.7,10-11.1c6.2-6,12.7-11.7,19.4-17.3c13.5-11.3,27.5-22.8,42.9-31.4
				c2.2-1.3,0.2-4.7-2-3.5c-15.7,8.8-30,20.5-43.7,32c-6.7,5.7-13.4,11.5-19.7,17.6c-3.6,3.5-7.8,7.1-10.3,11.6
				C218.5,165.2,221.9,167.2,223.2,165L223.2,165z"/>
		</g>
		<g>
			<path class="st2" d="M132.8,96c0.8-17.1,0.7-34.2,0.8-51.3c0-1.4-1.3-2.1-2.5-1.9c-7.8,1.2-15.9,4.5-23.4,6.9
				c-8.8,2.8-19.5,5.3-27.2,10.7c-2.1,1.5-0.1,4.9,2,3.5c7.7-5.4,18.5-7.8,27.3-10.7c7.2-2.3,14.8-5.4,22.3-6.6
				c-0.8-0.6-1.7-1.3-2.5-1.9c-0.1,17.1,0,34.2-0.8,51.3C128.7,98.6,132.7,98.6,132.8,96L132.8,96z"/>
		</g>
		<g>
			<path class="st2" d="M300.6,181.4c20.4,0.8,41.3,2.2,61.7,0.9c5.6-0.3,14.8-1.7,16.8-8.2c1.8-6-4.9-9.4-9.9-9
				c-2.6,0.2-2.6,4.2,0,4c2.5-0.2,5.1,0.6,5.6,3.1c0.4,2.4-1.4,3.3-3.3,4.3c-3.3,1.7-7.4,1.9-11,2c-6.7,0.2-13.5,0-20.2,0
				c-13.2-0.1-26.4-0.5-39.6-1C298,177.3,298,181.3,300.6,181.4L300.6,181.4z"/>
		</g>
		<g>
			<path class="st2" d="M77.8,92.7c4.3,1.8,8.2,4.4,11.5,7.8c1.4,1.4,3.5-0.7,2.1-2.1c-3.5-3.5-7.5-6.3-12.1-8.3
				C77.5,89.3,76,91.9,77.8,92.7L77.8,92.7z"/>
		</g>
		<g>
			<path class="st2" d="M83.4,86.3c6,2.4,11,6.5,14.7,11.9c1.1,1.6,3.7,0.1,2.6-1.5c-4.1-6.1-9.7-10.5-16.4-13.2
				C82.4,82.7,81.6,85.6,83.4,86.3L83.4,86.3z"/>
		</g>
		<g>
			<path class="st2" d="M152,165.6c6.8,2.3,13.3,5.2,19.6,8.7c1.7,0.9,3.2-1.7,1.5-2.6c-6.5-3.6-13.3-6.6-20.3-9
				C151,162.1,150.2,165,152,165.6L152,165.6z"/>
		</g>
		<g>
			<path class="st2" d="M154.7,158.7c7.5,1.4,14.2,4.3,20.3,9c1.5,1.2,3-1.4,1.5-2.6c-6.2-4.8-13.3-7.9-21-9.3
				C153.6,155.4,152.8,158.3,154.7,158.7L154.7,158.7z"/>
		</g>
		<g>
			<path class="st2" d="M145.1,213.1c3,4.9,6.8,9,11.5,12.3c1.6,1.1,3.1-1.5,1.5-2.6c-4.2-3-7.7-6.8-10.4-11.2
				C146.7,209.9,144.1,211.4,145.1,213.1L145.1,213.1z"/>
		</g>
		<g>
			<path class="st2" d="M152.8,211.1c3.8,6.8,8.7,12.8,14.8,17.8c1.5,1.2,3.6-0.9,2.1-2.1c-5.9-4.8-10.6-10.5-14.3-17.2
				C154.5,207.9,151.9,209.4,152.8,211.1L152.8,211.1z"/>
		</g>
		<g>
			<path class="st2" d="M354.2,99.3c1.9,16.6,0.1,32.6-7.5,47.7c-5.9,11.9-12.7,26.2-25.5,31.7c-1.8,0.8-0.2,3.4,1.5,2.6
				c13.3-5.8,20.4-20.5,26.6-32.8c7.8-15.6,9.8-32,7.9-49.2C357,97.4,354,97.4,354.2,99.3L354.2,99.3z"/>
		</g>
		<g>
			<path class="st2" d="M92.4,61c6.9,3.4,13.5,7.4,19.6,12.2c2.6,2.1,5.2,4.3,7.6,6.6c1.2,1.2,2.4,2.4,3.5,3.6
				c1.4,1.4,2.6,4.4,4.6,3c0.6,0.1,1.2,0.2,1.8,0.2c0-0.1-0.1-0.1-0.1-0.2c0.1,0.6,0.2,1.2,0.2,1.8c0-0.1,0.1-0.1,0.1-0.2
				c1.1-1.6-1.5-3.1-2.6-1.5c0,0.1-0.1,0.1-0.1,0.2c-0.4,0.6-0.2,1.3,0.2,1.8c0,0.1,0.1,0.1,0.1,0.2c0.4,0.5,1.3,0.6,1.8,0.2
				c0.1,0,0.1-0.1,0.2-0.1c0.4-0.3,0.8-0.8,0.7-1.3c-0.2-2.4-3.4-4.7-4.9-6.3c-3.1-3.3-6.3-6.3-9.8-9.2c-6.6-5.4-13.8-10-21.5-13.8
				C92.2,57.6,90.7,60.2,92.4,61L92.4,61z"/>
		</g>
		<g>
			<path class="st2" d="M103.3,57.1c9.6,4.4,17.9,10.6,24.8,18.6c1.3,1.5,3.4-0.7,2.1-2.1c-7-8.2-15.5-14.6-25.4-19.1
				C103,53.7,101.5,56.3,103.3,57.1L103.3,57.1z"/>
		</g>
		<g>
			<path class="st2" d="M113.2,51.8c3.1,1.9,6.1,4,8.9,6.4c2.2,1.9,5.5,4.4,6.6,7.2c0.7,1.8,3.6,1,2.9-0.8c-1.2-3.1-4.1-5.6-6.5-7.7
				c-3.2-2.9-6.7-5.4-10.3-7.6C113.1,48.2,111.6,50.8,113.2,51.8L113.2,51.8z"/>
		</g>
		<g>
			<path class="st2" d="M120.6,49.6c3.7,2.1,7,4.7,8.8,8.7c0.8,1.8,3.4,0.2,2.6-1.5c-2-4.4-5.8-7.4-9.9-9.7
				C120.4,46,118.9,48.6,120.6,49.6L120.6,49.6z"/>
		</g>
	</g>
</g>
</svg>
