<?xml version="1.0" encoding="utf-8"?>
<!-- Generator: Adobe Illustrator 19.2.0, SVG Export Plug-In . SVG Version: 6.00 Build 0)  -->
<svg version="1.1" id="Layer_1" xmlns="http://www.w3.org/2000/svg" xmlns:xlink="http://www.w3.org/1999/xlink" x="0px" y="0px"
	 viewBox="0 0 130 59" style="enable-background:new 0 0 130 59;" xml:space="preserve">
<style type="text/css">
	.st0{fill:#3A291D;}
	.st1{fill-rule:evenodd;clip-rule:evenodd;fill:#D6AA89;}
</style>
<g>
	<g>
		<g>
			<path class="st0" d="M16.7,24.4c6.5,1.8,14.4,0.5,21,0.2c3.3-0.2,6.6-0.5,9.9-0.5c4.9-0.1,9.4,2.4,14.3,2.4c4,0,7.9-1.5,11.7-2.4
				c3.8-0.9,7.8-0.5,11.7-0.2c7.2,0.6,16.7,3,23.5-0.1c1.7-0.8,0.2-3.4-1.5-2.6c-3.3,1.5-7.7,0.9-11.2,0.7
				c-4.4-0.3-8.8-0.8-13.2-1.1c-3.2-0.2-6.4-0.3-9.6,0.4c-4.2,0.9-8.4,2.7-12.8,2.3c-4.4-0.4-8.3-2.4-12.8-2.3
				c-2.9,0-5.9,0.3-8.8,0.4c-6.6,0.3-14.8,1.7-21.3,0C15.7,21,14.9,23.9,16.7,24.4L16.7,24.4z"/>
		</g>
	</g>
	<g>
		<g>
			<path class="st0" d="M25.9,23.2c-2.2-3.8,14.6-10.8,17.2-11.7c6.2-2.1,12,2,18.1,2.1c4.3,0.1,8.6-2.2,12.8-3
				c3.4-0.6,6,0.1,9.1,1.3c2.5,0.9,18.2,7.1,15.7,11.2c-1,1.7,1.6,3.2,2.6,1.5c3.8-6.3-8.6-11.7-12.6-13.5c-3.3-1.5-7-3.2-10.6-3.6
				c-5.8-0.7-11,3-16.6,3.2c-4.6,0.1-9.4-2.3-14.1-2.7c-3.5-0.3-6.5,1.1-9.7,2.6c-4,1.8-18.4,7.7-14.6,14.3
				C24.3,26.4,26.9,24.9,25.9,23.2L25.9,23.2z"/>
		</g>
	</g>
	<g>
		<g>
			<path class="st1" d="M75.5,39.5L66,40.6h-8.3c0,0-6.8-2.7-8.3-1.2s-3.9,5.7-3.5,9.4c0.3,3.2,32.3,5.9,33-2.4
				C79.3,43,75.5,39.5,75.5,39.5z M117,15.2c-2.7-4.4-4.7-2.1-5.9-1.2c-1.2,0.9-1.4,2.6-1.2,3.5c1.2,4.9,2.2,7,1.2,14.1
				c-0.4,2.7,6.7,2.8,8.8-1.2C121.9,26.8,119.6,19.7,117,15.2z"/>
		</g>
	</g>
	<g>
		<g>
			<path class="st0" d="M26.2,30.3C33.5,42,48,42.1,60.2,42.4C74,42.7,88.1,41,98.3,30.6c1.4-1.4-0.8-3.5-2.1-2.1
				c-9.3,9.5-22.1,11.1-34.7,10.9c-11.3-0.1-26,0.3-32.7-10.6C27.7,27.1,25.1,28.6,26.2,30.3L26.2,30.3z"/>
		</g>
	</g>
	<g>
		<g>
			<path class="st0" d="M15.8,15.6c-1.7,3.3-3,7.2-3.5,10.8c-0.3,1.9,2.6,2.7,2.9,0.8c0.5-3.4,1.7-7.1,3.2-10.1
				C19.3,15.4,16.7,13.9,15.8,15.6L15.8,15.6z"/>
		</g>
	</g>
	<g>
		<g>
			<path class="st0" d="M107,17.2c2.1,3.6,2.9,7.5,2.4,11.6c-0.2,1.9,2.8,1.9,3,0c0.5-4.6-0.5-9.1-2.8-13.1
				C108.6,14,106,15.5,107,17.2L107,17.2z"/>
		</g>
	</g>
</g>
</svg>
